G04 #@! TF.GenerationSoftware,KiCad,Pcbnew,5.0.2+dfsg1-1*
G04 #@! TF.CreationDate,2020-03-04T17:04:26-03:00*
G04 #@! TF.ProjectId,servo,73657276-6f2e-46b6-9963-61645f706362,1.0*
G04 #@! TF.SameCoordinates,PX3dfd240PYc5e32e0*
G04 #@! TF.FileFunction,Copper,L4,Inr*
G04 #@! TF.FilePolarity,Positive*
%FSLAX46Y46*%
G04 Gerber Fmt 4.6, Leading zero omitted, Abs format (unit mm)*
G04 Created by KiCad (PCBNEW 5.0.2+dfsg1-1) date Wed 04 Mar 2020 05:04:26 PM -03*
%MOMM*%
%LPD*%
G01*
G04 APERTURE LIST*
%ADD10C,0.100000*%
%ADD11C,0.150000*%
%ADD12C,0.300000*%
%ADD13C,0.400000*%
G04 #@! TA.AperFunction,NonConductor*
%ADD14C,0.100000*%
G04 #@! TD*
G04 #@! TA.AperFunction,ViaPad*
%ADD15C,3.500000*%
G04 #@! TD*
G04 #@! TA.AperFunction,ViaPad*
%ADD16C,1.600000*%
G04 #@! TD*
G04 #@! TA.AperFunction,ViaPad*
%ADD17C,1.500000*%
G04 #@! TD*
G04 #@! TA.AperFunction,ViaPad*
%ADD18C,2.200000*%
G04 #@! TD*
G04 #@! TA.AperFunction,ViaPad*
%ADD19O,2.500000X3.000000*%
G04 #@! TD*
G04 #@! TA.AperFunction,ViaPad*
%ADD20O,2.000000X2.500000*%
G04 #@! TD*
G04 #@! TA.AperFunction,ViaPad*
%ADD21O,3.000000X2.000000*%
G04 #@! TD*
G04 #@! TA.AperFunction,ViaPad*
%ADD22O,3.000000X2.500000*%
G04 #@! TD*
G04 #@! TA.AperFunction,ViaPad*
%ADD23O,3.000000X3.000000*%
G04 #@! TD*
G04 #@! TA.AperFunction,ViaPad*
%ADD24C,0.500000*%
G04 #@! TD*
G04 #@! TA.AperFunction,ViaPad*
%ADD25C,2.000000*%
G04 #@! TD*
G04 #@! TA.AperFunction,Conductor*
%ADD26C,0.100000*%
G04 #@! TD*
G04 #@! TA.AperFunction,ViaPad*
%ADD27C,3.000000*%
G04 #@! TD*
G04 #@! TA.AperFunction,ViaPad*
%ADD28C,3.326000*%
G04 #@! TD*
G04 #@! TA.AperFunction,ViaPad*
%ADD29C,2.355000*%
G04 #@! TD*
G04 #@! TA.AperFunction,ViaPad*
%ADD30R,1.800000X3.000000*%
G04 #@! TD*
G04 #@! TA.AperFunction,ViaPad*
%ADD31O,1.800000X3.000000*%
G04 #@! TD*
G04 #@! TA.AperFunction,ViaPad*
%ADD32C,0.457000*%
G04 #@! TD*
G04 #@! TA.AperFunction,ViaPad*
%ADD33C,1.000000*%
G04 #@! TD*
G04 #@! TA.AperFunction,ViaPad*
%ADD34C,0.600000*%
G04 #@! TD*
G04 #@! TA.AperFunction,ViaPad*
%ADD35C,0.800000*%
G04 #@! TD*
G04 #@! TA.AperFunction,ViaPad*
%ADD36C,0.700000*%
G04 #@! TD*
G04 #@! TA.AperFunction,Conductor*
%ADD37C,1.500000*%
G04 #@! TD*
G04 #@! TA.AperFunction,Conductor*
%ADD38C,0.500000*%
G04 #@! TD*
G04 #@! TA.AperFunction,Conductor*
%ADD39C,1.000000*%
G04 #@! TD*
G04 #@! TA.AperFunction,Conductor*
%ADD40C,0.200000*%
G04 #@! TD*
G04 #@! TA.AperFunction,Conductor*
%ADD41C,0.152400*%
G04 #@! TD*
G04 #@! TA.AperFunction,Conductor*
%ADD42C,0.250000*%
G04 #@! TD*
G04 #@! TA.AperFunction,Conductor*
%ADD43C,0.400000*%
G04 #@! TD*
G04 APERTURE END LIST*
D10*
D11*
X234989000Y-45502200D02*
X234989000Y-77502200D01*
X342989000Y-77502200D01*
X342989000Y-45502200D01*
X234989000Y-45502200D01*
D10*
D11*
X-55000000Y197500000D02*
X-55000000Y-79502200D01*
X344989000Y-79502200D01*
X344989000Y197500000D01*
X-55000000Y197500000D01*
D10*
D11*
X-53000000Y195500000D02*
X-53000000Y-77502200D01*
X342989000Y-77502200D01*
X342989000Y195500000D01*
X-53000000Y195500000D01*
D10*
D11*
X-5000000Y195500000D02*
X-5000000Y197500000D01*
D10*
D11*
X45000000Y195500000D02*
X45000000Y197500000D01*
D10*
D11*
X95000000Y195500000D02*
X95000000Y197500000D01*
D10*
D11*
X145000000Y195500000D02*
X145000000Y197500000D01*
D10*
D11*
X195000000Y195500000D02*
X195000000Y197500000D01*
D10*
D11*
X245000000Y195500000D02*
X245000000Y197500000D01*
D10*
D11*
X295000000Y195500000D02*
X295000000Y197500000D01*
D10*
D11*
X-28934524Y195911905D02*
X-29677381Y195911905D01*
X-29305953Y195911905D02*
X-29305953Y197211905D01*
X-29429762Y197026191D01*
X-29553572Y196902381D01*
X-29677381Y196840477D01*
D10*
D11*
X20322619Y197088096D02*
X20384523Y197150000D01*
X20508333Y197211905D01*
X20817857Y197211905D01*
X20941666Y197150000D01*
X21003571Y197088096D01*
X21065476Y196964286D01*
X21065476Y196840477D01*
X21003571Y196654762D01*
X20260714Y195911905D01*
X21065476Y195911905D01*
D10*
D11*
X70260714Y197211905D02*
X71065476Y197211905D01*
X70632142Y196716667D01*
X70817857Y196716667D01*
X70941666Y196654762D01*
X71003571Y196592858D01*
X71065476Y196469048D01*
X71065476Y196159524D01*
X71003571Y196035715D01*
X70941666Y195973810D01*
X70817857Y195911905D01*
X70446428Y195911905D01*
X70322619Y195973810D01*
X70260714Y196035715D01*
D10*
D11*
X120941666Y196778572D02*
X120941666Y195911905D01*
X120632142Y197273810D02*
X120322619Y196345239D01*
X121127380Y196345239D01*
D10*
D11*
X171003571Y197211905D02*
X170384523Y197211905D01*
X170322619Y196592858D01*
X170384523Y196654762D01*
X170508333Y196716667D01*
X170817857Y196716667D01*
X170941666Y196654762D01*
X171003571Y196592858D01*
X171065476Y196469048D01*
X171065476Y196159524D01*
X171003571Y196035715D01*
X170941666Y195973810D01*
X170817857Y195911905D01*
X170508333Y195911905D01*
X170384523Y195973810D01*
X170322619Y196035715D01*
D10*
D11*
X220941666Y197211905D02*
X220694047Y197211905D01*
X220570238Y197150000D01*
X220508333Y197088096D01*
X220384523Y196902381D01*
X220322619Y196654762D01*
X220322619Y196159524D01*
X220384523Y196035715D01*
X220446428Y195973810D01*
X220570238Y195911905D01*
X220817857Y195911905D01*
X220941666Y195973810D01*
X221003571Y196035715D01*
X221065476Y196159524D01*
X221065476Y196469048D01*
X221003571Y196592858D01*
X220941666Y196654762D01*
X220817857Y196716667D01*
X220570238Y196716667D01*
X220446428Y196654762D01*
X220384523Y196592858D01*
X220322619Y196469048D01*
D10*
D11*
X270260714Y197211905D02*
X271127380Y197211905D01*
X270570238Y195911905D01*
D10*
D11*
X320570238Y196654762D02*
X320446428Y196716667D01*
X320384523Y196778572D01*
X320322619Y196902381D01*
X320322619Y196964286D01*
X320384523Y197088096D01*
X320446428Y197150000D01*
X320570238Y197211905D01*
X320817857Y197211905D01*
X320941666Y197150000D01*
X321003571Y197088096D01*
X321065476Y196964286D01*
X321065476Y196902381D01*
X321003571Y196778572D01*
X320941666Y196716667D01*
X320817857Y196654762D01*
X320570238Y196654762D01*
X320446428Y196592858D01*
X320384523Y196530953D01*
X320322619Y196407143D01*
X320322619Y196159524D01*
X320384523Y196035715D01*
X320446428Y195973810D01*
X320570238Y195911905D01*
X320817857Y195911905D01*
X320941666Y195973810D01*
X321003571Y196035715D01*
X321065476Y196159524D01*
X321065476Y196407143D01*
X321003571Y196530953D01*
X320941666Y196592858D01*
X320817857Y196654762D01*
D10*
D11*
X-5000000Y-77502200D02*
X-5000000Y-79502200D01*
D10*
D11*
X45000000Y-77502200D02*
X45000000Y-79502200D01*
D10*
D11*
X95000000Y-77502200D02*
X95000000Y-79502200D01*
D10*
D11*
X145000000Y-77502200D02*
X145000000Y-79502200D01*
D10*
D11*
X195000000Y-77502200D02*
X195000000Y-79502200D01*
D10*
D11*
X245000000Y-77502200D02*
X245000000Y-79502200D01*
D10*
D11*
X295000000Y-77502200D02*
X295000000Y-79502200D01*
D10*
D11*
X-28934524Y-79090295D02*
X-29677381Y-79090295D01*
X-29305953Y-79090295D02*
X-29305953Y-77790295D01*
X-29429762Y-77976009D01*
X-29553572Y-78099819D01*
X-29677381Y-78161723D01*
D10*
D11*
X20322619Y-77914104D02*
X20384523Y-77852200D01*
X20508333Y-77790295D01*
X20817857Y-77790295D01*
X20941666Y-77852200D01*
X21003571Y-77914104D01*
X21065476Y-78037914D01*
X21065476Y-78161723D01*
X21003571Y-78347438D01*
X20260714Y-79090295D01*
X21065476Y-79090295D01*
D10*
D11*
X70260714Y-77790295D02*
X71065476Y-77790295D01*
X70632142Y-78285533D01*
X70817857Y-78285533D01*
X70941666Y-78347438D01*
X71003571Y-78409342D01*
X71065476Y-78533152D01*
X71065476Y-78842676D01*
X71003571Y-78966485D01*
X70941666Y-79028390D01*
X70817857Y-79090295D01*
X70446428Y-79090295D01*
X70322619Y-79028390D01*
X70260714Y-78966485D01*
D10*
D11*
X120941666Y-78223628D02*
X120941666Y-79090295D01*
X120632142Y-77728390D02*
X120322619Y-78656961D01*
X121127380Y-78656961D01*
D10*
D11*
X171003571Y-77790295D02*
X170384523Y-77790295D01*
X170322619Y-78409342D01*
X170384523Y-78347438D01*
X170508333Y-78285533D01*
X170817857Y-78285533D01*
X170941666Y-78347438D01*
X171003571Y-78409342D01*
X171065476Y-78533152D01*
X171065476Y-78842676D01*
X171003571Y-78966485D01*
X170941666Y-79028390D01*
X170817857Y-79090295D01*
X170508333Y-79090295D01*
X170384523Y-79028390D01*
X170322619Y-78966485D01*
D10*
D11*
X220941666Y-77790295D02*
X220694047Y-77790295D01*
X220570238Y-77852200D01*
X220508333Y-77914104D01*
X220384523Y-78099819D01*
X220322619Y-78347438D01*
X220322619Y-78842676D01*
X220384523Y-78966485D01*
X220446428Y-79028390D01*
X220570238Y-79090295D01*
X220817857Y-79090295D01*
X220941666Y-79028390D01*
X221003571Y-78966485D01*
X221065476Y-78842676D01*
X221065476Y-78533152D01*
X221003571Y-78409342D01*
X220941666Y-78347438D01*
X220817857Y-78285533D01*
X220570238Y-78285533D01*
X220446428Y-78347438D01*
X220384523Y-78409342D01*
X220322619Y-78533152D01*
D10*
D11*
X270260714Y-77790295D02*
X271127380Y-77790295D01*
X270570238Y-79090295D01*
D10*
D11*
X320570238Y-78347438D02*
X320446428Y-78285533D01*
X320384523Y-78223628D01*
X320322619Y-78099819D01*
X320322619Y-78037914D01*
X320384523Y-77914104D01*
X320446428Y-77852200D01*
X320570238Y-77790295D01*
X320817857Y-77790295D01*
X320941666Y-77852200D01*
X321003571Y-77914104D01*
X321065476Y-78037914D01*
X321065476Y-78099819D01*
X321003571Y-78223628D01*
X320941666Y-78285533D01*
X320817857Y-78347438D01*
X320570238Y-78347438D01*
X320446428Y-78409342D01*
X320384523Y-78471247D01*
X320322619Y-78595057D01*
X320322619Y-78842676D01*
X320384523Y-78966485D01*
X320446428Y-79028390D01*
X320570238Y-79090295D01*
X320817857Y-79090295D01*
X320941666Y-79028390D01*
X321003571Y-78966485D01*
X321065476Y-78842676D01*
X321065476Y-78595057D01*
X321003571Y-78471247D01*
X320941666Y-78409342D01*
X320817857Y-78347438D01*
D10*
D11*
X-55000000Y147500000D02*
X-53000000Y147500000D01*
D10*
D11*
X-55000000Y97500000D02*
X-53000000Y97500000D01*
D10*
D11*
X-55000000Y47500000D02*
X-53000000Y47500000D01*
D10*
D11*
X-55000000Y-2500000D02*
X-53000000Y-2500000D01*
D10*
D11*
X-55000000Y-52500000D02*
X-53000000Y-52500000D01*
D10*
D11*
X-54309524Y172283334D02*
X-53690477Y172283334D01*
X-54433334Y171911905D02*
X-54000000Y173211905D01*
X-53566667Y171911905D01*
D10*
D11*
X-53907143Y122592858D02*
X-53721429Y122530953D01*
X-53659524Y122469048D01*
X-53597620Y122345239D01*
X-53597620Y122159524D01*
X-53659524Y122035715D01*
X-53721429Y121973810D01*
X-53845239Y121911905D01*
X-54340477Y121911905D01*
X-54340477Y123211905D01*
X-53907143Y123211905D01*
X-53783334Y123150000D01*
X-53721429Y123088096D01*
X-53659524Y122964286D01*
X-53659524Y122840477D01*
X-53721429Y122716667D01*
X-53783334Y122654762D01*
X-53907143Y122592858D01*
X-54340477Y122592858D01*
D10*
D11*
X-53597620Y72035715D02*
X-53659524Y71973810D01*
X-53845239Y71911905D01*
X-53969048Y71911905D01*
X-54154762Y71973810D01*
X-54278572Y72097620D01*
X-54340477Y72221429D01*
X-54402381Y72469048D01*
X-54402381Y72654762D01*
X-54340477Y72902381D01*
X-54278572Y73026191D01*
X-54154762Y73150000D01*
X-53969048Y73211905D01*
X-53845239Y73211905D01*
X-53659524Y73150000D01*
X-53597620Y73088096D01*
D10*
D11*
X-54340477Y21911905D02*
X-54340477Y23211905D01*
X-54030953Y23211905D01*
X-53845239Y23150000D01*
X-53721429Y23026191D01*
X-53659524Y22902381D01*
X-53597620Y22654762D01*
X-53597620Y22469048D01*
X-53659524Y22221429D01*
X-53721429Y22097620D01*
X-53845239Y21973810D01*
X-54030953Y21911905D01*
X-54340477Y21911905D01*
D10*
D11*
X-54278572Y-27407142D02*
X-53845239Y-27407142D01*
X-53659524Y-28088095D02*
X-54278572Y-28088095D01*
X-54278572Y-26788095D01*
X-53659524Y-26788095D01*
D10*
D11*
X-53814286Y-77407142D02*
X-54247620Y-77407142D01*
X-54247620Y-78088095D02*
X-54247620Y-76788095D01*
X-53628572Y-76788095D01*
D10*
D11*
X344989000Y147500000D02*
X342989000Y147500000D01*
D10*
D11*
X344989000Y97500000D02*
X342989000Y97500000D01*
D10*
D11*
X344989000Y47500000D02*
X342989000Y47500000D01*
D10*
D11*
X344989000Y-2500000D02*
X342989000Y-2500000D01*
D10*
D11*
X344989000Y-52500000D02*
X342989000Y-52500000D01*
D10*
D11*
X343679476Y172283334D02*
X344298523Y172283334D01*
X343555666Y171911905D02*
X343989000Y173211905D01*
X344422333Y171911905D01*
D10*
D11*
X344081857Y122592858D02*
X344267571Y122530953D01*
X344329476Y122469048D01*
X344391380Y122345239D01*
X344391380Y122159524D01*
X344329476Y122035715D01*
X344267571Y121973810D01*
X344143761Y121911905D01*
X343648523Y121911905D01*
X343648523Y123211905D01*
X344081857Y123211905D01*
X344205666Y123150000D01*
X344267571Y123088096D01*
X344329476Y122964286D01*
X344329476Y122840477D01*
X344267571Y122716667D01*
X344205666Y122654762D01*
X344081857Y122592858D01*
X343648523Y122592858D01*
D10*
D11*
X344391380Y72035715D02*
X344329476Y71973810D01*
X344143761Y71911905D01*
X344019952Y71911905D01*
X343834238Y71973810D01*
X343710428Y72097620D01*
X343648523Y72221429D01*
X343586619Y72469048D01*
X343586619Y72654762D01*
X343648523Y72902381D01*
X343710428Y73026191D01*
X343834238Y73150000D01*
X344019952Y73211905D01*
X344143761Y73211905D01*
X344329476Y73150000D01*
X344391380Y73088096D01*
D10*
D11*
X343648523Y21911905D02*
X343648523Y23211905D01*
X343958047Y23211905D01*
X344143761Y23150000D01*
X344267571Y23026191D01*
X344329476Y22902381D01*
X344391380Y22654762D01*
X344391380Y22469048D01*
X344329476Y22221429D01*
X344267571Y22097620D01*
X344143761Y21973810D01*
X343958047Y21911905D01*
X343648523Y21911905D01*
D10*
D11*
X343710428Y-27407142D02*
X344143761Y-27407142D01*
X344329476Y-28088095D02*
X343710428Y-28088095D01*
X343710428Y-26788095D01*
X344329476Y-26788095D01*
D10*
D11*
X344174714Y-77407142D02*
X343741380Y-77407142D01*
X343741380Y-78088095D02*
X343741380Y-76788095D01*
X344360428Y-76788095D01*
D10*
D11*
X258421142Y-73280771D02*
X258421142Y-71780771D01*
X258778285Y-71780771D01*
X258992571Y-71852200D01*
X259135428Y-71995057D01*
X259206857Y-72137914D01*
X259278285Y-72423628D01*
X259278285Y-72637914D01*
X259206857Y-72923628D01*
X259135428Y-73066485D01*
X258992571Y-73209342D01*
X258778285Y-73280771D01*
X258421142Y-73280771D01*
X260564000Y-73280771D02*
X260564000Y-72495057D01*
X260492571Y-72352200D01*
X260349714Y-72280771D01*
X260064000Y-72280771D01*
X259921142Y-72352200D01*
X260564000Y-73209342D02*
X260421142Y-73280771D01*
X260064000Y-73280771D01*
X259921142Y-73209342D01*
X259849714Y-73066485D01*
X259849714Y-72923628D01*
X259921142Y-72780771D01*
X260064000Y-72709342D01*
X260421142Y-72709342D01*
X260564000Y-72637914D01*
X261064000Y-72280771D02*
X261635428Y-72280771D01*
X261278285Y-71780771D02*
X261278285Y-73066485D01*
X261349714Y-73209342D01*
X261492571Y-73280771D01*
X261635428Y-73280771D01*
X262706857Y-73209342D02*
X262564000Y-73280771D01*
X262278285Y-73280771D01*
X262135428Y-73209342D01*
X262064000Y-73066485D01*
X262064000Y-72495057D01*
X262135428Y-72352200D01*
X262278285Y-72280771D01*
X262564000Y-72280771D01*
X262706857Y-72352200D01*
X262778285Y-72495057D01*
X262778285Y-72637914D01*
X262064000Y-72780771D01*
X263421142Y-73137914D02*
X263492571Y-73209342D01*
X263421142Y-73280771D01*
X263349714Y-73209342D01*
X263421142Y-73137914D01*
X263421142Y-73280771D01*
X263421142Y-72352200D02*
X263492571Y-72423628D01*
X263421142Y-72495057D01*
X263349714Y-72423628D01*
X263421142Y-72352200D01*
X263421142Y-72495057D01*
X265206857Y-71923628D02*
X265278285Y-71852200D01*
X265421142Y-71780771D01*
X265778285Y-71780771D01*
X265921142Y-71852200D01*
X265992571Y-71923628D01*
X266064000Y-72066485D01*
X266064000Y-72209342D01*
X265992571Y-72423628D01*
X265135428Y-73280771D01*
X266064000Y-73280771D01*
X266992571Y-71780771D02*
X267135428Y-71780771D01*
X267278285Y-71852200D01*
X267349714Y-71923628D01*
X267421142Y-72066485D01*
X267492571Y-72352200D01*
X267492571Y-72709342D01*
X267421142Y-72995057D01*
X267349714Y-73137914D01*
X267278285Y-73209342D01*
X267135428Y-73280771D01*
X266992571Y-73280771D01*
X266849714Y-73209342D01*
X266778285Y-73137914D01*
X266706857Y-72995057D01*
X266635428Y-72709342D01*
X266635428Y-72352200D01*
X266706857Y-72066485D01*
X266778285Y-71923628D01*
X266849714Y-71852200D01*
X266992571Y-71780771D01*
X268064000Y-71923628D02*
X268135428Y-71852200D01*
X268278285Y-71780771D01*
X268635428Y-71780771D01*
X268778285Y-71852200D01*
X268849714Y-71923628D01*
X268921142Y-72066485D01*
X268921142Y-72209342D01*
X268849714Y-72423628D01*
X267992571Y-73280771D01*
X268921142Y-73280771D01*
X269849714Y-71780771D02*
X269992571Y-71780771D01*
X270135428Y-71852200D01*
X270206857Y-71923628D01*
X270278285Y-72066485D01*
X270349714Y-72352200D01*
X270349714Y-72709342D01*
X270278285Y-72995057D01*
X270206857Y-73137914D01*
X270135428Y-73209342D01*
X269992571Y-73280771D01*
X269849714Y-73280771D01*
X269706857Y-73209342D01*
X269635428Y-73137914D01*
X269564000Y-72995057D01*
X269492571Y-72709342D01*
X269492571Y-72352200D01*
X269564000Y-72066485D01*
X269635428Y-71923628D01*
X269706857Y-71852200D01*
X269849714Y-71780771D01*
X270992571Y-72709342D02*
X272135428Y-72709342D01*
X273135428Y-71780771D02*
X273278285Y-71780771D01*
X273421142Y-71852200D01*
X273492571Y-71923628D01*
X273564000Y-72066485D01*
X273635428Y-72352200D01*
X273635428Y-72709342D01*
X273564000Y-72995057D01*
X273492571Y-73137914D01*
X273421142Y-73209342D01*
X273278285Y-73280771D01*
X273135428Y-73280771D01*
X272992571Y-73209342D01*
X272921142Y-73137914D01*
X272849714Y-72995057D01*
X272778285Y-72709342D01*
X272778285Y-72352200D01*
X272849714Y-72066485D01*
X272921142Y-71923628D01*
X272992571Y-71852200D01*
X273135428Y-71780771D01*
X274135428Y-71780771D02*
X275064000Y-71780771D01*
X274564000Y-72352200D01*
X274778285Y-72352200D01*
X274921142Y-72423628D01*
X274992571Y-72495057D01*
X275064000Y-72637914D01*
X275064000Y-72995057D01*
X274992571Y-73137914D01*
X274921142Y-73209342D01*
X274778285Y-73280771D01*
X274349714Y-73280771D01*
X274206857Y-73209342D01*
X274135428Y-73137914D01*
X275706857Y-72709342D02*
X276849714Y-72709342D01*
X277849714Y-71780771D02*
X277992571Y-71780771D01*
X278135428Y-71852200D01*
X278206857Y-71923628D01*
X278278285Y-72066485D01*
X278349714Y-72352200D01*
X278349714Y-72709342D01*
X278278285Y-72995057D01*
X278206857Y-73137914D01*
X278135428Y-73209342D01*
X277992571Y-73280771D01*
X277849714Y-73280771D01*
X277706857Y-73209342D01*
X277635428Y-73137914D01*
X277564000Y-72995057D01*
X277492571Y-72709342D01*
X277492571Y-72352200D01*
X277564000Y-72066485D01*
X277635428Y-71923628D01*
X277706857Y-71852200D01*
X277849714Y-71780771D01*
X278849714Y-71780771D02*
X279778285Y-71780771D01*
X279278285Y-72352200D01*
X279492571Y-72352200D01*
X279635428Y-72423628D01*
X279706857Y-72495057D01*
X279778285Y-72637914D01*
X279778285Y-72995057D01*
X279706857Y-73137914D01*
X279635428Y-73209342D01*
X279492571Y-73280771D01*
X279064000Y-73280771D01*
X278921142Y-73209342D01*
X278849714Y-73137914D01*
D10*
D11*
X234989000Y-74002200D02*
X342989000Y-74002200D01*
D10*
D11*
X236421142Y-76080771D02*
X236421142Y-74580771D01*
X237278285Y-76080771D02*
X236635428Y-75223628D01*
X237278285Y-74580771D02*
X236421142Y-75437914D01*
X237921142Y-76080771D02*
X237921142Y-75080771D01*
X237921142Y-74580771D02*
X237849714Y-74652200D01*
X237921142Y-74723628D01*
X237992571Y-74652200D01*
X237921142Y-74580771D01*
X237921142Y-74723628D01*
X239492571Y-75937914D02*
X239421142Y-76009342D01*
X239206857Y-76080771D01*
X239064000Y-76080771D01*
X238849714Y-76009342D01*
X238706857Y-75866485D01*
X238635428Y-75723628D01*
X238564000Y-75437914D01*
X238564000Y-75223628D01*
X238635428Y-74937914D01*
X238706857Y-74795057D01*
X238849714Y-74652200D01*
X239064000Y-74580771D01*
X239206857Y-74580771D01*
X239421142Y-74652200D01*
X239492571Y-74723628D01*
X240778285Y-76080771D02*
X240778285Y-75295057D01*
X240706857Y-75152200D01*
X240564000Y-75080771D01*
X240278285Y-75080771D01*
X240135428Y-75152200D01*
X240778285Y-76009342D02*
X240635428Y-76080771D01*
X240278285Y-76080771D01*
X240135428Y-76009342D01*
X240064000Y-75866485D01*
X240064000Y-75723628D01*
X240135428Y-75580771D01*
X240278285Y-75509342D01*
X240635428Y-75509342D01*
X240778285Y-75437914D01*
X242135428Y-76080771D02*
X242135428Y-74580771D01*
X242135428Y-76009342D02*
X241992571Y-76080771D01*
X241706857Y-76080771D01*
X241564000Y-76009342D01*
X241492571Y-75937914D01*
X241421142Y-75795057D01*
X241421142Y-75366485D01*
X241492571Y-75223628D01*
X241564000Y-75152200D01*
X241706857Y-75080771D01*
X241992571Y-75080771D01*
X242135428Y-75152200D01*
X243992571Y-75295057D02*
X244492571Y-75295057D01*
X244706857Y-76080771D02*
X243992571Y-76080771D01*
X243992571Y-74580771D01*
X244706857Y-74580771D01*
X245349714Y-75937914D02*
X245421142Y-76009342D01*
X245349714Y-76080771D01*
X245278285Y-76009342D01*
X245349714Y-75937914D01*
X245349714Y-76080771D01*
X246064000Y-76080771D02*
X246064000Y-74580771D01*
X246421142Y-74580771D01*
X246635428Y-74652200D01*
X246778285Y-74795057D01*
X246849714Y-74937914D01*
X246921142Y-75223628D01*
X246921142Y-75437914D01*
X246849714Y-75723628D01*
X246778285Y-75866485D01*
X246635428Y-76009342D01*
X246421142Y-76080771D01*
X246064000Y-76080771D01*
X247564000Y-75937914D02*
X247635428Y-76009342D01*
X247564000Y-76080771D01*
X247492571Y-76009342D01*
X247564000Y-75937914D01*
X247564000Y-76080771D01*
X248206857Y-75652200D02*
X248921142Y-75652200D01*
X248064000Y-76080771D02*
X248564000Y-74580771D01*
X249064000Y-76080771D01*
X249564000Y-75937914D02*
X249635428Y-76009342D01*
X249564000Y-76080771D01*
X249492571Y-76009342D01*
X249564000Y-75937914D01*
X249564000Y-76080771D01*
X252564000Y-76080771D02*
X252564000Y-74580771D01*
X252706857Y-75509342D02*
X253135428Y-76080771D01*
X253135428Y-75080771D02*
X252564000Y-75652200D01*
X253778285Y-76080771D02*
X253778285Y-75080771D01*
X253778285Y-74580771D02*
X253706857Y-74652200D01*
X253778285Y-74723628D01*
X253849714Y-74652200D01*
X253778285Y-74580771D01*
X253778285Y-74723628D01*
X255135428Y-76009342D02*
X254992571Y-76080771D01*
X254706857Y-76080771D01*
X254564000Y-76009342D01*
X254492571Y-75937914D01*
X254421142Y-75795057D01*
X254421142Y-75366485D01*
X254492571Y-75223628D01*
X254564000Y-75152200D01*
X254706857Y-75080771D01*
X254992571Y-75080771D01*
X255135428Y-75152200D01*
X256421142Y-76080771D02*
X256421142Y-75295057D01*
X256349714Y-75152200D01*
X256206857Y-75080771D01*
X255921142Y-75080771D01*
X255778285Y-75152200D01*
X256421142Y-76009342D02*
X256278285Y-76080771D01*
X255921142Y-76080771D01*
X255778285Y-76009342D01*
X255706857Y-75866485D01*
X255706857Y-75723628D01*
X255778285Y-75580771D01*
X255921142Y-75509342D01*
X256278285Y-75509342D01*
X256421142Y-75437914D01*
X257778285Y-76080771D02*
X257778285Y-74580771D01*
X257778285Y-76009342D02*
X257635428Y-76080771D01*
X257349714Y-76080771D01*
X257206857Y-76009342D01*
X257135428Y-75937914D01*
X257064000Y-75795057D01*
X257064000Y-75366485D01*
X257135428Y-75223628D01*
X257206857Y-75152200D01*
X257349714Y-75080771D01*
X257635428Y-75080771D01*
X257778285Y-75152200D01*
X260349714Y-74580771D02*
X259635428Y-74580771D01*
X259564000Y-75295057D01*
X259635428Y-75223628D01*
X259778285Y-75152200D01*
X260135428Y-75152200D01*
X260278285Y-75223628D01*
X260349714Y-75295057D01*
X260421142Y-75437914D01*
X260421142Y-75795057D01*
X260349714Y-75937914D01*
X260278285Y-76009342D01*
X260135428Y-76080771D01*
X259778285Y-76080771D01*
X259635428Y-76009342D01*
X259564000Y-75937914D01*
X261064000Y-75937914D02*
X261135428Y-76009342D01*
X261064000Y-76080771D01*
X260992571Y-76009342D01*
X261064000Y-75937914D01*
X261064000Y-76080771D01*
X262064000Y-74580771D02*
X262206857Y-74580771D01*
X262349714Y-74652200D01*
X262421142Y-74723628D01*
X262492571Y-74866485D01*
X262564000Y-75152200D01*
X262564000Y-75509342D01*
X262492571Y-75795057D01*
X262421142Y-75937914D01*
X262349714Y-76009342D01*
X262206857Y-76080771D01*
X262064000Y-76080771D01*
X261921142Y-76009342D01*
X261849714Y-75937914D01*
X261778285Y-75795057D01*
X261706857Y-75509342D01*
X261706857Y-75152200D01*
X261778285Y-74866485D01*
X261849714Y-74723628D01*
X261921142Y-74652200D01*
X262064000Y-74580771D01*
X263206857Y-75937914D02*
X263278285Y-76009342D01*
X263206857Y-76080771D01*
X263135428Y-76009342D01*
X263206857Y-75937914D01*
X263206857Y-76080771D01*
X263849714Y-74723628D02*
X263921142Y-74652200D01*
X264064000Y-74580771D01*
X264421142Y-74580771D01*
X264564000Y-74652200D01*
X264635428Y-74723628D01*
X264706857Y-74866485D01*
X264706857Y-75009342D01*
X264635428Y-75223628D01*
X263778285Y-76080771D01*
X264706857Y-76080771D01*
X265349714Y-75509342D02*
X266492571Y-75509342D01*
X265921142Y-76080771D02*
X265921142Y-74937914D01*
X267849714Y-76080771D02*
X267849714Y-74580771D01*
X267849714Y-76009342D02*
X267706857Y-76080771D01*
X267421142Y-76080771D01*
X267278285Y-76009342D01*
X267206857Y-75937914D01*
X267135428Y-75795057D01*
X267135428Y-75366485D01*
X267206857Y-75223628D01*
X267278285Y-75152200D01*
X267421142Y-75080771D01*
X267706857Y-75080771D01*
X267849714Y-75152200D01*
X268349714Y-75080771D02*
X268921142Y-75080771D01*
X268564000Y-76080771D02*
X268564000Y-74795057D01*
X268635428Y-74652200D01*
X268778285Y-74580771D01*
X268921142Y-74580771D01*
X269349714Y-76009342D02*
X269492571Y-76080771D01*
X269778285Y-76080771D01*
X269921142Y-76009342D01*
X269992571Y-75866485D01*
X269992571Y-75795057D01*
X269921142Y-75652200D01*
X269778285Y-75580771D01*
X269564000Y-75580771D01*
X269421142Y-75509342D01*
X269349714Y-75366485D01*
X269349714Y-75295057D01*
X269421142Y-75152200D01*
X269564000Y-75080771D01*
X269778285Y-75080771D01*
X269921142Y-75152200D01*
X271278285Y-75080771D02*
X271278285Y-76295057D01*
X271206857Y-76437914D01*
X271135428Y-76509342D01*
X270992571Y-76580771D01*
X270778285Y-76580771D01*
X270635428Y-76509342D01*
X271278285Y-76009342D02*
X271135428Y-76080771D01*
X270849714Y-76080771D01*
X270706857Y-76009342D01*
X270635428Y-75937914D01*
X270564000Y-75795057D01*
X270564000Y-75366485D01*
X270635428Y-75223628D01*
X270706857Y-75152200D01*
X270849714Y-75080771D01*
X271135428Y-75080771D01*
X271278285Y-75152200D01*
X272778285Y-76080771D02*
X271921142Y-76080771D01*
X272349714Y-76080771D02*
X272349714Y-74580771D01*
X272206857Y-74795057D01*
X272064000Y-74937914D01*
X271921142Y-75009342D01*
X273421142Y-75509342D02*
X274564000Y-75509342D01*
X276064000Y-76080771D02*
X275206857Y-76080771D01*
X275635428Y-76080771D02*
X275635428Y-74580771D01*
X275492571Y-74795057D01*
X275349714Y-74937914D01*
X275206857Y-75009342D01*
D10*
D11*
X234989000Y-71002200D02*
X342989000Y-71002200D01*
D10*
D12*
X322398285Y-73280771D02*
X321898285Y-72566485D01*
X321541142Y-73280771D02*
X321541142Y-71780771D01*
X322112571Y-71780771D01*
X322255428Y-71852200D01*
X322326857Y-71923628D01*
X322398285Y-72066485D01*
X322398285Y-72280771D01*
X322326857Y-72423628D01*
X322255428Y-72495057D01*
X322112571Y-72566485D01*
X321541142Y-72566485D01*
X323612571Y-73209342D02*
X323469714Y-73280771D01*
X323184000Y-73280771D01*
X323041142Y-73209342D01*
X322969714Y-73066485D01*
X322969714Y-72495057D01*
X323041142Y-72352200D01*
X323184000Y-72280771D01*
X323469714Y-72280771D01*
X323612571Y-72352200D01*
X323684000Y-72495057D01*
X323684000Y-72637914D01*
X322969714Y-72780771D01*
X324184000Y-72280771D02*
X324541142Y-73280771D01*
X324898285Y-72280771D01*
X325469714Y-73137914D02*
X325541142Y-73209342D01*
X325469714Y-73280771D01*
X325398285Y-73209342D01*
X325469714Y-73137914D01*
X325469714Y-73280771D01*
X325469714Y-72352200D02*
X325541142Y-72423628D01*
X325469714Y-72495057D01*
X325398285Y-72423628D01*
X325469714Y-72352200D01*
X325469714Y-72495057D01*
X328112571Y-73280771D02*
X327255428Y-73280771D01*
X327684000Y-73280771D02*
X327684000Y-71780771D01*
X327541142Y-71995057D01*
X327398285Y-72137914D01*
X327255428Y-72209342D01*
X328755428Y-73137914D02*
X328826857Y-73209342D01*
X328755428Y-73280771D01*
X328684000Y-73209342D01*
X328755428Y-73137914D01*
X328755428Y-73280771D01*
X329755428Y-71780771D02*
X329898285Y-71780771D01*
X330041142Y-71852200D01*
X330112571Y-71923628D01*
X330184000Y-72066485D01*
X330255428Y-72352200D01*
X330255428Y-72709342D01*
X330184000Y-72995057D01*
X330112571Y-73137914D01*
X330041142Y-73209342D01*
X329898285Y-73280771D01*
X329755428Y-73280771D01*
X329612571Y-73209342D01*
X329541142Y-73137914D01*
X329469714Y-72995057D01*
X329398285Y-72709342D01*
X329398285Y-72352200D01*
X329469714Y-72066485D01*
X329541142Y-71923628D01*
X329612571Y-71852200D01*
X329755428Y-71780771D01*
D10*
D11*
X236349714Y-73209342D02*
X236564000Y-73280771D01*
X236921142Y-73280771D01*
X237064000Y-73209342D01*
X237135428Y-73137914D01*
X237206857Y-72995057D01*
X237206857Y-72852200D01*
X237135428Y-72709342D01*
X237064000Y-72637914D01*
X236921142Y-72566485D01*
X236635428Y-72495057D01*
X236492571Y-72423628D01*
X236421142Y-72352200D01*
X236349714Y-72209342D01*
X236349714Y-72066485D01*
X236421142Y-71923628D01*
X236492571Y-71852200D01*
X236635428Y-71780771D01*
X236992571Y-71780771D01*
X237206857Y-71852200D01*
X237849714Y-73280771D02*
X237849714Y-72280771D01*
X237849714Y-71780771D02*
X237778285Y-71852200D01*
X237849714Y-71923628D01*
X237921142Y-71852200D01*
X237849714Y-71780771D01*
X237849714Y-71923628D01*
X238421142Y-72280771D02*
X239206857Y-72280771D01*
X238421142Y-73280771D01*
X239206857Y-73280771D01*
X240349714Y-73209342D02*
X240206857Y-73280771D01*
X239921142Y-73280771D01*
X239778285Y-73209342D01*
X239706857Y-73066485D01*
X239706857Y-72495057D01*
X239778285Y-72352200D01*
X239921142Y-72280771D01*
X240206857Y-72280771D01*
X240349714Y-72352200D01*
X240421142Y-72495057D01*
X240421142Y-72637914D01*
X239706857Y-72780771D01*
X241064000Y-73137914D02*
X241135428Y-73209342D01*
X241064000Y-73280771D01*
X240992571Y-73209342D01*
X241064000Y-73137914D01*
X241064000Y-73280771D01*
X241064000Y-72352200D02*
X241135428Y-72423628D01*
X241064000Y-72495057D01*
X240992571Y-72423628D01*
X241064000Y-72352200D01*
X241064000Y-72495057D01*
X242849714Y-72852200D02*
X243564000Y-72852200D01*
X242706857Y-73280771D02*
X243206857Y-71780771D01*
X243706857Y-73280771D01*
X244064000Y-71780771D02*
X244992571Y-71780771D01*
X244492571Y-72352200D01*
X244706857Y-72352200D01*
X244849714Y-72423628D01*
X244921142Y-72495057D01*
X244992571Y-72637914D01*
X244992571Y-72995057D01*
X244921142Y-73137914D01*
X244849714Y-73209342D01*
X244706857Y-73280771D01*
X244278285Y-73280771D01*
X244135428Y-73209342D01*
X244064000Y-73137914D01*
D10*
D11*
X321421142Y-76080771D02*
X321421142Y-74580771D01*
X322778285Y-76080771D02*
X322778285Y-74580771D01*
X322778285Y-76009342D02*
X322635428Y-76080771D01*
X322349714Y-76080771D01*
X322206857Y-76009342D01*
X322135428Y-75937914D01*
X322064000Y-75795057D01*
X322064000Y-75366485D01*
X322135428Y-75223628D01*
X322206857Y-75152200D01*
X322349714Y-75080771D01*
X322635428Y-75080771D01*
X322778285Y-75152200D01*
X323492571Y-75937914D02*
X323564000Y-76009342D01*
X323492571Y-76080771D01*
X323421142Y-76009342D01*
X323492571Y-75937914D01*
X323492571Y-76080771D01*
X323492571Y-75152200D02*
X323564000Y-75223628D01*
X323492571Y-75295057D01*
X323421142Y-75223628D01*
X323492571Y-75152200D01*
X323492571Y-75295057D01*
X326135428Y-76080771D02*
X325278285Y-76080771D01*
X325706857Y-76080771D02*
X325706857Y-74580771D01*
X325564000Y-74795057D01*
X325421142Y-74937914D01*
X325278285Y-75009342D01*
X327849714Y-74509342D02*
X326564000Y-76437914D01*
X329135428Y-76080771D02*
X328278285Y-76080771D01*
X328706857Y-76080771D02*
X328706857Y-74580771D01*
X328564000Y-74795057D01*
X328421142Y-74937914D01*
X328278285Y-75009342D01*
D10*
D11*
X234989000Y-67002200D02*
X342989000Y-67002200D01*
D10*
D13*
X236701380Y-67706961D02*
X237844238Y-67706961D01*
X237022809Y-69706961D02*
X237272809Y-67706961D01*
X238260904Y-69706961D02*
X238427571Y-68373628D01*
X238510904Y-67706961D02*
X238403761Y-67802200D01*
X238487095Y-67897438D01*
X238594238Y-67802200D01*
X238510904Y-67706961D01*
X238487095Y-67897438D01*
X239094238Y-68373628D02*
X239856142Y-68373628D01*
X239463285Y-67706961D02*
X239249000Y-69421247D01*
X239320428Y-69611723D01*
X239499000Y-69706961D01*
X239689476Y-69706961D01*
X240641857Y-69706961D02*
X240463285Y-69611723D01*
X240391857Y-69421247D01*
X240606142Y-67706961D01*
X242177571Y-69611723D02*
X241975190Y-69706961D01*
X241594238Y-69706961D01*
X241415666Y-69611723D01*
X241344238Y-69421247D01*
X241439476Y-68659342D01*
X241558523Y-68468866D01*
X241760904Y-68373628D01*
X242141857Y-68373628D01*
X242320428Y-68468866D01*
X242391857Y-68659342D01*
X242368047Y-68849819D01*
X241391857Y-69040295D01*
X243141857Y-69516485D02*
X243225190Y-69611723D01*
X243118047Y-69706961D01*
X243034714Y-69611723D01*
X243141857Y-69516485D01*
X243118047Y-69706961D01*
X243272809Y-68468866D02*
X243356142Y-68564104D01*
X243249000Y-68659342D01*
X243165666Y-68564104D01*
X243272809Y-68468866D01*
X243249000Y-68659342D01*
X245510904Y-69611723D02*
X245784714Y-69706961D01*
X246260904Y-69706961D01*
X246463285Y-69611723D01*
X246570428Y-69516485D01*
X246689476Y-69326009D01*
X246713285Y-69135533D01*
X246641857Y-68945057D01*
X246558523Y-68849819D01*
X246379952Y-68754580D01*
X246010904Y-68659342D01*
X245832333Y-68564104D01*
X245749000Y-68468866D01*
X245677571Y-68278390D01*
X245701380Y-68087914D01*
X245820428Y-67897438D01*
X245927571Y-67802200D01*
X246129952Y-67706961D01*
X246606142Y-67706961D01*
X246879952Y-67802200D01*
X248272809Y-69611723D02*
X248070428Y-69706961D01*
X247689476Y-69706961D01*
X247510904Y-69611723D01*
X247439476Y-69421247D01*
X247534714Y-68659342D01*
X247653761Y-68468866D01*
X247856142Y-68373628D01*
X248237095Y-68373628D01*
X248415666Y-68468866D01*
X248487095Y-68659342D01*
X248463285Y-68849819D01*
X247487095Y-69040295D01*
X249213285Y-69706961D02*
X249379952Y-68373628D01*
X249332333Y-68754580D02*
X249451380Y-68564104D01*
X249558523Y-68468866D01*
X249760904Y-68373628D01*
X249951380Y-68373628D01*
X250427571Y-68373628D02*
X250737095Y-69706961D01*
X251379952Y-68373628D01*
X252260904Y-69706961D02*
X252082333Y-69611723D01*
X251999000Y-69516485D01*
X251927571Y-69326009D01*
X251999000Y-68754580D01*
X252118047Y-68564104D01*
X252225190Y-68468866D01*
X252427571Y-68373628D01*
X252713285Y-68373628D01*
X252891857Y-68468866D01*
X252975190Y-68564104D01*
X253046619Y-68754580D01*
X252975190Y-69326009D01*
X252856142Y-69516485D01*
X252749000Y-69611723D01*
X252546619Y-69706961D01*
X252260904Y-69706961D01*
X255308523Y-69706961D02*
X255558523Y-67706961D01*
X256034714Y-67706961D01*
X256308523Y-67802200D01*
X256475190Y-67992676D01*
X256546619Y-68183152D01*
X256594238Y-68564104D01*
X256558523Y-68849819D01*
X256415666Y-69230771D01*
X256296619Y-69421247D01*
X256082333Y-69611723D01*
X255784714Y-69706961D01*
X255308523Y-69706961D01*
X257308523Y-69706961D02*
X257475190Y-68373628D01*
X257427571Y-68754580D02*
X257546619Y-68564104D01*
X257653761Y-68468866D01*
X257856142Y-68373628D01*
X258046619Y-68373628D01*
X258546619Y-69706961D02*
X258713285Y-68373628D01*
X258796619Y-67706961D02*
X258689476Y-67802200D01*
X258772809Y-67897438D01*
X258879952Y-67802200D01*
X258796619Y-67706961D01*
X258772809Y-67897438D01*
X259475190Y-68373628D02*
X259784714Y-69706961D01*
X260427571Y-68373628D01*
X261796619Y-69611723D02*
X261594238Y-69706961D01*
X261213285Y-69706961D01*
X261034714Y-69611723D01*
X260963285Y-69421247D01*
X261058523Y-68659342D01*
X261177571Y-68468866D01*
X261379952Y-68373628D01*
X261760904Y-68373628D01*
X261939476Y-68468866D01*
X262010904Y-68659342D01*
X261987095Y-68849819D01*
X261010904Y-69040295D01*
D10*
D11*
X236921142Y-65095057D02*
X236421142Y-65095057D01*
X236421142Y-65880771D02*
X236421142Y-64380771D01*
X237135428Y-64380771D01*
X237706857Y-65880771D02*
X237706857Y-64880771D01*
X237706857Y-64380771D02*
X237635428Y-64452200D01*
X237706857Y-64523628D01*
X237778285Y-64452200D01*
X237706857Y-64380771D01*
X237706857Y-64523628D01*
X238635428Y-65880771D02*
X238492571Y-65809342D01*
X238421142Y-65666485D01*
X238421142Y-64380771D01*
X239778285Y-65809342D02*
X239635428Y-65880771D01*
X239349714Y-65880771D01*
X239206857Y-65809342D01*
X239135428Y-65666485D01*
X239135428Y-65095057D01*
X239206857Y-64952200D01*
X239349714Y-64880771D01*
X239635428Y-64880771D01*
X239778285Y-64952200D01*
X239849714Y-65095057D01*
X239849714Y-65237914D01*
X239135428Y-65380771D01*
X240492571Y-65737914D02*
X240564000Y-65809342D01*
X240492571Y-65880771D01*
X240421142Y-65809342D01*
X240492571Y-65737914D01*
X240492571Y-65880771D01*
X240492571Y-64952200D02*
X240564000Y-65023628D01*
X240492571Y-65095057D01*
X240421142Y-65023628D01*
X240492571Y-64952200D01*
X240492571Y-65095057D01*
X242278285Y-65809342D02*
X242421142Y-65880771D01*
X242706857Y-65880771D01*
X242849714Y-65809342D01*
X242921142Y-65666485D01*
X242921142Y-65595057D01*
X242849714Y-65452200D01*
X242706857Y-65380771D01*
X242492571Y-65380771D01*
X242349714Y-65309342D01*
X242278285Y-65166485D01*
X242278285Y-65095057D01*
X242349714Y-64952200D01*
X242492571Y-64880771D01*
X242706857Y-64880771D01*
X242849714Y-64952200D01*
X244135428Y-65809342D02*
X243992571Y-65880771D01*
X243706857Y-65880771D01*
X243564000Y-65809342D01*
X243492571Y-65666485D01*
X243492571Y-65095057D01*
X243564000Y-64952200D01*
X243706857Y-64880771D01*
X243992571Y-64880771D01*
X244135428Y-64952200D01*
X244206857Y-65095057D01*
X244206857Y-65237914D01*
X243492571Y-65380771D01*
X244849714Y-65880771D02*
X244849714Y-64880771D01*
X244849714Y-65166485D02*
X244921142Y-65023628D01*
X244992571Y-64952200D01*
X245135428Y-64880771D01*
X245278285Y-64880771D01*
X245635428Y-64880771D02*
X245992571Y-65880771D01*
X246349714Y-64880771D01*
X247135428Y-65880771D02*
X246992571Y-65809342D01*
X246921142Y-65737914D01*
X246849714Y-65595057D01*
X246849714Y-65166485D01*
X246921142Y-65023628D01*
X246992571Y-64952200D01*
X247135428Y-64880771D01*
X247349714Y-64880771D01*
X247492571Y-64952200D01*
X247564000Y-65023628D01*
X247635428Y-65166485D01*
X247635428Y-65595057D01*
X247564000Y-65737914D01*
X247492571Y-65809342D01*
X247349714Y-65880771D01*
X247135428Y-65880771D01*
X248278285Y-65737914D02*
X248349714Y-65809342D01*
X248278285Y-65880771D01*
X248206857Y-65809342D01*
X248278285Y-65737914D01*
X248278285Y-65880771D01*
X248992571Y-65880771D02*
X248992571Y-64380771D01*
X249135428Y-65309342D02*
X249564000Y-65880771D01*
X249564000Y-64880771D02*
X248992571Y-65452200D01*
X250206857Y-65880771D02*
X250206857Y-64880771D01*
X250206857Y-64380771D02*
X250135428Y-64452200D01*
X250206857Y-64523628D01*
X250278285Y-64452200D01*
X250206857Y-64380771D01*
X250206857Y-64523628D01*
X251564000Y-65809342D02*
X251421142Y-65880771D01*
X251135428Y-65880771D01*
X250992571Y-65809342D01*
X250921142Y-65737914D01*
X250849714Y-65595057D01*
X250849714Y-65166485D01*
X250921142Y-65023628D01*
X250992571Y-64952200D01*
X251135428Y-64880771D01*
X251421142Y-64880771D01*
X251564000Y-64952200D01*
X252849714Y-65880771D02*
X252849714Y-65095057D01*
X252778285Y-64952200D01*
X252635428Y-64880771D01*
X252349714Y-64880771D01*
X252206857Y-64952200D01*
X252849714Y-65809342D02*
X252706857Y-65880771D01*
X252349714Y-65880771D01*
X252206857Y-65809342D01*
X252135428Y-65666485D01*
X252135428Y-65523628D01*
X252206857Y-65380771D01*
X252349714Y-65309342D01*
X252706857Y-65309342D01*
X252849714Y-65237914D01*
X254206857Y-65880771D02*
X254206857Y-64380771D01*
X254206857Y-65809342D02*
X254064000Y-65880771D01*
X253778285Y-65880771D01*
X253635428Y-65809342D01*
X253564000Y-65737914D01*
X253492571Y-65595057D01*
X253492571Y-65166485D01*
X253564000Y-65023628D01*
X253635428Y-64952200D01*
X253778285Y-64880771D01*
X254064000Y-64880771D01*
X254206857Y-64952200D01*
X254564000Y-66023628D02*
X255706857Y-66023628D01*
X256064000Y-64880771D02*
X256064000Y-66380771D01*
X256064000Y-64952200D02*
X256206857Y-64880771D01*
X256492571Y-64880771D01*
X256635428Y-64952200D01*
X256706857Y-65023628D01*
X256778285Y-65166485D01*
X256778285Y-65595057D01*
X256706857Y-65737914D01*
X256635428Y-65809342D01*
X256492571Y-65880771D01*
X256206857Y-65880771D01*
X256064000Y-65809342D01*
X258064000Y-65809342D02*
X257921142Y-65880771D01*
X257635428Y-65880771D01*
X257492571Y-65809342D01*
X257421142Y-65737914D01*
X257349714Y-65595057D01*
X257349714Y-65166485D01*
X257421142Y-65023628D01*
X257492571Y-64952200D01*
X257635428Y-64880771D01*
X257921142Y-64880771D01*
X258064000Y-64952200D01*
X258706857Y-65880771D02*
X258706857Y-64380771D01*
X258706857Y-64952200D02*
X258849714Y-64880771D01*
X259135428Y-64880771D01*
X259278285Y-64952200D01*
X259349714Y-65023628D01*
X259421142Y-65166485D01*
X259421142Y-65595057D01*
X259349714Y-65737914D01*
X259278285Y-65809342D01*
X259135428Y-65880771D01*
X258849714Y-65880771D01*
X258706857Y-65809342D01*
D10*
D11*
X234989000Y-61002200D02*
X342989000Y-61002200D01*
D10*
D11*
X236349714Y-63109342D02*
X236564000Y-63180771D01*
X236921142Y-63180771D01*
X237064000Y-63109342D01*
X237135428Y-63037914D01*
X237206857Y-62895057D01*
X237206857Y-62752200D01*
X237135428Y-62609342D01*
X237064000Y-62537914D01*
X236921142Y-62466485D01*
X236635428Y-62395057D01*
X236492571Y-62323628D01*
X236421142Y-62252200D01*
X236349714Y-62109342D01*
X236349714Y-61966485D01*
X236421142Y-61823628D01*
X236492571Y-61752200D01*
X236635428Y-61680771D01*
X236992571Y-61680771D01*
X237206857Y-61752200D01*
X237849714Y-63180771D02*
X237849714Y-61680771D01*
X238492571Y-63180771D02*
X238492571Y-62395057D01*
X238421142Y-62252200D01*
X238278285Y-62180771D01*
X238064000Y-62180771D01*
X237921142Y-62252200D01*
X237849714Y-62323628D01*
X239778285Y-63109342D02*
X239635428Y-63180771D01*
X239349714Y-63180771D01*
X239206857Y-63109342D01*
X239135428Y-62966485D01*
X239135428Y-62395057D01*
X239206857Y-62252200D01*
X239349714Y-62180771D01*
X239635428Y-62180771D01*
X239778285Y-62252200D01*
X239849714Y-62395057D01*
X239849714Y-62537914D01*
X239135428Y-62680771D01*
X241064000Y-63109342D02*
X240921142Y-63180771D01*
X240635428Y-63180771D01*
X240492571Y-63109342D01*
X240421142Y-62966485D01*
X240421142Y-62395057D01*
X240492571Y-62252200D01*
X240635428Y-62180771D01*
X240921142Y-62180771D01*
X241064000Y-62252200D01*
X241135428Y-62395057D01*
X241135428Y-62537914D01*
X240421142Y-62680771D01*
X241564000Y-62180771D02*
X242135428Y-62180771D01*
X241778285Y-61680771D02*
X241778285Y-62966485D01*
X241849714Y-63109342D01*
X241992571Y-63180771D01*
X242135428Y-63180771D01*
X242635428Y-63037914D02*
X242706857Y-63109342D01*
X242635428Y-63180771D01*
X242564000Y-63109342D01*
X242635428Y-63037914D01*
X242635428Y-63180771D01*
X242635428Y-62252200D02*
X242706857Y-62323628D01*
X242635428Y-62395057D01*
X242564000Y-62323628D01*
X242635428Y-62252200D01*
X242635428Y-62395057D01*
D10*
D12*
X236541142Y-59180771D02*
X236541142Y-60180771D01*
X236541142Y-59323628D02*
X236612571Y-59252200D01*
X236755428Y-59180771D01*
X236969714Y-59180771D01*
X237112571Y-59252200D01*
X237184000Y-59395057D01*
X237184000Y-60180771D01*
X238541142Y-60180771D02*
X238541142Y-59395057D01*
X238469714Y-59252200D01*
X238326857Y-59180771D01*
X238041142Y-59180771D01*
X237898285Y-59252200D01*
X238541142Y-60109342D02*
X238398285Y-60180771D01*
X238041142Y-60180771D01*
X237898285Y-60109342D01*
X237826857Y-59966485D01*
X237826857Y-59823628D01*
X237898285Y-59680771D01*
X238041142Y-59609342D01*
X238398285Y-59609342D01*
X238541142Y-59537914D01*
X239255428Y-59180771D02*
X239255428Y-60180771D01*
X239255428Y-59323628D02*
X239326857Y-59252200D01*
X239469714Y-59180771D01*
X239684000Y-59180771D01*
X239826857Y-59252200D01*
X239898285Y-59395057D01*
X239898285Y-60180771D01*
X240826857Y-60180771D02*
X240684000Y-60109342D01*
X240612571Y-60037914D01*
X240541142Y-59895057D01*
X240541142Y-59466485D01*
X240612571Y-59323628D01*
X240684000Y-59252200D01*
X240826857Y-59180771D01*
X241041142Y-59180771D01*
X241184000Y-59252200D01*
X241255428Y-59323628D01*
X241326857Y-59466485D01*
X241326857Y-59895057D01*
X241255428Y-60037914D01*
X241184000Y-60109342D01*
X241041142Y-60180771D01*
X240826857Y-60180771D01*
X242612571Y-60109342D02*
X242469714Y-60180771D01*
X242184000Y-60180771D01*
X242041142Y-60109342D01*
X241969714Y-60037914D01*
X241898285Y-59895057D01*
X241898285Y-59466485D01*
X241969714Y-59323628D01*
X242041142Y-59252200D01*
X242184000Y-59180771D01*
X242469714Y-59180771D01*
X242612571Y-59252200D01*
X243898285Y-59180771D02*
X243898285Y-60180771D01*
X243255428Y-59180771D02*
X243255428Y-59966485D01*
X243326857Y-60109342D01*
X243469714Y-60180771D01*
X243684000Y-60180771D01*
X243826857Y-60109342D01*
X243898285Y-60037914D01*
X244398285Y-59180771D02*
X244969714Y-59180771D01*
X244612571Y-58680771D02*
X244612571Y-59966485D01*
X244684000Y-60109342D01*
X244826857Y-60180771D01*
X244969714Y-60180771D01*
D10*
D11*
X236421142Y-57180771D02*
X236421142Y-55680771D01*
X236778285Y-55680771D01*
X236992571Y-55752200D01*
X237135428Y-55895057D01*
X237206857Y-56037914D01*
X237278285Y-56323628D01*
X237278285Y-56537914D01*
X237206857Y-56823628D01*
X237135428Y-56966485D01*
X236992571Y-57109342D01*
X236778285Y-57180771D01*
X236421142Y-57180771D01*
X238778285Y-57037914D02*
X238706857Y-57109342D01*
X238492571Y-57180771D01*
X238349714Y-57180771D01*
X238135428Y-57109342D01*
X237992571Y-56966485D01*
X237921142Y-56823628D01*
X237849714Y-56537914D01*
X237849714Y-56323628D01*
X237921142Y-56037914D01*
X237992571Y-55895057D01*
X238135428Y-55752200D01*
X238349714Y-55680771D01*
X238492571Y-55680771D01*
X238706857Y-55752200D01*
X238778285Y-55823628D01*
X239421142Y-57180771D02*
X239421142Y-55680771D01*
D10*
D11*
X236421142Y-54180771D02*
X236421142Y-52680771D01*
X236992571Y-52680771D01*
X237135428Y-52752200D01*
X237206857Y-52823628D01*
X237278285Y-52966485D01*
X237278285Y-53180771D01*
X237206857Y-53323628D01*
X237135428Y-53395057D01*
X236992571Y-53466485D01*
X236421142Y-53466485D01*
X238564000Y-54180771D02*
X238564000Y-53395057D01*
X238492571Y-53252200D01*
X238349714Y-53180771D01*
X238064000Y-53180771D01*
X237921142Y-53252200D01*
X238564000Y-54109342D02*
X238421142Y-54180771D01*
X238064000Y-54180771D01*
X237921142Y-54109342D01*
X237849714Y-53966485D01*
X237849714Y-53823628D01*
X237921142Y-53680771D01*
X238064000Y-53609342D01*
X238421142Y-53609342D01*
X238564000Y-53537914D01*
X239278285Y-54180771D02*
X239278285Y-52680771D01*
X239278285Y-53252200D02*
X239421142Y-53180771D01*
X239706857Y-53180771D01*
X239849714Y-53252200D01*
X239921142Y-53323628D01*
X239992571Y-53466485D01*
X239992571Y-53895057D01*
X239921142Y-54037914D01*
X239849714Y-54109342D01*
X239706857Y-54180771D01*
X239421142Y-54180771D01*
X239278285Y-54109342D01*
X240849714Y-54180771D02*
X240706857Y-54109342D01*
X240635428Y-53966485D01*
X240635428Y-52680771D01*
X241635428Y-54180771D02*
X241492571Y-54109342D01*
X241421142Y-54037914D01*
X241349714Y-53895057D01*
X241349714Y-53466485D01*
X241421142Y-53323628D01*
X241492571Y-53252200D01*
X241635428Y-53180771D01*
X241849714Y-53180771D01*
X241992571Y-53252200D01*
X242064000Y-53323628D01*
X242135428Y-53466485D01*
X242135428Y-53895057D01*
X242064000Y-54037914D01*
X241992571Y-54109342D01*
X241849714Y-54180771D01*
X241635428Y-54180771D01*
X243849714Y-54109342D02*
X244064000Y-54180771D01*
X244421142Y-54180771D01*
X244564000Y-54109342D01*
X244635428Y-54037914D01*
X244706857Y-53895057D01*
X244706857Y-53752200D01*
X244635428Y-53609342D01*
X244564000Y-53537914D01*
X244421142Y-53466485D01*
X244135428Y-53395057D01*
X243992571Y-53323628D01*
X243921142Y-53252200D01*
X243849714Y-53109342D01*
X243849714Y-52966485D01*
X243921142Y-52823628D01*
X243992571Y-52752200D01*
X244135428Y-52680771D01*
X244492571Y-52680771D01*
X244706857Y-52752200D01*
X245564000Y-54180771D02*
X245421142Y-54109342D01*
X245349714Y-53966485D01*
X245349714Y-52680771D01*
X246778285Y-54180771D02*
X246778285Y-53395057D01*
X246706857Y-53252200D01*
X246564000Y-53180771D01*
X246278285Y-53180771D01*
X246135428Y-53252200D01*
X246778285Y-54109342D02*
X246635428Y-54180771D01*
X246278285Y-54180771D01*
X246135428Y-54109342D01*
X246064000Y-53966485D01*
X246064000Y-53823628D01*
X246135428Y-53680771D01*
X246278285Y-53609342D01*
X246635428Y-53609342D01*
X246778285Y-53537914D01*
X247349714Y-53180771D02*
X247706857Y-54180771D01*
X248064000Y-53180771D01*
X248635428Y-54180771D02*
X248635428Y-52680771D01*
X248778285Y-53609342D02*
X249206857Y-54180771D01*
X249206857Y-53180771D02*
X248635428Y-53752200D01*
X249849714Y-54180771D02*
X249849714Y-53180771D01*
X249849714Y-52680771D02*
X249778285Y-52752200D01*
X249849714Y-52823628D01*
X249921142Y-52752200D01*
X249849714Y-52680771D01*
X249849714Y-52823628D01*
X250564000Y-53180771D02*
X250564000Y-54180771D01*
X250564000Y-53323628D02*
X250635428Y-53252200D01*
X250778285Y-53180771D01*
X250992571Y-53180771D01*
X251135428Y-53252200D01*
X251206857Y-53395057D01*
X251206857Y-54180771D01*
D10*
D11*
X254989000Y-71002200D02*
X254989000Y-74002200D01*
D10*
D11*
X318989000Y-71002200D02*
X318989000Y-77502200D01*
D14*
X1666666Y0D02*
G75*
G03X1666666Y0I-1666666J0D01*
G01*
X-2500000Y0D02*
X2500000Y0D01*
X0Y2500000D02*
X0Y-2500000D01*
X160000000Y0D02*
X0Y0D01*
X160000000Y150000000D02*
X160000000Y0D01*
X0Y150000000D02*
X160000000Y150000000D01*
X0Y0D02*
X0Y150000000D01*
D15*
G04 #@! TO.N,Earth*
G04 #@! TO.C,J401*
X151879200Y6177200D03*
X138769200Y6177200D03*
D16*
G04 #@! TO.N,ECAT0_RJ_LED1*
X150784200Y28197200D03*
G04 #@! TO.N,Net-(J401-Pad21)*
X148244200Y28197200D03*
G04 #@! TO.N,ECAT0_RJ_LED0*
X142404200Y28197200D03*
G04 #@! TO.N,Net-(J401-Pad19)*
X139864200Y28197200D03*
G04 #@! TO.N,ECAT1_RJ_LED0*
X151269200Y3337200D03*
G04 #@! TO.N,Net-(J401-Pad17)*
X149234200Y3337200D03*
G04 #@! TO.N,ECAT1_RJ_LED1*
X141414200Y3337200D03*
G04 #@! TO.N,Net-(J401-Pad15)*
X139379200Y3337200D03*
D17*
G04 #@! TO.N,Earth*
X151354200Y21847200D03*
G04 #@! TO.N,/ethercat/P0_RD_N*
X149344200Y21847200D03*
G04 #@! TO.N,3V3*
X147334200Y21847200D03*
G04 #@! TO.N,/ethercat/P0_RD_P*
X145324200Y21847200D03*
G04 #@! TO.N,/ethercat/P0_TD_N*
X143314200Y21847200D03*
G04 #@! TO.N,3V3*
X141304200Y21847200D03*
G04 #@! TO.N,/ethercat/P0_TD_P*
X139294200Y21847200D03*
G04 #@! TO.N,Earth*
X151354200Y11437200D03*
G04 #@! TO.N,/ethercat/P1_RD_N*
X149344200Y11437200D03*
G04 #@! TO.N,3V3*
X147334200Y11437200D03*
G04 #@! TO.N,/ethercat/P1_RD_P*
X145324200Y11437200D03*
G04 #@! TO.N,/ethercat/P1_TD_N*
X143314200Y11437200D03*
G04 #@! TO.N,3V3*
X141304200Y11437200D03*
G04 #@! TO.N,/ethercat/P1_TD_P*
X139294200Y11437200D03*
D18*
G04 #@! TO.N,Earth*
X136942200Y17988200D03*
X153731600Y17988200D03*
X153731600Y1605200D03*
X136942200Y1605200D03*
G04 #@! TD*
D19*
G04 #@! TO.N,5VI*
G04 #@! TO.C,J1001*
X8275000Y15908000D03*
G04 #@! TO.N,/step_dir/STEP2_P_H*
X12085000Y15908000D03*
G04 #@! TO.N,/step_dir/STEP2_N_H*
X15895000Y15908000D03*
G04 #@! TO.N,/step_dir/DIR2_A_P_H*
X19705000Y15908000D03*
G04 #@! TO.N,/step_dir/DIR2_A_N_H*
X23515000Y15908000D03*
G04 #@! TO.N,5VI*
X8275000Y3208000D03*
G04 #@! TO.N,/step_dir/STEP1_P_H*
X12085000Y3208000D03*
G04 #@! TO.N,/step_dir/STEP1_N_H*
X15895000Y3208000D03*
G04 #@! TO.N,/step_dir/DIR1_A_P_H*
X19705000Y3208000D03*
G04 #@! TO.N,/step_dir/DIR1_A_N_H*
X23515000Y3208000D03*
G04 #@! TO.N,GNDI*
X27325000Y3208000D03*
X27325000Y15908000D03*
G04 #@! TD*
D20*
G04 #@! TO.N,Net-(R1503-Pad1)*
G04 #@! TO.C,U1502*
X58815080Y111336920D03*
G04 #@! TO.N,5VC*
X53735080Y111336920D03*
G04 #@! TO.N,GND*
X56275080Y111336920D03*
D21*
G04 #@! TO.N,/lem/LemA_All_2*
X49920000Y121502000D03*
D22*
G04 #@! TO.N,/lem/LemA_All_1*
X49920000Y118712000D03*
D23*
G04 #@! TO.N,/lem/LemA_All_3*
X49920000Y124542000D03*
D22*
G04 #@! TO.N,/lem/LemA_All_4*
X62620000Y124292000D03*
G04 #@! TO.N,/lem/LemA_All_6*
X62620000Y118712000D03*
D21*
G04 #@! TO.N,/lem/LemA_All_5*
X62620000Y121502000D03*
G04 #@! TD*
D20*
G04 #@! TO.N,Net-(R1501-Pad1)*
G04 #@! TO.C,U1501*
X38161080Y111336920D03*
G04 #@! TO.N,5VC*
X33081080Y111336920D03*
G04 #@! TO.N,GND*
X35621080Y111336920D03*
D21*
G04 #@! TO.N,/lem/LemAV_2*
X29266000Y121502000D03*
D22*
G04 #@! TO.N,/lem/LemAV_1*
X29266000Y118712000D03*
D23*
G04 #@! TO.N,/lem/LemAV_3*
X29266000Y124542000D03*
D22*
G04 #@! TO.N,/lem/LemAV_4*
X41966000Y124292000D03*
G04 #@! TO.N,/lem/LemAV_6*
X41966000Y118712000D03*
D21*
G04 #@! TO.N,/lem/LemAV_5*
X41966000Y121502000D03*
G04 #@! TD*
D20*
G04 #@! TO.N,Net-(R1509-Pad1)*
G04 #@! TO.C,U1505*
X100123080Y111336920D03*
G04 #@! TO.N,5VC*
X95043080Y111336920D03*
G04 #@! TO.N,GND*
X97583080Y111336920D03*
D21*
G04 #@! TO.N,/lem/LemBV_2*
X91228000Y121502000D03*
D22*
G04 #@! TO.N,/lem/LemBV_1*
X91228000Y118712000D03*
D23*
G04 #@! TO.N,/lem/LemBV_3*
X91228000Y124542000D03*
D22*
G04 #@! TO.N,/lem/LemBV_4*
X103928000Y124292000D03*
G04 #@! TO.N,/lem/LemBV_6*
X103928000Y118712000D03*
D21*
G04 #@! TO.N,/lem/LemBV_5*
X103928000Y121502000D03*
G04 #@! TD*
D20*
G04 #@! TO.N,Net-(R1507-Pad1)*
G04 #@! TO.C,U1504*
X79469080Y111336920D03*
G04 #@! TO.N,5VC*
X74389080Y111336920D03*
G04 #@! TO.N,GND*
X76929080Y111336920D03*
D21*
G04 #@! TO.N,/lem/LemBU_2*
X70574000Y121502000D03*
D22*
G04 #@! TO.N,/lem/LemBU_1*
X70574000Y118712000D03*
D23*
G04 #@! TO.N,/lem/LemBU_3*
X70574000Y124542000D03*
D22*
G04 #@! TO.N,/lem/LemBU_4*
X83274000Y124292000D03*
G04 #@! TO.N,/lem/LemBU_6*
X83274000Y118712000D03*
D21*
G04 #@! TO.N,/lem/LemBU_5*
X83274000Y121502000D03*
G04 #@! TD*
D20*
G04 #@! TO.N,Net-(R1505-Pad1)*
G04 #@! TO.C,U1503*
X17507080Y111336920D03*
G04 #@! TO.N,5VC*
X12427080Y111336920D03*
G04 #@! TO.N,GND*
X14967080Y111336920D03*
D21*
G04 #@! TO.N,/lem/LemAU_2*
X8612000Y121502000D03*
D22*
G04 #@! TO.N,/lem/LemAU_1*
X8612000Y118712000D03*
D23*
G04 #@! TO.N,/lem/LemAU_3*
X8612000Y124542000D03*
D22*
G04 #@! TO.N,/lem/LemAU_4*
X21312000Y124292000D03*
G04 #@! TO.N,/lem/LemAU_6*
X21312000Y118712000D03*
D21*
G04 #@! TO.N,/lem/LemAU_5*
X21312000Y121502000D03*
G04 #@! TD*
D20*
G04 #@! TO.N,Net-(R1511-Pad1)*
G04 #@! TO.C,U1506*
X120777080Y111336920D03*
G04 #@! TO.N,5VC*
X115697080Y111336920D03*
G04 #@! TO.N,GND*
X118237080Y111336920D03*
D21*
G04 #@! TO.N,/lem/LemB_All_2*
X111882000Y121502000D03*
D22*
G04 #@! TO.N,/lem/LemB_All_1*
X111882000Y118712000D03*
D23*
G04 #@! TO.N,/lem/LemB_All_3*
X111882000Y124542000D03*
D22*
G04 #@! TO.N,/lem/LemB_All_4*
X124582000Y124292000D03*
G04 #@! TO.N,/lem/LemB_All_6*
X124582000Y118712000D03*
D21*
G04 #@! TO.N,/lem/LemB_All_5*
X124582000Y121502000D03*
G04 #@! TD*
D24*
G04 #@! TO.N,GND*
G04 #@! TO.C,U402*
X135898000Y36749400D03*
X136898000Y36749400D03*
X137898000Y36749400D03*
X135898000Y37749400D03*
X136898000Y37749400D03*
X137898000Y37749400D03*
X135898000Y38749400D03*
X136898000Y38749400D03*
X137898000Y38749400D03*
G04 #@! TD*
D20*
G04 #@! TO.N,/ui/speaker+*
G04 #@! TO.C,J1402*
X52260000Y97600000D03*
G04 #@! TO.N,/ui/speaker-*
X54800000Y97600000D03*
G04 #@! TD*
D25*
G04 #@! TO.N,GNDP*
G04 #@! TO.C,JP703*
X40004212Y58048401D03*
G04 #@! TO.N,GNDI*
X53000977Y22340081D03*
G04 #@! TD*
G04 #@! TO.N,5VP*
G04 #@! TO.C,JP704*
X42352091Y61286558D03*
G04 #@! TO.N,5VI*
X57400977Y19940083D03*
G04 #@! TD*
D21*
G04 #@! TO.N,5VC*
G04 #@! TO.C,U702*
X104140000Y99060000D03*
G04 #@! TO.N,GND*
X104140000Y101600000D03*
G04 #@! TO.N,3V3*
X104140000Y104140000D03*
G04 #@! TD*
D24*
G04 #@! TO.N,GND*
G04 #@! TO.C,U201*
X123490400Y36749400D03*
X122490400Y36749400D03*
X121490400Y36749400D03*
X123490400Y37749400D03*
X122490400Y37749400D03*
X121490400Y37749400D03*
X123490400Y38749400D03*
X122490400Y38749400D03*
X121490400Y38749400D03*
G04 #@! TD*
D26*
G04 #@! TO.N,/ac_in/AC_L_C*
G04 #@! TO.C,J701*
G36*
X149413513Y148761389D02*
X149486318Y148750589D01*
X149557714Y148732705D01*
X149627013Y148707910D01*
X149693548Y148676441D01*
X149756678Y148638602D01*
X149815795Y148594758D01*
X149870330Y148545330D01*
X149919758Y148490795D01*
X149963602Y148431678D01*
X150001441Y148368548D01*
X150032910Y148302013D01*
X150057705Y148232714D01*
X150075589Y148161318D01*
X150086389Y148088513D01*
X150090000Y148015000D01*
X150090000Y145515000D01*
X150086389Y145441487D01*
X150075589Y145368682D01*
X150057705Y145297286D01*
X150032910Y145227987D01*
X150001441Y145161452D01*
X149963602Y145098322D01*
X149919758Y145039205D01*
X149870330Y144984670D01*
X149815795Y144935242D01*
X149756678Y144891398D01*
X149693548Y144853559D01*
X149627013Y144822090D01*
X149557714Y144797295D01*
X149486318Y144779411D01*
X149413513Y144768611D01*
X149340000Y144765000D01*
X147840000Y144765000D01*
X147766487Y144768611D01*
X147693682Y144779411D01*
X147622286Y144797295D01*
X147552987Y144822090D01*
X147486452Y144853559D01*
X147423322Y144891398D01*
X147364205Y144935242D01*
X147309670Y144984670D01*
X147260242Y145039205D01*
X147216398Y145098322D01*
X147178559Y145161452D01*
X147147090Y145227987D01*
X147122295Y145297286D01*
X147104411Y145368682D01*
X147093611Y145441487D01*
X147090000Y145515000D01*
X147090000Y148015000D01*
X147093611Y148088513D01*
X147104411Y148161318D01*
X147122295Y148232714D01*
X147147090Y148302013D01*
X147178559Y148368548D01*
X147216398Y148431678D01*
X147260242Y148490795D01*
X147309670Y148545330D01*
X147364205Y148594758D01*
X147423322Y148638602D01*
X147486452Y148676441D01*
X147552987Y148707910D01*
X147622286Y148732705D01*
X147693682Y148750589D01*
X147766487Y148761389D01*
X147840000Y148765000D01*
X149340000Y148765000D01*
X149413513Y148761389D01*
X149413513Y148761389D01*
G37*
D27*
X148590000Y146765000D03*
D26*
G04 #@! TO.N,/ac_in/AC_L_H*
G36*
X144333513Y148761389D02*
X144406318Y148750589D01*
X144477714Y148732705D01*
X144547013Y148707910D01*
X144613548Y148676441D01*
X144676678Y148638602D01*
X144735795Y148594758D01*
X144790330Y148545330D01*
X144839758Y148490795D01*
X144883602Y148431678D01*
X144921441Y148368548D01*
X144952910Y148302013D01*
X144977705Y148232714D01*
X144995589Y148161318D01*
X145006389Y148088513D01*
X145010000Y148015000D01*
X145010000Y145515000D01*
X145006389Y145441487D01*
X144995589Y145368682D01*
X144977705Y145297286D01*
X144952910Y145227987D01*
X144921441Y145161452D01*
X144883602Y145098322D01*
X144839758Y145039205D01*
X144790330Y144984670D01*
X144735795Y144935242D01*
X144676678Y144891398D01*
X144613548Y144853559D01*
X144547013Y144822090D01*
X144477714Y144797295D01*
X144406318Y144779411D01*
X144333513Y144768611D01*
X144260000Y144765000D01*
X142760000Y144765000D01*
X142686487Y144768611D01*
X142613682Y144779411D01*
X142542286Y144797295D01*
X142472987Y144822090D01*
X142406452Y144853559D01*
X142343322Y144891398D01*
X142284205Y144935242D01*
X142229670Y144984670D01*
X142180242Y145039205D01*
X142136398Y145098322D01*
X142098559Y145161452D01*
X142067090Y145227987D01*
X142042295Y145297286D01*
X142024411Y145368682D01*
X142013611Y145441487D01*
X142010000Y145515000D01*
X142010000Y148015000D01*
X142013611Y148088513D01*
X142024411Y148161318D01*
X142042295Y148232714D01*
X142067090Y148302013D01*
X142098559Y148368548D01*
X142136398Y148431678D01*
X142180242Y148490795D01*
X142229670Y148545330D01*
X142284205Y148594758D01*
X142343322Y148638602D01*
X142406452Y148676441D01*
X142472987Y148707910D01*
X142542286Y148732705D01*
X142613682Y148750589D01*
X142686487Y148761389D01*
X142760000Y148765000D01*
X144260000Y148765000D01*
X144333513Y148761389D01*
X144333513Y148761389D01*
G37*
D27*
X143510000Y146765000D03*
D26*
G04 #@! TO.N,/ac_in/AC_N*
G36*
X139253513Y148761389D02*
X139326318Y148750589D01*
X139397714Y148732705D01*
X139467013Y148707910D01*
X139533548Y148676441D01*
X139596678Y148638602D01*
X139655795Y148594758D01*
X139710330Y148545330D01*
X139759758Y148490795D01*
X139803602Y148431678D01*
X139841441Y148368548D01*
X139872910Y148302013D01*
X139897705Y148232714D01*
X139915589Y148161318D01*
X139926389Y148088513D01*
X139930000Y148015000D01*
X139930000Y145515000D01*
X139926389Y145441487D01*
X139915589Y145368682D01*
X139897705Y145297286D01*
X139872910Y145227987D01*
X139841441Y145161452D01*
X139803602Y145098322D01*
X139759758Y145039205D01*
X139710330Y144984670D01*
X139655795Y144935242D01*
X139596678Y144891398D01*
X139533548Y144853559D01*
X139467013Y144822090D01*
X139397714Y144797295D01*
X139326318Y144779411D01*
X139253513Y144768611D01*
X139180000Y144765000D01*
X137680000Y144765000D01*
X137606487Y144768611D01*
X137533682Y144779411D01*
X137462286Y144797295D01*
X137392987Y144822090D01*
X137326452Y144853559D01*
X137263322Y144891398D01*
X137204205Y144935242D01*
X137149670Y144984670D01*
X137100242Y145039205D01*
X137056398Y145098322D01*
X137018559Y145161452D01*
X136987090Y145227987D01*
X136962295Y145297286D01*
X136944411Y145368682D01*
X136933611Y145441487D01*
X136930000Y145515000D01*
X136930000Y148015000D01*
X136933611Y148088513D01*
X136944411Y148161318D01*
X136962295Y148232714D01*
X136987090Y148302013D01*
X137018559Y148368548D01*
X137056398Y148431678D01*
X137100242Y148490795D01*
X137149670Y148545330D01*
X137204205Y148594758D01*
X137263322Y148638602D01*
X137326452Y148676441D01*
X137392987Y148707910D01*
X137462286Y148732705D01*
X137533682Y148750589D01*
X137606487Y148761389D01*
X137680000Y148765000D01*
X139180000Y148765000D01*
X139253513Y148761389D01*
X139253513Y148761389D01*
G37*
D27*
X138430000Y146765000D03*
D26*
G04 #@! TO.N,Earth*
G36*
X134173513Y148761389D02*
X134246318Y148750589D01*
X134317714Y148732705D01*
X134387013Y148707910D01*
X134453548Y148676441D01*
X134516678Y148638602D01*
X134575795Y148594758D01*
X134630330Y148545330D01*
X134679758Y148490795D01*
X134723602Y148431678D01*
X134761441Y148368548D01*
X134792910Y148302013D01*
X134817705Y148232714D01*
X134835589Y148161318D01*
X134846389Y148088513D01*
X134850000Y148015000D01*
X134850000Y145515000D01*
X134846389Y145441487D01*
X134835589Y145368682D01*
X134817705Y145297286D01*
X134792910Y145227987D01*
X134761441Y145161452D01*
X134723602Y145098322D01*
X134679758Y145039205D01*
X134630330Y144984670D01*
X134575795Y144935242D01*
X134516678Y144891398D01*
X134453548Y144853559D01*
X134387013Y144822090D01*
X134317714Y144797295D01*
X134246318Y144779411D01*
X134173513Y144768611D01*
X134100000Y144765000D01*
X132600000Y144765000D01*
X132526487Y144768611D01*
X132453682Y144779411D01*
X132382286Y144797295D01*
X132312987Y144822090D01*
X132246452Y144853559D01*
X132183322Y144891398D01*
X132124205Y144935242D01*
X132069670Y144984670D01*
X132020242Y145039205D01*
X131976398Y145098322D01*
X131938559Y145161452D01*
X131907090Y145227987D01*
X131882295Y145297286D01*
X131864411Y145368682D01*
X131853611Y145441487D01*
X131850000Y145515000D01*
X131850000Y148015000D01*
X131853611Y148088513D01*
X131864411Y148161318D01*
X131882295Y148232714D01*
X131907090Y148302013D01*
X131938559Y148368548D01*
X131976398Y148431678D01*
X132020242Y148490795D01*
X132069670Y148545330D01*
X132124205Y148594758D01*
X132183322Y148638602D01*
X132246452Y148676441D01*
X132312987Y148707910D01*
X132382286Y148732705D01*
X132453682Y148750589D01*
X132526487Y148761389D01*
X132600000Y148765000D01*
X134100000Y148765000D01*
X134173513Y148761389D01*
X134173513Y148761389D01*
G37*
D27*
X133350000Y146765000D03*
G04 #@! TD*
D25*
G04 #@! TO.N,/ethernet/enet_led0*
G04 #@! TO.C,J201*
X133219200Y22865200D03*
G04 #@! TO.N,Net-(J201-Pad14)*
X130679200Y22865200D03*
G04 #@! TO.N,Net-(J201-Pad15)*
X123569200Y22865200D03*
G04 #@! TO.N,/ethernet/enet_led1*
X121029200Y22865200D03*
D16*
G04 #@! TO.N,3V3*
X122049200Y17535200D03*
G04 #@! TO.N,/ethernet/P0_RD_N*
X124079200Y17535200D03*
G04 #@! TO.N,/ethernet/P0_RD_P*
X126109200Y17535200D03*
G04 #@! TO.N,/ethernet/P0_TD_N*
X128139200Y17535200D03*
G04 #@! TO.N,/ethernet/P0_TD_P*
X130169200Y17535200D03*
G04 #@! TO.N,3V3*
X132199200Y17535200D03*
D28*
G04 #@! TO.N,Earth*
X133689200Y5695200D03*
X120559200Y5695200D03*
D29*
X119069200Y13805200D03*
X135179200Y13805200D03*
X135189200Y3185200D03*
X119059200Y3185200D03*
D16*
G04 #@! TO.N,GND*
X130629200Y8395200D03*
G04 #@! TO.N,USB_D+*
X128129200Y8395200D03*
G04 #@! TO.N,USB_D-*
X126119200Y8395200D03*
G04 #@! TO.N,USB_VBUS*
X123619200Y8395200D03*
G04 #@! TD*
D19*
G04 #@! TO.N,GNDI*
G04 #@! TO.C,J1201*
X110303000Y3208000D03*
X110303000Y15908000D03*
G04 #@! TO.N,/can rs485/CAN_N_H*
X106493000Y3208000D03*
G04 #@! TO.N,/can rs485/CAN_P_H*
X102683000Y3208000D03*
G04 #@! TO.N,5VI*
X98873000Y3208000D03*
G04 #@! TO.N,/can rs485/RS485_N_H*
X106493000Y15908000D03*
G04 #@! TO.N,/can rs485/RS485_P_H*
X102683000Y15908000D03*
G04 #@! TO.N,5VI*
X98873000Y15908000D03*
G04 #@! TD*
G04 #@! TO.N,GNDI*
G04 #@! TO.C,J1101*
X67711000Y3208000D03*
X67711000Y15908000D03*
G04 #@! TO.N,/qep/QEP1_S_N_H*
X63901000Y3208000D03*
G04 #@! TO.N,/qep/QEP2_S_N_H*
X63901000Y15908000D03*
G04 #@! TO.N,/qep/QEP1_S_P_H*
X60091000Y3208000D03*
G04 #@! TO.N,/qep/QEP2_S_P_H*
X60091000Y15908000D03*
G04 #@! TO.N,/qep/QEP1_I_N_H*
X56281000Y3208000D03*
G04 #@! TO.N,/qep/QEP2_I_N_H*
X56281000Y15908000D03*
G04 #@! TO.N,/qep/QEP2_I_P_H*
X52471000Y15908000D03*
G04 #@! TO.N,/qep/QEP1_I_P_H*
X52471000Y3208000D03*
G04 #@! TO.N,/qep/QEP1_B_N_H*
X48661000Y3208000D03*
G04 #@! TO.N,/qep/QEP1_B_P_H*
X44851000Y3208000D03*
G04 #@! TO.N,/qep/QEP1_A_N_H*
X41041000Y3208000D03*
G04 #@! TO.N,/qep/QEP1_A_P_H*
X37231000Y3208000D03*
G04 #@! TO.N,5VI*
X33421000Y3208000D03*
G04 #@! TO.N,/qep/QEP2_B_N_H*
X48661000Y15908000D03*
G04 #@! TO.N,/qep/QEP2_B_P_H*
X44851000Y15908000D03*
G04 #@! TO.N,/qep/QEP2_A_N_H*
X41041000Y15908000D03*
G04 #@! TO.N,/qep/QEP2_A_P_H*
X37231000Y15908000D03*
G04 #@! TO.N,5VI*
X33421000Y15908000D03*
G04 #@! TD*
G04 #@! TO.N,5VI*
G04 #@! TO.C,J1901*
X73787000Y15875000D03*
G04 #@! TO.N,/endat/ENDAT2_CLK_H_P*
X77597000Y15875000D03*
G04 #@! TO.N,/endat/ENDAT2_CLK_H_N*
X81407000Y15875000D03*
G04 #@! TO.N,/endat/ENDAT2_DATA_H_P*
X85217000Y15875000D03*
G04 #@! TO.N,/endat/ENDAT2_DATA_H_N*
X89027000Y15875000D03*
G04 #@! TO.N,5VI*
X73787000Y3175000D03*
G04 #@! TO.N,/endat/ENDAT1_CLK_H_P*
X77597000Y3175000D03*
G04 #@! TO.N,/endat/ENDAT1_CLK_H_N*
X81407000Y3175000D03*
G04 #@! TO.N,/endat/ENDAT1_DATA_H_P*
X85217000Y3175000D03*
G04 #@! TO.N,/endat/ENDAT1_DATA_H_N*
X89027000Y3175000D03*
G04 #@! TO.N,GNDI*
X92837000Y3175000D03*
X92837000Y15875000D03*
G04 #@! TD*
D26*
G04 #@! TO.N,/lem/LemB_All_4*
G04 #@! TO.C,J1506*
G36*
X123885513Y148870389D02*
X123958318Y148859589D01*
X124029714Y148841705D01*
X124099013Y148816910D01*
X124165548Y148785441D01*
X124228678Y148747602D01*
X124287795Y148703758D01*
X124342330Y148654330D01*
X124391758Y148599795D01*
X124435602Y148540678D01*
X124473441Y148477548D01*
X124504910Y148411013D01*
X124529705Y148341714D01*
X124547589Y148270318D01*
X124558389Y148197513D01*
X124562000Y148124000D01*
X124562000Y145624000D01*
X124558389Y145550487D01*
X124547589Y145477682D01*
X124529705Y145406286D01*
X124504910Y145336987D01*
X124473441Y145270452D01*
X124435602Y145207322D01*
X124391758Y145148205D01*
X124342330Y145093670D01*
X124287795Y145044242D01*
X124228678Y145000398D01*
X124165548Y144962559D01*
X124099013Y144931090D01*
X124029714Y144906295D01*
X123958318Y144888411D01*
X123885513Y144877611D01*
X123812000Y144874000D01*
X122312000Y144874000D01*
X122238487Y144877611D01*
X122165682Y144888411D01*
X122094286Y144906295D01*
X122024987Y144931090D01*
X121958452Y144962559D01*
X121895322Y145000398D01*
X121836205Y145044242D01*
X121781670Y145093670D01*
X121732242Y145148205D01*
X121688398Y145207322D01*
X121650559Y145270452D01*
X121619090Y145336987D01*
X121594295Y145406286D01*
X121576411Y145477682D01*
X121565611Y145550487D01*
X121562000Y145624000D01*
X121562000Y148124000D01*
X121565611Y148197513D01*
X121576411Y148270318D01*
X121594295Y148341714D01*
X121619090Y148411013D01*
X121650559Y148477548D01*
X121688398Y148540678D01*
X121732242Y148599795D01*
X121781670Y148654330D01*
X121836205Y148703758D01*
X121895322Y148747602D01*
X121958452Y148785441D01*
X122024987Y148816910D01*
X122094286Y148841705D01*
X122165682Y148859589D01*
X122238487Y148870389D01*
X122312000Y148874000D01*
X123812000Y148874000D01*
X123885513Y148870389D01*
X123885513Y148870389D01*
G37*
D27*
X123062000Y146874000D03*
D26*
G04 #@! TO.N,/lem/LemB_All_5*
G36*
X118805513Y148870389D02*
X118878318Y148859589D01*
X118949714Y148841705D01*
X119019013Y148816910D01*
X119085548Y148785441D01*
X119148678Y148747602D01*
X119207795Y148703758D01*
X119262330Y148654330D01*
X119311758Y148599795D01*
X119355602Y148540678D01*
X119393441Y148477548D01*
X119424910Y148411013D01*
X119449705Y148341714D01*
X119467589Y148270318D01*
X119478389Y148197513D01*
X119482000Y148124000D01*
X119482000Y145624000D01*
X119478389Y145550487D01*
X119467589Y145477682D01*
X119449705Y145406286D01*
X119424910Y145336987D01*
X119393441Y145270452D01*
X119355602Y145207322D01*
X119311758Y145148205D01*
X119262330Y145093670D01*
X119207795Y145044242D01*
X119148678Y145000398D01*
X119085548Y144962559D01*
X119019013Y144931090D01*
X118949714Y144906295D01*
X118878318Y144888411D01*
X118805513Y144877611D01*
X118732000Y144874000D01*
X117232000Y144874000D01*
X117158487Y144877611D01*
X117085682Y144888411D01*
X117014286Y144906295D01*
X116944987Y144931090D01*
X116878452Y144962559D01*
X116815322Y145000398D01*
X116756205Y145044242D01*
X116701670Y145093670D01*
X116652242Y145148205D01*
X116608398Y145207322D01*
X116570559Y145270452D01*
X116539090Y145336987D01*
X116514295Y145406286D01*
X116496411Y145477682D01*
X116485611Y145550487D01*
X116482000Y145624000D01*
X116482000Y148124000D01*
X116485611Y148197513D01*
X116496411Y148270318D01*
X116514295Y148341714D01*
X116539090Y148411013D01*
X116570559Y148477548D01*
X116608398Y148540678D01*
X116652242Y148599795D01*
X116701670Y148654330D01*
X116756205Y148703758D01*
X116815322Y148747602D01*
X116878452Y148785441D01*
X116944987Y148816910D01*
X117014286Y148841705D01*
X117085682Y148859589D01*
X117158487Y148870389D01*
X117232000Y148874000D01*
X118732000Y148874000D01*
X118805513Y148870389D01*
X118805513Y148870389D01*
G37*
D27*
X117982000Y146874000D03*
D26*
G04 #@! TO.N,/lem/LemB_All_1*
G36*
X113725513Y148870389D02*
X113798318Y148859589D01*
X113869714Y148841705D01*
X113939013Y148816910D01*
X114005548Y148785441D01*
X114068678Y148747602D01*
X114127795Y148703758D01*
X114182330Y148654330D01*
X114231758Y148599795D01*
X114275602Y148540678D01*
X114313441Y148477548D01*
X114344910Y148411013D01*
X114369705Y148341714D01*
X114387589Y148270318D01*
X114398389Y148197513D01*
X114402000Y148124000D01*
X114402000Y145624000D01*
X114398389Y145550487D01*
X114387589Y145477682D01*
X114369705Y145406286D01*
X114344910Y145336987D01*
X114313441Y145270452D01*
X114275602Y145207322D01*
X114231758Y145148205D01*
X114182330Y145093670D01*
X114127795Y145044242D01*
X114068678Y145000398D01*
X114005548Y144962559D01*
X113939013Y144931090D01*
X113869714Y144906295D01*
X113798318Y144888411D01*
X113725513Y144877611D01*
X113652000Y144874000D01*
X112152000Y144874000D01*
X112078487Y144877611D01*
X112005682Y144888411D01*
X111934286Y144906295D01*
X111864987Y144931090D01*
X111798452Y144962559D01*
X111735322Y145000398D01*
X111676205Y145044242D01*
X111621670Y145093670D01*
X111572242Y145148205D01*
X111528398Y145207322D01*
X111490559Y145270452D01*
X111459090Y145336987D01*
X111434295Y145406286D01*
X111416411Y145477682D01*
X111405611Y145550487D01*
X111402000Y145624000D01*
X111402000Y148124000D01*
X111405611Y148197513D01*
X111416411Y148270318D01*
X111434295Y148341714D01*
X111459090Y148411013D01*
X111490559Y148477548D01*
X111528398Y148540678D01*
X111572242Y148599795D01*
X111621670Y148654330D01*
X111676205Y148703758D01*
X111735322Y148747602D01*
X111798452Y148785441D01*
X111864987Y148816910D01*
X111934286Y148841705D01*
X112005682Y148859589D01*
X112078487Y148870389D01*
X112152000Y148874000D01*
X113652000Y148874000D01*
X113725513Y148870389D01*
X113725513Y148870389D01*
G37*
D27*
X112902000Y146874000D03*
G04 #@! TD*
D26*
G04 #@! TO.N,/lem/LemAV_4*
G04 #@! TO.C,J1501*
G36*
X41469513Y148870389D02*
X41542318Y148859589D01*
X41613714Y148841705D01*
X41683013Y148816910D01*
X41749548Y148785441D01*
X41812678Y148747602D01*
X41871795Y148703758D01*
X41926330Y148654330D01*
X41975758Y148599795D01*
X42019602Y148540678D01*
X42057441Y148477548D01*
X42088910Y148411013D01*
X42113705Y148341714D01*
X42131589Y148270318D01*
X42142389Y148197513D01*
X42146000Y148124000D01*
X42146000Y145624000D01*
X42142389Y145550487D01*
X42131589Y145477682D01*
X42113705Y145406286D01*
X42088910Y145336987D01*
X42057441Y145270452D01*
X42019602Y145207322D01*
X41975758Y145148205D01*
X41926330Y145093670D01*
X41871795Y145044242D01*
X41812678Y145000398D01*
X41749548Y144962559D01*
X41683013Y144931090D01*
X41613714Y144906295D01*
X41542318Y144888411D01*
X41469513Y144877611D01*
X41396000Y144874000D01*
X39896000Y144874000D01*
X39822487Y144877611D01*
X39749682Y144888411D01*
X39678286Y144906295D01*
X39608987Y144931090D01*
X39542452Y144962559D01*
X39479322Y145000398D01*
X39420205Y145044242D01*
X39365670Y145093670D01*
X39316242Y145148205D01*
X39272398Y145207322D01*
X39234559Y145270452D01*
X39203090Y145336987D01*
X39178295Y145406286D01*
X39160411Y145477682D01*
X39149611Y145550487D01*
X39146000Y145624000D01*
X39146000Y148124000D01*
X39149611Y148197513D01*
X39160411Y148270318D01*
X39178295Y148341714D01*
X39203090Y148411013D01*
X39234559Y148477548D01*
X39272398Y148540678D01*
X39316242Y148599795D01*
X39365670Y148654330D01*
X39420205Y148703758D01*
X39479322Y148747602D01*
X39542452Y148785441D01*
X39608987Y148816910D01*
X39678286Y148841705D01*
X39749682Y148859589D01*
X39822487Y148870389D01*
X39896000Y148874000D01*
X41396000Y148874000D01*
X41469513Y148870389D01*
X41469513Y148870389D01*
G37*
D27*
X40646000Y146874000D03*
D26*
G04 #@! TO.N,/lem/LemAV_5*
G36*
X36389513Y148870389D02*
X36462318Y148859589D01*
X36533714Y148841705D01*
X36603013Y148816910D01*
X36669548Y148785441D01*
X36732678Y148747602D01*
X36791795Y148703758D01*
X36846330Y148654330D01*
X36895758Y148599795D01*
X36939602Y148540678D01*
X36977441Y148477548D01*
X37008910Y148411013D01*
X37033705Y148341714D01*
X37051589Y148270318D01*
X37062389Y148197513D01*
X37066000Y148124000D01*
X37066000Y145624000D01*
X37062389Y145550487D01*
X37051589Y145477682D01*
X37033705Y145406286D01*
X37008910Y145336987D01*
X36977441Y145270452D01*
X36939602Y145207322D01*
X36895758Y145148205D01*
X36846330Y145093670D01*
X36791795Y145044242D01*
X36732678Y145000398D01*
X36669548Y144962559D01*
X36603013Y144931090D01*
X36533714Y144906295D01*
X36462318Y144888411D01*
X36389513Y144877611D01*
X36316000Y144874000D01*
X34816000Y144874000D01*
X34742487Y144877611D01*
X34669682Y144888411D01*
X34598286Y144906295D01*
X34528987Y144931090D01*
X34462452Y144962559D01*
X34399322Y145000398D01*
X34340205Y145044242D01*
X34285670Y145093670D01*
X34236242Y145148205D01*
X34192398Y145207322D01*
X34154559Y145270452D01*
X34123090Y145336987D01*
X34098295Y145406286D01*
X34080411Y145477682D01*
X34069611Y145550487D01*
X34066000Y145624000D01*
X34066000Y148124000D01*
X34069611Y148197513D01*
X34080411Y148270318D01*
X34098295Y148341714D01*
X34123090Y148411013D01*
X34154559Y148477548D01*
X34192398Y148540678D01*
X34236242Y148599795D01*
X34285670Y148654330D01*
X34340205Y148703758D01*
X34399322Y148747602D01*
X34462452Y148785441D01*
X34528987Y148816910D01*
X34598286Y148841705D01*
X34669682Y148859589D01*
X34742487Y148870389D01*
X34816000Y148874000D01*
X36316000Y148874000D01*
X36389513Y148870389D01*
X36389513Y148870389D01*
G37*
D27*
X35566000Y146874000D03*
D26*
G04 #@! TO.N,/lem/LemAV_1*
G36*
X31309513Y148870389D02*
X31382318Y148859589D01*
X31453714Y148841705D01*
X31523013Y148816910D01*
X31589548Y148785441D01*
X31652678Y148747602D01*
X31711795Y148703758D01*
X31766330Y148654330D01*
X31815758Y148599795D01*
X31859602Y148540678D01*
X31897441Y148477548D01*
X31928910Y148411013D01*
X31953705Y148341714D01*
X31971589Y148270318D01*
X31982389Y148197513D01*
X31986000Y148124000D01*
X31986000Y145624000D01*
X31982389Y145550487D01*
X31971589Y145477682D01*
X31953705Y145406286D01*
X31928910Y145336987D01*
X31897441Y145270452D01*
X31859602Y145207322D01*
X31815758Y145148205D01*
X31766330Y145093670D01*
X31711795Y145044242D01*
X31652678Y145000398D01*
X31589548Y144962559D01*
X31523013Y144931090D01*
X31453714Y144906295D01*
X31382318Y144888411D01*
X31309513Y144877611D01*
X31236000Y144874000D01*
X29736000Y144874000D01*
X29662487Y144877611D01*
X29589682Y144888411D01*
X29518286Y144906295D01*
X29448987Y144931090D01*
X29382452Y144962559D01*
X29319322Y145000398D01*
X29260205Y145044242D01*
X29205670Y145093670D01*
X29156242Y145148205D01*
X29112398Y145207322D01*
X29074559Y145270452D01*
X29043090Y145336987D01*
X29018295Y145406286D01*
X29000411Y145477682D01*
X28989611Y145550487D01*
X28986000Y145624000D01*
X28986000Y148124000D01*
X28989611Y148197513D01*
X29000411Y148270318D01*
X29018295Y148341714D01*
X29043090Y148411013D01*
X29074559Y148477548D01*
X29112398Y148540678D01*
X29156242Y148599795D01*
X29205670Y148654330D01*
X29260205Y148703758D01*
X29319322Y148747602D01*
X29382452Y148785441D01*
X29448987Y148816910D01*
X29518286Y148841705D01*
X29589682Y148859589D01*
X29662487Y148870389D01*
X29736000Y148874000D01*
X31236000Y148874000D01*
X31309513Y148870389D01*
X31309513Y148870389D01*
G37*
D27*
X30486000Y146874000D03*
G04 #@! TD*
D26*
G04 #@! TO.N,/lem/LemA_All_4*
G04 #@! TO.C,J1502*
G36*
X62073513Y148870389D02*
X62146318Y148859589D01*
X62217714Y148841705D01*
X62287013Y148816910D01*
X62353548Y148785441D01*
X62416678Y148747602D01*
X62475795Y148703758D01*
X62530330Y148654330D01*
X62579758Y148599795D01*
X62623602Y148540678D01*
X62661441Y148477548D01*
X62692910Y148411013D01*
X62717705Y148341714D01*
X62735589Y148270318D01*
X62746389Y148197513D01*
X62750000Y148124000D01*
X62750000Y145624000D01*
X62746389Y145550487D01*
X62735589Y145477682D01*
X62717705Y145406286D01*
X62692910Y145336987D01*
X62661441Y145270452D01*
X62623602Y145207322D01*
X62579758Y145148205D01*
X62530330Y145093670D01*
X62475795Y145044242D01*
X62416678Y145000398D01*
X62353548Y144962559D01*
X62287013Y144931090D01*
X62217714Y144906295D01*
X62146318Y144888411D01*
X62073513Y144877611D01*
X62000000Y144874000D01*
X60500000Y144874000D01*
X60426487Y144877611D01*
X60353682Y144888411D01*
X60282286Y144906295D01*
X60212987Y144931090D01*
X60146452Y144962559D01*
X60083322Y145000398D01*
X60024205Y145044242D01*
X59969670Y145093670D01*
X59920242Y145148205D01*
X59876398Y145207322D01*
X59838559Y145270452D01*
X59807090Y145336987D01*
X59782295Y145406286D01*
X59764411Y145477682D01*
X59753611Y145550487D01*
X59750000Y145624000D01*
X59750000Y148124000D01*
X59753611Y148197513D01*
X59764411Y148270318D01*
X59782295Y148341714D01*
X59807090Y148411013D01*
X59838559Y148477548D01*
X59876398Y148540678D01*
X59920242Y148599795D01*
X59969670Y148654330D01*
X60024205Y148703758D01*
X60083322Y148747602D01*
X60146452Y148785441D01*
X60212987Y148816910D01*
X60282286Y148841705D01*
X60353682Y148859589D01*
X60426487Y148870389D01*
X60500000Y148874000D01*
X62000000Y148874000D01*
X62073513Y148870389D01*
X62073513Y148870389D01*
G37*
D27*
X61250000Y146874000D03*
D26*
G04 #@! TO.N,/lem/LemA_All_5*
G36*
X56993513Y148870389D02*
X57066318Y148859589D01*
X57137714Y148841705D01*
X57207013Y148816910D01*
X57273548Y148785441D01*
X57336678Y148747602D01*
X57395795Y148703758D01*
X57450330Y148654330D01*
X57499758Y148599795D01*
X57543602Y148540678D01*
X57581441Y148477548D01*
X57612910Y148411013D01*
X57637705Y148341714D01*
X57655589Y148270318D01*
X57666389Y148197513D01*
X57670000Y148124000D01*
X57670000Y145624000D01*
X57666389Y145550487D01*
X57655589Y145477682D01*
X57637705Y145406286D01*
X57612910Y145336987D01*
X57581441Y145270452D01*
X57543602Y145207322D01*
X57499758Y145148205D01*
X57450330Y145093670D01*
X57395795Y145044242D01*
X57336678Y145000398D01*
X57273548Y144962559D01*
X57207013Y144931090D01*
X57137714Y144906295D01*
X57066318Y144888411D01*
X56993513Y144877611D01*
X56920000Y144874000D01*
X55420000Y144874000D01*
X55346487Y144877611D01*
X55273682Y144888411D01*
X55202286Y144906295D01*
X55132987Y144931090D01*
X55066452Y144962559D01*
X55003322Y145000398D01*
X54944205Y145044242D01*
X54889670Y145093670D01*
X54840242Y145148205D01*
X54796398Y145207322D01*
X54758559Y145270452D01*
X54727090Y145336987D01*
X54702295Y145406286D01*
X54684411Y145477682D01*
X54673611Y145550487D01*
X54670000Y145624000D01*
X54670000Y148124000D01*
X54673611Y148197513D01*
X54684411Y148270318D01*
X54702295Y148341714D01*
X54727090Y148411013D01*
X54758559Y148477548D01*
X54796398Y148540678D01*
X54840242Y148599795D01*
X54889670Y148654330D01*
X54944205Y148703758D01*
X55003322Y148747602D01*
X55066452Y148785441D01*
X55132987Y148816910D01*
X55202286Y148841705D01*
X55273682Y148859589D01*
X55346487Y148870389D01*
X55420000Y148874000D01*
X56920000Y148874000D01*
X56993513Y148870389D01*
X56993513Y148870389D01*
G37*
D27*
X56170000Y146874000D03*
D26*
G04 #@! TO.N,/lem/LemA_All_1*
G36*
X51913513Y148870389D02*
X51986318Y148859589D01*
X52057714Y148841705D01*
X52127013Y148816910D01*
X52193548Y148785441D01*
X52256678Y148747602D01*
X52315795Y148703758D01*
X52370330Y148654330D01*
X52419758Y148599795D01*
X52463602Y148540678D01*
X52501441Y148477548D01*
X52532910Y148411013D01*
X52557705Y148341714D01*
X52575589Y148270318D01*
X52586389Y148197513D01*
X52590000Y148124000D01*
X52590000Y145624000D01*
X52586389Y145550487D01*
X52575589Y145477682D01*
X52557705Y145406286D01*
X52532910Y145336987D01*
X52501441Y145270452D01*
X52463602Y145207322D01*
X52419758Y145148205D01*
X52370330Y145093670D01*
X52315795Y145044242D01*
X52256678Y145000398D01*
X52193548Y144962559D01*
X52127013Y144931090D01*
X52057714Y144906295D01*
X51986318Y144888411D01*
X51913513Y144877611D01*
X51840000Y144874000D01*
X50340000Y144874000D01*
X50266487Y144877611D01*
X50193682Y144888411D01*
X50122286Y144906295D01*
X50052987Y144931090D01*
X49986452Y144962559D01*
X49923322Y145000398D01*
X49864205Y145044242D01*
X49809670Y145093670D01*
X49760242Y145148205D01*
X49716398Y145207322D01*
X49678559Y145270452D01*
X49647090Y145336987D01*
X49622295Y145406286D01*
X49604411Y145477682D01*
X49593611Y145550487D01*
X49590000Y145624000D01*
X49590000Y148124000D01*
X49593611Y148197513D01*
X49604411Y148270318D01*
X49622295Y148341714D01*
X49647090Y148411013D01*
X49678559Y148477548D01*
X49716398Y148540678D01*
X49760242Y148599795D01*
X49809670Y148654330D01*
X49864205Y148703758D01*
X49923322Y148747602D01*
X49986452Y148785441D01*
X50052987Y148816910D01*
X50122286Y148841705D01*
X50193682Y148859589D01*
X50266487Y148870389D01*
X50340000Y148874000D01*
X51840000Y148874000D01*
X51913513Y148870389D01*
X51913513Y148870389D01*
G37*
D27*
X51090000Y146874000D03*
G04 #@! TD*
D26*
G04 #@! TO.N,/lem/LemBU_4*
G04 #@! TO.C,J1504*
G36*
X82677513Y148870389D02*
X82750318Y148859589D01*
X82821714Y148841705D01*
X82891013Y148816910D01*
X82957548Y148785441D01*
X83020678Y148747602D01*
X83079795Y148703758D01*
X83134330Y148654330D01*
X83183758Y148599795D01*
X83227602Y148540678D01*
X83265441Y148477548D01*
X83296910Y148411013D01*
X83321705Y148341714D01*
X83339589Y148270318D01*
X83350389Y148197513D01*
X83354000Y148124000D01*
X83354000Y145624000D01*
X83350389Y145550487D01*
X83339589Y145477682D01*
X83321705Y145406286D01*
X83296910Y145336987D01*
X83265441Y145270452D01*
X83227602Y145207322D01*
X83183758Y145148205D01*
X83134330Y145093670D01*
X83079795Y145044242D01*
X83020678Y145000398D01*
X82957548Y144962559D01*
X82891013Y144931090D01*
X82821714Y144906295D01*
X82750318Y144888411D01*
X82677513Y144877611D01*
X82604000Y144874000D01*
X81104000Y144874000D01*
X81030487Y144877611D01*
X80957682Y144888411D01*
X80886286Y144906295D01*
X80816987Y144931090D01*
X80750452Y144962559D01*
X80687322Y145000398D01*
X80628205Y145044242D01*
X80573670Y145093670D01*
X80524242Y145148205D01*
X80480398Y145207322D01*
X80442559Y145270452D01*
X80411090Y145336987D01*
X80386295Y145406286D01*
X80368411Y145477682D01*
X80357611Y145550487D01*
X80354000Y145624000D01*
X80354000Y148124000D01*
X80357611Y148197513D01*
X80368411Y148270318D01*
X80386295Y148341714D01*
X80411090Y148411013D01*
X80442559Y148477548D01*
X80480398Y148540678D01*
X80524242Y148599795D01*
X80573670Y148654330D01*
X80628205Y148703758D01*
X80687322Y148747602D01*
X80750452Y148785441D01*
X80816987Y148816910D01*
X80886286Y148841705D01*
X80957682Y148859589D01*
X81030487Y148870389D01*
X81104000Y148874000D01*
X82604000Y148874000D01*
X82677513Y148870389D01*
X82677513Y148870389D01*
G37*
D27*
X81854000Y146874000D03*
D26*
G04 #@! TO.N,/lem/LemBU_5*
G36*
X77597513Y148870389D02*
X77670318Y148859589D01*
X77741714Y148841705D01*
X77811013Y148816910D01*
X77877548Y148785441D01*
X77940678Y148747602D01*
X77999795Y148703758D01*
X78054330Y148654330D01*
X78103758Y148599795D01*
X78147602Y148540678D01*
X78185441Y148477548D01*
X78216910Y148411013D01*
X78241705Y148341714D01*
X78259589Y148270318D01*
X78270389Y148197513D01*
X78274000Y148124000D01*
X78274000Y145624000D01*
X78270389Y145550487D01*
X78259589Y145477682D01*
X78241705Y145406286D01*
X78216910Y145336987D01*
X78185441Y145270452D01*
X78147602Y145207322D01*
X78103758Y145148205D01*
X78054330Y145093670D01*
X77999795Y145044242D01*
X77940678Y145000398D01*
X77877548Y144962559D01*
X77811013Y144931090D01*
X77741714Y144906295D01*
X77670318Y144888411D01*
X77597513Y144877611D01*
X77524000Y144874000D01*
X76024000Y144874000D01*
X75950487Y144877611D01*
X75877682Y144888411D01*
X75806286Y144906295D01*
X75736987Y144931090D01*
X75670452Y144962559D01*
X75607322Y145000398D01*
X75548205Y145044242D01*
X75493670Y145093670D01*
X75444242Y145148205D01*
X75400398Y145207322D01*
X75362559Y145270452D01*
X75331090Y145336987D01*
X75306295Y145406286D01*
X75288411Y145477682D01*
X75277611Y145550487D01*
X75274000Y145624000D01*
X75274000Y148124000D01*
X75277611Y148197513D01*
X75288411Y148270318D01*
X75306295Y148341714D01*
X75331090Y148411013D01*
X75362559Y148477548D01*
X75400398Y148540678D01*
X75444242Y148599795D01*
X75493670Y148654330D01*
X75548205Y148703758D01*
X75607322Y148747602D01*
X75670452Y148785441D01*
X75736987Y148816910D01*
X75806286Y148841705D01*
X75877682Y148859589D01*
X75950487Y148870389D01*
X76024000Y148874000D01*
X77524000Y148874000D01*
X77597513Y148870389D01*
X77597513Y148870389D01*
G37*
D27*
X76774000Y146874000D03*
D26*
G04 #@! TO.N,/lem/LemBU_1*
G36*
X72517513Y148870389D02*
X72590318Y148859589D01*
X72661714Y148841705D01*
X72731013Y148816910D01*
X72797548Y148785441D01*
X72860678Y148747602D01*
X72919795Y148703758D01*
X72974330Y148654330D01*
X73023758Y148599795D01*
X73067602Y148540678D01*
X73105441Y148477548D01*
X73136910Y148411013D01*
X73161705Y148341714D01*
X73179589Y148270318D01*
X73190389Y148197513D01*
X73194000Y148124000D01*
X73194000Y145624000D01*
X73190389Y145550487D01*
X73179589Y145477682D01*
X73161705Y145406286D01*
X73136910Y145336987D01*
X73105441Y145270452D01*
X73067602Y145207322D01*
X73023758Y145148205D01*
X72974330Y145093670D01*
X72919795Y145044242D01*
X72860678Y145000398D01*
X72797548Y144962559D01*
X72731013Y144931090D01*
X72661714Y144906295D01*
X72590318Y144888411D01*
X72517513Y144877611D01*
X72444000Y144874000D01*
X70944000Y144874000D01*
X70870487Y144877611D01*
X70797682Y144888411D01*
X70726286Y144906295D01*
X70656987Y144931090D01*
X70590452Y144962559D01*
X70527322Y145000398D01*
X70468205Y145044242D01*
X70413670Y145093670D01*
X70364242Y145148205D01*
X70320398Y145207322D01*
X70282559Y145270452D01*
X70251090Y145336987D01*
X70226295Y145406286D01*
X70208411Y145477682D01*
X70197611Y145550487D01*
X70194000Y145624000D01*
X70194000Y148124000D01*
X70197611Y148197513D01*
X70208411Y148270318D01*
X70226295Y148341714D01*
X70251090Y148411013D01*
X70282559Y148477548D01*
X70320398Y148540678D01*
X70364242Y148599795D01*
X70413670Y148654330D01*
X70468205Y148703758D01*
X70527322Y148747602D01*
X70590452Y148785441D01*
X70656987Y148816910D01*
X70726286Y148841705D01*
X70797682Y148859589D01*
X70870487Y148870389D01*
X70944000Y148874000D01*
X72444000Y148874000D01*
X72517513Y148870389D01*
X72517513Y148870389D01*
G37*
D27*
X71694000Y146874000D03*
G04 #@! TD*
D26*
G04 #@! TO.N,/lem/LemBV_4*
G04 #@! TO.C,J1505*
G36*
X103281513Y148870389D02*
X103354318Y148859589D01*
X103425714Y148841705D01*
X103495013Y148816910D01*
X103561548Y148785441D01*
X103624678Y148747602D01*
X103683795Y148703758D01*
X103738330Y148654330D01*
X103787758Y148599795D01*
X103831602Y148540678D01*
X103869441Y148477548D01*
X103900910Y148411013D01*
X103925705Y148341714D01*
X103943589Y148270318D01*
X103954389Y148197513D01*
X103958000Y148124000D01*
X103958000Y145624000D01*
X103954389Y145550487D01*
X103943589Y145477682D01*
X103925705Y145406286D01*
X103900910Y145336987D01*
X103869441Y145270452D01*
X103831602Y145207322D01*
X103787758Y145148205D01*
X103738330Y145093670D01*
X103683795Y145044242D01*
X103624678Y145000398D01*
X103561548Y144962559D01*
X103495013Y144931090D01*
X103425714Y144906295D01*
X103354318Y144888411D01*
X103281513Y144877611D01*
X103208000Y144874000D01*
X101708000Y144874000D01*
X101634487Y144877611D01*
X101561682Y144888411D01*
X101490286Y144906295D01*
X101420987Y144931090D01*
X101354452Y144962559D01*
X101291322Y145000398D01*
X101232205Y145044242D01*
X101177670Y145093670D01*
X101128242Y145148205D01*
X101084398Y145207322D01*
X101046559Y145270452D01*
X101015090Y145336987D01*
X100990295Y145406286D01*
X100972411Y145477682D01*
X100961611Y145550487D01*
X100958000Y145624000D01*
X100958000Y148124000D01*
X100961611Y148197513D01*
X100972411Y148270318D01*
X100990295Y148341714D01*
X101015090Y148411013D01*
X101046559Y148477548D01*
X101084398Y148540678D01*
X101128242Y148599795D01*
X101177670Y148654330D01*
X101232205Y148703758D01*
X101291322Y148747602D01*
X101354452Y148785441D01*
X101420987Y148816910D01*
X101490286Y148841705D01*
X101561682Y148859589D01*
X101634487Y148870389D01*
X101708000Y148874000D01*
X103208000Y148874000D01*
X103281513Y148870389D01*
X103281513Y148870389D01*
G37*
D27*
X102458000Y146874000D03*
D26*
G04 #@! TO.N,/lem/LemBV_5*
G36*
X98201513Y148870389D02*
X98274318Y148859589D01*
X98345714Y148841705D01*
X98415013Y148816910D01*
X98481548Y148785441D01*
X98544678Y148747602D01*
X98603795Y148703758D01*
X98658330Y148654330D01*
X98707758Y148599795D01*
X98751602Y148540678D01*
X98789441Y148477548D01*
X98820910Y148411013D01*
X98845705Y148341714D01*
X98863589Y148270318D01*
X98874389Y148197513D01*
X98878000Y148124000D01*
X98878000Y145624000D01*
X98874389Y145550487D01*
X98863589Y145477682D01*
X98845705Y145406286D01*
X98820910Y145336987D01*
X98789441Y145270452D01*
X98751602Y145207322D01*
X98707758Y145148205D01*
X98658330Y145093670D01*
X98603795Y145044242D01*
X98544678Y145000398D01*
X98481548Y144962559D01*
X98415013Y144931090D01*
X98345714Y144906295D01*
X98274318Y144888411D01*
X98201513Y144877611D01*
X98128000Y144874000D01*
X96628000Y144874000D01*
X96554487Y144877611D01*
X96481682Y144888411D01*
X96410286Y144906295D01*
X96340987Y144931090D01*
X96274452Y144962559D01*
X96211322Y145000398D01*
X96152205Y145044242D01*
X96097670Y145093670D01*
X96048242Y145148205D01*
X96004398Y145207322D01*
X95966559Y145270452D01*
X95935090Y145336987D01*
X95910295Y145406286D01*
X95892411Y145477682D01*
X95881611Y145550487D01*
X95878000Y145624000D01*
X95878000Y148124000D01*
X95881611Y148197513D01*
X95892411Y148270318D01*
X95910295Y148341714D01*
X95935090Y148411013D01*
X95966559Y148477548D01*
X96004398Y148540678D01*
X96048242Y148599795D01*
X96097670Y148654330D01*
X96152205Y148703758D01*
X96211322Y148747602D01*
X96274452Y148785441D01*
X96340987Y148816910D01*
X96410286Y148841705D01*
X96481682Y148859589D01*
X96554487Y148870389D01*
X96628000Y148874000D01*
X98128000Y148874000D01*
X98201513Y148870389D01*
X98201513Y148870389D01*
G37*
D27*
X97378000Y146874000D03*
D26*
G04 #@! TO.N,/lem/LemBV_1*
G36*
X93121513Y148870389D02*
X93194318Y148859589D01*
X93265714Y148841705D01*
X93335013Y148816910D01*
X93401548Y148785441D01*
X93464678Y148747602D01*
X93523795Y148703758D01*
X93578330Y148654330D01*
X93627758Y148599795D01*
X93671602Y148540678D01*
X93709441Y148477548D01*
X93740910Y148411013D01*
X93765705Y148341714D01*
X93783589Y148270318D01*
X93794389Y148197513D01*
X93798000Y148124000D01*
X93798000Y145624000D01*
X93794389Y145550487D01*
X93783589Y145477682D01*
X93765705Y145406286D01*
X93740910Y145336987D01*
X93709441Y145270452D01*
X93671602Y145207322D01*
X93627758Y145148205D01*
X93578330Y145093670D01*
X93523795Y145044242D01*
X93464678Y145000398D01*
X93401548Y144962559D01*
X93335013Y144931090D01*
X93265714Y144906295D01*
X93194318Y144888411D01*
X93121513Y144877611D01*
X93048000Y144874000D01*
X91548000Y144874000D01*
X91474487Y144877611D01*
X91401682Y144888411D01*
X91330286Y144906295D01*
X91260987Y144931090D01*
X91194452Y144962559D01*
X91131322Y145000398D01*
X91072205Y145044242D01*
X91017670Y145093670D01*
X90968242Y145148205D01*
X90924398Y145207322D01*
X90886559Y145270452D01*
X90855090Y145336987D01*
X90830295Y145406286D01*
X90812411Y145477682D01*
X90801611Y145550487D01*
X90798000Y145624000D01*
X90798000Y148124000D01*
X90801611Y148197513D01*
X90812411Y148270318D01*
X90830295Y148341714D01*
X90855090Y148411013D01*
X90886559Y148477548D01*
X90924398Y148540678D01*
X90968242Y148599795D01*
X91017670Y148654330D01*
X91072205Y148703758D01*
X91131322Y148747602D01*
X91194452Y148785441D01*
X91260987Y148816910D01*
X91330286Y148841705D01*
X91401682Y148859589D01*
X91474487Y148870389D01*
X91548000Y148874000D01*
X93048000Y148874000D01*
X93121513Y148870389D01*
X93121513Y148870389D01*
G37*
D27*
X92298000Y146874000D03*
G04 #@! TD*
D26*
G04 #@! TO.N,/lem/LemAU_4*
G04 #@! TO.C,J1503*
G36*
X20865513Y148870389D02*
X20938318Y148859589D01*
X21009714Y148841705D01*
X21079013Y148816910D01*
X21145548Y148785441D01*
X21208678Y148747602D01*
X21267795Y148703758D01*
X21322330Y148654330D01*
X21371758Y148599795D01*
X21415602Y148540678D01*
X21453441Y148477548D01*
X21484910Y148411013D01*
X21509705Y148341714D01*
X21527589Y148270318D01*
X21538389Y148197513D01*
X21542000Y148124000D01*
X21542000Y145624000D01*
X21538389Y145550487D01*
X21527589Y145477682D01*
X21509705Y145406286D01*
X21484910Y145336987D01*
X21453441Y145270452D01*
X21415602Y145207322D01*
X21371758Y145148205D01*
X21322330Y145093670D01*
X21267795Y145044242D01*
X21208678Y145000398D01*
X21145548Y144962559D01*
X21079013Y144931090D01*
X21009714Y144906295D01*
X20938318Y144888411D01*
X20865513Y144877611D01*
X20792000Y144874000D01*
X19292000Y144874000D01*
X19218487Y144877611D01*
X19145682Y144888411D01*
X19074286Y144906295D01*
X19004987Y144931090D01*
X18938452Y144962559D01*
X18875322Y145000398D01*
X18816205Y145044242D01*
X18761670Y145093670D01*
X18712242Y145148205D01*
X18668398Y145207322D01*
X18630559Y145270452D01*
X18599090Y145336987D01*
X18574295Y145406286D01*
X18556411Y145477682D01*
X18545611Y145550487D01*
X18542000Y145624000D01*
X18542000Y148124000D01*
X18545611Y148197513D01*
X18556411Y148270318D01*
X18574295Y148341714D01*
X18599090Y148411013D01*
X18630559Y148477548D01*
X18668398Y148540678D01*
X18712242Y148599795D01*
X18761670Y148654330D01*
X18816205Y148703758D01*
X18875322Y148747602D01*
X18938452Y148785441D01*
X19004987Y148816910D01*
X19074286Y148841705D01*
X19145682Y148859589D01*
X19218487Y148870389D01*
X19292000Y148874000D01*
X20792000Y148874000D01*
X20865513Y148870389D01*
X20865513Y148870389D01*
G37*
D27*
X20042000Y146874000D03*
D26*
G04 #@! TO.N,/lem/LemAU_5*
G36*
X15785513Y148870389D02*
X15858318Y148859589D01*
X15929714Y148841705D01*
X15999013Y148816910D01*
X16065548Y148785441D01*
X16128678Y148747602D01*
X16187795Y148703758D01*
X16242330Y148654330D01*
X16291758Y148599795D01*
X16335602Y148540678D01*
X16373441Y148477548D01*
X16404910Y148411013D01*
X16429705Y148341714D01*
X16447589Y148270318D01*
X16458389Y148197513D01*
X16462000Y148124000D01*
X16462000Y145624000D01*
X16458389Y145550487D01*
X16447589Y145477682D01*
X16429705Y145406286D01*
X16404910Y145336987D01*
X16373441Y145270452D01*
X16335602Y145207322D01*
X16291758Y145148205D01*
X16242330Y145093670D01*
X16187795Y145044242D01*
X16128678Y145000398D01*
X16065548Y144962559D01*
X15999013Y144931090D01*
X15929714Y144906295D01*
X15858318Y144888411D01*
X15785513Y144877611D01*
X15712000Y144874000D01*
X14212000Y144874000D01*
X14138487Y144877611D01*
X14065682Y144888411D01*
X13994286Y144906295D01*
X13924987Y144931090D01*
X13858452Y144962559D01*
X13795322Y145000398D01*
X13736205Y145044242D01*
X13681670Y145093670D01*
X13632242Y145148205D01*
X13588398Y145207322D01*
X13550559Y145270452D01*
X13519090Y145336987D01*
X13494295Y145406286D01*
X13476411Y145477682D01*
X13465611Y145550487D01*
X13462000Y145624000D01*
X13462000Y148124000D01*
X13465611Y148197513D01*
X13476411Y148270318D01*
X13494295Y148341714D01*
X13519090Y148411013D01*
X13550559Y148477548D01*
X13588398Y148540678D01*
X13632242Y148599795D01*
X13681670Y148654330D01*
X13736205Y148703758D01*
X13795322Y148747602D01*
X13858452Y148785441D01*
X13924987Y148816910D01*
X13994286Y148841705D01*
X14065682Y148859589D01*
X14138487Y148870389D01*
X14212000Y148874000D01*
X15712000Y148874000D01*
X15785513Y148870389D01*
X15785513Y148870389D01*
G37*
D27*
X14962000Y146874000D03*
D26*
G04 #@! TO.N,/lem/LemAU_1*
G36*
X10705513Y148870389D02*
X10778318Y148859589D01*
X10849714Y148841705D01*
X10919013Y148816910D01*
X10985548Y148785441D01*
X11048678Y148747602D01*
X11107795Y148703758D01*
X11162330Y148654330D01*
X11211758Y148599795D01*
X11255602Y148540678D01*
X11293441Y148477548D01*
X11324910Y148411013D01*
X11349705Y148341714D01*
X11367589Y148270318D01*
X11378389Y148197513D01*
X11382000Y148124000D01*
X11382000Y145624000D01*
X11378389Y145550487D01*
X11367589Y145477682D01*
X11349705Y145406286D01*
X11324910Y145336987D01*
X11293441Y145270452D01*
X11255602Y145207322D01*
X11211758Y145148205D01*
X11162330Y145093670D01*
X11107795Y145044242D01*
X11048678Y145000398D01*
X10985548Y144962559D01*
X10919013Y144931090D01*
X10849714Y144906295D01*
X10778318Y144888411D01*
X10705513Y144877611D01*
X10632000Y144874000D01*
X9132000Y144874000D01*
X9058487Y144877611D01*
X8985682Y144888411D01*
X8914286Y144906295D01*
X8844987Y144931090D01*
X8778452Y144962559D01*
X8715322Y145000398D01*
X8656205Y145044242D01*
X8601670Y145093670D01*
X8552242Y145148205D01*
X8508398Y145207322D01*
X8470559Y145270452D01*
X8439090Y145336987D01*
X8414295Y145406286D01*
X8396411Y145477682D01*
X8385611Y145550487D01*
X8382000Y145624000D01*
X8382000Y148124000D01*
X8385611Y148197513D01*
X8396411Y148270318D01*
X8414295Y148341714D01*
X8439090Y148411013D01*
X8470559Y148477548D01*
X8508398Y148540678D01*
X8552242Y148599795D01*
X8601670Y148654330D01*
X8656205Y148703758D01*
X8715322Y148747602D01*
X8778452Y148785441D01*
X8844987Y148816910D01*
X8914286Y148841705D01*
X8985682Y148859589D01*
X9058487Y148870389D01*
X9132000Y148874000D01*
X10632000Y148874000D01*
X10705513Y148870389D01*
X10705513Y148870389D01*
G37*
D27*
X9882000Y146874000D03*
G04 #@! TD*
D15*
G04 #@! TO.N,GNDH*
G04 #@! TO.C,PS702*
X111995000Y76790000D03*
G04 #@! TO.N,/ac_in/AC_L_H_FUSE*
X150495000Y76790000D03*
G04 #@! TO.N,5VH*
X111995000Y68790000D03*
G04 #@! TO.N,/ac_in/AC_N*
X150495000Y66040000D03*
G04 #@! TD*
G04 #@! TO.N,GND*
G04 #@! TO.C,PS701*
X111995000Y103714000D03*
G04 #@! TO.N,/ac_in/AC_L_C_FUSE*
X150495000Y103714000D03*
G04 #@! TO.N,/ac_in/5VC_IN*
X111995000Y95714000D03*
G04 #@! TO.N,/ac_in/AC_N*
X150495000Y92964000D03*
G04 #@! TD*
D30*
G04 #@! TO.N,GNDB*
G04 #@! TO.C,U1604*
X139065000Y117475000D03*
D31*
G04 #@! TO.N,Net-(C1610-Pad2)*
X136525000Y117475000D03*
G04 #@! TO.N,VBUS2_N_H*
X133985000Y117475000D03*
G04 #@! TO.N,Net-(L1602-Pad1)*
X131445000Y117475000D03*
G04 #@! TD*
D30*
G04 #@! TO.N,GNDB*
G04 #@! TO.C,U1603*
X139065000Y128905000D03*
D31*
G04 #@! TO.N,Net-(C1609-Pad2)*
X136525000Y128905000D03*
G04 #@! TO.N,VBUS1_N_H*
X133985000Y128905000D03*
G04 #@! TO.N,Net-(L1601-Pad1)*
X131445000Y128905000D03*
G04 #@! TD*
D24*
G04 #@! TO.N,GND*
G04 #@! TO.C,U403*
X147285200Y36749400D03*
X148285200Y36749400D03*
X149285200Y36749400D03*
X147285200Y37749400D03*
X148285200Y37749400D03*
X149285200Y37749400D03*
X147285200Y38749400D03*
X148285200Y38749400D03*
X149285200Y38749400D03*
G04 #@! TD*
D17*
G04 #@! TO.N,GNDH*
X115400977Y30140083D03*
D32*
G04 #@! TO.N,GND*
X79100979Y61440081D03*
D33*
X118913840Y80813840D03*
X144424400Y6858000D03*
X90100977Y112240083D03*
D32*
X75100976Y65440081D03*
X75900978Y65440080D03*
X75900978Y66240082D03*
X75100980Y66240082D03*
X75100977Y67040082D03*
X75900979Y67040081D03*
X75900978Y67840081D03*
X76700979Y67840081D03*
X76700978Y67040081D03*
X77500977Y67040084D03*
X77500977Y66240082D03*
X77500977Y67840082D03*
X76700976Y66240082D03*
X77500977Y65440081D03*
X76700977Y65440083D03*
X75100976Y67840082D03*
X83100977Y59840081D03*
X69500977Y69440080D03*
X73900977Y74440081D03*
X79900976Y63040082D03*
X72700977Y68640081D03*
X72700977Y63040082D03*
X79900977Y70240080D03*
X75100976Y59840081D03*
D33*
X58200977Y91940083D03*
X55542483Y68818004D03*
D32*
X72700979Y71040080D03*
D34*
X68710367Y74230693D03*
D35*
X53100977Y105440081D03*
X64800000Y105600000D03*
X69600000Y101200000D03*
D33*
X56200977Y81940083D03*
X110800000Y90400000D03*
D17*
X89100977Y106240083D03*
D33*
X104300977Y87440083D03*
D35*
X151500977Y41040081D03*
D33*
X153000967Y30804786D03*
X17500977Y41240083D03*
X30500977Y34640083D03*
X14900977Y34640083D03*
X31300977Y40840083D03*
X43900977Y43040083D03*
X82162498Y35240093D03*
X95148400Y35287506D03*
X144300977Y18440083D03*
X60100977Y30240083D03*
X65500977Y31440083D03*
D35*
X93700977Y69440083D03*
D34*
X67900977Y59640083D03*
D32*
X73100977Y74440081D03*
D35*
X86100977Y74240083D03*
D33*
X107700977Y35640083D03*
X135834875Y29240083D03*
X124900956Y28885698D03*
D35*
X84300977Y93440081D03*
D17*
X79600977Y92740081D03*
X6835076Y108374180D03*
D33*
X67700977Y110640083D03*
D35*
X59700977Y100840081D03*
D33*
X106510686Y62444601D03*
D35*
X84300977Y58440081D03*
X120650000Y87122000D03*
D32*
X85900977Y66840083D03*
D35*
X78900977Y53040083D03*
D33*
X106700977Y111040083D03*
X8300977Y40440083D03*
X128700977Y6440083D03*
X149734690Y8082310D03*
X130500977Y37440083D03*
G04 #@! TO.N,5VC*
X50400000Y102726210D03*
D17*
X131500977Y61440083D03*
D33*
X71101684Y106440071D03*
D17*
X128900977Y29240083D03*
D34*
G04 #@! TO.N,ECAT0_RX_CLK*
X90900977Y69840081D03*
X134700977Y40240081D03*
X93558468Y41207657D03*
G04 #@! TO.N,ECAT_MDIO*
X142700977Y36040083D03*
X132100977Y44640081D03*
X130500977Y54040081D03*
X131002530Y36341636D03*
G04 #@! TO.N,ECAT1_RJ_LED1*
X128700967Y53723897D03*
D32*
G04 #@! TO.N,LCD_GPIO4*
X82300976Y66240082D03*
D34*
X99427262Y68313796D03*
G04 #@! TO.N,ECAT0_RX_ER*
X133300977Y47440083D03*
X90900977Y70840081D03*
X94164932Y48240091D03*
G04 #@! TO.N,ECAT0_TX_D2*
X90900977Y68840081D03*
X141100977Y36640081D03*
X92500977Y48240081D03*
G04 #@! TO.N,ECAT0_TX_CLK*
X101100977Y67640083D03*
X99100977Y42440083D03*
X140700977Y40440081D03*
D32*
G04 #@! TO.N,LCD_GPIO3*
X81500978Y66240082D03*
D34*
X100700977Y68440083D03*
G04 #@! TO.N,ENET_CAT_XI*
X91900977Y65040083D03*
X90900977Y44640083D03*
X130500977Y44640083D03*
G04 #@! TO.N,ECAT_EEPROM_SDA*
X60300977Y38640081D03*
X91300977Y62640060D03*
X90500977Y39840083D03*
D32*
G04 #@! TO.N,ECAT0_RX_D2*
X82300977Y71840083D03*
D34*
X139100977Y41040081D03*
X138900977Y57840083D03*
D32*
G04 #@! TO.N,ECAT0_RX_D0*
X82300977Y71040083D03*
D34*
X136700977Y47240081D03*
X136700977Y57840083D03*
G04 #@! TO.N,LCD_GPIO0*
X87900977Y75040083D03*
X99700967Y74199555D03*
D32*
G04 #@! TO.N,ECAT0_TX_D3*
X82300977Y67840084D03*
D34*
X142500977Y45640081D03*
X142900977Y56240083D03*
D32*
G04 #@! TO.N,ECAT0_TX_D0*
X82300978Y67040081D03*
D34*
X140357663Y45411573D03*
X140100977Y56240083D03*
D32*
G04 #@! TO.N,LCD_GPIO2*
X82300978Y70240080D03*
D34*
X99500977Y71840071D03*
D32*
G04 #@! TO.N,ECAT_RST*
X82300977Y65440083D03*
D34*
X142700977Y35040083D03*
X129700977Y55840083D03*
X131700977Y35462568D03*
D32*
G04 #@! TO.N,ECAT_EEPROM_SCL*
X82300978Y64640080D03*
D34*
X81876712Y39064359D03*
D35*
X60100977Y31840083D03*
D34*
G04 #@! TO.N,ENDAT1_N_SKEW_CLK*
X78300977Y35040083D03*
X88300977Y35240083D03*
X88100977Y80240081D03*
D32*
G04 #@! TO.N,ENDAT1_Y_SKEW_CLK*
X80700977Y72640082D03*
D34*
X78500977Y39040115D03*
X75900977Y39040115D03*
D32*
G04 #@! TO.N,ECAT0_RX_D3*
X80700980Y71840082D03*
D34*
X140100977Y41040083D03*
X97700977Y80040083D03*
X98501042Y46240083D03*
D32*
G04 #@! TO.N,ECAT0_RX_D1*
X81500978Y71040080D03*
D34*
X138700977Y44640083D03*
X137900977Y57840083D03*
D32*
G04 #@! TO.N,LCD_SPI_PDW*
X81500977Y70240083D03*
D34*
X99493854Y77432960D03*
D32*
G04 #@! TO.N,ECAT0_RX_DV*
X81500978Y67840081D03*
D34*
X135900977Y44640083D03*
X135700977Y57840083D03*
D32*
G04 #@! TO.N,ECAT0_TX_D1*
X81500977Y67040084D03*
D34*
X141900977Y44640081D03*
X141900977Y56240083D03*
D32*
G04 #@! TO.N,LCD_GPIO1*
X82300977Y72640082D03*
D35*
X102300977Y73440083D03*
D32*
G04 #@! TO.N,ECAT0_TX_EN*
X81500978Y65440080D03*
D34*
X140900977Y54240083D03*
X141300977Y39640081D03*
G04 #@! TO.N,ENDAT2_N_SKEW_CLK*
X80703311Y42816271D03*
D32*
X79900979Y72640083D03*
G04 #@! TO.N,ENDAT2_Y_SKEW_CLK*
X79891592Y71830696D03*
D34*
X79788793Y42816271D03*
G04 #@! TO.N,QEP1_A*
X23500977Y35040083D03*
X82988793Y42816271D03*
D32*
X79900977Y73440081D03*
D34*
G04 #@! TO.N,QEP1_B*
X67100977Y42040081D03*
D32*
X79100978Y72640082D03*
D34*
X78890356Y79023454D03*
X22300977Y35040083D03*
X66500977Y78840081D03*
D32*
G04 #@! TO.N,ECAT1_RJ_LED0*
X79900978Y60640080D03*
D34*
X125276689Y49635838D03*
D32*
G04 #@! TO.N,ECAT0_RJ_LED0*
X79100979Y59840081D03*
D34*
X126100967Y49611573D03*
G04 #@! TO.N,FLASH_SPI_MOSI*
X86300977Y85440081D03*
X84500977Y39240081D03*
G04 #@! TO.N,FLASH_SPI_MISO*
X61700977Y35440083D03*
X60729487Y81040081D03*
X78500977Y81840081D03*
D32*
G04 #@! TO.N,FLASH_SPI_CLK*
X77500977Y72640084D03*
D34*
X66900977Y35040083D03*
G04 #@! TO.N,FLASH_SPI_CS*
X63100977Y35440083D03*
X66500977Y83640081D03*
X75300977Y83240081D03*
D32*
G04 #@! TO.N,QEP1_S*
X76700977Y71840081D03*
D34*
X56300977Y48040081D03*
X77300954Y46840083D03*
D32*
G04 #@! TO.N,ENDAT2_MOSI*
X77500977Y61440084D03*
D34*
G04 #@! TO.N,QEP2_I*
X64900977Y42040081D03*
D35*
X36710977Y35240081D03*
D34*
X75300977Y81640081D03*
X66500977Y82040081D03*
D35*
G04 #@! TO.N,QEP2_B*
X38100977Y35240081D03*
D34*
X75300977Y82440081D03*
X66500977Y82840081D03*
X63900977Y37640081D03*
D32*
G04 #@! TO.N,QEP2_A*
X75900979Y72640081D03*
D34*
X75900977Y46840083D03*
X56501020Y46640083D03*
D32*
G04 #@! TO.N,QEP1_I*
X75900978Y71840082D03*
D34*
X21100977Y35040083D03*
X76925249Y42215809D03*
D32*
G04 #@! TO.N,ENDAT2_CLK*
X76700978Y61440081D03*
G04 #@! TO.N,ENDAT2_CS*
X76700977Y60640081D03*
D34*
X89900977Y35240083D03*
X80300977Y35840083D03*
D35*
G04 #@! TO.N,QEP2_S*
X35440977Y35070081D03*
D34*
X66000977Y42040081D03*
X66500977Y81240081D03*
X73700977Y81240081D03*
G04 #@! TO.N,ENET_MDIO*
X101100977Y85840081D03*
X101300977Y46240083D03*
X127500967Y39440083D03*
D32*
G04 #@! TO.N,ENET_PWDN*
X75100980Y71840082D03*
D34*
X94300977Y74240081D03*
X96700977Y37040083D03*
D32*
G04 #@! TO.N,ENDAT1_CS*
X75900977Y61440084D03*
D34*
G04 #@! TO.N,ENDAT2_MISO*
X91500977Y51240083D03*
X92668915Y35240083D03*
X76100977Y52640083D03*
G04 #@! TO.N,ECAT1_RX_D3*
X152100977Y46440083D03*
G04 #@! TO.N,ENET_COL*
X99300977Y88240083D03*
X99900977Y42440083D03*
D32*
G04 #@! TO.N,ENET_RX_DV*
X74300977Y72640083D03*
D34*
X92900977Y74440083D03*
X94900977Y44440081D03*
D32*
G04 #@! TO.N,ENET_RX_CLK*
X74300978Y71840083D03*
D34*
X94100977Y75440093D03*
X96700977Y44440113D03*
D32*
G04 #@! TO.N,ENDAT1_MISO*
X75100979Y61440083D03*
G04 #@! TO.N,ENDAT1_CLK*
X75100978Y60640081D03*
D34*
G04 #@! TO.N,ECAT1_RX_D2*
X150500977Y45840081D03*
G04 #@! TO.N,ECAT1_RX_D1*
X151300977Y47240081D03*
G04 #@! TO.N,ENET_CRS*
X89894187Y86076938D03*
X90100967Y43415809D03*
G04 #@! TO.N,ENET_RX_D0*
X96100977Y80040083D03*
X73100977Y76440081D03*
X98312600Y42440083D03*
D32*
G04 #@! TO.N,ENET_RX_ER*
X73500980Y71040080D03*
D34*
X93900977Y76640083D03*
X97500977Y42440083D03*
D32*
G04 #@! TO.N,ENDAT1_MOSI*
X74300978Y60640080D03*
D34*
G04 #@! TO.N,ECAT1_RX_D0*
X149700977Y47040081D03*
D32*
G04 #@! TO.N,3V3A*
X72700979Y69440081D03*
D33*
X74100977Y86040083D03*
D35*
X74100977Y77840081D03*
D33*
X68300977Y86040083D03*
D34*
G04 #@! TO.N,RS485_EN*
X71300977Y35640083D03*
D32*
X74300978Y61440084D03*
D35*
X105000977Y31840083D03*
D34*
G04 #@! TO.N,RS485_TX*
X102700977Y49240083D03*
D35*
X102700977Y31840083D03*
D34*
G04 #@! TO.N,RS485_RX*
X73500977Y48240081D03*
X74500977Y36840081D03*
D32*
G04 #@! TO.N,ENET_TX_D1*
X71100979Y67840081D03*
D34*
X69500977Y37440102D03*
D32*
G04 #@! TO.N,ECAT1_TX_EN*
X71100977Y66240081D03*
D34*
X68757663Y55127637D03*
X151100977Y52240081D03*
D32*
G04 #@! TO.N,CAN_RX*
X71100979Y65440082D03*
D34*
X102900977Y55840081D03*
D35*
X103900977Y32440083D03*
D32*
G04 #@! TO.N,ENET_TX_EN*
X71100979Y64640081D03*
D34*
X75500977Y42240081D03*
D32*
G04 #@! TO.N,RUN_LED1*
X71100977Y63040082D03*
G04 #@! TO.N,ENET_RST*
X71100979Y62240081D03*
D34*
X72300977Y45640081D03*
G04 #@! TO.N,ECAT1_RX_DV*
X146109900Y46532800D03*
D32*
X71900977Y60640083D03*
D34*
X144100977Y53440081D03*
G04 #@! TO.N,ECAT1_RX_CLK*
X79500977Y46840093D03*
G04 #@! TO.N,ECAT1_RX_ER*
X146900977Y50040083D03*
G04 #@! TO.N,ENET_TX_D2*
X68300977Y37440081D03*
D32*
X70300978Y67840081D03*
G04 #@! TO.N,ECAT1_TX_CLK*
X71100978Y67040081D03*
D34*
X151900977Y51440081D03*
X68300977Y50840081D03*
D32*
G04 #@! TO.N,CAN_TX*
X70300979Y65440080D03*
D34*
X70100977Y51040083D03*
X106100977Y51240083D03*
D35*
X106100977Y32440083D03*
D34*
G04 #@! TO.N,ENET_RX_D3*
X75500977Y43640091D03*
D32*
X70300977Y64640083D03*
G04 #@! TO.N,RUN_LED0*
X70300977Y63040082D03*
G04 #@! TO.N,ENET_TX_CLK*
X70300978Y62240081D03*
D34*
X74294212Y42150163D03*
G04 #@! TO.N,ECAT1_TX_D3*
X70100977Y55040083D03*
X88100977Y54640083D03*
G04 #@! TO.N,ENET_TX_D3*
X61900977Y38840081D03*
X61900967Y67640081D03*
G04 #@! TO.N,ECAT1_TX_D0*
X153300977Y50440081D03*
X61900967Y65640081D03*
X62100977Y50440083D03*
G04 #@! TO.N,ENET_RX_D1*
X61900965Y63840073D03*
X61900977Y47240083D03*
D35*
G04 #@! TO.N,/uc_clk_dbg/MCU_TRSTn*
X79900977Y99040081D03*
D34*
X61500977Y99040081D03*
D35*
G04 #@! TO.N,/uc_clk_dbg/MCU_TCK*
X71900977Y100668591D03*
D34*
X62300977Y101440083D03*
G04 #@! TO.N,ECAT1_TX_D2*
X153100977Y36840083D03*
G04 #@! TO.N,ENET_RX_D2*
X61900977Y46400000D03*
X61900967Y66640081D03*
D35*
G04 #@! TO.N,/uc_clk_dbg/MCU_TDI*
X73900977Y101040081D03*
D34*
X62900977Y100640081D03*
G04 #@! TO.N,/uc_clk_dbg/MCU_TMS*
X61472467Y100209617D03*
D35*
X76300977Y101040081D03*
D34*
G04 #@! TO.N,/uc_clk_dbg/MCU_TDO*
X59600000Y99600000D03*
D35*
X81900977Y101240081D03*
D34*
G04 #@! TO.N,ECAT1_TX_D1*
X79300977Y45240083D03*
D17*
G04 #@! TO.N,3V3*
X118618000Y96494500D03*
D33*
X143251800Y24180800D03*
X135686800Y32918400D03*
X152469175Y33338703D03*
X144908504Y32918400D03*
X129641600Y26517600D03*
X127279500Y32435700D03*
D34*
X59706994Y104944394D03*
D33*
X53921600Y68157238D03*
X133543162Y44682744D03*
X74700977Y105040081D03*
D17*
X54000000Y100400000D03*
D34*
X69500977Y105440081D03*
D33*
X8000000Y36400000D03*
X144300977Y48040083D03*
X86300977Y35183221D03*
X14700977Y40840083D03*
X28100977Y41040083D03*
X41300977Y41840083D03*
X25900977Y34840083D03*
X119950247Y30926733D03*
X109006235Y34561186D03*
X140385800Y30505400D03*
X150900977Y25440083D03*
X146700977Y3240083D03*
X63488477Y31190093D03*
X41172618Y34311724D03*
D17*
X76100977Y93240083D03*
D33*
X96300977Y87240083D03*
X98400977Y35140083D03*
X54700977Y34240083D03*
X55987797Y80526903D03*
D35*
X149100977Y30640081D03*
D33*
X122900977Y31240081D03*
X110800000Y85200000D03*
X13700977Y104052581D03*
X7500977Y104052581D03*
X25100977Y104052581D03*
X34700977Y104052581D03*
D35*
X48300977Y102440081D03*
D33*
X73141748Y35342451D03*
D35*
X65500977Y100840081D03*
D33*
X53700977Y55640083D03*
X125955728Y43316717D03*
X130900977Y42240083D03*
D35*
X143900977Y39240083D03*
D33*
X143900977Y44240083D03*
X55100977Y92840083D03*
D35*
G04 #@! TO.N,Net-(R201-Pad1)*
X126700977Y35240083D03*
D34*
G04 #@! TO.N,LEM_B_U*
X68357663Y94756147D03*
X68700977Y106040081D03*
G04 #@! TO.N,LEM_B_ALL*
X67100977Y101840081D03*
D32*
G04 #@! TO.N,LEM_A_ALL*
X71100977Y69440080D03*
D34*
X66500977Y94651260D03*
X66100977Y105240083D03*
D35*
G04 #@! TO.N,LEM_B_V*
X71600000Y102000000D03*
D34*
G04 #@! TO.N,LEM_A_V*
X63600000Y105200000D03*
D32*
G04 #@! TO.N,LEM_A_U*
X71100978Y70240080D03*
D34*
G04 #@! TO.N,LCD_AUDIO*
X44700977Y104440081D03*
X100300977Y90440081D03*
X99700977Y76240081D03*
X69700977Y90440081D03*
D17*
G04 #@! TO.N,5VH*
X113200977Y31540083D03*
D35*
G04 #@! TO.N,Net-(R902-Pad1)*
X10900977Y105840081D03*
G04 #@! TO.N,Net-(R901-Pad1)*
X10100977Y107040083D03*
G04 #@! TO.N,Net-(D402-Pad2)*
X53100977Y59153300D03*
G04 #@! TO.N,Net-(D401-Pad2)*
X53100977Y57273700D03*
G04 #@! TO.N,Net-(C823-Pad2)*
X37800977Y61740083D03*
X45900977Y89040083D03*
G04 #@! TO.N,Net-(C824-Pad2)*
X45900977Y90240083D03*
X38400977Y63140083D03*
D34*
G04 #@! TO.N,Net-(R421-Pad1)*
X132300977Y34040081D03*
D35*
G04 #@! TO.N,Net-(R922-Pad1)*
X36900977Y106440081D03*
G04 #@! TO.N,Net-(R923-Pad1)*
X38100977Y105840081D03*
D17*
G04 #@! TO.N,Net-(C1608-Pad2)*
X131064000Y109220000D03*
D33*
X133096000Y86106000D03*
G04 #@! TO.N,Net-(C1607-Pad2)*
X132300977Y93240081D03*
D35*
X132900977Y121840081D03*
G04 #@! TO.N,Net-(R903-Pad1)*
X18700977Y107040081D03*
G04 #@! TO.N,Net-(R904-Pad1)*
X19900977Y105840081D03*
G04 #@! TO.N,Net-(R920-Pad1)*
X27500977Y107040081D03*
G04 #@! TO.N,Net-(R921-Pad1)*
X28700977Y106040081D03*
D34*
G04 #@! TO.N,USB_D-*
X117700977Y51840083D03*
G04 #@! TO.N,USB_D+*
X118974037Y52240062D03*
G04 #@! TO.N,FAN_RPM1*
X76100977Y51840083D03*
X57100967Y83023850D03*
X58500977Y51840083D03*
G04 #@! TO.N,IGBT_ALARM1*
X58500988Y83440081D03*
X76100977Y53440083D03*
X58900977Y53840083D03*
D32*
G04 #@! TO.N,IGBT_ALARM2*
X73500977Y60640081D03*
D34*
X57500977Y89840081D03*
X58700977Y52840083D03*
D32*
G04 #@! TO.N,FAN_RPM2*
X71900977Y61440084D03*
D34*
X57700987Y55164819D03*
D35*
G04 #@! TO.N,FAN_RPM2_H*
X33400977Y62077600D03*
G04 #@! TO.N,IGBT_ALARM2_H*
X31000977Y62140083D03*
G04 #@! TO.N,DIR2*
X32900977Y35070081D03*
D34*
X86700977Y41640081D03*
X86700977Y56240083D03*
G04 #@! TO.N,STEP2*
X85500977Y41640081D03*
X85957663Y55556147D03*
D35*
X34100977Y35240081D03*
D32*
G04 #@! TO.N,STEP1*
X83300977Y58840083D03*
D34*
X57087606Y54143868D03*
G04 #@! TO.N,DIR1*
X84583673Y55520114D03*
X83900977Y45240083D03*
X17039849Y35040083D03*
G04 #@! TO.N,STEP1_H*
X10430977Y18640083D03*
G04 #@! TO.N,DIR1_H*
X11100977Y25240083D03*
G04 #@! TO.N,DIR2_H*
X19499990Y19600000D03*
G04 #@! TO.N,STEP2_H*
X12400000Y18800000D03*
G04 #@! TO.N,DACB_DBG*
X70412879Y92640081D03*
D35*
X82400977Y93540081D03*
D34*
X44440977Y107270081D03*
X68100977Y106840081D03*
G04 #@! TO.N,/endat/ENDAT1_CS_H*
X78100977Y26040081D03*
D35*
G04 #@! TO.N,/endat/ENDAT1_CLK_H*
X73300977Y19040081D03*
D34*
G04 #@! TO.N,/endat/ENDAT1_MISO_H*
X79500977Y25840081D03*
D35*
G04 #@! TO.N,/endat/ENDAT2_MOSI_H*
X93800977Y18340083D03*
D36*
G04 #@! TO.N,/endat/ENDAT2_CS_H*
X91200000Y26000000D03*
D35*
G04 #@! TO.N,/endat/ENDAT2_CLK_H*
X86500977Y21240081D03*
D36*
G04 #@! TO.N,/endat/ENDAT2_MISO_H*
X92800000Y25600000D03*
D34*
G04 #@! TO.N,ENET_MDCLK*
X93900977Y73440081D03*
D32*
X76700978Y72640081D03*
D34*
X95500977Y46240083D03*
D32*
G04 #@! TO.N,ECAT_MDCLK*
X81500977Y64640083D03*
D34*
X99900999Y46240083D03*
X99500977Y61840083D03*
D32*
G04 #@! TO.N,ECAT_LED_ERR*
X80700978Y60640080D03*
D34*
X56476705Y60064355D03*
G04 #@! TO.N,ECAT_LED_RUN*
X82300977Y53640083D03*
X57087597Y52239782D03*
D35*
G04 #@! TO.N,/ethernet/enet_led0*
X134100977Y24640081D03*
D34*
G04 #@! TO.N,/ethernet/enet_led1*
X117500977Y44840083D03*
G04 #@! TO.N,/ethernet/clk_xi*
X124300977Y44040083D03*
G04 #@! TO.N,/ethercat/ecat0_col*
X137100977Y42240083D03*
G04 #@! TO.N,/ethercat/ecat0_crs*
X135100977Y42040081D03*
G04 #@! TO.N,/ethercat/ecat1_col*
X148100977Y50040083D03*
G04 #@! TO.N,/ethercat/ecat1_crs*
X145500977Y50040083D03*
D35*
G04 #@! TO.N,1-WIRE_P_H*
X12400977Y59540083D03*
G04 #@! TO.N,1-WIRE_N_H*
X13664002Y59603106D03*
D33*
G04 #@! TO.N,VBUS1_N_H*
X131400977Y87484042D03*
G04 #@! TO.N,VBUS2_N_H*
X142000000Y134400000D03*
X132800000Y80400000D03*
D35*
G04 #@! TO.N,NTC1_2_H*
X16600977Y87540083D03*
G04 #@! TO.N,NTC1_1_H*
X9000977Y87540083D03*
G04 #@! TO.N,BRK_RES1_H*
X16600977Y84940083D03*
G04 #@! TO.N,BRK_MEC1_H*
X9000977Y84940083D03*
G04 #@! TO.N,IGBT1_WL_H*
X18500977Y79940083D03*
G04 #@! TO.N,SD_CLK_OUT1_H*
X9000977Y69740083D03*
G04 #@! TO.N,IGBT1_WH_H*
X18500977Y77380083D03*
G04 #@! TO.N,SD_CLK_IN1_H*
X11975967Y67140083D03*
G04 #@! TO.N,IGBT1_VL_H*
X18500977Y74820083D03*
G04 #@! TO.N,SD1_A_H*
X12000977Y72263000D03*
G04 #@! TO.N,IGBT1_VH_H*
X18500977Y72260083D03*
G04 #@! TO.N,SD1_W_H*
X12000977Y74803000D03*
G04 #@! TO.N,IGBT1_UL_H*
X18500977Y69700083D03*
G04 #@! TO.N,SD1_V_H*
X12000977Y77343000D03*
G04 #@! TO.N,IGBT1_UH_H*
X18500977Y67140083D03*
G04 #@! TO.N,SD1_U_H*
X12000977Y79940083D03*
G04 #@! TO.N,FREE_OUT1_2_H*
X16600977Y90140083D03*
G04 #@! TO.N,FREE_OUT1_1_H*
X9000977Y90140083D03*
G04 #@! TO.N,FREE_OUT2_1_H*
X26400977Y90140083D03*
G04 #@! TO.N,FREE_OUT2_2_H*
X34100977Y90040083D03*
G04 #@! TO.N,SD2_U_H*
X26200977Y79940083D03*
G04 #@! TO.N,IGBT2_UH_H*
X33500977Y67186700D03*
G04 #@! TO.N,SD2_V_H*
X26200977Y77340083D03*
G04 #@! TO.N,IGBT2_UL_H*
X33500977Y69730629D03*
G04 #@! TO.N,SD2_W_H*
X26200977Y74940083D03*
G04 #@! TO.N,IGBT2_VH_H*
X33500977Y72274555D03*
G04 #@! TO.N,SD2_A_H*
X26200977Y72263000D03*
G04 #@! TO.N,IGBT2_VL_H*
X33500977Y74818481D03*
G04 #@! TO.N,SD_CLK_IN2_H*
X26200977Y67140083D03*
G04 #@! TO.N,IGBT2_WH_H*
X33500977Y77362407D03*
G04 #@! TO.N,SD_CLK_OUT2_H*
X26600977Y69740083D03*
G04 #@! TO.N,IGBT2_WL_H*
X33500977Y79906333D03*
G04 #@! TO.N,BRK_MEC2_H*
X26400977Y84940083D03*
G04 #@! TO.N,BRK_RES2_H*
X34100977Y84840083D03*
G04 #@! TO.N,NTC2_1_H*
X25800977Y87540083D03*
G04 #@! TO.N,NTC2_2_H*
X34000977Y87540083D03*
D32*
G04 #@! TO.N,NTC2_1_N*
X72700977Y72640083D03*
D34*
X71900977Y94240083D03*
X58300977Y98440081D03*
G04 #@! TO.N,NTC2_1_P*
X58500977Y103040081D03*
X69900967Y97040081D03*
D32*
G04 #@! TO.N,NTC2_2_N*
X72700979Y71840082D03*
D34*
X71900977Y95840081D03*
X59100977Y97240081D03*
X57300977Y107240083D03*
D32*
G04 #@! TO.N,NTC2_2_P*
X71900978Y71840081D03*
D34*
G04 #@! TO.N,NTC1_1_N*
X56000000Y102400000D03*
D35*
X16300977Y106040081D03*
D34*
X68700977Y96640083D03*
G04 #@! TO.N,NTC1_1_P*
X69157663Y93956147D03*
D35*
X17300977Y106640081D03*
D34*
X52900977Y102240081D03*
D32*
G04 #@! TO.N,NTC1_2_N*
X71100978Y72640081D03*
D34*
G04 #@! TO.N,NTC1_2_P*
X55900977Y104240081D03*
X67100977Y106240081D03*
D35*
G04 #@! TO.N,VBUS1_N*
X112300977Y89040083D03*
D34*
X60700967Y88240081D03*
X61900967Y68640081D03*
G04 #@! TO.N,VBUS1_P*
X66500977Y91840083D03*
D32*
X71900977Y69440081D03*
D35*
X112700977Y91040083D03*
D34*
G04 #@! TO.N,VBUS2_N*
X67300977Y71040081D03*
D35*
X109200977Y85340081D03*
G04 #@! TO.N,VBUS2_P*
X112400000Y86000000D03*
D34*
X68100977Y71040081D03*
G04 #@! TO.N,SD1_A*
X61900977Y44840083D03*
X63100977Y59040083D03*
G04 #@! TO.N,FREE_OUT1_1*
X59100977Y89040083D03*
X62300967Y58240081D03*
X57300977Y58640083D03*
D32*
G04 #@! TO.N,FREE_OUT1_2*
X71100977Y60640081D03*
D34*
X62300977Y56840083D03*
X59300977Y90640083D03*
D32*
G04 #@! TO.N,SD1_V*
X70300981Y61440083D03*
D35*
X25520977Y41040081D03*
D32*
G04 #@! TO.N,BRK_MEC1*
X70300978Y63840081D03*
G04 #@! TO.N,SD1_W*
X71100979Y61440082D03*
D35*
X24220977Y41040081D03*
D32*
G04 #@! TO.N,BRK_MEC2*
X71100977Y63840080D03*
D34*
X55900977Y83840081D03*
G04 #@! TO.N,SD2_W*
X71468583Y51640083D03*
X58500977Y50440083D03*
G04 #@! TO.N,SD2_V*
X70100977Y52240083D03*
X56900977Y51240083D03*
D32*
G04 #@! TO.N,SD2_U*
X72700977Y60640080D03*
D34*
X57093855Y45247205D03*
D32*
G04 #@! TO.N,SD2_A*
X73500980Y61440082D03*
D35*
X35300977Y40640083D03*
D34*
G04 #@! TO.N,SD_CLK_IN2*
X58500977Y48840081D03*
X73500977Y49040081D03*
D32*
G04 #@! TO.N,IGBT2_VL*
X78300980Y72640081D03*
D34*
X78909434Y78259237D03*
X59100977Y76840081D03*
G04 #@! TO.N,IGBT2_VH*
X55710977Y73820081D03*
X78550967Y82640081D03*
G04 #@! TO.N,FREE_OUT2_1*
X86500977Y88640081D03*
X83900977Y50640083D03*
X56900977Y86440083D03*
D32*
G04 #@! TO.N,FREE_OUT2_2*
X79900977Y59840081D03*
D34*
X55900977Y88240081D03*
X62300967Y60040083D03*
D32*
G04 #@! TO.N,SD_CLK_IN1*
X80700977Y73440081D03*
D34*
X57100977Y72840083D03*
D35*
X21700977Y40440081D03*
D34*
G04 #@! TO.N,SD_CLK_OUT*
X60729487Y82440083D03*
X80622104Y81961208D03*
D35*
X20500977Y40840083D03*
X32720977Y40640083D03*
D32*
G04 #@! TO.N,IGBT1_UL*
X81500979Y68640081D03*
D34*
X55700977Y71240083D03*
D32*
G04 #@! TO.N,IGBT1_WL*
X81500978Y69440081D03*
D34*
X56605698Y76640081D03*
X80697832Y81036936D03*
G04 #@! TO.N,BRK_RES2*
X82100977Y85440083D03*
X58500988Y85040081D03*
D32*
G04 #@! TO.N,1WIRE_OUT*
X82300977Y63840081D03*
D35*
X13300977Y40640083D03*
D32*
G04 #@! TO.N,IGBT1_UH*
X82300977Y68640084D03*
D34*
X56135674Y69779775D03*
D32*
G04 #@! TO.N,IGBT1_WH*
X82300977Y69440080D03*
D34*
X63900977Y70640081D03*
G04 #@! TO.N,BRK_RES1*
X57100977Y85440083D03*
X84900977Y80240081D03*
G04 #@! TO.N,IGBT2_WL*
X59100977Y78440081D03*
X84100977Y79440081D03*
D32*
G04 #@! TO.N,1WIRE_EN*
X83100977Y63840081D03*
D35*
X11500977Y40640083D03*
D34*
G04 #@! TO.N,IGBT1_VL*
X60729487Y85443275D03*
X91806450Y80006205D03*
X60101020Y73640081D03*
G04 #@! TO.N,IGBT2_UL*
X56100977Y72440081D03*
D32*
X85500977Y70040083D03*
D34*
G04 #@! TO.N,IGBT2_WH*
X59100977Y77640083D03*
X85700977Y79040081D03*
G04 #@! TO.N,1WIRE_IN*
X88852942Y62745451D03*
X88100977Y45040081D03*
D35*
X9700977Y40440083D03*
D34*
G04 #@! TO.N,IGBT1_VH*
X92676706Y79864354D03*
X60700967Y86840081D03*
X60101009Y74640081D03*
D32*
G04 #@! TO.N,IGBT2_UH*
X84300977Y69840081D03*
D34*
X57300977Y71440083D03*
D35*
G04 #@! TO.N,/endat/ENDAT1_DATA_H_N*
X78700977Y22440083D03*
G04 #@! TO.N,/step_dir/DIR1_A_P_H*
X9900977Y25240083D03*
G04 #@! TO.N,/qep/QEP1_A_N_H*
X25474990Y13440081D03*
G04 #@! TO.N,/qep/QEP1_I_N_H*
X34100977Y26440083D03*
G04 #@! TO.N,/qep/QEP1_S_P_H*
X27100977Y25440083D03*
G04 #@! TO.N,/qep/QEP2_S_N_H*
X45500977Y22240083D03*
G04 #@! TO.N,/qep/QEP1_S_N_H*
X25900977Y25440083D03*
D34*
G04 #@! TO.N,/qep/QEP2_S_H*
X42500977Y25440083D03*
G04 #@! TO.N,/qep/QEP2_I_H*
X44907200Y25285390D03*
D35*
G04 #@! TO.N,/qep/QEP2_B_H*
X43600977Y18540083D03*
D34*
G04 #@! TO.N,/qep/QEP2_A_H*
X38900977Y23240083D03*
G04 #@! TO.N,/qep/QEP1_S_H*
X19700977Y25640083D03*
G04 #@! TO.N,/qep/QEP1_I_H*
X20900977Y23240083D03*
G04 #@! TO.N,/qep/QEP1_B_H*
X31081528Y22315010D03*
G04 #@! TO.N,/qep/QEP1_A_H*
X26500977Y22240083D03*
G04 #@! TO.N,/ethercat/ecat0_bias*
X141100977Y35040081D03*
G04 #@! TO.N,/ethercat/ecat1_bias*
X144659443Y34310077D03*
D35*
G04 #@! TO.N,/can rs485/CAN_N_H*
X106700977Y18640081D03*
G04 #@! TO.N,/can rs485/CAN_P_H*
X102400000Y18400000D03*
D34*
G04 #@! TO.N,/uc_adc/ADC_REFH*
X69500977Y75640081D03*
D32*
X70310365Y71049466D03*
D34*
X73100977Y75640081D03*
D32*
G04 #@! TO.N,1V2uC*
X79100977Y63040083D03*
X72700975Y63840082D03*
X79900978Y67840082D03*
X77510366Y63049469D03*
X79900979Y66240084D03*
X76300979Y70240080D03*
X72700979Y66240082D03*
D35*
X84300977Y74240083D03*
D33*
X79893863Y84032967D03*
D35*
G04 #@! TO.N,/endat/ENDAT1_MOSI_H*
X80900977Y19040081D03*
G04 #@! TO.N,Net-(D1402-Pad1)*
X53100977Y61210700D03*
G04 #@! TO.N,Net-(D1401-Pad1)*
X53100977Y63318900D03*
D32*
G04 #@! TO.N,3V3uC*
X72700979Y65440080D03*
X79900977Y64640080D03*
X74310365Y63049471D03*
X75900979Y63040081D03*
X79900978Y69440081D03*
X78300980Y70240080D03*
X72700980Y67840083D03*
X79900978Y62240082D03*
X79900979Y67040083D03*
X75100981Y70240080D03*
X84300977Y67440083D03*
X82700978Y74640083D03*
D34*
X67900977Y68040081D03*
D35*
X89500977Y56440083D03*
X93700977Y56440083D03*
D34*
X69700977Y58040083D03*
D32*
X78300977Y61440083D03*
D35*
X84300977Y59840083D03*
X92100977Y71140071D03*
D17*
X77292305Y84201525D03*
D32*
X74700978Y74440081D03*
D33*
G04 #@! TO.N,5VP*
X25171400Y64643000D03*
X22844670Y55544127D03*
X25500977Y93256100D03*
X16200977Y92583000D03*
X34400977Y93840081D03*
D35*
X38700977Y65338960D03*
X38800977Y75740083D03*
X38800977Y80640081D03*
X38800977Y70540083D03*
D33*
X45200977Y79540083D03*
D35*
X44000977Y66540083D03*
X43800977Y93140083D03*
D17*
X8000000Y64400000D03*
D33*
X7400977Y93540081D03*
X28900977Y51840083D03*
X41033600Y51741600D03*
D35*
X24400977Y83940083D03*
X35210977Y55730081D03*
D33*
G04 #@! TO.N,GNDP*
X16205200Y53568600D03*
X7594600Y54095389D03*
X13200977Y82540083D03*
X30600977Y51740083D03*
D35*
X30800977Y55067200D03*
D33*
X21818600Y92049600D03*
D35*
X42100977Y65252600D03*
X42385764Y73140083D03*
X42000977Y75740083D03*
X42400977Y78340083D03*
X42400977Y86670675D03*
X42500977Y88840083D03*
X42000977Y80940083D03*
X42000977Y94540083D03*
X42300977Y67866516D03*
D33*
X33600977Y82940083D03*
D35*
X42400977Y83540083D03*
X42431537Y91940083D03*
D33*
X26657300Y56940083D03*
D35*
X18600977Y55537100D03*
X31100977Y90040081D03*
X41990977Y71010083D03*
D33*
X21100977Y82440083D03*
G04 #@! TO.N,5VI*
X29733740Y23060664D03*
X84175600Y21818600D03*
X90195400Y21742400D03*
X94996000Y21691600D03*
X77035472Y21299590D03*
X70563243Y20367639D03*
D17*
X111600977Y22340083D03*
D33*
X7500977Y24840083D03*
X40700977Y23240083D03*
X23700977Y27040083D03*
G04 #@! TO.N,GNDI*
X33528000Y18441000D03*
X29346010Y25110675D03*
X21000000Y26400000D03*
X12430000Y25023790D03*
X42800000Y11200000D03*
D35*
X82430704Y10976605D03*
D33*
X16000977Y8540083D03*
X48365974Y18490073D03*
X82061850Y22949600D03*
X16300977Y18640081D03*
X96900977Y24040081D03*
X45500977Y24240083D03*
X49900977Y11040083D03*
X16700977Y11240083D03*
X50500977Y8440083D03*
X42700977Y8640083D03*
X57900977Y8440083D03*
D35*
X82500977Y8640083D03*
D33*
X57900977Y11440083D03*
X72300977Y26240083D03*
D17*
G04 #@! TO.N,GNDB*
X131600977Y70140083D03*
G04 #@! TO.N,5VB*
X138000000Y108400000D03*
X135200977Y70140083D03*
D34*
G04 #@! TO.N,/ethercat/ecat1_led0*
X142700977Y34046910D03*
D35*
X144500977Y5440081D03*
D34*
G04 #@! TO.N,Net-(JP401-Pad1)*
X133300977Y39640083D03*
G04 #@! TO.N,Net-(JP402-Pad1)*
X144900977Y39040083D03*
G04 #@! TO.N,Net-(JP405-Pad2)*
X142300977Y26640083D03*
X129900977Y34240083D03*
G04 #@! TD*
D37*
G04 #@! TO.N,GNDH*
X115400977Y73384023D02*
X111995000Y76790000D01*
X115400977Y73384023D02*
X115400977Y73340083D01*
X115400977Y73340083D02*
X116600977Y72140083D01*
X116600977Y58140083D02*
X115400977Y56940083D01*
X116600977Y72140083D02*
X116600977Y58140083D01*
X115400977Y30140083D02*
X115400977Y56940083D01*
D38*
G04 #@! TO.N,GND*
X77500977Y67840082D02*
X75100976Y67840082D01*
X75100979Y67040084D02*
X75100977Y67040082D01*
X77500977Y67040084D02*
X75100979Y67040084D01*
X77500977Y66240082D02*
X75100980Y66240082D01*
X77500977Y65440081D02*
X75100976Y65440081D01*
X75100976Y67840082D02*
X75100976Y65440081D01*
X75900978Y67840081D02*
X75900978Y65440080D01*
X76700979Y65440085D02*
X76700977Y65440083D01*
X76700979Y67840081D02*
X76700979Y65440085D01*
X77500977Y67840082D02*
X77500977Y65440081D01*
D39*
G04 #@! TO.N,5VC*
X127500977Y29240083D02*
X128900977Y29240083D01*
X125100977Y31640083D02*
X127500977Y29240083D01*
X125100977Y39640083D02*
X125100977Y31640083D01*
X131500977Y60640083D02*
X127100977Y56240083D01*
X131500977Y61440083D02*
X131500977Y60640083D01*
X127100977Y56240083D02*
X127100977Y53040083D01*
X127100977Y53040083D02*
X127900977Y52240083D01*
X127900977Y52240083D02*
X127900977Y42440083D01*
X127900977Y42440083D02*
X125100977Y39640083D01*
D40*
G04 #@! TO.N,ECAT0_RX_CLK*
X95100867Y52239973D02*
X93558468Y50697574D01*
X90900977Y69840081D02*
X95100867Y65640191D01*
X93558468Y50697574D02*
X93558468Y41631921D01*
X95100867Y65640191D02*
X95100867Y52239973D01*
X93558468Y41631921D02*
X93558468Y41207657D01*
G04 #@! TO.N,ECAT_MDIO*
X132100977Y44640081D02*
X132100977Y44640083D01*
X130500977Y46240083D02*
X130500977Y54040081D01*
X132100977Y44640083D02*
X130500977Y46240083D01*
X132100977Y37440083D02*
X131002530Y36341636D01*
X132100977Y44640081D02*
X132100977Y37440083D01*
G04 #@! TO.N,ECAT1_RJ_LED1*
X128700967Y53299633D02*
X128700967Y53723897D01*
X128700967Y53171479D02*
X128700967Y53299633D01*
X129100977Y33417935D02*
X129100977Y52771469D01*
X141414200Y6926858D02*
X137157663Y11183395D01*
X137157663Y11183395D02*
X137157663Y14983397D01*
X141414200Y3337200D02*
X141414200Y6926858D01*
X137157663Y14983397D02*
X135100977Y17040083D01*
X135100977Y17040083D02*
X135100977Y27417935D01*
X129100977Y52771469D02*
X128700967Y53171479D01*
X135100977Y27417935D02*
X129100977Y33417935D01*
G04 #@! TO.N,ECAT0_RX_ER*
X94164932Y48664355D02*
X94164932Y48240091D01*
X90900977Y70840081D02*
X95500878Y66240180D01*
X95500878Y66240180D02*
X95500878Y52039984D01*
X95500878Y52039984D02*
X94164932Y50704038D01*
X94164932Y50704038D02*
X94164932Y48664355D01*
G04 #@! TO.N,ECAT0_TX_D2*
X93100977Y66640081D02*
X90900977Y68840081D01*
X93100977Y59074381D02*
X93100977Y66640081D01*
X92500977Y48240081D02*
X92500977Y58474381D01*
X92500977Y58474381D02*
X93100977Y59074381D01*
G04 #@! TO.N,ECAT0_TX_CLK*
X101100977Y67640083D02*
X98700966Y65240072D01*
X99101052Y47640008D02*
X99101052Y42864422D01*
X99101052Y42864422D02*
X99100977Y42864347D01*
X98700966Y48040094D02*
X99101052Y47640008D01*
X98700966Y65240072D02*
X98700966Y48040094D01*
X99100977Y42864347D02*
X99100977Y42440083D01*
D41*
G04 #@! TO.N,ENET_CAT_XI*
X92500979Y64440081D02*
X91900977Y65040083D01*
D40*
X92500977Y64440079D02*
X92500979Y64440081D01*
X92500977Y59040081D02*
X92500977Y64440079D01*
X92100977Y58640081D02*
X92500977Y59040081D01*
X90900977Y44640083D02*
X90900977Y45064347D01*
X92100977Y53640083D02*
X92100977Y58640081D01*
X90900977Y45064347D02*
X90700977Y45264347D01*
X90700977Y45264347D02*
X90700977Y52240083D01*
X90700977Y52240083D02*
X92100977Y53640083D01*
G04 #@! TO.N,ECAT_EEPROM_SDA*
X90900977Y40240083D02*
X90500977Y39840083D01*
X91700977Y62240060D02*
X91700977Y54040083D01*
X91300977Y62640060D02*
X91700977Y62240060D01*
X91700977Y54040083D02*
X89900977Y52240083D01*
X90900977Y43640081D02*
X90900977Y40240083D01*
X89900977Y44640081D02*
X90900977Y43640081D01*
X89900977Y52240083D02*
X89900977Y44640081D01*
G04 #@! TO.N,ECAT0_RX_D2*
X139500977Y47440083D02*
X139500977Y41440081D01*
X138500977Y48440083D02*
X139500977Y47440083D01*
X138900977Y57840083D02*
X138500977Y57440083D01*
X139500977Y41440081D02*
X139100977Y41040081D01*
X138500977Y57440083D02*
X138500977Y48440083D01*
G04 #@! TO.N,ECAT0_RX_D0*
X136700977Y57840083D02*
X136700977Y57040083D01*
X136700977Y57040083D02*
X136700977Y47240081D01*
G04 #@! TO.N,ECAT0_TX_D3*
X142500977Y55840083D02*
X142900977Y56240083D01*
X142500977Y45640081D02*
X142500977Y55840083D01*
G04 #@! TO.N,ECAT0_TX_D0*
X140100977Y56240083D02*
X140057664Y55781952D01*
X140057664Y55781952D02*
X140057664Y45711572D01*
X140057664Y45711572D02*
X140357663Y45411573D01*
G04 #@! TO.N,ECAT_RST*
X129500988Y36440072D02*
X130478492Y35462568D01*
X129700977Y55415819D02*
X129500988Y55215830D01*
X129700977Y55840083D02*
X129700977Y55415819D01*
X131276713Y35462568D02*
X131700977Y35462568D01*
X129500988Y55215830D02*
X129500988Y36440072D01*
X130478492Y35462568D02*
X131276713Y35462568D01*
G04 #@! TO.N,ECAT_EEPROM_SCL*
X82176711Y39364358D02*
X81876712Y39064359D01*
X81100977Y49240083D02*
X82176711Y48164349D01*
X83900977Y64240083D02*
X83900977Y62240083D01*
X81100977Y55240083D02*
X81100977Y49240083D01*
X83500980Y64640080D02*
X83900977Y64240083D01*
X83900977Y62240083D02*
X82300999Y60640105D01*
X82300999Y60640105D02*
X82300999Y56440105D01*
X82176711Y48164349D02*
X82176711Y39364358D01*
X82300978Y64640080D02*
X83500980Y64640080D01*
X82300999Y56440105D02*
X81100977Y55240083D01*
G04 #@! TO.N,ENDAT1_N_SKEW_CLK*
X88300977Y43440083D02*
X88300977Y35240083D01*
X87300977Y44440083D02*
X88300977Y43440083D01*
X89100977Y79240081D02*
X89100977Y64640083D01*
X88100977Y80240081D02*
X89100977Y79240081D01*
X87300977Y55440083D02*
X87300977Y44440083D01*
X87700975Y55840085D02*
X87700977Y55840083D01*
X87700977Y55840083D02*
X87300977Y55440083D01*
X89100977Y64640083D02*
X87700975Y63240081D01*
X87700975Y63240081D02*
X87700975Y55840085D01*
G04 #@! TO.N,ENDAT1_Y_SKEW_CLK*
X81700977Y42240115D02*
X78800976Y39340114D01*
X81900988Y56640094D02*
X80700977Y55440083D01*
X81900988Y61405772D02*
X81900988Y56640094D01*
X80700977Y55440083D02*
X80700977Y49005783D01*
X80900978Y72640082D02*
X81300977Y72240083D01*
X80700977Y49005783D02*
X81700977Y48005783D01*
X80900977Y71240083D02*
X80900977Y62405783D01*
X78800976Y39340114D02*
X78500977Y39040115D01*
X81300977Y72240083D02*
X81300977Y71640083D01*
X81300977Y71640083D02*
X80900977Y71240083D01*
X81700977Y48005783D02*
X81700977Y42240115D01*
X80700977Y72640082D02*
X80900978Y72640082D01*
X80900977Y62405783D02*
X81900988Y61405772D01*
X78500977Y39040115D02*
X75900977Y39040115D01*
G04 #@! TO.N,ECAT0_RX_D3*
X97700977Y80040083D02*
X98300955Y79440105D01*
X98300955Y79440105D02*
X98300955Y47440105D01*
X98300955Y47440105D02*
X98501042Y47240018D01*
X98501042Y46664347D02*
X98501042Y46240083D01*
X98501042Y47240018D02*
X98501042Y46664347D01*
G04 #@! TO.N,ECAT0_RX_D1*
X137900977Y47440083D02*
X138700977Y46640083D01*
X137900977Y57840083D02*
X137900977Y47440083D01*
X138700977Y46640083D02*
X138700977Y44640083D01*
D41*
G04 #@! TO.N,ECAT0_RX_DV*
X135900977Y55840083D02*
X135900977Y44640083D01*
D40*
X135700977Y57040083D02*
X135700977Y57840083D01*
X135900977Y44640083D02*
X135900977Y56840083D01*
X135900977Y56840083D02*
X135700977Y57040083D01*
G04 #@! TO.N,ECAT0_TX_D1*
X141900977Y56240083D02*
X141957663Y44696767D01*
X141957663Y44696767D02*
X141900977Y44640081D01*
G04 #@! TO.N,ECAT0_TX_EN*
X141700977Y40040081D02*
X141300977Y39640081D01*
X141700977Y41840081D02*
X141700977Y40040081D01*
X141100977Y42440081D02*
X141700977Y41840081D01*
X140900977Y53240083D02*
X140900977Y54240083D01*
X141100977Y53040083D02*
X140900977Y53240083D01*
X141100977Y53040083D02*
X141100977Y42440081D01*
D41*
G04 #@! TO.N,ENDAT2_N_SKEW_CLK*
X79900979Y72640079D02*
X79900979Y72640083D01*
X80300977Y72240081D02*
X79900979Y72640079D01*
X80300977Y72240081D02*
X80300977Y71240083D01*
X80300977Y71240083D02*
X80500977Y71040083D01*
X80500977Y71040083D02*
X80500977Y70640083D01*
D40*
X81300977Y43440083D02*
X80703311Y42842417D01*
X81300977Y47840083D02*
X81300977Y43440083D01*
X80500977Y62240083D02*
X81500977Y61240083D01*
X80500977Y70640083D02*
X80500977Y62240083D01*
X81500977Y61240083D02*
X81500977Y56840083D01*
X81500977Y56840083D02*
X80300977Y55640083D01*
X80300977Y55640083D02*
X80300977Y48840083D01*
X80703311Y42842417D02*
X80703311Y42816271D01*
X80300977Y48840083D02*
X81300977Y47840083D01*
D41*
G04 #@! TO.N,ENDAT2_Y_SKEW_CLK*
X79100977Y71040081D02*
X79100977Y64083041D01*
X78500977Y63483041D02*
X78500977Y62597125D01*
X79100977Y64083041D02*
X78500977Y63483041D01*
X78700977Y62397125D02*
X78700977Y60640081D01*
X78500977Y62597125D02*
X78700977Y62397125D01*
X79891592Y71830696D02*
X79100977Y71040081D01*
D40*
X79788793Y43927899D02*
X79788793Y42640051D01*
X80500977Y44640083D02*
X79788793Y43927899D01*
X78500977Y60440081D02*
X78500977Y56040083D01*
X78500977Y56040083D02*
X79900977Y54640083D01*
X78700977Y60640081D02*
X78500977Y60440081D01*
X79900977Y54640083D02*
X79900977Y48440083D01*
X79900977Y48440083D02*
X80500977Y47840083D01*
X80500977Y47840083D02*
X80500977Y44640083D01*
D41*
G04 #@! TO.N,QEP1_A*
X81700977Y74240083D02*
X80700979Y74240083D01*
D40*
X79900977Y73440081D02*
X79900977Y73840083D01*
X79900977Y73840083D02*
X80300977Y74240083D01*
X80500977Y74240083D02*
X81700977Y74240083D01*
X80300977Y74240083D02*
X80500977Y74240083D01*
X80500977Y74240083D02*
X80700979Y74240083D01*
X83100977Y42772987D02*
X82988793Y42660803D01*
X83100977Y42928455D02*
X82988793Y42816271D01*
X83100977Y55840083D02*
X83100977Y42928455D01*
X85700977Y58440083D02*
X83100977Y55840083D01*
X81900977Y74240083D02*
X82900977Y73240083D01*
X82900977Y73240083D02*
X84500977Y73240083D01*
X84500977Y73240083D02*
X86700977Y71040083D01*
X81700977Y74240083D02*
X81900977Y74240083D01*
X86700977Y65240083D02*
X85700977Y64240083D01*
X85700977Y64240083D02*
X85700977Y58440083D01*
X86700977Y71040083D02*
X86700977Y65240083D01*
G04 #@! TO.N,QEP1_B*
X65900977Y78240081D02*
X66500977Y78840081D01*
X65900977Y47240083D02*
X65900977Y78240081D01*
X67300977Y45840083D02*
X65900977Y47240083D01*
X67100977Y42040081D02*
X67300977Y42240081D01*
X67300977Y42240081D02*
X67300977Y45840083D01*
D41*
G04 #@! TO.N,FLASH_SPI_MOSI*
X86700977Y57840083D02*
X86700977Y63440083D01*
D40*
X88500977Y77240083D02*
X86900979Y78840081D01*
X86900979Y84840079D02*
X86300977Y85440081D01*
X86900979Y78840081D02*
X86900979Y84840079D01*
X86700977Y63440083D02*
X88500977Y65240083D01*
X88500977Y65240083D02*
X88500977Y77240083D01*
X85300977Y44440081D02*
X85300977Y56440083D01*
X85300977Y56440083D02*
X86700977Y57840083D01*
X84500977Y39240081D02*
X84500977Y43640081D01*
X84500977Y43640081D02*
X85300977Y44440081D01*
G04 #@! TO.N,FLASH_SPI_MISO*
X61400978Y35740082D02*
X61700977Y35440083D01*
X59501010Y74337150D02*
X59501010Y37640050D01*
X59500999Y74337161D02*
X59501010Y74337150D01*
X60729487Y81040081D02*
X60729487Y76668591D01*
X60729487Y76668591D02*
X59500999Y75440103D01*
X59500999Y75440103D02*
X59500999Y74337161D01*
X59501010Y37640050D02*
X61400978Y35740082D01*
G04 #@! TO.N,FLASH_SPI_CLK*
X67900977Y45840083D02*
X67900977Y38440083D01*
X66300977Y47440083D02*
X67900977Y45840083D01*
X66900977Y37440083D02*
X66900977Y35040083D01*
X67900977Y38440083D02*
X66900977Y37440083D01*
X70300977Y73640083D02*
X69500977Y72840083D01*
X77500977Y72640084D02*
X77500977Y73240083D01*
X77100977Y73640083D02*
X70300977Y73640083D01*
X77500977Y73240083D02*
X77100977Y73640083D01*
X69500977Y72840083D02*
X66900977Y72840083D01*
X66300977Y72240083D02*
X66300977Y47440083D01*
X66900977Y72840083D02*
X66300977Y72240083D01*
G04 #@! TO.N,FLASH_SPI_CS*
X62900977Y35640083D02*
X63100977Y35440083D01*
X62900977Y38840081D02*
X62900977Y35640083D01*
X63300977Y39240081D02*
X62900977Y38840081D01*
X63300977Y42840083D02*
X63300977Y39240081D01*
X64300977Y43840083D02*
X63300977Y42840083D01*
X64300977Y69040083D02*
X64300977Y43840083D01*
X65100977Y83640081D02*
X63900977Y82440083D01*
X66500977Y83640081D02*
X65100977Y83640081D01*
X63900977Y72440081D02*
X62900977Y71440081D01*
X63900977Y82440083D02*
X63900977Y72440081D01*
X62900977Y71440081D02*
X62900977Y70440083D01*
X62900977Y70440083D02*
X64300977Y69040083D01*
D41*
G04 #@! TO.N,QEP1_S*
X76700977Y70502478D02*
X76700977Y71840081D01*
X78700977Y68502478D02*
X76700977Y70502478D01*
X78700977Y64440083D02*
X78700977Y68502478D01*
X77900977Y63640083D02*
X78700977Y64440083D01*
X77900977Y60640081D02*
X77900977Y63640083D01*
D40*
X77700977Y47240081D02*
X77300977Y46840081D01*
X77700977Y54440083D02*
X77700977Y47240081D01*
X77900977Y60640081D02*
X77900977Y54640083D01*
X77900977Y54640083D02*
X77700977Y54440083D01*
G04 #@! TO.N,QEP2_I*
X64900977Y42464345D02*
X64900977Y42040081D01*
X65100977Y42664345D02*
X64900977Y42464345D01*
X65100977Y81840083D02*
X65100977Y42664345D01*
X66500977Y82040081D02*
X65300975Y82040081D01*
X65300975Y82040081D02*
X65100977Y81840083D01*
G04 #@! TO.N,QEP2_B*
X65300977Y82840081D02*
X66500977Y82840081D01*
X64700979Y82240083D02*
X65300977Y82840081D01*
X64700977Y82240083D02*
X64700979Y82240083D01*
X63900977Y37640081D02*
X63900977Y42840083D01*
X64700977Y43640083D02*
X64700977Y82240083D01*
X63900977Y42840083D02*
X64700977Y43640083D01*
D41*
G04 #@! TO.N,QEP2_A*
X75500977Y72240081D02*
X75900979Y72640081D01*
X75500977Y71240083D02*
X75500977Y72240081D01*
X74700977Y71040083D02*
X75300977Y71040083D01*
X73900977Y64640083D02*
X73900977Y70240083D01*
X75300977Y71040083D02*
X75500977Y71240083D01*
X75500977Y62640081D02*
X75100976Y63040083D01*
X73900977Y70240083D02*
X74700977Y71040083D01*
X75100976Y63040083D02*
X75100976Y63440084D01*
X75100976Y63440084D02*
X73900977Y64640083D01*
X75500977Y61040083D02*
X75900977Y60640083D01*
X75500977Y61040083D02*
X75500977Y62640081D01*
X75900977Y60640083D02*
X75900977Y60240083D01*
D40*
X75900977Y50040083D02*
X75900977Y46840083D01*
X75300977Y50640083D02*
X75900977Y50040083D01*
X75300977Y58440083D02*
X75300977Y50640083D01*
X75900977Y60240083D02*
X75900977Y59040083D01*
X75900977Y59040083D02*
X75300977Y58440083D01*
D41*
G04 #@! TO.N,QEP1_I*
X77100977Y63440083D02*
X78300977Y64640083D01*
X77500977Y69040083D02*
X76500977Y69040083D01*
X78300977Y64640083D02*
X78300977Y68240083D01*
X78300977Y68240083D02*
X77500977Y69040083D01*
X75700977Y69840083D02*
X75700977Y70640082D01*
X75700977Y70640082D02*
X75900978Y70840083D01*
X76500977Y69040083D02*
X75700977Y69840083D01*
X75900978Y70840083D02*
X75900978Y71840082D01*
X77100977Y60040083D02*
X77100977Y63440083D01*
D40*
X76925249Y45615811D02*
X76925249Y42215809D01*
X76500977Y46040083D02*
X76925249Y45615811D01*
X76500977Y49040083D02*
X76500977Y46040083D01*
X77100977Y60040083D02*
X77100977Y49640083D01*
X77100977Y49640083D02*
X76500977Y49040083D01*
G04 #@! TO.N,QEP2_S*
X65900975Y81240081D02*
X66500977Y81240081D01*
X65500977Y80840083D02*
X65900975Y81240081D01*
X66000977Y42040081D02*
X66000977Y46540083D01*
X65500977Y47040083D02*
X65500977Y80840083D01*
X66000977Y46540083D02*
X65500977Y47040083D01*
G04 #@! TO.N,ENET_MDIO*
X100900977Y85640081D02*
X101100977Y85840081D01*
X100900977Y73240083D02*
X100900977Y85640081D01*
X102100977Y72040083D02*
X100900977Y73240083D01*
X101300977Y46240083D02*
X101300977Y65440083D01*
X102100977Y66240083D02*
X102100977Y72040083D01*
X101300977Y65440083D02*
X102100977Y66240083D01*
G04 #@! TO.N,ENET_PWDN*
X96300977Y51040083D02*
X96700911Y51440017D01*
X96700911Y51440017D02*
X96700911Y71840147D01*
X95700977Y38040083D02*
X95700977Y45040083D01*
X96700977Y37040083D02*
X95700977Y38040083D01*
X96700911Y71840147D02*
X94300977Y74240081D01*
X95700977Y45040083D02*
X96300977Y45640083D01*
X96300977Y45640083D02*
X96300977Y51040083D01*
G04 #@! TO.N,ENDAT2_MISO*
X91700977Y51040083D02*
X91500977Y51240083D01*
X91700977Y37040083D02*
X91700977Y51040083D01*
X92668915Y35240083D02*
X92668915Y36072145D01*
X92668915Y36072145D02*
X91700977Y37040083D01*
G04 #@! TO.N,ENET_COL*
X98700977Y79440083D02*
X99300977Y80040083D01*
X98700977Y73840083D02*
X98700977Y79440083D01*
X99900977Y44240083D02*
X100700977Y45040083D01*
X99900977Y42440083D02*
X99900977Y44240083D01*
X100700977Y65840083D02*
X101700977Y66840083D01*
X99300977Y80040083D02*
X99300977Y88240083D01*
X100700977Y45040083D02*
X100700977Y65840083D01*
X101700977Y66840083D02*
X101700977Y70840083D01*
X101700977Y70840083D02*
X98700977Y73840083D01*
G04 #@! TO.N,ENET_RX_DV*
X92900977Y74440083D02*
X92900977Y72840083D01*
X92900977Y72840083D02*
X95900889Y69840171D01*
X95900889Y69840171D02*
X95900889Y51839995D01*
X94900977Y50840083D02*
X94900977Y44864345D01*
X95900889Y51839995D02*
X94900977Y50840083D01*
X94900977Y44864345D02*
X94900977Y44440081D01*
G04 #@! TO.N,ENET_RX_CLK*
X97100922Y72440148D02*
X97100922Y51240028D01*
X97100922Y51240028D02*
X96700977Y50840083D01*
X96700977Y44864377D02*
X96700977Y44440113D01*
X94100977Y75440093D02*
X97100922Y72440148D01*
X96700977Y50840083D02*
X96700977Y44864377D01*
G04 #@! TO.N,ENET_CRS*
X90100967Y43415809D02*
X89300977Y44215799D01*
X91300977Y61440083D02*
X89894187Y62846873D01*
X89300977Y52440083D02*
X91300977Y54440083D01*
X89300977Y44215799D02*
X89300977Y52440083D01*
X91300977Y54440083D02*
X91300977Y61440083D01*
X89894187Y62846873D02*
X89894187Y64640083D01*
X89894187Y64640083D02*
X89894187Y86076938D01*
G04 #@! TO.N,ENET_RX_D0*
X98312600Y42403163D02*
X98312600Y44228460D01*
X97900944Y78240116D02*
X96400976Y79740084D01*
X97900944Y44640116D02*
X97900944Y78240116D01*
X96400976Y79740084D02*
X96100977Y80040083D01*
X98312600Y44228460D02*
X97900944Y44640116D01*
G04 #@! TO.N,ENET_RX_ER*
X97500933Y73040127D02*
X97500933Y51040039D01*
X97500933Y51040039D02*
X97300977Y50840083D01*
X97500977Y42864347D02*
X97500977Y42440083D01*
X93900977Y76640083D02*
X97500933Y73040127D01*
X97300977Y50840083D02*
X97300977Y43064347D01*
X97300977Y43064347D02*
X97500977Y42864347D01*
G04 #@! TO.N,RS485_TX*
X102700977Y31840083D02*
X102700977Y49240083D01*
G04 #@! TO.N,RS485_RX*
X74500977Y37264345D02*
X73500977Y38264345D01*
X74500977Y36840081D02*
X74500977Y37264345D01*
X73500977Y48240081D02*
X73500977Y41440081D01*
X73500977Y38264345D02*
X73500977Y41440081D01*
X73500977Y41440081D02*
X73500977Y41640081D01*
G04 #@! TO.N,ENET_TX_D1*
X70500981Y67240083D02*
X69100977Y67240083D01*
X69100977Y45840083D02*
X69100977Y37840102D01*
X71100979Y67840081D02*
X70500981Y67240083D01*
X69100977Y37840102D02*
X69500977Y37440102D01*
X67100977Y47840083D02*
X69100977Y45840083D01*
X69100977Y67240083D02*
X67100977Y65240083D01*
X67100977Y65240083D02*
X67100977Y47840083D01*
G04 #@! TO.N,ECAT1_TX_EN*
X69700979Y66240081D02*
X69700977Y66240083D01*
X71100977Y66240081D02*
X69700979Y66240081D01*
X69700975Y66240081D02*
X69700979Y66240081D01*
X69100977Y65640083D02*
X69700975Y66240081D01*
X69100977Y58640083D02*
X69100977Y65640083D01*
X68500977Y58040083D02*
X69100977Y58640083D01*
X68757663Y55127637D02*
X68500977Y55384323D01*
X68500977Y55384323D02*
X68500977Y58040083D01*
G04 #@! TO.N,CAN_RX*
X103900977Y54840081D02*
X102900977Y55840081D01*
X103900977Y32640083D02*
X103900977Y54840081D01*
D41*
G04 #@! TO.N,ENET_TX_EN*
X74700977Y61840081D02*
X73500977Y63040081D01*
X73500977Y63040081D02*
X73500977Y63840081D01*
X72700977Y64640081D02*
X71100979Y64640081D01*
X73500977Y63840081D02*
X72700977Y64640081D01*
X74700977Y58840083D02*
X74700977Y61840081D01*
D40*
X75300977Y45240083D02*
X75300977Y49840083D01*
X76300977Y44240081D02*
X75300977Y45240083D01*
X74700977Y50440083D02*
X74700977Y58840083D01*
X75300977Y49840083D02*
X74700977Y50440083D01*
X75500977Y42240081D02*
X76300977Y43040081D01*
X76300977Y43040081D02*
X76300977Y44240081D01*
D41*
G04 #@! TO.N,ENET_RST*
X71500977Y61840081D02*
X71100979Y62240079D01*
X71100979Y62240079D02*
X71100979Y62240081D01*
X71500977Y59840083D02*
X71500977Y61840081D01*
D40*
X72300977Y59040083D02*
X71500977Y59840083D01*
X72300977Y45640081D02*
X72300977Y59040083D01*
G04 #@! TO.N,ENET_TX_D2*
X68500977Y37640081D02*
X68300977Y37440081D01*
X68500977Y45840083D02*
X68500977Y37640081D01*
X66700977Y47640083D02*
X68500977Y45840083D01*
X66700977Y65640083D02*
X66700977Y47640083D01*
X70300978Y67840081D02*
X68900975Y67840081D01*
X68900975Y67840081D02*
X66700977Y65640083D01*
G04 #@! TO.N,ECAT1_TX_CLK*
X70900980Y66840083D02*
X71100978Y67040081D01*
X68300977Y50840081D02*
X67900977Y51240081D01*
X69500977Y66840083D02*
X70900980Y66840083D01*
X67900977Y58040083D02*
X68700977Y58840083D01*
X67900977Y51240081D02*
X67900977Y58040083D01*
X68700977Y58840083D02*
X68700977Y66040083D01*
X68700977Y66040083D02*
X69500977Y66840083D01*
G04 #@! TO.N,CAN_TX*
X69900974Y65440080D02*
X70300979Y65440080D01*
X69500977Y65040083D02*
X69900974Y65440080D01*
X69900977Y51040083D02*
X69300977Y51640083D01*
X69500977Y59840083D02*
X69500977Y65040083D01*
X71100977Y54640083D02*
X71100977Y58240083D01*
X71100977Y58240083D02*
X69500977Y59840083D01*
X70100977Y51040083D02*
X69900977Y51040083D01*
X69300977Y51640083D02*
X69300977Y52840083D01*
X69300977Y52840083D02*
X71100977Y54640083D01*
X106100977Y32440083D02*
X106100977Y51240083D01*
D41*
G04 #@! TO.N,ENET_RX_D3*
X73500977Y62240081D02*
X72500979Y62240081D01*
X71900977Y62840083D02*
X71900977Y63840081D01*
X73900977Y61840081D02*
X73500977Y62240081D01*
X70700977Y64240081D02*
X70300977Y64640081D01*
X70300977Y64640081D02*
X70300977Y64640083D01*
X72500979Y62240081D02*
X71900977Y62840083D01*
X71900977Y63840081D02*
X71500977Y64240081D01*
X71500977Y64240081D02*
X70700977Y64240081D01*
X73900977Y59840083D02*
X73900977Y61840081D01*
D40*
X74700977Y49840083D02*
X74700977Y44840083D01*
X73900979Y50640081D02*
X74700977Y49840083D01*
X75500977Y44040083D02*
X75500977Y43640091D01*
X74700977Y44840083D02*
X75500977Y44040083D01*
X73900977Y59840083D02*
X73900977Y50640081D01*
X73900977Y50640081D02*
X73900979Y50640081D01*
D41*
G04 #@! TO.N,ENET_TX_CLK*
X70300978Y62240082D02*
X70300978Y62240081D01*
X73100977Y61040081D02*
X71500977Y62640081D01*
X71500977Y62640081D02*
X70700977Y62640081D01*
X70700977Y62640081D02*
X70300978Y62240082D01*
D40*
X73100977Y50640081D02*
X73100977Y59440081D01*
X74100977Y42343398D02*
X74294212Y42150163D01*
X73100977Y50640081D02*
X74100977Y49640081D01*
X74100977Y49640081D02*
X74100977Y42343398D01*
D41*
X73100977Y61040081D02*
X73100977Y59440081D01*
D40*
G04 #@! TO.N,ENET_TX_D3*
X61100975Y67640081D02*
X61476703Y67640081D01*
X61476703Y67640081D02*
X61900967Y67640081D01*
X59901021Y40840037D02*
X59901021Y66440127D01*
X61900977Y38840081D02*
X59901021Y40840037D01*
X59901021Y66440127D02*
X61100975Y67640081D01*
G04 #@! TO.N,ECAT1_TX_D0*
X60701043Y65040149D02*
X60701043Y51840017D01*
X61800978Y50740082D02*
X62100977Y50440083D01*
X61900967Y65640081D02*
X61300975Y65640081D01*
X61300975Y65640081D02*
X60701043Y65040149D01*
X60701043Y51840017D02*
X61800978Y50740082D01*
G04 #@! TO.N,ENET_RX_D1*
X61101054Y55005706D02*
X62700977Y53405783D01*
X62700977Y53405783D02*
X62700977Y48040083D01*
X61900965Y63840073D02*
X61101054Y63040162D01*
X61101054Y63040162D02*
X61101054Y55005706D01*
X62200976Y47540082D02*
X61900977Y47240083D01*
X62700977Y48040083D02*
X62200976Y47540082D01*
G04 #@! TO.N,ENET_RX_D2*
X61476713Y46400000D02*
X60301032Y47575681D01*
X60301032Y65840138D02*
X61100975Y66640081D01*
X61900977Y46400000D02*
X61476713Y46400000D01*
X61476703Y66640081D02*
X61900967Y66640081D01*
X61100975Y66640081D02*
X61476703Y66640081D01*
X60301032Y47575681D02*
X60301032Y65840138D01*
G04 #@! TO.N,LEM_B_U*
X68100977Y105440081D02*
X68700977Y106040081D01*
X68357663Y94756147D02*
X68100977Y95012833D01*
X68100977Y95012833D02*
X68100977Y105440081D01*
D41*
G04 #@! TO.N,LEM_A_ALL*
X66400000Y94936403D02*
X66685143Y94651260D01*
D40*
X66400000Y104941060D02*
X66100977Y105240083D01*
X66400000Y103840083D02*
X66400000Y104941060D01*
D41*
X66400000Y103840083D02*
X66400000Y94936403D01*
D40*
X66400000Y94752237D02*
X66500977Y94651260D01*
X66400000Y103840083D02*
X66400000Y94752237D01*
G04 #@! TO.N,LCD_AUDIO*
X100500977Y77040081D02*
X99700977Y76240081D01*
X100300977Y90440081D02*
X100500977Y90240081D01*
X100500977Y90240081D02*
X100500977Y77040081D01*
D37*
G04 #@! TO.N,5VH*
X111995000Y65346060D02*
X111995000Y68790000D01*
X113200977Y31540083D02*
X111995000Y32746060D01*
X111995000Y32746060D02*
X111995000Y65346060D01*
D42*
G04 #@! TO.N,Net-(C823-Pad2)*
X39400977Y61740083D02*
X37800977Y61740083D01*
X44700977Y89040083D02*
X43400977Y87740083D01*
X45900977Y89040083D02*
X44700977Y89040083D01*
X41000977Y87340083D02*
X41000977Y63340083D01*
X43400977Y87740083D02*
X41400977Y87740083D01*
X41400977Y87740083D02*
X41000977Y87340083D01*
X41000977Y63340083D02*
X39400977Y61740083D01*
G04 #@! TO.N,Net-(C824-Pad2)*
X40200977Y88940083D02*
X41500977Y90240083D01*
X40200977Y64140083D02*
X40200977Y88940083D01*
X38400977Y63140083D02*
X39200977Y63140083D01*
X41500977Y90240083D02*
X45900977Y90240083D01*
X39200977Y63140083D02*
X40200977Y64140083D01*
D38*
G04 #@! TO.N,Net-(C1607-Pad2)*
X132300977Y94440081D02*
X132300977Y93240081D01*
X143100977Y105240081D02*
X132300977Y94440081D01*
X143100977Y120440081D02*
X143100977Y105240081D01*
X132900977Y121840081D02*
X141700977Y121840081D01*
X141700977Y121840081D02*
X143100977Y120440081D01*
D40*
G04 #@! TO.N,USB_D-*
X126119200Y9526570D02*
X126119200Y8395200D01*
X126119200Y10221860D02*
X126119200Y9526570D01*
X118274027Y18067033D02*
X126119200Y10221860D01*
X117700977Y51840083D02*
X118274027Y51267033D01*
X118274027Y51267033D02*
X118274027Y18067033D01*
G04 #@! TO.N,USB_D+*
X118974037Y51815798D02*
X118974037Y52240062D01*
X118700977Y18205783D02*
X118700977Y51542738D01*
X118700977Y51542738D02*
X118974037Y51815798D01*
X128129200Y8395200D02*
X126519211Y10005189D01*
X126519211Y10387549D02*
X118700977Y18205783D01*
X126519211Y10005189D02*
X126519211Y10387549D01*
G04 #@! TO.N,FAN_RPM1*
X57911579Y52416111D02*
X57924949Y52416111D01*
X57900977Y54476807D02*
X57900977Y52426713D01*
X57900977Y52426713D02*
X57911579Y52416111D01*
X57100967Y82599586D02*
X57300977Y82399576D01*
X58300988Y54876818D02*
X57900977Y54476807D01*
X57924949Y52416111D02*
X58500977Y51840083D01*
X57300977Y82399576D02*
X57300977Y74840083D01*
X57100967Y83023850D02*
X57100967Y82599586D01*
X58300988Y73840072D02*
X58300988Y54876818D01*
X57300977Y74840083D02*
X58300988Y73840072D01*
G04 #@! TO.N,IGBT_ALARM1*
X58200989Y75540071D02*
X58200989Y83140082D01*
X58200989Y83140082D02*
X58500988Y83440081D01*
X59100999Y74640061D02*
X58200989Y75540071D01*
X59100999Y54440083D02*
X59100999Y74640061D01*
X58900977Y54264347D02*
X58900977Y53840083D01*
X59076713Y54440083D02*
X58900977Y54264347D01*
X59100999Y54440083D02*
X59076713Y54440083D01*
G04 #@! TO.N,IGBT_ALARM2*
X58300977Y54311107D02*
X58300977Y53451247D01*
X57700988Y89215806D02*
X57700988Y75005772D01*
X58700999Y54711129D02*
X58300977Y54311107D01*
X57500977Y89415817D02*
X57700988Y89215806D01*
X57500977Y89840081D02*
X57500977Y89415817D01*
X57700988Y75005772D02*
X58700999Y74005761D01*
X58700999Y74005761D02*
X58700999Y54711129D01*
X58300977Y53240083D02*
X58700977Y52840083D01*
X58300977Y53451247D02*
X58300977Y53240083D01*
G04 #@! TO.N,DIR2*
X86672467Y41668591D02*
X86700977Y41640081D01*
X86700977Y56240083D02*
X86672467Y41668591D01*
G04 #@! TO.N,STEP2*
X85900977Y42040081D02*
X85500977Y41640081D01*
X85957663Y55556147D02*
X85900977Y55499461D01*
X85900977Y55499461D02*
X85900977Y42040081D01*
G04 #@! TO.N,DIR1*
X84700977Y46040083D02*
X83900977Y45240083D01*
X84583673Y55520114D02*
X84700977Y55402810D01*
X84700977Y55402810D02*
X84700977Y46040083D01*
G04 #@! TO.N,DACB_DBG*
X69300977Y106840081D02*
X68100977Y106840081D01*
X70500977Y105640081D02*
X69300977Y106840081D01*
X70412879Y92640081D02*
X70500977Y92728179D01*
X70500977Y92728179D02*
X70500977Y105640081D01*
G04 #@! TO.N,ENET_MDCLK*
X95500977Y46240083D02*
X95500977Y50840083D01*
X96300900Y51640006D02*
X96300900Y71040158D01*
X95500977Y50840083D02*
X96300900Y51640006D01*
X96300900Y71040158D02*
X93900977Y73440081D01*
G04 #@! TO.N,ECAT_MDCLK*
X99900999Y47640061D02*
X99900999Y46640083D01*
X99100977Y48440083D02*
X99900999Y47640061D01*
X99900999Y46640083D02*
X99900999Y46240083D01*
X99500977Y61840083D02*
X99100977Y61440083D01*
X99100977Y61440083D02*
X99100977Y48440083D01*
D38*
G04 #@! TO.N,VBUS1_N_H*
X133985000Y126124104D02*
X133985000Y128905000D01*
X132700977Y124840081D02*
X133985000Y126124104D01*
X132100977Y124840081D02*
X132700977Y124840081D01*
X131100977Y123840081D02*
X132100977Y124840081D01*
X131100977Y121040081D02*
X131100977Y123840081D01*
X131700977Y120440081D02*
X131100977Y121040081D01*
X130400977Y88484042D02*
X130400977Y94340083D01*
X131400977Y87484042D02*
X130400977Y88484042D01*
X141900977Y119240081D02*
X140700977Y120440081D01*
X130400977Y94340083D02*
X141900977Y105840083D01*
X141900977Y105840083D02*
X141900977Y119240081D01*
X140700977Y120440081D02*
X131700977Y120440081D01*
D40*
G04 #@! TO.N,NTC2_2_N*
X57500979Y97240081D02*
X59100977Y97240081D01*
X57300977Y107240083D02*
X57300977Y97440083D01*
X57300977Y97440083D02*
X57500979Y97240081D01*
G04 #@! TO.N,VBUS1_N*
X61600968Y68940080D02*
X61900967Y68640081D01*
X62300979Y88240081D02*
X62700977Y87840083D01*
X60700967Y88240081D02*
X62300979Y88240081D01*
X62700977Y87840083D02*
X62700977Y74440081D01*
X62700977Y74440081D02*
X61300977Y73040081D01*
X61300977Y73040081D02*
X61300977Y69240071D01*
X61300977Y69240071D02*
X61600968Y68940080D01*
G04 #@! TO.N,SD1_A*
X62300967Y59040083D02*
X63100977Y59040083D01*
X63300977Y46240083D02*
X63300977Y53371483D01*
X61900977Y44840083D02*
X63300977Y46240083D01*
X61501065Y55171395D02*
X61501065Y58664445D01*
X63300977Y53371483D02*
X61501065Y55171395D01*
X61501065Y58664445D02*
X61876703Y59040083D01*
X61876703Y59040083D02*
X62300967Y59040083D01*
G04 #@! TO.N,FREE_OUT1_2*
X63500977Y89040083D02*
X61900977Y90640083D01*
X63500977Y72840081D02*
X63500977Y89040083D01*
X61900977Y90640083D02*
X59300977Y90640083D01*
X62500977Y70240083D02*
X62500977Y71840081D01*
X63900977Y57840083D02*
X63900977Y68840083D01*
X62500977Y71840081D02*
X63500977Y72840081D01*
X63900977Y68840083D02*
X62500977Y70240083D01*
X63300977Y57240083D02*
X62900977Y56840083D01*
X63100965Y57040071D02*
X63300977Y57240083D01*
X63300977Y57240083D02*
X63900977Y57840083D01*
X62900977Y56840083D02*
X62300977Y56840083D01*
G04 #@! TO.N,FREE_OUT2_1*
X85300977Y84040083D02*
X85300977Y87440081D01*
X86500977Y82840083D02*
X85300977Y84040083D01*
X83900977Y55840083D02*
X86100977Y58040083D01*
X86100977Y58040083D02*
X86100977Y63840083D01*
X86500977Y76440083D02*
X86500977Y82840083D01*
X83900977Y50640083D02*
X83900977Y55840083D01*
X85300977Y87440081D02*
X86500977Y88640081D01*
X86100977Y63840083D02*
X87300977Y65040083D01*
X87300977Y65040083D02*
X87300977Y75640083D01*
X87300977Y75640083D02*
X86500977Y76440083D01*
G04 #@! TO.N,FREE_OUT2_2*
X62100977Y69840083D02*
X63500977Y68440083D01*
X62100977Y72240083D02*
X62100977Y69840083D01*
X63100977Y73240083D02*
X62100977Y72240083D01*
X63100977Y88640083D02*
X63100977Y73240083D01*
X55900977Y89900977D02*
X56640083Y90640083D01*
X56640083Y90640083D02*
X57900977Y90640083D01*
X58700977Y89840083D02*
X61900977Y89840083D01*
X55900977Y88240081D02*
X55900977Y89900977D01*
X57900977Y90640083D02*
X58700977Y89840083D01*
X61900977Y89840083D02*
X63100977Y88640083D01*
X63100967Y60840083D02*
X62300967Y60040083D01*
X63100977Y60840083D02*
X63500977Y61240083D01*
X63100967Y60840083D02*
X63100977Y60840083D01*
X63500977Y68440083D02*
X63500977Y61240083D01*
G04 #@! TO.N,SD_CLK_IN1*
X24300977Y37840081D02*
X21700977Y40440081D01*
X54300975Y37840081D02*
X24300977Y37840081D01*
X55500977Y39040083D02*
X54300975Y37840081D01*
X57900977Y72040083D02*
X57900977Y57440083D01*
X57900977Y57440083D02*
X56300977Y55840083D01*
X56300977Y49240083D02*
X55500977Y48440083D01*
X57100977Y72840083D02*
X57900977Y72040083D01*
X56300977Y55840083D02*
X56300977Y49240083D01*
X55500977Y48440083D02*
X55500977Y39040083D01*
D43*
G04 #@! TO.N,SD_CLK_OUT*
X21066662Y41440083D02*
X20500977Y40840083D01*
X22300975Y41440083D02*
X21066662Y41440083D01*
X24400967Y39340091D02*
X22300975Y41440083D01*
X31446672Y39340091D02*
X24400967Y39340091D01*
X32720977Y40614396D02*
X31446672Y39340091D01*
X32720977Y40640083D02*
X32720977Y40614396D01*
D40*
G04 #@! TO.N,IGBT1_VL*
X62300977Y83871785D02*
X62300977Y75240083D01*
X60525284Y73640081D02*
X60101020Y73640081D01*
X60729487Y85443275D02*
X62300977Y83871785D01*
X60700975Y73640081D02*
X60525284Y73640081D01*
X62300977Y75240083D02*
X60700975Y73640081D01*
G04 #@! TO.N,1WIRE_IN*
X88852942Y57563994D02*
X88852942Y62745451D01*
X88700977Y45640081D02*
X88700977Y52640083D01*
X88100977Y45040081D02*
X88700977Y45640081D01*
X88700977Y52640083D02*
X89300977Y53240083D01*
X89300977Y53240083D02*
X89300977Y55040083D01*
X89300977Y55040083D02*
X88329031Y56012029D01*
X88329031Y57040083D02*
X88852942Y57563994D01*
X88329031Y56012029D02*
X88329031Y57040083D01*
G04 #@! TO.N,IGBT1_VH*
X60700967Y86840081D02*
X59900977Y86040091D01*
X59900977Y84840081D02*
X61900977Y82840081D01*
X60401008Y74940080D02*
X60101009Y74640081D01*
X61900977Y76440049D02*
X60401008Y74940080D01*
X61900977Y82840081D02*
X61900977Y76440049D01*
X59900977Y86040091D02*
X59900977Y84840081D01*
D38*
G04 #@! TO.N,/uc_adc/ADC_REFH*
X73090978Y75650080D02*
X73100977Y75640081D01*
X69500977Y75640081D02*
X69510976Y75650080D01*
X69510976Y75650080D02*
X73090978Y75650080D01*
G04 #@! TO.N,1V2uC*
X84300977Y74805768D02*
X81900979Y77205766D01*
X84300977Y74240083D02*
X84300977Y74805768D01*
X81900979Y82025851D02*
X80393862Y83532968D01*
X81900979Y77205766D02*
X81900979Y82025851D01*
X80393862Y83532968D02*
X79893863Y84032967D01*
G04 #@! TD*
M02*
