M48
;DRILL file {KiCad 5.0.2+dfsg1-1} date Tue 04 Feb 2020 12:28:28 PM -03
;FORMAT={-:-/ absolute / metric / decimal}
FMAT,2
METRIC,TZ
T1C0.200
T2C0.300
T3C0.400
T4C0.500
T5C0.700
T6C0.762
T7C0.800
T8C0.900
T9C1.000
T10C1.200
T11C1.300
T12C1.500
T13C1.570
T14C2.310
%
G90
G05
T1
X186.49Y-168.751
X186.49Y-169.751
X186.49Y-170.751
X187.49Y-168.751
X187.49Y-169.751
X187.49Y-170.751
X188.49Y-168.751
X188.49Y-169.751
X188.49Y-170.751
X212.285Y-168.751
X212.285Y-169.751
X212.285Y-170.751
X213.285Y-168.751
X213.285Y-169.751
X213.285Y-170.751
X214.285Y-168.751
X214.285Y-169.751
X214.285Y-170.751
X200.898Y-168.751
X200.898Y-169.751
X200.898Y-170.751
X201.898Y-168.751
X201.898Y-169.751
X201.898Y-170.751
X202.898Y-168.751
X202.898Y-169.751
X202.898Y-170.751
T2
X82.04Y-172.194
X86.101Y-172.66
X87.301Y-172.66
X88.501Y-172.66
X97.901Y-172.46
X99.101Y-172.46
X100.501Y-172.46
X101.701Y-172.46
X103.101Y-172.66
X120.501Y-123.26
X120.701Y-136.26
X120.711Y-133.68
X120.901Y-103.26
X120.901Y-119.26
X121.042Y-157.489
X121.201Y-147.26
X121.241Y-137.69
X121.301Y-121.06
X121.301Y-135.615
X121.301Y-154.06
X121.461Y-156.33
X121.501Y-160.86
X121.606Y-130.86
X121.672Y-155.26
X121.901Y-153.26
X122.101Y-122.06
X122.101Y-134.66
X122.129Y-124.476
X122.158Y-101.544
X122.269Y-149.254
X122.301Y-136.06
X122.487Y-162.646
X122.501Y-117.66
X122.701Y-152.46
X122.891Y-157.14
X123.009Y-170.441
X123.101Y-154.66
X123.4Y-108.7
X123.501Y-104.26
X123.531Y-158.66
X123.831Y-122.45
X123.901Y-153.46
X123.971Y-124.06
X124.101Y-118.46
X124.101Y-128.86
X124.101Y-129.86
X124.101Y-131.06
X124.2Y-109.5
X124.529Y-117.144
X124.6Y-107.9
X124.707Y-102.556
X125.101Y-120.66
X125.101Y-126.46
X125.301Y-133.06
X125.301Y-168.86
X125.701Y-119.26
X125.901Y-132.46
X126.072Y-125.06
X126.129Y-108.031
X126.129Y-122.057
X126.194Y-157.065
X126.472Y-107.29
X126.701Y-160.26
X126.701Y-161.1
X126.701Y-172.06
X126.901Y-168.26
X127.071Y-106.034
X127.301Y-162.46
X127.389Y-138.86
X127.389Y-139.66
X127.389Y-140.344
X127.389Y-141.544
X127.389Y-143.46
X127.389Y-147.66
X127.389Y-148.46
X127.389Y-149.26
X127.389Y-150.431
X128.101Y-107.26
X128.101Y-172.06
X128.301Y-136.66
X128.6Y-102.3
X129.701Y-170.86
X130.501Y-124.26
X130.986Y-129.491
X131.101Y-165.66
X131.301Y-124.685
X131.301Y-169.46
X131.327Y-170.372
X131.596Y-125.496
X131.596Y-126.241
X131.685Y-112.849
X131.758Y-103.144
X131.901Y-172.46
X132.101Y-105.66
X132.501Y-101.26
X132.701Y-115.66
X132.701Y-156.46
X132.901Y-139.26
X133.101Y-100.66
X133.301Y-136.46
X133.358Y-112.744
X133.701Y-101.46
X133.701Y-110.06
X133.71Y-133.269
X133.758Y-152.372
X133.758Y-170.344
X134.158Y-113.544
X134.464Y-170.353
X134.501Y-109.26
X134.501Y-136.46
X134.501Y-138.06
X134.901Y-132.06
X135.101Y-152.46
X135.101Y-155.26
X135.101Y-156.46
X135.301Y-142.86
X135.301Y-144.46
X135.301Y-139.66
X135.301Y-143.66
X135.301Y-145.26
X135.301Y-142.06
X135.301Y-146.06
X135.31Y-136.451
X135.329Y-117.144
X135.413Y-114.86
X136.101Y-138.06
X136.101Y-141.26
X136.101Y-143.66
X136.101Y-144.46
X136.101Y-146.86
X136.101Y-134.86
X136.101Y-137.26
X136.101Y-140.46
X136.101Y-139.66
X136.101Y-142.06
X136.101Y-142.86
X136.101Y-145.26
X136.101Y-146.06
X136.301Y-171.86
X136.501Y-155.86
X136.901Y-111.66
X136.901Y-113.26
X136.901Y-138.06
X136.901Y-146.06
X136.901Y-146.86
X136.901Y-135.66
X137.301Y-131.66
X137.301Y-161.46
X137.701Y-143.66
X137.701Y-138.86
X137.701Y-144.46
X137.701Y-135.66
X137.701Y-136.46
X137.701Y-138.06
X137.701Y-141.26
X137.701Y-142.06
X137.701Y-139.66
X137.701Y-146.86
X137.71Y-134.851
X138.101Y-132.86
X138.101Y-158.66
X138.48Y-126.881
X138.501Y-159.26
X138.501Y-146.86
X138.501Y-136.46
X138.501Y-146.06
X138.901Y-131.06
X138.901Y-132.86
X139.078Y-170.331
X139.101Y-164.46
X139.301Y-134.86
X139.301Y-135.66
X139.301Y-146.06
X139.301Y-146.86
X139.31Y-144.451
X139.701Y-130.584
X139.701Y-132.86
X139.901Y-163.86
X140.101Y-139.66
X140.101Y-142.06
X140.101Y-147.66
X140.101Y-140.46
X140.101Y-146.86
X140.101Y-146.06
X140.101Y-135.66
X140.101Y-141.26
X140.101Y-137.26
X140.301Y-127.26
X140.701Y-164.86
X140.901Y-125.86
X140.901Y-126.86
X140.901Y-146.06
X140.901Y-160.66
X140.901Y-135.66
X140.901Y-139.66
X140.901Y-141.26
X140.901Y-142.06
X140.901Y-134.86
X140.901Y-140.46
X140.901Y-144.46
X141.101Y-153.86
X141.101Y-154.86
X141.101Y-155.66
X141.301Y-165.86
X141.301Y-137.26
X141.701Y-141.26
X141.701Y-135.66
X141.701Y-142.06
X141.701Y-146.86
X141.701Y-134.86
X141.701Y-140.46
X141.701Y-146.06
X141.701Y-139.66
X142.301Y-158.06
X142.501Y-134.86
X142.501Y-139.66
X142.501Y-140.46
X142.501Y-141.26
X142.501Y-142.06
X142.501Y-146.06
X142.51Y-144.451
X142.701Y-124.46
X143.301Y-123.66
X143.301Y-146.06
X143.301Y-172.46
X143.301Y-134.86
X143.301Y-137.26
X143.501Y-168.46
X143.89Y-128.477
X143.909Y-129.241
X144.101Y-144.46
X144.101Y-164.06
X144.101Y-134.86
X144.101Y-146.06
X144.101Y-147.66
X144.301Y-162.26
X144.598Y-160.557
X144.824Y-147.737
X144.892Y-135.669
X144.901Y-144.46
X144.901Y-134.06
X144.901Y-137.26
X144.901Y-142.86
X144.901Y-138.06
X144.901Y-139.66
X144.901Y-145.26
X144.901Y-146.86
X144.901Y-134.86
X144.901Y-140.46
X144.901Y-141.26
X145.301Y-124.86
X145.301Y-125.66
X145.301Y-164.06
X145.301Y-171.66
X145.701Y-134.06
X145.701Y-134.86
X145.701Y-146.86
X145.701Y-135.66
X146.501Y-137.26
X146.501Y-140.46
X146.501Y-142.86
X146.501Y-136.46
X146.501Y-138.06
X146.501Y-139.66
X146.501Y-141.26
X146.501Y-142.06
X146.501Y-138.86
X146.701Y-122.26
X146.801Y-155.56
X146.901Y-168.46
X147.187Y-143.806
X147.301Y-141.26
X147.301Y-134.86
X147.301Y-135.66
X147.301Y-136.46
X147.301Y-138.06
X147.301Y-138.86
X147.301Y-139.66
X147.301Y-142.06
X147.301Y-137.26
X147.301Y-140.46
X147.301Y-142.86
X147.501Y-126.86
X147.701Y-166.46
X147.701Y-132.86
X148.101Y-143.66
X148.101Y-147.66
X148.101Y-148.46
X148.142Y-125.688
X148.501Y-156.86
X148.901Y-162.419
X149.301Y-118.66
X149.301Y-126.46
X149.301Y-137.66
X149.301Y-140.06
X149.301Y-149.66
X149.501Y-168.26
X149.584Y-151.98
X150.501Y-137.66
X150.54Y-167.363
X150.901Y-140.86
X150.958Y-151.944
X151.301Y-122.06
X151.672Y-151.544
X151.672Y-167.172
X152.101Y-127.46
X152.901Y-132.06
X153.101Y-152.86
X153.101Y-162.46
X153.301Y-171.86
X153.853Y-144.755
X154.894Y-121.423
X154.896Y-167.917
X154.901Y-172.46
X155.101Y-164.46
X155.522Y-138.278
X155.701Y-136.46
X155.701Y-137.26
X155.901Y-162.86
X156.301Y-145.06
X156.501Y-156.26
X156.806Y-127.494
X156.901Y-142.46
X157.501Y-163.06
X157.669Y-172.061
X157.701Y-127.66
X157.901Y-133.06
X158.101Y-166.46
X158.901Y-130.86
X159.101Y-159.66
X159.298Y-164.057
X159.301Y-132.031
X159.301Y-134.06
X159.701Y-133.26
X160.501Y-161.46
X161.101Y-127.46
X161.701Y-163.06
X161.701Y-170.46
X162.501Y-165.06
X162.701Y-127.46
X163.501Y-165.06
X163.701Y-161.86
X164.301Y-119.26
X164.301Y-165.06
X164.501Y-130.06
X164.501Y-135.66
X164.501Y-139.26
X164.901Y-133.26
X164.901Y-161.26
X165.272Y-131.26
X165.701Y-139.06
X165.701Y-165.06
X165.758Y-117.144
X165.901Y-145.86
X166.101Y-121.66
X166.101Y-139.86
X166.301Y-161.26
X168.101Y-151.66
X168.101Y-158.26
X171.101Y-156.26
X182.501Y-162.66
X182.701Y-155.66
X183.974Y-155.246
X190.701Y-167.46
X190.901Y-157.888
X192.02Y-157.888
X193.101Y-168.46
X193.901Y-153.866
X194.701Y-152.06
X195.101Y-163.86
X196.558Y-153.944
X196.704Y-162.857
X198.301Y-160.06
X198.501Y-168.46
X199.701Y-149.66
X199.796Y-166.713
X200.738Y-165.844
X200.901Y-162.86
X202.101Y-165.26
X202.262Y-160.967
X202.501Y-149.66
X203.301Y-149.26
X203.701Y-162.86
X203.735Y-166.352
X204.501Y-149.26
X204.558Y-151.144
X205.101Y-166.46
X205.358Y-162.088
X205.729Y-167.544
X205.901Y-153.26
X206.161Y-168.331
X206.481Y-170.879
X206.558Y-162.744
X206.558Y-172.344
X206.958Y-151.544
X207.358Y-162.344
X207.701Y-171.46
X207.701Y-172.46
X207.701Y-173.453
X207.901Y-181.46
X208.158Y-151.544
X209.659Y-173.19
X210.101Y-167.26
X210.501Y-157.46
X210.701Y-153.86
X211.11Y-160.967
X211.901Y-157.46
X213.101Y-157.46
X214.501Y-160.06
X215.201Y-153.96
X215.804Y-155.831
X215.901Y-161.26
X216.501Y-160.46
X217.101Y-161.06
X217.164Y-156.546
X218.101Y-170.66
T3
X75.Y-188.7
X76.2Y-181.5
X77.4Y-188.7
X84.5Y-187.9
X84.671Y-182.076
X86.099Y-184.001
X92.951Y-185.494
X96.082Y-185.185
X105.031Y-185.81
X107.113Y-181.338
X108.601Y-188.96
X109.441Y-100.23
X109.701Y-103.06
X109.907Y-182.215
X118.2Y-105.1
X121.Y-105.1
X132.901Y-147.86
X134.501Y-102.06
X134.701Y-149.46
X154.501Y-151.06
X158.701Y-151.06
X185.65Y-120.378
X197.8Y-127.1
T4
X72.4Y-182.1
X72.401Y-113.96
X72.595Y-153.405
X73.Y-171.1
X73.301Y-166.46
X74.001Y-117.36
X74.001Y-119.96
X74.001Y-122.56
X74.001Y-137.76
X74.501Y-100.66
X74.721Y-166.29
X74.901Y-181.46
X75.901Y-101.66
X76.531Y-166.02
X77.001Y-127.56
X77.001Y-130.157
X77.001Y-132.697
X77.001Y-135.237
X77.001Y-140.36
X77.401Y-147.96
X77.43Y-182.476
X78.311Y-166.21
X79.201Y-147.96
X79.701Y-166.66
X79.901Y-172.86
X80.748Y-196.324
X81.001Y-198.96
X81.201Y-114.917
X81.205Y-153.931
X81.301Y-101.46
X81.301Y-188.86
X81.601Y-117.36
X81.601Y-119.96
X81.601Y-122.56
X82.301Y-100.86
X82.501Y-166.26
X83.501Y-127.56
X83.501Y-130.12
X83.501Y-132.68
X83.501Y-135.24
X83.501Y-137.8
X83.501Y-140.36
X83.601Y-151.963
X83.701Y-100.46
X84.901Y-101.66
X85.501Y-166.06
X86.Y-181.1
X86.819Y-115.45
X87.845Y-151.956
X89.Y-181.1
X89.221Y-166.26
X89.401Y-123.56
X90.171Y-142.857
X90.475Y-194.06
X90.501Y-114.244
X90.521Y-166.26
X90.801Y-119.96
X90.901Y-172.66
X90.901Y-181.46
X91.201Y-127.56
X91.201Y-130.16
X91.201Y-132.56
X91.201Y-135.237
X91.201Y-140.36
X91.401Y-117.36
X91.401Y-122.56
X91.601Y-137.76
X92.278Y-181.385
X92.501Y-100.46
X93.101Y-166.46
X93.701Y-101.46
X93.901Y-155.66
X94.346Y-182.389
X94.734Y-184.439
X95.501Y-172.86
X95.601Y-155.76
X95.801Y-152.433
X96.001Y-145.36
X96.101Y-117.46
X96.301Y-166.66
X97.721Y-166.32
X98.301Y-127.594
X98.301Y-130.138
X98.301Y-132.682
X98.301Y-135.225
X98.301Y-137.769
X98.301Y-140.313
X98.401Y-145.422
X98.424Y-181.36
X98.528Y-189.059
X98.801Y-117.36
X98.801Y-122.56
X99.001Y-119.96
X99.401Y-113.66
X99.952Y-154.38
X100.271Y-166.29
X101.901Y-101.06
X102.801Y-145.76
X103.101Y-101.66
X103.401Y-144.36
X103.701Y-142.161
X103.801Y-126.86
X103.801Y-131.76
X103.801Y-136.96
X105.488Y-184.589
X106.034Y-155.758
X106.173Y-173.188
X106.301Y-165.66
X107.001Y-112.96
X107.001Y-126.56
X107.001Y-131.76
X107.001Y-136.96
X107.101Y-142.247
X107.301Y-139.633
X107.386Y-134.36
X107.401Y-120.829
X107.401Y-123.96
X107.401Y-129.16
X107.432Y-115.56
X107.501Y-118.66
X107.8Y-196.3
X107.801Y-199.96
X108.801Y-114.36
X108.901Y-164.46
X109.001Y-140.96
X109.333Y-183.56
X110.703Y-185.56
X110.901Y-117.26
X110.901Y-118.46
X113.301Y-105.06
X113.366Y-189.01
X113.901Y-196.26
X115.4Y-104.774
X115.489Y-200.11
X118.101Y-102.06
X118.101Y-144.181
X118.101Y-146.289
X118.101Y-148.347
X118.101Y-150.226
X118.922Y-139.343
X119.701Y-173.26
X120.542Y-138.682
X120.988Y-126.973
X121.201Y-125.56
X121.401Y-113.76
X123.001Y-199.56
X123.201Y-115.56
X124.701Y-106.66
X124.979Y-175.503
X125.101Y-177.26
X128.488Y-176.31
X129.8Y-101.9
X129.901Y-106.46
X130.501Y-176.06
X132.101Y-97.26
X134.6Y-106.3
X135.563Y-187.132
X136.101Y-101.036
X136.6Y-105.5
X136.901Y-106.831
X137.8Y-181.1
X138.101Y-172.06
X138.301Y-188.46
X138.901Y-106.46
X139.701Y-102.46
X141.301Y-106.46
X142.035Y-186.2
X143.101Y-181.46
X144.501Y-181.66
X144.901Y-108.46
X145.873Y-181.66
X145.901Y-188.46
X146.901Y-106.26
X147.062Y-184.55
X147.162Y-172.26
X147.401Y-113.96
X147.401Y-199.16
X147.431Y-196.523
X149.176Y-185.681
X149.301Y-114.06
X149.301Y-133.26
X149.301Y-147.66
X151.101Y-133.26
X151.301Y-172.317
X151.501Y-186.26
X151.801Y-104.36
X155.195Y-185.758
X155.221Y-95.689
X156.2Y-181.5
X157.101Y-135.66
X157.8Y-181.9
X158.701Y-138.06
X158.801Y-189.16
X159.996Y-185.808
X160.148Y-172.212
X161.301Y-120.26
X161.901Y-183.46
X162.301Y-107.26
X163.401Y-172.36
X167.301Y-134.06
X167.4Y-189.1
X168.201Y-175.76
X169.201Y-174.76
X169.301Y-120.06
X170.001Y-175.96
X170.901Y-144.818
X171.001Y-174.96
X171.701Y-188.86
X172.701Y-171.86
X174.006Y-172.939
X174.201Y-122.16
X175.084Y-95.638
X177.301Y-118.46
X177.4Y-121.5
X177.701Y-116.46
X183.914Y-126.686
X184.95Y-176.573
X187.901Y-176.26
X189.901Y-178.614
X190.701Y-172.26
X190.901Y-164.26
X191.101Y-204.66
X192.279Y-175.064
X193.016Y-201.023
X194.642Y-180.982
X195.301Y-172.86
X195.901Y-169.06
X196.064Y-98.28
X196.101Y-170.86
X196.301Y-165.46
X196.401Y-113.96
X196.401Y-120.016
X196.501Y-146.06
X196.701Y-172.06
X197.301Y-173.46
X198.096Y-121.394
X198.201Y-83.36
X198.543Y-162.817
X199.101Y-182.86
X200.687Y-174.582
X200.835Y-178.122
X205.386Y-176.995
X208.252Y-183.319
X209.101Y-168.26
X209.301Y-159.46
X209.301Y-163.66
X209.301Y-189.06
X209.424Y-200.642
X209.501Y-202.06
X209.909Y-174.582
X211.701Y-204.26
X214.101Y-176.86
X214.74Y-199.423
X215.901Y-182.06
X216.501Y-166.46
X217.469Y-174.161
X218.001Y-176.695
T5
X72.501Y-103.447
X78.201Y-124.96
X78.701Y-103.66
X86.801Y-124.96
X88.401Y-124.96
X90.101Y-103.447
X91.657Y-150.56
X98.601Y-124.56
X99.701Y-103.66
X110.201Y-127.96
X119.401Y-151.76
X122.901Y-195.46
X133.301Y-121.46
X139.101Y-121.46
X144.501Y-124.06
X175.8Y-117.1
X175.8Y-122.3
X207.Y-73.1
T6
X204.294Y-185.653
X204.294Y-196.063
X204.379Y-204.163
X204.864Y-179.303
X206.304Y-185.653
X206.304Y-196.063
X206.414Y-204.163
X207.404Y-179.303
X208.314Y-185.653
X208.314Y-196.063
X210.324Y-185.653
X210.324Y-196.063
X212.334Y-185.653
X212.334Y-196.063
X213.244Y-179.303
X214.234Y-204.163
X214.344Y-185.653
X214.344Y-196.063
X215.784Y-179.303
X216.269Y-204.163
X216.354Y-185.653
X216.354Y-196.063
T7
X160.043Y-96.163
X162.583Y-96.163
X165.123Y-96.163
X118.735Y-96.163
X121.275Y-96.163
X123.815Y-96.163
X77.427Y-96.163
X79.967Y-96.163
X82.507Y-96.163
X180.697Y-96.163
X183.237Y-96.163
X185.777Y-96.163
X139.389Y-96.163
X141.929Y-96.163
X144.469Y-96.163
X98.081Y-96.163
X100.621Y-96.163
X103.161Y-96.163
T8
X71.835Y-99.126
X73.Y-143.1
X119.Y-107.1
X140.868Y-124.293
X141.101Y-114.26
X144.601Y-114.76
X155.301Y-101.16
X176.601Y-185.16
X178.201Y-175.96
X180.401Y-177.36
X183.618Y-111.005
X196.601Y-137.36
X200.201Y-137.36
X203.Y-99.1
X107.352Y-146.213
X122.401Y-187.56
X105.004Y-149.452
X118.001Y-185.16
T9
X186.029Y-184.635
X187.049Y-189.965
X188.569Y-184.635
X188.619Y-199.105
X189.079Y-189.965
X191.109Y-189.965
X191.119Y-199.105
X193.129Y-199.105
X193.139Y-189.965
X195.169Y-189.965
X195.629Y-199.105
X195.679Y-184.635
X197.199Y-189.965
X198.219Y-184.635
X196.445Y-78.595
X198.985Y-78.595
X201.525Y-78.595
X204.065Y-78.595
X196.445Y-90.025
X198.985Y-90.025
X201.525Y-90.025
X204.065Y-90.025
X169.14Y-103.36
X169.14Y-105.9
X169.14Y-108.44
T10
X117.26Y-109.9
X119.8Y-109.9
T11
X98.421Y-191.592
X98.421Y-204.292
X102.231Y-191.592
X102.231Y-204.292
X106.041Y-191.592
X106.041Y-204.292
X109.851Y-191.592
X109.851Y-204.292
X113.661Y-191.592
X113.661Y-204.292
X117.471Y-191.592
X117.471Y-204.292
X121.281Y-191.592
X121.281Y-204.292
X125.091Y-191.592
X125.091Y-204.292
X128.901Y-191.592
X128.901Y-204.292
X132.711Y-191.592
X132.711Y-204.292
X138.787Y-191.625
X138.787Y-204.325
X142.597Y-191.625
X142.597Y-204.325
X146.407Y-191.625
X146.407Y-204.325
X150.217Y-191.625
X150.217Y-204.325
X154.027Y-191.625
X154.027Y-204.325
X157.837Y-191.625
X157.837Y-204.325
X94.266Y-83.458
X94.266Y-85.998
X94.266Y-88.538
X106.966Y-83.458
X106.966Y-85.998
X106.966Y-88.538
X163.873Y-191.592
X163.873Y-204.292
X167.683Y-191.592
X167.683Y-204.292
X171.493Y-191.592
X171.493Y-204.292
X175.303Y-191.592
X175.303Y-204.292
X156.228Y-83.458
X156.228Y-85.998
X156.228Y-88.538
X168.928Y-83.458
X168.928Y-85.998
X168.928Y-88.538
X114.92Y-83.458
X114.92Y-85.998
X114.92Y-88.538
X127.62Y-83.458
X127.62Y-85.998
X127.62Y-88.538
X73.275Y-191.592
X73.275Y-204.292
X77.085Y-191.592
X77.085Y-204.292
X80.895Y-191.592
X80.895Y-204.292
X84.705Y-191.592
X84.705Y-204.292
X88.515Y-191.592
X88.515Y-204.292
X92.325Y-191.592
X92.325Y-204.292
X73.612Y-83.458
X73.612Y-85.998
X73.612Y-88.538
X86.312Y-83.458
X86.312Y-85.998
X86.312Y-88.538
X176.882Y-83.458
X176.882Y-85.998
X176.882Y-88.538
X189.582Y-83.458
X189.582Y-85.998
X189.582Y-88.538
X135.574Y-83.458
X135.574Y-85.998
X135.574Y-88.538
X148.274Y-83.458
X148.274Y-85.998
X148.274Y-88.538
T12
X177.902Y-60.626
X177.902Y-70.786
X182.982Y-60.626
X182.982Y-70.786
X188.062Y-60.626
X188.062Y-70.786
X74.882Y-60.626
X74.882Y-70.786
X79.962Y-60.626
X79.962Y-70.786
X85.042Y-60.626
X85.042Y-70.786
X157.298Y-60.626
X157.298Y-70.786
X162.378Y-60.626
X162.378Y-70.786
X167.458Y-60.626
X167.458Y-70.786
X136.694Y-60.626
X136.694Y-70.786
X141.774Y-60.626
X141.774Y-70.786
X146.854Y-60.626
X146.854Y-70.786
X176.995Y-130.71
X176.995Y-138.71
X215.495Y-130.71
X215.495Y-141.46
X176.995Y-103.786
X176.995Y-111.786
X215.495Y-103.786
X215.495Y-114.536
X198.35Y-60.735
X198.35Y-70.895
X203.43Y-60.735
X203.43Y-70.895
X208.51Y-60.735
X208.51Y-70.895
X213.59Y-60.735
X213.59Y-70.895
X95.486Y-60.626
X95.486Y-70.786
X100.566Y-60.626
X100.566Y-70.786
X105.646Y-60.626
X105.646Y-70.786
X116.09Y-60.626
X116.09Y-70.786
X121.17Y-60.626
X121.17Y-70.786
X126.25Y-60.626
X126.25Y-70.786
T13
X184.059Y-204.315
X184.069Y-193.695
X200.179Y-193.695
X200.189Y-204.315
T14
X185.559Y-201.805
X198.689Y-201.805
T0
M30
