G04 #@! TF.GenerationSoftware,KiCad,Pcbnew,5.0.2+dfsg1-1*
G04 #@! TF.CreationDate,2020-02-06T11:41:02-03:00*
G04 #@! TF.ProjectId,servo,73657276-6f2e-46b6-9963-61645f706362,1.0*
G04 #@! TF.SameCoordinates,Original*
G04 #@! TF.FileFunction,Copper,L4,Inr*
G04 #@! TF.FilePolarity,Positive*
%FSLAX46Y46*%
G04 Gerber Fmt 4.6, Leading zero omitted, Abs format (unit mm)*
G04 Created by KiCad (PCBNEW 5.0.2+dfsg1-1) date Thu 06 Feb 2020 11:41:02 AM -03*
%MOMM*%
%LPD*%
G01*
G04 APERTURE LIST*
%ADD10C,0.100000*%
%ADD11C,0.150000*%
%ADD12C,0.300000*%
%ADD13C,0.400000*%
G04 #@! TA.AperFunction,NonConductor*
%ADD14C,0.100000*%
G04 #@! TD*
G04 #@! TA.AperFunction,Conductor*
%ADD15C,0.100000*%
G04 #@! TD*
G04 #@! TA.AperFunction,ViaPad*
%ADD16C,3.000000*%
G04 #@! TD*
G04 #@! TA.AperFunction,ViaPad*
%ADD17C,1.524000*%
G04 #@! TD*
G04 #@! TA.AperFunction,ViaPad*
%ADD18C,2.000000*%
G04 #@! TD*
G04 #@! TA.AperFunction,ViaPad*
%ADD19C,1.600000*%
G04 #@! TD*
G04 #@! TA.AperFunction,ViaPad*
%ADD20C,3.326000*%
G04 #@! TD*
G04 #@! TA.AperFunction,ViaPad*
%ADD21C,2.355000*%
G04 #@! TD*
G04 #@! TA.AperFunction,ViaPad*
%ADD22O,2.500000X3.000000*%
G04 #@! TD*
G04 #@! TA.AperFunction,ViaPad*
%ADD23C,3.500000*%
G04 #@! TD*
G04 #@! TA.AperFunction,ViaPad*
%ADD24O,2.300000X1.500000*%
G04 #@! TD*
G04 #@! TA.AperFunction,ViaPad*
%ADD25R,2.300000X1.500000*%
G04 #@! TD*
G04 #@! TA.AperFunction,ViaPad*
%ADD26O,3.000000X2.000000*%
G04 #@! TD*
G04 #@! TA.AperFunction,ViaPad*
%ADD27O,3.000000X2.500000*%
G04 #@! TD*
G04 #@! TA.AperFunction,ViaPad*
%ADD28O,3.000000X3.000000*%
G04 #@! TD*
G04 #@! TA.AperFunction,ViaPad*
%ADD29O,1.400000X2.500000*%
G04 #@! TD*
G04 #@! TA.AperFunction,ViaPad*
%ADD30R,1.800000X3.000000*%
G04 #@! TD*
G04 #@! TA.AperFunction,ViaPad*
%ADD31O,1.800000X3.000000*%
G04 #@! TD*
G04 #@! TA.AperFunction,ViaPad*
%ADD32C,0.500000*%
G04 #@! TD*
G04 #@! TA.AperFunction,ViaPad*
%ADD33O,1.740000X2.200000*%
G04 #@! TD*
G04 #@! TA.AperFunction,ViaPad*
%ADD34C,1.740000*%
G04 #@! TD*
G04 #@! TA.AperFunction,ViaPad*
%ADD35C,1.500000*%
G04 #@! TD*
G04 #@! TA.AperFunction,ViaPad*
%ADD36C,0.457000*%
G04 #@! TD*
G04 #@! TA.AperFunction,ViaPad*
%ADD37C,0.800000*%
G04 #@! TD*
G04 #@! TA.AperFunction,ViaPad*
%ADD38C,1.000000*%
G04 #@! TD*
G04 #@! TA.AperFunction,ViaPad*
%ADD39C,0.600000*%
G04 #@! TD*
G04 #@! TA.AperFunction,ViaPad*
%ADD40C,0.700000*%
G04 #@! TD*
G04 #@! TA.AperFunction,Conductor*
%ADD41C,1.500000*%
G04 #@! TD*
G04 #@! TA.AperFunction,Conductor*
%ADD42C,0.500000*%
G04 #@! TD*
G04 #@! TA.AperFunction,Conductor*
%ADD43C,0.152400*%
G04 #@! TD*
G04 #@! TA.AperFunction,Conductor*
%ADD44C,0.200000*%
G04 #@! TD*
G04 #@! TA.AperFunction,Conductor*
%ADD45C,0.250000*%
G04 #@! TD*
G04 #@! TA.AperFunction,Conductor*
%ADD46C,0.400000*%
G04 #@! TD*
G04 APERTURE END LIST*
D10*
D11*
X299989000Y-253002200D02*
X299989000Y-285002200D01*
X407989000Y-285002200D01*
X407989000Y-253002200D01*
X299989000Y-253002200D01*
D10*
D11*
X10000000Y-10000000D02*
X10000000Y-287002200D01*
X409989000Y-287002200D01*
X409989000Y-10000000D01*
X10000000Y-10000000D01*
D10*
D11*
X12000000Y-12000000D02*
X12000000Y-285002200D01*
X407989000Y-285002200D01*
X407989000Y-12000000D01*
X12000000Y-12000000D01*
D10*
D11*
X60000000Y-12000000D02*
X60000000Y-10000000D01*
D10*
D11*
X110000000Y-12000000D02*
X110000000Y-10000000D01*
D10*
D11*
X160000000Y-12000000D02*
X160000000Y-10000000D01*
D10*
D11*
X210000000Y-12000000D02*
X210000000Y-10000000D01*
D10*
D11*
X260000000Y-12000000D02*
X260000000Y-10000000D01*
D10*
D11*
X310000000Y-12000000D02*
X310000000Y-10000000D01*
D10*
D11*
X360000000Y-12000000D02*
X360000000Y-10000000D01*
D10*
D11*
X36065476Y-11588095D02*
X35322619Y-11588095D01*
X35694047Y-11588095D02*
X35694047Y-10288095D01*
X35570238Y-10473809D01*
X35446428Y-10597619D01*
X35322619Y-10659523D01*
D10*
D11*
X85322619Y-10411904D02*
X85384523Y-10350000D01*
X85508333Y-10288095D01*
X85817857Y-10288095D01*
X85941666Y-10350000D01*
X86003571Y-10411904D01*
X86065476Y-10535714D01*
X86065476Y-10659523D01*
X86003571Y-10845238D01*
X85260714Y-11588095D01*
X86065476Y-11588095D01*
D10*
D11*
X135260714Y-10288095D02*
X136065476Y-10288095D01*
X135632142Y-10783333D01*
X135817857Y-10783333D01*
X135941666Y-10845238D01*
X136003571Y-10907142D01*
X136065476Y-11030952D01*
X136065476Y-11340476D01*
X136003571Y-11464285D01*
X135941666Y-11526190D01*
X135817857Y-11588095D01*
X135446428Y-11588095D01*
X135322619Y-11526190D01*
X135260714Y-11464285D01*
D10*
D11*
X185941666Y-10721428D02*
X185941666Y-11588095D01*
X185632142Y-10226190D02*
X185322619Y-11154761D01*
X186127380Y-11154761D01*
D10*
D11*
X236003571Y-10288095D02*
X235384523Y-10288095D01*
X235322619Y-10907142D01*
X235384523Y-10845238D01*
X235508333Y-10783333D01*
X235817857Y-10783333D01*
X235941666Y-10845238D01*
X236003571Y-10907142D01*
X236065476Y-11030952D01*
X236065476Y-11340476D01*
X236003571Y-11464285D01*
X235941666Y-11526190D01*
X235817857Y-11588095D01*
X235508333Y-11588095D01*
X235384523Y-11526190D01*
X235322619Y-11464285D01*
D10*
D11*
X285941666Y-10288095D02*
X285694047Y-10288095D01*
X285570238Y-10350000D01*
X285508333Y-10411904D01*
X285384523Y-10597619D01*
X285322619Y-10845238D01*
X285322619Y-11340476D01*
X285384523Y-11464285D01*
X285446428Y-11526190D01*
X285570238Y-11588095D01*
X285817857Y-11588095D01*
X285941666Y-11526190D01*
X286003571Y-11464285D01*
X286065476Y-11340476D01*
X286065476Y-11030952D01*
X286003571Y-10907142D01*
X285941666Y-10845238D01*
X285817857Y-10783333D01*
X285570238Y-10783333D01*
X285446428Y-10845238D01*
X285384523Y-10907142D01*
X285322619Y-11030952D01*
D10*
D11*
X335260714Y-10288095D02*
X336127380Y-10288095D01*
X335570238Y-11588095D01*
D10*
D11*
X385570238Y-10845238D02*
X385446428Y-10783333D01*
X385384523Y-10721428D01*
X385322619Y-10597619D01*
X385322619Y-10535714D01*
X385384523Y-10411904D01*
X385446428Y-10350000D01*
X385570238Y-10288095D01*
X385817857Y-10288095D01*
X385941666Y-10350000D01*
X386003571Y-10411904D01*
X386065476Y-10535714D01*
X386065476Y-10597619D01*
X386003571Y-10721428D01*
X385941666Y-10783333D01*
X385817857Y-10845238D01*
X385570238Y-10845238D01*
X385446428Y-10907142D01*
X385384523Y-10969047D01*
X385322619Y-11092857D01*
X385322619Y-11340476D01*
X385384523Y-11464285D01*
X385446428Y-11526190D01*
X385570238Y-11588095D01*
X385817857Y-11588095D01*
X385941666Y-11526190D01*
X386003571Y-11464285D01*
X386065476Y-11340476D01*
X386065476Y-11092857D01*
X386003571Y-10969047D01*
X385941666Y-10907142D01*
X385817857Y-10845238D01*
D10*
D11*
X60000000Y-285002200D02*
X60000000Y-287002200D01*
D10*
D11*
X110000000Y-285002200D02*
X110000000Y-287002200D01*
D10*
D11*
X160000000Y-285002200D02*
X160000000Y-287002200D01*
D10*
D11*
X210000000Y-285002200D02*
X210000000Y-287002200D01*
D10*
D11*
X260000000Y-285002200D02*
X260000000Y-287002200D01*
D10*
D11*
X310000000Y-285002200D02*
X310000000Y-287002200D01*
D10*
D11*
X360000000Y-285002200D02*
X360000000Y-287002200D01*
D10*
D11*
X36065476Y-286590295D02*
X35322619Y-286590295D01*
X35694047Y-286590295D02*
X35694047Y-285290295D01*
X35570238Y-285476009D01*
X35446428Y-285599819D01*
X35322619Y-285661723D01*
D10*
D11*
X85322619Y-285414104D02*
X85384523Y-285352200D01*
X85508333Y-285290295D01*
X85817857Y-285290295D01*
X85941666Y-285352200D01*
X86003571Y-285414104D01*
X86065476Y-285537914D01*
X86065476Y-285661723D01*
X86003571Y-285847438D01*
X85260714Y-286590295D01*
X86065476Y-286590295D01*
D10*
D11*
X135260714Y-285290295D02*
X136065476Y-285290295D01*
X135632142Y-285785533D01*
X135817857Y-285785533D01*
X135941666Y-285847438D01*
X136003571Y-285909342D01*
X136065476Y-286033152D01*
X136065476Y-286342676D01*
X136003571Y-286466485D01*
X135941666Y-286528390D01*
X135817857Y-286590295D01*
X135446428Y-286590295D01*
X135322619Y-286528390D01*
X135260714Y-286466485D01*
D10*
D11*
X185941666Y-285723628D02*
X185941666Y-286590295D01*
X185632142Y-285228390D02*
X185322619Y-286156961D01*
X186127380Y-286156961D01*
D10*
D11*
X236003571Y-285290295D02*
X235384523Y-285290295D01*
X235322619Y-285909342D01*
X235384523Y-285847438D01*
X235508333Y-285785533D01*
X235817857Y-285785533D01*
X235941666Y-285847438D01*
X236003571Y-285909342D01*
X236065476Y-286033152D01*
X236065476Y-286342676D01*
X236003571Y-286466485D01*
X235941666Y-286528390D01*
X235817857Y-286590295D01*
X235508333Y-286590295D01*
X235384523Y-286528390D01*
X235322619Y-286466485D01*
D10*
D11*
X285941666Y-285290295D02*
X285694047Y-285290295D01*
X285570238Y-285352200D01*
X285508333Y-285414104D01*
X285384523Y-285599819D01*
X285322619Y-285847438D01*
X285322619Y-286342676D01*
X285384523Y-286466485D01*
X285446428Y-286528390D01*
X285570238Y-286590295D01*
X285817857Y-286590295D01*
X285941666Y-286528390D01*
X286003571Y-286466485D01*
X286065476Y-286342676D01*
X286065476Y-286033152D01*
X286003571Y-285909342D01*
X285941666Y-285847438D01*
X285817857Y-285785533D01*
X285570238Y-285785533D01*
X285446428Y-285847438D01*
X285384523Y-285909342D01*
X285322619Y-286033152D01*
D10*
D11*
X335260714Y-285290295D02*
X336127380Y-285290295D01*
X335570238Y-286590295D01*
D10*
D11*
X385570238Y-285847438D02*
X385446428Y-285785533D01*
X385384523Y-285723628D01*
X385322619Y-285599819D01*
X385322619Y-285537914D01*
X385384523Y-285414104D01*
X385446428Y-285352200D01*
X385570238Y-285290295D01*
X385817857Y-285290295D01*
X385941666Y-285352200D01*
X386003571Y-285414104D01*
X386065476Y-285537914D01*
X386065476Y-285599819D01*
X386003571Y-285723628D01*
X385941666Y-285785533D01*
X385817857Y-285847438D01*
X385570238Y-285847438D01*
X385446428Y-285909342D01*
X385384523Y-285971247D01*
X385322619Y-286095057D01*
X385322619Y-286342676D01*
X385384523Y-286466485D01*
X385446428Y-286528390D01*
X385570238Y-286590295D01*
X385817857Y-286590295D01*
X385941666Y-286528390D01*
X386003571Y-286466485D01*
X386065476Y-286342676D01*
X386065476Y-286095057D01*
X386003571Y-285971247D01*
X385941666Y-285909342D01*
X385817857Y-285847438D01*
D10*
D11*
X10000000Y-60000000D02*
X12000000Y-60000000D01*
D10*
D11*
X10000000Y-110000000D02*
X12000000Y-110000000D01*
D10*
D11*
X10000000Y-160000000D02*
X12000000Y-160000000D01*
D10*
D11*
X10000000Y-210000000D02*
X12000000Y-210000000D01*
D10*
D11*
X10000000Y-260000000D02*
X12000000Y-260000000D01*
D10*
D11*
X10690476Y-35216666D02*
X11309523Y-35216666D01*
X10566666Y-35588095D02*
X11000000Y-34288095D01*
X11433333Y-35588095D01*
D10*
D11*
X11092857Y-84907142D02*
X11278571Y-84969047D01*
X11340476Y-85030952D01*
X11402380Y-85154761D01*
X11402380Y-85340476D01*
X11340476Y-85464285D01*
X11278571Y-85526190D01*
X11154761Y-85588095D01*
X10659523Y-85588095D01*
X10659523Y-84288095D01*
X11092857Y-84288095D01*
X11216666Y-84350000D01*
X11278571Y-84411904D01*
X11340476Y-84535714D01*
X11340476Y-84659523D01*
X11278571Y-84783333D01*
X11216666Y-84845238D01*
X11092857Y-84907142D01*
X10659523Y-84907142D01*
D10*
D11*
X11402380Y-135464285D02*
X11340476Y-135526190D01*
X11154761Y-135588095D01*
X11030952Y-135588095D01*
X10845238Y-135526190D01*
X10721428Y-135402380D01*
X10659523Y-135278571D01*
X10597619Y-135030952D01*
X10597619Y-134845238D01*
X10659523Y-134597619D01*
X10721428Y-134473809D01*
X10845238Y-134350000D01*
X11030952Y-134288095D01*
X11154761Y-134288095D01*
X11340476Y-134350000D01*
X11402380Y-134411904D01*
D10*
D11*
X10659523Y-185588095D02*
X10659523Y-184288095D01*
X10969047Y-184288095D01*
X11154761Y-184350000D01*
X11278571Y-184473809D01*
X11340476Y-184597619D01*
X11402380Y-184845238D01*
X11402380Y-185030952D01*
X11340476Y-185278571D01*
X11278571Y-185402380D01*
X11154761Y-185526190D01*
X10969047Y-185588095D01*
X10659523Y-185588095D01*
D10*
D11*
X10721428Y-234907142D02*
X11154761Y-234907142D01*
X11340476Y-235588095D02*
X10721428Y-235588095D01*
X10721428Y-234288095D01*
X11340476Y-234288095D01*
D10*
D11*
X11185714Y-284907142D02*
X10752380Y-284907142D01*
X10752380Y-285588095D02*
X10752380Y-284288095D01*
X11371428Y-284288095D01*
D10*
D11*
X409989000Y-60000000D02*
X407989000Y-60000000D01*
D10*
D11*
X409989000Y-110000000D02*
X407989000Y-110000000D01*
D10*
D11*
X409989000Y-160000000D02*
X407989000Y-160000000D01*
D10*
D11*
X409989000Y-210000000D02*
X407989000Y-210000000D01*
D10*
D11*
X409989000Y-260000000D02*
X407989000Y-260000000D01*
D10*
D11*
X408679476Y-35216666D02*
X409298523Y-35216666D01*
X408555666Y-35588095D02*
X408989000Y-34288095D01*
X409422333Y-35588095D01*
D10*
D11*
X409081857Y-84907142D02*
X409267571Y-84969047D01*
X409329476Y-85030952D01*
X409391380Y-85154761D01*
X409391380Y-85340476D01*
X409329476Y-85464285D01*
X409267571Y-85526190D01*
X409143761Y-85588095D01*
X408648523Y-85588095D01*
X408648523Y-84288095D01*
X409081857Y-84288095D01*
X409205666Y-84350000D01*
X409267571Y-84411904D01*
X409329476Y-84535714D01*
X409329476Y-84659523D01*
X409267571Y-84783333D01*
X409205666Y-84845238D01*
X409081857Y-84907142D01*
X408648523Y-84907142D01*
D10*
D11*
X409391380Y-135464285D02*
X409329476Y-135526190D01*
X409143761Y-135588095D01*
X409019952Y-135588095D01*
X408834238Y-135526190D01*
X408710428Y-135402380D01*
X408648523Y-135278571D01*
X408586619Y-135030952D01*
X408586619Y-134845238D01*
X408648523Y-134597619D01*
X408710428Y-134473809D01*
X408834238Y-134350000D01*
X409019952Y-134288095D01*
X409143761Y-134288095D01*
X409329476Y-134350000D01*
X409391380Y-134411904D01*
D10*
D11*
X408648523Y-185588095D02*
X408648523Y-184288095D01*
X408958047Y-184288095D01*
X409143761Y-184350000D01*
X409267571Y-184473809D01*
X409329476Y-184597619D01*
X409391380Y-184845238D01*
X409391380Y-185030952D01*
X409329476Y-185278571D01*
X409267571Y-185402380D01*
X409143761Y-185526190D01*
X408958047Y-185588095D01*
X408648523Y-185588095D01*
D10*
D11*
X408710428Y-234907142D02*
X409143761Y-234907142D01*
X409329476Y-235588095D02*
X408710428Y-235588095D01*
X408710428Y-234288095D01*
X409329476Y-234288095D01*
D10*
D11*
X409174714Y-284907142D02*
X408741380Y-284907142D01*
X408741380Y-285588095D02*
X408741380Y-284288095D01*
X409360428Y-284288095D01*
D10*
D11*
X323421142Y-280780771D02*
X323421142Y-279280771D01*
X323778285Y-279280771D01*
X323992571Y-279352200D01*
X324135428Y-279495057D01*
X324206857Y-279637914D01*
X324278285Y-279923628D01*
X324278285Y-280137914D01*
X324206857Y-280423628D01*
X324135428Y-280566485D01*
X323992571Y-280709342D01*
X323778285Y-280780771D01*
X323421142Y-280780771D01*
X325564000Y-280780771D02*
X325564000Y-279995057D01*
X325492571Y-279852200D01*
X325349714Y-279780771D01*
X325064000Y-279780771D01*
X324921142Y-279852200D01*
X325564000Y-280709342D02*
X325421142Y-280780771D01*
X325064000Y-280780771D01*
X324921142Y-280709342D01*
X324849714Y-280566485D01*
X324849714Y-280423628D01*
X324921142Y-280280771D01*
X325064000Y-280209342D01*
X325421142Y-280209342D01*
X325564000Y-280137914D01*
X326064000Y-279780771D02*
X326635428Y-279780771D01*
X326278285Y-279280771D02*
X326278285Y-280566485D01*
X326349714Y-280709342D01*
X326492571Y-280780771D01*
X326635428Y-280780771D01*
X327706857Y-280709342D02*
X327564000Y-280780771D01*
X327278285Y-280780771D01*
X327135428Y-280709342D01*
X327064000Y-280566485D01*
X327064000Y-279995057D01*
X327135428Y-279852200D01*
X327278285Y-279780771D01*
X327564000Y-279780771D01*
X327706857Y-279852200D01*
X327778285Y-279995057D01*
X327778285Y-280137914D01*
X327064000Y-280280771D01*
X328421142Y-280637914D02*
X328492571Y-280709342D01*
X328421142Y-280780771D01*
X328349714Y-280709342D01*
X328421142Y-280637914D01*
X328421142Y-280780771D01*
X328421142Y-279852200D02*
X328492571Y-279923628D01*
X328421142Y-279995057D01*
X328349714Y-279923628D01*
X328421142Y-279852200D01*
X328421142Y-279995057D01*
X330206857Y-279423628D02*
X330278285Y-279352200D01*
X330421142Y-279280771D01*
X330778285Y-279280771D01*
X330921142Y-279352200D01*
X330992571Y-279423628D01*
X331064000Y-279566485D01*
X331064000Y-279709342D01*
X330992571Y-279923628D01*
X330135428Y-280780771D01*
X331064000Y-280780771D01*
X331992571Y-279280771D02*
X332135428Y-279280771D01*
X332278285Y-279352200D01*
X332349714Y-279423628D01*
X332421142Y-279566485D01*
X332492571Y-279852200D01*
X332492571Y-280209342D01*
X332421142Y-280495057D01*
X332349714Y-280637914D01*
X332278285Y-280709342D01*
X332135428Y-280780771D01*
X331992571Y-280780771D01*
X331849714Y-280709342D01*
X331778285Y-280637914D01*
X331706857Y-280495057D01*
X331635428Y-280209342D01*
X331635428Y-279852200D01*
X331706857Y-279566485D01*
X331778285Y-279423628D01*
X331849714Y-279352200D01*
X331992571Y-279280771D01*
X333064000Y-279423628D02*
X333135428Y-279352200D01*
X333278285Y-279280771D01*
X333635428Y-279280771D01*
X333778285Y-279352200D01*
X333849714Y-279423628D01*
X333921142Y-279566485D01*
X333921142Y-279709342D01*
X333849714Y-279923628D01*
X332992571Y-280780771D01*
X333921142Y-280780771D01*
X334849714Y-279280771D02*
X334992571Y-279280771D01*
X335135428Y-279352200D01*
X335206857Y-279423628D01*
X335278285Y-279566485D01*
X335349714Y-279852200D01*
X335349714Y-280209342D01*
X335278285Y-280495057D01*
X335206857Y-280637914D01*
X335135428Y-280709342D01*
X334992571Y-280780771D01*
X334849714Y-280780771D01*
X334706857Y-280709342D01*
X334635428Y-280637914D01*
X334564000Y-280495057D01*
X334492571Y-280209342D01*
X334492571Y-279852200D01*
X334564000Y-279566485D01*
X334635428Y-279423628D01*
X334706857Y-279352200D01*
X334849714Y-279280771D01*
X335992571Y-280209342D02*
X337135428Y-280209342D01*
X338135428Y-279280771D02*
X338278285Y-279280771D01*
X338421142Y-279352200D01*
X338492571Y-279423628D01*
X338564000Y-279566485D01*
X338635428Y-279852200D01*
X338635428Y-280209342D01*
X338564000Y-280495057D01*
X338492571Y-280637914D01*
X338421142Y-280709342D01*
X338278285Y-280780771D01*
X338135428Y-280780771D01*
X337992571Y-280709342D01*
X337921142Y-280637914D01*
X337849714Y-280495057D01*
X337778285Y-280209342D01*
X337778285Y-279852200D01*
X337849714Y-279566485D01*
X337921142Y-279423628D01*
X337992571Y-279352200D01*
X338135428Y-279280771D01*
X340064000Y-280780771D02*
X339206857Y-280780771D01*
X339635428Y-280780771D02*
X339635428Y-279280771D01*
X339492571Y-279495057D01*
X339349714Y-279637914D01*
X339206857Y-279709342D01*
X340706857Y-280209342D02*
X341849714Y-280209342D01*
X342421142Y-279280771D02*
X343349714Y-279280771D01*
X342849714Y-279852200D01*
X343064000Y-279852200D01*
X343206857Y-279923628D01*
X343278285Y-279995057D01*
X343349714Y-280137914D01*
X343349714Y-280495057D01*
X343278285Y-280637914D01*
X343206857Y-280709342D01*
X343064000Y-280780771D01*
X342635428Y-280780771D01*
X342492571Y-280709342D01*
X342421142Y-280637914D01*
X344278285Y-279280771D02*
X344421142Y-279280771D01*
X344564000Y-279352200D01*
X344635428Y-279423628D01*
X344706857Y-279566485D01*
X344778285Y-279852200D01*
X344778285Y-280209342D01*
X344706857Y-280495057D01*
X344635428Y-280637914D01*
X344564000Y-280709342D01*
X344421142Y-280780771D01*
X344278285Y-280780771D01*
X344135428Y-280709342D01*
X344064000Y-280637914D01*
X343992571Y-280495057D01*
X343921142Y-280209342D01*
X343921142Y-279852200D01*
X343992571Y-279566485D01*
X344064000Y-279423628D01*
X344135428Y-279352200D01*
X344278285Y-279280771D01*
D10*
D11*
X299989000Y-281502200D02*
X407989000Y-281502200D01*
D10*
D11*
X301421142Y-283580771D02*
X301421142Y-282080771D01*
X302278285Y-283580771D02*
X301635428Y-282723628D01*
X302278285Y-282080771D02*
X301421142Y-282937914D01*
X302921142Y-283580771D02*
X302921142Y-282580771D01*
X302921142Y-282080771D02*
X302849714Y-282152200D01*
X302921142Y-282223628D01*
X302992571Y-282152200D01*
X302921142Y-282080771D01*
X302921142Y-282223628D01*
X304492571Y-283437914D02*
X304421142Y-283509342D01*
X304206857Y-283580771D01*
X304064000Y-283580771D01*
X303849714Y-283509342D01*
X303706857Y-283366485D01*
X303635428Y-283223628D01*
X303564000Y-282937914D01*
X303564000Y-282723628D01*
X303635428Y-282437914D01*
X303706857Y-282295057D01*
X303849714Y-282152200D01*
X304064000Y-282080771D01*
X304206857Y-282080771D01*
X304421142Y-282152200D01*
X304492571Y-282223628D01*
X305778285Y-283580771D02*
X305778285Y-282795057D01*
X305706857Y-282652200D01*
X305564000Y-282580771D01*
X305278285Y-282580771D01*
X305135428Y-282652200D01*
X305778285Y-283509342D02*
X305635428Y-283580771D01*
X305278285Y-283580771D01*
X305135428Y-283509342D01*
X305064000Y-283366485D01*
X305064000Y-283223628D01*
X305135428Y-283080771D01*
X305278285Y-283009342D01*
X305635428Y-283009342D01*
X305778285Y-282937914D01*
X307135428Y-283580771D02*
X307135428Y-282080771D01*
X307135428Y-283509342D02*
X306992571Y-283580771D01*
X306706857Y-283580771D01*
X306564000Y-283509342D01*
X306492571Y-283437914D01*
X306421142Y-283295057D01*
X306421142Y-282866485D01*
X306492571Y-282723628D01*
X306564000Y-282652200D01*
X306706857Y-282580771D01*
X306992571Y-282580771D01*
X307135428Y-282652200D01*
X308992571Y-282795057D02*
X309492571Y-282795057D01*
X309706857Y-283580771D02*
X308992571Y-283580771D01*
X308992571Y-282080771D01*
X309706857Y-282080771D01*
X310349714Y-283437914D02*
X310421142Y-283509342D01*
X310349714Y-283580771D01*
X310278285Y-283509342D01*
X310349714Y-283437914D01*
X310349714Y-283580771D01*
X311064000Y-283580771D02*
X311064000Y-282080771D01*
X311421142Y-282080771D01*
X311635428Y-282152200D01*
X311778285Y-282295057D01*
X311849714Y-282437914D01*
X311921142Y-282723628D01*
X311921142Y-282937914D01*
X311849714Y-283223628D01*
X311778285Y-283366485D01*
X311635428Y-283509342D01*
X311421142Y-283580771D01*
X311064000Y-283580771D01*
X312564000Y-283437914D02*
X312635428Y-283509342D01*
X312564000Y-283580771D01*
X312492571Y-283509342D01*
X312564000Y-283437914D01*
X312564000Y-283580771D01*
X313206857Y-283152200D02*
X313921142Y-283152200D01*
X313064000Y-283580771D02*
X313564000Y-282080771D01*
X314064000Y-283580771D01*
X314564000Y-283437914D02*
X314635428Y-283509342D01*
X314564000Y-283580771D01*
X314492571Y-283509342D01*
X314564000Y-283437914D01*
X314564000Y-283580771D01*
X317564000Y-283580771D02*
X317564000Y-282080771D01*
X317706857Y-283009342D02*
X318135428Y-283580771D01*
X318135428Y-282580771D02*
X317564000Y-283152200D01*
X318778285Y-283580771D02*
X318778285Y-282580771D01*
X318778285Y-282080771D02*
X318706857Y-282152200D01*
X318778285Y-282223628D01*
X318849714Y-282152200D01*
X318778285Y-282080771D01*
X318778285Y-282223628D01*
X320135428Y-283509342D02*
X319992571Y-283580771D01*
X319706857Y-283580771D01*
X319564000Y-283509342D01*
X319492571Y-283437914D01*
X319421142Y-283295057D01*
X319421142Y-282866485D01*
X319492571Y-282723628D01*
X319564000Y-282652200D01*
X319706857Y-282580771D01*
X319992571Y-282580771D01*
X320135428Y-282652200D01*
X321421142Y-283580771D02*
X321421142Y-282795057D01*
X321349714Y-282652200D01*
X321206857Y-282580771D01*
X320921142Y-282580771D01*
X320778285Y-282652200D01*
X321421142Y-283509342D02*
X321278285Y-283580771D01*
X320921142Y-283580771D01*
X320778285Y-283509342D01*
X320706857Y-283366485D01*
X320706857Y-283223628D01*
X320778285Y-283080771D01*
X320921142Y-283009342D01*
X321278285Y-283009342D01*
X321421142Y-282937914D01*
X322778285Y-283580771D02*
X322778285Y-282080771D01*
X322778285Y-283509342D02*
X322635428Y-283580771D01*
X322349714Y-283580771D01*
X322206857Y-283509342D01*
X322135428Y-283437914D01*
X322064000Y-283295057D01*
X322064000Y-282866485D01*
X322135428Y-282723628D01*
X322206857Y-282652200D01*
X322349714Y-282580771D01*
X322635428Y-282580771D01*
X322778285Y-282652200D01*
X325349714Y-282080771D02*
X324635428Y-282080771D01*
X324564000Y-282795057D01*
X324635428Y-282723628D01*
X324778285Y-282652200D01*
X325135428Y-282652200D01*
X325278285Y-282723628D01*
X325349714Y-282795057D01*
X325421142Y-282937914D01*
X325421142Y-283295057D01*
X325349714Y-283437914D01*
X325278285Y-283509342D01*
X325135428Y-283580771D01*
X324778285Y-283580771D01*
X324635428Y-283509342D01*
X324564000Y-283437914D01*
X326064000Y-283437914D02*
X326135428Y-283509342D01*
X326064000Y-283580771D01*
X325992571Y-283509342D01*
X326064000Y-283437914D01*
X326064000Y-283580771D01*
X327064000Y-282080771D02*
X327206857Y-282080771D01*
X327349714Y-282152200D01*
X327421142Y-282223628D01*
X327492571Y-282366485D01*
X327564000Y-282652200D01*
X327564000Y-283009342D01*
X327492571Y-283295057D01*
X327421142Y-283437914D01*
X327349714Y-283509342D01*
X327206857Y-283580771D01*
X327064000Y-283580771D01*
X326921142Y-283509342D01*
X326849714Y-283437914D01*
X326778285Y-283295057D01*
X326706857Y-283009342D01*
X326706857Y-282652200D01*
X326778285Y-282366485D01*
X326849714Y-282223628D01*
X326921142Y-282152200D01*
X327064000Y-282080771D01*
X328206857Y-283437914D02*
X328278285Y-283509342D01*
X328206857Y-283580771D01*
X328135428Y-283509342D01*
X328206857Y-283437914D01*
X328206857Y-283580771D01*
X328849714Y-282223628D02*
X328921142Y-282152200D01*
X329064000Y-282080771D01*
X329421142Y-282080771D01*
X329564000Y-282152200D01*
X329635428Y-282223628D01*
X329706857Y-282366485D01*
X329706857Y-282509342D01*
X329635428Y-282723628D01*
X328778285Y-283580771D01*
X329706857Y-283580771D01*
X330349714Y-283009342D02*
X331492571Y-283009342D01*
X330921142Y-283580771D02*
X330921142Y-282437914D01*
X332849714Y-283580771D02*
X332849714Y-282080771D01*
X332849714Y-283509342D02*
X332706857Y-283580771D01*
X332421142Y-283580771D01*
X332278285Y-283509342D01*
X332206857Y-283437914D01*
X332135428Y-283295057D01*
X332135428Y-282866485D01*
X332206857Y-282723628D01*
X332278285Y-282652200D01*
X332421142Y-282580771D01*
X332706857Y-282580771D01*
X332849714Y-282652200D01*
X333349714Y-282580771D02*
X333921142Y-282580771D01*
X333564000Y-283580771D02*
X333564000Y-282295057D01*
X333635428Y-282152200D01*
X333778285Y-282080771D01*
X333921142Y-282080771D01*
X334349714Y-283509342D02*
X334492571Y-283580771D01*
X334778285Y-283580771D01*
X334921142Y-283509342D01*
X334992571Y-283366485D01*
X334992571Y-283295057D01*
X334921142Y-283152200D01*
X334778285Y-283080771D01*
X334564000Y-283080771D01*
X334421142Y-283009342D01*
X334349714Y-282866485D01*
X334349714Y-282795057D01*
X334421142Y-282652200D01*
X334564000Y-282580771D01*
X334778285Y-282580771D01*
X334921142Y-282652200D01*
X336278285Y-282580771D02*
X336278285Y-283795057D01*
X336206857Y-283937914D01*
X336135428Y-284009342D01*
X335992571Y-284080771D01*
X335778285Y-284080771D01*
X335635428Y-284009342D01*
X336278285Y-283509342D02*
X336135428Y-283580771D01*
X335849714Y-283580771D01*
X335706857Y-283509342D01*
X335635428Y-283437914D01*
X335564000Y-283295057D01*
X335564000Y-282866485D01*
X335635428Y-282723628D01*
X335706857Y-282652200D01*
X335849714Y-282580771D01*
X336135428Y-282580771D01*
X336278285Y-282652200D01*
X337778285Y-283580771D02*
X336921142Y-283580771D01*
X337349714Y-283580771D02*
X337349714Y-282080771D01*
X337206857Y-282295057D01*
X337064000Y-282437914D01*
X336921142Y-282509342D01*
X338421142Y-283009342D02*
X339564000Y-283009342D01*
X341064000Y-283580771D02*
X340206857Y-283580771D01*
X340635428Y-283580771D02*
X340635428Y-282080771D01*
X340492571Y-282295057D01*
X340349714Y-282437914D01*
X340206857Y-282509342D01*
D10*
D11*
X299989000Y-278502200D02*
X407989000Y-278502200D01*
D10*
D12*
X387398285Y-280780771D02*
X386898285Y-280066485D01*
X386541142Y-280780771D02*
X386541142Y-279280771D01*
X387112571Y-279280771D01*
X387255428Y-279352200D01*
X387326857Y-279423628D01*
X387398285Y-279566485D01*
X387398285Y-279780771D01*
X387326857Y-279923628D01*
X387255428Y-279995057D01*
X387112571Y-280066485D01*
X386541142Y-280066485D01*
X388612571Y-280709342D02*
X388469714Y-280780771D01*
X388184000Y-280780771D01*
X388041142Y-280709342D01*
X387969714Y-280566485D01*
X387969714Y-279995057D01*
X388041142Y-279852200D01*
X388184000Y-279780771D01*
X388469714Y-279780771D01*
X388612571Y-279852200D01*
X388684000Y-279995057D01*
X388684000Y-280137914D01*
X387969714Y-280280771D01*
X389184000Y-279780771D02*
X389541142Y-280780771D01*
X389898285Y-279780771D01*
X390469714Y-280637914D02*
X390541142Y-280709342D01*
X390469714Y-280780771D01*
X390398285Y-280709342D01*
X390469714Y-280637914D01*
X390469714Y-280780771D01*
X390469714Y-279852200D02*
X390541142Y-279923628D01*
X390469714Y-279995057D01*
X390398285Y-279923628D01*
X390469714Y-279852200D01*
X390469714Y-279995057D01*
X393112571Y-280780771D02*
X392255428Y-280780771D01*
X392684000Y-280780771D02*
X392684000Y-279280771D01*
X392541142Y-279495057D01*
X392398285Y-279637914D01*
X392255428Y-279709342D01*
X393755428Y-280637914D02*
X393826857Y-280709342D01*
X393755428Y-280780771D01*
X393684000Y-280709342D01*
X393755428Y-280637914D01*
X393755428Y-280780771D01*
X394755428Y-279280771D02*
X394898285Y-279280771D01*
X395041142Y-279352200D01*
X395112571Y-279423628D01*
X395184000Y-279566485D01*
X395255428Y-279852200D01*
X395255428Y-280209342D01*
X395184000Y-280495057D01*
X395112571Y-280637914D01*
X395041142Y-280709342D01*
X394898285Y-280780771D01*
X394755428Y-280780771D01*
X394612571Y-280709342D01*
X394541142Y-280637914D01*
X394469714Y-280495057D01*
X394398285Y-280209342D01*
X394398285Y-279852200D01*
X394469714Y-279566485D01*
X394541142Y-279423628D01*
X394612571Y-279352200D01*
X394755428Y-279280771D01*
D10*
D11*
X301349714Y-280709342D02*
X301564000Y-280780771D01*
X301921142Y-280780771D01*
X302064000Y-280709342D01*
X302135428Y-280637914D01*
X302206857Y-280495057D01*
X302206857Y-280352200D01*
X302135428Y-280209342D01*
X302064000Y-280137914D01*
X301921142Y-280066485D01*
X301635428Y-279995057D01*
X301492571Y-279923628D01*
X301421142Y-279852200D01*
X301349714Y-279709342D01*
X301349714Y-279566485D01*
X301421142Y-279423628D01*
X301492571Y-279352200D01*
X301635428Y-279280771D01*
X301992571Y-279280771D01*
X302206857Y-279352200D01*
X302849714Y-280780771D02*
X302849714Y-279780771D01*
X302849714Y-279280771D02*
X302778285Y-279352200D01*
X302849714Y-279423628D01*
X302921142Y-279352200D01*
X302849714Y-279280771D01*
X302849714Y-279423628D01*
X303421142Y-279780771D02*
X304206857Y-279780771D01*
X303421142Y-280780771D01*
X304206857Y-280780771D01*
X305349714Y-280709342D02*
X305206857Y-280780771D01*
X304921142Y-280780771D01*
X304778285Y-280709342D01*
X304706857Y-280566485D01*
X304706857Y-279995057D01*
X304778285Y-279852200D01*
X304921142Y-279780771D01*
X305206857Y-279780771D01*
X305349714Y-279852200D01*
X305421142Y-279995057D01*
X305421142Y-280137914D01*
X304706857Y-280280771D01*
X306064000Y-280637914D02*
X306135428Y-280709342D01*
X306064000Y-280780771D01*
X305992571Y-280709342D01*
X306064000Y-280637914D01*
X306064000Y-280780771D01*
X306064000Y-279852200D02*
X306135428Y-279923628D01*
X306064000Y-279995057D01*
X305992571Y-279923628D01*
X306064000Y-279852200D01*
X306064000Y-279995057D01*
X307849714Y-280352200D02*
X308564000Y-280352200D01*
X307706857Y-280780771D02*
X308206857Y-279280771D01*
X308706857Y-280780771D01*
X309064000Y-279280771D02*
X309992571Y-279280771D01*
X309492571Y-279852200D01*
X309706857Y-279852200D01*
X309849714Y-279923628D01*
X309921142Y-279995057D01*
X309992571Y-280137914D01*
X309992571Y-280495057D01*
X309921142Y-280637914D01*
X309849714Y-280709342D01*
X309706857Y-280780771D01*
X309278285Y-280780771D01*
X309135428Y-280709342D01*
X309064000Y-280637914D01*
D10*
D11*
X386421142Y-283580771D02*
X386421142Y-282080771D01*
X387778285Y-283580771D02*
X387778285Y-282080771D01*
X387778285Y-283509342D02*
X387635428Y-283580771D01*
X387349714Y-283580771D01*
X387206857Y-283509342D01*
X387135428Y-283437914D01*
X387064000Y-283295057D01*
X387064000Y-282866485D01*
X387135428Y-282723628D01*
X387206857Y-282652200D01*
X387349714Y-282580771D01*
X387635428Y-282580771D01*
X387778285Y-282652200D01*
X388492571Y-283437914D02*
X388564000Y-283509342D01*
X388492571Y-283580771D01*
X388421142Y-283509342D01*
X388492571Y-283437914D01*
X388492571Y-283580771D01*
X388492571Y-282652200D02*
X388564000Y-282723628D01*
X388492571Y-282795057D01*
X388421142Y-282723628D01*
X388492571Y-282652200D01*
X388492571Y-282795057D01*
X391135428Y-283580771D02*
X390278285Y-283580771D01*
X390706857Y-283580771D02*
X390706857Y-282080771D01*
X390564000Y-282295057D01*
X390421142Y-282437914D01*
X390278285Y-282509342D01*
X392849714Y-282009342D02*
X391564000Y-283937914D01*
X394135428Y-283580771D02*
X393278285Y-283580771D01*
X393706857Y-283580771D02*
X393706857Y-282080771D01*
X393564000Y-282295057D01*
X393421142Y-282437914D01*
X393278285Y-282509342D01*
D10*
D11*
X299989000Y-274502200D02*
X407989000Y-274502200D01*
D10*
D13*
X301701380Y-275206961D02*
X302844238Y-275206961D01*
X302022809Y-277206961D02*
X302272809Y-275206961D01*
X303260904Y-277206961D02*
X303427571Y-275873628D01*
X303510904Y-275206961D02*
X303403761Y-275302200D01*
X303487095Y-275397438D01*
X303594238Y-275302200D01*
X303510904Y-275206961D01*
X303487095Y-275397438D01*
X304094238Y-275873628D02*
X304856142Y-275873628D01*
X304463285Y-275206961D02*
X304249000Y-276921247D01*
X304320428Y-277111723D01*
X304499000Y-277206961D01*
X304689476Y-277206961D01*
X305641857Y-277206961D02*
X305463285Y-277111723D01*
X305391857Y-276921247D01*
X305606142Y-275206961D01*
X307177571Y-277111723D02*
X306975190Y-277206961D01*
X306594238Y-277206961D01*
X306415666Y-277111723D01*
X306344238Y-276921247D01*
X306439476Y-276159342D01*
X306558523Y-275968866D01*
X306760904Y-275873628D01*
X307141857Y-275873628D01*
X307320428Y-275968866D01*
X307391857Y-276159342D01*
X307368047Y-276349819D01*
X306391857Y-276540295D01*
X308141857Y-277016485D02*
X308225190Y-277111723D01*
X308118047Y-277206961D01*
X308034714Y-277111723D01*
X308141857Y-277016485D01*
X308118047Y-277206961D01*
X308272809Y-275968866D02*
X308356142Y-276064104D01*
X308249000Y-276159342D01*
X308165666Y-276064104D01*
X308272809Y-275968866D01*
X308249000Y-276159342D01*
X310510904Y-277111723D02*
X310784714Y-277206961D01*
X311260904Y-277206961D01*
X311463285Y-277111723D01*
X311570428Y-277016485D01*
X311689476Y-276826009D01*
X311713285Y-276635533D01*
X311641857Y-276445057D01*
X311558523Y-276349819D01*
X311379952Y-276254580D01*
X311010904Y-276159342D01*
X310832333Y-276064104D01*
X310749000Y-275968866D01*
X310677571Y-275778390D01*
X310701380Y-275587914D01*
X310820428Y-275397438D01*
X310927571Y-275302200D01*
X311129952Y-275206961D01*
X311606142Y-275206961D01*
X311879952Y-275302200D01*
X313272809Y-277111723D02*
X313070428Y-277206961D01*
X312689476Y-277206961D01*
X312510904Y-277111723D01*
X312439476Y-276921247D01*
X312534714Y-276159342D01*
X312653761Y-275968866D01*
X312856142Y-275873628D01*
X313237095Y-275873628D01*
X313415666Y-275968866D01*
X313487095Y-276159342D01*
X313463285Y-276349819D01*
X312487095Y-276540295D01*
X314213285Y-277206961D02*
X314379952Y-275873628D01*
X314332333Y-276254580D02*
X314451380Y-276064104D01*
X314558523Y-275968866D01*
X314760904Y-275873628D01*
X314951380Y-275873628D01*
X315427571Y-275873628D02*
X315737095Y-277206961D01*
X316379952Y-275873628D01*
X317260904Y-277206961D02*
X317082333Y-277111723D01*
X316999000Y-277016485D01*
X316927571Y-276826009D01*
X316999000Y-276254580D01*
X317118047Y-276064104D01*
X317225190Y-275968866D01*
X317427571Y-275873628D01*
X317713285Y-275873628D01*
X317891857Y-275968866D01*
X317975190Y-276064104D01*
X318046619Y-276254580D01*
X317975190Y-276826009D01*
X317856142Y-277016485D01*
X317749000Y-277111723D01*
X317546619Y-277206961D01*
X317260904Y-277206961D01*
X320308523Y-277206961D02*
X320558523Y-275206961D01*
X321034714Y-275206961D01*
X321308523Y-275302200D01*
X321475190Y-275492676D01*
X321546619Y-275683152D01*
X321594238Y-276064104D01*
X321558523Y-276349819D01*
X321415666Y-276730771D01*
X321296619Y-276921247D01*
X321082333Y-277111723D01*
X320784714Y-277206961D01*
X320308523Y-277206961D01*
X322308523Y-277206961D02*
X322475190Y-275873628D01*
X322427571Y-276254580D02*
X322546619Y-276064104D01*
X322653761Y-275968866D01*
X322856142Y-275873628D01*
X323046619Y-275873628D01*
X323546619Y-277206961D02*
X323713285Y-275873628D01*
X323796619Y-275206961D02*
X323689476Y-275302200D01*
X323772809Y-275397438D01*
X323879952Y-275302200D01*
X323796619Y-275206961D01*
X323772809Y-275397438D01*
X324475190Y-275873628D02*
X324784714Y-277206961D01*
X325427571Y-275873628D01*
X326796619Y-277111723D02*
X326594238Y-277206961D01*
X326213285Y-277206961D01*
X326034714Y-277111723D01*
X325963285Y-276921247D01*
X326058523Y-276159342D01*
X326177571Y-275968866D01*
X326379952Y-275873628D01*
X326760904Y-275873628D01*
X326939476Y-275968866D01*
X327010904Y-276159342D01*
X326987095Y-276349819D01*
X326010904Y-276540295D01*
D10*
D11*
X301921142Y-272595057D02*
X301421142Y-272595057D01*
X301421142Y-273380771D02*
X301421142Y-271880771D01*
X302135428Y-271880771D01*
X302706857Y-273380771D02*
X302706857Y-272380771D01*
X302706857Y-271880771D02*
X302635428Y-271952200D01*
X302706857Y-272023628D01*
X302778285Y-271952200D01*
X302706857Y-271880771D01*
X302706857Y-272023628D01*
X303635428Y-273380771D02*
X303492571Y-273309342D01*
X303421142Y-273166485D01*
X303421142Y-271880771D01*
X304778285Y-273309342D02*
X304635428Y-273380771D01*
X304349714Y-273380771D01*
X304206857Y-273309342D01*
X304135428Y-273166485D01*
X304135428Y-272595057D01*
X304206857Y-272452200D01*
X304349714Y-272380771D01*
X304635428Y-272380771D01*
X304778285Y-272452200D01*
X304849714Y-272595057D01*
X304849714Y-272737914D01*
X304135428Y-272880771D01*
X305492571Y-273237914D02*
X305564000Y-273309342D01*
X305492571Y-273380771D01*
X305421142Y-273309342D01*
X305492571Y-273237914D01*
X305492571Y-273380771D01*
X305492571Y-272452200D02*
X305564000Y-272523628D01*
X305492571Y-272595057D01*
X305421142Y-272523628D01*
X305492571Y-272452200D01*
X305492571Y-272595057D01*
X307278285Y-273309342D02*
X307421142Y-273380771D01*
X307706857Y-273380771D01*
X307849714Y-273309342D01*
X307921142Y-273166485D01*
X307921142Y-273095057D01*
X307849714Y-272952200D01*
X307706857Y-272880771D01*
X307492571Y-272880771D01*
X307349714Y-272809342D01*
X307278285Y-272666485D01*
X307278285Y-272595057D01*
X307349714Y-272452200D01*
X307492571Y-272380771D01*
X307706857Y-272380771D01*
X307849714Y-272452200D01*
X309135428Y-273309342D02*
X308992571Y-273380771D01*
X308706857Y-273380771D01*
X308564000Y-273309342D01*
X308492571Y-273166485D01*
X308492571Y-272595057D01*
X308564000Y-272452200D01*
X308706857Y-272380771D01*
X308992571Y-272380771D01*
X309135428Y-272452200D01*
X309206857Y-272595057D01*
X309206857Y-272737914D01*
X308492571Y-272880771D01*
X309849714Y-273380771D02*
X309849714Y-272380771D01*
X309849714Y-272666485D02*
X309921142Y-272523628D01*
X309992571Y-272452200D01*
X310135428Y-272380771D01*
X310278285Y-272380771D01*
X310635428Y-272380771D02*
X310992571Y-273380771D01*
X311349714Y-272380771D01*
X312135428Y-273380771D02*
X311992571Y-273309342D01*
X311921142Y-273237914D01*
X311849714Y-273095057D01*
X311849714Y-272666485D01*
X311921142Y-272523628D01*
X311992571Y-272452200D01*
X312135428Y-272380771D01*
X312349714Y-272380771D01*
X312492571Y-272452200D01*
X312564000Y-272523628D01*
X312635428Y-272666485D01*
X312635428Y-273095057D01*
X312564000Y-273237914D01*
X312492571Y-273309342D01*
X312349714Y-273380771D01*
X312135428Y-273380771D01*
X313278285Y-273237914D02*
X313349714Y-273309342D01*
X313278285Y-273380771D01*
X313206857Y-273309342D01*
X313278285Y-273237914D01*
X313278285Y-273380771D01*
X313992571Y-273380771D02*
X313992571Y-271880771D01*
X314135428Y-272809342D02*
X314564000Y-273380771D01*
X314564000Y-272380771D02*
X313992571Y-272952200D01*
X315206857Y-273380771D02*
X315206857Y-272380771D01*
X315206857Y-271880771D02*
X315135428Y-271952200D01*
X315206857Y-272023628D01*
X315278285Y-271952200D01*
X315206857Y-271880771D01*
X315206857Y-272023628D01*
X316564000Y-273309342D02*
X316421142Y-273380771D01*
X316135428Y-273380771D01*
X315992571Y-273309342D01*
X315921142Y-273237914D01*
X315849714Y-273095057D01*
X315849714Y-272666485D01*
X315921142Y-272523628D01*
X315992571Y-272452200D01*
X316135428Y-272380771D01*
X316421142Y-272380771D01*
X316564000Y-272452200D01*
X317849714Y-273380771D02*
X317849714Y-272595057D01*
X317778285Y-272452200D01*
X317635428Y-272380771D01*
X317349714Y-272380771D01*
X317206857Y-272452200D01*
X317849714Y-273309342D02*
X317706857Y-273380771D01*
X317349714Y-273380771D01*
X317206857Y-273309342D01*
X317135428Y-273166485D01*
X317135428Y-273023628D01*
X317206857Y-272880771D01*
X317349714Y-272809342D01*
X317706857Y-272809342D01*
X317849714Y-272737914D01*
X319206857Y-273380771D02*
X319206857Y-271880771D01*
X319206857Y-273309342D02*
X319064000Y-273380771D01*
X318778285Y-273380771D01*
X318635428Y-273309342D01*
X318564000Y-273237914D01*
X318492571Y-273095057D01*
X318492571Y-272666485D01*
X318564000Y-272523628D01*
X318635428Y-272452200D01*
X318778285Y-272380771D01*
X319064000Y-272380771D01*
X319206857Y-272452200D01*
X319564000Y-273523628D02*
X320706857Y-273523628D01*
X321064000Y-272380771D02*
X321064000Y-273880771D01*
X321064000Y-272452200D02*
X321206857Y-272380771D01*
X321492571Y-272380771D01*
X321635428Y-272452200D01*
X321706857Y-272523628D01*
X321778285Y-272666485D01*
X321778285Y-273095057D01*
X321706857Y-273237914D01*
X321635428Y-273309342D01*
X321492571Y-273380771D01*
X321206857Y-273380771D01*
X321064000Y-273309342D01*
X323064000Y-273309342D02*
X322921142Y-273380771D01*
X322635428Y-273380771D01*
X322492571Y-273309342D01*
X322421142Y-273237914D01*
X322349714Y-273095057D01*
X322349714Y-272666485D01*
X322421142Y-272523628D01*
X322492571Y-272452200D01*
X322635428Y-272380771D01*
X322921142Y-272380771D01*
X323064000Y-272452200D01*
X323706857Y-273380771D02*
X323706857Y-271880771D01*
X323706857Y-272452200D02*
X323849714Y-272380771D01*
X324135428Y-272380771D01*
X324278285Y-272452200D01*
X324349714Y-272523628D01*
X324421142Y-272666485D01*
X324421142Y-273095057D01*
X324349714Y-273237914D01*
X324278285Y-273309342D01*
X324135428Y-273380771D01*
X323849714Y-273380771D01*
X323706857Y-273309342D01*
D10*
D11*
X299989000Y-268502200D02*
X407989000Y-268502200D01*
D10*
D11*
X301349714Y-270609342D02*
X301564000Y-270680771D01*
X301921142Y-270680771D01*
X302064000Y-270609342D01*
X302135428Y-270537914D01*
X302206857Y-270395057D01*
X302206857Y-270252200D01*
X302135428Y-270109342D01*
X302064000Y-270037914D01*
X301921142Y-269966485D01*
X301635428Y-269895057D01*
X301492571Y-269823628D01*
X301421142Y-269752200D01*
X301349714Y-269609342D01*
X301349714Y-269466485D01*
X301421142Y-269323628D01*
X301492571Y-269252200D01*
X301635428Y-269180771D01*
X301992571Y-269180771D01*
X302206857Y-269252200D01*
X302849714Y-270680771D02*
X302849714Y-269180771D01*
X303492571Y-270680771D02*
X303492571Y-269895057D01*
X303421142Y-269752200D01*
X303278285Y-269680771D01*
X303064000Y-269680771D01*
X302921142Y-269752200D01*
X302849714Y-269823628D01*
X304778285Y-270609342D02*
X304635428Y-270680771D01*
X304349714Y-270680771D01*
X304206857Y-270609342D01*
X304135428Y-270466485D01*
X304135428Y-269895057D01*
X304206857Y-269752200D01*
X304349714Y-269680771D01*
X304635428Y-269680771D01*
X304778285Y-269752200D01*
X304849714Y-269895057D01*
X304849714Y-270037914D01*
X304135428Y-270180771D01*
X306064000Y-270609342D02*
X305921142Y-270680771D01*
X305635428Y-270680771D01*
X305492571Y-270609342D01*
X305421142Y-270466485D01*
X305421142Y-269895057D01*
X305492571Y-269752200D01*
X305635428Y-269680771D01*
X305921142Y-269680771D01*
X306064000Y-269752200D01*
X306135428Y-269895057D01*
X306135428Y-270037914D01*
X305421142Y-270180771D01*
X306564000Y-269680771D02*
X307135428Y-269680771D01*
X306778285Y-269180771D02*
X306778285Y-270466485D01*
X306849714Y-270609342D01*
X306992571Y-270680771D01*
X307135428Y-270680771D01*
X307635428Y-270537914D02*
X307706857Y-270609342D01*
X307635428Y-270680771D01*
X307564000Y-270609342D01*
X307635428Y-270537914D01*
X307635428Y-270680771D01*
X307635428Y-269752200D02*
X307706857Y-269823628D01*
X307635428Y-269895057D01*
X307564000Y-269823628D01*
X307635428Y-269752200D01*
X307635428Y-269895057D01*
D10*
D12*
X302184000Y-267680771D02*
X302184000Y-266180771D01*
X302184000Y-267609342D02*
X302041142Y-267680771D01*
X301755428Y-267680771D01*
X301612571Y-267609342D01*
X301541142Y-267537914D01*
X301469714Y-267395057D01*
X301469714Y-266966485D01*
X301541142Y-266823628D01*
X301612571Y-266752200D01*
X301755428Y-266680771D01*
X302041142Y-266680771D01*
X302184000Y-266752200D01*
X303541142Y-267609342D02*
X303398285Y-267680771D01*
X303112571Y-267680771D01*
X302969714Y-267609342D01*
X302898285Y-267537914D01*
X302826857Y-267395057D01*
X302826857Y-266966485D01*
X302898285Y-266823628D01*
X302969714Y-266752200D01*
X303112571Y-266680771D01*
X303398285Y-266680771D01*
X303541142Y-266752200D01*
X304184000Y-267680771D02*
X304184000Y-266680771D01*
X304184000Y-266180771D02*
X304112571Y-266252200D01*
X304184000Y-266323628D01*
X304255428Y-266252200D01*
X304184000Y-266180771D01*
X304184000Y-266323628D01*
D10*
D11*
X301421142Y-264680771D02*
X301421142Y-263180771D01*
X301992571Y-263180771D01*
X302135428Y-263252200D01*
X302206857Y-263323628D01*
X302278285Y-263466485D01*
X302278285Y-263680771D01*
X302206857Y-263823628D01*
X302135428Y-263895057D01*
X301992571Y-263966485D01*
X301421142Y-263966485D01*
X303564000Y-264680771D02*
X303564000Y-263895057D01*
X303492571Y-263752200D01*
X303349714Y-263680771D01*
X303064000Y-263680771D01*
X302921142Y-263752200D01*
X303564000Y-264609342D02*
X303421142Y-264680771D01*
X303064000Y-264680771D01*
X302921142Y-264609342D01*
X302849714Y-264466485D01*
X302849714Y-264323628D01*
X302921142Y-264180771D01*
X303064000Y-264109342D01*
X303421142Y-264109342D01*
X303564000Y-264037914D01*
X304278285Y-264680771D02*
X304278285Y-263180771D01*
X304278285Y-263752200D02*
X304421142Y-263680771D01*
X304706857Y-263680771D01*
X304849714Y-263752200D01*
X304921142Y-263823628D01*
X304992571Y-263966485D01*
X304992571Y-264395057D01*
X304921142Y-264537914D01*
X304849714Y-264609342D01*
X304706857Y-264680771D01*
X304421142Y-264680771D01*
X304278285Y-264609342D01*
X305849714Y-264680771D02*
X305706857Y-264609342D01*
X305635428Y-264466485D01*
X305635428Y-263180771D01*
X306635428Y-264680771D02*
X306492571Y-264609342D01*
X306421142Y-264537914D01*
X306349714Y-264395057D01*
X306349714Y-263966485D01*
X306421142Y-263823628D01*
X306492571Y-263752200D01*
X306635428Y-263680771D01*
X306849714Y-263680771D01*
X306992571Y-263752200D01*
X307064000Y-263823628D01*
X307135428Y-263966485D01*
X307135428Y-264395057D01*
X307064000Y-264537914D01*
X306992571Y-264609342D01*
X306849714Y-264680771D01*
X306635428Y-264680771D01*
X308849714Y-264609342D02*
X309064000Y-264680771D01*
X309421142Y-264680771D01*
X309564000Y-264609342D01*
X309635428Y-264537914D01*
X309706857Y-264395057D01*
X309706857Y-264252200D01*
X309635428Y-264109342D01*
X309564000Y-264037914D01*
X309421142Y-263966485D01*
X309135428Y-263895057D01*
X308992571Y-263823628D01*
X308921142Y-263752200D01*
X308849714Y-263609342D01*
X308849714Y-263466485D01*
X308921142Y-263323628D01*
X308992571Y-263252200D01*
X309135428Y-263180771D01*
X309492571Y-263180771D01*
X309706857Y-263252200D01*
X310564000Y-264680771D02*
X310421142Y-264609342D01*
X310349714Y-264466485D01*
X310349714Y-263180771D01*
X311778285Y-264680771D02*
X311778285Y-263895057D01*
X311706857Y-263752200D01*
X311564000Y-263680771D01*
X311278285Y-263680771D01*
X311135428Y-263752200D01*
X311778285Y-264609342D02*
X311635428Y-264680771D01*
X311278285Y-264680771D01*
X311135428Y-264609342D01*
X311064000Y-264466485D01*
X311064000Y-264323628D01*
X311135428Y-264180771D01*
X311278285Y-264109342D01*
X311635428Y-264109342D01*
X311778285Y-264037914D01*
X312349714Y-263680771D02*
X312706857Y-264680771D01*
X313064000Y-263680771D01*
X313635428Y-264680771D02*
X313635428Y-263180771D01*
X313778285Y-264109342D02*
X314206857Y-264680771D01*
X314206857Y-263680771D02*
X313635428Y-264252200D01*
X314849714Y-264680771D02*
X314849714Y-263680771D01*
X314849714Y-263180771D02*
X314778285Y-263252200D01*
X314849714Y-263323628D01*
X314921142Y-263252200D01*
X314849714Y-263180771D01*
X314849714Y-263323628D01*
X315564000Y-263680771D02*
X315564000Y-264680771D01*
X315564000Y-263823628D02*
X315635428Y-263752200D01*
X315778285Y-263680771D01*
X315992571Y-263680771D01*
X316135428Y-263752200D01*
X316206857Y-263895057D01*
X316206857Y-264680771D01*
D10*
D11*
X319989000Y-278502200D02*
X319989000Y-281502200D01*
D10*
D11*
X383989000Y-278502200D02*
X383989000Y-285002200D01*
D14*
X66666666Y-207500000D02*
G75*
G03X66666666Y-207500000I-1666666J0D01*
G01*
X62500000Y-207500000D02*
X67500000Y-207500000D01*
X65000000Y-205000000D02*
X65000000Y-210000000D01*
X225000000Y-207500000D02*
X65000000Y-207500000D01*
X225000000Y-57500000D02*
X225000000Y-207500000D01*
X65000000Y-57500000D02*
X225000000Y-57500000D01*
X65000000Y-207500000D02*
X65000000Y-57500000D01*
D15*
G04 #@! TO.N,/ac_in/AC_L_C*
G04 #@! TO.C,J701*
G36*
X214413513Y-58738611D02*
X214486318Y-58749411D01*
X214557714Y-58767295D01*
X214627013Y-58792090D01*
X214693548Y-58823559D01*
X214756678Y-58861398D01*
X214815795Y-58905242D01*
X214870330Y-58954670D01*
X214919758Y-59009205D01*
X214963602Y-59068322D01*
X215001441Y-59131452D01*
X215032910Y-59197987D01*
X215057705Y-59267286D01*
X215075589Y-59338682D01*
X215086389Y-59411487D01*
X215090000Y-59485000D01*
X215090000Y-61985000D01*
X215086389Y-62058513D01*
X215075589Y-62131318D01*
X215057705Y-62202714D01*
X215032910Y-62272013D01*
X215001441Y-62338548D01*
X214963602Y-62401678D01*
X214919758Y-62460795D01*
X214870330Y-62515330D01*
X214815795Y-62564758D01*
X214756678Y-62608602D01*
X214693548Y-62646441D01*
X214627013Y-62677910D01*
X214557714Y-62702705D01*
X214486318Y-62720589D01*
X214413513Y-62731389D01*
X214340000Y-62735000D01*
X212840000Y-62735000D01*
X212766487Y-62731389D01*
X212693682Y-62720589D01*
X212622286Y-62702705D01*
X212552987Y-62677910D01*
X212486452Y-62646441D01*
X212423322Y-62608602D01*
X212364205Y-62564758D01*
X212309670Y-62515330D01*
X212260242Y-62460795D01*
X212216398Y-62401678D01*
X212178559Y-62338548D01*
X212147090Y-62272013D01*
X212122295Y-62202714D01*
X212104411Y-62131318D01*
X212093611Y-62058513D01*
X212090000Y-61985000D01*
X212090000Y-59485000D01*
X212093611Y-59411487D01*
X212104411Y-59338682D01*
X212122295Y-59267286D01*
X212147090Y-59197987D01*
X212178559Y-59131452D01*
X212216398Y-59068322D01*
X212260242Y-59009205D01*
X212309670Y-58954670D01*
X212364205Y-58905242D01*
X212423322Y-58861398D01*
X212486452Y-58823559D01*
X212552987Y-58792090D01*
X212622286Y-58767295D01*
X212693682Y-58749411D01*
X212766487Y-58738611D01*
X212840000Y-58735000D01*
X214340000Y-58735000D01*
X214413513Y-58738611D01*
X214413513Y-58738611D01*
G37*
D16*
X213590000Y-60735000D03*
D15*
G04 #@! TO.N,/ac_in/AC_L_H*
G36*
X209333513Y-58738611D02*
X209406318Y-58749411D01*
X209477714Y-58767295D01*
X209547013Y-58792090D01*
X209613548Y-58823559D01*
X209676678Y-58861398D01*
X209735795Y-58905242D01*
X209790330Y-58954670D01*
X209839758Y-59009205D01*
X209883602Y-59068322D01*
X209921441Y-59131452D01*
X209952910Y-59197987D01*
X209977705Y-59267286D01*
X209995589Y-59338682D01*
X210006389Y-59411487D01*
X210010000Y-59485000D01*
X210010000Y-61985000D01*
X210006389Y-62058513D01*
X209995589Y-62131318D01*
X209977705Y-62202714D01*
X209952910Y-62272013D01*
X209921441Y-62338548D01*
X209883602Y-62401678D01*
X209839758Y-62460795D01*
X209790330Y-62515330D01*
X209735795Y-62564758D01*
X209676678Y-62608602D01*
X209613548Y-62646441D01*
X209547013Y-62677910D01*
X209477714Y-62702705D01*
X209406318Y-62720589D01*
X209333513Y-62731389D01*
X209260000Y-62735000D01*
X207760000Y-62735000D01*
X207686487Y-62731389D01*
X207613682Y-62720589D01*
X207542286Y-62702705D01*
X207472987Y-62677910D01*
X207406452Y-62646441D01*
X207343322Y-62608602D01*
X207284205Y-62564758D01*
X207229670Y-62515330D01*
X207180242Y-62460795D01*
X207136398Y-62401678D01*
X207098559Y-62338548D01*
X207067090Y-62272013D01*
X207042295Y-62202714D01*
X207024411Y-62131318D01*
X207013611Y-62058513D01*
X207010000Y-61985000D01*
X207010000Y-59485000D01*
X207013611Y-59411487D01*
X207024411Y-59338682D01*
X207042295Y-59267286D01*
X207067090Y-59197987D01*
X207098559Y-59131452D01*
X207136398Y-59068322D01*
X207180242Y-59009205D01*
X207229670Y-58954670D01*
X207284205Y-58905242D01*
X207343322Y-58861398D01*
X207406452Y-58823559D01*
X207472987Y-58792090D01*
X207542286Y-58767295D01*
X207613682Y-58749411D01*
X207686487Y-58738611D01*
X207760000Y-58735000D01*
X209260000Y-58735000D01*
X209333513Y-58738611D01*
X209333513Y-58738611D01*
G37*
D16*
X208510000Y-60735000D03*
D15*
G04 #@! TO.N,/ac_in/AC_N*
G36*
X204253513Y-58738611D02*
X204326318Y-58749411D01*
X204397714Y-58767295D01*
X204467013Y-58792090D01*
X204533548Y-58823559D01*
X204596678Y-58861398D01*
X204655795Y-58905242D01*
X204710330Y-58954670D01*
X204759758Y-59009205D01*
X204803602Y-59068322D01*
X204841441Y-59131452D01*
X204872910Y-59197987D01*
X204897705Y-59267286D01*
X204915589Y-59338682D01*
X204926389Y-59411487D01*
X204930000Y-59485000D01*
X204930000Y-61985000D01*
X204926389Y-62058513D01*
X204915589Y-62131318D01*
X204897705Y-62202714D01*
X204872910Y-62272013D01*
X204841441Y-62338548D01*
X204803602Y-62401678D01*
X204759758Y-62460795D01*
X204710330Y-62515330D01*
X204655795Y-62564758D01*
X204596678Y-62608602D01*
X204533548Y-62646441D01*
X204467013Y-62677910D01*
X204397714Y-62702705D01*
X204326318Y-62720589D01*
X204253513Y-62731389D01*
X204180000Y-62735000D01*
X202680000Y-62735000D01*
X202606487Y-62731389D01*
X202533682Y-62720589D01*
X202462286Y-62702705D01*
X202392987Y-62677910D01*
X202326452Y-62646441D01*
X202263322Y-62608602D01*
X202204205Y-62564758D01*
X202149670Y-62515330D01*
X202100242Y-62460795D01*
X202056398Y-62401678D01*
X202018559Y-62338548D01*
X201987090Y-62272013D01*
X201962295Y-62202714D01*
X201944411Y-62131318D01*
X201933611Y-62058513D01*
X201930000Y-61985000D01*
X201930000Y-59485000D01*
X201933611Y-59411487D01*
X201944411Y-59338682D01*
X201962295Y-59267286D01*
X201987090Y-59197987D01*
X202018559Y-59131452D01*
X202056398Y-59068322D01*
X202100242Y-59009205D01*
X202149670Y-58954670D01*
X202204205Y-58905242D01*
X202263322Y-58861398D01*
X202326452Y-58823559D01*
X202392987Y-58792090D01*
X202462286Y-58767295D01*
X202533682Y-58749411D01*
X202606487Y-58738611D01*
X202680000Y-58735000D01*
X204180000Y-58735000D01*
X204253513Y-58738611D01*
X204253513Y-58738611D01*
G37*
D16*
X203430000Y-60735000D03*
D15*
G04 #@! TO.N,Earth*
G36*
X199173513Y-58738611D02*
X199246318Y-58749411D01*
X199317714Y-58767295D01*
X199387013Y-58792090D01*
X199453548Y-58823559D01*
X199516678Y-58861398D01*
X199575795Y-58905242D01*
X199630330Y-58954670D01*
X199679758Y-59009205D01*
X199723602Y-59068322D01*
X199761441Y-59131452D01*
X199792910Y-59197987D01*
X199817705Y-59267286D01*
X199835589Y-59338682D01*
X199846389Y-59411487D01*
X199850000Y-59485000D01*
X199850000Y-61985000D01*
X199846389Y-62058513D01*
X199835589Y-62131318D01*
X199817705Y-62202714D01*
X199792910Y-62272013D01*
X199761441Y-62338548D01*
X199723602Y-62401678D01*
X199679758Y-62460795D01*
X199630330Y-62515330D01*
X199575795Y-62564758D01*
X199516678Y-62608602D01*
X199453548Y-62646441D01*
X199387013Y-62677910D01*
X199317714Y-62702705D01*
X199246318Y-62720589D01*
X199173513Y-62731389D01*
X199100000Y-62735000D01*
X197600000Y-62735000D01*
X197526487Y-62731389D01*
X197453682Y-62720589D01*
X197382286Y-62702705D01*
X197312987Y-62677910D01*
X197246452Y-62646441D01*
X197183322Y-62608602D01*
X197124205Y-62564758D01*
X197069670Y-62515330D01*
X197020242Y-62460795D01*
X196976398Y-62401678D01*
X196938559Y-62338548D01*
X196907090Y-62272013D01*
X196882295Y-62202714D01*
X196864411Y-62131318D01*
X196853611Y-62058513D01*
X196850000Y-61985000D01*
X196850000Y-59485000D01*
X196853611Y-59411487D01*
X196864411Y-59338682D01*
X196882295Y-59267286D01*
X196907090Y-59197987D01*
X196938559Y-59131452D01*
X196976398Y-59068322D01*
X197020242Y-59009205D01*
X197069670Y-58954670D01*
X197124205Y-58905242D01*
X197183322Y-58861398D01*
X197246452Y-58823559D01*
X197312987Y-58792090D01*
X197382286Y-58767295D01*
X197453682Y-58749411D01*
X197526487Y-58738611D01*
X197600000Y-58735000D01*
X199100000Y-58735000D01*
X199173513Y-58738611D01*
X199173513Y-58738611D01*
G37*
D16*
X198350000Y-60735000D03*
G04 #@! TD*
D17*
G04 #@! TO.N,ECAT0_RJ_LED1*
G04 #@! TO.C,U404*
X215784200Y-179302800D03*
G04 #@! TO.N,Net-(R445-Pad2)*
X213244200Y-179302800D03*
G04 #@! TO.N,ECAT0_RJ_LED0*
X207404200Y-179302800D03*
G04 #@! TO.N,Net-(R446-Pad2)*
X204864200Y-179302800D03*
G04 #@! TO.N,ECAT1_RJ_LED0*
X216269200Y-204162800D03*
G04 #@! TO.N,Net-(R441-Pad2)*
X214234200Y-204162800D03*
G04 #@! TO.N,ECAT1_RJ_LED1*
X206414200Y-204162800D03*
G04 #@! TO.N,Net-(R442-Pad2)*
X204379200Y-204162800D03*
G04 #@! TO.N,Earth*
X216354200Y-185652800D03*
G04 #@! TO.N,/ethercat/P0_RD_N*
X214344200Y-185652800D03*
G04 #@! TO.N,3V3*
X212334200Y-185652800D03*
G04 #@! TO.N,/ethercat/P0_RD_P*
X210324200Y-185652800D03*
G04 #@! TO.N,/ethercat/P0_TD_N*
X208314200Y-185652800D03*
G04 #@! TO.N,3V3*
X206304200Y-185652800D03*
G04 #@! TO.N,/ethercat/P0_TD_P*
X204294200Y-185652800D03*
G04 #@! TO.N,Earth*
X216354200Y-196062800D03*
G04 #@! TO.N,/ethercat/P1_RD_N*
X214344200Y-196062800D03*
G04 #@! TO.N,3V3*
X212334200Y-196062800D03*
G04 #@! TO.N,/ethercat/P1_RD_P*
X210324200Y-196062800D03*
G04 #@! TO.N,/ethercat/P1_TD_N*
X208314200Y-196062800D03*
G04 #@! TO.N,3V3*
X206304200Y-196062800D03*
G04 #@! TO.N,/ethercat/P1_TD_P*
X204294200Y-196062800D03*
G04 #@! TD*
D18*
G04 #@! TO.N,/ethernet/enet_led0*
G04 #@! TO.C,J201*
X198219200Y-184634800D03*
G04 #@! TO.N,Net-(J201-Pad14)*
X195679200Y-184634800D03*
G04 #@! TO.N,Net-(J201-Pad15)*
X188569200Y-184634800D03*
G04 #@! TO.N,/ethernet/enet_led1*
X186029200Y-184634800D03*
D19*
G04 #@! TO.N,3V3*
X187049200Y-189964800D03*
G04 #@! TO.N,/ethernet/P0_RD_N*
X189079200Y-189964800D03*
G04 #@! TO.N,/ethernet/P0_RD_P*
X191109200Y-189964800D03*
G04 #@! TO.N,/ethernet/P0_TD_N*
X193139200Y-189964800D03*
G04 #@! TO.N,/ethernet/P0_TD_P*
X195169200Y-189964800D03*
G04 #@! TO.N,3V3*
X197199200Y-189964800D03*
D20*
G04 #@! TO.N,Earth*
X198689200Y-201804800D03*
X185559200Y-201804800D03*
D21*
X184069200Y-193694800D03*
X200179200Y-193694800D03*
X200189200Y-204314800D03*
X184059200Y-204314800D03*
D19*
G04 #@! TO.N,GND*
X195629200Y-199104800D03*
G04 #@! TO.N,USB_D+*
X193129200Y-199104800D03*
G04 #@! TO.N,USB_D-*
X191119200Y-199104800D03*
G04 #@! TO.N,USB_VBUS*
X188619200Y-199104800D03*
G04 #@! TD*
D22*
G04 #@! TO.N,GNDI*
G04 #@! TO.C,J1201*
X175303000Y-204292000D03*
X175303000Y-191592000D03*
G04 #@! TO.N,/can rs485/CAN_N_H*
X171493000Y-204292000D03*
G04 #@! TO.N,/can rs485/CAN_P_H*
X167683000Y-204292000D03*
G04 #@! TO.N,5VI*
X163873000Y-204292000D03*
G04 #@! TO.N,/can rs485/RS485_N_H*
X171493000Y-191592000D03*
G04 #@! TO.N,/can rs485/RS485_P_H*
X167683000Y-191592000D03*
G04 #@! TO.N,5VI*
X163873000Y-191592000D03*
G04 #@! TD*
G04 #@! TO.N,GNDI*
G04 #@! TO.C,J1101*
X132711000Y-204292000D03*
X132711000Y-191592000D03*
G04 #@! TO.N,/qep/QEP1_S_N_H*
X128901000Y-204292000D03*
G04 #@! TO.N,/qep/QEP2_S_N_H*
X128901000Y-191592000D03*
G04 #@! TO.N,/qep/QEP1_S_P_H*
X125091000Y-204292000D03*
G04 #@! TO.N,/qep/QEP2_S_P_H*
X125091000Y-191592000D03*
G04 #@! TO.N,/qep/QEP1_I_N_H*
X121281000Y-204292000D03*
G04 #@! TO.N,/qep/QEP2_I_N_H*
X121281000Y-191592000D03*
G04 #@! TO.N,/qep/QEP2_I_P_H*
X117471000Y-191592000D03*
G04 #@! TO.N,/qep/QEP1_I_P_H*
X117471000Y-204292000D03*
G04 #@! TO.N,/qep/QEP1_B_N_H*
X113661000Y-204292000D03*
G04 #@! TO.N,/qep/QEP1_B_P_H*
X109851000Y-204292000D03*
G04 #@! TO.N,/qep/QEP1_A_N_H*
X106041000Y-204292000D03*
G04 #@! TO.N,/qep/QEP1_A_P_H*
X102231000Y-204292000D03*
G04 #@! TO.N,5VI*
X98421000Y-204292000D03*
G04 #@! TO.N,/qep/QEP2_B_N_H*
X113661000Y-191592000D03*
G04 #@! TO.N,/qep/QEP2_B_P_H*
X109851000Y-191592000D03*
G04 #@! TO.N,/qep/QEP2_A_N_H*
X106041000Y-191592000D03*
G04 #@! TO.N,/qep/QEP2_A_P_H*
X102231000Y-191592000D03*
G04 #@! TO.N,5VI*
X98421000Y-191592000D03*
G04 #@! TD*
G04 #@! TO.N,5VI*
G04 #@! TO.C,J1001*
X73275000Y-191592000D03*
G04 #@! TO.N,/step_dir/STEP2_P_H*
X77085000Y-191592000D03*
G04 #@! TO.N,/step_dir/STEP2_N_H*
X80895000Y-191592000D03*
G04 #@! TO.N,/step_dir/DIR2_A_P_H*
X84705000Y-191592000D03*
G04 #@! TO.N,/step_dir/DIR2_A_N_H*
X88515000Y-191592000D03*
G04 #@! TO.N,5VI*
X73275000Y-204292000D03*
G04 #@! TO.N,/step_dir/STEP1_P_H*
X77085000Y-204292000D03*
G04 #@! TO.N,/step_dir/STEP1_N_H*
X80895000Y-204292000D03*
G04 #@! TO.N,/step_dir/DIR1_A_P_H*
X84705000Y-204292000D03*
G04 #@! TO.N,/step_dir/DIR1_A_N_H*
X88515000Y-204292000D03*
G04 #@! TO.N,GNDI*
X92325000Y-204292000D03*
X92325000Y-191592000D03*
G04 #@! TD*
G04 #@! TO.N,5VI*
G04 #@! TO.C,J1901*
X138787000Y-191625000D03*
G04 #@! TO.N,/endat/ENDAT2_CLK_H_P*
X142597000Y-191625000D03*
G04 #@! TO.N,/endat/ENDAT2_CLK_H_N*
X146407000Y-191625000D03*
G04 #@! TO.N,/endat/ENDAT2_DATA_H_P*
X150217000Y-191625000D03*
G04 #@! TO.N,/endat/ENDAT2_DATA_H_N*
X154027000Y-191625000D03*
G04 #@! TO.N,5VI*
X138787000Y-204325000D03*
G04 #@! TO.N,/endat/ENDAT1_CLK_H_P*
X142597000Y-204325000D03*
G04 #@! TO.N,/endat/ENDAT1_CLK_H_N*
X146407000Y-204325000D03*
G04 #@! TO.N,/endat/ENDAT1_DATA_H_P*
X150217000Y-204325000D03*
G04 #@! TO.N,/endat/ENDAT1_DATA_H_N*
X154027000Y-204325000D03*
G04 #@! TO.N,GNDI*
X157837000Y-204325000D03*
X157837000Y-191625000D03*
G04 #@! TD*
D15*
G04 #@! TO.N,/lem/LemB_All_4*
G04 #@! TO.C,J1506*
G36*
X188885513Y-58629611D02*
X188958318Y-58640411D01*
X189029714Y-58658295D01*
X189099013Y-58683090D01*
X189165548Y-58714559D01*
X189228678Y-58752398D01*
X189287795Y-58796242D01*
X189342330Y-58845670D01*
X189391758Y-58900205D01*
X189435602Y-58959322D01*
X189473441Y-59022452D01*
X189504910Y-59088987D01*
X189529705Y-59158286D01*
X189547589Y-59229682D01*
X189558389Y-59302487D01*
X189562000Y-59376000D01*
X189562000Y-61876000D01*
X189558389Y-61949513D01*
X189547589Y-62022318D01*
X189529705Y-62093714D01*
X189504910Y-62163013D01*
X189473441Y-62229548D01*
X189435602Y-62292678D01*
X189391758Y-62351795D01*
X189342330Y-62406330D01*
X189287795Y-62455758D01*
X189228678Y-62499602D01*
X189165548Y-62537441D01*
X189099013Y-62568910D01*
X189029714Y-62593705D01*
X188958318Y-62611589D01*
X188885513Y-62622389D01*
X188812000Y-62626000D01*
X187312000Y-62626000D01*
X187238487Y-62622389D01*
X187165682Y-62611589D01*
X187094286Y-62593705D01*
X187024987Y-62568910D01*
X186958452Y-62537441D01*
X186895322Y-62499602D01*
X186836205Y-62455758D01*
X186781670Y-62406330D01*
X186732242Y-62351795D01*
X186688398Y-62292678D01*
X186650559Y-62229548D01*
X186619090Y-62163013D01*
X186594295Y-62093714D01*
X186576411Y-62022318D01*
X186565611Y-61949513D01*
X186562000Y-61876000D01*
X186562000Y-59376000D01*
X186565611Y-59302487D01*
X186576411Y-59229682D01*
X186594295Y-59158286D01*
X186619090Y-59088987D01*
X186650559Y-59022452D01*
X186688398Y-58959322D01*
X186732242Y-58900205D01*
X186781670Y-58845670D01*
X186836205Y-58796242D01*
X186895322Y-58752398D01*
X186958452Y-58714559D01*
X187024987Y-58683090D01*
X187094286Y-58658295D01*
X187165682Y-58640411D01*
X187238487Y-58629611D01*
X187312000Y-58626000D01*
X188812000Y-58626000D01*
X188885513Y-58629611D01*
X188885513Y-58629611D01*
G37*
D16*
X188062000Y-60626000D03*
D15*
G04 #@! TO.N,/lem/LemB_All_5*
G36*
X183805513Y-58629611D02*
X183878318Y-58640411D01*
X183949714Y-58658295D01*
X184019013Y-58683090D01*
X184085548Y-58714559D01*
X184148678Y-58752398D01*
X184207795Y-58796242D01*
X184262330Y-58845670D01*
X184311758Y-58900205D01*
X184355602Y-58959322D01*
X184393441Y-59022452D01*
X184424910Y-59088987D01*
X184449705Y-59158286D01*
X184467589Y-59229682D01*
X184478389Y-59302487D01*
X184482000Y-59376000D01*
X184482000Y-61876000D01*
X184478389Y-61949513D01*
X184467589Y-62022318D01*
X184449705Y-62093714D01*
X184424910Y-62163013D01*
X184393441Y-62229548D01*
X184355602Y-62292678D01*
X184311758Y-62351795D01*
X184262330Y-62406330D01*
X184207795Y-62455758D01*
X184148678Y-62499602D01*
X184085548Y-62537441D01*
X184019013Y-62568910D01*
X183949714Y-62593705D01*
X183878318Y-62611589D01*
X183805513Y-62622389D01*
X183732000Y-62626000D01*
X182232000Y-62626000D01*
X182158487Y-62622389D01*
X182085682Y-62611589D01*
X182014286Y-62593705D01*
X181944987Y-62568910D01*
X181878452Y-62537441D01*
X181815322Y-62499602D01*
X181756205Y-62455758D01*
X181701670Y-62406330D01*
X181652242Y-62351795D01*
X181608398Y-62292678D01*
X181570559Y-62229548D01*
X181539090Y-62163013D01*
X181514295Y-62093714D01*
X181496411Y-62022318D01*
X181485611Y-61949513D01*
X181482000Y-61876000D01*
X181482000Y-59376000D01*
X181485611Y-59302487D01*
X181496411Y-59229682D01*
X181514295Y-59158286D01*
X181539090Y-59088987D01*
X181570559Y-59022452D01*
X181608398Y-58959322D01*
X181652242Y-58900205D01*
X181701670Y-58845670D01*
X181756205Y-58796242D01*
X181815322Y-58752398D01*
X181878452Y-58714559D01*
X181944987Y-58683090D01*
X182014286Y-58658295D01*
X182085682Y-58640411D01*
X182158487Y-58629611D01*
X182232000Y-58626000D01*
X183732000Y-58626000D01*
X183805513Y-58629611D01*
X183805513Y-58629611D01*
G37*
D16*
X182982000Y-60626000D03*
D15*
G04 #@! TO.N,/lem/LemB_All_1*
G36*
X178725513Y-58629611D02*
X178798318Y-58640411D01*
X178869714Y-58658295D01*
X178939013Y-58683090D01*
X179005548Y-58714559D01*
X179068678Y-58752398D01*
X179127795Y-58796242D01*
X179182330Y-58845670D01*
X179231758Y-58900205D01*
X179275602Y-58959322D01*
X179313441Y-59022452D01*
X179344910Y-59088987D01*
X179369705Y-59158286D01*
X179387589Y-59229682D01*
X179398389Y-59302487D01*
X179402000Y-59376000D01*
X179402000Y-61876000D01*
X179398389Y-61949513D01*
X179387589Y-62022318D01*
X179369705Y-62093714D01*
X179344910Y-62163013D01*
X179313441Y-62229548D01*
X179275602Y-62292678D01*
X179231758Y-62351795D01*
X179182330Y-62406330D01*
X179127795Y-62455758D01*
X179068678Y-62499602D01*
X179005548Y-62537441D01*
X178939013Y-62568910D01*
X178869714Y-62593705D01*
X178798318Y-62611589D01*
X178725513Y-62622389D01*
X178652000Y-62626000D01*
X177152000Y-62626000D01*
X177078487Y-62622389D01*
X177005682Y-62611589D01*
X176934286Y-62593705D01*
X176864987Y-62568910D01*
X176798452Y-62537441D01*
X176735322Y-62499602D01*
X176676205Y-62455758D01*
X176621670Y-62406330D01*
X176572242Y-62351795D01*
X176528398Y-62292678D01*
X176490559Y-62229548D01*
X176459090Y-62163013D01*
X176434295Y-62093714D01*
X176416411Y-62022318D01*
X176405611Y-61949513D01*
X176402000Y-61876000D01*
X176402000Y-59376000D01*
X176405611Y-59302487D01*
X176416411Y-59229682D01*
X176434295Y-59158286D01*
X176459090Y-59088987D01*
X176490559Y-59022452D01*
X176528398Y-58959322D01*
X176572242Y-58900205D01*
X176621670Y-58845670D01*
X176676205Y-58796242D01*
X176735322Y-58752398D01*
X176798452Y-58714559D01*
X176864987Y-58683090D01*
X176934286Y-58658295D01*
X177005682Y-58640411D01*
X177078487Y-58629611D01*
X177152000Y-58626000D01*
X178652000Y-58626000D01*
X178725513Y-58629611D01*
X178725513Y-58629611D01*
G37*
D16*
X177902000Y-60626000D03*
G04 #@! TD*
D15*
G04 #@! TO.N,/lem/LemAV_4*
G04 #@! TO.C,J1501*
G36*
X106469513Y-58629611D02*
X106542318Y-58640411D01*
X106613714Y-58658295D01*
X106683013Y-58683090D01*
X106749548Y-58714559D01*
X106812678Y-58752398D01*
X106871795Y-58796242D01*
X106926330Y-58845670D01*
X106975758Y-58900205D01*
X107019602Y-58959322D01*
X107057441Y-59022452D01*
X107088910Y-59088987D01*
X107113705Y-59158286D01*
X107131589Y-59229682D01*
X107142389Y-59302487D01*
X107146000Y-59376000D01*
X107146000Y-61876000D01*
X107142389Y-61949513D01*
X107131589Y-62022318D01*
X107113705Y-62093714D01*
X107088910Y-62163013D01*
X107057441Y-62229548D01*
X107019602Y-62292678D01*
X106975758Y-62351795D01*
X106926330Y-62406330D01*
X106871795Y-62455758D01*
X106812678Y-62499602D01*
X106749548Y-62537441D01*
X106683013Y-62568910D01*
X106613714Y-62593705D01*
X106542318Y-62611589D01*
X106469513Y-62622389D01*
X106396000Y-62626000D01*
X104896000Y-62626000D01*
X104822487Y-62622389D01*
X104749682Y-62611589D01*
X104678286Y-62593705D01*
X104608987Y-62568910D01*
X104542452Y-62537441D01*
X104479322Y-62499602D01*
X104420205Y-62455758D01*
X104365670Y-62406330D01*
X104316242Y-62351795D01*
X104272398Y-62292678D01*
X104234559Y-62229548D01*
X104203090Y-62163013D01*
X104178295Y-62093714D01*
X104160411Y-62022318D01*
X104149611Y-61949513D01*
X104146000Y-61876000D01*
X104146000Y-59376000D01*
X104149611Y-59302487D01*
X104160411Y-59229682D01*
X104178295Y-59158286D01*
X104203090Y-59088987D01*
X104234559Y-59022452D01*
X104272398Y-58959322D01*
X104316242Y-58900205D01*
X104365670Y-58845670D01*
X104420205Y-58796242D01*
X104479322Y-58752398D01*
X104542452Y-58714559D01*
X104608987Y-58683090D01*
X104678286Y-58658295D01*
X104749682Y-58640411D01*
X104822487Y-58629611D01*
X104896000Y-58626000D01*
X106396000Y-58626000D01*
X106469513Y-58629611D01*
X106469513Y-58629611D01*
G37*
D16*
X105646000Y-60626000D03*
D15*
G04 #@! TO.N,/lem/LemAV_5*
G36*
X101389513Y-58629611D02*
X101462318Y-58640411D01*
X101533714Y-58658295D01*
X101603013Y-58683090D01*
X101669548Y-58714559D01*
X101732678Y-58752398D01*
X101791795Y-58796242D01*
X101846330Y-58845670D01*
X101895758Y-58900205D01*
X101939602Y-58959322D01*
X101977441Y-59022452D01*
X102008910Y-59088987D01*
X102033705Y-59158286D01*
X102051589Y-59229682D01*
X102062389Y-59302487D01*
X102066000Y-59376000D01*
X102066000Y-61876000D01*
X102062389Y-61949513D01*
X102051589Y-62022318D01*
X102033705Y-62093714D01*
X102008910Y-62163013D01*
X101977441Y-62229548D01*
X101939602Y-62292678D01*
X101895758Y-62351795D01*
X101846330Y-62406330D01*
X101791795Y-62455758D01*
X101732678Y-62499602D01*
X101669548Y-62537441D01*
X101603013Y-62568910D01*
X101533714Y-62593705D01*
X101462318Y-62611589D01*
X101389513Y-62622389D01*
X101316000Y-62626000D01*
X99816000Y-62626000D01*
X99742487Y-62622389D01*
X99669682Y-62611589D01*
X99598286Y-62593705D01*
X99528987Y-62568910D01*
X99462452Y-62537441D01*
X99399322Y-62499602D01*
X99340205Y-62455758D01*
X99285670Y-62406330D01*
X99236242Y-62351795D01*
X99192398Y-62292678D01*
X99154559Y-62229548D01*
X99123090Y-62163013D01*
X99098295Y-62093714D01*
X99080411Y-62022318D01*
X99069611Y-61949513D01*
X99066000Y-61876000D01*
X99066000Y-59376000D01*
X99069611Y-59302487D01*
X99080411Y-59229682D01*
X99098295Y-59158286D01*
X99123090Y-59088987D01*
X99154559Y-59022452D01*
X99192398Y-58959322D01*
X99236242Y-58900205D01*
X99285670Y-58845670D01*
X99340205Y-58796242D01*
X99399322Y-58752398D01*
X99462452Y-58714559D01*
X99528987Y-58683090D01*
X99598286Y-58658295D01*
X99669682Y-58640411D01*
X99742487Y-58629611D01*
X99816000Y-58626000D01*
X101316000Y-58626000D01*
X101389513Y-58629611D01*
X101389513Y-58629611D01*
G37*
D16*
X100566000Y-60626000D03*
D15*
G04 #@! TO.N,/lem/LemAV_1*
G36*
X96309513Y-58629611D02*
X96382318Y-58640411D01*
X96453714Y-58658295D01*
X96523013Y-58683090D01*
X96589548Y-58714559D01*
X96652678Y-58752398D01*
X96711795Y-58796242D01*
X96766330Y-58845670D01*
X96815758Y-58900205D01*
X96859602Y-58959322D01*
X96897441Y-59022452D01*
X96928910Y-59088987D01*
X96953705Y-59158286D01*
X96971589Y-59229682D01*
X96982389Y-59302487D01*
X96986000Y-59376000D01*
X96986000Y-61876000D01*
X96982389Y-61949513D01*
X96971589Y-62022318D01*
X96953705Y-62093714D01*
X96928910Y-62163013D01*
X96897441Y-62229548D01*
X96859602Y-62292678D01*
X96815758Y-62351795D01*
X96766330Y-62406330D01*
X96711795Y-62455758D01*
X96652678Y-62499602D01*
X96589548Y-62537441D01*
X96523013Y-62568910D01*
X96453714Y-62593705D01*
X96382318Y-62611589D01*
X96309513Y-62622389D01*
X96236000Y-62626000D01*
X94736000Y-62626000D01*
X94662487Y-62622389D01*
X94589682Y-62611589D01*
X94518286Y-62593705D01*
X94448987Y-62568910D01*
X94382452Y-62537441D01*
X94319322Y-62499602D01*
X94260205Y-62455758D01*
X94205670Y-62406330D01*
X94156242Y-62351795D01*
X94112398Y-62292678D01*
X94074559Y-62229548D01*
X94043090Y-62163013D01*
X94018295Y-62093714D01*
X94000411Y-62022318D01*
X93989611Y-61949513D01*
X93986000Y-61876000D01*
X93986000Y-59376000D01*
X93989611Y-59302487D01*
X94000411Y-59229682D01*
X94018295Y-59158286D01*
X94043090Y-59088987D01*
X94074559Y-59022452D01*
X94112398Y-58959322D01*
X94156242Y-58900205D01*
X94205670Y-58845670D01*
X94260205Y-58796242D01*
X94319322Y-58752398D01*
X94382452Y-58714559D01*
X94448987Y-58683090D01*
X94518286Y-58658295D01*
X94589682Y-58640411D01*
X94662487Y-58629611D01*
X94736000Y-58626000D01*
X96236000Y-58626000D01*
X96309513Y-58629611D01*
X96309513Y-58629611D01*
G37*
D16*
X95486000Y-60626000D03*
G04 #@! TD*
D15*
G04 #@! TO.N,/lem/LemA_All_4*
G04 #@! TO.C,J1502*
G36*
X127073513Y-58629611D02*
X127146318Y-58640411D01*
X127217714Y-58658295D01*
X127287013Y-58683090D01*
X127353548Y-58714559D01*
X127416678Y-58752398D01*
X127475795Y-58796242D01*
X127530330Y-58845670D01*
X127579758Y-58900205D01*
X127623602Y-58959322D01*
X127661441Y-59022452D01*
X127692910Y-59088987D01*
X127717705Y-59158286D01*
X127735589Y-59229682D01*
X127746389Y-59302487D01*
X127750000Y-59376000D01*
X127750000Y-61876000D01*
X127746389Y-61949513D01*
X127735589Y-62022318D01*
X127717705Y-62093714D01*
X127692910Y-62163013D01*
X127661441Y-62229548D01*
X127623602Y-62292678D01*
X127579758Y-62351795D01*
X127530330Y-62406330D01*
X127475795Y-62455758D01*
X127416678Y-62499602D01*
X127353548Y-62537441D01*
X127287013Y-62568910D01*
X127217714Y-62593705D01*
X127146318Y-62611589D01*
X127073513Y-62622389D01*
X127000000Y-62626000D01*
X125500000Y-62626000D01*
X125426487Y-62622389D01*
X125353682Y-62611589D01*
X125282286Y-62593705D01*
X125212987Y-62568910D01*
X125146452Y-62537441D01*
X125083322Y-62499602D01*
X125024205Y-62455758D01*
X124969670Y-62406330D01*
X124920242Y-62351795D01*
X124876398Y-62292678D01*
X124838559Y-62229548D01*
X124807090Y-62163013D01*
X124782295Y-62093714D01*
X124764411Y-62022318D01*
X124753611Y-61949513D01*
X124750000Y-61876000D01*
X124750000Y-59376000D01*
X124753611Y-59302487D01*
X124764411Y-59229682D01*
X124782295Y-59158286D01*
X124807090Y-59088987D01*
X124838559Y-59022452D01*
X124876398Y-58959322D01*
X124920242Y-58900205D01*
X124969670Y-58845670D01*
X125024205Y-58796242D01*
X125083322Y-58752398D01*
X125146452Y-58714559D01*
X125212987Y-58683090D01*
X125282286Y-58658295D01*
X125353682Y-58640411D01*
X125426487Y-58629611D01*
X125500000Y-58626000D01*
X127000000Y-58626000D01*
X127073513Y-58629611D01*
X127073513Y-58629611D01*
G37*
D16*
X126250000Y-60626000D03*
D15*
G04 #@! TO.N,/lem/LemA_All_5*
G36*
X121993513Y-58629611D02*
X122066318Y-58640411D01*
X122137714Y-58658295D01*
X122207013Y-58683090D01*
X122273548Y-58714559D01*
X122336678Y-58752398D01*
X122395795Y-58796242D01*
X122450330Y-58845670D01*
X122499758Y-58900205D01*
X122543602Y-58959322D01*
X122581441Y-59022452D01*
X122612910Y-59088987D01*
X122637705Y-59158286D01*
X122655589Y-59229682D01*
X122666389Y-59302487D01*
X122670000Y-59376000D01*
X122670000Y-61876000D01*
X122666389Y-61949513D01*
X122655589Y-62022318D01*
X122637705Y-62093714D01*
X122612910Y-62163013D01*
X122581441Y-62229548D01*
X122543602Y-62292678D01*
X122499758Y-62351795D01*
X122450330Y-62406330D01*
X122395795Y-62455758D01*
X122336678Y-62499602D01*
X122273548Y-62537441D01*
X122207013Y-62568910D01*
X122137714Y-62593705D01*
X122066318Y-62611589D01*
X121993513Y-62622389D01*
X121920000Y-62626000D01*
X120420000Y-62626000D01*
X120346487Y-62622389D01*
X120273682Y-62611589D01*
X120202286Y-62593705D01*
X120132987Y-62568910D01*
X120066452Y-62537441D01*
X120003322Y-62499602D01*
X119944205Y-62455758D01*
X119889670Y-62406330D01*
X119840242Y-62351795D01*
X119796398Y-62292678D01*
X119758559Y-62229548D01*
X119727090Y-62163013D01*
X119702295Y-62093714D01*
X119684411Y-62022318D01*
X119673611Y-61949513D01*
X119670000Y-61876000D01*
X119670000Y-59376000D01*
X119673611Y-59302487D01*
X119684411Y-59229682D01*
X119702295Y-59158286D01*
X119727090Y-59088987D01*
X119758559Y-59022452D01*
X119796398Y-58959322D01*
X119840242Y-58900205D01*
X119889670Y-58845670D01*
X119944205Y-58796242D01*
X120003322Y-58752398D01*
X120066452Y-58714559D01*
X120132987Y-58683090D01*
X120202286Y-58658295D01*
X120273682Y-58640411D01*
X120346487Y-58629611D01*
X120420000Y-58626000D01*
X121920000Y-58626000D01*
X121993513Y-58629611D01*
X121993513Y-58629611D01*
G37*
D16*
X121170000Y-60626000D03*
D15*
G04 #@! TO.N,/lem/LemA_All_1*
G36*
X116913513Y-58629611D02*
X116986318Y-58640411D01*
X117057714Y-58658295D01*
X117127013Y-58683090D01*
X117193548Y-58714559D01*
X117256678Y-58752398D01*
X117315795Y-58796242D01*
X117370330Y-58845670D01*
X117419758Y-58900205D01*
X117463602Y-58959322D01*
X117501441Y-59022452D01*
X117532910Y-59088987D01*
X117557705Y-59158286D01*
X117575589Y-59229682D01*
X117586389Y-59302487D01*
X117590000Y-59376000D01*
X117590000Y-61876000D01*
X117586389Y-61949513D01*
X117575589Y-62022318D01*
X117557705Y-62093714D01*
X117532910Y-62163013D01*
X117501441Y-62229548D01*
X117463602Y-62292678D01*
X117419758Y-62351795D01*
X117370330Y-62406330D01*
X117315795Y-62455758D01*
X117256678Y-62499602D01*
X117193548Y-62537441D01*
X117127013Y-62568910D01*
X117057714Y-62593705D01*
X116986318Y-62611589D01*
X116913513Y-62622389D01*
X116840000Y-62626000D01*
X115340000Y-62626000D01*
X115266487Y-62622389D01*
X115193682Y-62611589D01*
X115122286Y-62593705D01*
X115052987Y-62568910D01*
X114986452Y-62537441D01*
X114923322Y-62499602D01*
X114864205Y-62455758D01*
X114809670Y-62406330D01*
X114760242Y-62351795D01*
X114716398Y-62292678D01*
X114678559Y-62229548D01*
X114647090Y-62163013D01*
X114622295Y-62093714D01*
X114604411Y-62022318D01*
X114593611Y-61949513D01*
X114590000Y-61876000D01*
X114590000Y-59376000D01*
X114593611Y-59302487D01*
X114604411Y-59229682D01*
X114622295Y-59158286D01*
X114647090Y-59088987D01*
X114678559Y-59022452D01*
X114716398Y-58959322D01*
X114760242Y-58900205D01*
X114809670Y-58845670D01*
X114864205Y-58796242D01*
X114923322Y-58752398D01*
X114986452Y-58714559D01*
X115052987Y-58683090D01*
X115122286Y-58658295D01*
X115193682Y-58640411D01*
X115266487Y-58629611D01*
X115340000Y-58626000D01*
X116840000Y-58626000D01*
X116913513Y-58629611D01*
X116913513Y-58629611D01*
G37*
D16*
X116090000Y-60626000D03*
G04 #@! TD*
D15*
G04 #@! TO.N,/lem/LemBU_4*
G04 #@! TO.C,J1504*
G36*
X147677513Y-58629611D02*
X147750318Y-58640411D01*
X147821714Y-58658295D01*
X147891013Y-58683090D01*
X147957548Y-58714559D01*
X148020678Y-58752398D01*
X148079795Y-58796242D01*
X148134330Y-58845670D01*
X148183758Y-58900205D01*
X148227602Y-58959322D01*
X148265441Y-59022452D01*
X148296910Y-59088987D01*
X148321705Y-59158286D01*
X148339589Y-59229682D01*
X148350389Y-59302487D01*
X148354000Y-59376000D01*
X148354000Y-61876000D01*
X148350389Y-61949513D01*
X148339589Y-62022318D01*
X148321705Y-62093714D01*
X148296910Y-62163013D01*
X148265441Y-62229548D01*
X148227602Y-62292678D01*
X148183758Y-62351795D01*
X148134330Y-62406330D01*
X148079795Y-62455758D01*
X148020678Y-62499602D01*
X147957548Y-62537441D01*
X147891013Y-62568910D01*
X147821714Y-62593705D01*
X147750318Y-62611589D01*
X147677513Y-62622389D01*
X147604000Y-62626000D01*
X146104000Y-62626000D01*
X146030487Y-62622389D01*
X145957682Y-62611589D01*
X145886286Y-62593705D01*
X145816987Y-62568910D01*
X145750452Y-62537441D01*
X145687322Y-62499602D01*
X145628205Y-62455758D01*
X145573670Y-62406330D01*
X145524242Y-62351795D01*
X145480398Y-62292678D01*
X145442559Y-62229548D01*
X145411090Y-62163013D01*
X145386295Y-62093714D01*
X145368411Y-62022318D01*
X145357611Y-61949513D01*
X145354000Y-61876000D01*
X145354000Y-59376000D01*
X145357611Y-59302487D01*
X145368411Y-59229682D01*
X145386295Y-59158286D01*
X145411090Y-59088987D01*
X145442559Y-59022452D01*
X145480398Y-58959322D01*
X145524242Y-58900205D01*
X145573670Y-58845670D01*
X145628205Y-58796242D01*
X145687322Y-58752398D01*
X145750452Y-58714559D01*
X145816987Y-58683090D01*
X145886286Y-58658295D01*
X145957682Y-58640411D01*
X146030487Y-58629611D01*
X146104000Y-58626000D01*
X147604000Y-58626000D01*
X147677513Y-58629611D01*
X147677513Y-58629611D01*
G37*
D16*
X146854000Y-60626000D03*
D15*
G04 #@! TO.N,/lem/LemBU_5*
G36*
X142597513Y-58629611D02*
X142670318Y-58640411D01*
X142741714Y-58658295D01*
X142811013Y-58683090D01*
X142877548Y-58714559D01*
X142940678Y-58752398D01*
X142999795Y-58796242D01*
X143054330Y-58845670D01*
X143103758Y-58900205D01*
X143147602Y-58959322D01*
X143185441Y-59022452D01*
X143216910Y-59088987D01*
X143241705Y-59158286D01*
X143259589Y-59229682D01*
X143270389Y-59302487D01*
X143274000Y-59376000D01*
X143274000Y-61876000D01*
X143270389Y-61949513D01*
X143259589Y-62022318D01*
X143241705Y-62093714D01*
X143216910Y-62163013D01*
X143185441Y-62229548D01*
X143147602Y-62292678D01*
X143103758Y-62351795D01*
X143054330Y-62406330D01*
X142999795Y-62455758D01*
X142940678Y-62499602D01*
X142877548Y-62537441D01*
X142811013Y-62568910D01*
X142741714Y-62593705D01*
X142670318Y-62611589D01*
X142597513Y-62622389D01*
X142524000Y-62626000D01*
X141024000Y-62626000D01*
X140950487Y-62622389D01*
X140877682Y-62611589D01*
X140806286Y-62593705D01*
X140736987Y-62568910D01*
X140670452Y-62537441D01*
X140607322Y-62499602D01*
X140548205Y-62455758D01*
X140493670Y-62406330D01*
X140444242Y-62351795D01*
X140400398Y-62292678D01*
X140362559Y-62229548D01*
X140331090Y-62163013D01*
X140306295Y-62093714D01*
X140288411Y-62022318D01*
X140277611Y-61949513D01*
X140274000Y-61876000D01*
X140274000Y-59376000D01*
X140277611Y-59302487D01*
X140288411Y-59229682D01*
X140306295Y-59158286D01*
X140331090Y-59088987D01*
X140362559Y-59022452D01*
X140400398Y-58959322D01*
X140444242Y-58900205D01*
X140493670Y-58845670D01*
X140548205Y-58796242D01*
X140607322Y-58752398D01*
X140670452Y-58714559D01*
X140736987Y-58683090D01*
X140806286Y-58658295D01*
X140877682Y-58640411D01*
X140950487Y-58629611D01*
X141024000Y-58626000D01*
X142524000Y-58626000D01*
X142597513Y-58629611D01*
X142597513Y-58629611D01*
G37*
D16*
X141774000Y-60626000D03*
D15*
G04 #@! TO.N,/lem/LemBU_1*
G36*
X137517513Y-58629611D02*
X137590318Y-58640411D01*
X137661714Y-58658295D01*
X137731013Y-58683090D01*
X137797548Y-58714559D01*
X137860678Y-58752398D01*
X137919795Y-58796242D01*
X137974330Y-58845670D01*
X138023758Y-58900205D01*
X138067602Y-58959322D01*
X138105441Y-59022452D01*
X138136910Y-59088987D01*
X138161705Y-59158286D01*
X138179589Y-59229682D01*
X138190389Y-59302487D01*
X138194000Y-59376000D01*
X138194000Y-61876000D01*
X138190389Y-61949513D01*
X138179589Y-62022318D01*
X138161705Y-62093714D01*
X138136910Y-62163013D01*
X138105441Y-62229548D01*
X138067602Y-62292678D01*
X138023758Y-62351795D01*
X137974330Y-62406330D01*
X137919795Y-62455758D01*
X137860678Y-62499602D01*
X137797548Y-62537441D01*
X137731013Y-62568910D01*
X137661714Y-62593705D01*
X137590318Y-62611589D01*
X137517513Y-62622389D01*
X137444000Y-62626000D01*
X135944000Y-62626000D01*
X135870487Y-62622389D01*
X135797682Y-62611589D01*
X135726286Y-62593705D01*
X135656987Y-62568910D01*
X135590452Y-62537441D01*
X135527322Y-62499602D01*
X135468205Y-62455758D01*
X135413670Y-62406330D01*
X135364242Y-62351795D01*
X135320398Y-62292678D01*
X135282559Y-62229548D01*
X135251090Y-62163013D01*
X135226295Y-62093714D01*
X135208411Y-62022318D01*
X135197611Y-61949513D01*
X135194000Y-61876000D01*
X135194000Y-59376000D01*
X135197611Y-59302487D01*
X135208411Y-59229682D01*
X135226295Y-59158286D01*
X135251090Y-59088987D01*
X135282559Y-59022452D01*
X135320398Y-58959322D01*
X135364242Y-58900205D01*
X135413670Y-58845670D01*
X135468205Y-58796242D01*
X135527322Y-58752398D01*
X135590452Y-58714559D01*
X135656987Y-58683090D01*
X135726286Y-58658295D01*
X135797682Y-58640411D01*
X135870487Y-58629611D01*
X135944000Y-58626000D01*
X137444000Y-58626000D01*
X137517513Y-58629611D01*
X137517513Y-58629611D01*
G37*
D16*
X136694000Y-60626000D03*
G04 #@! TD*
D15*
G04 #@! TO.N,/lem/LemBV_4*
G04 #@! TO.C,J1505*
G36*
X168281513Y-58629611D02*
X168354318Y-58640411D01*
X168425714Y-58658295D01*
X168495013Y-58683090D01*
X168561548Y-58714559D01*
X168624678Y-58752398D01*
X168683795Y-58796242D01*
X168738330Y-58845670D01*
X168787758Y-58900205D01*
X168831602Y-58959322D01*
X168869441Y-59022452D01*
X168900910Y-59088987D01*
X168925705Y-59158286D01*
X168943589Y-59229682D01*
X168954389Y-59302487D01*
X168958000Y-59376000D01*
X168958000Y-61876000D01*
X168954389Y-61949513D01*
X168943589Y-62022318D01*
X168925705Y-62093714D01*
X168900910Y-62163013D01*
X168869441Y-62229548D01*
X168831602Y-62292678D01*
X168787758Y-62351795D01*
X168738330Y-62406330D01*
X168683795Y-62455758D01*
X168624678Y-62499602D01*
X168561548Y-62537441D01*
X168495013Y-62568910D01*
X168425714Y-62593705D01*
X168354318Y-62611589D01*
X168281513Y-62622389D01*
X168208000Y-62626000D01*
X166708000Y-62626000D01*
X166634487Y-62622389D01*
X166561682Y-62611589D01*
X166490286Y-62593705D01*
X166420987Y-62568910D01*
X166354452Y-62537441D01*
X166291322Y-62499602D01*
X166232205Y-62455758D01*
X166177670Y-62406330D01*
X166128242Y-62351795D01*
X166084398Y-62292678D01*
X166046559Y-62229548D01*
X166015090Y-62163013D01*
X165990295Y-62093714D01*
X165972411Y-62022318D01*
X165961611Y-61949513D01*
X165958000Y-61876000D01*
X165958000Y-59376000D01*
X165961611Y-59302487D01*
X165972411Y-59229682D01*
X165990295Y-59158286D01*
X166015090Y-59088987D01*
X166046559Y-59022452D01*
X166084398Y-58959322D01*
X166128242Y-58900205D01*
X166177670Y-58845670D01*
X166232205Y-58796242D01*
X166291322Y-58752398D01*
X166354452Y-58714559D01*
X166420987Y-58683090D01*
X166490286Y-58658295D01*
X166561682Y-58640411D01*
X166634487Y-58629611D01*
X166708000Y-58626000D01*
X168208000Y-58626000D01*
X168281513Y-58629611D01*
X168281513Y-58629611D01*
G37*
D16*
X167458000Y-60626000D03*
D15*
G04 #@! TO.N,/lem/LemBV_5*
G36*
X163201513Y-58629611D02*
X163274318Y-58640411D01*
X163345714Y-58658295D01*
X163415013Y-58683090D01*
X163481548Y-58714559D01*
X163544678Y-58752398D01*
X163603795Y-58796242D01*
X163658330Y-58845670D01*
X163707758Y-58900205D01*
X163751602Y-58959322D01*
X163789441Y-59022452D01*
X163820910Y-59088987D01*
X163845705Y-59158286D01*
X163863589Y-59229682D01*
X163874389Y-59302487D01*
X163878000Y-59376000D01*
X163878000Y-61876000D01*
X163874389Y-61949513D01*
X163863589Y-62022318D01*
X163845705Y-62093714D01*
X163820910Y-62163013D01*
X163789441Y-62229548D01*
X163751602Y-62292678D01*
X163707758Y-62351795D01*
X163658330Y-62406330D01*
X163603795Y-62455758D01*
X163544678Y-62499602D01*
X163481548Y-62537441D01*
X163415013Y-62568910D01*
X163345714Y-62593705D01*
X163274318Y-62611589D01*
X163201513Y-62622389D01*
X163128000Y-62626000D01*
X161628000Y-62626000D01*
X161554487Y-62622389D01*
X161481682Y-62611589D01*
X161410286Y-62593705D01*
X161340987Y-62568910D01*
X161274452Y-62537441D01*
X161211322Y-62499602D01*
X161152205Y-62455758D01*
X161097670Y-62406330D01*
X161048242Y-62351795D01*
X161004398Y-62292678D01*
X160966559Y-62229548D01*
X160935090Y-62163013D01*
X160910295Y-62093714D01*
X160892411Y-62022318D01*
X160881611Y-61949513D01*
X160878000Y-61876000D01*
X160878000Y-59376000D01*
X160881611Y-59302487D01*
X160892411Y-59229682D01*
X160910295Y-59158286D01*
X160935090Y-59088987D01*
X160966559Y-59022452D01*
X161004398Y-58959322D01*
X161048242Y-58900205D01*
X161097670Y-58845670D01*
X161152205Y-58796242D01*
X161211322Y-58752398D01*
X161274452Y-58714559D01*
X161340987Y-58683090D01*
X161410286Y-58658295D01*
X161481682Y-58640411D01*
X161554487Y-58629611D01*
X161628000Y-58626000D01*
X163128000Y-58626000D01*
X163201513Y-58629611D01*
X163201513Y-58629611D01*
G37*
D16*
X162378000Y-60626000D03*
D15*
G04 #@! TO.N,/lem/LemBV_1*
G36*
X158121513Y-58629611D02*
X158194318Y-58640411D01*
X158265714Y-58658295D01*
X158335013Y-58683090D01*
X158401548Y-58714559D01*
X158464678Y-58752398D01*
X158523795Y-58796242D01*
X158578330Y-58845670D01*
X158627758Y-58900205D01*
X158671602Y-58959322D01*
X158709441Y-59022452D01*
X158740910Y-59088987D01*
X158765705Y-59158286D01*
X158783589Y-59229682D01*
X158794389Y-59302487D01*
X158798000Y-59376000D01*
X158798000Y-61876000D01*
X158794389Y-61949513D01*
X158783589Y-62022318D01*
X158765705Y-62093714D01*
X158740910Y-62163013D01*
X158709441Y-62229548D01*
X158671602Y-62292678D01*
X158627758Y-62351795D01*
X158578330Y-62406330D01*
X158523795Y-62455758D01*
X158464678Y-62499602D01*
X158401548Y-62537441D01*
X158335013Y-62568910D01*
X158265714Y-62593705D01*
X158194318Y-62611589D01*
X158121513Y-62622389D01*
X158048000Y-62626000D01*
X156548000Y-62626000D01*
X156474487Y-62622389D01*
X156401682Y-62611589D01*
X156330286Y-62593705D01*
X156260987Y-62568910D01*
X156194452Y-62537441D01*
X156131322Y-62499602D01*
X156072205Y-62455758D01*
X156017670Y-62406330D01*
X155968242Y-62351795D01*
X155924398Y-62292678D01*
X155886559Y-62229548D01*
X155855090Y-62163013D01*
X155830295Y-62093714D01*
X155812411Y-62022318D01*
X155801611Y-61949513D01*
X155798000Y-61876000D01*
X155798000Y-59376000D01*
X155801611Y-59302487D01*
X155812411Y-59229682D01*
X155830295Y-59158286D01*
X155855090Y-59088987D01*
X155886559Y-59022452D01*
X155924398Y-58959322D01*
X155968242Y-58900205D01*
X156017670Y-58845670D01*
X156072205Y-58796242D01*
X156131322Y-58752398D01*
X156194452Y-58714559D01*
X156260987Y-58683090D01*
X156330286Y-58658295D01*
X156401682Y-58640411D01*
X156474487Y-58629611D01*
X156548000Y-58626000D01*
X158048000Y-58626000D01*
X158121513Y-58629611D01*
X158121513Y-58629611D01*
G37*
D16*
X157298000Y-60626000D03*
G04 #@! TD*
D15*
G04 #@! TO.N,/lem/LemAU_4*
G04 #@! TO.C,J1503*
G36*
X85865513Y-58629611D02*
X85938318Y-58640411D01*
X86009714Y-58658295D01*
X86079013Y-58683090D01*
X86145548Y-58714559D01*
X86208678Y-58752398D01*
X86267795Y-58796242D01*
X86322330Y-58845670D01*
X86371758Y-58900205D01*
X86415602Y-58959322D01*
X86453441Y-59022452D01*
X86484910Y-59088987D01*
X86509705Y-59158286D01*
X86527589Y-59229682D01*
X86538389Y-59302487D01*
X86542000Y-59376000D01*
X86542000Y-61876000D01*
X86538389Y-61949513D01*
X86527589Y-62022318D01*
X86509705Y-62093714D01*
X86484910Y-62163013D01*
X86453441Y-62229548D01*
X86415602Y-62292678D01*
X86371758Y-62351795D01*
X86322330Y-62406330D01*
X86267795Y-62455758D01*
X86208678Y-62499602D01*
X86145548Y-62537441D01*
X86079013Y-62568910D01*
X86009714Y-62593705D01*
X85938318Y-62611589D01*
X85865513Y-62622389D01*
X85792000Y-62626000D01*
X84292000Y-62626000D01*
X84218487Y-62622389D01*
X84145682Y-62611589D01*
X84074286Y-62593705D01*
X84004987Y-62568910D01*
X83938452Y-62537441D01*
X83875322Y-62499602D01*
X83816205Y-62455758D01*
X83761670Y-62406330D01*
X83712242Y-62351795D01*
X83668398Y-62292678D01*
X83630559Y-62229548D01*
X83599090Y-62163013D01*
X83574295Y-62093714D01*
X83556411Y-62022318D01*
X83545611Y-61949513D01*
X83542000Y-61876000D01*
X83542000Y-59376000D01*
X83545611Y-59302487D01*
X83556411Y-59229682D01*
X83574295Y-59158286D01*
X83599090Y-59088987D01*
X83630559Y-59022452D01*
X83668398Y-58959322D01*
X83712242Y-58900205D01*
X83761670Y-58845670D01*
X83816205Y-58796242D01*
X83875322Y-58752398D01*
X83938452Y-58714559D01*
X84004987Y-58683090D01*
X84074286Y-58658295D01*
X84145682Y-58640411D01*
X84218487Y-58629611D01*
X84292000Y-58626000D01*
X85792000Y-58626000D01*
X85865513Y-58629611D01*
X85865513Y-58629611D01*
G37*
D16*
X85042000Y-60626000D03*
D15*
G04 #@! TO.N,/lem/LemAU_5*
G36*
X80785513Y-58629611D02*
X80858318Y-58640411D01*
X80929714Y-58658295D01*
X80999013Y-58683090D01*
X81065548Y-58714559D01*
X81128678Y-58752398D01*
X81187795Y-58796242D01*
X81242330Y-58845670D01*
X81291758Y-58900205D01*
X81335602Y-58959322D01*
X81373441Y-59022452D01*
X81404910Y-59088987D01*
X81429705Y-59158286D01*
X81447589Y-59229682D01*
X81458389Y-59302487D01*
X81462000Y-59376000D01*
X81462000Y-61876000D01*
X81458389Y-61949513D01*
X81447589Y-62022318D01*
X81429705Y-62093714D01*
X81404910Y-62163013D01*
X81373441Y-62229548D01*
X81335602Y-62292678D01*
X81291758Y-62351795D01*
X81242330Y-62406330D01*
X81187795Y-62455758D01*
X81128678Y-62499602D01*
X81065548Y-62537441D01*
X80999013Y-62568910D01*
X80929714Y-62593705D01*
X80858318Y-62611589D01*
X80785513Y-62622389D01*
X80712000Y-62626000D01*
X79212000Y-62626000D01*
X79138487Y-62622389D01*
X79065682Y-62611589D01*
X78994286Y-62593705D01*
X78924987Y-62568910D01*
X78858452Y-62537441D01*
X78795322Y-62499602D01*
X78736205Y-62455758D01*
X78681670Y-62406330D01*
X78632242Y-62351795D01*
X78588398Y-62292678D01*
X78550559Y-62229548D01*
X78519090Y-62163013D01*
X78494295Y-62093714D01*
X78476411Y-62022318D01*
X78465611Y-61949513D01*
X78462000Y-61876000D01*
X78462000Y-59376000D01*
X78465611Y-59302487D01*
X78476411Y-59229682D01*
X78494295Y-59158286D01*
X78519090Y-59088987D01*
X78550559Y-59022452D01*
X78588398Y-58959322D01*
X78632242Y-58900205D01*
X78681670Y-58845670D01*
X78736205Y-58796242D01*
X78795322Y-58752398D01*
X78858452Y-58714559D01*
X78924987Y-58683090D01*
X78994286Y-58658295D01*
X79065682Y-58640411D01*
X79138487Y-58629611D01*
X79212000Y-58626000D01*
X80712000Y-58626000D01*
X80785513Y-58629611D01*
X80785513Y-58629611D01*
G37*
D16*
X79962000Y-60626000D03*
D15*
G04 #@! TO.N,/lem/LemAU_1*
G36*
X75705513Y-58629611D02*
X75778318Y-58640411D01*
X75849714Y-58658295D01*
X75919013Y-58683090D01*
X75985548Y-58714559D01*
X76048678Y-58752398D01*
X76107795Y-58796242D01*
X76162330Y-58845670D01*
X76211758Y-58900205D01*
X76255602Y-58959322D01*
X76293441Y-59022452D01*
X76324910Y-59088987D01*
X76349705Y-59158286D01*
X76367589Y-59229682D01*
X76378389Y-59302487D01*
X76382000Y-59376000D01*
X76382000Y-61876000D01*
X76378389Y-61949513D01*
X76367589Y-62022318D01*
X76349705Y-62093714D01*
X76324910Y-62163013D01*
X76293441Y-62229548D01*
X76255602Y-62292678D01*
X76211758Y-62351795D01*
X76162330Y-62406330D01*
X76107795Y-62455758D01*
X76048678Y-62499602D01*
X75985548Y-62537441D01*
X75919013Y-62568910D01*
X75849714Y-62593705D01*
X75778318Y-62611589D01*
X75705513Y-62622389D01*
X75632000Y-62626000D01*
X74132000Y-62626000D01*
X74058487Y-62622389D01*
X73985682Y-62611589D01*
X73914286Y-62593705D01*
X73844987Y-62568910D01*
X73778452Y-62537441D01*
X73715322Y-62499602D01*
X73656205Y-62455758D01*
X73601670Y-62406330D01*
X73552242Y-62351795D01*
X73508398Y-62292678D01*
X73470559Y-62229548D01*
X73439090Y-62163013D01*
X73414295Y-62093714D01*
X73396411Y-62022318D01*
X73385611Y-61949513D01*
X73382000Y-61876000D01*
X73382000Y-59376000D01*
X73385611Y-59302487D01*
X73396411Y-59229682D01*
X73414295Y-59158286D01*
X73439090Y-59088987D01*
X73470559Y-59022452D01*
X73508398Y-58959322D01*
X73552242Y-58900205D01*
X73601670Y-58845670D01*
X73656205Y-58796242D01*
X73715322Y-58752398D01*
X73778452Y-58714559D01*
X73844987Y-58683090D01*
X73914286Y-58658295D01*
X73985682Y-58640411D01*
X74058487Y-58629611D01*
X74132000Y-58626000D01*
X75632000Y-58626000D01*
X75705513Y-58629611D01*
X75705513Y-58629611D01*
G37*
D16*
X74882000Y-60626000D03*
G04 #@! TD*
D18*
G04 #@! TO.N,GNDP*
G04 #@! TO.C,JP703*
X105004212Y-149451599D03*
G04 #@! TO.N,GNDI*
X118000977Y-185159919D03*
G04 #@! TD*
G04 #@! TO.N,5VP*
G04 #@! TO.C,JP704*
X107352091Y-146213442D03*
G04 #@! TO.N,5VI*
X122400977Y-187559917D03*
G04 #@! TD*
D23*
G04 #@! TO.N,GNDH*
G04 #@! TO.C,PS702*
X176995000Y-130710000D03*
G04 #@! TO.N,/ac_in/AC_L_H_FUSE*
X215495000Y-130710000D03*
G04 #@! TO.N,5VH*
X176995000Y-138710000D03*
G04 #@! TO.N,/ac_in/AC_N*
X215495000Y-141460000D03*
G04 #@! TD*
G04 #@! TO.N,GND*
G04 #@! TO.C,PS701*
X176995000Y-103786000D03*
G04 #@! TO.N,/ac_in/AC_L_C_FUSE*
X215495000Y-103786000D03*
G04 #@! TO.N,/ac_in/5VC_IN*
X176995000Y-111786000D03*
G04 #@! TO.N,/ac_in/AC_N*
X215495000Y-114536000D03*
G04 #@! TD*
D24*
G04 #@! TO.N,3V3*
G04 #@! TO.C,U702*
X169140000Y-103360000D03*
G04 #@! TO.N,GND*
X169140000Y-105900000D03*
D25*
G04 #@! TO.N,5VC*
X169140000Y-108440000D03*
G04 #@! TD*
D26*
G04 #@! TO.N,/lem/LemA_All_5*
G04 #@! TO.C,U1502*
X127620000Y-85998000D03*
D27*
G04 #@! TO.N,/lem/LemA_All_6*
X127620000Y-88788000D03*
G04 #@! TO.N,/lem/LemA_All_4*
X127620000Y-83208000D03*
D28*
G04 #@! TO.N,/lem/LemA_All_3*
X114920000Y-82958000D03*
D27*
G04 #@! TO.N,/lem/LemA_All_1*
X114920000Y-88788000D03*
D26*
G04 #@! TO.N,/lem/LemA_All_2*
X114920000Y-85998000D03*
D29*
G04 #@! TO.N,GND*
X121275080Y-96163080D03*
G04 #@! TO.N,5VC*
X118735080Y-96163080D03*
G04 #@! TO.N,Net-(R1503-Pad1)*
X123815080Y-96163080D03*
G04 #@! TD*
D26*
G04 #@! TO.N,/lem/LemAV_5*
G04 #@! TO.C,U1501*
X106966000Y-85998000D03*
D27*
G04 #@! TO.N,/lem/LemAV_6*
X106966000Y-88788000D03*
G04 #@! TO.N,/lem/LemAV_4*
X106966000Y-83208000D03*
D28*
G04 #@! TO.N,/lem/LemAV_3*
X94266000Y-82958000D03*
D27*
G04 #@! TO.N,/lem/LemAV_1*
X94266000Y-88788000D03*
D26*
G04 #@! TO.N,/lem/LemAV_2*
X94266000Y-85998000D03*
D29*
G04 #@! TO.N,GND*
X100621080Y-96163080D03*
G04 #@! TO.N,5VC*
X98081080Y-96163080D03*
G04 #@! TO.N,Net-(R1501-Pad1)*
X103161080Y-96163080D03*
G04 #@! TD*
D26*
G04 #@! TO.N,/lem/LemBV_5*
G04 #@! TO.C,U1505*
X168928000Y-85998000D03*
D27*
G04 #@! TO.N,/lem/LemBV_6*
X168928000Y-88788000D03*
G04 #@! TO.N,/lem/LemBV_4*
X168928000Y-83208000D03*
D28*
G04 #@! TO.N,/lem/LemBV_3*
X156228000Y-82958000D03*
D27*
G04 #@! TO.N,/lem/LemBV_1*
X156228000Y-88788000D03*
D26*
G04 #@! TO.N,/lem/LemBV_2*
X156228000Y-85998000D03*
D29*
G04 #@! TO.N,GND*
X162583080Y-96163080D03*
G04 #@! TO.N,5VC*
X160043080Y-96163080D03*
G04 #@! TO.N,Net-(R1509-Pad1)*
X165123080Y-96163080D03*
G04 #@! TD*
D26*
G04 #@! TO.N,/lem/LemBU_5*
G04 #@! TO.C,U1504*
X148274000Y-85998000D03*
D27*
G04 #@! TO.N,/lem/LemBU_6*
X148274000Y-88788000D03*
G04 #@! TO.N,/lem/LemBU_4*
X148274000Y-83208000D03*
D28*
G04 #@! TO.N,/lem/LemBU_3*
X135574000Y-82958000D03*
D27*
G04 #@! TO.N,/lem/LemBU_1*
X135574000Y-88788000D03*
D26*
G04 #@! TO.N,/lem/LemBU_2*
X135574000Y-85998000D03*
D29*
G04 #@! TO.N,GND*
X141929080Y-96163080D03*
G04 #@! TO.N,5VC*
X139389080Y-96163080D03*
G04 #@! TO.N,Net-(R1507-Pad1)*
X144469080Y-96163080D03*
G04 #@! TD*
D26*
G04 #@! TO.N,/lem/LemAU_5*
G04 #@! TO.C,U1503*
X86312000Y-85998000D03*
D27*
G04 #@! TO.N,/lem/LemAU_6*
X86312000Y-88788000D03*
G04 #@! TO.N,/lem/LemAU_4*
X86312000Y-83208000D03*
D28*
G04 #@! TO.N,/lem/LemAU_3*
X73612000Y-82958000D03*
D27*
G04 #@! TO.N,/lem/LemAU_1*
X73612000Y-88788000D03*
D26*
G04 #@! TO.N,/lem/LemAU_2*
X73612000Y-85998000D03*
D29*
G04 #@! TO.N,GND*
X79967080Y-96163080D03*
G04 #@! TO.N,5VC*
X77427080Y-96163080D03*
G04 #@! TO.N,Net-(R1505-Pad1)*
X82507080Y-96163080D03*
G04 #@! TD*
D26*
G04 #@! TO.N,/lem/LemB_All_5*
G04 #@! TO.C,U1506*
X189582000Y-85998000D03*
D27*
G04 #@! TO.N,/lem/LemB_All_6*
X189582000Y-88788000D03*
G04 #@! TO.N,/lem/LemB_All_4*
X189582000Y-83208000D03*
D28*
G04 #@! TO.N,/lem/LemB_All_3*
X176882000Y-82958000D03*
D27*
G04 #@! TO.N,/lem/LemB_All_1*
X176882000Y-88788000D03*
D26*
G04 #@! TO.N,/lem/LemB_All_2*
X176882000Y-85998000D03*
D29*
G04 #@! TO.N,GND*
X183237080Y-96163080D03*
G04 #@! TO.N,5VC*
X180697080Y-96163080D03*
G04 #@! TO.N,Net-(R1511-Pad1)*
X185777080Y-96163080D03*
G04 #@! TD*
D30*
G04 #@! TO.N,GNDB*
G04 #@! TO.C,U1604*
X204065000Y-90025000D03*
D31*
G04 #@! TO.N,Net-(C1610-Pad2)*
X201525000Y-90025000D03*
G04 #@! TO.N,VBUS2_N_H*
X198985000Y-90025000D03*
G04 #@! TO.N,Net-(L1602-Pad1)*
X196445000Y-90025000D03*
G04 #@! TD*
D30*
G04 #@! TO.N,GNDB*
G04 #@! TO.C,U1603*
X204065000Y-78595000D03*
D31*
G04 #@! TO.N,Net-(C1609-Pad2)*
X201525000Y-78595000D03*
G04 #@! TO.N,VBUS1_N_H*
X198985000Y-78595000D03*
G04 #@! TO.N,Net-(L1601-Pad1)*
X196445000Y-78595000D03*
G04 #@! TD*
D32*
G04 #@! TO.N,GND*
G04 #@! TO.C,U403*
X212285200Y-170750600D03*
X213285200Y-170750600D03*
X214285200Y-170750600D03*
X212285200Y-169750600D03*
X213285200Y-169750600D03*
X214285200Y-169750600D03*
X212285200Y-168750600D03*
X213285200Y-168750600D03*
X214285200Y-168750600D03*
G04 #@! TD*
G04 #@! TO.N,GND*
G04 #@! TO.C,U201*
X188490400Y-170750600D03*
X187490400Y-170750600D03*
X186490400Y-170750600D03*
X188490400Y-169750600D03*
X187490400Y-169750600D03*
X186490400Y-169750600D03*
X188490400Y-168750600D03*
X187490400Y-168750600D03*
X186490400Y-168750600D03*
G04 #@! TD*
G04 #@! TO.N,GND*
G04 #@! TO.C,U402*
X200898000Y-170750600D03*
X201898000Y-170750600D03*
X202898000Y-170750600D03*
X200898000Y-169750600D03*
X201898000Y-169750600D03*
X202898000Y-169750600D03*
X200898000Y-168750600D03*
X201898000Y-168750600D03*
X202898000Y-168750600D03*
G04 #@! TD*
D33*
G04 #@! TO.N,/ui/speaker+*
G04 #@! TO.C,J1402*
X117260000Y-109900000D03*
D15*
G04 #@! TO.N,/ui/speaker-*
G36*
X120444505Y-108801204D02*
X120468773Y-108804804D01*
X120492572Y-108810765D01*
X120515671Y-108819030D01*
X120537850Y-108829520D01*
X120558893Y-108842132D01*
X120578599Y-108856747D01*
X120596777Y-108873223D01*
X120613253Y-108891401D01*
X120627868Y-108911107D01*
X120640480Y-108932150D01*
X120650970Y-108954329D01*
X120659235Y-108977428D01*
X120665196Y-109001227D01*
X120668796Y-109025495D01*
X120670000Y-109049999D01*
X120670000Y-110750001D01*
X120668796Y-110774505D01*
X120665196Y-110798773D01*
X120659235Y-110822572D01*
X120650970Y-110845671D01*
X120640480Y-110867850D01*
X120627868Y-110888893D01*
X120613253Y-110908599D01*
X120596777Y-110926777D01*
X120578599Y-110943253D01*
X120558893Y-110957868D01*
X120537850Y-110970480D01*
X120515671Y-110980970D01*
X120492572Y-110989235D01*
X120468773Y-110995196D01*
X120444505Y-110998796D01*
X120420001Y-111000000D01*
X119179999Y-111000000D01*
X119155495Y-110998796D01*
X119131227Y-110995196D01*
X119107428Y-110989235D01*
X119084329Y-110980970D01*
X119062150Y-110970480D01*
X119041107Y-110957868D01*
X119021401Y-110943253D01*
X119003223Y-110926777D01*
X118986747Y-110908599D01*
X118972132Y-110888893D01*
X118959520Y-110867850D01*
X118949030Y-110845671D01*
X118940765Y-110822572D01*
X118934804Y-110798773D01*
X118931204Y-110774505D01*
X118930000Y-110750001D01*
X118930000Y-109049999D01*
X118931204Y-109025495D01*
X118934804Y-109001227D01*
X118940765Y-108977428D01*
X118949030Y-108954329D01*
X118959520Y-108932150D01*
X118972132Y-108911107D01*
X118986747Y-108891401D01*
X119003223Y-108873223D01*
X119021401Y-108856747D01*
X119041107Y-108842132D01*
X119062150Y-108829520D01*
X119084329Y-108819030D01*
X119107428Y-108810765D01*
X119131227Y-108804804D01*
X119155495Y-108801204D01*
X119179999Y-108800000D01*
X120420001Y-108800000D01*
X120444505Y-108801204D01*
X120444505Y-108801204D01*
G37*
D34*
X119800000Y-109900000D03*
G04 #@! TD*
D35*
G04 #@! TO.N,GNDH*
X180400977Y-177359917D03*
D36*
G04 #@! TO.N,GND*
X144100979Y-146059919D03*
D37*
X185650000Y-120378000D03*
D38*
X183913840Y-126686160D03*
X214739800Y-199422800D03*
X209424400Y-200642000D03*
X193016000Y-201023000D03*
X155220800Y-95689200D03*
X175083600Y-95638400D03*
D36*
X140100976Y-142059919D03*
X140900978Y-142059920D03*
X140900978Y-141259918D03*
X140100980Y-141259918D03*
X140100977Y-140459918D03*
X140900979Y-140459919D03*
X140900978Y-139659919D03*
X141700979Y-139659919D03*
X141700978Y-140459919D03*
X142500977Y-140459916D03*
X142500977Y-141259918D03*
X142500977Y-139659918D03*
X141700976Y-141259918D03*
X142500977Y-142059919D03*
X141700977Y-142059917D03*
X140100976Y-139659918D03*
X148100977Y-147659919D03*
X134500977Y-138059920D03*
X138900977Y-132859919D03*
X144900976Y-144459918D03*
X137700977Y-138859919D03*
X137700977Y-144459918D03*
X144900977Y-137259920D03*
X150900977Y-140859919D03*
X140100976Y-147659919D03*
D38*
X123200977Y-115559917D03*
X120542483Y-138681996D03*
D36*
X137700979Y-136459920D03*
X133710367Y-133269307D03*
X149300977Y-149659919D03*
D37*
X118100977Y-102059919D03*
X129800000Y-101900000D03*
X134600000Y-106300000D03*
D38*
X121200977Y-125559917D03*
X175800000Y-117100000D03*
D35*
X155300977Y-101159919D03*
D38*
X170900977Y-144817643D03*
X169300977Y-120059917D03*
D37*
X216500977Y-166459919D03*
D38*
X218000967Y-176695214D03*
X82500977Y-166259917D03*
X95500977Y-172859917D03*
X79900977Y-172859917D03*
X73300977Y-166459917D03*
X96300977Y-166659917D03*
X108900977Y-164459917D03*
X147162498Y-172259907D03*
X160148400Y-172212494D03*
X209300977Y-189059917D03*
X125100977Y-177259917D03*
X130500977Y-176059917D03*
D37*
X158700977Y-138059917D03*
D39*
X132900977Y-147859917D03*
D36*
X138100977Y-132859917D03*
D37*
X151100977Y-133259917D03*
D38*
X172700977Y-171859917D03*
X200834875Y-178121964D03*
X189900956Y-178614302D03*
D37*
X149300977Y-114059919D03*
D35*
X144600977Y-114759919D03*
X71835076Y-99125820D03*
D38*
X132100977Y-97259919D03*
D37*
X124700977Y-106659919D03*
D38*
X195900977Y-169059917D03*
G04 #@! TO.N,5VC*
X115400000Y-104773790D03*
X136100977Y-101036129D03*
X191100977Y-204659917D03*
D35*
X196500977Y-146059917D03*
D36*
G04 #@! TO.N,ECAT0_RX_CLK*
X155700977Y-137259919D03*
X199796135Y-166712673D03*
X158100977Y-166459917D03*
G04 #@! TO.N,ECAT_MDIO*
X196557663Y-153943853D03*
X207700977Y-171459917D03*
X196703980Y-162856914D03*
D37*
X196100977Y-170859919D03*
D36*
G04 #@! TO.N,ECAT1_RJ_LED1*
X193900977Y-153866407D03*
G04 #@! TO.N,LCD_GPIO4*
X147300976Y-141259918D03*
X164500977Y-139259919D03*
G04 #@! TO.N,ECAT0_RX_ER*
X155700977Y-136459919D03*
X198300977Y-160059917D03*
X159100977Y-159659917D03*
G04 #@! TO.N,ECAT0_TX_D2*
X157500977Y-163059917D03*
X155522439Y-138277807D03*
X205640977Y-171129919D03*
G04 #@! TO.N,ECAT0_TX_CLK*
X166100977Y-139859917D03*
X164300977Y-165059917D03*
X205700977Y-167059919D03*
G04 #@! TO.N,LCD_GPIO3*
X146500978Y-141259918D03*
X165700977Y-139059917D03*
G04 #@! TO.N,ENET_CAT_XI*
X156900977Y-142459917D03*
X195100977Y-163859917D03*
X155900977Y-162859917D03*
G04 #@! TO.N,ECAT_EEPROM_SDA*
X154896208Y-167916777D03*
X156300977Y-145059917D03*
X125300977Y-168859919D03*
G04 #@! TO.N,ECAT0_RX_D2*
X203734800Y-166352000D03*
X147300977Y-135659917D03*
X204500977Y-149259917D03*
G04 #@! TO.N,ECAT0_RX_D0*
X202261600Y-160967200D03*
X147300977Y-136459917D03*
X202500977Y-149659917D03*
G04 #@! TO.N,LCD_GPIO0*
X152900977Y-132059919D03*
X164900977Y-133259917D03*
G04 #@! TO.N,ECAT0_TX_D3*
X147300977Y-139659916D03*
X207357663Y-162343853D03*
X208157663Y-151543853D03*
G04 #@! TO.N,ECAT0_TX_D0*
X147300978Y-140459919D03*
X204557663Y-151143853D03*
X205357663Y-162088427D03*
G04 #@! TO.N,LCD_GPIO2*
X147300978Y-137259920D03*
X164500977Y-135659917D03*
G04 #@! TO.N,ECAT_RST*
X147300977Y-142059917D03*
X207700977Y-172459917D03*
D37*
X196700977Y-172059917D03*
D36*
X194700977Y-152059917D03*
G04 #@! TO.N,ECAT_EEPROM_SCL*
X147300978Y-142859920D03*
X146900977Y-168459917D03*
D37*
X124979487Y-175503099D03*
D36*
G04 #@! TO.N,ENDAT1_N_SKEW_CLK*
X143300977Y-172459917D03*
X153300977Y-171859917D03*
X153100977Y-127259919D03*
G04 #@! TO.N,ENDAT1_Y_SKEW_CLK*
X145700977Y-134859918D03*
X143500977Y-168459917D03*
G04 #@! TO.N,ECAT0_RX_D3*
X145700980Y-135659918D03*
X205100977Y-166459917D03*
X162700977Y-127459917D03*
X163700977Y-161859917D03*
G04 #@! TO.N,ECAT0_RX_D1*
X146500978Y-136459920D03*
X203700977Y-162859917D03*
X203300977Y-149259917D03*
G04 #@! TO.N,LCD_SPI_PDW*
X146500977Y-137259917D03*
X164500977Y-130059917D03*
G04 #@! TO.N,ECAT0_RX_DV*
X146500978Y-139659919D03*
X200900977Y-162859917D03*
X199700977Y-149659917D03*
G04 #@! TO.N,ECAT0_TX_D1*
X146500977Y-140459916D03*
X206557663Y-162743853D03*
X206957663Y-151543853D03*
G04 #@! TO.N,LCD_GPIO1*
X147300977Y-134859918D03*
D37*
X167300977Y-134059917D03*
D36*
G04 #@! TO.N,ECAT0_TX_EN*
X146500978Y-142059920D03*
X205900977Y-153259917D03*
X206300977Y-167859919D03*
G04 #@! TO.N,ENDAT2_N_SKEW_CLK*
X144900979Y-134859917D03*
X145300977Y-164059919D03*
G04 #@! TO.N,ENDAT2_Y_SKEW_CLK*
X144891592Y-135669304D03*
X144100977Y-164059919D03*
G04 #@! TO.N,QEP1_A*
X144900977Y-134059919D03*
D39*
X147900977Y-166059919D03*
X88500977Y-172459917D03*
G04 #@! TO.N,QEP1_B*
X87300977Y-172459917D03*
D36*
X143890356Y-128476546D03*
X144100978Y-134859918D03*
X130986173Y-129491336D03*
X131700977Y-165459919D03*
G04 #@! TO.N,ECAT1_RJ_LED0*
X144900978Y-146859920D03*
X190900977Y-157888427D03*
G04 #@! TO.N,ECAT0_RJ_LED0*
X144100979Y-147659919D03*
X192020299Y-157888427D03*
G04 #@! TO.N,FLASH_SPI_MOSI*
X151300977Y-122059919D03*
X149500977Y-168259919D03*
D39*
G04 #@! TO.N,FLASH_SPI_MISO*
X126700977Y-172059917D03*
D36*
X125100977Y-126459917D03*
X142700977Y-124459919D03*
G04 #@! TO.N,FLASH_SPI_CLK*
X142500977Y-134859916D03*
X131900977Y-172459917D03*
G04 #@! TO.N,FLASH_SPI_CS*
X140900977Y-125859919D03*
D39*
X128100977Y-172059917D03*
D36*
X130500977Y-124259917D03*
G04 #@! TO.N,QEP1_S*
X141700977Y-135659919D03*
X142300977Y-158059917D03*
X121041859Y-157488751D03*
G04 #@! TO.N,ENDAT2_MOSI*
X142500977Y-146059916D03*
D37*
G04 #@! TO.N,QEP2_I*
X101710977Y-172429919D03*
D36*
X131596256Y-125495640D03*
X140300977Y-127259919D03*
X129900977Y-165531409D03*
G04 #@! TO.N,QEP2_B*
X140900977Y-126859919D03*
X131300977Y-124685382D03*
D39*
X128900977Y-169859919D03*
D37*
X102980977Y-172429919D03*
D36*
G04 #@! TO.N,QEP2_A*
X140900979Y-134859919D03*
X140900977Y-160659917D03*
X121500977Y-160859917D03*
G04 #@! TO.N,QEP1_I*
X140900978Y-135659918D03*
D39*
X141900977Y-165659919D03*
X86100977Y-172459917D03*
D36*
G04 #@! TO.N,ENDAT2_CLK*
X141700978Y-146059919D03*
G04 #@! TO.N,ENDAT2_CS*
X141700977Y-146859919D03*
X154900977Y-172459917D03*
X145300977Y-171659917D03*
D37*
G04 #@! TO.N,QEP2_S*
X100440977Y-172429919D03*
D36*
X138479775Y-126881119D03*
X131596256Y-126240850D03*
X130700977Y-165059919D03*
G04 #@! TO.N,ENET_MDIO*
X166100977Y-121659919D03*
X193100977Y-168459917D03*
X166300977Y-161259917D03*
G04 #@! TO.N,ENET_PWDN*
X140100980Y-135659918D03*
X159700977Y-133259917D03*
X161700977Y-170459917D03*
G04 #@! TO.N,ENDAT1_CS*
X140900977Y-146059916D03*
G04 #@! TO.N,ENDAT2_MISO*
X157668915Y-172061111D03*
X141100977Y-154859917D03*
X156500977Y-156259917D03*
G04 #@! TO.N,ECAT1_RX_D3*
X217100977Y-161059917D03*
G04 #@! TO.N,ENET_COL*
X164300977Y-119259917D03*
X165700977Y-165059917D03*
G04 #@! TO.N,ENET_RX_DV*
X139300977Y-134859917D03*
X159297974Y-164056914D03*
X157900977Y-133059917D03*
G04 #@! TO.N,ENET_RX_CLK*
X139300978Y-135659917D03*
X159300977Y-132031407D03*
X161700977Y-163059917D03*
G04 #@! TO.N,ENDAT1_MISO*
X140100979Y-146059917D03*
G04 #@! TO.N,ENDAT1_CLK*
X140100978Y-146859919D03*
G04 #@! TO.N,ECAT1_RX_D2*
X215900977Y-161259917D03*
G04 #@! TO.N,ECAT1_RX_D1*
X216500977Y-160459917D03*
G04 #@! TO.N,ENET_CRS*
X154894187Y-121423062D03*
X155100977Y-164459917D03*
G04 #@! TO.N,ENET_RX_D0*
X138900977Y-131059917D03*
X161100977Y-127459917D03*
X163500977Y-165059917D03*
G04 #@! TO.N,ENET_RX_ER*
X138500980Y-136459920D03*
X158900977Y-130859917D03*
X162500977Y-165059917D03*
G04 #@! TO.N,ENDAT1_MOSI*
X139300978Y-146859920D03*
G04 #@! TO.N,ECAT1_RX_D0*
X214500977Y-160059917D03*
G04 #@! TO.N,3V3A*
X137700979Y-138059919D03*
D38*
X139100977Y-121459917D03*
D36*
X139700977Y-130583719D03*
D38*
X133300977Y-121459917D03*
D36*
G04 #@! TO.N,RS485_EN*
X136300977Y-171859917D03*
X139300978Y-146059916D03*
D37*
X170000977Y-175959917D03*
D36*
G04 #@! TO.N,RS485_TX*
X168100977Y-158259917D03*
D37*
X168200977Y-175759917D03*
D36*
G04 #@! TO.N,RS485_RX*
X138500977Y-159259919D03*
X139077935Y-170331409D03*
G04 #@! TO.N,ENET_TX_D1*
X136100979Y-139659919D03*
X134463620Y-170353081D03*
G04 #@! TO.N,ECAT1_TX_EN*
X136100977Y-141259919D03*
X133757663Y-152372363D03*
X215200977Y-153959917D03*
G04 #@! TO.N,CAN_RX*
X136100979Y-142059918D03*
D37*
X169200977Y-174759917D03*
D36*
X167900977Y-151659919D03*
G04 #@! TO.N,ENET_TX_EN*
X136100979Y-142859919D03*
X140700977Y-164859919D03*
G04 #@! TO.N,RUN_LED1*
X136100977Y-144459918D03*
G04 #@! TO.N,ENET_RST*
X136100979Y-145259919D03*
X137300977Y-161459917D03*
G04 #@! TO.N,ECAT1_RX_DV*
X211109900Y-160967200D03*
X136900977Y-146859917D03*
X210700977Y-153859917D03*
G04 #@! TO.N,ECAT1_RX_CLK*
X144597974Y-160556914D03*
G04 #@! TO.N,ECAT1_RX_ER*
X211900977Y-157459917D03*
G04 #@! TO.N,ENET_TX_D2*
X135300978Y-139659919D03*
X133757663Y-170343853D03*
G04 #@! TO.N,ECAT1_TX_CLK*
X136100978Y-140459919D03*
X215804264Y-155831407D03*
X132700977Y-156459917D03*
G04 #@! TO.N,CAN_TX*
X135300979Y-142059920D03*
X135100977Y-156459917D03*
X171100977Y-156259917D03*
D37*
X171000977Y-174959917D03*
D36*
G04 #@! TO.N,ENET_RX_D3*
X135300977Y-142859917D03*
X139900977Y-163859919D03*
G04 #@! TO.N,RUN_LED0*
X135300977Y-144459918D03*
G04 #@! TO.N,ENET_TX_CLK*
X135300978Y-145259919D03*
X139100977Y-164459919D03*
G04 #@! TO.N,ECAT1_TX_D3*
X135100977Y-152459917D03*
X153100977Y-152859917D03*
G04 #@! TO.N,ENET_TX_D3*
X127388998Y-139659918D03*
D39*
X126900977Y-168259917D03*
D36*
G04 #@! TO.N,ECAT1_TX_D0*
X217163849Y-156546431D03*
X127388998Y-141543853D03*
X126194487Y-157065275D03*
G04 #@! TO.N,ENET_RX_D1*
X127388998Y-143459917D03*
X126700977Y-160259917D03*
D37*
G04 #@! TO.N,/uc_clk_dbg/MCU_TRSTn*
X144900977Y-108459919D03*
D36*
X126129487Y-108031409D03*
D37*
G04 #@! TO.N,/uc_clk_dbg/MCU_TCK*
X136900977Y-106831409D03*
D36*
X127071422Y-106033739D03*
G04 #@! TO.N,ECAT1_TX_D2*
X218100977Y-170659917D03*
G04 #@! TO.N,ENET_RX_D2*
X127388998Y-140343853D03*
X126700977Y-161100000D03*
G04 #@! TO.N,/uc_clk_dbg/MCU_TDI*
X128100977Y-107259919D03*
D37*
X138900977Y-106459919D03*
D36*
G04 #@! TO.N,/uc_clk_dbg/MCU_TMS*
X126472467Y-107290383D03*
D37*
X141300977Y-106459919D03*
D36*
G04 #@! TO.N,/uc_clk_dbg/MCU_TDO*
X124600000Y-107900000D03*
D37*
X146900977Y-106259919D03*
D36*
G04 #@! TO.N,ECAT1_TX_D1*
X144300977Y-162259917D03*
D35*
G04 #@! TO.N,3V3*
X183618000Y-111005500D03*
D38*
X208251800Y-183319200D03*
X200686800Y-174581600D03*
X217469175Y-174161297D03*
X209908504Y-174581600D03*
X194641600Y-180982400D03*
X192279500Y-175064300D03*
D36*
X124706994Y-102555606D03*
D38*
X118921600Y-139342762D03*
X198543162Y-162817256D03*
X139700977Y-102459919D03*
D35*
X119000000Y-107100000D03*
D39*
X134500977Y-102059919D03*
D38*
X73000000Y-171100000D03*
X209300977Y-159459917D03*
X190900977Y-164259917D03*
X196300977Y-165459917D03*
X151300977Y-172316779D03*
X79700977Y-166659917D03*
X93100977Y-166459917D03*
X106300977Y-165659917D03*
X90900977Y-172659917D03*
X184950247Y-176573267D03*
X174006235Y-172938814D03*
X205385800Y-176994600D03*
X215900977Y-182059917D03*
X211700977Y-204259917D03*
X209300977Y-163659917D03*
X128488477Y-176309907D03*
X106172618Y-173188276D03*
D35*
X141100977Y-114259917D03*
D38*
X161300977Y-120259917D03*
X163400977Y-172359917D03*
X119700977Y-173259917D03*
X120987797Y-126973097D03*
X121400977Y-113759917D03*
D37*
X214100977Y-176859919D03*
D38*
X187900977Y-176259919D03*
X175800000Y-122300000D03*
X78700977Y-103659919D03*
X72500977Y-103447419D03*
X90100977Y-103447419D03*
X99700977Y-103659919D03*
D37*
X113300977Y-105059919D03*
X129900977Y-106459919D03*
D38*
X138100977Y-172059929D03*
D37*
X209060977Y-168039919D03*
D38*
X119393863Y-151752803D03*
D37*
G04 #@! TO.N,Net-(R201-Pad1)*
X190700977Y-172259919D03*
D36*
G04 #@! TO.N,LEM_B_U*
X133357663Y-112743853D03*
X133700977Y-101459919D03*
G04 #@! TO.N,LEM_B_ALL*
X132100977Y-105659919D03*
G04 #@! TO.N,LEM_A_ALL*
X136100977Y-138059920D03*
X131757663Y-103143853D03*
X131685143Y-112848740D03*
D37*
G04 #@! TO.N,LEM_B_V*
X136600000Y-105500000D03*
D36*
G04 #@! TO.N,LEM_A_V*
X128600000Y-102300000D03*
G04 #@! TO.N,LEM_A_U*
X136100978Y-137259920D03*
G04 #@! TO.N,LCD_AUDIO*
X135329153Y-117143853D03*
X165272467Y-131259917D03*
D39*
X109700977Y-103059919D03*
D36*
X165300977Y-117059919D03*
D35*
G04 #@! TO.N,5VH*
X178200977Y-175959917D03*
D37*
G04 #@! TO.N,Net-(R902-Pad1)*
X75900977Y-101659919D03*
G04 #@! TO.N,Net-(R901-Pad1)*
X74500977Y-100659919D03*
G04 #@! TO.N,Net-(D402-Pad2)*
X118100977Y-148346700D03*
G04 #@! TO.N,Net-(D401-Pad2)*
X118100977Y-150226300D03*
G04 #@! TO.N,Net-(C823-Pad2)*
X110900977Y-118459917D03*
X102800977Y-145759917D03*
G04 #@! TO.N,Net-(C824-Pad2)*
X110900977Y-117259917D03*
X103400977Y-144359917D03*
G04 #@! TO.N,Net-(R423-Pad1)*
X197900977Y-167659919D03*
G04 #@! TO.N,Net-(R421-Pad1)*
X197300977Y-173459919D03*
D36*
G04 #@! TO.N,Net-(R426-Pad1)*
X210100977Y-167259919D03*
G04 #@! TO.N,Net-(R433-Pad2)*
X207900977Y-181459917D03*
D37*
X195300977Y-172859919D03*
G04 #@! TO.N,Net-(D705-Pad2)*
X162300977Y-107259919D03*
G04 #@! TO.N,Net-(D706-Pad2)*
X151800977Y-104359919D03*
G04 #@! TO.N,Net-(R922-Pad1)*
X101900977Y-101059919D03*
G04 #@! TO.N,Net-(R923-Pad1)*
X103100977Y-101659919D03*
D36*
G04 #@! TO.N,Net-(R434-Pad2)*
X207700977Y-173453090D03*
D37*
X209500977Y-202059919D03*
D35*
G04 #@! TO.N,Net-(C1608-Pad2)*
X196064000Y-98280000D03*
D38*
X198096000Y-121394000D03*
G04 #@! TO.N,Net-(C1607-Pad2)*
X197300977Y-114259919D03*
D37*
X197900977Y-85659919D03*
G04 #@! TO.N,Net-(R903-Pad1)*
X83700977Y-100459919D03*
G04 #@! TO.N,Net-(R904-Pad1)*
X84900977Y-101659919D03*
G04 #@! TO.N,Net-(R920-Pad1)*
X92500977Y-100459919D03*
G04 #@! TO.N,Net-(R921-Pad1)*
X93700977Y-101459919D03*
D36*
G04 #@! TO.N,USB_D-*
X182700977Y-155659917D03*
G04 #@! TO.N,USB_D+*
X183974037Y-155245659D03*
G04 #@! TO.N,FAN_RPM1*
X122129487Y-124476150D03*
X141100977Y-155659917D03*
D39*
X123100977Y-155459919D03*
D36*
G04 #@! TO.N,IGBT_ALARM1*
X123900977Y-153459917D03*
X141100977Y-153859917D03*
X123970977Y-124059919D03*
G04 #@! TO.N,IGBT_ALARM2*
X138500978Y-146859919D03*
X122500977Y-117659919D03*
X123301973Y-154614985D03*
G04 #@! TO.N,FAN_RPM2*
X136900977Y-146059916D03*
X122700977Y-152459917D03*
D37*
G04 #@! TO.N,FAN_RPM2_H*
X98400977Y-145422400D03*
G04 #@! TO.N,IGBT_ALARM2_H*
X96000977Y-145359917D03*
D36*
G04 #@! TO.N,DIR2*
X151672467Y-151543853D03*
D37*
X97900977Y-172429919D03*
D39*
X151700977Y-166659919D03*
D36*
G04 #@! TO.N,STEP2*
X150957663Y-151943853D03*
D39*
X150900977Y-167859919D03*
D37*
X99170977Y-172429919D03*
D36*
G04 #@! TO.N,STEP1*
X148100977Y-148459919D03*
X121900977Y-153259917D03*
G04 #@! TO.N,DIR1*
X149583673Y-151979886D03*
D39*
X82039849Y-172459917D03*
D36*
X148900977Y-162418707D03*
D37*
G04 #@! TO.N,STEP1_H*
X75000000Y-188700000D03*
G04 #@! TO.N,DIR1_H*
X76200000Y-181500000D03*
G04 #@! TO.N,DIR2_H*
X84499990Y-187900000D03*
G04 #@! TO.N,STEP2_H*
X77400000Y-188700000D03*
D36*
G04 #@! TO.N,DACB_DBG*
X135412879Y-114859919D03*
D37*
X147400977Y-113959919D03*
D39*
X109440977Y-100229919D03*
D36*
X133100977Y-100659919D03*
D37*
G04 #@! TO.N,/endat/ENDAT1_CS_H*
X143100977Y-181459919D03*
G04 #@! TO.N,/endat/ENDAT1_CLK_H*
X138300977Y-188459919D03*
G04 #@! TO.N,/endat/ENDAT1_MISO_H*
X144500977Y-181659919D03*
G04 #@! TO.N,/endat/ENDAT2_MOSI_H*
X158800977Y-189159917D03*
D40*
G04 #@! TO.N,/endat/ENDAT2_CS_H*
X156200000Y-181500000D03*
D37*
G04 #@! TO.N,/endat/ENDAT2_CLK_H*
X151500977Y-186259919D03*
D40*
G04 #@! TO.N,/endat/ENDAT2_MISO_H*
X157800000Y-181900000D03*
D36*
G04 #@! TO.N,ENET_MDCLK*
X141700978Y-134859919D03*
X159300977Y-134059917D03*
X160500977Y-161459917D03*
G04 #@! TO.N,ECAT_MDCLK*
X146500977Y-142859917D03*
X164900977Y-161259917D03*
X165900977Y-145859917D03*
G04 #@! TO.N,ECAT_LED_ERR*
X145700978Y-146859920D03*
X121200977Y-147259919D03*
G04 #@! TO.N,ECAT_LED_RUN*
X121300977Y-154059917D03*
X146800977Y-155559917D03*
D37*
G04 #@! TO.N,/ethernet/enet_led0*
X199100977Y-182859919D03*
D36*
G04 #@! TO.N,/ethernet/enet_led1*
X182500977Y-162659917D03*
G04 #@! TO.N,/ethernet/clk_xi*
X190700977Y-167459917D03*
G04 #@! TO.N,/ethercat/ecat0_col*
X202100977Y-165259917D03*
G04 #@! TO.N,/ethercat/ecat0_crs*
X200737600Y-165844000D03*
G04 #@! TO.N,/ethercat/ecat1_col*
X213100977Y-157459917D03*
G04 #@! TO.N,/ethercat/ecat1_crs*
X210500977Y-157459917D03*
D37*
G04 #@! TO.N,1-WIRE_P_H*
X77400977Y-147959917D03*
G04 #@! TO.N,1-WIRE_N_H*
X78664002Y-147896894D03*
D38*
G04 #@! TO.N,VBUS1_N_H*
X196400977Y-120015958D03*
G04 #@! TO.N,VBUS2_N_H*
X207000000Y-73100000D03*
X197800000Y-127100000D03*
D37*
G04 #@! TO.N,NTC1_2_H*
X81600977Y-119959917D03*
G04 #@! TO.N,NTC1_1_H*
X74000977Y-119959917D03*
G04 #@! TO.N,BRK_RES1_H*
X81600977Y-122559917D03*
G04 #@! TO.N,BRK_MEC1_H*
X74000977Y-122559917D03*
G04 #@! TO.N,IGBT1_WL_H*
X83500977Y-127559917D03*
G04 #@! TO.N,SD_CLK_OUT1_H*
X74000977Y-137759917D03*
G04 #@! TO.N,IGBT1_WH_H*
X83500977Y-130119917D03*
G04 #@! TO.N,SD_CLK_IN1_H*
X77000977Y-140359917D03*
G04 #@! TO.N,IGBT1_VL_H*
X83500977Y-132679917D03*
G04 #@! TO.N,SD1_A_H*
X77000977Y-135237000D03*
G04 #@! TO.N,IGBT1_VH_H*
X83500977Y-135239917D03*
G04 #@! TO.N,SD1_W_H*
X77000977Y-132697000D03*
G04 #@! TO.N,IGBT1_UL_H*
X83500977Y-137799917D03*
G04 #@! TO.N,SD1_V_H*
X77000977Y-130157000D03*
G04 #@! TO.N,IGBT1_UH_H*
X83500977Y-140359917D03*
G04 #@! TO.N,SD1_U_H*
X77000977Y-127559917D03*
G04 #@! TO.N,FREE_OUT1_2_H*
X81600977Y-117359917D03*
G04 #@! TO.N,FREE_OUT1_1_H*
X74000977Y-117359917D03*
G04 #@! TO.N,FREE_OUT2_1_H*
X91400977Y-117359917D03*
G04 #@! TO.N,FREE_OUT2_2_H*
X98800977Y-117359917D03*
G04 #@! TO.N,SD2_U_H*
X91200977Y-127559917D03*
G04 #@! TO.N,IGBT2_UH_H*
X98300977Y-140313300D03*
G04 #@! TO.N,SD2_V_H*
X91200977Y-130159917D03*
G04 #@! TO.N,IGBT2_UL_H*
X98300977Y-137769371D03*
G04 #@! TO.N,SD2_W_H*
X91200977Y-132559917D03*
G04 #@! TO.N,IGBT2_VH_H*
X98300977Y-135225445D03*
G04 #@! TO.N,SD2_A_H*
X91200977Y-135237000D03*
G04 #@! TO.N,IGBT2_VL_H*
X98300977Y-132681519D03*
G04 #@! TO.N,SD_CLK_IN2_H*
X91200977Y-140359917D03*
G04 #@! TO.N,IGBT2_WH_H*
X98300977Y-130137593D03*
G04 #@! TO.N,SD_CLK_OUT2_H*
X91600977Y-137759917D03*
G04 #@! TO.N,IGBT2_WL_H*
X98300977Y-127593667D03*
G04 #@! TO.N,BRK_MEC2_H*
X91400977Y-122559917D03*
G04 #@! TO.N,BRK_RES2_H*
X98800977Y-122559917D03*
G04 #@! TO.N,NTC2_1_H*
X90800977Y-119959917D03*
G04 #@! TO.N,NTC2_2_H*
X99000977Y-119959917D03*
D36*
G04 #@! TO.N,NTC2_1_N*
X137710366Y-134850532D03*
X123400000Y-108700000D03*
X136900977Y-113259917D03*
G04 #@! TO.N,NTC2_1_P*
X134500977Y-109259919D03*
X123500977Y-104259919D03*
G04 #@! TO.N,NTC2_2_N*
X137700979Y-135659918D03*
X122157663Y-101543853D03*
X136900977Y-111659919D03*
X124200000Y-109500000D03*
G04 #@! TO.N,NTC2_2_P*
X136900978Y-135659919D03*
G04 #@! TO.N,NTC1_1_N*
X133700977Y-110059919D03*
D39*
X121000000Y-105100000D03*
D37*
X81300977Y-101459919D03*
D36*
G04 #@! TO.N,NTC1_1_P*
X134157663Y-113543853D03*
D39*
X118200000Y-105100000D03*
D37*
X82300977Y-100859919D03*
D36*
G04 #@! TO.N,NTC1_2_N*
X136100978Y-134859919D03*
G04 #@! TO.N,NTC1_2_P*
X132500977Y-101259919D03*
X120900977Y-103259919D03*
G04 #@! TO.N,VBUS1_N*
X125700977Y-119259919D03*
D37*
X177300977Y-118459917D03*
D36*
X127388998Y-138859917D03*
G04 #@! TO.N,VBUS1_P*
X136900977Y-138059919D03*
D37*
X177700977Y-116459917D03*
D36*
X132700977Y-115659917D03*
G04 #@! TO.N,VBUS2_N*
X133300977Y-136459919D03*
D37*
X174200977Y-122159919D03*
D36*
G04 #@! TO.N,VBUS2_P*
X134500977Y-136459917D03*
D37*
X177400000Y-121500000D03*
D36*
G04 #@! TO.N,SD1_A*
X127388998Y-148459917D03*
X127230352Y-162383856D03*
G04 #@! TO.N,FREE_OUT1_1*
X124100977Y-118459917D03*
X122269001Y-149254217D03*
X127445687Y-149259919D03*
G04 #@! TO.N,FREE_OUT1_2*
X136100977Y-146859919D03*
X124529153Y-117143853D03*
X127386854Y-150453429D03*
G04 #@! TO.N,SD1_V*
X135300981Y-146059917D03*
D37*
X90520977Y-166259919D03*
D36*
G04 #@! TO.N,BRK_MEC1*
X135300978Y-143659919D03*
G04 #@! TO.N,SD1_W*
X136100979Y-146059918D03*
D37*
X89220977Y-166259919D03*
D36*
G04 #@! TO.N,BRK_MEC2*
X136100977Y-143659920D03*
X120500977Y-123259919D03*
G04 #@! TO.N,SD2_W*
X136500977Y-155859917D03*
X122890977Y-157139919D03*
G04 #@! TO.N,SD2_V*
X135100977Y-155259917D03*
X121460977Y-156329919D03*
G04 #@! TO.N,SD2_U*
X137700980Y-146859920D03*
X122486712Y-162645652D03*
G04 #@! TO.N,SD2_A*
X138500980Y-146059918D03*
D37*
X100270977Y-166289919D03*
D36*
G04 #@! TO.N,SD_CLK_IN2*
X138100977Y-158659917D03*
D39*
X123530977Y-158659919D03*
D36*
G04 #@! TO.N,IGBT2_VL*
X143300980Y-134859919D03*
X143909434Y-129240763D03*
X124100977Y-131059917D03*
G04 #@! TO.N,IGBT2_VH*
X143300977Y-123659917D03*
X120710977Y-133679919D03*
G04 #@! TO.N,FREE_OUT2_1*
X148500977Y-156859919D03*
X121300977Y-121059917D03*
X151500977Y-118859919D03*
G04 #@! TO.N,FREE_OUT2_2*
X127388998Y-147659917D03*
X120900977Y-119259919D03*
X144824023Y-147736874D03*
G04 #@! TO.N,SD_CLK_IN1*
X145700977Y-134059919D03*
X122100977Y-134659917D03*
D37*
X86700977Y-167059919D03*
G04 #@! TO.N,SD_CLK_OUT*
X85500977Y-166059917D03*
X97720977Y-166319919D03*
D36*
X145300977Y-124859917D03*
X126072467Y-125059917D03*
G04 #@! TO.N,IGBT1_UL*
X146500979Y-138859919D03*
X120700977Y-136259917D03*
G04 #@! TO.N,IGBT1_WL*
X146500978Y-138059919D03*
X121605698Y-130859919D03*
X145300977Y-125659917D03*
G04 #@! TO.N,BRK_RES2*
X146700977Y-122259917D03*
X123830977Y-122449919D03*
G04 #@! TO.N,1WIRE_OUT*
X147187201Y-143805607D03*
D37*
X78310977Y-166209919D03*
D36*
G04 #@! TO.N,IGBT1_UH*
X147300977Y-138859916D03*
X121135674Y-137720225D03*
G04 #@! TO.N,IGBT1_WH*
X147300977Y-138059920D03*
X128300977Y-136659917D03*
G04 #@! TO.N,BRK_RES1*
X122100977Y-122059917D03*
X150100977Y-125859919D03*
G04 #@! TO.N,IGBT2_WL*
X124100977Y-128859917D03*
X148700977Y-126659919D03*
G04 #@! TO.N,1WIRE_EN*
X148100977Y-143659919D03*
D37*
X76530977Y-166019919D03*
D36*
G04 #@! TO.N,IGBT1_VL*
X126129487Y-122056725D03*
X125900977Y-132459917D03*
X156806450Y-127493795D03*
G04 #@! TO.N,IGBT2_UL*
X150500977Y-137659919D03*
X121100977Y-135059919D03*
G04 #@! TO.N,IGBT2_WH*
X124100977Y-129859917D03*
X150300977Y-126859919D03*
G04 #@! TO.N,1WIRE_IN*
X153852942Y-144754549D03*
D37*
X74720977Y-166289919D03*
D39*
X153100977Y-162459919D03*
D36*
G04 #@! TO.N,IGBT1_VH*
X125100977Y-120659917D03*
X157700977Y-127659917D03*
X125300977Y-133059917D03*
G04 #@! TO.N,IGBT2_UH*
X149300977Y-137659919D03*
X122300977Y-136059917D03*
D37*
G04 #@! TO.N,/endat/ENDAT1_DATA_H_N*
X145873200Y-181659919D03*
G04 #@! TO.N,/step_dir/DIR1_A_P_H*
X74900977Y-181459919D03*
G04 #@! TO.N,/qep/QEP1_A_N_H*
X90474990Y-194059919D03*
G04 #@! TO.N,/qep/QEP1_I_N_H*
X98423746Y-181359929D03*
G04 #@! TO.N,/qep/QEP1_S_P_H*
X92278120Y-181384877D03*
G04 #@! TO.N,/qep/QEP2_S_N_H*
X110703474Y-185559929D03*
G04 #@! TO.N,/qep/QEP1_S_N_H*
X90900977Y-181459919D03*
G04 #@! TO.N,/qep/QEP2_S_H*
X107113200Y-181338000D03*
G04 #@! TO.N,/qep/QEP2_I_H*
X109907200Y-182214610D03*
G04 #@! TO.N,/qep/QEP2_B_H*
X108600977Y-188959917D03*
G04 #@! TO.N,/qep/QEP2_A_H*
X105030700Y-185809907D03*
G04 #@! TO.N,/qep/QEP1_S_H*
X84671410Y-182075898D03*
G04 #@! TO.N,/qep/QEP1_I_H*
X86099472Y-184000528D03*
G04 #@! TO.N,/qep/QEP1_B_H*
X96081528Y-185184990D03*
G04 #@! TO.N,/qep/QEP1_A_H*
X91500977Y-185659919D03*
D36*
G04 #@! TO.N,/ethercat/ecat0_bias*
X206557663Y-172343853D03*
G04 #@! TO.N,/ethercat/ecat1_bias*
X209659443Y-173189923D03*
D37*
G04 #@! TO.N,/can rs485/CAN_N_H*
X171700977Y-188859919D03*
G04 #@! TO.N,/can rs485/CAN_P_H*
X167400000Y-189100000D03*
D36*
G04 #@! TO.N,/uc_adc/ADC_REFH*
X134900977Y-132059918D03*
X135310365Y-136450534D03*
X137300977Y-131659918D03*
G04 #@! TO.N,1V2uC*
X144100977Y-144459917D03*
X137700975Y-143659918D03*
X144900978Y-139659918D03*
X142510366Y-144450531D03*
X144900979Y-141259916D03*
X141300979Y-137259920D03*
X137700979Y-141259918D03*
D37*
X149300977Y-133259917D03*
D38*
X144500977Y-124059917D03*
D37*
G04 #@! TO.N,/endat/ENDAT1_MOSI_H*
X145900977Y-188459919D03*
G04 #@! TO.N,Net-(D1402-Pad1)*
X118100977Y-146289300D03*
G04 #@! TO.N,Net-(D1401-Pad1)*
X118100977Y-144181100D03*
D36*
G04 #@! TO.N,3V3uC*
X137700979Y-142059920D03*
X144900977Y-142859920D03*
X139310365Y-144450529D03*
X140900979Y-144459919D03*
X144900978Y-138059919D03*
X143300980Y-137259920D03*
X137700980Y-139659917D03*
X144900978Y-145259918D03*
X144900979Y-140459917D03*
X140100981Y-137259920D03*
X149300977Y-140059917D03*
X147700978Y-132859917D03*
X139700978Y-132859919D03*
X132900977Y-139259917D03*
D39*
X154500977Y-151059917D03*
X158700977Y-151059917D03*
D37*
X157100977Y-135659917D03*
D39*
X134700977Y-149459917D03*
D35*
X140868038Y-124292856D03*
D36*
X143300977Y-146059917D03*
D37*
X149300977Y-147659917D03*
D38*
G04 #@! TO.N,5VP*
X90171400Y-142857000D03*
X87844670Y-151955873D03*
X90500977Y-114243900D03*
X81200977Y-114917000D03*
X99400977Y-113659919D03*
D37*
X103700977Y-142161040D03*
X103800977Y-131759917D03*
X103800977Y-126859919D03*
X103800977Y-136959917D03*
D38*
X110200977Y-127959917D03*
D37*
X109000977Y-140959917D03*
X108800977Y-114359917D03*
D35*
X73000000Y-143100000D03*
D38*
X72400977Y-113959919D03*
X93900977Y-155659917D03*
X106033600Y-155758400D03*
D37*
X89400977Y-123559917D03*
X100210977Y-151769919D03*
D38*
G04 #@! TO.N,GNDP*
X81205200Y-153931400D03*
X72594600Y-153404611D03*
X78200977Y-124959917D03*
X95600977Y-155759917D03*
D37*
X95800977Y-152432800D03*
D38*
X86818600Y-115450400D03*
D37*
X107100977Y-142247400D03*
X107385764Y-134359917D03*
X107000977Y-131759917D03*
X107400977Y-129159917D03*
X107400977Y-120829325D03*
X107500977Y-118659917D03*
X107000977Y-126559917D03*
X107000977Y-112959917D03*
X107300977Y-139633484D03*
D38*
X98600977Y-124559917D03*
D37*
X107000977Y-136959917D03*
X107400977Y-123959917D03*
X107431537Y-115559917D03*
D38*
X86800977Y-124959917D03*
X88400977Y-124959917D03*
X91657300Y-150559917D03*
D37*
X83600977Y-151962900D03*
X96100977Y-117459919D03*
D38*
G04 #@! TO.N,5VI*
X105487600Y-184589200D03*
X94733740Y-184439336D03*
X149175600Y-185681400D03*
X155195400Y-185757600D03*
X159996000Y-185808400D03*
X142035472Y-186200410D03*
X72400000Y-182100000D03*
X89000000Y-181100000D03*
X135563243Y-187132361D03*
D35*
X176600977Y-185159917D03*
D38*
G04 #@! TO.N,GNDI*
X80748000Y-196324000D03*
X98528000Y-189059000D03*
X94346010Y-182389325D03*
X86000000Y-181100000D03*
X77430000Y-182476210D03*
X107800000Y-196300000D03*
X137800000Y-181100000D03*
D37*
X147430704Y-196523395D03*
D38*
X122900977Y-195459917D03*
X113900977Y-196259917D03*
D37*
X147400977Y-199159917D03*
D38*
X123000977Y-199559917D03*
X107800977Y-199959917D03*
X81000977Y-198959917D03*
X113365974Y-189009927D03*
X147061850Y-184550400D03*
X115488679Y-200109907D03*
X81300977Y-188859919D03*
X161900977Y-183459919D03*
X109333151Y-183559909D03*
D35*
G04 #@! TO.N,GNDB*
X196600977Y-137359917D03*
G04 #@! TO.N,5VB*
X203000000Y-99100000D03*
X200200977Y-137359917D03*
G04 #@! TD*
D41*
G04 #@! TO.N,GNDH*
X180400977Y-134115977D02*
X176995000Y-130710000D01*
X180400977Y-134115977D02*
X180400977Y-134159917D01*
X180400977Y-134159917D02*
X181600977Y-135359917D01*
X181600977Y-149359917D02*
X180400977Y-150559917D01*
X181600977Y-135359917D02*
X181600977Y-149359917D01*
X180400977Y-177359917D02*
X180400977Y-150559917D01*
D42*
G04 #@! TO.N,GND*
X142500977Y-139659918D02*
X140100976Y-139659918D01*
X140100979Y-140459916D02*
X140100977Y-140459918D01*
X142500977Y-140459916D02*
X140100979Y-140459916D01*
X142500977Y-141259918D02*
X140100980Y-141259918D01*
X142500977Y-142059919D02*
X140100976Y-142059919D01*
X140100976Y-139659918D02*
X140100976Y-142059919D01*
X140900978Y-139659919D02*
X140900978Y-142059920D01*
X141700979Y-142059915D02*
X141700977Y-142059917D01*
X141700979Y-139659919D02*
X141700979Y-142059915D01*
X142500977Y-139659918D02*
X142500977Y-142059919D01*
D43*
G04 #@! TO.N,ECAT0_RX_CLK*
X159500977Y-141859917D02*
X156500977Y-138859917D01*
X156500977Y-138059917D02*
X156500975Y-138059917D01*
X156500977Y-138859917D02*
X156500977Y-138059917D01*
X159500977Y-154259917D02*
X159500977Y-141859917D01*
X158300977Y-155459917D02*
X159500977Y-154259917D01*
X156500975Y-138059917D02*
X155700977Y-137259919D01*
X158100977Y-164859917D02*
X158300977Y-164659917D01*
X158100977Y-166459917D02*
X158100977Y-164859917D01*
X158300977Y-164659917D02*
X158300977Y-155459917D01*
G04 #@! TO.N,ECAT_MDIO*
X196703980Y-162856914D02*
X196703980Y-154090170D01*
X196703980Y-154090170D02*
X196557663Y-153943853D01*
D44*
X196703980Y-162856914D02*
X196703980Y-163262922D01*
X196703980Y-163262922D02*
X197500977Y-164059919D01*
X197500977Y-164059919D02*
X197500977Y-166259919D01*
X197500977Y-166259919D02*
X196900977Y-166859919D01*
X196900977Y-166859919D02*
X196900977Y-168259919D01*
X196900977Y-168259919D02*
X197100977Y-168459919D01*
X197100977Y-169859919D02*
X196100977Y-170859919D01*
X197100977Y-168459919D02*
X197100977Y-169859919D01*
G04 #@! TO.N,ECAT1_RJ_LED1*
X193900977Y-175203233D02*
X202157663Y-183459919D01*
X193900977Y-153866407D02*
X193900977Y-175203233D01*
X202157663Y-196316605D02*
X203900977Y-198059919D01*
X202157663Y-183459919D02*
X202157663Y-196316605D01*
X203900977Y-198059919D02*
X204300977Y-198059919D01*
X206414200Y-200173142D02*
X206414200Y-204162800D01*
X204300977Y-198059919D02*
X206414200Y-200173142D01*
D43*
G04 #@! TO.N,ECAT0_RX_ER*
X160100977Y-155659917D02*
X160100977Y-141459917D01*
X156100975Y-136459919D02*
X155700977Y-136459919D01*
X160100977Y-141459917D02*
X157100977Y-138459917D01*
X157100977Y-138459917D02*
X157100977Y-137459917D01*
X156100977Y-136459917D02*
X156100975Y-136459919D01*
X157100977Y-137459917D02*
X156100977Y-136459917D01*
X159300977Y-159459917D02*
X159100977Y-159659917D01*
X159300977Y-156459917D02*
X159300977Y-159459917D01*
X159300977Y-156459917D02*
X160100977Y-155659917D01*
G04 #@! TO.N,ECAT0_TX_D2*
X158900977Y-149059917D02*
X158900977Y-141979493D01*
X157500977Y-150459917D02*
X158900977Y-149059917D01*
X157500977Y-163059917D02*
X157500977Y-150459917D01*
X158900977Y-141979493D02*
X155522439Y-138600954D01*
X155522439Y-138600954D02*
X155522439Y-138277807D01*
G04 #@! TO.N,ECAT0_TX_CLK*
X164300977Y-165059917D02*
X164300977Y-158859917D01*
X164300977Y-158859917D02*
X165100977Y-158059917D01*
X165100977Y-158059917D02*
X165100977Y-145259917D01*
X165100977Y-145259917D02*
X166100977Y-144259917D01*
X166100977Y-144259917D02*
X166100977Y-139859917D01*
G04 #@! TO.N,ENET_CAT_XI*
X158100977Y-143659917D02*
X156900977Y-142459917D01*
X155700977Y-162659917D02*
X155700977Y-155859917D01*
X155900977Y-162859917D02*
X155700977Y-162659917D01*
X158100977Y-148859917D02*
X158100977Y-143659917D01*
X155700977Y-155859917D02*
X157100977Y-154459917D01*
X157100977Y-154459917D02*
X157100977Y-149859917D01*
X157100977Y-149859917D02*
X158100977Y-148859917D01*
G04 #@! TO.N,ECAT_EEPROM_SDA*
X155124707Y-167688278D02*
X154896208Y-167916777D01*
X156300977Y-153859917D02*
X154900977Y-155259917D01*
X156300977Y-145059917D02*
X156300977Y-153859917D01*
X154900977Y-155259917D02*
X154900977Y-162888056D01*
X154900977Y-162888056D02*
X155900977Y-163888056D01*
X155900977Y-163888056D02*
X155900977Y-166912008D01*
X155900977Y-166912008D02*
X155124707Y-167688278D01*
G04 #@! TO.N,ECAT0_RX_D2*
X204500977Y-165585823D02*
X203734800Y-166352000D01*
X204500977Y-160059917D02*
X204500977Y-165585823D01*
X203500977Y-159059917D02*
X204500977Y-160059917D01*
X203500977Y-150659917D02*
X203500977Y-159059917D01*
X204500977Y-149259917D02*
X204500977Y-149659917D01*
X204500977Y-149659917D02*
X203500977Y-150659917D01*
G04 #@! TO.N,ECAT0_RX_D0*
X202261600Y-149899294D02*
X202500977Y-149659917D01*
X202261600Y-160967200D02*
X202261600Y-149899294D01*
G04 #@! TO.N,ECAT0_TX_D3*
X207357663Y-162343853D02*
X207357663Y-152343853D01*
X207357663Y-152343853D02*
X208157663Y-151543853D01*
G04 #@! TO.N,ECAT0_TX_D0*
X204557663Y-151143853D02*
X205357663Y-151943853D01*
X205357663Y-151943853D02*
X205357663Y-161765280D01*
X205357663Y-161765280D02*
X205357663Y-162088427D01*
G04 #@! TO.N,ECAT_RST*
X196700977Y-172059917D02*
X195914119Y-172059917D01*
D44*
X194714121Y-170859919D02*
X194714121Y-164473063D01*
X194714121Y-164473063D02*
X194300977Y-164059919D01*
D43*
X195914119Y-172059917D02*
X194714121Y-170859919D01*
D44*
X194300977Y-164059919D02*
X194300977Y-162459917D01*
X194300977Y-162459917D02*
X194700977Y-162059917D01*
X194700977Y-162059917D02*
X194700977Y-152059917D01*
D43*
G04 #@! TO.N,ECAT_EEPROM_SCL*
X146900977Y-167162918D02*
X146900977Y-168459917D01*
X147003978Y-167059917D02*
X146900977Y-167162918D01*
X147003978Y-157956916D02*
X147003978Y-167059917D01*
X147308567Y-157652327D02*
X147003978Y-157956916D01*
X147300978Y-142859920D02*
X146500977Y-143659921D01*
X147003978Y-146162920D02*
X147003978Y-150855328D01*
X146500977Y-143659921D02*
X146500977Y-145659919D01*
X147003978Y-150855328D02*
X147308567Y-151159917D01*
X146500977Y-145659919D02*
X147003978Y-146162920D01*
X147308567Y-151159917D02*
X147308567Y-157652327D01*
G04 #@! TO.N,ENDAT1_N_SKEW_CLK*
X154100977Y-128259919D02*
X153100977Y-127259919D01*
X152100977Y-144659917D02*
X154100977Y-142659917D01*
X154100977Y-142659917D02*
X154100977Y-128259919D01*
X152100977Y-165859917D02*
X152100977Y-144659917D01*
X153300977Y-167059917D02*
X152100977Y-165859917D01*
X153300977Y-171859917D02*
X153300977Y-167059917D01*
G04 #@! TO.N,ENDAT1_Y_SKEW_CLK*
X145900978Y-134859918D02*
X145700977Y-134859918D01*
X146300977Y-135859917D02*
X146300977Y-135259917D01*
X145700977Y-136459917D02*
X146300977Y-135859917D01*
X146300977Y-135259917D02*
X145900978Y-134859918D01*
X146500977Y-146459919D02*
X145700977Y-145659919D01*
X146500977Y-147259919D02*
X146500977Y-146459919D01*
X145700977Y-145659919D02*
X145700977Y-136459917D01*
X143500977Y-167459917D02*
X146100977Y-164859917D01*
X143500977Y-168459917D02*
X143500977Y-167459917D01*
X146100977Y-164859917D02*
X146100977Y-163459917D01*
X146100977Y-163459917D02*
X145700977Y-163059917D01*
X145700977Y-163059917D02*
X145700977Y-148059919D01*
X145700977Y-148059919D02*
X146500977Y-147259919D01*
G04 #@! TO.N,ECAT0_RX_D3*
X164300977Y-158059917D02*
X163700977Y-158659917D01*
X162700977Y-127459917D02*
X163300977Y-128059917D01*
X163700977Y-158659917D02*
X163700977Y-161859917D01*
X163300977Y-128059917D02*
X163300977Y-135459917D01*
X165100977Y-140659917D02*
X164300977Y-141459917D01*
X164300977Y-141459917D02*
X164300977Y-158059917D01*
X163300977Y-135459917D02*
X165100977Y-137259917D01*
X165100977Y-137259917D02*
X165100977Y-140659917D01*
G04 #@! TO.N,ECAT0_RX_D1*
X202900977Y-150459917D02*
X203300977Y-150059917D01*
X203700977Y-162859917D02*
X203700977Y-160859917D01*
X203300977Y-150059917D02*
X203300977Y-149259917D01*
X202900977Y-160059917D02*
X202900977Y-150459917D01*
X203700977Y-160859917D02*
X202900977Y-160059917D01*
G04 #@! TO.N,ECAT0_RX_DV*
X200900977Y-151459917D02*
X200900977Y-162859917D01*
X199700977Y-149659917D02*
X199700977Y-150259917D01*
X199700977Y-150259917D02*
X200900977Y-151459917D01*
G04 #@! TO.N,ECAT0_TX_D1*
X206957663Y-152743853D02*
X206557663Y-153143853D01*
X206957663Y-151543853D02*
X206957663Y-152743853D01*
X206557663Y-153143853D02*
X206557663Y-162743853D01*
G04 #@! TO.N,ECAT0_TX_EN*
X205929164Y-152572352D02*
X205900977Y-153259917D01*
X205929164Y-163688104D02*
X205929164Y-152572352D01*
X206300977Y-167859919D02*
X206160730Y-168008260D01*
X206160730Y-168008260D02*
X206160730Y-163919670D01*
X206160730Y-163919670D02*
X205929164Y-163688104D01*
G04 #@! TO.N,ENDAT2_N_SKEW_CLK*
X145300977Y-135259919D02*
X145300977Y-147259919D01*
X144900979Y-134859917D02*
X144900979Y-134859921D01*
X145300977Y-147259919D02*
X145300977Y-164059919D01*
X144900979Y-134859921D02*
X145300977Y-135259919D01*
G04 #@! TO.N,ENDAT2_Y_SKEW_CLK*
X143700977Y-163659919D02*
X144100977Y-164059919D01*
X143700977Y-160059919D02*
X143700977Y-163659919D01*
X142900977Y-159259919D02*
X143700977Y-160059919D01*
X142900977Y-147659919D02*
X142900977Y-159259919D01*
X144100977Y-136459919D02*
X144100977Y-143416959D01*
X144891592Y-135669304D02*
X144100977Y-136459919D01*
X143700977Y-146859919D02*
X142900977Y-147659919D01*
X143500977Y-144902875D02*
X143700977Y-145102875D01*
X143700977Y-145102875D02*
X143700977Y-146859919D01*
X144100977Y-143416959D02*
X143500977Y-144016959D01*
X143500977Y-144016959D02*
X143500977Y-144902875D01*
G04 #@! TO.N,QEP1_A*
X148818179Y-145742717D02*
X148818179Y-143459917D01*
X147300977Y-149259917D02*
X147300977Y-147259919D01*
X147300977Y-147259919D02*
X148818179Y-145742717D01*
X147700977Y-149659917D02*
X147300977Y-149259917D01*
X144900977Y-133659917D02*
X144900977Y-134059919D01*
X148818179Y-143459917D02*
X148300977Y-142942715D01*
X148300977Y-134859917D02*
X146700977Y-133259917D01*
X148300977Y-142942715D02*
X148300977Y-134859917D01*
X145300977Y-133259917D02*
X144900977Y-133659917D01*
X146700977Y-133259917D02*
X145300977Y-133259917D01*
D45*
X147900977Y-163294065D02*
X147900977Y-166059919D01*
X147866831Y-163259919D02*
X147900977Y-163294065D01*
D43*
X147866831Y-163259919D02*
X147700977Y-149659917D01*
D45*
G04 #@! TO.N,QEP1_B*
X131700977Y-165459919D02*
X131700977Y-164590905D01*
D43*
X130700977Y-129776532D02*
X130986173Y-129491336D01*
D45*
X131700977Y-163259919D02*
X130717475Y-162276417D01*
X131700977Y-164590905D02*
X131700977Y-163259919D01*
D43*
X130717475Y-162276417D02*
X130700977Y-129776532D01*
G04 #@! TO.N,FLASH_SPI_MOSI*
X150100977Y-151659917D02*
X151700977Y-150059917D01*
X150100977Y-164459919D02*
X150100977Y-151659917D01*
X151700977Y-144059917D02*
X153500977Y-142259917D01*
X149472478Y-165088418D02*
X150100977Y-164459919D01*
X151700977Y-150059917D02*
X151700977Y-144059917D01*
X153500977Y-142259917D02*
X153500977Y-130659917D01*
D44*
X149500977Y-167488418D02*
X149500977Y-168259919D01*
X149472478Y-167459919D02*
X149500977Y-167488418D01*
D43*
X149472478Y-167459919D02*
X149472478Y-165088418D01*
X151900979Y-122659921D02*
X151300977Y-122059919D01*
X151900979Y-129059919D02*
X151900979Y-122659921D01*
X153500977Y-130659917D02*
X151900979Y-129059919D01*
G04 #@! TO.N,FLASH_SPI_MISO*
X126700977Y-172059917D02*
X124502010Y-169860950D01*
X125100977Y-131459917D02*
X125100977Y-126783064D01*
X124502010Y-169860950D02*
X124502010Y-132058884D01*
X125100977Y-126783064D02*
X125100977Y-126459917D01*
X124502010Y-132058884D02*
X125100977Y-131459917D01*
G04 #@! TO.N,FLASH_SPI_CLK*
X142500977Y-134459917D02*
X141900977Y-133859917D01*
X142500977Y-134859916D02*
X142500977Y-134459917D01*
X131100977Y-137459917D02*
X131100977Y-159659917D01*
X141900977Y-133859917D02*
X134700977Y-133859917D01*
X131100977Y-159659917D02*
X131900977Y-160459917D01*
X134700977Y-133859917D02*
X131100977Y-137459917D01*
D44*
X131900977Y-172459917D02*
X132129478Y-172231418D01*
X132129478Y-172231418D02*
X132700977Y-171659919D01*
X132700977Y-161259917D02*
X131900977Y-160459917D01*
X132700977Y-171659919D02*
X132700977Y-161259917D01*
D43*
G04 #@! TO.N,FLASH_SPI_CS*
X128100977Y-151688550D02*
X128900977Y-150888550D01*
X130329611Y-124259917D02*
X130500977Y-124259917D01*
X128900977Y-125688551D02*
X130329611Y-124259917D01*
X128900977Y-150888550D02*
X128900977Y-125688551D01*
X128100977Y-172059917D02*
X128100977Y-151688550D01*
G04 #@! TO.N,QEP1_S*
X141700977Y-136997522D02*
X141700977Y-135659919D01*
X143700977Y-138997522D02*
X141700977Y-136997522D01*
X143700977Y-143059917D02*
X143700977Y-138997522D01*
X142500977Y-147259919D02*
X142900977Y-146859919D01*
X142900977Y-146859919D02*
X142900977Y-143859917D01*
X142900977Y-143859917D02*
X143700977Y-143059917D01*
X142300977Y-157859917D02*
X142500977Y-157659917D01*
X142300977Y-158059917D02*
X142300977Y-157859917D01*
X142500977Y-157659917D02*
X142500977Y-147259919D01*
G04 #@! TO.N,QEP2_I*
X129859767Y-126908982D02*
X131273109Y-125495640D01*
X129859767Y-158242675D02*
X129859767Y-126908982D01*
X131273109Y-125495640D02*
X131596256Y-125495640D01*
X129835801Y-158266641D02*
X129859767Y-158242675D01*
X129834953Y-162060767D02*
X129835801Y-158266641D01*
D45*
X129834953Y-162060767D02*
X129672478Y-162223242D01*
X129672478Y-165302910D02*
X129900977Y-165531409D01*
X129672478Y-162223242D02*
X129672478Y-165302910D01*
D43*
G04 #@! TO.N,QEP2_B*
X129418557Y-126567802D02*
X131072478Y-124913881D01*
X131072478Y-124913881D02*
X131300977Y-124685382D01*
X129418557Y-158059919D02*
X129418557Y-126567802D01*
D45*
X128700977Y-158777499D02*
X129418557Y-158059919D01*
X128900977Y-169059919D02*
X128700977Y-168859919D01*
X128900977Y-169859919D02*
X128900977Y-169059919D01*
X128700977Y-168859919D02*
X128700977Y-158777499D01*
D43*
G04 #@! TO.N,QEP2_A*
X140500977Y-135259919D02*
X140900979Y-134859919D01*
X140500977Y-136259917D02*
X140500977Y-135259919D01*
X139700977Y-136459917D02*
X140300977Y-136459917D01*
X138900977Y-142859917D02*
X138900977Y-137259917D01*
X140300977Y-136459917D02*
X140500977Y-136259917D01*
X140500977Y-144859919D02*
X140100976Y-144459917D01*
X138900977Y-137259917D02*
X139700977Y-136459917D01*
X140100976Y-144459917D02*
X140100976Y-144059916D01*
X140100976Y-144059916D02*
X138900977Y-142859917D01*
X140900977Y-157459917D02*
X140500977Y-157059917D01*
X140900977Y-160659917D02*
X140900977Y-157459917D01*
X140500977Y-157059917D02*
X140500977Y-144859919D01*
G04 #@! TO.N,QEP1_I*
X142100977Y-157259919D02*
X142100977Y-144059917D01*
X141672476Y-157688420D02*
X142100977Y-157259919D01*
X142100977Y-144059917D02*
X143300977Y-142859917D01*
X142500977Y-138459917D02*
X141500977Y-138459917D01*
X143300977Y-142859917D02*
X143300977Y-139259917D01*
X143300977Y-139259917D02*
X142500977Y-138459917D01*
X140700977Y-137659917D02*
X140700977Y-136859918D01*
X140700977Y-136859918D02*
X140900978Y-136659917D01*
X141500977Y-138459917D02*
X140700977Y-137659917D01*
X140900978Y-136659917D02*
X140900978Y-135659918D01*
X141672476Y-161259919D02*
X141672476Y-157688420D01*
D45*
X141900977Y-164288420D02*
X141900977Y-165659919D01*
X141672476Y-164059919D02*
X141900977Y-164288420D01*
X141672476Y-164059919D02*
X141672476Y-161259919D01*
D43*
G04 #@! TO.N,QEP2_S*
X131367757Y-126469349D02*
X131596256Y-126240850D01*
X130259766Y-127577340D02*
X131367757Y-126469349D01*
X130276639Y-163059919D02*
X130259766Y-127577340D01*
D45*
X130700977Y-165059919D02*
X130700977Y-163484257D01*
X130700977Y-163484257D02*
X130276639Y-163059919D01*
D43*
G04 #@! TO.N,ENET_MDIO*
X166300977Y-159859917D02*
X166300977Y-161259917D01*
X167300977Y-158859917D02*
X166300977Y-159859917D01*
X167300977Y-135259917D02*
X167300977Y-158859917D01*
X166100977Y-121659919D02*
X166100977Y-134059917D01*
X166100977Y-134059917D02*
X167300977Y-135259917D01*
G04 #@! TO.N,ENET_PWDN*
X160300977Y-133259917D02*
X159700977Y-133259917D01*
X161024766Y-133983706D02*
X160300977Y-133259917D01*
X161024766Y-137459917D02*
X161024766Y-133983706D01*
X161100977Y-137459917D02*
X161024766Y-137459917D01*
X161900977Y-138259917D02*
X161100977Y-137459917D01*
X161900977Y-156659917D02*
X161900977Y-138259917D01*
X161300977Y-162059917D02*
X161300977Y-157259917D01*
X160700977Y-162659917D02*
X161300977Y-162059917D01*
X161300977Y-157259917D02*
X161900977Y-156659917D01*
X161700977Y-169259917D02*
X160700977Y-168259917D01*
X161700977Y-170459917D02*
X161700977Y-169259917D01*
X160700977Y-168259917D02*
X160700977Y-162659917D01*
G04 #@! TO.N,ENDAT2_MISO*
X156700977Y-161859917D02*
X156700977Y-171093173D01*
X156700977Y-171093173D02*
X157668915Y-172061111D01*
X156500977Y-161659917D02*
X156700977Y-161859917D01*
X156500977Y-156259917D02*
X156500977Y-161659917D01*
G04 #@! TO.N,ENET_COL*
X164300977Y-119259917D02*
X164600000Y-119530015D01*
X165500977Y-164859917D02*
X165700977Y-165059917D01*
X163900977Y-133459917D02*
X166700977Y-136259917D01*
X165500977Y-159659917D02*
X165500977Y-164859917D01*
X164300977Y-119259917D02*
X163900977Y-119659917D01*
X166700977Y-136259917D02*
X166700977Y-158459917D01*
X163900977Y-119659917D02*
X163900977Y-133459917D01*
X166700977Y-158459917D02*
X165500977Y-159659917D01*
G04 #@! TO.N,ENET_RX_DV*
X159297974Y-164056914D02*
X159069475Y-163828415D01*
X159100977Y-163859916D02*
X159264785Y-164023724D01*
X159100977Y-161459917D02*
X159100977Y-163859916D01*
X160100977Y-160459917D02*
X159100977Y-161459917D01*
X160100977Y-156859917D02*
X160100977Y-160459917D01*
X160700977Y-156259917D02*
X160100977Y-156859917D01*
X158412229Y-133571169D02*
X158412229Y-134371169D01*
X157900977Y-133059917D02*
X158412229Y-133571169D01*
X158412229Y-134371169D02*
X159900977Y-135859917D01*
X159900977Y-135859917D02*
X159900977Y-138259917D01*
X159900977Y-138259917D02*
X160700977Y-139059917D01*
X160700977Y-139059917D02*
X160700977Y-156259917D01*
G04 #@! TO.N,ENET_RX_CLK*
X160272467Y-132031407D02*
X159300977Y-132031407D01*
X161900977Y-162859917D02*
X161900977Y-157859917D01*
X161700977Y-163059917D02*
X161900977Y-162859917D01*
X161500977Y-136859917D02*
X161500977Y-133259917D01*
X161900977Y-157859917D02*
X162500977Y-157259917D01*
X162500977Y-157259917D02*
X162500977Y-137859917D01*
X161500977Y-133259917D02*
X160272467Y-132031407D01*
X162500977Y-137859917D02*
X161500977Y-136859917D01*
G04 #@! TO.N,ENET_CRS*
X154665688Y-121651561D02*
X154894187Y-121423062D01*
X154100977Y-163459917D02*
X154100977Y-154859917D01*
X154100977Y-154859917D02*
X155357663Y-153603231D01*
X155357663Y-153603231D02*
X155357663Y-143516603D01*
X155100977Y-164459917D02*
X154100977Y-163459917D01*
X155357663Y-143516603D02*
X154665688Y-142824628D01*
X154665688Y-142824628D02*
X154665688Y-121651561D01*
G04 #@! TO.N,ENET_RX_D0*
X163500977Y-162859917D02*
X163500977Y-165059917D01*
X163100977Y-162459917D02*
X163500977Y-162859917D01*
X163100977Y-158459917D02*
X163100977Y-162459917D01*
X161100977Y-128259917D02*
X162700977Y-129859917D01*
X161100977Y-127459917D02*
X161100977Y-128259917D01*
X162700977Y-129859917D02*
X162700977Y-136059917D01*
X162700977Y-136059917D02*
X163700977Y-137059917D01*
X163700977Y-137059917D02*
X163700977Y-157859917D01*
X163700977Y-157859917D02*
X163100977Y-158459917D01*
G04 #@! TO.N,ENET_RX_ER*
X162500977Y-164859917D02*
X162500977Y-165059917D01*
X162500977Y-158259917D02*
X162500977Y-164859917D01*
X160100977Y-130859917D02*
X162100977Y-132859917D01*
X162100977Y-132859917D02*
X162100977Y-136459917D01*
X162100977Y-136459917D02*
X163100977Y-137459917D01*
X163100977Y-137459917D02*
X163100977Y-157659917D01*
X158900977Y-130859917D02*
X160100977Y-130859917D01*
X163100977Y-157659917D02*
X162500977Y-158259917D01*
G04 #@! TO.N,RS485_TX*
X168700977Y-172659917D02*
X168200977Y-173159917D01*
X168100977Y-158259917D02*
X168700977Y-158859917D01*
X168200977Y-173159917D02*
X168200977Y-175759917D01*
X168700977Y-158859917D02*
X168700977Y-172659917D01*
G04 #@! TO.N,RS485_RX*
X138500977Y-159259919D02*
X138500977Y-170059917D01*
X138500977Y-170059917D02*
X138900979Y-170459919D01*
D45*
X138949425Y-170459919D02*
X139077935Y-170331409D01*
X138900979Y-170459919D02*
X138949425Y-170459919D01*
D43*
G04 #@! TO.N,ENET_TX_D1*
X135417045Y-140343853D02*
X134017041Y-140343853D01*
X132100977Y-142259917D02*
X132100977Y-158459917D01*
X134463620Y-160822560D02*
X134463620Y-170029934D01*
X134017041Y-140343853D02*
X132100977Y-142259917D01*
X132100977Y-158459917D02*
X134463620Y-160822560D01*
X134463620Y-170029934D02*
X134463620Y-170353081D01*
X136100979Y-139659919D02*
X135417045Y-140343853D01*
G04 #@! TO.N,ECAT1_TX_EN*
X133757663Y-149403231D02*
X133757663Y-152372363D01*
X134300977Y-148859917D02*
X133757663Y-149403231D01*
X133300977Y-145859917D02*
X134300977Y-146859917D01*
X134700977Y-141259917D02*
X133300977Y-142659917D01*
X133300977Y-142659917D02*
X133300977Y-145859917D01*
X134300977Y-146859917D02*
X134300977Y-148859917D01*
X136100975Y-141259917D02*
X136100977Y-141259919D01*
X134700977Y-141259917D02*
X136100975Y-141259917D01*
G04 #@! TO.N,CAN_RX*
X169500977Y-173459917D02*
X169500977Y-153859919D01*
X169500977Y-153859919D02*
X167900977Y-152259919D01*
X169200977Y-174759917D02*
X169200977Y-173759917D01*
X167900977Y-152259919D02*
X167900977Y-151659919D01*
X169200977Y-173759917D02*
X169500977Y-173459917D01*
G04 #@! TO.N,ENET_TX_EN*
X137700977Y-142859919D02*
X136100979Y-142859919D01*
X138500977Y-143659919D02*
X137700977Y-142859919D01*
X138500977Y-144459919D02*
X138500977Y-143659919D01*
X140300977Y-158669299D02*
X139700977Y-158069299D01*
X139700977Y-158069299D02*
X139700977Y-145659919D01*
X139700977Y-145659919D02*
X138500977Y-144459919D01*
X140300977Y-161459919D02*
X140300977Y-158669299D01*
D44*
X140700977Y-162659919D02*
X140700977Y-164859919D01*
X140300977Y-161459919D02*
X140300977Y-162259919D01*
X140300977Y-162259919D02*
X140700977Y-162659919D01*
D43*
G04 #@! TO.N,ENET_RST*
X136100979Y-145259921D02*
X136100979Y-145259919D01*
X136500977Y-145659919D02*
X136100979Y-145259921D01*
X136500977Y-154059919D02*
X136500977Y-145659919D01*
X137300977Y-154859919D02*
X136500977Y-154059919D01*
X137300977Y-161459917D02*
X137300977Y-154859919D01*
G04 #@! TO.N,ENET_TX_D2*
X131700977Y-158677788D02*
X133757663Y-160734474D01*
X133757663Y-160734474D02*
X133757663Y-170343853D01*
X135300978Y-139659919D02*
X133943935Y-139659919D01*
X131700977Y-141902877D02*
X131700977Y-158677788D01*
X133943935Y-139659919D02*
X131700977Y-141902877D01*
G04 #@! TO.N,ECAT1_TX_CLK*
X133700977Y-147059917D02*
X132700977Y-146059917D01*
X132700977Y-149659917D02*
X133700977Y-148659917D01*
X134417041Y-140743853D02*
X135817044Y-140743853D01*
X132700977Y-142459917D02*
X134417041Y-140743853D01*
X132700977Y-146059917D02*
X132700977Y-142459917D01*
X133700977Y-148659917D02*
X133700977Y-147059917D01*
X132700977Y-156459917D02*
X132700977Y-149659917D01*
X135817044Y-140743853D02*
X136100978Y-140459919D01*
G04 #@! TO.N,CAN_TX*
X135881452Y-154629443D02*
X135881452Y-155679442D01*
X135900977Y-154609918D02*
X135881452Y-154629443D01*
X135900977Y-148859917D02*
X135900977Y-154609918D01*
X134900974Y-142059920D02*
X133757663Y-143203231D01*
X135300979Y-142059920D02*
X134900974Y-142059920D01*
X133757663Y-143203231D02*
X133757663Y-145516603D01*
X133757663Y-145516603D02*
X135100977Y-146859917D01*
X135100977Y-146859917D02*
X135100977Y-148059917D01*
X135881452Y-155679442D02*
X135100977Y-156459917D01*
X135100977Y-148059917D02*
X135900977Y-148859917D01*
X170300977Y-174259917D02*
X171000977Y-174959917D01*
X170300977Y-157059917D02*
X170300977Y-174259917D01*
X171100977Y-156259917D02*
X170300977Y-157059917D01*
G04 #@! TO.N,ENET_RX_D3*
X135300977Y-142859919D02*
X135300977Y-142859917D01*
X135700977Y-143259919D02*
X135300977Y-142859919D01*
X136500977Y-143259919D02*
X135700977Y-143259919D01*
X138900977Y-145659919D02*
X138500977Y-145259919D01*
X138900977Y-157859917D02*
X138900977Y-145659919D01*
X137500979Y-145259919D02*
X136900977Y-144659917D01*
X138500977Y-145259919D02*
X137500979Y-145259919D01*
X139900977Y-158859917D02*
X138900977Y-157859917D01*
X136900977Y-143659919D02*
X136500977Y-143259919D01*
X136900977Y-144659917D02*
X136900977Y-143659919D01*
X139900977Y-163859919D02*
X139900977Y-158859917D01*
G04 #@! TO.N,ENET_TX_CLK*
X138100977Y-157859917D02*
X138100977Y-146459919D01*
X138100977Y-146459919D02*
X136500977Y-144859919D01*
X139500977Y-159259917D02*
X138100977Y-157859917D01*
X136500977Y-144859919D02*
X135700977Y-144859919D01*
X135700977Y-144859919D02*
X135300978Y-145259918D01*
X135300978Y-145259918D02*
X135300978Y-145259919D01*
X139500977Y-163059919D02*
X139500977Y-159259917D01*
D44*
X139100977Y-164459919D02*
X139100977Y-163659919D01*
X139100977Y-163659919D02*
X139500977Y-163259919D01*
X139500977Y-163259919D02*
X139500977Y-163059919D01*
D43*
G04 #@! TO.N,ENET_TX_D3*
X126300976Y-139659918D02*
X125100977Y-140859917D01*
X125100977Y-140859917D02*
X125100977Y-155059917D01*
X127388998Y-139659918D02*
X126300976Y-139659918D01*
X125100977Y-155059917D02*
X124900977Y-155259917D01*
X124900977Y-155259917D02*
X124900977Y-160659917D01*
D44*
X125300977Y-166659917D02*
X126900977Y-168259917D01*
X125300977Y-161059917D02*
X125300977Y-166659917D01*
D43*
X124900977Y-160659917D02*
X125300977Y-161059917D01*
G04 #@! TO.N,ECAT1_TX_D0*
X127357663Y-141543853D02*
X126617041Y-141543853D01*
X126194487Y-156742128D02*
X126194487Y-157065275D01*
X126100977Y-156648618D02*
X126194487Y-156742128D01*
X126617041Y-141543853D02*
X126100977Y-142059917D01*
X126100977Y-142059917D02*
X126100977Y-156648618D01*
G04 #@! TO.N,ENET_RX_D1*
X126489749Y-145082374D02*
X127300977Y-143459917D01*
X126700977Y-152953587D02*
X126489740Y-152742349D01*
X126489740Y-152742349D02*
X126489749Y-145082374D01*
X126700977Y-160259917D02*
X126700977Y-152953587D01*
G04 #@! TO.N,ENET_RX_D2*
X126541060Y-161100000D02*
X126600000Y-161100000D01*
X126617041Y-140343853D02*
X125700977Y-141259917D01*
X127357663Y-140343853D02*
X126617041Y-140343853D01*
X125700977Y-141259917D02*
X125700977Y-155259917D01*
X125700977Y-155259917D02*
X125500977Y-155459917D01*
X125500977Y-155459917D02*
X125500977Y-160059917D01*
X125500977Y-160059917D02*
X126541060Y-161100000D01*
G04 #@! TO.N,LEM_B_U*
X133000000Y-102160896D02*
X133700977Y-101459919D01*
X132600000Y-107813090D02*
X133000000Y-107413090D01*
X133000000Y-107413090D02*
X133000000Y-102160896D01*
X132600000Y-111986190D02*
X132600000Y-107813090D01*
X133357663Y-112743853D02*
X132600000Y-111986190D01*
G04 #@! TO.N,LEM_A_ALL*
X131400000Y-103501516D02*
X131757663Y-103143853D01*
X131685143Y-112848740D02*
X131400000Y-112563597D01*
X131400000Y-112563597D02*
X131400000Y-103501516D01*
G04 #@! TO.N,LCD_AUDIO*
X165272467Y-117088429D02*
X165300977Y-117059919D01*
X165272467Y-131259917D02*
X165272467Y-117088429D01*
D41*
G04 #@! TO.N,5VH*
X176995000Y-142153940D02*
X176995000Y-138710000D01*
X178200977Y-175959917D02*
X176995000Y-174753940D01*
X176995000Y-174753940D02*
X176995000Y-142153940D01*
D46*
G04 #@! TO.N,Net-(C823-Pad2)*
X102800977Y-145759917D02*
X104400977Y-145759917D01*
X104400977Y-145759917D02*
X106000977Y-144159917D01*
X106000977Y-144159917D02*
X106000977Y-120159917D01*
X106400977Y-119759917D02*
X106800977Y-119759917D01*
X106000977Y-120159917D02*
X106400977Y-119759917D01*
X106800977Y-119759917D02*
X108400977Y-119759917D01*
X109700977Y-118459917D02*
X110900977Y-118459917D01*
X108400977Y-119759917D02*
X109700977Y-118459917D01*
G04 #@! TO.N,Net-(C824-Pad2)*
X104200977Y-144359917D02*
X103400977Y-144359917D01*
X105200977Y-117959917D02*
X105200977Y-143359917D01*
X110900977Y-117259917D02*
X105900977Y-117259917D01*
X105200977Y-143359917D02*
X104200977Y-144359917D01*
X105900977Y-117259917D02*
X105200977Y-117959917D01*
D42*
G04 #@! TO.N,Net-(C1607-Pad2)*
X197300977Y-113059919D02*
X197300977Y-114259919D01*
X208100977Y-102259919D02*
X197300977Y-113059919D01*
X208100977Y-87059919D02*
X208100977Y-102259919D01*
X197900977Y-85659919D02*
X206700977Y-85659919D01*
X206700977Y-85659919D02*
X208100977Y-87059919D01*
D43*
G04 #@! TO.N,USB_D-*
X182700977Y-158059917D02*
X182700977Y-155659917D01*
X183224766Y-189174327D02*
X183224766Y-158583706D01*
X191119200Y-199104800D02*
X191119200Y-197068761D01*
X183224766Y-158583706D02*
X182700977Y-158059917D01*
X191119200Y-197068761D02*
X183224766Y-189174327D01*
G04 #@! TO.N,USB_D+*
X183700977Y-189259917D02*
X183700977Y-155518719D01*
X193129200Y-199104800D02*
X193129200Y-198688140D01*
X183700977Y-155518719D02*
X183974037Y-155245659D01*
X193129200Y-198688140D02*
X183700977Y-189259917D01*
G04 #@! TO.N,FAN_RPM1*
X122129487Y-133288427D02*
X123300977Y-134459917D01*
X122129487Y-124476150D02*
X122129487Y-133288427D01*
X123300977Y-134459917D02*
X123300977Y-149859919D01*
D44*
X122700977Y-155059919D02*
X123100977Y-155459919D01*
X122700977Y-153259919D02*
X122700977Y-155059919D01*
X123300977Y-152659919D02*
X122700977Y-153259919D01*
X123300977Y-149859919D02*
X123300977Y-152659919D01*
D43*
G04 #@! TO.N,IGBT_ALARM1*
X124109599Y-153370409D02*
X123953309Y-153526699D01*
X123970977Y-124059919D02*
X123472478Y-124088416D01*
X124109599Y-133668539D02*
X124109599Y-153370409D01*
X123953309Y-153526699D02*
X123900977Y-153459917D01*
X123472478Y-133031418D02*
X124109599Y-133668539D01*
X123472478Y-124088416D02*
X123472478Y-133031418D01*
G04 #@! TO.N,IGBT_ALARM2*
X122900978Y-118059920D02*
X122900978Y-133259918D01*
X123717188Y-134076128D02*
X123717188Y-152832319D01*
X123717188Y-152832319D02*
X123301973Y-153247534D01*
X123301973Y-153247534D02*
X123301973Y-154291838D01*
X123301973Y-154291838D02*
X123301973Y-154614985D01*
X122900978Y-133259918D02*
X123717188Y-134076128D01*
X122500977Y-117659919D02*
X122900978Y-118059920D01*
G04 #@! TO.N,DIR2*
X151700977Y-166659919D02*
X151672467Y-164024475D01*
X151672467Y-164024475D02*
X151672467Y-151543853D01*
G04 #@! TO.N,STEP2*
X150543122Y-152358394D02*
X150957663Y-151943853D01*
D44*
X150543122Y-167502064D02*
X150900977Y-167859919D01*
X150543122Y-166459919D02*
X150543122Y-167502064D01*
D43*
X150543122Y-166459919D02*
X150543122Y-152358394D01*
G04 #@! TO.N,DIR1*
X148929479Y-152634080D02*
X149355174Y-152208385D01*
X149355174Y-152208385D02*
X149583673Y-151979886D01*
X148929479Y-157065601D02*
X148929479Y-152634080D01*
X148825715Y-157169365D02*
X148929479Y-157065601D01*
D45*
X148825715Y-162343445D02*
X148900977Y-162418707D01*
X148825715Y-161259919D02*
X148825715Y-162343445D01*
D43*
X148825715Y-161259919D02*
X148825715Y-157169365D01*
G04 #@! TO.N,DACB_DBG*
X135800000Y-112184700D02*
X135800000Y-108300000D01*
X134300977Y-100659919D02*
X133100977Y-100659919D01*
X135412879Y-112571821D02*
X135800000Y-112184700D01*
X135400000Y-107900000D02*
X135400000Y-101758942D01*
X135412879Y-114859919D02*
X135412879Y-112571821D01*
X135800000Y-108300000D02*
X135400000Y-107900000D01*
X135400000Y-101758942D02*
X134300977Y-100659919D01*
G04 #@! TO.N,ENET_MDCLK*
X160700977Y-161259917D02*
X160500977Y-161459917D01*
X160700977Y-157059917D02*
X160700977Y-161259917D01*
X159300977Y-134059917D02*
X159500977Y-134059917D01*
X160500977Y-135059917D02*
X160500977Y-137859917D01*
X160500977Y-137859917D02*
X161300977Y-138659917D01*
X161300977Y-156459917D02*
X160700977Y-157059917D01*
X159500977Y-134059917D02*
X160500977Y-135059917D01*
X161300977Y-138659917D02*
X161300977Y-156459917D01*
G04 #@! TO.N,ECAT_MDCLK*
X164900977Y-159859917D02*
X164900977Y-161259917D01*
X164900977Y-159259917D02*
X164900977Y-159859917D01*
X165900977Y-145859917D02*
X165900977Y-158259917D01*
X165900977Y-158259917D02*
X164900977Y-159259917D01*
D42*
G04 #@! TO.N,VBUS1_N_H*
X198985000Y-81375896D02*
X198985000Y-78595000D01*
X197700977Y-82659919D02*
X198985000Y-81375896D01*
X197100977Y-82659919D02*
X197700977Y-82659919D01*
X196100977Y-83659919D02*
X197100977Y-82659919D01*
X196100977Y-86459919D02*
X196100977Y-83659919D01*
X196700977Y-87059919D02*
X196100977Y-86459919D01*
X195400977Y-119015958D02*
X195400977Y-113159917D01*
X196400977Y-120015958D02*
X195400977Y-119015958D01*
X206900977Y-88259919D02*
X205700977Y-87059919D01*
X195400977Y-113159917D02*
X206900977Y-101659917D01*
X206900977Y-101659917D02*
X206900977Y-88259919D01*
X205700977Y-87059919D02*
X196700977Y-87059919D01*
D43*
G04 #@! TO.N,NTC2_2_N*
X124200000Y-109500000D02*
X124200000Y-108700000D01*
X122157663Y-106657663D02*
X122157663Y-101543853D01*
X124200000Y-108700000D02*
X122157663Y-106657663D01*
G04 #@! TO.N,VBUS1_N*
X126300977Y-119259917D02*
X125700979Y-119259917D01*
X125700979Y-119259917D02*
X125700977Y-119259919D01*
X127300977Y-138859917D02*
X126300977Y-137859917D01*
X127388998Y-138859917D02*
X127300977Y-138859917D01*
X126300977Y-137859917D02*
X126300977Y-135459917D01*
X126300977Y-135459917D02*
X127700977Y-134059917D01*
X127700977Y-120659917D02*
X126300977Y-119259917D01*
X127700977Y-134059917D02*
X127700977Y-120659917D01*
G04 #@! TO.N,SD1_A*
X126842153Y-149006762D02*
X126842153Y-150703811D01*
X127230352Y-162060709D02*
X127230352Y-162383856D01*
X126842153Y-150703811D02*
X127230352Y-151092010D01*
X127230352Y-151092010D02*
X127230352Y-162060709D01*
X127388998Y-148459917D02*
X126842153Y-149006762D01*
G04 #@! TO.N,FREE_OUT1_2*
X124529153Y-117143853D02*
X125784913Y-117143853D01*
X125784913Y-117143853D02*
X128500977Y-119859917D01*
X127615353Y-150224930D02*
X127386854Y-150453429D01*
X128500977Y-119859917D02*
X128500977Y-134459917D01*
X127300977Y-136859917D02*
X128300977Y-137859917D01*
X128500977Y-134459917D02*
X127300977Y-135659917D01*
X128300977Y-149539306D02*
X127615353Y-150224930D01*
X127300977Y-135659917D02*
X127300977Y-136859917D01*
X128300977Y-137859917D02*
X128300977Y-149539306D01*
G04 #@! TO.N,FREE_OUT2_1*
X150300977Y-120059919D02*
X151500977Y-118859919D01*
X150900977Y-123059919D02*
X150300977Y-122459919D01*
X150900977Y-129859917D02*
X150900977Y-123059919D01*
X148500977Y-156859919D02*
X148500977Y-151659917D01*
X151100977Y-149059917D02*
X151100977Y-143659917D01*
X150300977Y-122459919D02*
X150300977Y-120059919D01*
X148500977Y-151659917D02*
X151100977Y-149059917D01*
X151100977Y-143659917D02*
X152300977Y-142459917D01*
X152300977Y-131259917D02*
X150900977Y-129859917D01*
X152300977Y-142459917D02*
X152300977Y-131259917D01*
G04 #@! TO.N,FREE_OUT2_2*
X126700977Y-135659917D02*
X128100977Y-134259917D01*
X127388998Y-147659917D02*
X127388998Y-146171896D01*
X121640083Y-116859917D02*
X120900977Y-117599023D01*
X126700977Y-137059917D02*
X126700977Y-135659917D01*
X127900977Y-138259917D02*
X126700977Y-137059917D01*
X127900977Y-145659917D02*
X127900977Y-138259917D01*
X127388998Y-146171896D02*
X127900977Y-145659917D01*
X120900977Y-117599023D02*
X120900977Y-119259919D01*
X128100977Y-134259917D02*
X128100977Y-120259917D01*
X128100977Y-120259917D02*
X125700977Y-117859917D01*
X125700977Y-117859917D02*
X124100977Y-117859917D01*
X124100977Y-117859917D02*
X123100977Y-116859917D01*
X123100977Y-116859917D02*
X121640083Y-116859917D01*
D44*
G04 #@! TO.N,SD_CLK_IN1*
X96900977Y-169659919D02*
X96500977Y-169659919D01*
X89300977Y-169659919D02*
X86700977Y-167059919D01*
X89300977Y-169659919D02*
X96900977Y-169659919D01*
X122100977Y-135059919D02*
X122100977Y-134659917D01*
X121700977Y-135459919D02*
X122100977Y-135059919D01*
X121704175Y-140856721D02*
X121704175Y-137447344D01*
X120100977Y-142459919D02*
X121704175Y-140856721D01*
X120100977Y-149459919D02*
X120100977Y-142459919D01*
X96900977Y-169659919D02*
X118100977Y-169659919D01*
X118100977Y-169659919D02*
X120100977Y-167659919D01*
X120700977Y-150059919D02*
X120100977Y-149459919D01*
X120100977Y-167659919D02*
X120100977Y-154059919D01*
X121700977Y-137444146D02*
X121700977Y-135459919D01*
X120700977Y-153459919D02*
X120700977Y-150059919D01*
X121704175Y-137447344D02*
X121700977Y-137444146D01*
X120100977Y-154059919D02*
X120700977Y-153459919D01*
D46*
G04 #@! TO.N,SD_CLK_OUT*
X89400967Y-168159909D02*
X87300975Y-166059917D01*
X87300975Y-166059917D02*
X86066662Y-166059917D01*
X96446672Y-168159909D02*
X89400967Y-168159909D01*
X97720977Y-166319919D02*
X97720977Y-166885604D01*
X86066662Y-166059917D02*
X85500977Y-166059917D01*
X97720977Y-166885604D02*
X96446672Y-168159909D01*
D43*
G04 #@! TO.N,IGBT1_VL*
X126500977Y-132459917D02*
X125900977Y-132459917D01*
X127100977Y-131859917D02*
X126500977Y-132459917D01*
X126129487Y-122056725D02*
X127100977Y-123028215D01*
X127100977Y-123028215D02*
X127100977Y-131859917D01*
G04 #@! TO.N,1WIRE_IN*
X153852942Y-149936006D02*
X153852942Y-144754549D01*
X153329031Y-151487971D02*
X153329031Y-150459917D01*
X153700977Y-151859917D02*
X153329031Y-151487971D01*
X153329031Y-150459917D02*
X153852942Y-149936006D01*
X153700977Y-153459917D02*
X153700977Y-151859917D01*
X153329031Y-153831863D02*
X153700977Y-153459917D01*
D45*
X153329031Y-161659919D02*
X153329031Y-162231865D01*
X153329031Y-162231865D02*
X153100977Y-162459919D01*
D43*
X153329031Y-161659919D02*
X153329031Y-153831863D01*
G04 #@! TO.N,IGBT1_VH*
X125300977Y-122459917D02*
X125300977Y-120859917D01*
X126700977Y-123859917D02*
X125300977Y-122459917D01*
X126700977Y-130659917D02*
X126700977Y-123859917D01*
X125300977Y-120859917D02*
X125100977Y-120659917D01*
X125300977Y-133059917D02*
X125300977Y-132059917D01*
X125300977Y-132059917D02*
X126700977Y-130659917D01*
D42*
G04 #@! TO.N,/uc_adc/ADC_REFH*
X135300977Y-131659918D02*
X134900977Y-132059918D01*
X137300977Y-131659918D02*
X135300977Y-131659918D01*
G04 #@! TO.N,1V2uC*
X149300977Y-132694232D02*
X148066662Y-131459917D01*
X149300977Y-133259917D02*
X149300977Y-132694232D01*
X148066662Y-131459917D02*
X148066662Y-131025602D01*
X148066662Y-131025602D02*
X144500977Y-127459917D01*
X144500977Y-127459917D02*
X144500977Y-124059917D01*
G04 #@! TD*
M02*
