G04 #@! TF.GenerationSoftware,KiCad,Pcbnew,5.0.2+dfsg1-1*
G04 #@! TF.CreationDate,2020-03-04T17:04:27-03:00*
G04 #@! TF.ProjectId,servo,73657276-6f2e-46b6-9963-61645f706362,1.0*
G04 #@! TF.SameCoordinates,PX3dfd240PYc5e32e0*
G04 #@! TF.FileFunction,Drawing*
%FSLAX46Y46*%
G04 Gerber Fmt 4.6, Leading zero omitted, Abs format (unit mm)*
G04 Created by KiCad (PCBNEW 5.0.2+dfsg1-1) date Wed 04 Mar 2020 05:04:27 PM -03*
%MOMM*%
%LPD*%
G01*
G04 APERTURE LIST*
%ADD10C,0.100000*%
%ADD11C,0.150000*%
%ADD12C,0.300000*%
%ADD13C,0.400000*%
%ADD14C,0.010000*%
G04 APERTURE END LIST*
D10*
D11*
X234989000Y-45502200D02*
X234989000Y-77502200D01*
X342989000Y-77502200D01*
X342989000Y-45502200D01*
X234989000Y-45502200D01*
D10*
D11*
X-55000000Y197500000D02*
X-55000000Y-79502200D01*
X344989000Y-79502200D01*
X344989000Y197500000D01*
X-55000000Y197500000D01*
D10*
D11*
X-53000000Y195500000D02*
X-53000000Y-77502200D01*
X342989000Y-77502200D01*
X342989000Y195500000D01*
X-53000000Y195500000D01*
D10*
D11*
X-5000000Y195500000D02*
X-5000000Y197500000D01*
D10*
D11*
X45000000Y195500000D02*
X45000000Y197500000D01*
D10*
D11*
X95000000Y195500000D02*
X95000000Y197500000D01*
D10*
D11*
X145000000Y195500000D02*
X145000000Y197500000D01*
D10*
D11*
X195000000Y195500000D02*
X195000000Y197500000D01*
D10*
D11*
X245000000Y195500000D02*
X245000000Y197500000D01*
D10*
D11*
X295000000Y195500000D02*
X295000000Y197500000D01*
D10*
D11*
X-28934524Y195911905D02*
X-29677381Y195911905D01*
X-29305953Y195911905D02*
X-29305953Y197211905D01*
X-29429762Y197026191D01*
X-29553572Y196902381D01*
X-29677381Y196840477D01*
D10*
D11*
X20322619Y197088096D02*
X20384523Y197150000D01*
X20508333Y197211905D01*
X20817857Y197211905D01*
X20941666Y197150000D01*
X21003571Y197088096D01*
X21065476Y196964286D01*
X21065476Y196840477D01*
X21003571Y196654762D01*
X20260714Y195911905D01*
X21065476Y195911905D01*
D10*
D11*
X70260714Y197211905D02*
X71065476Y197211905D01*
X70632142Y196716667D01*
X70817857Y196716667D01*
X70941666Y196654762D01*
X71003571Y196592858D01*
X71065476Y196469048D01*
X71065476Y196159524D01*
X71003571Y196035715D01*
X70941666Y195973810D01*
X70817857Y195911905D01*
X70446428Y195911905D01*
X70322619Y195973810D01*
X70260714Y196035715D01*
D10*
D11*
X120941666Y196778572D02*
X120941666Y195911905D01*
X120632142Y197273810D02*
X120322619Y196345239D01*
X121127380Y196345239D01*
D10*
D11*
X171003571Y197211905D02*
X170384523Y197211905D01*
X170322619Y196592858D01*
X170384523Y196654762D01*
X170508333Y196716667D01*
X170817857Y196716667D01*
X170941666Y196654762D01*
X171003571Y196592858D01*
X171065476Y196469048D01*
X171065476Y196159524D01*
X171003571Y196035715D01*
X170941666Y195973810D01*
X170817857Y195911905D01*
X170508333Y195911905D01*
X170384523Y195973810D01*
X170322619Y196035715D01*
D10*
D11*
X220941666Y197211905D02*
X220694047Y197211905D01*
X220570238Y197150000D01*
X220508333Y197088096D01*
X220384523Y196902381D01*
X220322619Y196654762D01*
X220322619Y196159524D01*
X220384523Y196035715D01*
X220446428Y195973810D01*
X220570238Y195911905D01*
X220817857Y195911905D01*
X220941666Y195973810D01*
X221003571Y196035715D01*
X221065476Y196159524D01*
X221065476Y196469048D01*
X221003571Y196592858D01*
X220941666Y196654762D01*
X220817857Y196716667D01*
X220570238Y196716667D01*
X220446428Y196654762D01*
X220384523Y196592858D01*
X220322619Y196469048D01*
D10*
D11*
X270260714Y197211905D02*
X271127380Y197211905D01*
X270570238Y195911905D01*
D10*
D11*
X320570238Y196654762D02*
X320446428Y196716667D01*
X320384523Y196778572D01*
X320322619Y196902381D01*
X320322619Y196964286D01*
X320384523Y197088096D01*
X320446428Y197150000D01*
X320570238Y197211905D01*
X320817857Y197211905D01*
X320941666Y197150000D01*
X321003571Y197088096D01*
X321065476Y196964286D01*
X321065476Y196902381D01*
X321003571Y196778572D01*
X320941666Y196716667D01*
X320817857Y196654762D01*
X320570238Y196654762D01*
X320446428Y196592858D01*
X320384523Y196530953D01*
X320322619Y196407143D01*
X320322619Y196159524D01*
X320384523Y196035715D01*
X320446428Y195973810D01*
X320570238Y195911905D01*
X320817857Y195911905D01*
X320941666Y195973810D01*
X321003571Y196035715D01*
X321065476Y196159524D01*
X321065476Y196407143D01*
X321003571Y196530953D01*
X320941666Y196592858D01*
X320817857Y196654762D01*
D10*
D11*
X-5000000Y-77502200D02*
X-5000000Y-79502200D01*
D10*
D11*
X45000000Y-77502200D02*
X45000000Y-79502200D01*
D10*
D11*
X95000000Y-77502200D02*
X95000000Y-79502200D01*
D10*
D11*
X145000000Y-77502200D02*
X145000000Y-79502200D01*
D10*
D11*
X195000000Y-77502200D02*
X195000000Y-79502200D01*
D10*
D11*
X245000000Y-77502200D02*
X245000000Y-79502200D01*
D10*
D11*
X295000000Y-77502200D02*
X295000000Y-79502200D01*
D10*
D11*
X-28934524Y-79090295D02*
X-29677381Y-79090295D01*
X-29305953Y-79090295D02*
X-29305953Y-77790295D01*
X-29429762Y-77976009D01*
X-29553572Y-78099819D01*
X-29677381Y-78161723D01*
D10*
D11*
X20322619Y-77914104D02*
X20384523Y-77852200D01*
X20508333Y-77790295D01*
X20817857Y-77790295D01*
X20941666Y-77852200D01*
X21003571Y-77914104D01*
X21065476Y-78037914D01*
X21065476Y-78161723D01*
X21003571Y-78347438D01*
X20260714Y-79090295D01*
X21065476Y-79090295D01*
D10*
D11*
X70260714Y-77790295D02*
X71065476Y-77790295D01*
X70632142Y-78285533D01*
X70817857Y-78285533D01*
X70941666Y-78347438D01*
X71003571Y-78409342D01*
X71065476Y-78533152D01*
X71065476Y-78842676D01*
X71003571Y-78966485D01*
X70941666Y-79028390D01*
X70817857Y-79090295D01*
X70446428Y-79090295D01*
X70322619Y-79028390D01*
X70260714Y-78966485D01*
D10*
D11*
X120941666Y-78223628D02*
X120941666Y-79090295D01*
X120632142Y-77728390D02*
X120322619Y-78656961D01*
X121127380Y-78656961D01*
D10*
D11*
X171003571Y-77790295D02*
X170384523Y-77790295D01*
X170322619Y-78409342D01*
X170384523Y-78347438D01*
X170508333Y-78285533D01*
X170817857Y-78285533D01*
X170941666Y-78347438D01*
X171003571Y-78409342D01*
X171065476Y-78533152D01*
X171065476Y-78842676D01*
X171003571Y-78966485D01*
X170941666Y-79028390D01*
X170817857Y-79090295D01*
X170508333Y-79090295D01*
X170384523Y-79028390D01*
X170322619Y-78966485D01*
D10*
D11*
X220941666Y-77790295D02*
X220694047Y-77790295D01*
X220570238Y-77852200D01*
X220508333Y-77914104D01*
X220384523Y-78099819D01*
X220322619Y-78347438D01*
X220322619Y-78842676D01*
X220384523Y-78966485D01*
X220446428Y-79028390D01*
X220570238Y-79090295D01*
X220817857Y-79090295D01*
X220941666Y-79028390D01*
X221003571Y-78966485D01*
X221065476Y-78842676D01*
X221065476Y-78533152D01*
X221003571Y-78409342D01*
X220941666Y-78347438D01*
X220817857Y-78285533D01*
X220570238Y-78285533D01*
X220446428Y-78347438D01*
X220384523Y-78409342D01*
X220322619Y-78533152D01*
D10*
D11*
X270260714Y-77790295D02*
X271127380Y-77790295D01*
X270570238Y-79090295D01*
D10*
D11*
X320570238Y-78347438D02*
X320446428Y-78285533D01*
X320384523Y-78223628D01*
X320322619Y-78099819D01*
X320322619Y-78037914D01*
X320384523Y-77914104D01*
X320446428Y-77852200D01*
X320570238Y-77790295D01*
X320817857Y-77790295D01*
X320941666Y-77852200D01*
X321003571Y-77914104D01*
X321065476Y-78037914D01*
X321065476Y-78099819D01*
X321003571Y-78223628D01*
X320941666Y-78285533D01*
X320817857Y-78347438D01*
X320570238Y-78347438D01*
X320446428Y-78409342D01*
X320384523Y-78471247D01*
X320322619Y-78595057D01*
X320322619Y-78842676D01*
X320384523Y-78966485D01*
X320446428Y-79028390D01*
X320570238Y-79090295D01*
X320817857Y-79090295D01*
X320941666Y-79028390D01*
X321003571Y-78966485D01*
X321065476Y-78842676D01*
X321065476Y-78595057D01*
X321003571Y-78471247D01*
X320941666Y-78409342D01*
X320817857Y-78347438D01*
D10*
D11*
X-55000000Y147500000D02*
X-53000000Y147500000D01*
D10*
D11*
X-55000000Y97500000D02*
X-53000000Y97500000D01*
D10*
D11*
X-55000000Y47500000D02*
X-53000000Y47500000D01*
D10*
D11*
X-55000000Y-2500000D02*
X-53000000Y-2500000D01*
D10*
D11*
X-55000000Y-52500000D02*
X-53000000Y-52500000D01*
D10*
D11*
X-54309524Y172283334D02*
X-53690477Y172283334D01*
X-54433334Y171911905D02*
X-54000000Y173211905D01*
X-53566667Y171911905D01*
D10*
D11*
X-53907143Y122592858D02*
X-53721429Y122530953D01*
X-53659524Y122469048D01*
X-53597620Y122345239D01*
X-53597620Y122159524D01*
X-53659524Y122035715D01*
X-53721429Y121973810D01*
X-53845239Y121911905D01*
X-54340477Y121911905D01*
X-54340477Y123211905D01*
X-53907143Y123211905D01*
X-53783334Y123150000D01*
X-53721429Y123088096D01*
X-53659524Y122964286D01*
X-53659524Y122840477D01*
X-53721429Y122716667D01*
X-53783334Y122654762D01*
X-53907143Y122592858D01*
X-54340477Y122592858D01*
D10*
D11*
X-53597620Y72035715D02*
X-53659524Y71973810D01*
X-53845239Y71911905D01*
X-53969048Y71911905D01*
X-54154762Y71973810D01*
X-54278572Y72097620D01*
X-54340477Y72221429D01*
X-54402381Y72469048D01*
X-54402381Y72654762D01*
X-54340477Y72902381D01*
X-54278572Y73026191D01*
X-54154762Y73150000D01*
X-53969048Y73211905D01*
X-53845239Y73211905D01*
X-53659524Y73150000D01*
X-53597620Y73088096D01*
D10*
D11*
X-54340477Y21911905D02*
X-54340477Y23211905D01*
X-54030953Y23211905D01*
X-53845239Y23150000D01*
X-53721429Y23026191D01*
X-53659524Y22902381D01*
X-53597620Y22654762D01*
X-53597620Y22469048D01*
X-53659524Y22221429D01*
X-53721429Y22097620D01*
X-53845239Y21973810D01*
X-54030953Y21911905D01*
X-54340477Y21911905D01*
D10*
D11*
X-54278572Y-27407142D02*
X-53845239Y-27407142D01*
X-53659524Y-28088095D02*
X-54278572Y-28088095D01*
X-54278572Y-26788095D01*
X-53659524Y-26788095D01*
D10*
D11*
X-53814286Y-77407142D02*
X-54247620Y-77407142D01*
X-54247620Y-78088095D02*
X-54247620Y-76788095D01*
X-53628572Y-76788095D01*
D10*
D11*
X344989000Y147500000D02*
X342989000Y147500000D01*
D10*
D11*
X344989000Y97500000D02*
X342989000Y97500000D01*
D10*
D11*
X344989000Y47500000D02*
X342989000Y47500000D01*
D10*
D11*
X344989000Y-2500000D02*
X342989000Y-2500000D01*
D10*
D11*
X344989000Y-52500000D02*
X342989000Y-52500000D01*
D10*
D11*
X343679476Y172283334D02*
X344298523Y172283334D01*
X343555666Y171911905D02*
X343989000Y173211905D01*
X344422333Y171911905D01*
D10*
D11*
X344081857Y122592858D02*
X344267571Y122530953D01*
X344329476Y122469048D01*
X344391380Y122345239D01*
X344391380Y122159524D01*
X344329476Y122035715D01*
X344267571Y121973810D01*
X344143761Y121911905D01*
X343648523Y121911905D01*
X343648523Y123211905D01*
X344081857Y123211905D01*
X344205666Y123150000D01*
X344267571Y123088096D01*
X344329476Y122964286D01*
X344329476Y122840477D01*
X344267571Y122716667D01*
X344205666Y122654762D01*
X344081857Y122592858D01*
X343648523Y122592858D01*
D10*
D11*
X344391380Y72035715D02*
X344329476Y71973810D01*
X344143761Y71911905D01*
X344019952Y71911905D01*
X343834238Y71973810D01*
X343710428Y72097620D01*
X343648523Y72221429D01*
X343586619Y72469048D01*
X343586619Y72654762D01*
X343648523Y72902381D01*
X343710428Y73026191D01*
X343834238Y73150000D01*
X344019952Y73211905D01*
X344143761Y73211905D01*
X344329476Y73150000D01*
X344391380Y73088096D01*
D10*
D11*
X343648523Y21911905D02*
X343648523Y23211905D01*
X343958047Y23211905D01*
X344143761Y23150000D01*
X344267571Y23026191D01*
X344329476Y22902381D01*
X344391380Y22654762D01*
X344391380Y22469048D01*
X344329476Y22221429D01*
X344267571Y22097620D01*
X344143761Y21973810D01*
X343958047Y21911905D01*
X343648523Y21911905D01*
D10*
D11*
X343710428Y-27407142D02*
X344143761Y-27407142D01*
X344329476Y-28088095D02*
X343710428Y-28088095D01*
X343710428Y-26788095D01*
X344329476Y-26788095D01*
D10*
D11*
X344174714Y-77407142D02*
X343741380Y-77407142D01*
X343741380Y-78088095D02*
X343741380Y-76788095D01*
X344360428Y-76788095D01*
D10*
D11*
X258421142Y-73280771D02*
X258421142Y-71780771D01*
X258778285Y-71780771D01*
X258992571Y-71852200D01*
X259135428Y-71995057D01*
X259206857Y-72137914D01*
X259278285Y-72423628D01*
X259278285Y-72637914D01*
X259206857Y-72923628D01*
X259135428Y-73066485D01*
X258992571Y-73209342D01*
X258778285Y-73280771D01*
X258421142Y-73280771D01*
X260564000Y-73280771D02*
X260564000Y-72495057D01*
X260492571Y-72352200D01*
X260349714Y-72280771D01*
X260064000Y-72280771D01*
X259921142Y-72352200D01*
X260564000Y-73209342D02*
X260421142Y-73280771D01*
X260064000Y-73280771D01*
X259921142Y-73209342D01*
X259849714Y-73066485D01*
X259849714Y-72923628D01*
X259921142Y-72780771D01*
X260064000Y-72709342D01*
X260421142Y-72709342D01*
X260564000Y-72637914D01*
X261064000Y-72280771D02*
X261635428Y-72280771D01*
X261278285Y-71780771D02*
X261278285Y-73066485D01*
X261349714Y-73209342D01*
X261492571Y-73280771D01*
X261635428Y-73280771D01*
X262706857Y-73209342D02*
X262564000Y-73280771D01*
X262278285Y-73280771D01*
X262135428Y-73209342D01*
X262064000Y-73066485D01*
X262064000Y-72495057D01*
X262135428Y-72352200D01*
X262278285Y-72280771D01*
X262564000Y-72280771D01*
X262706857Y-72352200D01*
X262778285Y-72495057D01*
X262778285Y-72637914D01*
X262064000Y-72780771D01*
X263421142Y-73137914D02*
X263492571Y-73209342D01*
X263421142Y-73280771D01*
X263349714Y-73209342D01*
X263421142Y-73137914D01*
X263421142Y-73280771D01*
X263421142Y-72352200D02*
X263492571Y-72423628D01*
X263421142Y-72495057D01*
X263349714Y-72423628D01*
X263421142Y-72352200D01*
X263421142Y-72495057D01*
X265206857Y-71923628D02*
X265278285Y-71852200D01*
X265421142Y-71780771D01*
X265778285Y-71780771D01*
X265921142Y-71852200D01*
X265992571Y-71923628D01*
X266064000Y-72066485D01*
X266064000Y-72209342D01*
X265992571Y-72423628D01*
X265135428Y-73280771D01*
X266064000Y-73280771D01*
X266992571Y-71780771D02*
X267135428Y-71780771D01*
X267278285Y-71852200D01*
X267349714Y-71923628D01*
X267421142Y-72066485D01*
X267492571Y-72352200D01*
X267492571Y-72709342D01*
X267421142Y-72995057D01*
X267349714Y-73137914D01*
X267278285Y-73209342D01*
X267135428Y-73280771D01*
X266992571Y-73280771D01*
X266849714Y-73209342D01*
X266778285Y-73137914D01*
X266706857Y-72995057D01*
X266635428Y-72709342D01*
X266635428Y-72352200D01*
X266706857Y-72066485D01*
X266778285Y-71923628D01*
X266849714Y-71852200D01*
X266992571Y-71780771D01*
X268064000Y-71923628D02*
X268135428Y-71852200D01*
X268278285Y-71780771D01*
X268635428Y-71780771D01*
X268778285Y-71852200D01*
X268849714Y-71923628D01*
X268921142Y-72066485D01*
X268921142Y-72209342D01*
X268849714Y-72423628D01*
X267992571Y-73280771D01*
X268921142Y-73280771D01*
X269849714Y-71780771D02*
X269992571Y-71780771D01*
X270135428Y-71852200D01*
X270206857Y-71923628D01*
X270278285Y-72066485D01*
X270349714Y-72352200D01*
X270349714Y-72709342D01*
X270278285Y-72995057D01*
X270206857Y-73137914D01*
X270135428Y-73209342D01*
X269992571Y-73280771D01*
X269849714Y-73280771D01*
X269706857Y-73209342D01*
X269635428Y-73137914D01*
X269564000Y-72995057D01*
X269492571Y-72709342D01*
X269492571Y-72352200D01*
X269564000Y-72066485D01*
X269635428Y-71923628D01*
X269706857Y-71852200D01*
X269849714Y-71780771D01*
X270992571Y-72709342D02*
X272135428Y-72709342D01*
X273135428Y-71780771D02*
X273278285Y-71780771D01*
X273421142Y-71852200D01*
X273492571Y-71923628D01*
X273564000Y-72066485D01*
X273635428Y-72352200D01*
X273635428Y-72709342D01*
X273564000Y-72995057D01*
X273492571Y-73137914D01*
X273421142Y-73209342D01*
X273278285Y-73280771D01*
X273135428Y-73280771D01*
X272992571Y-73209342D01*
X272921142Y-73137914D01*
X272849714Y-72995057D01*
X272778285Y-72709342D01*
X272778285Y-72352200D01*
X272849714Y-72066485D01*
X272921142Y-71923628D01*
X272992571Y-71852200D01*
X273135428Y-71780771D01*
X274135428Y-71780771D02*
X275064000Y-71780771D01*
X274564000Y-72352200D01*
X274778285Y-72352200D01*
X274921142Y-72423628D01*
X274992571Y-72495057D01*
X275064000Y-72637914D01*
X275064000Y-72995057D01*
X274992571Y-73137914D01*
X274921142Y-73209342D01*
X274778285Y-73280771D01*
X274349714Y-73280771D01*
X274206857Y-73209342D01*
X274135428Y-73137914D01*
X275706857Y-72709342D02*
X276849714Y-72709342D01*
X277849714Y-71780771D02*
X277992571Y-71780771D01*
X278135428Y-71852200D01*
X278206857Y-71923628D01*
X278278285Y-72066485D01*
X278349714Y-72352200D01*
X278349714Y-72709342D01*
X278278285Y-72995057D01*
X278206857Y-73137914D01*
X278135428Y-73209342D01*
X277992571Y-73280771D01*
X277849714Y-73280771D01*
X277706857Y-73209342D01*
X277635428Y-73137914D01*
X277564000Y-72995057D01*
X277492571Y-72709342D01*
X277492571Y-72352200D01*
X277564000Y-72066485D01*
X277635428Y-71923628D01*
X277706857Y-71852200D01*
X277849714Y-71780771D01*
X278849714Y-71780771D02*
X279778285Y-71780771D01*
X279278285Y-72352200D01*
X279492571Y-72352200D01*
X279635428Y-72423628D01*
X279706857Y-72495057D01*
X279778285Y-72637914D01*
X279778285Y-72995057D01*
X279706857Y-73137914D01*
X279635428Y-73209342D01*
X279492571Y-73280771D01*
X279064000Y-73280771D01*
X278921142Y-73209342D01*
X278849714Y-73137914D01*
D10*
D11*
X234989000Y-74002200D02*
X342989000Y-74002200D01*
D10*
D11*
X236421142Y-76080771D02*
X236421142Y-74580771D01*
X237278285Y-76080771D02*
X236635428Y-75223628D01*
X237278285Y-74580771D02*
X236421142Y-75437914D01*
X237921142Y-76080771D02*
X237921142Y-75080771D01*
X237921142Y-74580771D02*
X237849714Y-74652200D01*
X237921142Y-74723628D01*
X237992571Y-74652200D01*
X237921142Y-74580771D01*
X237921142Y-74723628D01*
X239492571Y-75937914D02*
X239421142Y-76009342D01*
X239206857Y-76080771D01*
X239064000Y-76080771D01*
X238849714Y-76009342D01*
X238706857Y-75866485D01*
X238635428Y-75723628D01*
X238564000Y-75437914D01*
X238564000Y-75223628D01*
X238635428Y-74937914D01*
X238706857Y-74795057D01*
X238849714Y-74652200D01*
X239064000Y-74580771D01*
X239206857Y-74580771D01*
X239421142Y-74652200D01*
X239492571Y-74723628D01*
X240778285Y-76080771D02*
X240778285Y-75295057D01*
X240706857Y-75152200D01*
X240564000Y-75080771D01*
X240278285Y-75080771D01*
X240135428Y-75152200D01*
X240778285Y-76009342D02*
X240635428Y-76080771D01*
X240278285Y-76080771D01*
X240135428Y-76009342D01*
X240064000Y-75866485D01*
X240064000Y-75723628D01*
X240135428Y-75580771D01*
X240278285Y-75509342D01*
X240635428Y-75509342D01*
X240778285Y-75437914D01*
X242135428Y-76080771D02*
X242135428Y-74580771D01*
X242135428Y-76009342D02*
X241992571Y-76080771D01*
X241706857Y-76080771D01*
X241564000Y-76009342D01*
X241492571Y-75937914D01*
X241421142Y-75795057D01*
X241421142Y-75366485D01*
X241492571Y-75223628D01*
X241564000Y-75152200D01*
X241706857Y-75080771D01*
X241992571Y-75080771D01*
X242135428Y-75152200D01*
X243992571Y-75295057D02*
X244492571Y-75295057D01*
X244706857Y-76080771D02*
X243992571Y-76080771D01*
X243992571Y-74580771D01*
X244706857Y-74580771D01*
X245349714Y-75937914D02*
X245421142Y-76009342D01*
X245349714Y-76080771D01*
X245278285Y-76009342D01*
X245349714Y-75937914D01*
X245349714Y-76080771D01*
X246064000Y-76080771D02*
X246064000Y-74580771D01*
X246421142Y-74580771D01*
X246635428Y-74652200D01*
X246778285Y-74795057D01*
X246849714Y-74937914D01*
X246921142Y-75223628D01*
X246921142Y-75437914D01*
X246849714Y-75723628D01*
X246778285Y-75866485D01*
X246635428Y-76009342D01*
X246421142Y-76080771D01*
X246064000Y-76080771D01*
X247564000Y-75937914D02*
X247635428Y-76009342D01*
X247564000Y-76080771D01*
X247492571Y-76009342D01*
X247564000Y-75937914D01*
X247564000Y-76080771D01*
X248206857Y-75652200D02*
X248921142Y-75652200D01*
X248064000Y-76080771D02*
X248564000Y-74580771D01*
X249064000Y-76080771D01*
X249564000Y-75937914D02*
X249635428Y-76009342D01*
X249564000Y-76080771D01*
X249492571Y-76009342D01*
X249564000Y-75937914D01*
X249564000Y-76080771D01*
X252564000Y-76080771D02*
X252564000Y-74580771D01*
X252706857Y-75509342D02*
X253135428Y-76080771D01*
X253135428Y-75080771D02*
X252564000Y-75652200D01*
X253778285Y-76080771D02*
X253778285Y-75080771D01*
X253778285Y-74580771D02*
X253706857Y-74652200D01*
X253778285Y-74723628D01*
X253849714Y-74652200D01*
X253778285Y-74580771D01*
X253778285Y-74723628D01*
X255135428Y-76009342D02*
X254992571Y-76080771D01*
X254706857Y-76080771D01*
X254564000Y-76009342D01*
X254492571Y-75937914D01*
X254421142Y-75795057D01*
X254421142Y-75366485D01*
X254492571Y-75223628D01*
X254564000Y-75152200D01*
X254706857Y-75080771D01*
X254992571Y-75080771D01*
X255135428Y-75152200D01*
X256421142Y-76080771D02*
X256421142Y-75295057D01*
X256349714Y-75152200D01*
X256206857Y-75080771D01*
X255921142Y-75080771D01*
X255778285Y-75152200D01*
X256421142Y-76009342D02*
X256278285Y-76080771D01*
X255921142Y-76080771D01*
X255778285Y-76009342D01*
X255706857Y-75866485D01*
X255706857Y-75723628D01*
X255778285Y-75580771D01*
X255921142Y-75509342D01*
X256278285Y-75509342D01*
X256421142Y-75437914D01*
X257778285Y-76080771D02*
X257778285Y-74580771D01*
X257778285Y-76009342D02*
X257635428Y-76080771D01*
X257349714Y-76080771D01*
X257206857Y-76009342D01*
X257135428Y-75937914D01*
X257064000Y-75795057D01*
X257064000Y-75366485D01*
X257135428Y-75223628D01*
X257206857Y-75152200D01*
X257349714Y-75080771D01*
X257635428Y-75080771D01*
X257778285Y-75152200D01*
X260349714Y-74580771D02*
X259635428Y-74580771D01*
X259564000Y-75295057D01*
X259635428Y-75223628D01*
X259778285Y-75152200D01*
X260135428Y-75152200D01*
X260278285Y-75223628D01*
X260349714Y-75295057D01*
X260421142Y-75437914D01*
X260421142Y-75795057D01*
X260349714Y-75937914D01*
X260278285Y-76009342D01*
X260135428Y-76080771D01*
X259778285Y-76080771D01*
X259635428Y-76009342D01*
X259564000Y-75937914D01*
X261064000Y-75937914D02*
X261135428Y-76009342D01*
X261064000Y-76080771D01*
X260992571Y-76009342D01*
X261064000Y-75937914D01*
X261064000Y-76080771D01*
X262064000Y-74580771D02*
X262206857Y-74580771D01*
X262349714Y-74652200D01*
X262421142Y-74723628D01*
X262492571Y-74866485D01*
X262564000Y-75152200D01*
X262564000Y-75509342D01*
X262492571Y-75795057D01*
X262421142Y-75937914D01*
X262349714Y-76009342D01*
X262206857Y-76080771D01*
X262064000Y-76080771D01*
X261921142Y-76009342D01*
X261849714Y-75937914D01*
X261778285Y-75795057D01*
X261706857Y-75509342D01*
X261706857Y-75152200D01*
X261778285Y-74866485D01*
X261849714Y-74723628D01*
X261921142Y-74652200D01*
X262064000Y-74580771D01*
X263206857Y-75937914D02*
X263278285Y-76009342D01*
X263206857Y-76080771D01*
X263135428Y-76009342D01*
X263206857Y-75937914D01*
X263206857Y-76080771D01*
X263849714Y-74723628D02*
X263921142Y-74652200D01*
X264064000Y-74580771D01*
X264421142Y-74580771D01*
X264564000Y-74652200D01*
X264635428Y-74723628D01*
X264706857Y-74866485D01*
X264706857Y-75009342D01*
X264635428Y-75223628D01*
X263778285Y-76080771D01*
X264706857Y-76080771D01*
X265349714Y-75509342D02*
X266492571Y-75509342D01*
X265921142Y-76080771D02*
X265921142Y-74937914D01*
X267849714Y-76080771D02*
X267849714Y-74580771D01*
X267849714Y-76009342D02*
X267706857Y-76080771D01*
X267421142Y-76080771D01*
X267278285Y-76009342D01*
X267206857Y-75937914D01*
X267135428Y-75795057D01*
X267135428Y-75366485D01*
X267206857Y-75223628D01*
X267278285Y-75152200D01*
X267421142Y-75080771D01*
X267706857Y-75080771D01*
X267849714Y-75152200D01*
X268349714Y-75080771D02*
X268921142Y-75080771D01*
X268564000Y-76080771D02*
X268564000Y-74795057D01*
X268635428Y-74652200D01*
X268778285Y-74580771D01*
X268921142Y-74580771D01*
X269349714Y-76009342D02*
X269492571Y-76080771D01*
X269778285Y-76080771D01*
X269921142Y-76009342D01*
X269992571Y-75866485D01*
X269992571Y-75795057D01*
X269921142Y-75652200D01*
X269778285Y-75580771D01*
X269564000Y-75580771D01*
X269421142Y-75509342D01*
X269349714Y-75366485D01*
X269349714Y-75295057D01*
X269421142Y-75152200D01*
X269564000Y-75080771D01*
X269778285Y-75080771D01*
X269921142Y-75152200D01*
X271278285Y-75080771D02*
X271278285Y-76295057D01*
X271206857Y-76437914D01*
X271135428Y-76509342D01*
X270992571Y-76580771D01*
X270778285Y-76580771D01*
X270635428Y-76509342D01*
X271278285Y-76009342D02*
X271135428Y-76080771D01*
X270849714Y-76080771D01*
X270706857Y-76009342D01*
X270635428Y-75937914D01*
X270564000Y-75795057D01*
X270564000Y-75366485D01*
X270635428Y-75223628D01*
X270706857Y-75152200D01*
X270849714Y-75080771D01*
X271135428Y-75080771D01*
X271278285Y-75152200D01*
X272778285Y-76080771D02*
X271921142Y-76080771D01*
X272349714Y-76080771D02*
X272349714Y-74580771D01*
X272206857Y-74795057D01*
X272064000Y-74937914D01*
X271921142Y-75009342D01*
X273421142Y-75509342D02*
X274564000Y-75509342D01*
X276064000Y-76080771D02*
X275206857Y-76080771D01*
X275635428Y-76080771D02*
X275635428Y-74580771D01*
X275492571Y-74795057D01*
X275349714Y-74937914D01*
X275206857Y-75009342D01*
D10*
D11*
X234989000Y-71002200D02*
X342989000Y-71002200D01*
D10*
D12*
X322398285Y-73280771D02*
X321898285Y-72566485D01*
X321541142Y-73280771D02*
X321541142Y-71780771D01*
X322112571Y-71780771D01*
X322255428Y-71852200D01*
X322326857Y-71923628D01*
X322398285Y-72066485D01*
X322398285Y-72280771D01*
X322326857Y-72423628D01*
X322255428Y-72495057D01*
X322112571Y-72566485D01*
X321541142Y-72566485D01*
X323612571Y-73209342D02*
X323469714Y-73280771D01*
X323184000Y-73280771D01*
X323041142Y-73209342D01*
X322969714Y-73066485D01*
X322969714Y-72495057D01*
X323041142Y-72352200D01*
X323184000Y-72280771D01*
X323469714Y-72280771D01*
X323612571Y-72352200D01*
X323684000Y-72495057D01*
X323684000Y-72637914D01*
X322969714Y-72780771D01*
X324184000Y-72280771D02*
X324541142Y-73280771D01*
X324898285Y-72280771D01*
X325469714Y-73137914D02*
X325541142Y-73209342D01*
X325469714Y-73280771D01*
X325398285Y-73209342D01*
X325469714Y-73137914D01*
X325469714Y-73280771D01*
X325469714Y-72352200D02*
X325541142Y-72423628D01*
X325469714Y-72495057D01*
X325398285Y-72423628D01*
X325469714Y-72352200D01*
X325469714Y-72495057D01*
X328112571Y-73280771D02*
X327255428Y-73280771D01*
X327684000Y-73280771D02*
X327684000Y-71780771D01*
X327541142Y-71995057D01*
X327398285Y-72137914D01*
X327255428Y-72209342D01*
X328755428Y-73137914D02*
X328826857Y-73209342D01*
X328755428Y-73280771D01*
X328684000Y-73209342D01*
X328755428Y-73137914D01*
X328755428Y-73280771D01*
X329755428Y-71780771D02*
X329898285Y-71780771D01*
X330041142Y-71852200D01*
X330112571Y-71923628D01*
X330184000Y-72066485D01*
X330255428Y-72352200D01*
X330255428Y-72709342D01*
X330184000Y-72995057D01*
X330112571Y-73137914D01*
X330041142Y-73209342D01*
X329898285Y-73280771D01*
X329755428Y-73280771D01*
X329612571Y-73209342D01*
X329541142Y-73137914D01*
X329469714Y-72995057D01*
X329398285Y-72709342D01*
X329398285Y-72352200D01*
X329469714Y-72066485D01*
X329541142Y-71923628D01*
X329612571Y-71852200D01*
X329755428Y-71780771D01*
D10*
D11*
X236349714Y-73209342D02*
X236564000Y-73280771D01*
X236921142Y-73280771D01*
X237064000Y-73209342D01*
X237135428Y-73137914D01*
X237206857Y-72995057D01*
X237206857Y-72852200D01*
X237135428Y-72709342D01*
X237064000Y-72637914D01*
X236921142Y-72566485D01*
X236635428Y-72495057D01*
X236492571Y-72423628D01*
X236421142Y-72352200D01*
X236349714Y-72209342D01*
X236349714Y-72066485D01*
X236421142Y-71923628D01*
X236492571Y-71852200D01*
X236635428Y-71780771D01*
X236992571Y-71780771D01*
X237206857Y-71852200D01*
X237849714Y-73280771D02*
X237849714Y-72280771D01*
X237849714Y-71780771D02*
X237778285Y-71852200D01*
X237849714Y-71923628D01*
X237921142Y-71852200D01*
X237849714Y-71780771D01*
X237849714Y-71923628D01*
X238421142Y-72280771D02*
X239206857Y-72280771D01*
X238421142Y-73280771D01*
X239206857Y-73280771D01*
X240349714Y-73209342D02*
X240206857Y-73280771D01*
X239921142Y-73280771D01*
X239778285Y-73209342D01*
X239706857Y-73066485D01*
X239706857Y-72495057D01*
X239778285Y-72352200D01*
X239921142Y-72280771D01*
X240206857Y-72280771D01*
X240349714Y-72352200D01*
X240421142Y-72495057D01*
X240421142Y-72637914D01*
X239706857Y-72780771D01*
X241064000Y-73137914D02*
X241135428Y-73209342D01*
X241064000Y-73280771D01*
X240992571Y-73209342D01*
X241064000Y-73137914D01*
X241064000Y-73280771D01*
X241064000Y-72352200D02*
X241135428Y-72423628D01*
X241064000Y-72495057D01*
X240992571Y-72423628D01*
X241064000Y-72352200D01*
X241064000Y-72495057D01*
X242849714Y-72852200D02*
X243564000Y-72852200D01*
X242706857Y-73280771D02*
X243206857Y-71780771D01*
X243706857Y-73280771D01*
X244064000Y-71780771D02*
X244992571Y-71780771D01*
X244492571Y-72352200D01*
X244706857Y-72352200D01*
X244849714Y-72423628D01*
X244921142Y-72495057D01*
X244992571Y-72637914D01*
X244992571Y-72995057D01*
X244921142Y-73137914D01*
X244849714Y-73209342D01*
X244706857Y-73280771D01*
X244278285Y-73280771D01*
X244135428Y-73209342D01*
X244064000Y-73137914D01*
D10*
D11*
X321421142Y-76080771D02*
X321421142Y-74580771D01*
X322778285Y-76080771D02*
X322778285Y-74580771D01*
X322778285Y-76009342D02*
X322635428Y-76080771D01*
X322349714Y-76080771D01*
X322206857Y-76009342D01*
X322135428Y-75937914D01*
X322064000Y-75795057D01*
X322064000Y-75366485D01*
X322135428Y-75223628D01*
X322206857Y-75152200D01*
X322349714Y-75080771D01*
X322635428Y-75080771D01*
X322778285Y-75152200D01*
X323492571Y-75937914D02*
X323564000Y-76009342D01*
X323492571Y-76080771D01*
X323421142Y-76009342D01*
X323492571Y-75937914D01*
X323492571Y-76080771D01*
X323492571Y-75152200D02*
X323564000Y-75223628D01*
X323492571Y-75295057D01*
X323421142Y-75223628D01*
X323492571Y-75152200D01*
X323492571Y-75295057D01*
X326135428Y-76080771D02*
X325278285Y-76080771D01*
X325706857Y-76080771D02*
X325706857Y-74580771D01*
X325564000Y-74795057D01*
X325421142Y-74937914D01*
X325278285Y-75009342D01*
X327849714Y-74509342D02*
X326564000Y-76437914D01*
X329135428Y-76080771D02*
X328278285Y-76080771D01*
X328706857Y-76080771D02*
X328706857Y-74580771D01*
X328564000Y-74795057D01*
X328421142Y-74937914D01*
X328278285Y-75009342D01*
D10*
D11*
X234989000Y-67002200D02*
X342989000Y-67002200D01*
D10*
D13*
X236701380Y-67706961D02*
X237844238Y-67706961D01*
X237022809Y-69706961D02*
X237272809Y-67706961D01*
X238260904Y-69706961D02*
X238427571Y-68373628D01*
X238510904Y-67706961D02*
X238403761Y-67802200D01*
X238487095Y-67897438D01*
X238594238Y-67802200D01*
X238510904Y-67706961D01*
X238487095Y-67897438D01*
X239094238Y-68373628D02*
X239856142Y-68373628D01*
X239463285Y-67706961D02*
X239249000Y-69421247D01*
X239320428Y-69611723D01*
X239499000Y-69706961D01*
X239689476Y-69706961D01*
X240641857Y-69706961D02*
X240463285Y-69611723D01*
X240391857Y-69421247D01*
X240606142Y-67706961D01*
X242177571Y-69611723D02*
X241975190Y-69706961D01*
X241594238Y-69706961D01*
X241415666Y-69611723D01*
X241344238Y-69421247D01*
X241439476Y-68659342D01*
X241558523Y-68468866D01*
X241760904Y-68373628D01*
X242141857Y-68373628D01*
X242320428Y-68468866D01*
X242391857Y-68659342D01*
X242368047Y-68849819D01*
X241391857Y-69040295D01*
X243141857Y-69516485D02*
X243225190Y-69611723D01*
X243118047Y-69706961D01*
X243034714Y-69611723D01*
X243141857Y-69516485D01*
X243118047Y-69706961D01*
X243272809Y-68468866D02*
X243356142Y-68564104D01*
X243249000Y-68659342D01*
X243165666Y-68564104D01*
X243272809Y-68468866D01*
X243249000Y-68659342D01*
X245510904Y-69611723D02*
X245784714Y-69706961D01*
X246260904Y-69706961D01*
X246463285Y-69611723D01*
X246570428Y-69516485D01*
X246689476Y-69326009D01*
X246713285Y-69135533D01*
X246641857Y-68945057D01*
X246558523Y-68849819D01*
X246379952Y-68754580D01*
X246010904Y-68659342D01*
X245832333Y-68564104D01*
X245749000Y-68468866D01*
X245677571Y-68278390D01*
X245701380Y-68087914D01*
X245820428Y-67897438D01*
X245927571Y-67802200D01*
X246129952Y-67706961D01*
X246606142Y-67706961D01*
X246879952Y-67802200D01*
X248272809Y-69611723D02*
X248070428Y-69706961D01*
X247689476Y-69706961D01*
X247510904Y-69611723D01*
X247439476Y-69421247D01*
X247534714Y-68659342D01*
X247653761Y-68468866D01*
X247856142Y-68373628D01*
X248237095Y-68373628D01*
X248415666Y-68468866D01*
X248487095Y-68659342D01*
X248463285Y-68849819D01*
X247487095Y-69040295D01*
X249213285Y-69706961D02*
X249379952Y-68373628D01*
X249332333Y-68754580D02*
X249451380Y-68564104D01*
X249558523Y-68468866D01*
X249760904Y-68373628D01*
X249951380Y-68373628D01*
X250427571Y-68373628D02*
X250737095Y-69706961D01*
X251379952Y-68373628D01*
X252260904Y-69706961D02*
X252082333Y-69611723D01*
X251999000Y-69516485D01*
X251927571Y-69326009D01*
X251999000Y-68754580D01*
X252118047Y-68564104D01*
X252225190Y-68468866D01*
X252427571Y-68373628D01*
X252713285Y-68373628D01*
X252891857Y-68468866D01*
X252975190Y-68564104D01*
X253046619Y-68754580D01*
X252975190Y-69326009D01*
X252856142Y-69516485D01*
X252749000Y-69611723D01*
X252546619Y-69706961D01*
X252260904Y-69706961D01*
X255308523Y-69706961D02*
X255558523Y-67706961D01*
X256034714Y-67706961D01*
X256308523Y-67802200D01*
X256475190Y-67992676D01*
X256546619Y-68183152D01*
X256594238Y-68564104D01*
X256558523Y-68849819D01*
X256415666Y-69230771D01*
X256296619Y-69421247D01*
X256082333Y-69611723D01*
X255784714Y-69706961D01*
X255308523Y-69706961D01*
X257308523Y-69706961D02*
X257475190Y-68373628D01*
X257427571Y-68754580D02*
X257546619Y-68564104D01*
X257653761Y-68468866D01*
X257856142Y-68373628D01*
X258046619Y-68373628D01*
X258546619Y-69706961D02*
X258713285Y-68373628D01*
X258796619Y-67706961D02*
X258689476Y-67802200D01*
X258772809Y-67897438D01*
X258879952Y-67802200D01*
X258796619Y-67706961D01*
X258772809Y-67897438D01*
X259475190Y-68373628D02*
X259784714Y-69706961D01*
X260427571Y-68373628D01*
X261796619Y-69611723D02*
X261594238Y-69706961D01*
X261213285Y-69706961D01*
X261034714Y-69611723D01*
X260963285Y-69421247D01*
X261058523Y-68659342D01*
X261177571Y-68468866D01*
X261379952Y-68373628D01*
X261760904Y-68373628D01*
X261939476Y-68468866D01*
X262010904Y-68659342D01*
X261987095Y-68849819D01*
X261010904Y-69040295D01*
D10*
D11*
X236921142Y-65095057D02*
X236421142Y-65095057D01*
X236421142Y-65880771D02*
X236421142Y-64380771D01*
X237135428Y-64380771D01*
X237706857Y-65880771D02*
X237706857Y-64880771D01*
X237706857Y-64380771D02*
X237635428Y-64452200D01*
X237706857Y-64523628D01*
X237778285Y-64452200D01*
X237706857Y-64380771D01*
X237706857Y-64523628D01*
X238635428Y-65880771D02*
X238492571Y-65809342D01*
X238421142Y-65666485D01*
X238421142Y-64380771D01*
X239778285Y-65809342D02*
X239635428Y-65880771D01*
X239349714Y-65880771D01*
X239206857Y-65809342D01*
X239135428Y-65666485D01*
X239135428Y-65095057D01*
X239206857Y-64952200D01*
X239349714Y-64880771D01*
X239635428Y-64880771D01*
X239778285Y-64952200D01*
X239849714Y-65095057D01*
X239849714Y-65237914D01*
X239135428Y-65380771D01*
X240492571Y-65737914D02*
X240564000Y-65809342D01*
X240492571Y-65880771D01*
X240421142Y-65809342D01*
X240492571Y-65737914D01*
X240492571Y-65880771D01*
X240492571Y-64952200D02*
X240564000Y-65023628D01*
X240492571Y-65095057D01*
X240421142Y-65023628D01*
X240492571Y-64952200D01*
X240492571Y-65095057D01*
X242278285Y-65809342D02*
X242421142Y-65880771D01*
X242706857Y-65880771D01*
X242849714Y-65809342D01*
X242921142Y-65666485D01*
X242921142Y-65595057D01*
X242849714Y-65452200D01*
X242706857Y-65380771D01*
X242492571Y-65380771D01*
X242349714Y-65309342D01*
X242278285Y-65166485D01*
X242278285Y-65095057D01*
X242349714Y-64952200D01*
X242492571Y-64880771D01*
X242706857Y-64880771D01*
X242849714Y-64952200D01*
X244135428Y-65809342D02*
X243992571Y-65880771D01*
X243706857Y-65880771D01*
X243564000Y-65809342D01*
X243492571Y-65666485D01*
X243492571Y-65095057D01*
X243564000Y-64952200D01*
X243706857Y-64880771D01*
X243992571Y-64880771D01*
X244135428Y-64952200D01*
X244206857Y-65095057D01*
X244206857Y-65237914D01*
X243492571Y-65380771D01*
X244849714Y-65880771D02*
X244849714Y-64880771D01*
X244849714Y-65166485D02*
X244921142Y-65023628D01*
X244992571Y-64952200D01*
X245135428Y-64880771D01*
X245278285Y-64880771D01*
X245635428Y-64880771D02*
X245992571Y-65880771D01*
X246349714Y-64880771D01*
X247135428Y-65880771D02*
X246992571Y-65809342D01*
X246921142Y-65737914D01*
X246849714Y-65595057D01*
X246849714Y-65166485D01*
X246921142Y-65023628D01*
X246992571Y-64952200D01*
X247135428Y-64880771D01*
X247349714Y-64880771D01*
X247492571Y-64952200D01*
X247564000Y-65023628D01*
X247635428Y-65166485D01*
X247635428Y-65595057D01*
X247564000Y-65737914D01*
X247492571Y-65809342D01*
X247349714Y-65880771D01*
X247135428Y-65880771D01*
X248278285Y-65737914D02*
X248349714Y-65809342D01*
X248278285Y-65880771D01*
X248206857Y-65809342D01*
X248278285Y-65737914D01*
X248278285Y-65880771D01*
X248992571Y-65880771D02*
X248992571Y-64380771D01*
X249135428Y-65309342D02*
X249564000Y-65880771D01*
X249564000Y-64880771D02*
X248992571Y-65452200D01*
X250206857Y-65880771D02*
X250206857Y-64880771D01*
X250206857Y-64380771D02*
X250135428Y-64452200D01*
X250206857Y-64523628D01*
X250278285Y-64452200D01*
X250206857Y-64380771D01*
X250206857Y-64523628D01*
X251564000Y-65809342D02*
X251421142Y-65880771D01*
X251135428Y-65880771D01*
X250992571Y-65809342D01*
X250921142Y-65737914D01*
X250849714Y-65595057D01*
X250849714Y-65166485D01*
X250921142Y-65023628D01*
X250992571Y-64952200D01*
X251135428Y-64880771D01*
X251421142Y-64880771D01*
X251564000Y-64952200D01*
X252849714Y-65880771D02*
X252849714Y-65095057D01*
X252778285Y-64952200D01*
X252635428Y-64880771D01*
X252349714Y-64880771D01*
X252206857Y-64952200D01*
X252849714Y-65809342D02*
X252706857Y-65880771D01*
X252349714Y-65880771D01*
X252206857Y-65809342D01*
X252135428Y-65666485D01*
X252135428Y-65523628D01*
X252206857Y-65380771D01*
X252349714Y-65309342D01*
X252706857Y-65309342D01*
X252849714Y-65237914D01*
X254206857Y-65880771D02*
X254206857Y-64380771D01*
X254206857Y-65809342D02*
X254064000Y-65880771D01*
X253778285Y-65880771D01*
X253635428Y-65809342D01*
X253564000Y-65737914D01*
X253492571Y-65595057D01*
X253492571Y-65166485D01*
X253564000Y-65023628D01*
X253635428Y-64952200D01*
X253778285Y-64880771D01*
X254064000Y-64880771D01*
X254206857Y-64952200D01*
X254564000Y-66023628D02*
X255706857Y-66023628D01*
X256064000Y-64880771D02*
X256064000Y-66380771D01*
X256064000Y-64952200D02*
X256206857Y-64880771D01*
X256492571Y-64880771D01*
X256635428Y-64952200D01*
X256706857Y-65023628D01*
X256778285Y-65166485D01*
X256778285Y-65595057D01*
X256706857Y-65737914D01*
X256635428Y-65809342D01*
X256492571Y-65880771D01*
X256206857Y-65880771D01*
X256064000Y-65809342D01*
X258064000Y-65809342D02*
X257921142Y-65880771D01*
X257635428Y-65880771D01*
X257492571Y-65809342D01*
X257421142Y-65737914D01*
X257349714Y-65595057D01*
X257349714Y-65166485D01*
X257421142Y-65023628D01*
X257492571Y-64952200D01*
X257635428Y-64880771D01*
X257921142Y-64880771D01*
X258064000Y-64952200D01*
X258706857Y-65880771D02*
X258706857Y-64380771D01*
X258706857Y-64952200D02*
X258849714Y-64880771D01*
X259135428Y-64880771D01*
X259278285Y-64952200D01*
X259349714Y-65023628D01*
X259421142Y-65166485D01*
X259421142Y-65595057D01*
X259349714Y-65737914D01*
X259278285Y-65809342D01*
X259135428Y-65880771D01*
X258849714Y-65880771D01*
X258706857Y-65809342D01*
D10*
D11*
X234989000Y-61002200D02*
X342989000Y-61002200D01*
D10*
D11*
X236349714Y-63109342D02*
X236564000Y-63180771D01*
X236921142Y-63180771D01*
X237064000Y-63109342D01*
X237135428Y-63037914D01*
X237206857Y-62895057D01*
X237206857Y-62752200D01*
X237135428Y-62609342D01*
X237064000Y-62537914D01*
X236921142Y-62466485D01*
X236635428Y-62395057D01*
X236492571Y-62323628D01*
X236421142Y-62252200D01*
X236349714Y-62109342D01*
X236349714Y-61966485D01*
X236421142Y-61823628D01*
X236492571Y-61752200D01*
X236635428Y-61680771D01*
X236992571Y-61680771D01*
X237206857Y-61752200D01*
X237849714Y-63180771D02*
X237849714Y-61680771D01*
X238492571Y-63180771D02*
X238492571Y-62395057D01*
X238421142Y-62252200D01*
X238278285Y-62180771D01*
X238064000Y-62180771D01*
X237921142Y-62252200D01*
X237849714Y-62323628D01*
X239778285Y-63109342D02*
X239635428Y-63180771D01*
X239349714Y-63180771D01*
X239206857Y-63109342D01*
X239135428Y-62966485D01*
X239135428Y-62395057D01*
X239206857Y-62252200D01*
X239349714Y-62180771D01*
X239635428Y-62180771D01*
X239778285Y-62252200D01*
X239849714Y-62395057D01*
X239849714Y-62537914D01*
X239135428Y-62680771D01*
X241064000Y-63109342D02*
X240921142Y-63180771D01*
X240635428Y-63180771D01*
X240492571Y-63109342D01*
X240421142Y-62966485D01*
X240421142Y-62395057D01*
X240492571Y-62252200D01*
X240635428Y-62180771D01*
X240921142Y-62180771D01*
X241064000Y-62252200D01*
X241135428Y-62395057D01*
X241135428Y-62537914D01*
X240421142Y-62680771D01*
X241564000Y-62180771D02*
X242135428Y-62180771D01*
X241778285Y-61680771D02*
X241778285Y-62966485D01*
X241849714Y-63109342D01*
X241992571Y-63180771D01*
X242135428Y-63180771D01*
X242635428Y-63037914D02*
X242706857Y-63109342D01*
X242635428Y-63180771D01*
X242564000Y-63109342D01*
X242635428Y-63037914D01*
X242635428Y-63180771D01*
X242635428Y-62252200D02*
X242706857Y-62323628D01*
X242635428Y-62395057D01*
X242564000Y-62323628D01*
X242635428Y-62252200D01*
X242635428Y-62395057D01*
D10*
D12*
X236541142Y-59180771D02*
X236541142Y-60180771D01*
X236541142Y-59323628D02*
X236612571Y-59252200D01*
X236755428Y-59180771D01*
X236969714Y-59180771D01*
X237112571Y-59252200D01*
X237184000Y-59395057D01*
X237184000Y-60180771D01*
X238541142Y-60180771D02*
X238541142Y-59395057D01*
X238469714Y-59252200D01*
X238326857Y-59180771D01*
X238041142Y-59180771D01*
X237898285Y-59252200D01*
X238541142Y-60109342D02*
X238398285Y-60180771D01*
X238041142Y-60180771D01*
X237898285Y-60109342D01*
X237826857Y-59966485D01*
X237826857Y-59823628D01*
X237898285Y-59680771D01*
X238041142Y-59609342D01*
X238398285Y-59609342D01*
X238541142Y-59537914D01*
X239255428Y-59180771D02*
X239255428Y-60180771D01*
X239255428Y-59323628D02*
X239326857Y-59252200D01*
X239469714Y-59180771D01*
X239684000Y-59180771D01*
X239826857Y-59252200D01*
X239898285Y-59395057D01*
X239898285Y-60180771D01*
X240826857Y-60180771D02*
X240684000Y-60109342D01*
X240612571Y-60037914D01*
X240541142Y-59895057D01*
X240541142Y-59466485D01*
X240612571Y-59323628D01*
X240684000Y-59252200D01*
X240826857Y-59180771D01*
X241041142Y-59180771D01*
X241184000Y-59252200D01*
X241255428Y-59323628D01*
X241326857Y-59466485D01*
X241326857Y-59895057D01*
X241255428Y-60037914D01*
X241184000Y-60109342D01*
X241041142Y-60180771D01*
X240826857Y-60180771D01*
X242612571Y-60109342D02*
X242469714Y-60180771D01*
X242184000Y-60180771D01*
X242041142Y-60109342D01*
X241969714Y-60037914D01*
X241898285Y-59895057D01*
X241898285Y-59466485D01*
X241969714Y-59323628D01*
X242041142Y-59252200D01*
X242184000Y-59180771D01*
X242469714Y-59180771D01*
X242612571Y-59252200D01*
X243898285Y-59180771D02*
X243898285Y-60180771D01*
X243255428Y-59180771D02*
X243255428Y-59966485D01*
X243326857Y-60109342D01*
X243469714Y-60180771D01*
X243684000Y-60180771D01*
X243826857Y-60109342D01*
X243898285Y-60037914D01*
X244398285Y-59180771D02*
X244969714Y-59180771D01*
X244612571Y-58680771D02*
X244612571Y-59966485D01*
X244684000Y-60109342D01*
X244826857Y-60180771D01*
X244969714Y-60180771D01*
D10*
D11*
X236421142Y-57180771D02*
X236421142Y-55680771D01*
X236778285Y-55680771D01*
X236992571Y-55752200D01*
X237135428Y-55895057D01*
X237206857Y-56037914D01*
X237278285Y-56323628D01*
X237278285Y-56537914D01*
X237206857Y-56823628D01*
X237135428Y-56966485D01*
X236992571Y-57109342D01*
X236778285Y-57180771D01*
X236421142Y-57180771D01*
X238778285Y-57037914D02*
X238706857Y-57109342D01*
X238492571Y-57180771D01*
X238349714Y-57180771D01*
X238135428Y-57109342D01*
X237992571Y-56966485D01*
X237921142Y-56823628D01*
X237849714Y-56537914D01*
X237849714Y-56323628D01*
X237921142Y-56037914D01*
X237992571Y-55895057D01*
X238135428Y-55752200D01*
X238349714Y-55680771D01*
X238492571Y-55680771D01*
X238706857Y-55752200D01*
X238778285Y-55823628D01*
X239421142Y-57180771D02*
X239421142Y-55680771D01*
D10*
D11*
X236421142Y-54180771D02*
X236421142Y-52680771D01*
X236992571Y-52680771D01*
X237135428Y-52752200D01*
X237206857Y-52823628D01*
X237278285Y-52966485D01*
X237278285Y-53180771D01*
X237206857Y-53323628D01*
X237135428Y-53395057D01*
X236992571Y-53466485D01*
X236421142Y-53466485D01*
X238564000Y-54180771D02*
X238564000Y-53395057D01*
X238492571Y-53252200D01*
X238349714Y-53180771D01*
X238064000Y-53180771D01*
X237921142Y-53252200D01*
X238564000Y-54109342D02*
X238421142Y-54180771D01*
X238064000Y-54180771D01*
X237921142Y-54109342D01*
X237849714Y-53966485D01*
X237849714Y-53823628D01*
X237921142Y-53680771D01*
X238064000Y-53609342D01*
X238421142Y-53609342D01*
X238564000Y-53537914D01*
X239278285Y-54180771D02*
X239278285Y-52680771D01*
X239278285Y-53252200D02*
X239421142Y-53180771D01*
X239706857Y-53180771D01*
X239849714Y-53252200D01*
X239921142Y-53323628D01*
X239992571Y-53466485D01*
X239992571Y-53895057D01*
X239921142Y-54037914D01*
X239849714Y-54109342D01*
X239706857Y-54180771D01*
X239421142Y-54180771D01*
X239278285Y-54109342D01*
X240849714Y-54180771D02*
X240706857Y-54109342D01*
X240635428Y-53966485D01*
X240635428Y-52680771D01*
X241635428Y-54180771D02*
X241492571Y-54109342D01*
X241421142Y-54037914D01*
X241349714Y-53895057D01*
X241349714Y-53466485D01*
X241421142Y-53323628D01*
X241492571Y-53252200D01*
X241635428Y-53180771D01*
X241849714Y-53180771D01*
X241992571Y-53252200D01*
X242064000Y-53323628D01*
X242135428Y-53466485D01*
X242135428Y-53895057D01*
X242064000Y-54037914D01*
X241992571Y-54109342D01*
X241849714Y-54180771D01*
X241635428Y-54180771D01*
X243849714Y-54109342D02*
X244064000Y-54180771D01*
X244421142Y-54180771D01*
X244564000Y-54109342D01*
X244635428Y-54037914D01*
X244706857Y-53895057D01*
X244706857Y-53752200D01*
X244635428Y-53609342D01*
X244564000Y-53537914D01*
X244421142Y-53466485D01*
X244135428Y-53395057D01*
X243992571Y-53323628D01*
X243921142Y-53252200D01*
X243849714Y-53109342D01*
X243849714Y-52966485D01*
X243921142Y-52823628D01*
X243992571Y-52752200D01*
X244135428Y-52680771D01*
X244492571Y-52680771D01*
X244706857Y-52752200D01*
X245564000Y-54180771D02*
X245421142Y-54109342D01*
X245349714Y-53966485D01*
X245349714Y-52680771D01*
X246778285Y-54180771D02*
X246778285Y-53395057D01*
X246706857Y-53252200D01*
X246564000Y-53180771D01*
X246278285Y-53180771D01*
X246135428Y-53252200D01*
X246778285Y-54109342D02*
X246635428Y-54180771D01*
X246278285Y-54180771D01*
X246135428Y-54109342D01*
X246064000Y-53966485D01*
X246064000Y-53823628D01*
X246135428Y-53680771D01*
X246278285Y-53609342D01*
X246635428Y-53609342D01*
X246778285Y-53537914D01*
X247349714Y-53180771D02*
X247706857Y-54180771D01*
X248064000Y-53180771D01*
X248635428Y-54180771D02*
X248635428Y-52680771D01*
X248778285Y-53609342D02*
X249206857Y-54180771D01*
X249206857Y-53180771D02*
X248635428Y-53752200D01*
X249849714Y-54180771D02*
X249849714Y-53180771D01*
X249849714Y-52680771D02*
X249778285Y-52752200D01*
X249849714Y-52823628D01*
X249921142Y-52752200D01*
X249849714Y-52680771D01*
X249849714Y-52823628D01*
X250564000Y-53180771D02*
X250564000Y-54180771D01*
X250564000Y-53323628D02*
X250635428Y-53252200D01*
X250778285Y-53180771D01*
X250992571Y-53180771D01*
X251135428Y-53252200D01*
X251206857Y-53395057D01*
X251206857Y-54180771D01*
D10*
D11*
X254989000Y-71002200D02*
X254989000Y-74002200D01*
D10*
D11*
X318989000Y-71002200D02*
X318989000Y-77502200D01*
D10*
X1666666Y0D02*
G75*
G03X1666666Y0I-1666666J0D01*
G01*
X-2500000Y0D02*
X2500000Y0D01*
X0Y2500000D02*
X0Y-2500000D01*
X160000000Y0D02*
X0Y0D01*
X160000000Y150000000D02*
X160000000Y0D01*
X0Y150000000D02*
X160000000Y150000000D01*
X0Y0D02*
X0Y150000000D01*
D14*
G04 #@! TO.C,H1345*
X109520977Y117540000D02*
X112100977Y116050000D01*
X112100977Y116050000D02*
X114670977Y117540000D01*
X115090977Y116860000D02*
X112100977Y115130000D01*
X112100977Y115130000D02*
X109100977Y116860000D01*
X109100977Y116860002D02*
G75*
G02X109520975Y117540000I209999J339999D01*
G01*
X114670979Y117539998D02*
G75*
G02X115090977Y116860000I209999J-339999D01*
G01*
G04 #@! TO.C,H1346*
X101320977Y117540000D02*
X103900977Y116050000D01*
X103900977Y116050000D02*
X106470977Y117540000D01*
X106890977Y116860000D02*
X103900977Y115130000D01*
X103900977Y115130000D02*
X100900977Y116860000D01*
X100900977Y116860002D02*
G75*
G02X101320975Y117540000I209999J339999D01*
G01*
X106470979Y117539998D02*
G75*
G02X106890977Y116860000I209999J-339999D01*
G01*
G04 #@! TO.C,H1347*
X88720977Y117540000D02*
X91300977Y116050000D01*
X91300977Y116050000D02*
X93870977Y117540000D01*
X94290977Y116860000D02*
X91300977Y115130000D01*
X91300977Y115130000D02*
X88300977Y116860000D01*
X88300977Y116860002D02*
G75*
G02X88720975Y117540000I209999J339999D01*
G01*
X93870979Y117539998D02*
G75*
G02X94290977Y116860000I209999J-339999D01*
G01*
G04 #@! TO.C,H1350*
X80920977Y117540000D02*
X83500977Y116050000D01*
X83500977Y116050000D02*
X86070977Y117540000D01*
X86490977Y116860000D02*
X83500977Y115130000D01*
X83500977Y115130000D02*
X80500977Y116860000D01*
X80500977Y116860002D02*
G75*
G02X80920975Y117540000I209999J339999D01*
G01*
X86070979Y117539998D02*
G75*
G02X86490977Y116860000I209999J-339999D01*
G01*
G04 #@! TO.C,H1348*
X122120977Y117540000D02*
X124700977Y116050000D01*
X124700977Y116050000D02*
X127270977Y117540000D01*
X127690977Y116860000D02*
X124700977Y115130000D01*
X124700977Y115130000D02*
X121700977Y116860000D01*
X121700977Y116860002D02*
G75*
G02X122120975Y117540000I209999J339999D01*
G01*
X127270979Y117539998D02*
G75*
G02X127690977Y116860000I209999J-339999D01*
G01*
G04 #@! TO.C,H1349*
X60120977Y117540000D02*
X62700977Y116050000D01*
X62700977Y116050000D02*
X65270977Y117540000D01*
X65690977Y116860000D02*
X62700977Y115130000D01*
X62700977Y115130000D02*
X59700977Y116860000D01*
X59700977Y116860002D02*
G75*
G02X60120975Y117540000I209999J339999D01*
G01*
X65270979Y117539998D02*
G75*
G02X65690977Y116860000I209999J-339999D01*
G01*
G04 #@! TO.C,H1351*
X67920977Y117540000D02*
X70500977Y116050000D01*
X70500977Y116050000D02*
X73070977Y117540000D01*
X73490977Y116860000D02*
X70500977Y115130000D01*
X70500977Y115130000D02*
X67500977Y116860000D01*
X67500977Y116860002D02*
G75*
G02X67920975Y117540000I209999J339999D01*
G01*
X73070979Y117539998D02*
G75*
G02X73490977Y116860000I209999J-339999D01*
G01*
G04 #@! TO.C,H1353*
X39620977Y117540000D02*
X42200977Y116050000D01*
X42200977Y116050000D02*
X44770977Y117540000D01*
X45190977Y116860000D02*
X42200977Y115130000D01*
X42200977Y115130000D02*
X39200977Y116860000D01*
X39200977Y116860002D02*
G75*
G02X39620975Y117540000I209999J339999D01*
G01*
X44770979Y117539998D02*
G75*
G02X45190977Y116860000I209999J-339999D01*
G01*
G04 #@! TO.C,H1354*
X18820977Y117540000D02*
X21400977Y116050000D01*
X21400977Y116050000D02*
X23970977Y117540000D01*
X24390977Y116860000D02*
X21400977Y115130000D01*
X21400977Y115130000D02*
X18400977Y116860000D01*
X18400977Y116860002D02*
G75*
G02X18820975Y117540000I209999J339999D01*
G01*
X23970979Y117539998D02*
G75*
G02X24390977Y116860000I209999J-339999D01*
G01*
G04 #@! TO.C,H1356*
X26620977Y117540000D02*
X29200977Y116050000D01*
X29200977Y116050000D02*
X31770977Y117540000D01*
X32190977Y116860000D02*
X29200977Y115130000D01*
X29200977Y115130000D02*
X26200977Y116860000D01*
X26200977Y116860002D02*
G75*
G02X26620975Y117540000I209999J339999D01*
G01*
X31770979Y117539998D02*
G75*
G02X32190977Y116860000I209999J-339999D01*
G01*
G04 #@! TO.C,H1352*
X47520977Y117540000D02*
X50100977Y116050000D01*
X50100977Y116050000D02*
X52670977Y117540000D01*
X53090977Y116860000D02*
X50100977Y115130000D01*
X50100977Y115130000D02*
X47100977Y116860000D01*
X47100977Y116860002D02*
G75*
G02X47520975Y117540000I209999J339999D01*
G01*
X52670979Y117539998D02*
G75*
G02X53090977Y116860000I209999J-339999D01*
G01*
G04 #@! TO.C,H1355*
X6120977Y117540000D02*
X8700977Y116050000D01*
X8700977Y116050000D02*
X11270977Y117540000D01*
X11690977Y116860000D02*
X8700977Y115130000D01*
X8700977Y115130000D02*
X5700977Y116860000D01*
X5700977Y116860002D02*
G75*
G02X6120975Y117540000I209999J339999D01*
G01*
X11270979Y117539998D02*
G75*
G02X11690977Y116860000I209999J-339999D01*
G01*
G04 #@! TO.C,H1336*
X31200977Y97740083D02*
G75*
G02X31200977Y96940083I0J-400000D01*
G01*
X22000977Y96940083D02*
G75*
G02X22000977Y97740083I0J400000D01*
G01*
X22000977Y96940083D02*
X31200977Y96940083D01*
X22000977Y97740083D02*
X31200977Y97740083D01*
G04 #@! TO.C,H1335*
X40000977Y101140083D02*
G75*
G02X40000977Y100340083I0J-400000D01*
G01*
X30800977Y100340083D02*
G75*
G02X30800977Y101140083I0J400000D01*
G01*
X30800977Y100340083D02*
X40000977Y100340083D01*
X30800977Y101140083D02*
X40000977Y101140083D01*
G04 #@! TO.C,H1334*
X81600977Y31740083D02*
G75*
G02X81600977Y30940083I0J-400000D01*
G01*
X72400977Y30940083D02*
G75*
G02X72400977Y31740083I0J400000D01*
G01*
X72400977Y30940083D02*
X81600977Y30940083D01*
X72400977Y31740083D02*
X81600977Y31740083D01*
G04 #@! TO.C,H1333*
X47581896Y92489678D02*
G75*
G02X47067666Y91876842I-257115J-306418D01*
G01*
X40020058Y97790488D02*
G75*
G02X40534288Y98403324I257115J306418D01*
G01*
X40020058Y97790488D02*
X47067666Y91876842D01*
X40534288Y98403324D02*
X47581896Y92489678D01*
G04 #@! TO.C,H1319*
X23200977Y101140083D02*
G75*
G02X23200977Y100340083I0J-400000D01*
G01*
X14000977Y100340083D02*
G75*
G02X14000977Y101140083I0J400000D01*
G01*
X14000977Y100340083D02*
X23200977Y100340083D01*
X14000977Y101140083D02*
X23200977Y101140083D01*
G04 #@! TO.C,H1320*
X125700977Y82640083D02*
G75*
G02X126500977Y82640083I400000J0D01*
G01*
X126500977Y73440083D02*
G75*
G02X125700977Y73440083I-400000J0D01*
G01*
X126500977Y73440083D02*
X126500977Y82640083D01*
X125700977Y73440083D02*
X125700977Y82640083D01*
G04 #@! TO.C,H1321*
X127100977Y126440083D02*
G75*
G02X127900977Y126440083I400000J0D01*
G01*
X127900977Y117240083D02*
G75*
G02X127100977Y117240083I-400000J0D01*
G01*
X127900977Y117240083D02*
X127900977Y126440083D01*
X127100977Y117240083D02*
X127100977Y126440083D01*
G04 #@! TO.C,H1322*
X50600977Y75340083D02*
G75*
G02X51400977Y75340083I400000J0D01*
G01*
X51400977Y66140083D02*
G75*
G02X50600977Y66140083I-400000J0D01*
G01*
X51400977Y66140083D02*
X51400977Y75340083D01*
X50600977Y66140083D02*
X50600977Y75340083D01*
G04 #@! TO.C,H1323*
X70382498Y29078146D02*
G75*
G02X71107544Y28740052I362523J-169047D01*
G01*
X67219456Y20402020D02*
G75*
G02X66494410Y20740114I-362523J169047D01*
G01*
X67219456Y20402020D02*
X71107544Y28740052D01*
X66494410Y20740114D02*
X70382498Y29078146D01*
G04 #@! TO.C,H1325*
X126500977Y82640083D02*
G75*
G02X125700977Y82640083I-400000J0D01*
G01*
X125700977Y91840083D02*
G75*
G02X126500977Y91840083I400000J0D01*
G01*
X125700977Y91840083D02*
X125700977Y82640083D01*
X126500977Y91840083D02*
X126500977Y82640083D01*
G04 #@! TO.C,H1326*
X33400977Y28940083D02*
G75*
G02X33400977Y29740083I0J400000D01*
G01*
X42600977Y29740083D02*
G75*
G02X42600977Y28940083I0J-400000D01*
G01*
X42600977Y29740083D02*
X33400977Y29740083D01*
X42600977Y28940083D02*
X33400977Y28940083D01*
G04 #@! TO.C,H1327*
X52217260Y25293673D02*
G75*
G02X52617260Y25986493I200000J346410D01*
G01*
X60584694Y21386493D02*
G75*
G02X60184694Y20693673I-200000J-346410D01*
G01*
X60584694Y21386493D02*
X52617260Y25986493D01*
X60184694Y20693673D02*
X52217260Y25293673D01*
G04 #@! TO.C,H1328*
X135300977Y64640083D02*
G75*
G02X135300977Y63840083I0J-400000D01*
G01*
X126100977Y63840083D02*
G75*
G02X126100977Y64640083I0J400000D01*
G01*
X126100977Y63840083D02*
X135300977Y63840083D01*
X126100977Y64640083D02*
X135300977Y64640083D01*
G04 #@! TO.C,H1330*
X49800977Y49340083D02*
G75*
G02X49800977Y48540083I0J-400000D01*
G01*
X40600977Y48540083D02*
G75*
G02X40600977Y49340083I0J400000D01*
G01*
X40600977Y48540083D02*
X49800977Y48540083D01*
X40600977Y49340083D02*
X49800977Y49340083D01*
G04 #@! TO.C,H1331*
X46605175Y67286870D02*
G75*
G02X47377915Y67079814I386370J-103528D01*
G01*
X44996779Y58193296D02*
G75*
G02X44224039Y58400352I-386370J103528D01*
G01*
X44996780Y58193297D02*
X47377915Y67079814D01*
X44224039Y58400352D02*
X46605174Y67286869D01*
G04 #@! TO.C,H1318*
X126500977Y91840083D02*
G75*
G02X125700977Y91840083I-400000J0D01*
G01*
X125700977Y101040083D02*
G75*
G02X126500977Y101040083I400000J0D01*
G01*
X125700977Y101040083D02*
X125700977Y91840083D01*
X126500977Y101040083D02*
X126500977Y91840083D01*
G04 #@! TO.C,H1332*
X14800977Y97540083D02*
G75*
G02X14800977Y96740083I0J-400000D01*
G01*
X5600977Y96740083D02*
G75*
G02X5600977Y97540083I0J400000D01*
G01*
X5600977Y96740083D02*
X14800977Y96740083D01*
X5600977Y97540083D02*
X14800977Y97540083D01*
G04 #@! TO.C,H1337*
X90800977Y29540083D02*
G75*
G02X90800977Y28740083I0J-400000D01*
G01*
X81600977Y28740083D02*
G75*
G02X81600977Y29540083I0J400000D01*
G01*
X81600977Y28740083D02*
X90800977Y28740083D01*
X81600977Y29540083D02*
X90800977Y29540083D01*
G04 #@! TO.C,H1324*
X47300977Y84640081D02*
G75*
G02X48100977Y84640081I400000J0D01*
G01*
X48100977Y75440081D02*
G75*
G02X47300977Y75440081I-400000J0D01*
G01*
X48100977Y75440081D02*
X48100977Y84640081D01*
X47300977Y75440081D02*
X47300977Y84640081D01*
G04 #@! TO.C,H1316*
X144465443Y66279931D02*
G75*
G02X145031129Y66845617I282843J282843D01*
G01*
X151536511Y60340235D02*
G75*
G02X150970825Y59774549I-282843J-282843D01*
G01*
X151536511Y60340235D02*
X145031129Y66845617D01*
X150970825Y59774549D02*
X144465443Y66279931D01*
G04 #@! TO.C,H1315*
X24600977Y29740083D02*
G75*
G02X24600977Y28940083I0J-400000D01*
G01*
X15400977Y28940083D02*
G75*
G02X15400977Y29740083I0J400000D01*
G01*
X15400977Y28940083D02*
X24600977Y28940083D01*
X15400977Y29740083D02*
X24600977Y29740083D01*
G04 #@! TO.C,H1314*
X15400977Y31740083D02*
G75*
G02X15400977Y30940083I0J-400000D01*
G01*
X6200977Y30940083D02*
G75*
G02X6200977Y31740083I0J400000D01*
G01*
X6200977Y30940083D02*
X15400977Y30940083D01*
X6200977Y31740083D02*
X15400977Y31740083D01*
G04 #@! TO.C,H1313*
X98400977Y31740083D02*
G75*
G02X98400977Y30940083I0J-400000D01*
G01*
X89200977Y30940083D02*
G75*
G02X89200977Y31740083I0J400000D01*
G01*
X89200977Y30940083D02*
X98400977Y30940083D01*
X89200977Y31740083D02*
X98400977Y31740083D01*
G04 #@! TO.C,H1309*
X14800977Y48940083D02*
G75*
G02X14800977Y48140083I0J-400000D01*
G01*
X5600977Y48140083D02*
G75*
G02X5600977Y48940083I0J400000D01*
G01*
X5600977Y48140083D02*
X14800977Y48140083D01*
X5600977Y48940083D02*
X14800977Y48940083D01*
G04 #@! TO.C,H1310*
X23400977Y45940083D02*
G75*
G02X23400977Y45140083I0J-400000D01*
G01*
X14200977Y45140083D02*
G75*
G02X14200977Y45940083I0J400000D01*
G01*
X14200977Y45140083D02*
X23400977Y45140083D01*
X14200977Y45940083D02*
X23400977Y45940083D01*
G04 #@! TO.C,H1311*
X32000977Y48940083D02*
G75*
G02X32000977Y48140083I0J-400000D01*
G01*
X22800977Y48140083D02*
G75*
G02X22800977Y48940083I0J400000D01*
G01*
X22800977Y48140083D02*
X32000977Y48140083D01*
X22800977Y48940083D02*
X32000977Y48940083D01*
G04 #@! TO.C,H1312*
X41200977Y45940083D02*
G75*
G02X41200977Y45140083I0J-400000D01*
G01*
X32000977Y45140083D02*
G75*
G02X32000977Y45940083I0J400000D01*
G01*
X32000977Y45140083D02*
X41200977Y45140083D01*
X32000977Y45940083D02*
X41200977Y45940083D01*
G04 #@! TO.C,H1317*
X33800977Y31740083D02*
G75*
G02X33800977Y30940083I0J-400000D01*
G01*
X24600977Y30940083D02*
G75*
G02X24600977Y31740083I0J400000D01*
G01*
X24600977Y30940083D02*
X33800977Y30940083D01*
X24600977Y31740083D02*
X33800977Y31740083D01*
G04 #@! TO.C,H1357*
X152600977Y108740081D02*
G75*
G02X153400977Y108740081I400000J0D01*
G01*
X153400977Y99540081D02*
G75*
G02X152600977Y99540081I-400000J0D01*
G01*
X153400977Y99540081D02*
X153400977Y108740081D01*
X152600977Y99540081D02*
X152600977Y108740081D01*
G04 #@! TO.C,H1358*
X153400977Y72140081D02*
G75*
G02X152600977Y72140081I-400000J0D01*
G01*
X152600977Y81340081D02*
G75*
G02X153400977Y81340081I400000J0D01*
G01*
X152600977Y81340081D02*
X152600977Y72140081D01*
X153400977Y81340081D02*
X153400977Y72140081D01*
G04 #@! TO.C,H1329*
X51400977Y84140083D02*
G75*
G02X50600977Y84140083I-400000J0D01*
G01*
X50600977Y93340083D02*
G75*
G02X51400977Y93340083I400000J0D01*
G01*
X50600977Y93340083D02*
X50600977Y84140083D01*
X51400977Y93340083D02*
X51400977Y84140083D01*
G04 #@! TO.C,H1344*
X118911769Y9537612D02*
G75*
G02X119567089Y9078752I327660J-229430D01*
G01*
X114290185Y1542554D02*
G75*
G02X113634865Y2001414I-327660J229430D01*
G01*
X114290186Y1542553D02*
X119567089Y9078752D01*
X113634865Y2001414D02*
X118911768Y9537613D01*
G04 #@! TO.C,H1343*
X125700977Y73440083D02*
G75*
G02X126500977Y73440083I400000J0D01*
G01*
X126500977Y64240083D02*
G75*
G02X125700977Y64240083I-400000J0D01*
G01*
X126500977Y64240083D02*
X126500977Y73440083D01*
X125700977Y64240083D02*
X125700977Y73440083D01*
G04 #@! TO.C,H1342*
X114800977Y16540083D02*
G75*
G02X115600977Y16540083I400000J0D01*
G01*
X115600977Y7340083D02*
G75*
G02X114800977Y7340083I-400000J0D01*
G01*
X115600977Y7340083D02*
X115600977Y16540083D01*
X114800977Y7340083D02*
X114800977Y16540083D01*
G04 #@! TO.C,H1341*
X116800977Y25140083D02*
G75*
G02X117600977Y25140083I400000J0D01*
G01*
X117600977Y15940083D02*
G75*
G02X116800977Y15940083I-400000J0D01*
G01*
X117600977Y15940083D02*
X117600977Y25140083D01*
X116800977Y15940083D02*
X116800977Y25140083D01*
G04 #@! TO.C,H1340*
X102436511Y23070235D02*
G75*
G02X101870825Y22504549I-282843J-282843D01*
G01*
X95365443Y29009931D02*
G75*
G02X95931129Y29575617I282843J282843D01*
G01*
X95365443Y29009931D02*
X101870825Y22504549D01*
X95931129Y29575617D02*
X102436511Y23070235D01*
G04 #@! TO.C,H1339*
X117200977Y25540083D02*
G75*
G02X117200977Y24740083I0J-400000D01*
G01*
X108000977Y24740083D02*
G75*
G02X108000977Y25540083I0J400000D01*
G01*
X108000977Y24740083D02*
X117200977Y24740083D01*
X108000977Y25540083D02*
X117200977Y25540083D01*
G04 #@! TO.C,H1338*
X100400977Y26940083D02*
G75*
G02X100400977Y27740083I0J400000D01*
G01*
X109600977Y27740083D02*
G75*
G02X109600977Y26940083I0J-400000D01*
G01*
X109600977Y27740083D02*
X100400977Y27740083D01*
X109600977Y26940083D02*
X100400977Y26940083D01*
G04 #@! TD*
M02*
