M48
;DRILL file {KiCad 5.0.2+dfsg1-1} date Fri 06 Mar 2020 02:23:50 AM -03
;FORMAT={-:-/ absolute / metric / decimal}
FMAT,2
METRIC,TZ
T1C0.200
T2C0.300
T3C0.400
T4C0.500
T5C0.700
T6C0.800
T7C0.900
T8C1.000
T9C1.300
T10C1.500
T11C1.570
T12C2.310
T13C3.250
%
G90
G05
T1
X121.49Y38.749
X121.49Y37.749
X121.49Y36.749
X122.49Y38.749
X122.49Y37.749
X122.49Y36.749
X123.49Y38.749
X123.49Y37.749
X123.49Y36.749
X147.285Y38.749
X147.285Y37.749
X147.285Y36.749
X148.285Y38.749
X148.285Y37.749
X148.285Y36.749
X149.285Y38.749
X149.285Y37.749
X149.285Y36.749
X135.898Y38.749
X135.898Y37.749
X135.898Y36.749
X136.898Y38.749
X136.898Y37.749
X136.898Y36.749
X137.898Y38.749
X137.898Y37.749
X137.898Y36.749
T2
X69.501Y69.44
X70.301Y64.64
X70.301Y63.04
X70.301Y67.84
X70.301Y63.84
X70.301Y62.24
X70.301Y65.44
X70.301Y61.44
X70.31Y71.049
X71.101Y69.44
X71.101Y66.24
X71.101Y63.84
X71.101Y63.04
X71.101Y60.64
X71.101Y72.64
X71.101Y70.24
X71.101Y67.04
X71.101Y67.84
X71.101Y65.44
X71.101Y64.64
X71.101Y62.24
X71.101Y61.44
X71.901Y69.44
X71.901Y61.44
X71.901Y60.64
X71.901Y71.84
X72.701Y63.84
X72.701Y72.64
X72.701Y68.64
X72.701Y63.04
X72.701Y60.64
X72.701Y71.84
X72.701Y71.04
X72.701Y69.44
X72.701Y66.24
X72.701Y65.44
X72.701Y67.84
X73.101Y74.44
X73.501Y60.64
X73.501Y71.04
X73.501Y61.44
X73.901Y74.44
X74.301Y72.64
X74.301Y71.84
X74.301Y61.44
X74.301Y60.64
X74.31Y63.049
X74.701Y74.44
X75.101Y67.84
X75.101Y65.44
X75.101Y59.84
X75.101Y67.04
X75.101Y60.64
X75.101Y61.44
X75.101Y71.84
X75.101Y66.24
X75.101Y70.24
X75.901Y61.44
X75.901Y71.84
X75.901Y67.84
X75.901Y66.24
X75.901Y65.44
X75.901Y72.64
X75.901Y67.04
X75.901Y63.04
X76.301Y70.24
X76.701Y66.24
X76.701Y71.84
X76.701Y65.44
X76.701Y60.64
X76.701Y72.64
X76.701Y67.04
X76.701Y61.44
X76.701Y67.84
X77.501Y72.64
X77.501Y67.84
X77.501Y67.04
X77.501Y66.24
X77.501Y65.44
X77.501Y61.44
X77.51Y63.049
X78.301Y61.44
X78.301Y72.64
X78.301Y70.24
X79.101Y63.04
X79.101Y72.64
X79.101Y61.44
X79.101Y59.84
X79.892Y71.831
X79.901Y63.04
X79.901Y73.44
X79.901Y70.24
X79.901Y64.64
X79.901Y59.84
X79.901Y69.44
X79.901Y67.84
X79.901Y62.24
X79.901Y60.64
X79.901Y72.64
X79.901Y67.04
X79.901Y66.24
X80.701Y73.44
X80.701Y72.64
X80.701Y60.64
X80.701Y71.84
X81.501Y70.24
X81.501Y67.04
X81.501Y64.64
X81.501Y71.04
X81.501Y69.44
X81.501Y67.84
X81.501Y66.24
X81.501Y65.44
X81.501Y68.64
X82.301Y66.24
X82.301Y72.64
X82.301Y71.84
X82.301Y71.04
X82.301Y69.44
X82.301Y68.64
X82.301Y67.84
X82.301Y65.44
X82.301Y63.84
X82.301Y70.24
X82.301Y67.04
X82.301Y64.64
X82.701Y74.64
X83.101Y63.84
X83.101Y59.84
X83.301Y58.84
X84.301Y69.84
X84.301Y67.44
X85.501Y70.04
X85.901Y66.84
T3
X10.431Y18.64
X11.101Y25.24
X12.4Y18.8
X17.04Y35.04
X19.5Y19.6
X19.701Y25.64
X20.901Y23.24
X21.101Y35.04
X22.301Y35.04
X23.501Y35.04
X26.501Y22.24
X31.082Y22.315
X38.901Y23.24
X42.501Y25.44
X43.601Y18.54
X44.441Y107.27
X44.701Y104.44
X44.907Y25.285
X52.901Y102.24
X55.701Y71.24
X55.711Y73.82
X55.901Y104.24
X55.901Y88.24
X55.901Y83.84
X56.Y102.4
X56.101Y72.44
X56.136Y69.78
X56.301Y48.04
X56.477Y60.064
X56.501Y46.64
X56.606Y76.64
X56.901Y86.44
X56.901Y51.24
X57.088Y52.24
X57.088Y54.144
X57.094Y45.247
X57.101Y83.024
X57.101Y85.44
X57.101Y72.84
X57.301Y107.24
X57.301Y71.44
X57.301Y58.64
X57.501Y89.84
X57.701Y55.165
X58.301Y98.44
X58.501Y103.04
X58.501Y51.84
X58.501Y50.44
X58.501Y48.84
X58.501Y85.04
X58.501Y83.44
X58.701Y52.84
X58.901Y53.84
X59.101Y97.24
X59.101Y89.04
X59.101Y78.44
X59.101Y77.64
X59.101Y76.84
X59.301Y90.64
X59.6Y99.6
X59.707Y104.944
X60.101Y74.64
X60.101Y73.64
X60.301Y38.64
X60.701Y88.24
X60.701Y86.84
X60.729Y85.443
X60.729Y82.44
X60.729Y81.04
X61.472Y100.21
X61.501Y99.04
X61.701Y35.44
X61.901Y63.84
X61.901Y68.64
X61.901Y67.64
X61.901Y66.64
X61.901Y65.64
X61.901Y47.24
X61.901Y46.4
X61.901Y44.84
X61.901Y38.84
X62.101Y50.44
X62.301Y60.04
X62.301Y58.24
X62.301Y101.44
X62.301Y56.84
X62.901Y100.64
X63.101Y59.04
X63.101Y35.44
X63.6Y105.2
X63.901Y70.64
X63.901Y37.64
X64.901Y42.04
X66.001Y42.04
X66.101Y105.24
X66.501Y94.651
X66.501Y91.84
X66.501Y83.64
X66.501Y82.84
X66.501Y82.04
X66.501Y81.24
X66.501Y78.84
X66.901Y35.04
X67.101Y106.24
X67.101Y101.84
X67.101Y42.04
X67.301Y71.04
X67.901Y68.04
X67.901Y59.64
X68.101Y106.84
X68.101Y71.04
X68.301Y50.84
X68.301Y37.44
X68.701Y106.04
X68.701Y96.64
X68.701Y94.84
X68.701Y93.84
X68.71Y74.231
X68.758Y55.128
X69.501Y105.44
X69.501Y75.64
X69.501Y37.44
X69.701Y90.44
X69.701Y58.04
X69.901Y97.04
X70.101Y55.04
X70.101Y52.24
X70.101Y51.04
X70.413Y92.64
X70.901Y94.64
X71.301Y95.84
X71.301Y35.64
X71.469Y51.64
X72.301Y45.64
X73.101Y76.44
X73.101Y75.64
X73.501Y49.04
X73.501Y48.24
X73.701Y81.24
X74.294Y42.15
X74.501Y36.84
X75.301Y83.24
X75.301Y82.44
X75.301Y81.64
X75.501Y43.64
X75.501Y42.24
X75.901Y46.84
X75.901Y39.04
X76.101Y53.44
X76.101Y52.64
X76.101Y51.84
X76.925Y42.216
X77.301Y46.84
X78.101Y26.04
X78.301Y35.04
X78.501Y81.84
X78.501Y39.04
X78.551Y82.64
X78.89Y79.023
X78.909Y78.259
X79.301Y45.24
X79.501Y46.84
X79.501Y25.84
X79.789Y42.816
X80.301Y35.84
X80.622Y81.961
X80.698Y81.037
X80.703Y42.816
X81.877Y39.064
X82.101Y85.44
X82.301Y53.64
X82.989Y42.816
X83.701Y88.84
X83.901Y50.64
X83.901Y45.24
X84.101Y79.44
X84.501Y39.24
X84.584Y55.52
X84.901Y80.24
X85.501Y41.64
X85.701Y79.04
X85.958Y55.556
X86.301Y85.44
X86.701Y56.24
X86.701Y41.64
X87.901Y75.04
X88.101Y80.24
X88.101Y53.64
X88.101Y45.04
X88.301Y35.24
X88.853Y62.745
X89.894Y86.077
X89.901Y35.24
X90.101Y43.416
X90.501Y39.84
X90.901Y70.84
X90.901Y69.84
X90.901Y68.84
X90.901Y44.64
X91.501Y51.24
X91.806Y80.006
X91.901Y65.04
X91.901Y62.44
X92.501Y48.24
X92.669Y35.24
X92.677Y79.864
X92.901Y74.44
X93.558Y41.208
X93.901Y76.64
X93.901Y73.44
X94.101Y75.44
X94.165Y48.24
X94.301Y74.24
X94.901Y44.44
X95.501Y46.24
X96.101Y80.04
X96.701Y44.44
X96.701Y37.04
X97.501Y42.44
X97.701Y80.04
X98.313Y42.44
X98.501Y46.24
X99.101Y42.44
X99.301Y88.84
X99.427Y68.314
X99.481Y77.47
X99.501Y71.44
X99.501Y61.84
X99.701Y76.24
X99.701Y74.44
X99.901Y42.44
X99.901Y46.24
X100.301Y90.44
X100.901Y71.24
X101.101Y85.84
X101.101Y68.24
X101.301Y46.24
X102.501Y74.44
X102.701Y54.64
X102.701Y49.24
X106.101Y51.24
X117.501Y44.84
X117.701Y51.84
X118.974Y52.24
X120.65Y87.122
X124.301Y44.04
X125.277Y49.636
X126.101Y49.612
X127.501Y39.44
X128.701Y53.724
X129.701Y55.84
X129.901Y34.24
X130.501Y54.04
X130.501Y44.64
X131.003Y36.342
X131.701Y35.463
X132.101Y44.64
X132.301Y34.04
X133.301Y47.44
X133.301Y39.64
X134.701Y40.24
X135.101Y42.04
X135.701Y57.84
X135.901Y44.64
X136.701Y57.84
X136.701Y47.24
X137.101Y42.24
X137.901Y57.84
X138.701Y44.64
X138.901Y57.84
X139.101Y41.04
X140.101Y56.24
X140.101Y41.04
X140.358Y45.412
X140.701Y40.44
X140.901Y54.24
X141.101Y36.64
X141.101Y35.04
X141.301Y39.64
X141.901Y56.24
X141.901Y44.64
X142.301Y26.64
X142.501Y45.64
X142.701Y36.04
X142.701Y35.04
X142.701Y34.047
X142.901Y56.24
X144.101Y53.44
X144.659Y34.31
X144.901Y39.04
X145.501Y50.04
X146.11Y46.533
X146.901Y50.04
X148.101Y50.04
X149.701Y47.04
X150.501Y45.84
X151.101Y52.24
X151.301Y47.24
X151.901Y51.44
X152.101Y46.44
X153.101Y36.84
X153.301Y50.44
T4
X7.401Y93.54
X7.501Y24.84
X7.595Y54.095
X8.Y36.4
X8.301Y40.44
X9.001Y90.14
X9.001Y87.54
X9.001Y84.94
X9.001Y69.74
X9.701Y40.44
X9.901Y25.24
X10.101Y107.04
X10.901Y105.84
X11.501Y40.64
X11.976Y67.14
X12.001Y79.94
X12.001Y77.343
X12.001Y74.803
X12.001Y72.263
X12.401Y59.54
X12.43Y25.024
X13.301Y40.64
X13.664Y59.603
X14.701Y40.84
X14.901Y34.64
X16.001Y8.54
X16.201Y92.583
X16.205Y53.569
X16.301Y106.04
X16.301Y18.64
X16.601Y90.14
X16.601Y87.54
X16.601Y84.94
X16.701Y11.24
X17.301Y106.64
X17.501Y41.24
X18.501Y79.94
X18.501Y77.38
X18.501Y74.82
X18.501Y72.26
X18.501Y69.7
X18.501Y67.14
X18.601Y55.537
X18.701Y107.04
X19.901Y105.84
X20.501Y40.84
X21.Y26.4
X21.701Y40.44
X21.819Y92.05
X22.845Y55.544
X23.701Y27.04
X24.221Y41.04
X24.401Y83.94
X25.171Y64.643
X25.475Y13.44
X25.501Y93.256
X25.521Y41.04
X25.801Y87.54
X25.901Y34.84
X25.901Y25.44
X26.201Y79.94
X26.201Y77.34
X26.201Y74.94
X26.201Y72.263
X26.201Y67.14
X26.401Y90.14
X26.401Y84.94
X26.601Y69.74
X27.101Y25.44
X27.501Y107.04
X28.101Y41.04
X28.701Y106.04
X28.901Y51.84
X29.346Y25.111
X29.734Y23.061
X30.501Y34.64
X30.601Y51.74
X30.801Y55.067
X31.001Y62.14
X31.101Y90.04
X31.301Y40.84
X32.721Y40.64
X32.901Y35.07
X33.401Y62.078
X33.501Y79.906
X33.501Y77.362
X33.501Y74.818
X33.501Y72.275
X33.501Y69.731
X33.501Y67.187
X33.528Y18.441
X34.001Y87.54
X34.101Y90.04
X34.101Y84.84
X34.101Y35.24
X34.101Y26.44
X34.401Y93.84
X35.211Y55.73
X35.301Y40.64
X35.441Y35.07
X36.711Y35.24
X36.901Y106.44
X37.801Y61.74
X38.101Y105.84
X38.101Y35.24
X38.401Y63.14
X38.701Y65.339
X38.801Y80.64
X38.801Y75.74
X38.801Y70.54
X40.701Y23.24
X41.034Y51.742
X41.173Y34.312
X41.301Y41.84
X41.991Y71.01
X42.001Y94.54
X42.001Y80.94
X42.001Y75.74
X42.101Y65.253
X42.301Y67.867
X42.386Y73.14
X42.401Y86.671
X42.401Y83.54
X42.401Y78.34
X42.432Y91.94
X42.501Y88.84
X42.701Y8.64
X42.8Y11.2
X43.801Y93.14
X43.901Y43.04
X44.001Y66.54
X45.501Y24.24
X45.501Y22.24
X46.301Y90.24
X46.301Y89.04
X48.301Y102.44
X48.366Y18.49
X49.901Y11.04
X50.4Y102.726
X50.501Y8.44
X53.101Y105.44
X53.101Y63.319
X53.101Y61.211
X53.101Y59.153
X53.101Y57.274
X53.922Y68.157
X54.701Y34.24
X55.101Y92.84
X55.542Y68.818
X55.988Y80.527
X56.201Y81.94
X57.901Y11.44
X57.901Y8.44
X58.201Y91.94
X59.701Y100.84
X60.101Y31.84
X60.101Y30.24
X63.488Y31.19
X64.8Y105.6
X65.501Y100.84
X65.501Y31.44
X67.701Y110.64
X69.6Y101.2
X70.563Y20.368
X71.102Y106.44
X71.6Y102.
X71.901Y100.669
X72.301Y26.24
X73.142Y35.342
X73.301Y19.04
X73.901Y101.04
X74.101Y77.84
X74.701Y106.24
X76.301Y101.04
X77.035Y21.3
X78.701Y22.44
X78.901Y53.04
X79.701Y101.04
X80.901Y19.04
X81.901Y101.24
X82.062Y22.95
X82.162Y35.24
X82.401Y93.54
X82.431Y10.977
X82.501Y8.64
X84.176Y21.819
X84.301Y93.44
X84.301Y74.24
X84.301Y59.84
X84.301Y58.44
X86.101Y74.24
X86.301Y35.183
X86.501Y21.24
X88.301Y55.04
X89.501Y53.84
X90.101Y112.24
X90.195Y21.742
X91.2Y26.
X92.101Y71.14
X92.8Y25.6
X93.701Y69.44
X93.801Y18.34
X94.101Y55.24
X94.996Y21.692
X95.101Y86.44
X95.148Y35.288
X96.901Y24.04
X98.401Y35.14
X102.4Y18.4
X102.701Y31.84
X103.901Y32.44
X104.301Y87.44
X105.001Y31.84
X106.101Y32.44
X106.511Y62.445
X106.701Y111.04
X106.701Y18.64
X107.701Y35.64
X109.006Y34.561
X109.201Y85.34
X112.301Y89.04
X112.4Y86.
X112.701Y91.04
X118.914Y80.814
X119.95Y30.927
X122.901Y31.24
X124.901Y28.886
X125.956Y43.317
X126.701Y35.24
X127.279Y32.436
X128.701Y6.44
X129.642Y26.518
X130.501Y37.44
X130.901Y42.24
X131.401Y87.484
X132.301Y93.24
X132.8Y80.4
X132.901Y121.84
X133.096Y86.106
X133.543Y44.683
X134.101Y24.64
X135.687Y32.918
X135.835Y29.24
X140.386Y30.505
X143.252Y24.181
X143.901Y44.24
X143.901Y39.24
X144.301Y48.04
X144.301Y18.44
X144.424Y6.858
X144.501Y5.44
X144.909Y32.918
X146.701Y3.24
X149.101Y30.64
X149.735Y8.082
X150.901Y25.44
X151.501Y41.04
X152.469Y33.339
X153.001Y30.805
T5
X7.501Y104.053
X13.201Y82.54
X13.701Y104.053
X21.101Y82.44
X25.101Y104.053
X26.657Y56.94
X33.601Y82.94
X34.701Y104.053
X45.201Y79.54
X53.701Y55.64
X68.301Y86.04
X74.101Y86.04
X79.894Y84.033
X110.8Y90.4
X110.8Y85.2
X142.Y134.4
X145.101Y71.84
T6
X74.389Y111.337
X76.929Y111.337
X79.469Y111.337
X95.043Y111.337
X97.583Y111.337
X100.123Y111.337
X115.697Y111.337
X118.237Y111.337
X120.777Y111.337
X53.735Y111.337
X56.275Y111.337
X58.815Y111.337
X12.427Y111.337
X14.967Y111.337
X17.507Y111.337
X33.081Y111.337
X35.621Y111.337
X38.161Y111.337
T7
X6.835Y108.374
X8.Y64.4
X54.Y100.4
X72.901Y92.64
X76.101Y93.24
X77.292Y84.202
X79.601Y92.74
X89.101Y106.24
X113.201Y31.54
X113.501Y17.04
X115.401Y30.14
X118.618Y96.495
X128.901Y29.24
X131.064Y109.22
X131.501Y61.44
X131.601Y70.14
X135.201Y70.14
X138.Y108.4
X146.901Y59.24
X40.004Y58.048
X53.001Y22.34
X139.294Y21.847
X139.294Y11.437
X141.304Y21.847
X141.304Y11.437
X143.314Y21.847
X143.314Y11.437
X145.324Y21.847
X145.324Y11.437
X147.334Y21.847
X147.334Y11.437
X149.344Y21.847
X149.344Y11.437
X151.354Y21.847
X151.354Y11.437
X42.352Y61.287
X57.401Y19.94
T8
X131.445Y117.475
X133.985Y117.475
X136.525Y117.475
X139.065Y117.475
X139.379Y3.337
X139.864Y28.197
X141.414Y3.337
X142.404Y28.197
X148.244Y28.197
X149.234Y3.337
X150.784Y28.197
X151.269Y3.337
X52.26Y97.6
X54.8Y97.6
X100.101Y103.92
X100.101Y101.38
X100.101Y98.84
X121.029Y22.865
X122.049Y17.535
X123.569Y22.865
X123.619Y8.395
X124.079Y17.535
X126.109Y17.535
X126.119Y8.395
X128.129Y8.395
X128.139Y17.535
X130.169Y17.535
X130.629Y8.395
X130.679Y22.865
X132.199Y17.535
X133.219Y22.865
X131.445Y128.905
X133.985Y128.905
X136.525Y128.905
X139.065Y128.905
T9
X8.612Y124.042
X8.612Y121.502
X8.612Y118.962
X21.312Y124.042
X21.312Y121.502
X21.312Y118.962
X29.266Y124.042
X29.266Y121.502
X29.266Y118.962
X41.966Y124.042
X41.966Y121.502
X41.966Y118.962
X70.574Y124.042
X70.574Y121.502
X70.574Y118.962
X83.274Y124.042
X83.274Y121.502
X83.274Y118.962
X91.228Y124.042
X91.228Y121.502
X91.228Y118.962
X103.928Y124.042
X103.928Y121.502
X103.928Y118.962
X8.275Y15.908
X8.275Y3.208
X12.085Y15.908
X12.085Y3.208
X15.895Y15.908
X15.895Y3.208
X19.705Y15.908
X19.705Y3.208
X23.515Y15.908
X23.515Y3.208
X27.325Y15.908
X27.325Y3.208
X73.787Y15.875
X73.787Y3.175
X77.597Y15.875
X77.597Y3.175
X81.407Y15.875
X81.407Y3.175
X85.217Y15.875
X85.217Y3.175
X89.027Y15.875
X89.027Y3.175
X92.837Y15.875
X92.837Y3.175
X33.421Y15.908
X33.421Y3.208
X37.231Y15.908
X37.231Y3.208
X41.041Y15.908
X41.041Y3.208
X44.851Y15.908
X44.851Y3.208
X48.661Y15.908
X48.661Y3.208
X52.471Y15.908
X52.471Y3.208
X56.281Y15.908
X56.281Y3.208
X60.091Y15.908
X60.091Y3.208
X63.901Y15.908
X63.901Y3.208
X67.711Y15.908
X67.711Y3.208
X111.882Y124.042
X111.882Y121.502
X111.882Y118.962
X124.582Y124.042
X124.582Y121.502
X124.582Y118.962
X49.92Y124.042
X49.92Y121.502
X49.92Y118.962
X62.62Y124.042
X62.62Y121.502
X62.62Y118.962
X98.873Y15.908
X98.873Y3.208
X102.683Y15.908
X102.683Y3.208
X106.493Y15.908
X106.493Y3.208
X110.303Y15.908
X110.303Y3.208
T10
X92.298Y146.874
X92.298Y136.714
X97.378Y146.874
X97.378Y136.714
X102.458Y146.874
X102.458Y136.714
X133.35Y146.765
X133.35Y136.605
X138.43Y146.765
X138.43Y136.605
X143.51Y146.765
X143.51Y136.605
X148.59Y146.765
X148.59Y136.605
X112.902Y146.874
X112.902Y136.714
X117.982Y146.874
X117.982Y136.714
X123.062Y146.874
X123.062Y136.714
X111.995Y103.714
X111.995Y95.714
X150.495Y103.714
X150.495Y92.964
X111.995Y76.79
X111.995Y68.79
X150.495Y76.79
X150.495Y66.04
X51.09Y146.874
X51.09Y136.714
X56.17Y146.874
X56.17Y136.714
X61.25Y146.874
X61.25Y136.714
X30.486Y146.874
X30.486Y136.714
X35.566Y146.874
X35.566Y136.714
X40.646Y146.874
X40.646Y136.714
X9.882Y146.874
X9.882Y136.714
X14.962Y146.874
X14.962Y136.714
X20.042Y146.874
X20.042Y136.714
X71.694Y146.874
X71.694Y136.714
X76.774Y146.874
X76.774Y136.714
X81.854Y146.874
X81.854Y136.714
T11
X136.942Y17.988
X136.942Y1.605
X153.732Y17.988
X153.732Y1.605
X119.059Y3.185
X119.069Y13.805
X135.179Y13.805
X135.189Y3.185
T12
X120.559Y5.695
X133.689Y5.695
T13
X138.769Y6.177
X151.879Y6.177
T0
M30
