G04 #@! TF.GenerationSoftware,KiCad,Pcbnew,5.0.2+dfsg1-1*
G04 #@! TF.CreationDate,2020-02-04T12:28:19-03:00*
G04 #@! TF.ProjectId,servo,73657276-6f2e-46b6-9963-61645f706362,1.0*
G04 #@! TF.SameCoordinates,Original*
G04 #@! TF.FileFunction,Copper,L3,Inr*
G04 #@! TF.FilePolarity,Positive*
%FSLAX46Y46*%
G04 Gerber Fmt 4.6, Leading zero omitted, Abs format (unit mm)*
G04 Created by KiCad (PCBNEW 5.0.2+dfsg1-1) date Tue 04 Feb 2020 12:28:19 PM -03*
%MOMM*%
%LPD*%
G01*
G04 APERTURE LIST*
G04 #@! TA.AperFunction,Conductor*
%ADD10C,0.100000*%
G04 #@! TD*
G04 #@! TA.AperFunction,ViaPad*
%ADD11C,3.000000*%
G04 #@! TD*
G04 #@! TA.AperFunction,ViaPad*
%ADD12C,1.524000*%
G04 #@! TD*
G04 #@! TA.AperFunction,ViaPad*
%ADD13C,2.000000*%
G04 #@! TD*
G04 #@! TA.AperFunction,ViaPad*
%ADD14C,1.600000*%
G04 #@! TD*
G04 #@! TA.AperFunction,ViaPad*
%ADD15C,3.326000*%
G04 #@! TD*
G04 #@! TA.AperFunction,ViaPad*
%ADD16C,2.355000*%
G04 #@! TD*
G04 #@! TA.AperFunction,ViaPad*
%ADD17O,2.500000X3.000000*%
G04 #@! TD*
G04 #@! TA.AperFunction,ViaPad*
%ADD18C,3.500000*%
G04 #@! TD*
G04 #@! TA.AperFunction,ViaPad*
%ADD19O,2.300000X1.500000*%
G04 #@! TD*
G04 #@! TA.AperFunction,ViaPad*
%ADD20R,2.300000X1.500000*%
G04 #@! TD*
G04 #@! TA.AperFunction,ViaPad*
%ADD21O,3.000000X2.000000*%
G04 #@! TD*
G04 #@! TA.AperFunction,ViaPad*
%ADD22O,3.000000X2.500000*%
G04 #@! TD*
G04 #@! TA.AperFunction,ViaPad*
%ADD23O,3.000000X3.000000*%
G04 #@! TD*
G04 #@! TA.AperFunction,ViaPad*
%ADD24O,1.400000X2.500000*%
G04 #@! TD*
G04 #@! TA.AperFunction,ViaPad*
%ADD25R,1.800000X3.000000*%
G04 #@! TD*
G04 #@! TA.AperFunction,ViaPad*
%ADD26O,1.800000X3.000000*%
G04 #@! TD*
G04 #@! TA.AperFunction,ViaPad*
%ADD27C,0.500000*%
G04 #@! TD*
G04 #@! TA.AperFunction,ViaPad*
%ADD28O,1.740000X2.200000*%
G04 #@! TD*
G04 #@! TA.AperFunction,ViaPad*
%ADD29C,1.740000*%
G04 #@! TD*
G04 #@! TA.AperFunction,ViaPad*
%ADD30C,1.500000*%
G04 #@! TD*
G04 #@! TA.AperFunction,ViaPad*
%ADD31C,0.457000*%
G04 #@! TD*
G04 #@! TA.AperFunction,ViaPad*
%ADD32C,0.800000*%
G04 #@! TD*
G04 #@! TA.AperFunction,ViaPad*
%ADD33C,1.000000*%
G04 #@! TD*
G04 #@! TA.AperFunction,ViaPad*
%ADD34C,0.600000*%
G04 #@! TD*
G04 #@! TA.AperFunction,ViaPad*
%ADD35C,0.700000*%
G04 #@! TD*
G04 #@! TA.AperFunction,Conductor*
%ADD36C,0.500000*%
G04 #@! TD*
G04 #@! TA.AperFunction,Conductor*
%ADD37C,0.152400*%
G04 #@! TD*
G04 #@! TA.AperFunction,Conductor*
%ADD38C,0.200000*%
G04 #@! TD*
G04 #@! TA.AperFunction,Conductor*
%ADD39C,0.250000*%
G04 #@! TD*
G04 #@! TA.AperFunction,Conductor*
%ADD40C,0.400000*%
G04 #@! TD*
G04 APERTURE END LIST*
D10*
G04 #@! TO.N,/ac_in/AC_L_C*
G04 #@! TO.C,J701*
G36*
X214413513Y-58738611D02*
X214486318Y-58749411D01*
X214557714Y-58767295D01*
X214627013Y-58792090D01*
X214693548Y-58823559D01*
X214756678Y-58861398D01*
X214815795Y-58905242D01*
X214870330Y-58954670D01*
X214919758Y-59009205D01*
X214963602Y-59068322D01*
X215001441Y-59131452D01*
X215032910Y-59197987D01*
X215057705Y-59267286D01*
X215075589Y-59338682D01*
X215086389Y-59411487D01*
X215090000Y-59485000D01*
X215090000Y-61985000D01*
X215086389Y-62058513D01*
X215075589Y-62131318D01*
X215057705Y-62202714D01*
X215032910Y-62272013D01*
X215001441Y-62338548D01*
X214963602Y-62401678D01*
X214919758Y-62460795D01*
X214870330Y-62515330D01*
X214815795Y-62564758D01*
X214756678Y-62608602D01*
X214693548Y-62646441D01*
X214627013Y-62677910D01*
X214557714Y-62702705D01*
X214486318Y-62720589D01*
X214413513Y-62731389D01*
X214340000Y-62735000D01*
X212840000Y-62735000D01*
X212766487Y-62731389D01*
X212693682Y-62720589D01*
X212622286Y-62702705D01*
X212552987Y-62677910D01*
X212486452Y-62646441D01*
X212423322Y-62608602D01*
X212364205Y-62564758D01*
X212309670Y-62515330D01*
X212260242Y-62460795D01*
X212216398Y-62401678D01*
X212178559Y-62338548D01*
X212147090Y-62272013D01*
X212122295Y-62202714D01*
X212104411Y-62131318D01*
X212093611Y-62058513D01*
X212090000Y-61985000D01*
X212090000Y-59485000D01*
X212093611Y-59411487D01*
X212104411Y-59338682D01*
X212122295Y-59267286D01*
X212147090Y-59197987D01*
X212178559Y-59131452D01*
X212216398Y-59068322D01*
X212260242Y-59009205D01*
X212309670Y-58954670D01*
X212364205Y-58905242D01*
X212423322Y-58861398D01*
X212486452Y-58823559D01*
X212552987Y-58792090D01*
X212622286Y-58767295D01*
X212693682Y-58749411D01*
X212766487Y-58738611D01*
X212840000Y-58735000D01*
X214340000Y-58735000D01*
X214413513Y-58738611D01*
X214413513Y-58738611D01*
G37*
D11*
X213590000Y-60735000D03*
D10*
G04 #@! TO.N,/ac_in/AC_L_H*
G36*
X209333513Y-58738611D02*
X209406318Y-58749411D01*
X209477714Y-58767295D01*
X209547013Y-58792090D01*
X209613548Y-58823559D01*
X209676678Y-58861398D01*
X209735795Y-58905242D01*
X209790330Y-58954670D01*
X209839758Y-59009205D01*
X209883602Y-59068322D01*
X209921441Y-59131452D01*
X209952910Y-59197987D01*
X209977705Y-59267286D01*
X209995589Y-59338682D01*
X210006389Y-59411487D01*
X210010000Y-59485000D01*
X210010000Y-61985000D01*
X210006389Y-62058513D01*
X209995589Y-62131318D01*
X209977705Y-62202714D01*
X209952910Y-62272013D01*
X209921441Y-62338548D01*
X209883602Y-62401678D01*
X209839758Y-62460795D01*
X209790330Y-62515330D01*
X209735795Y-62564758D01*
X209676678Y-62608602D01*
X209613548Y-62646441D01*
X209547013Y-62677910D01*
X209477714Y-62702705D01*
X209406318Y-62720589D01*
X209333513Y-62731389D01*
X209260000Y-62735000D01*
X207760000Y-62735000D01*
X207686487Y-62731389D01*
X207613682Y-62720589D01*
X207542286Y-62702705D01*
X207472987Y-62677910D01*
X207406452Y-62646441D01*
X207343322Y-62608602D01*
X207284205Y-62564758D01*
X207229670Y-62515330D01*
X207180242Y-62460795D01*
X207136398Y-62401678D01*
X207098559Y-62338548D01*
X207067090Y-62272013D01*
X207042295Y-62202714D01*
X207024411Y-62131318D01*
X207013611Y-62058513D01*
X207010000Y-61985000D01*
X207010000Y-59485000D01*
X207013611Y-59411487D01*
X207024411Y-59338682D01*
X207042295Y-59267286D01*
X207067090Y-59197987D01*
X207098559Y-59131452D01*
X207136398Y-59068322D01*
X207180242Y-59009205D01*
X207229670Y-58954670D01*
X207284205Y-58905242D01*
X207343322Y-58861398D01*
X207406452Y-58823559D01*
X207472987Y-58792090D01*
X207542286Y-58767295D01*
X207613682Y-58749411D01*
X207686487Y-58738611D01*
X207760000Y-58735000D01*
X209260000Y-58735000D01*
X209333513Y-58738611D01*
X209333513Y-58738611D01*
G37*
D11*
X208510000Y-60735000D03*
D10*
G04 #@! TO.N,/ac_in/AC_N*
G36*
X204253513Y-58738611D02*
X204326318Y-58749411D01*
X204397714Y-58767295D01*
X204467013Y-58792090D01*
X204533548Y-58823559D01*
X204596678Y-58861398D01*
X204655795Y-58905242D01*
X204710330Y-58954670D01*
X204759758Y-59009205D01*
X204803602Y-59068322D01*
X204841441Y-59131452D01*
X204872910Y-59197987D01*
X204897705Y-59267286D01*
X204915589Y-59338682D01*
X204926389Y-59411487D01*
X204930000Y-59485000D01*
X204930000Y-61985000D01*
X204926389Y-62058513D01*
X204915589Y-62131318D01*
X204897705Y-62202714D01*
X204872910Y-62272013D01*
X204841441Y-62338548D01*
X204803602Y-62401678D01*
X204759758Y-62460795D01*
X204710330Y-62515330D01*
X204655795Y-62564758D01*
X204596678Y-62608602D01*
X204533548Y-62646441D01*
X204467013Y-62677910D01*
X204397714Y-62702705D01*
X204326318Y-62720589D01*
X204253513Y-62731389D01*
X204180000Y-62735000D01*
X202680000Y-62735000D01*
X202606487Y-62731389D01*
X202533682Y-62720589D01*
X202462286Y-62702705D01*
X202392987Y-62677910D01*
X202326452Y-62646441D01*
X202263322Y-62608602D01*
X202204205Y-62564758D01*
X202149670Y-62515330D01*
X202100242Y-62460795D01*
X202056398Y-62401678D01*
X202018559Y-62338548D01*
X201987090Y-62272013D01*
X201962295Y-62202714D01*
X201944411Y-62131318D01*
X201933611Y-62058513D01*
X201930000Y-61985000D01*
X201930000Y-59485000D01*
X201933611Y-59411487D01*
X201944411Y-59338682D01*
X201962295Y-59267286D01*
X201987090Y-59197987D01*
X202018559Y-59131452D01*
X202056398Y-59068322D01*
X202100242Y-59009205D01*
X202149670Y-58954670D01*
X202204205Y-58905242D01*
X202263322Y-58861398D01*
X202326452Y-58823559D01*
X202392987Y-58792090D01*
X202462286Y-58767295D01*
X202533682Y-58749411D01*
X202606487Y-58738611D01*
X202680000Y-58735000D01*
X204180000Y-58735000D01*
X204253513Y-58738611D01*
X204253513Y-58738611D01*
G37*
D11*
X203430000Y-60735000D03*
D10*
G04 #@! TO.N,Earth*
G36*
X199173513Y-58738611D02*
X199246318Y-58749411D01*
X199317714Y-58767295D01*
X199387013Y-58792090D01*
X199453548Y-58823559D01*
X199516678Y-58861398D01*
X199575795Y-58905242D01*
X199630330Y-58954670D01*
X199679758Y-59009205D01*
X199723602Y-59068322D01*
X199761441Y-59131452D01*
X199792910Y-59197987D01*
X199817705Y-59267286D01*
X199835589Y-59338682D01*
X199846389Y-59411487D01*
X199850000Y-59485000D01*
X199850000Y-61985000D01*
X199846389Y-62058513D01*
X199835589Y-62131318D01*
X199817705Y-62202714D01*
X199792910Y-62272013D01*
X199761441Y-62338548D01*
X199723602Y-62401678D01*
X199679758Y-62460795D01*
X199630330Y-62515330D01*
X199575795Y-62564758D01*
X199516678Y-62608602D01*
X199453548Y-62646441D01*
X199387013Y-62677910D01*
X199317714Y-62702705D01*
X199246318Y-62720589D01*
X199173513Y-62731389D01*
X199100000Y-62735000D01*
X197600000Y-62735000D01*
X197526487Y-62731389D01*
X197453682Y-62720589D01*
X197382286Y-62702705D01*
X197312987Y-62677910D01*
X197246452Y-62646441D01*
X197183322Y-62608602D01*
X197124205Y-62564758D01*
X197069670Y-62515330D01*
X197020242Y-62460795D01*
X196976398Y-62401678D01*
X196938559Y-62338548D01*
X196907090Y-62272013D01*
X196882295Y-62202714D01*
X196864411Y-62131318D01*
X196853611Y-62058513D01*
X196850000Y-61985000D01*
X196850000Y-59485000D01*
X196853611Y-59411487D01*
X196864411Y-59338682D01*
X196882295Y-59267286D01*
X196907090Y-59197987D01*
X196938559Y-59131452D01*
X196976398Y-59068322D01*
X197020242Y-59009205D01*
X197069670Y-58954670D01*
X197124205Y-58905242D01*
X197183322Y-58861398D01*
X197246452Y-58823559D01*
X197312987Y-58792090D01*
X197382286Y-58767295D01*
X197453682Y-58749411D01*
X197526487Y-58738611D01*
X197600000Y-58735000D01*
X199100000Y-58735000D01*
X199173513Y-58738611D01*
X199173513Y-58738611D01*
G37*
D11*
X198350000Y-60735000D03*
G04 #@! TD*
D12*
G04 #@! TO.N,ECAT0_RJ_LED1*
G04 #@! TO.C,U404*
X215784200Y-179302800D03*
G04 #@! TO.N,Net-(R445-Pad2)*
X213244200Y-179302800D03*
G04 #@! TO.N,ECAT0_RJ_LED0*
X207404200Y-179302800D03*
G04 #@! TO.N,Net-(R446-Pad2)*
X204864200Y-179302800D03*
G04 #@! TO.N,ECAT1_RJ_LED0*
X216269200Y-204162800D03*
G04 #@! TO.N,Net-(R441-Pad2)*
X214234200Y-204162800D03*
G04 #@! TO.N,ECAT1_RJ_LED1*
X206414200Y-204162800D03*
G04 #@! TO.N,Net-(R442-Pad2)*
X204379200Y-204162800D03*
G04 #@! TO.N,Earth*
X216354200Y-185652800D03*
G04 #@! TO.N,/ethercat/P0_RD_N*
X214344200Y-185652800D03*
G04 #@! TO.N,3V3*
X212334200Y-185652800D03*
G04 #@! TO.N,/ethercat/P0_RD_P*
X210324200Y-185652800D03*
G04 #@! TO.N,/ethercat/P0_TD_N*
X208314200Y-185652800D03*
G04 #@! TO.N,3V3*
X206304200Y-185652800D03*
G04 #@! TO.N,/ethercat/P0_TD_P*
X204294200Y-185652800D03*
G04 #@! TO.N,Earth*
X216354200Y-196062800D03*
G04 #@! TO.N,/ethercat/P1_RD_N*
X214344200Y-196062800D03*
G04 #@! TO.N,3V3*
X212334200Y-196062800D03*
G04 #@! TO.N,/ethercat/P1_RD_P*
X210324200Y-196062800D03*
G04 #@! TO.N,/ethercat/P1_TD_N*
X208314200Y-196062800D03*
G04 #@! TO.N,3V3*
X206304200Y-196062800D03*
G04 #@! TO.N,/ethercat/P1_TD_P*
X204294200Y-196062800D03*
G04 #@! TD*
D13*
G04 #@! TO.N,/ethernet/enet_led0*
G04 #@! TO.C,J201*
X198219200Y-184634800D03*
G04 #@! TO.N,Net-(J201-Pad14)*
X195679200Y-184634800D03*
G04 #@! TO.N,Net-(J201-Pad15)*
X188569200Y-184634800D03*
G04 #@! TO.N,/ethernet/enet_led1*
X186029200Y-184634800D03*
D14*
G04 #@! TO.N,3V3*
X187049200Y-189964800D03*
G04 #@! TO.N,/ethernet/P0_RD_N*
X189079200Y-189964800D03*
G04 #@! TO.N,/ethernet/P0_RD_P*
X191109200Y-189964800D03*
G04 #@! TO.N,/ethernet/P0_TD_N*
X193139200Y-189964800D03*
G04 #@! TO.N,/ethernet/P0_TD_P*
X195169200Y-189964800D03*
G04 #@! TO.N,3V3*
X197199200Y-189964800D03*
D15*
G04 #@! TO.N,Earth*
X198689200Y-201804800D03*
X185559200Y-201804800D03*
D16*
X184069200Y-193694800D03*
X200179200Y-193694800D03*
X200189200Y-204314800D03*
X184059200Y-204314800D03*
D14*
G04 #@! TO.N,GND*
X195629200Y-199104800D03*
G04 #@! TO.N,USB_D+*
X193129200Y-199104800D03*
G04 #@! TO.N,USB_D-*
X191119200Y-199104800D03*
G04 #@! TO.N,USB_VBUS*
X188619200Y-199104800D03*
G04 #@! TD*
D17*
G04 #@! TO.N,GNDI*
G04 #@! TO.C,J1201*
X175303000Y-204292000D03*
X175303000Y-191592000D03*
G04 #@! TO.N,/can rs485/CAN_N_H*
X171493000Y-204292000D03*
G04 #@! TO.N,/can rs485/CAN_P_H*
X167683000Y-204292000D03*
G04 #@! TO.N,5VI*
X163873000Y-204292000D03*
G04 #@! TO.N,/can rs485/RS485_N_H*
X171493000Y-191592000D03*
G04 #@! TO.N,/can rs485/RS485_P_H*
X167683000Y-191592000D03*
G04 #@! TO.N,5VI*
X163873000Y-191592000D03*
G04 #@! TD*
G04 #@! TO.N,GNDI*
G04 #@! TO.C,J1101*
X132711000Y-204292000D03*
X132711000Y-191592000D03*
G04 #@! TO.N,/qep/QEP1_S_N_H*
X128901000Y-204292000D03*
G04 #@! TO.N,/qep/QEP2_S_N_H*
X128901000Y-191592000D03*
G04 #@! TO.N,/qep/QEP1_S_P_H*
X125091000Y-204292000D03*
G04 #@! TO.N,/qep/QEP2_S_P_H*
X125091000Y-191592000D03*
G04 #@! TO.N,/qep/QEP1_I_N_H*
X121281000Y-204292000D03*
G04 #@! TO.N,/qep/QEP2_I_N_H*
X121281000Y-191592000D03*
G04 #@! TO.N,/qep/QEP2_I_P_H*
X117471000Y-191592000D03*
G04 #@! TO.N,/qep/QEP1_I_P_H*
X117471000Y-204292000D03*
G04 #@! TO.N,/qep/QEP1_B_N_H*
X113661000Y-204292000D03*
G04 #@! TO.N,/qep/QEP1_B_P_H*
X109851000Y-204292000D03*
G04 #@! TO.N,/qep/QEP1_A_N_H*
X106041000Y-204292000D03*
G04 #@! TO.N,/qep/QEP1_A_P_H*
X102231000Y-204292000D03*
G04 #@! TO.N,5VI*
X98421000Y-204292000D03*
G04 #@! TO.N,/qep/QEP2_B_N_H*
X113661000Y-191592000D03*
G04 #@! TO.N,/qep/QEP2_B_P_H*
X109851000Y-191592000D03*
G04 #@! TO.N,/qep/QEP2_A_N_H*
X106041000Y-191592000D03*
G04 #@! TO.N,/qep/QEP2_A_P_H*
X102231000Y-191592000D03*
G04 #@! TO.N,5VI*
X98421000Y-191592000D03*
G04 #@! TD*
G04 #@! TO.N,5VI*
G04 #@! TO.C,J1001*
X73275000Y-191592000D03*
G04 #@! TO.N,/step_dir/STEP2_P_H*
X77085000Y-191592000D03*
G04 #@! TO.N,/step_dir/STEP2_N_H*
X80895000Y-191592000D03*
G04 #@! TO.N,/step_dir/DIR2_A_P_H*
X84705000Y-191592000D03*
G04 #@! TO.N,/step_dir/DIR2_A_N_H*
X88515000Y-191592000D03*
G04 #@! TO.N,5VI*
X73275000Y-204292000D03*
G04 #@! TO.N,/step_dir/STEP1_P_H*
X77085000Y-204292000D03*
G04 #@! TO.N,/step_dir/STEP1_N_H*
X80895000Y-204292000D03*
G04 #@! TO.N,/step_dir/DIR1_A_P_H*
X84705000Y-204292000D03*
G04 #@! TO.N,/step_dir/DIR1_A_N_H*
X88515000Y-204292000D03*
G04 #@! TO.N,GNDI*
X92325000Y-204292000D03*
X92325000Y-191592000D03*
G04 #@! TD*
G04 #@! TO.N,5VI*
G04 #@! TO.C,J1901*
X138787000Y-191625000D03*
G04 #@! TO.N,/endat/ENDAT2_CLK_H_P*
X142597000Y-191625000D03*
G04 #@! TO.N,/endat/ENDAT2_CLK_H_N*
X146407000Y-191625000D03*
G04 #@! TO.N,/endat/ENDAT2_DATA_H_P*
X150217000Y-191625000D03*
G04 #@! TO.N,/endat/ENDAT2_DATA_H_N*
X154027000Y-191625000D03*
G04 #@! TO.N,5VI*
X138787000Y-204325000D03*
G04 #@! TO.N,/endat/ENDAT1_CLK_H_P*
X142597000Y-204325000D03*
G04 #@! TO.N,/endat/ENDAT1_CLK_H_N*
X146407000Y-204325000D03*
G04 #@! TO.N,/endat/ENDAT1_DATA_H_P*
X150217000Y-204325000D03*
G04 #@! TO.N,/endat/ENDAT1_DATA_H_N*
X154027000Y-204325000D03*
G04 #@! TO.N,GNDI*
X157837000Y-204325000D03*
X157837000Y-191625000D03*
G04 #@! TD*
D10*
G04 #@! TO.N,/lem/LemB_All_4*
G04 #@! TO.C,J1506*
G36*
X188885513Y-58629611D02*
X188958318Y-58640411D01*
X189029714Y-58658295D01*
X189099013Y-58683090D01*
X189165548Y-58714559D01*
X189228678Y-58752398D01*
X189287795Y-58796242D01*
X189342330Y-58845670D01*
X189391758Y-58900205D01*
X189435602Y-58959322D01*
X189473441Y-59022452D01*
X189504910Y-59088987D01*
X189529705Y-59158286D01*
X189547589Y-59229682D01*
X189558389Y-59302487D01*
X189562000Y-59376000D01*
X189562000Y-61876000D01*
X189558389Y-61949513D01*
X189547589Y-62022318D01*
X189529705Y-62093714D01*
X189504910Y-62163013D01*
X189473441Y-62229548D01*
X189435602Y-62292678D01*
X189391758Y-62351795D01*
X189342330Y-62406330D01*
X189287795Y-62455758D01*
X189228678Y-62499602D01*
X189165548Y-62537441D01*
X189099013Y-62568910D01*
X189029714Y-62593705D01*
X188958318Y-62611589D01*
X188885513Y-62622389D01*
X188812000Y-62626000D01*
X187312000Y-62626000D01*
X187238487Y-62622389D01*
X187165682Y-62611589D01*
X187094286Y-62593705D01*
X187024987Y-62568910D01*
X186958452Y-62537441D01*
X186895322Y-62499602D01*
X186836205Y-62455758D01*
X186781670Y-62406330D01*
X186732242Y-62351795D01*
X186688398Y-62292678D01*
X186650559Y-62229548D01*
X186619090Y-62163013D01*
X186594295Y-62093714D01*
X186576411Y-62022318D01*
X186565611Y-61949513D01*
X186562000Y-61876000D01*
X186562000Y-59376000D01*
X186565611Y-59302487D01*
X186576411Y-59229682D01*
X186594295Y-59158286D01*
X186619090Y-59088987D01*
X186650559Y-59022452D01*
X186688398Y-58959322D01*
X186732242Y-58900205D01*
X186781670Y-58845670D01*
X186836205Y-58796242D01*
X186895322Y-58752398D01*
X186958452Y-58714559D01*
X187024987Y-58683090D01*
X187094286Y-58658295D01*
X187165682Y-58640411D01*
X187238487Y-58629611D01*
X187312000Y-58626000D01*
X188812000Y-58626000D01*
X188885513Y-58629611D01*
X188885513Y-58629611D01*
G37*
D11*
X188062000Y-60626000D03*
D10*
G04 #@! TO.N,/lem/LemB_All_5*
G36*
X183805513Y-58629611D02*
X183878318Y-58640411D01*
X183949714Y-58658295D01*
X184019013Y-58683090D01*
X184085548Y-58714559D01*
X184148678Y-58752398D01*
X184207795Y-58796242D01*
X184262330Y-58845670D01*
X184311758Y-58900205D01*
X184355602Y-58959322D01*
X184393441Y-59022452D01*
X184424910Y-59088987D01*
X184449705Y-59158286D01*
X184467589Y-59229682D01*
X184478389Y-59302487D01*
X184482000Y-59376000D01*
X184482000Y-61876000D01*
X184478389Y-61949513D01*
X184467589Y-62022318D01*
X184449705Y-62093714D01*
X184424910Y-62163013D01*
X184393441Y-62229548D01*
X184355602Y-62292678D01*
X184311758Y-62351795D01*
X184262330Y-62406330D01*
X184207795Y-62455758D01*
X184148678Y-62499602D01*
X184085548Y-62537441D01*
X184019013Y-62568910D01*
X183949714Y-62593705D01*
X183878318Y-62611589D01*
X183805513Y-62622389D01*
X183732000Y-62626000D01*
X182232000Y-62626000D01*
X182158487Y-62622389D01*
X182085682Y-62611589D01*
X182014286Y-62593705D01*
X181944987Y-62568910D01*
X181878452Y-62537441D01*
X181815322Y-62499602D01*
X181756205Y-62455758D01*
X181701670Y-62406330D01*
X181652242Y-62351795D01*
X181608398Y-62292678D01*
X181570559Y-62229548D01*
X181539090Y-62163013D01*
X181514295Y-62093714D01*
X181496411Y-62022318D01*
X181485611Y-61949513D01*
X181482000Y-61876000D01*
X181482000Y-59376000D01*
X181485611Y-59302487D01*
X181496411Y-59229682D01*
X181514295Y-59158286D01*
X181539090Y-59088987D01*
X181570559Y-59022452D01*
X181608398Y-58959322D01*
X181652242Y-58900205D01*
X181701670Y-58845670D01*
X181756205Y-58796242D01*
X181815322Y-58752398D01*
X181878452Y-58714559D01*
X181944987Y-58683090D01*
X182014286Y-58658295D01*
X182085682Y-58640411D01*
X182158487Y-58629611D01*
X182232000Y-58626000D01*
X183732000Y-58626000D01*
X183805513Y-58629611D01*
X183805513Y-58629611D01*
G37*
D11*
X182982000Y-60626000D03*
D10*
G04 #@! TO.N,/lem/LemB_All_1*
G36*
X178725513Y-58629611D02*
X178798318Y-58640411D01*
X178869714Y-58658295D01*
X178939013Y-58683090D01*
X179005548Y-58714559D01*
X179068678Y-58752398D01*
X179127795Y-58796242D01*
X179182330Y-58845670D01*
X179231758Y-58900205D01*
X179275602Y-58959322D01*
X179313441Y-59022452D01*
X179344910Y-59088987D01*
X179369705Y-59158286D01*
X179387589Y-59229682D01*
X179398389Y-59302487D01*
X179402000Y-59376000D01*
X179402000Y-61876000D01*
X179398389Y-61949513D01*
X179387589Y-62022318D01*
X179369705Y-62093714D01*
X179344910Y-62163013D01*
X179313441Y-62229548D01*
X179275602Y-62292678D01*
X179231758Y-62351795D01*
X179182330Y-62406330D01*
X179127795Y-62455758D01*
X179068678Y-62499602D01*
X179005548Y-62537441D01*
X178939013Y-62568910D01*
X178869714Y-62593705D01*
X178798318Y-62611589D01*
X178725513Y-62622389D01*
X178652000Y-62626000D01*
X177152000Y-62626000D01*
X177078487Y-62622389D01*
X177005682Y-62611589D01*
X176934286Y-62593705D01*
X176864987Y-62568910D01*
X176798452Y-62537441D01*
X176735322Y-62499602D01*
X176676205Y-62455758D01*
X176621670Y-62406330D01*
X176572242Y-62351795D01*
X176528398Y-62292678D01*
X176490559Y-62229548D01*
X176459090Y-62163013D01*
X176434295Y-62093714D01*
X176416411Y-62022318D01*
X176405611Y-61949513D01*
X176402000Y-61876000D01*
X176402000Y-59376000D01*
X176405611Y-59302487D01*
X176416411Y-59229682D01*
X176434295Y-59158286D01*
X176459090Y-59088987D01*
X176490559Y-59022452D01*
X176528398Y-58959322D01*
X176572242Y-58900205D01*
X176621670Y-58845670D01*
X176676205Y-58796242D01*
X176735322Y-58752398D01*
X176798452Y-58714559D01*
X176864987Y-58683090D01*
X176934286Y-58658295D01*
X177005682Y-58640411D01*
X177078487Y-58629611D01*
X177152000Y-58626000D01*
X178652000Y-58626000D01*
X178725513Y-58629611D01*
X178725513Y-58629611D01*
G37*
D11*
X177902000Y-60626000D03*
G04 #@! TD*
D10*
G04 #@! TO.N,/lem/LemAV_4*
G04 #@! TO.C,J1501*
G36*
X106469513Y-58629611D02*
X106542318Y-58640411D01*
X106613714Y-58658295D01*
X106683013Y-58683090D01*
X106749548Y-58714559D01*
X106812678Y-58752398D01*
X106871795Y-58796242D01*
X106926330Y-58845670D01*
X106975758Y-58900205D01*
X107019602Y-58959322D01*
X107057441Y-59022452D01*
X107088910Y-59088987D01*
X107113705Y-59158286D01*
X107131589Y-59229682D01*
X107142389Y-59302487D01*
X107146000Y-59376000D01*
X107146000Y-61876000D01*
X107142389Y-61949513D01*
X107131589Y-62022318D01*
X107113705Y-62093714D01*
X107088910Y-62163013D01*
X107057441Y-62229548D01*
X107019602Y-62292678D01*
X106975758Y-62351795D01*
X106926330Y-62406330D01*
X106871795Y-62455758D01*
X106812678Y-62499602D01*
X106749548Y-62537441D01*
X106683013Y-62568910D01*
X106613714Y-62593705D01*
X106542318Y-62611589D01*
X106469513Y-62622389D01*
X106396000Y-62626000D01*
X104896000Y-62626000D01*
X104822487Y-62622389D01*
X104749682Y-62611589D01*
X104678286Y-62593705D01*
X104608987Y-62568910D01*
X104542452Y-62537441D01*
X104479322Y-62499602D01*
X104420205Y-62455758D01*
X104365670Y-62406330D01*
X104316242Y-62351795D01*
X104272398Y-62292678D01*
X104234559Y-62229548D01*
X104203090Y-62163013D01*
X104178295Y-62093714D01*
X104160411Y-62022318D01*
X104149611Y-61949513D01*
X104146000Y-61876000D01*
X104146000Y-59376000D01*
X104149611Y-59302487D01*
X104160411Y-59229682D01*
X104178295Y-59158286D01*
X104203090Y-59088987D01*
X104234559Y-59022452D01*
X104272398Y-58959322D01*
X104316242Y-58900205D01*
X104365670Y-58845670D01*
X104420205Y-58796242D01*
X104479322Y-58752398D01*
X104542452Y-58714559D01*
X104608987Y-58683090D01*
X104678286Y-58658295D01*
X104749682Y-58640411D01*
X104822487Y-58629611D01*
X104896000Y-58626000D01*
X106396000Y-58626000D01*
X106469513Y-58629611D01*
X106469513Y-58629611D01*
G37*
D11*
X105646000Y-60626000D03*
D10*
G04 #@! TO.N,/lem/LemAV_5*
G36*
X101389513Y-58629611D02*
X101462318Y-58640411D01*
X101533714Y-58658295D01*
X101603013Y-58683090D01*
X101669548Y-58714559D01*
X101732678Y-58752398D01*
X101791795Y-58796242D01*
X101846330Y-58845670D01*
X101895758Y-58900205D01*
X101939602Y-58959322D01*
X101977441Y-59022452D01*
X102008910Y-59088987D01*
X102033705Y-59158286D01*
X102051589Y-59229682D01*
X102062389Y-59302487D01*
X102066000Y-59376000D01*
X102066000Y-61876000D01*
X102062389Y-61949513D01*
X102051589Y-62022318D01*
X102033705Y-62093714D01*
X102008910Y-62163013D01*
X101977441Y-62229548D01*
X101939602Y-62292678D01*
X101895758Y-62351795D01*
X101846330Y-62406330D01*
X101791795Y-62455758D01*
X101732678Y-62499602D01*
X101669548Y-62537441D01*
X101603013Y-62568910D01*
X101533714Y-62593705D01*
X101462318Y-62611589D01*
X101389513Y-62622389D01*
X101316000Y-62626000D01*
X99816000Y-62626000D01*
X99742487Y-62622389D01*
X99669682Y-62611589D01*
X99598286Y-62593705D01*
X99528987Y-62568910D01*
X99462452Y-62537441D01*
X99399322Y-62499602D01*
X99340205Y-62455758D01*
X99285670Y-62406330D01*
X99236242Y-62351795D01*
X99192398Y-62292678D01*
X99154559Y-62229548D01*
X99123090Y-62163013D01*
X99098295Y-62093714D01*
X99080411Y-62022318D01*
X99069611Y-61949513D01*
X99066000Y-61876000D01*
X99066000Y-59376000D01*
X99069611Y-59302487D01*
X99080411Y-59229682D01*
X99098295Y-59158286D01*
X99123090Y-59088987D01*
X99154559Y-59022452D01*
X99192398Y-58959322D01*
X99236242Y-58900205D01*
X99285670Y-58845670D01*
X99340205Y-58796242D01*
X99399322Y-58752398D01*
X99462452Y-58714559D01*
X99528987Y-58683090D01*
X99598286Y-58658295D01*
X99669682Y-58640411D01*
X99742487Y-58629611D01*
X99816000Y-58626000D01*
X101316000Y-58626000D01*
X101389513Y-58629611D01*
X101389513Y-58629611D01*
G37*
D11*
X100566000Y-60626000D03*
D10*
G04 #@! TO.N,/lem/LemAV_1*
G36*
X96309513Y-58629611D02*
X96382318Y-58640411D01*
X96453714Y-58658295D01*
X96523013Y-58683090D01*
X96589548Y-58714559D01*
X96652678Y-58752398D01*
X96711795Y-58796242D01*
X96766330Y-58845670D01*
X96815758Y-58900205D01*
X96859602Y-58959322D01*
X96897441Y-59022452D01*
X96928910Y-59088987D01*
X96953705Y-59158286D01*
X96971589Y-59229682D01*
X96982389Y-59302487D01*
X96986000Y-59376000D01*
X96986000Y-61876000D01*
X96982389Y-61949513D01*
X96971589Y-62022318D01*
X96953705Y-62093714D01*
X96928910Y-62163013D01*
X96897441Y-62229548D01*
X96859602Y-62292678D01*
X96815758Y-62351795D01*
X96766330Y-62406330D01*
X96711795Y-62455758D01*
X96652678Y-62499602D01*
X96589548Y-62537441D01*
X96523013Y-62568910D01*
X96453714Y-62593705D01*
X96382318Y-62611589D01*
X96309513Y-62622389D01*
X96236000Y-62626000D01*
X94736000Y-62626000D01*
X94662487Y-62622389D01*
X94589682Y-62611589D01*
X94518286Y-62593705D01*
X94448987Y-62568910D01*
X94382452Y-62537441D01*
X94319322Y-62499602D01*
X94260205Y-62455758D01*
X94205670Y-62406330D01*
X94156242Y-62351795D01*
X94112398Y-62292678D01*
X94074559Y-62229548D01*
X94043090Y-62163013D01*
X94018295Y-62093714D01*
X94000411Y-62022318D01*
X93989611Y-61949513D01*
X93986000Y-61876000D01*
X93986000Y-59376000D01*
X93989611Y-59302487D01*
X94000411Y-59229682D01*
X94018295Y-59158286D01*
X94043090Y-59088987D01*
X94074559Y-59022452D01*
X94112398Y-58959322D01*
X94156242Y-58900205D01*
X94205670Y-58845670D01*
X94260205Y-58796242D01*
X94319322Y-58752398D01*
X94382452Y-58714559D01*
X94448987Y-58683090D01*
X94518286Y-58658295D01*
X94589682Y-58640411D01*
X94662487Y-58629611D01*
X94736000Y-58626000D01*
X96236000Y-58626000D01*
X96309513Y-58629611D01*
X96309513Y-58629611D01*
G37*
D11*
X95486000Y-60626000D03*
G04 #@! TD*
D10*
G04 #@! TO.N,/lem/LemA_All_4*
G04 #@! TO.C,J1502*
G36*
X127073513Y-58629611D02*
X127146318Y-58640411D01*
X127217714Y-58658295D01*
X127287013Y-58683090D01*
X127353548Y-58714559D01*
X127416678Y-58752398D01*
X127475795Y-58796242D01*
X127530330Y-58845670D01*
X127579758Y-58900205D01*
X127623602Y-58959322D01*
X127661441Y-59022452D01*
X127692910Y-59088987D01*
X127717705Y-59158286D01*
X127735589Y-59229682D01*
X127746389Y-59302487D01*
X127750000Y-59376000D01*
X127750000Y-61876000D01*
X127746389Y-61949513D01*
X127735589Y-62022318D01*
X127717705Y-62093714D01*
X127692910Y-62163013D01*
X127661441Y-62229548D01*
X127623602Y-62292678D01*
X127579758Y-62351795D01*
X127530330Y-62406330D01*
X127475795Y-62455758D01*
X127416678Y-62499602D01*
X127353548Y-62537441D01*
X127287013Y-62568910D01*
X127217714Y-62593705D01*
X127146318Y-62611589D01*
X127073513Y-62622389D01*
X127000000Y-62626000D01*
X125500000Y-62626000D01*
X125426487Y-62622389D01*
X125353682Y-62611589D01*
X125282286Y-62593705D01*
X125212987Y-62568910D01*
X125146452Y-62537441D01*
X125083322Y-62499602D01*
X125024205Y-62455758D01*
X124969670Y-62406330D01*
X124920242Y-62351795D01*
X124876398Y-62292678D01*
X124838559Y-62229548D01*
X124807090Y-62163013D01*
X124782295Y-62093714D01*
X124764411Y-62022318D01*
X124753611Y-61949513D01*
X124750000Y-61876000D01*
X124750000Y-59376000D01*
X124753611Y-59302487D01*
X124764411Y-59229682D01*
X124782295Y-59158286D01*
X124807090Y-59088987D01*
X124838559Y-59022452D01*
X124876398Y-58959322D01*
X124920242Y-58900205D01*
X124969670Y-58845670D01*
X125024205Y-58796242D01*
X125083322Y-58752398D01*
X125146452Y-58714559D01*
X125212987Y-58683090D01*
X125282286Y-58658295D01*
X125353682Y-58640411D01*
X125426487Y-58629611D01*
X125500000Y-58626000D01*
X127000000Y-58626000D01*
X127073513Y-58629611D01*
X127073513Y-58629611D01*
G37*
D11*
X126250000Y-60626000D03*
D10*
G04 #@! TO.N,/lem/LemA_All_5*
G36*
X121993513Y-58629611D02*
X122066318Y-58640411D01*
X122137714Y-58658295D01*
X122207013Y-58683090D01*
X122273548Y-58714559D01*
X122336678Y-58752398D01*
X122395795Y-58796242D01*
X122450330Y-58845670D01*
X122499758Y-58900205D01*
X122543602Y-58959322D01*
X122581441Y-59022452D01*
X122612910Y-59088987D01*
X122637705Y-59158286D01*
X122655589Y-59229682D01*
X122666389Y-59302487D01*
X122670000Y-59376000D01*
X122670000Y-61876000D01*
X122666389Y-61949513D01*
X122655589Y-62022318D01*
X122637705Y-62093714D01*
X122612910Y-62163013D01*
X122581441Y-62229548D01*
X122543602Y-62292678D01*
X122499758Y-62351795D01*
X122450330Y-62406330D01*
X122395795Y-62455758D01*
X122336678Y-62499602D01*
X122273548Y-62537441D01*
X122207013Y-62568910D01*
X122137714Y-62593705D01*
X122066318Y-62611589D01*
X121993513Y-62622389D01*
X121920000Y-62626000D01*
X120420000Y-62626000D01*
X120346487Y-62622389D01*
X120273682Y-62611589D01*
X120202286Y-62593705D01*
X120132987Y-62568910D01*
X120066452Y-62537441D01*
X120003322Y-62499602D01*
X119944205Y-62455758D01*
X119889670Y-62406330D01*
X119840242Y-62351795D01*
X119796398Y-62292678D01*
X119758559Y-62229548D01*
X119727090Y-62163013D01*
X119702295Y-62093714D01*
X119684411Y-62022318D01*
X119673611Y-61949513D01*
X119670000Y-61876000D01*
X119670000Y-59376000D01*
X119673611Y-59302487D01*
X119684411Y-59229682D01*
X119702295Y-59158286D01*
X119727090Y-59088987D01*
X119758559Y-59022452D01*
X119796398Y-58959322D01*
X119840242Y-58900205D01*
X119889670Y-58845670D01*
X119944205Y-58796242D01*
X120003322Y-58752398D01*
X120066452Y-58714559D01*
X120132987Y-58683090D01*
X120202286Y-58658295D01*
X120273682Y-58640411D01*
X120346487Y-58629611D01*
X120420000Y-58626000D01*
X121920000Y-58626000D01*
X121993513Y-58629611D01*
X121993513Y-58629611D01*
G37*
D11*
X121170000Y-60626000D03*
D10*
G04 #@! TO.N,/lem/LemA_All_1*
G36*
X116913513Y-58629611D02*
X116986318Y-58640411D01*
X117057714Y-58658295D01*
X117127013Y-58683090D01*
X117193548Y-58714559D01*
X117256678Y-58752398D01*
X117315795Y-58796242D01*
X117370330Y-58845670D01*
X117419758Y-58900205D01*
X117463602Y-58959322D01*
X117501441Y-59022452D01*
X117532910Y-59088987D01*
X117557705Y-59158286D01*
X117575589Y-59229682D01*
X117586389Y-59302487D01*
X117590000Y-59376000D01*
X117590000Y-61876000D01*
X117586389Y-61949513D01*
X117575589Y-62022318D01*
X117557705Y-62093714D01*
X117532910Y-62163013D01*
X117501441Y-62229548D01*
X117463602Y-62292678D01*
X117419758Y-62351795D01*
X117370330Y-62406330D01*
X117315795Y-62455758D01*
X117256678Y-62499602D01*
X117193548Y-62537441D01*
X117127013Y-62568910D01*
X117057714Y-62593705D01*
X116986318Y-62611589D01*
X116913513Y-62622389D01*
X116840000Y-62626000D01*
X115340000Y-62626000D01*
X115266487Y-62622389D01*
X115193682Y-62611589D01*
X115122286Y-62593705D01*
X115052987Y-62568910D01*
X114986452Y-62537441D01*
X114923322Y-62499602D01*
X114864205Y-62455758D01*
X114809670Y-62406330D01*
X114760242Y-62351795D01*
X114716398Y-62292678D01*
X114678559Y-62229548D01*
X114647090Y-62163013D01*
X114622295Y-62093714D01*
X114604411Y-62022318D01*
X114593611Y-61949513D01*
X114590000Y-61876000D01*
X114590000Y-59376000D01*
X114593611Y-59302487D01*
X114604411Y-59229682D01*
X114622295Y-59158286D01*
X114647090Y-59088987D01*
X114678559Y-59022452D01*
X114716398Y-58959322D01*
X114760242Y-58900205D01*
X114809670Y-58845670D01*
X114864205Y-58796242D01*
X114923322Y-58752398D01*
X114986452Y-58714559D01*
X115052987Y-58683090D01*
X115122286Y-58658295D01*
X115193682Y-58640411D01*
X115266487Y-58629611D01*
X115340000Y-58626000D01*
X116840000Y-58626000D01*
X116913513Y-58629611D01*
X116913513Y-58629611D01*
G37*
D11*
X116090000Y-60626000D03*
G04 #@! TD*
D10*
G04 #@! TO.N,/lem/LemBU_4*
G04 #@! TO.C,J1504*
G36*
X147677513Y-58629611D02*
X147750318Y-58640411D01*
X147821714Y-58658295D01*
X147891013Y-58683090D01*
X147957548Y-58714559D01*
X148020678Y-58752398D01*
X148079795Y-58796242D01*
X148134330Y-58845670D01*
X148183758Y-58900205D01*
X148227602Y-58959322D01*
X148265441Y-59022452D01*
X148296910Y-59088987D01*
X148321705Y-59158286D01*
X148339589Y-59229682D01*
X148350389Y-59302487D01*
X148354000Y-59376000D01*
X148354000Y-61876000D01*
X148350389Y-61949513D01*
X148339589Y-62022318D01*
X148321705Y-62093714D01*
X148296910Y-62163013D01*
X148265441Y-62229548D01*
X148227602Y-62292678D01*
X148183758Y-62351795D01*
X148134330Y-62406330D01*
X148079795Y-62455758D01*
X148020678Y-62499602D01*
X147957548Y-62537441D01*
X147891013Y-62568910D01*
X147821714Y-62593705D01*
X147750318Y-62611589D01*
X147677513Y-62622389D01*
X147604000Y-62626000D01*
X146104000Y-62626000D01*
X146030487Y-62622389D01*
X145957682Y-62611589D01*
X145886286Y-62593705D01*
X145816987Y-62568910D01*
X145750452Y-62537441D01*
X145687322Y-62499602D01*
X145628205Y-62455758D01*
X145573670Y-62406330D01*
X145524242Y-62351795D01*
X145480398Y-62292678D01*
X145442559Y-62229548D01*
X145411090Y-62163013D01*
X145386295Y-62093714D01*
X145368411Y-62022318D01*
X145357611Y-61949513D01*
X145354000Y-61876000D01*
X145354000Y-59376000D01*
X145357611Y-59302487D01*
X145368411Y-59229682D01*
X145386295Y-59158286D01*
X145411090Y-59088987D01*
X145442559Y-59022452D01*
X145480398Y-58959322D01*
X145524242Y-58900205D01*
X145573670Y-58845670D01*
X145628205Y-58796242D01*
X145687322Y-58752398D01*
X145750452Y-58714559D01*
X145816987Y-58683090D01*
X145886286Y-58658295D01*
X145957682Y-58640411D01*
X146030487Y-58629611D01*
X146104000Y-58626000D01*
X147604000Y-58626000D01*
X147677513Y-58629611D01*
X147677513Y-58629611D01*
G37*
D11*
X146854000Y-60626000D03*
D10*
G04 #@! TO.N,/lem/LemBU_5*
G36*
X142597513Y-58629611D02*
X142670318Y-58640411D01*
X142741714Y-58658295D01*
X142811013Y-58683090D01*
X142877548Y-58714559D01*
X142940678Y-58752398D01*
X142999795Y-58796242D01*
X143054330Y-58845670D01*
X143103758Y-58900205D01*
X143147602Y-58959322D01*
X143185441Y-59022452D01*
X143216910Y-59088987D01*
X143241705Y-59158286D01*
X143259589Y-59229682D01*
X143270389Y-59302487D01*
X143274000Y-59376000D01*
X143274000Y-61876000D01*
X143270389Y-61949513D01*
X143259589Y-62022318D01*
X143241705Y-62093714D01*
X143216910Y-62163013D01*
X143185441Y-62229548D01*
X143147602Y-62292678D01*
X143103758Y-62351795D01*
X143054330Y-62406330D01*
X142999795Y-62455758D01*
X142940678Y-62499602D01*
X142877548Y-62537441D01*
X142811013Y-62568910D01*
X142741714Y-62593705D01*
X142670318Y-62611589D01*
X142597513Y-62622389D01*
X142524000Y-62626000D01*
X141024000Y-62626000D01*
X140950487Y-62622389D01*
X140877682Y-62611589D01*
X140806286Y-62593705D01*
X140736987Y-62568910D01*
X140670452Y-62537441D01*
X140607322Y-62499602D01*
X140548205Y-62455758D01*
X140493670Y-62406330D01*
X140444242Y-62351795D01*
X140400398Y-62292678D01*
X140362559Y-62229548D01*
X140331090Y-62163013D01*
X140306295Y-62093714D01*
X140288411Y-62022318D01*
X140277611Y-61949513D01*
X140274000Y-61876000D01*
X140274000Y-59376000D01*
X140277611Y-59302487D01*
X140288411Y-59229682D01*
X140306295Y-59158286D01*
X140331090Y-59088987D01*
X140362559Y-59022452D01*
X140400398Y-58959322D01*
X140444242Y-58900205D01*
X140493670Y-58845670D01*
X140548205Y-58796242D01*
X140607322Y-58752398D01*
X140670452Y-58714559D01*
X140736987Y-58683090D01*
X140806286Y-58658295D01*
X140877682Y-58640411D01*
X140950487Y-58629611D01*
X141024000Y-58626000D01*
X142524000Y-58626000D01*
X142597513Y-58629611D01*
X142597513Y-58629611D01*
G37*
D11*
X141774000Y-60626000D03*
D10*
G04 #@! TO.N,/lem/LemBU_1*
G36*
X137517513Y-58629611D02*
X137590318Y-58640411D01*
X137661714Y-58658295D01*
X137731013Y-58683090D01*
X137797548Y-58714559D01*
X137860678Y-58752398D01*
X137919795Y-58796242D01*
X137974330Y-58845670D01*
X138023758Y-58900205D01*
X138067602Y-58959322D01*
X138105441Y-59022452D01*
X138136910Y-59088987D01*
X138161705Y-59158286D01*
X138179589Y-59229682D01*
X138190389Y-59302487D01*
X138194000Y-59376000D01*
X138194000Y-61876000D01*
X138190389Y-61949513D01*
X138179589Y-62022318D01*
X138161705Y-62093714D01*
X138136910Y-62163013D01*
X138105441Y-62229548D01*
X138067602Y-62292678D01*
X138023758Y-62351795D01*
X137974330Y-62406330D01*
X137919795Y-62455758D01*
X137860678Y-62499602D01*
X137797548Y-62537441D01*
X137731013Y-62568910D01*
X137661714Y-62593705D01*
X137590318Y-62611589D01*
X137517513Y-62622389D01*
X137444000Y-62626000D01*
X135944000Y-62626000D01*
X135870487Y-62622389D01*
X135797682Y-62611589D01*
X135726286Y-62593705D01*
X135656987Y-62568910D01*
X135590452Y-62537441D01*
X135527322Y-62499602D01*
X135468205Y-62455758D01*
X135413670Y-62406330D01*
X135364242Y-62351795D01*
X135320398Y-62292678D01*
X135282559Y-62229548D01*
X135251090Y-62163013D01*
X135226295Y-62093714D01*
X135208411Y-62022318D01*
X135197611Y-61949513D01*
X135194000Y-61876000D01*
X135194000Y-59376000D01*
X135197611Y-59302487D01*
X135208411Y-59229682D01*
X135226295Y-59158286D01*
X135251090Y-59088987D01*
X135282559Y-59022452D01*
X135320398Y-58959322D01*
X135364242Y-58900205D01*
X135413670Y-58845670D01*
X135468205Y-58796242D01*
X135527322Y-58752398D01*
X135590452Y-58714559D01*
X135656987Y-58683090D01*
X135726286Y-58658295D01*
X135797682Y-58640411D01*
X135870487Y-58629611D01*
X135944000Y-58626000D01*
X137444000Y-58626000D01*
X137517513Y-58629611D01*
X137517513Y-58629611D01*
G37*
D11*
X136694000Y-60626000D03*
G04 #@! TD*
D10*
G04 #@! TO.N,/lem/LemBV_4*
G04 #@! TO.C,J1505*
G36*
X168281513Y-58629611D02*
X168354318Y-58640411D01*
X168425714Y-58658295D01*
X168495013Y-58683090D01*
X168561548Y-58714559D01*
X168624678Y-58752398D01*
X168683795Y-58796242D01*
X168738330Y-58845670D01*
X168787758Y-58900205D01*
X168831602Y-58959322D01*
X168869441Y-59022452D01*
X168900910Y-59088987D01*
X168925705Y-59158286D01*
X168943589Y-59229682D01*
X168954389Y-59302487D01*
X168958000Y-59376000D01*
X168958000Y-61876000D01*
X168954389Y-61949513D01*
X168943589Y-62022318D01*
X168925705Y-62093714D01*
X168900910Y-62163013D01*
X168869441Y-62229548D01*
X168831602Y-62292678D01*
X168787758Y-62351795D01*
X168738330Y-62406330D01*
X168683795Y-62455758D01*
X168624678Y-62499602D01*
X168561548Y-62537441D01*
X168495013Y-62568910D01*
X168425714Y-62593705D01*
X168354318Y-62611589D01*
X168281513Y-62622389D01*
X168208000Y-62626000D01*
X166708000Y-62626000D01*
X166634487Y-62622389D01*
X166561682Y-62611589D01*
X166490286Y-62593705D01*
X166420987Y-62568910D01*
X166354452Y-62537441D01*
X166291322Y-62499602D01*
X166232205Y-62455758D01*
X166177670Y-62406330D01*
X166128242Y-62351795D01*
X166084398Y-62292678D01*
X166046559Y-62229548D01*
X166015090Y-62163013D01*
X165990295Y-62093714D01*
X165972411Y-62022318D01*
X165961611Y-61949513D01*
X165958000Y-61876000D01*
X165958000Y-59376000D01*
X165961611Y-59302487D01*
X165972411Y-59229682D01*
X165990295Y-59158286D01*
X166015090Y-59088987D01*
X166046559Y-59022452D01*
X166084398Y-58959322D01*
X166128242Y-58900205D01*
X166177670Y-58845670D01*
X166232205Y-58796242D01*
X166291322Y-58752398D01*
X166354452Y-58714559D01*
X166420987Y-58683090D01*
X166490286Y-58658295D01*
X166561682Y-58640411D01*
X166634487Y-58629611D01*
X166708000Y-58626000D01*
X168208000Y-58626000D01*
X168281513Y-58629611D01*
X168281513Y-58629611D01*
G37*
D11*
X167458000Y-60626000D03*
D10*
G04 #@! TO.N,/lem/LemBV_5*
G36*
X163201513Y-58629611D02*
X163274318Y-58640411D01*
X163345714Y-58658295D01*
X163415013Y-58683090D01*
X163481548Y-58714559D01*
X163544678Y-58752398D01*
X163603795Y-58796242D01*
X163658330Y-58845670D01*
X163707758Y-58900205D01*
X163751602Y-58959322D01*
X163789441Y-59022452D01*
X163820910Y-59088987D01*
X163845705Y-59158286D01*
X163863589Y-59229682D01*
X163874389Y-59302487D01*
X163878000Y-59376000D01*
X163878000Y-61876000D01*
X163874389Y-61949513D01*
X163863589Y-62022318D01*
X163845705Y-62093714D01*
X163820910Y-62163013D01*
X163789441Y-62229548D01*
X163751602Y-62292678D01*
X163707758Y-62351795D01*
X163658330Y-62406330D01*
X163603795Y-62455758D01*
X163544678Y-62499602D01*
X163481548Y-62537441D01*
X163415013Y-62568910D01*
X163345714Y-62593705D01*
X163274318Y-62611589D01*
X163201513Y-62622389D01*
X163128000Y-62626000D01*
X161628000Y-62626000D01*
X161554487Y-62622389D01*
X161481682Y-62611589D01*
X161410286Y-62593705D01*
X161340987Y-62568910D01*
X161274452Y-62537441D01*
X161211322Y-62499602D01*
X161152205Y-62455758D01*
X161097670Y-62406330D01*
X161048242Y-62351795D01*
X161004398Y-62292678D01*
X160966559Y-62229548D01*
X160935090Y-62163013D01*
X160910295Y-62093714D01*
X160892411Y-62022318D01*
X160881611Y-61949513D01*
X160878000Y-61876000D01*
X160878000Y-59376000D01*
X160881611Y-59302487D01*
X160892411Y-59229682D01*
X160910295Y-59158286D01*
X160935090Y-59088987D01*
X160966559Y-59022452D01*
X161004398Y-58959322D01*
X161048242Y-58900205D01*
X161097670Y-58845670D01*
X161152205Y-58796242D01*
X161211322Y-58752398D01*
X161274452Y-58714559D01*
X161340987Y-58683090D01*
X161410286Y-58658295D01*
X161481682Y-58640411D01*
X161554487Y-58629611D01*
X161628000Y-58626000D01*
X163128000Y-58626000D01*
X163201513Y-58629611D01*
X163201513Y-58629611D01*
G37*
D11*
X162378000Y-60626000D03*
D10*
G04 #@! TO.N,/lem/LemBV_1*
G36*
X158121513Y-58629611D02*
X158194318Y-58640411D01*
X158265714Y-58658295D01*
X158335013Y-58683090D01*
X158401548Y-58714559D01*
X158464678Y-58752398D01*
X158523795Y-58796242D01*
X158578330Y-58845670D01*
X158627758Y-58900205D01*
X158671602Y-58959322D01*
X158709441Y-59022452D01*
X158740910Y-59088987D01*
X158765705Y-59158286D01*
X158783589Y-59229682D01*
X158794389Y-59302487D01*
X158798000Y-59376000D01*
X158798000Y-61876000D01*
X158794389Y-61949513D01*
X158783589Y-62022318D01*
X158765705Y-62093714D01*
X158740910Y-62163013D01*
X158709441Y-62229548D01*
X158671602Y-62292678D01*
X158627758Y-62351795D01*
X158578330Y-62406330D01*
X158523795Y-62455758D01*
X158464678Y-62499602D01*
X158401548Y-62537441D01*
X158335013Y-62568910D01*
X158265714Y-62593705D01*
X158194318Y-62611589D01*
X158121513Y-62622389D01*
X158048000Y-62626000D01*
X156548000Y-62626000D01*
X156474487Y-62622389D01*
X156401682Y-62611589D01*
X156330286Y-62593705D01*
X156260987Y-62568910D01*
X156194452Y-62537441D01*
X156131322Y-62499602D01*
X156072205Y-62455758D01*
X156017670Y-62406330D01*
X155968242Y-62351795D01*
X155924398Y-62292678D01*
X155886559Y-62229548D01*
X155855090Y-62163013D01*
X155830295Y-62093714D01*
X155812411Y-62022318D01*
X155801611Y-61949513D01*
X155798000Y-61876000D01*
X155798000Y-59376000D01*
X155801611Y-59302487D01*
X155812411Y-59229682D01*
X155830295Y-59158286D01*
X155855090Y-59088987D01*
X155886559Y-59022452D01*
X155924398Y-58959322D01*
X155968242Y-58900205D01*
X156017670Y-58845670D01*
X156072205Y-58796242D01*
X156131322Y-58752398D01*
X156194452Y-58714559D01*
X156260987Y-58683090D01*
X156330286Y-58658295D01*
X156401682Y-58640411D01*
X156474487Y-58629611D01*
X156548000Y-58626000D01*
X158048000Y-58626000D01*
X158121513Y-58629611D01*
X158121513Y-58629611D01*
G37*
D11*
X157298000Y-60626000D03*
G04 #@! TD*
D10*
G04 #@! TO.N,/lem/LemAU_4*
G04 #@! TO.C,J1503*
G36*
X85865513Y-58629611D02*
X85938318Y-58640411D01*
X86009714Y-58658295D01*
X86079013Y-58683090D01*
X86145548Y-58714559D01*
X86208678Y-58752398D01*
X86267795Y-58796242D01*
X86322330Y-58845670D01*
X86371758Y-58900205D01*
X86415602Y-58959322D01*
X86453441Y-59022452D01*
X86484910Y-59088987D01*
X86509705Y-59158286D01*
X86527589Y-59229682D01*
X86538389Y-59302487D01*
X86542000Y-59376000D01*
X86542000Y-61876000D01*
X86538389Y-61949513D01*
X86527589Y-62022318D01*
X86509705Y-62093714D01*
X86484910Y-62163013D01*
X86453441Y-62229548D01*
X86415602Y-62292678D01*
X86371758Y-62351795D01*
X86322330Y-62406330D01*
X86267795Y-62455758D01*
X86208678Y-62499602D01*
X86145548Y-62537441D01*
X86079013Y-62568910D01*
X86009714Y-62593705D01*
X85938318Y-62611589D01*
X85865513Y-62622389D01*
X85792000Y-62626000D01*
X84292000Y-62626000D01*
X84218487Y-62622389D01*
X84145682Y-62611589D01*
X84074286Y-62593705D01*
X84004987Y-62568910D01*
X83938452Y-62537441D01*
X83875322Y-62499602D01*
X83816205Y-62455758D01*
X83761670Y-62406330D01*
X83712242Y-62351795D01*
X83668398Y-62292678D01*
X83630559Y-62229548D01*
X83599090Y-62163013D01*
X83574295Y-62093714D01*
X83556411Y-62022318D01*
X83545611Y-61949513D01*
X83542000Y-61876000D01*
X83542000Y-59376000D01*
X83545611Y-59302487D01*
X83556411Y-59229682D01*
X83574295Y-59158286D01*
X83599090Y-59088987D01*
X83630559Y-59022452D01*
X83668398Y-58959322D01*
X83712242Y-58900205D01*
X83761670Y-58845670D01*
X83816205Y-58796242D01*
X83875322Y-58752398D01*
X83938452Y-58714559D01*
X84004987Y-58683090D01*
X84074286Y-58658295D01*
X84145682Y-58640411D01*
X84218487Y-58629611D01*
X84292000Y-58626000D01*
X85792000Y-58626000D01*
X85865513Y-58629611D01*
X85865513Y-58629611D01*
G37*
D11*
X85042000Y-60626000D03*
D10*
G04 #@! TO.N,/lem/LemAU_5*
G36*
X80785513Y-58629611D02*
X80858318Y-58640411D01*
X80929714Y-58658295D01*
X80999013Y-58683090D01*
X81065548Y-58714559D01*
X81128678Y-58752398D01*
X81187795Y-58796242D01*
X81242330Y-58845670D01*
X81291758Y-58900205D01*
X81335602Y-58959322D01*
X81373441Y-59022452D01*
X81404910Y-59088987D01*
X81429705Y-59158286D01*
X81447589Y-59229682D01*
X81458389Y-59302487D01*
X81462000Y-59376000D01*
X81462000Y-61876000D01*
X81458389Y-61949513D01*
X81447589Y-62022318D01*
X81429705Y-62093714D01*
X81404910Y-62163013D01*
X81373441Y-62229548D01*
X81335602Y-62292678D01*
X81291758Y-62351795D01*
X81242330Y-62406330D01*
X81187795Y-62455758D01*
X81128678Y-62499602D01*
X81065548Y-62537441D01*
X80999013Y-62568910D01*
X80929714Y-62593705D01*
X80858318Y-62611589D01*
X80785513Y-62622389D01*
X80712000Y-62626000D01*
X79212000Y-62626000D01*
X79138487Y-62622389D01*
X79065682Y-62611589D01*
X78994286Y-62593705D01*
X78924987Y-62568910D01*
X78858452Y-62537441D01*
X78795322Y-62499602D01*
X78736205Y-62455758D01*
X78681670Y-62406330D01*
X78632242Y-62351795D01*
X78588398Y-62292678D01*
X78550559Y-62229548D01*
X78519090Y-62163013D01*
X78494295Y-62093714D01*
X78476411Y-62022318D01*
X78465611Y-61949513D01*
X78462000Y-61876000D01*
X78462000Y-59376000D01*
X78465611Y-59302487D01*
X78476411Y-59229682D01*
X78494295Y-59158286D01*
X78519090Y-59088987D01*
X78550559Y-59022452D01*
X78588398Y-58959322D01*
X78632242Y-58900205D01*
X78681670Y-58845670D01*
X78736205Y-58796242D01*
X78795322Y-58752398D01*
X78858452Y-58714559D01*
X78924987Y-58683090D01*
X78994286Y-58658295D01*
X79065682Y-58640411D01*
X79138487Y-58629611D01*
X79212000Y-58626000D01*
X80712000Y-58626000D01*
X80785513Y-58629611D01*
X80785513Y-58629611D01*
G37*
D11*
X79962000Y-60626000D03*
D10*
G04 #@! TO.N,/lem/LemAU_1*
G36*
X75705513Y-58629611D02*
X75778318Y-58640411D01*
X75849714Y-58658295D01*
X75919013Y-58683090D01*
X75985548Y-58714559D01*
X76048678Y-58752398D01*
X76107795Y-58796242D01*
X76162330Y-58845670D01*
X76211758Y-58900205D01*
X76255602Y-58959322D01*
X76293441Y-59022452D01*
X76324910Y-59088987D01*
X76349705Y-59158286D01*
X76367589Y-59229682D01*
X76378389Y-59302487D01*
X76382000Y-59376000D01*
X76382000Y-61876000D01*
X76378389Y-61949513D01*
X76367589Y-62022318D01*
X76349705Y-62093714D01*
X76324910Y-62163013D01*
X76293441Y-62229548D01*
X76255602Y-62292678D01*
X76211758Y-62351795D01*
X76162330Y-62406330D01*
X76107795Y-62455758D01*
X76048678Y-62499602D01*
X75985548Y-62537441D01*
X75919013Y-62568910D01*
X75849714Y-62593705D01*
X75778318Y-62611589D01*
X75705513Y-62622389D01*
X75632000Y-62626000D01*
X74132000Y-62626000D01*
X74058487Y-62622389D01*
X73985682Y-62611589D01*
X73914286Y-62593705D01*
X73844987Y-62568910D01*
X73778452Y-62537441D01*
X73715322Y-62499602D01*
X73656205Y-62455758D01*
X73601670Y-62406330D01*
X73552242Y-62351795D01*
X73508398Y-62292678D01*
X73470559Y-62229548D01*
X73439090Y-62163013D01*
X73414295Y-62093714D01*
X73396411Y-62022318D01*
X73385611Y-61949513D01*
X73382000Y-61876000D01*
X73382000Y-59376000D01*
X73385611Y-59302487D01*
X73396411Y-59229682D01*
X73414295Y-59158286D01*
X73439090Y-59088987D01*
X73470559Y-59022452D01*
X73508398Y-58959322D01*
X73552242Y-58900205D01*
X73601670Y-58845670D01*
X73656205Y-58796242D01*
X73715322Y-58752398D01*
X73778452Y-58714559D01*
X73844987Y-58683090D01*
X73914286Y-58658295D01*
X73985682Y-58640411D01*
X74058487Y-58629611D01*
X74132000Y-58626000D01*
X75632000Y-58626000D01*
X75705513Y-58629611D01*
X75705513Y-58629611D01*
G37*
D11*
X74882000Y-60626000D03*
G04 #@! TD*
D13*
G04 #@! TO.N,GNDP*
G04 #@! TO.C,JP703*
X105004212Y-149451599D03*
G04 #@! TO.N,GNDI*
X118000977Y-185159919D03*
G04 #@! TD*
G04 #@! TO.N,5VP*
G04 #@! TO.C,JP704*
X107352091Y-146213442D03*
G04 #@! TO.N,5VI*
X122400977Y-187559917D03*
G04 #@! TD*
D18*
G04 #@! TO.N,GNDH*
G04 #@! TO.C,PS702*
X176995000Y-130710000D03*
G04 #@! TO.N,/ac_in/AC_L_H_FUSE*
X215495000Y-130710000D03*
G04 #@! TO.N,5VH*
X176995000Y-138710000D03*
G04 #@! TO.N,/ac_in/AC_N*
X215495000Y-141460000D03*
G04 #@! TD*
G04 #@! TO.N,GND*
G04 #@! TO.C,PS701*
X176995000Y-103786000D03*
G04 #@! TO.N,/ac_in/AC_L_C_FUSE*
X215495000Y-103786000D03*
G04 #@! TO.N,/ac_in/5VC_IN*
X176995000Y-111786000D03*
G04 #@! TO.N,/ac_in/AC_N*
X215495000Y-114536000D03*
G04 #@! TD*
D19*
G04 #@! TO.N,3V3*
G04 #@! TO.C,U702*
X169140000Y-103360000D03*
G04 #@! TO.N,GND*
X169140000Y-105900000D03*
D20*
G04 #@! TO.N,5VC*
X169140000Y-108440000D03*
G04 #@! TD*
D21*
G04 #@! TO.N,/lem/LemA_All_5*
G04 #@! TO.C,U1502*
X127620000Y-85998000D03*
D22*
G04 #@! TO.N,/lem/LemA_All_6*
X127620000Y-88788000D03*
G04 #@! TO.N,/lem/LemA_All_4*
X127620000Y-83208000D03*
D23*
G04 #@! TO.N,/lem/LemA_All_3*
X114920000Y-82958000D03*
D22*
G04 #@! TO.N,/lem/LemA_All_1*
X114920000Y-88788000D03*
D21*
G04 #@! TO.N,/lem/LemA_All_2*
X114920000Y-85998000D03*
D24*
G04 #@! TO.N,GND*
X121275080Y-96163080D03*
G04 #@! TO.N,5VC*
X118735080Y-96163080D03*
G04 #@! TO.N,Net-(R1503-Pad1)*
X123815080Y-96163080D03*
G04 #@! TD*
D21*
G04 #@! TO.N,/lem/LemAV_5*
G04 #@! TO.C,U1501*
X106966000Y-85998000D03*
D22*
G04 #@! TO.N,/lem/LemAV_6*
X106966000Y-88788000D03*
G04 #@! TO.N,/lem/LemAV_4*
X106966000Y-83208000D03*
D23*
G04 #@! TO.N,/lem/LemAV_3*
X94266000Y-82958000D03*
D22*
G04 #@! TO.N,/lem/LemAV_1*
X94266000Y-88788000D03*
D21*
G04 #@! TO.N,/lem/LemAV_2*
X94266000Y-85998000D03*
D24*
G04 #@! TO.N,GND*
X100621080Y-96163080D03*
G04 #@! TO.N,5VC*
X98081080Y-96163080D03*
G04 #@! TO.N,Net-(R1501-Pad1)*
X103161080Y-96163080D03*
G04 #@! TD*
D21*
G04 #@! TO.N,/lem/LemBV_5*
G04 #@! TO.C,U1505*
X168928000Y-85998000D03*
D22*
G04 #@! TO.N,/lem/LemBV_6*
X168928000Y-88788000D03*
G04 #@! TO.N,/lem/LemBV_4*
X168928000Y-83208000D03*
D23*
G04 #@! TO.N,/lem/LemBV_3*
X156228000Y-82958000D03*
D22*
G04 #@! TO.N,/lem/LemBV_1*
X156228000Y-88788000D03*
D21*
G04 #@! TO.N,/lem/LemBV_2*
X156228000Y-85998000D03*
D24*
G04 #@! TO.N,GND*
X162583080Y-96163080D03*
G04 #@! TO.N,5VC*
X160043080Y-96163080D03*
G04 #@! TO.N,Net-(R1509-Pad1)*
X165123080Y-96163080D03*
G04 #@! TD*
D21*
G04 #@! TO.N,/lem/LemBU_5*
G04 #@! TO.C,U1504*
X148274000Y-85998000D03*
D22*
G04 #@! TO.N,/lem/LemBU_6*
X148274000Y-88788000D03*
G04 #@! TO.N,/lem/LemBU_4*
X148274000Y-83208000D03*
D23*
G04 #@! TO.N,/lem/LemBU_3*
X135574000Y-82958000D03*
D22*
G04 #@! TO.N,/lem/LemBU_1*
X135574000Y-88788000D03*
D21*
G04 #@! TO.N,/lem/LemBU_2*
X135574000Y-85998000D03*
D24*
G04 #@! TO.N,GND*
X141929080Y-96163080D03*
G04 #@! TO.N,5VC*
X139389080Y-96163080D03*
G04 #@! TO.N,Net-(R1507-Pad1)*
X144469080Y-96163080D03*
G04 #@! TD*
D21*
G04 #@! TO.N,/lem/LemAU_5*
G04 #@! TO.C,U1503*
X86312000Y-85998000D03*
D22*
G04 #@! TO.N,/lem/LemAU_6*
X86312000Y-88788000D03*
G04 #@! TO.N,/lem/LemAU_4*
X86312000Y-83208000D03*
D23*
G04 #@! TO.N,/lem/LemAU_3*
X73612000Y-82958000D03*
D22*
G04 #@! TO.N,/lem/LemAU_1*
X73612000Y-88788000D03*
D21*
G04 #@! TO.N,/lem/LemAU_2*
X73612000Y-85998000D03*
D24*
G04 #@! TO.N,GND*
X79967080Y-96163080D03*
G04 #@! TO.N,5VC*
X77427080Y-96163080D03*
G04 #@! TO.N,Net-(R1505-Pad1)*
X82507080Y-96163080D03*
G04 #@! TD*
D21*
G04 #@! TO.N,/lem/LemB_All_5*
G04 #@! TO.C,U1506*
X189582000Y-85998000D03*
D22*
G04 #@! TO.N,/lem/LemB_All_6*
X189582000Y-88788000D03*
G04 #@! TO.N,/lem/LemB_All_4*
X189582000Y-83208000D03*
D23*
G04 #@! TO.N,/lem/LemB_All_3*
X176882000Y-82958000D03*
D22*
G04 #@! TO.N,/lem/LemB_All_1*
X176882000Y-88788000D03*
D21*
G04 #@! TO.N,/lem/LemB_All_2*
X176882000Y-85998000D03*
D24*
G04 #@! TO.N,GND*
X183237080Y-96163080D03*
G04 #@! TO.N,5VC*
X180697080Y-96163080D03*
G04 #@! TO.N,Net-(R1511-Pad1)*
X185777080Y-96163080D03*
G04 #@! TD*
D25*
G04 #@! TO.N,GNDB*
G04 #@! TO.C,U1604*
X204065000Y-90025000D03*
D26*
G04 #@! TO.N,Net-(C1610-Pad2)*
X201525000Y-90025000D03*
G04 #@! TO.N,VBUS2_N_H*
X198985000Y-90025000D03*
G04 #@! TO.N,Net-(L1602-Pad1)*
X196445000Y-90025000D03*
G04 #@! TD*
D25*
G04 #@! TO.N,GNDB*
G04 #@! TO.C,U1603*
X204065000Y-78595000D03*
D26*
G04 #@! TO.N,Net-(C1609-Pad2)*
X201525000Y-78595000D03*
G04 #@! TO.N,VBUS1_N_H*
X198985000Y-78595000D03*
G04 #@! TO.N,Net-(L1601-Pad1)*
X196445000Y-78595000D03*
G04 #@! TD*
D27*
G04 #@! TO.N,GND*
G04 #@! TO.C,U403*
X212285200Y-170750600D03*
X213285200Y-170750600D03*
X214285200Y-170750600D03*
X212285200Y-169750600D03*
X213285200Y-169750600D03*
X214285200Y-169750600D03*
X212285200Y-168750600D03*
X213285200Y-168750600D03*
X214285200Y-168750600D03*
G04 #@! TD*
G04 #@! TO.N,GND*
G04 #@! TO.C,U201*
X188490400Y-170750600D03*
X187490400Y-170750600D03*
X186490400Y-170750600D03*
X188490400Y-169750600D03*
X187490400Y-169750600D03*
X186490400Y-169750600D03*
X188490400Y-168750600D03*
X187490400Y-168750600D03*
X186490400Y-168750600D03*
G04 #@! TD*
G04 #@! TO.N,GND*
G04 #@! TO.C,U402*
X200898000Y-170750600D03*
X201898000Y-170750600D03*
X202898000Y-170750600D03*
X200898000Y-169750600D03*
X201898000Y-169750600D03*
X202898000Y-169750600D03*
X200898000Y-168750600D03*
X201898000Y-168750600D03*
X202898000Y-168750600D03*
G04 #@! TD*
D28*
G04 #@! TO.N,/ui/speaker+*
G04 #@! TO.C,J1402*
X117260000Y-109900000D03*
D10*
G04 #@! TO.N,/ui/speaker-*
G36*
X120444505Y-108801204D02*
X120468773Y-108804804D01*
X120492572Y-108810765D01*
X120515671Y-108819030D01*
X120537850Y-108829520D01*
X120558893Y-108842132D01*
X120578599Y-108856747D01*
X120596777Y-108873223D01*
X120613253Y-108891401D01*
X120627868Y-108911107D01*
X120640480Y-108932150D01*
X120650970Y-108954329D01*
X120659235Y-108977428D01*
X120665196Y-109001227D01*
X120668796Y-109025495D01*
X120670000Y-109049999D01*
X120670000Y-110750001D01*
X120668796Y-110774505D01*
X120665196Y-110798773D01*
X120659235Y-110822572D01*
X120650970Y-110845671D01*
X120640480Y-110867850D01*
X120627868Y-110888893D01*
X120613253Y-110908599D01*
X120596777Y-110926777D01*
X120578599Y-110943253D01*
X120558893Y-110957868D01*
X120537850Y-110970480D01*
X120515671Y-110980970D01*
X120492572Y-110989235D01*
X120468773Y-110995196D01*
X120444505Y-110998796D01*
X120420001Y-111000000D01*
X119179999Y-111000000D01*
X119155495Y-110998796D01*
X119131227Y-110995196D01*
X119107428Y-110989235D01*
X119084329Y-110980970D01*
X119062150Y-110970480D01*
X119041107Y-110957868D01*
X119021401Y-110943253D01*
X119003223Y-110926777D01*
X118986747Y-110908599D01*
X118972132Y-110888893D01*
X118959520Y-110867850D01*
X118949030Y-110845671D01*
X118940765Y-110822572D01*
X118934804Y-110798773D01*
X118931204Y-110774505D01*
X118930000Y-110750001D01*
X118930000Y-109049999D01*
X118931204Y-109025495D01*
X118934804Y-109001227D01*
X118940765Y-108977428D01*
X118949030Y-108954329D01*
X118959520Y-108932150D01*
X118972132Y-108911107D01*
X118986747Y-108891401D01*
X119003223Y-108873223D01*
X119021401Y-108856747D01*
X119041107Y-108842132D01*
X119062150Y-108829520D01*
X119084329Y-108819030D01*
X119107428Y-108810765D01*
X119131227Y-108804804D01*
X119155495Y-108801204D01*
X119179999Y-108800000D01*
X120420001Y-108800000D01*
X120444505Y-108801204D01*
X120444505Y-108801204D01*
G37*
D29*
X119800000Y-109900000D03*
G04 #@! TD*
D30*
G04 #@! TO.N,GNDH*
X180400977Y-177359917D03*
D31*
G04 #@! TO.N,GND*
X144100979Y-146059919D03*
D32*
X185650000Y-120378000D03*
D33*
X183913840Y-126686160D03*
X214739800Y-199422800D03*
X209424400Y-200642000D03*
X193016000Y-201023000D03*
X155220800Y-95689200D03*
X175083600Y-95638400D03*
D31*
X140100976Y-142059919D03*
X140900978Y-142059920D03*
X140900978Y-141259918D03*
X140100980Y-141259918D03*
X140100977Y-140459918D03*
X140900979Y-140459919D03*
X140900978Y-139659919D03*
X141700979Y-139659919D03*
X141700978Y-140459919D03*
X142500977Y-140459916D03*
X142500977Y-141259918D03*
X142500977Y-139659918D03*
X141700976Y-141259918D03*
X142500977Y-142059919D03*
X141700977Y-142059917D03*
X140100976Y-139659918D03*
X148100977Y-147659919D03*
X134500977Y-138059920D03*
X138900977Y-132859919D03*
X144900976Y-144459918D03*
X137700977Y-138859919D03*
X137700977Y-144459918D03*
X144900977Y-137259920D03*
X150900977Y-140859919D03*
X140100976Y-147659919D03*
D33*
X123200977Y-115559917D03*
X120542483Y-138681996D03*
D31*
X137700979Y-136459920D03*
X133710367Y-133269307D03*
X149300977Y-149659919D03*
D32*
X118100977Y-102059919D03*
X129800000Y-101900000D03*
X134600000Y-106300000D03*
D33*
X121200977Y-125559917D03*
X175800000Y-117100000D03*
D30*
X155300977Y-101159919D03*
D33*
X170900977Y-144817643D03*
X169300977Y-120059917D03*
D32*
X216500977Y-166459919D03*
D33*
X195900977Y-169059917D03*
X218000967Y-176695214D03*
X82500977Y-166259917D03*
X95500977Y-172859917D03*
X79900977Y-172859917D03*
X73300977Y-166459917D03*
X96300977Y-166659917D03*
X108900977Y-164459917D03*
X147162498Y-172259907D03*
X160148400Y-172212494D03*
X209300977Y-189059917D03*
X125100977Y-177259917D03*
X130500977Y-176059917D03*
D32*
X158700977Y-138059917D03*
D34*
X132900977Y-147859917D03*
D31*
X138100977Y-132859917D03*
D32*
X151100977Y-133259917D03*
D33*
X172700977Y-171859917D03*
X200834875Y-178121964D03*
X189900956Y-178614302D03*
D32*
X149300977Y-114059919D03*
D30*
X144600977Y-114759919D03*
X71835076Y-99125820D03*
D33*
X132100977Y-97259919D03*
D32*
X124700977Y-106659919D03*
D33*
G04 #@! TO.N,5VC*
X115400000Y-104773790D03*
X136100977Y-101036129D03*
X191100977Y-204659917D03*
X196500977Y-146059917D03*
D31*
G04 #@! TO.N,ECAT0_RX_CLK*
X155700977Y-137259919D03*
X199796135Y-166712673D03*
X158100977Y-166459917D03*
G04 #@! TO.N,ECAT_MDIO*
X196557663Y-153943853D03*
X207700977Y-171459917D03*
X196703980Y-162856914D03*
D32*
X196100977Y-170859919D03*
D31*
G04 #@! TO.N,ECAT1_RJ_LED1*
X193900977Y-153866407D03*
G04 #@! TO.N,LCD_GPIO4*
X147300976Y-141259918D03*
X164500977Y-139259919D03*
G04 #@! TO.N,ECAT0_RX_ER*
X155700977Y-136459919D03*
X198300977Y-160059917D03*
X159100977Y-159659917D03*
G04 #@! TO.N,ECAT0_TX_D2*
X206480671Y-170879110D03*
X157500977Y-163059917D03*
X155522439Y-138277807D03*
G04 #@! TO.N,ECAT0_TX_CLK*
X205729153Y-167543853D03*
X166100977Y-139859917D03*
X164300977Y-165059917D03*
G04 #@! TO.N,LCD_GPIO3*
X146500978Y-141259918D03*
X165700977Y-139059917D03*
G04 #@! TO.N,ENET_CAT_XI*
X156900977Y-142459917D03*
X195100977Y-163859917D03*
X155900977Y-162859917D03*
G04 #@! TO.N,ECAT_EEPROM_SDA*
X154896208Y-167916777D03*
X156300977Y-145059917D03*
X125300977Y-168859919D03*
G04 #@! TO.N,ECAT0_RX_D2*
X203734800Y-166352000D03*
X147300977Y-135659917D03*
X204500977Y-149259917D03*
G04 #@! TO.N,ECAT0_RX_D0*
X202261600Y-160967200D03*
X147300977Y-136459917D03*
X202500977Y-149659917D03*
G04 #@! TO.N,LCD_GPIO0*
X152900977Y-132059919D03*
X164900977Y-133259917D03*
G04 #@! TO.N,ECAT0_TX_D3*
X147300977Y-139659916D03*
X207357663Y-162343853D03*
X208157663Y-151543853D03*
G04 #@! TO.N,ECAT0_TX_D0*
X147300978Y-140459919D03*
X204557663Y-151143853D03*
X205357663Y-162088427D03*
G04 #@! TO.N,LCD_GPIO2*
X147300978Y-137259920D03*
X164500977Y-135659917D03*
G04 #@! TO.N,ECAT_RST*
X147300977Y-142059917D03*
X207700977Y-172459917D03*
D32*
X196700977Y-172059917D03*
D31*
X194700977Y-152059917D03*
G04 #@! TO.N,ECAT_EEPROM_SCL*
X147300978Y-142859920D03*
X146900977Y-168459917D03*
D32*
X124979487Y-175503099D03*
D31*
G04 #@! TO.N,ENDAT1_N_SKEW_CLK*
X143300977Y-172459917D03*
X152100977Y-127459917D03*
X153300977Y-171859917D03*
G04 #@! TO.N,ENDAT1_Y_SKEW_CLK*
X145700977Y-134859918D03*
X143500977Y-168459917D03*
G04 #@! TO.N,ECAT0_RX_D3*
X145700980Y-135659918D03*
X205100977Y-166459917D03*
X162700977Y-127459917D03*
X163700977Y-161859917D03*
G04 #@! TO.N,ECAT0_RX_D1*
X146500978Y-136459920D03*
X203700977Y-162859917D03*
X203300977Y-149259917D03*
G04 #@! TO.N,LCD_SPI_PDW*
X146500977Y-137259917D03*
X164500977Y-130059917D03*
G04 #@! TO.N,ECAT0_RX_DV*
X146500978Y-139659919D03*
X200900977Y-162859917D03*
X199700977Y-149659917D03*
G04 #@! TO.N,ECAT0_TX_D1*
X146500977Y-140459916D03*
X206557663Y-162743853D03*
X206957663Y-151543853D03*
G04 #@! TO.N,LCD_GPIO1*
X147300977Y-134859918D03*
D32*
X167300977Y-134059917D03*
D31*
G04 #@! TO.N,ECAT0_TX_EN*
X146500978Y-142059920D03*
X206160730Y-168331407D03*
X205900977Y-153259917D03*
G04 #@! TO.N,ENDAT2_N_SKEW_CLK*
X144900979Y-134859917D03*
X145300977Y-164059919D03*
G04 #@! TO.N,ENDAT2_Y_SKEW_CLK*
X144891592Y-135669304D03*
X144100977Y-164059919D03*
G04 #@! TO.N,QEP1_A*
X144900977Y-134059919D03*
X147700977Y-166459919D03*
X88500977Y-172659917D03*
G04 #@! TO.N,QEP1_B*
X130986173Y-129491336D03*
X144100978Y-134859918D03*
X143890356Y-128476546D03*
X87300977Y-172659917D03*
X131100977Y-165659917D03*
G04 #@! TO.N,ECAT1_RJ_LED0*
X144900978Y-146859920D03*
X190900977Y-157888427D03*
G04 #@! TO.N,ECAT0_RJ_LED0*
X144100979Y-147659919D03*
X192020299Y-157888427D03*
G04 #@! TO.N,FLASH_SPI_MOSI*
X151300977Y-122059919D03*
X149500977Y-168259919D03*
G04 #@! TO.N,FLASH_SPI_MISO*
X126700977Y-172059917D03*
X125100977Y-126459917D03*
X142700977Y-124459919D03*
G04 #@! TO.N,FLASH_SPI_CLK*
X142500977Y-134859916D03*
X131900977Y-172459917D03*
G04 #@! TO.N,FLASH_SPI_CS*
X140900977Y-125859919D03*
X128100977Y-172059917D03*
X130500977Y-124259917D03*
G04 #@! TO.N,QEP1_S*
X141700977Y-135659919D03*
X142300977Y-158059917D03*
X121041859Y-157488751D03*
G04 #@! TO.N,ENDAT2_MOSI*
X142500977Y-146059916D03*
G04 #@! TO.N,QEP2_I*
X131326860Y-170372024D03*
X101700977Y-172459917D03*
X131596256Y-125495640D03*
X140300977Y-127259919D03*
G04 #@! TO.N,QEP2_B*
X103100977Y-172659917D03*
X129700977Y-170859917D03*
X140900977Y-126859919D03*
X131300977Y-124685382D03*
G04 #@! TO.N,QEP2_A*
X140900979Y-134859919D03*
X140900977Y-160659917D03*
X121500977Y-160859917D03*
G04 #@! TO.N,QEP1_I*
X140900978Y-135659918D03*
X86100977Y-172659917D03*
X141300977Y-165859919D03*
G04 #@! TO.N,ENDAT2_CLK*
X141700978Y-146059919D03*
G04 #@! TO.N,ENDAT2_CS*
X141700977Y-146859919D03*
X154900977Y-172459917D03*
X145300977Y-171659917D03*
G04 #@! TO.N,QEP2_S*
X100500977Y-172459917D03*
X131596256Y-126240850D03*
X131300977Y-169459917D03*
X138479775Y-126881119D03*
G04 #@! TO.N,ENET_MDIO*
X166100977Y-121659919D03*
X193100977Y-168459917D03*
X166300977Y-161259917D03*
G04 #@! TO.N,ENET_PWDN*
X140100980Y-135659918D03*
X159700977Y-133259917D03*
X161700977Y-170459917D03*
G04 #@! TO.N,ENDAT1_CS*
X140900977Y-146059916D03*
G04 #@! TO.N,ENDAT2_MISO*
X157668915Y-172061111D03*
X141100977Y-154859917D03*
X156500977Y-156259917D03*
G04 #@! TO.N,ECAT1_RX_D3*
X217100977Y-161059917D03*
G04 #@! TO.N,ENET_COL*
X164300977Y-119259917D03*
X165700977Y-165059917D03*
G04 #@! TO.N,ENET_RX_DV*
X139300977Y-134859917D03*
X159297974Y-164056914D03*
X157900977Y-133059917D03*
G04 #@! TO.N,ENET_RX_CLK*
X139300978Y-135659917D03*
X159300977Y-132031407D03*
X161700977Y-163059917D03*
G04 #@! TO.N,ENDAT1_MISO*
X140100979Y-146059917D03*
G04 #@! TO.N,ENDAT1_CLK*
X140100978Y-146859919D03*
G04 #@! TO.N,ECAT1_RX_D2*
X215900977Y-161259917D03*
G04 #@! TO.N,ECAT1_RX_D1*
X216500977Y-160459917D03*
G04 #@! TO.N,ENET_CRS*
X154894187Y-121423062D03*
X155100977Y-164459917D03*
G04 #@! TO.N,ENET_RX_D0*
X138900977Y-131059917D03*
X161100977Y-127459917D03*
X163500977Y-165059917D03*
G04 #@! TO.N,ENET_RX_ER*
X138500980Y-136459920D03*
X158900977Y-130859917D03*
X162500977Y-165059917D03*
G04 #@! TO.N,ENDAT1_MOSI*
X139300978Y-146859920D03*
G04 #@! TO.N,ECAT1_RX_D0*
X214500977Y-160059917D03*
G04 #@! TO.N,3V3A*
X137700979Y-138059919D03*
D33*
X139100977Y-121459917D03*
D31*
X139700977Y-130583719D03*
D33*
X133300977Y-121459917D03*
D31*
G04 #@! TO.N,RS485_EN*
X136300977Y-171859917D03*
X139300978Y-146059916D03*
D32*
X170000977Y-175959917D03*
D31*
G04 #@! TO.N,RS485_TX*
X168100977Y-158259917D03*
D32*
X168200977Y-175759917D03*
D31*
G04 #@! TO.N,RS485_RX*
X138500977Y-159259919D03*
X139077935Y-170331409D03*
G04 #@! TO.N,ENET_TX_D1*
X136100979Y-139659919D03*
X134463620Y-170353081D03*
G04 #@! TO.N,ECAT1_TX_EN*
X136100977Y-141259919D03*
X133757663Y-152372363D03*
X215200977Y-153959917D03*
G04 #@! TO.N,CAN_RX*
X136100979Y-142059918D03*
X168100977Y-151659917D03*
D32*
X169200977Y-174759917D03*
D31*
G04 #@! TO.N,ENET_TX_EN*
X136100979Y-142859919D03*
X140700977Y-164859919D03*
G04 #@! TO.N,RUN_LED1*
X136100977Y-144459918D03*
G04 #@! TO.N,ENET_RST*
X136100979Y-145259919D03*
X137300977Y-161459917D03*
G04 #@! TO.N,ECAT1_RX_DV*
X211109900Y-160967200D03*
X136900977Y-146859917D03*
X210700977Y-153859917D03*
G04 #@! TO.N,ECAT1_RX_CLK*
X144597974Y-160556914D03*
G04 #@! TO.N,ECAT1_RX_ER*
X211900977Y-157459917D03*
G04 #@! TO.N,ENET_TX_D2*
X135300978Y-139659919D03*
X133757663Y-170343853D03*
G04 #@! TO.N,ECAT1_TX_CLK*
X136100978Y-140459919D03*
X215804264Y-155831407D03*
X132700977Y-156459917D03*
G04 #@! TO.N,CAN_TX*
X135300979Y-142059920D03*
X135100977Y-156459917D03*
X171100977Y-156259917D03*
D32*
X171000977Y-174959917D03*
D31*
G04 #@! TO.N,ENET_RX_D3*
X135300977Y-142859917D03*
X139900977Y-163859919D03*
G04 #@! TO.N,RUN_LED0*
X135300977Y-144459918D03*
G04 #@! TO.N,ENET_TX_CLK*
X135300978Y-145259919D03*
X139100977Y-164459919D03*
G04 #@! TO.N,ECAT1_TX_D3*
X135100977Y-152459917D03*
X153100977Y-152859917D03*
G04 #@! TO.N,ENET_TX_D3*
X127388998Y-139659918D03*
X126900977Y-168259917D03*
G04 #@! TO.N,ECAT1_TX_D0*
X217163849Y-156546431D03*
X127388998Y-141543853D03*
X126194487Y-157065275D03*
G04 #@! TO.N,ENET_RX_D1*
X127388998Y-143459917D03*
X126700977Y-160259917D03*
D32*
G04 #@! TO.N,/uc_clk_dbg/MCU_TRSTn*
X144900977Y-108459919D03*
D31*
X126129487Y-108031409D03*
D32*
G04 #@! TO.N,/uc_clk_dbg/MCU_TCK*
X136900977Y-106831409D03*
D31*
X127071422Y-106033739D03*
G04 #@! TO.N,ECAT1_TX_D2*
X218100977Y-170659917D03*
G04 #@! TO.N,ENET_RX_D2*
X127388998Y-140343853D03*
X126700977Y-161100000D03*
G04 #@! TO.N,/uc_clk_dbg/MCU_TDI*
X128100977Y-107259919D03*
D32*
X138900977Y-106459919D03*
D31*
G04 #@! TO.N,/uc_clk_dbg/MCU_TMS*
X126472467Y-107290383D03*
D32*
X141300977Y-106459919D03*
D31*
G04 #@! TO.N,/uc_clk_dbg/MCU_TDO*
X124600000Y-107900000D03*
D32*
X146900977Y-106259919D03*
D31*
G04 #@! TO.N,ECAT1_TX_D1*
X144300977Y-162259917D03*
D30*
G04 #@! TO.N,3V3*
X183618000Y-111005500D03*
D33*
X208251800Y-183319200D03*
X200686800Y-174581600D03*
X217469175Y-174161297D03*
X209908504Y-174581600D03*
X194641600Y-180982400D03*
X192279500Y-175064300D03*
D31*
X124706994Y-102555606D03*
D33*
X118921600Y-139342762D03*
X198543162Y-162817256D03*
X139700977Y-102459919D03*
D30*
X119000000Y-107100000D03*
D34*
X134500977Y-102059919D03*
D33*
X73000000Y-171100000D03*
X209300977Y-159459917D03*
X190900977Y-164259917D03*
X196300977Y-165459917D03*
X151300977Y-172316779D03*
X79700977Y-166659917D03*
X93100977Y-166459917D03*
X106300977Y-165659917D03*
X90900977Y-172659917D03*
X184950247Y-176573267D03*
X174006235Y-172938814D03*
X205385800Y-176994600D03*
X215900977Y-182059917D03*
X211700977Y-204259917D03*
X209300977Y-163659917D03*
X128488477Y-176309907D03*
X106172618Y-173188276D03*
D30*
X141100977Y-114259917D03*
D33*
X161300977Y-120259917D03*
X163400977Y-172359917D03*
X119700977Y-173259917D03*
X120987797Y-126973097D03*
X121400977Y-113759917D03*
X119400977Y-151759917D03*
D32*
X214100977Y-176859919D03*
D33*
X187900977Y-176259919D03*
X209100977Y-168259919D03*
X175800000Y-122300000D03*
X78700977Y-103659919D03*
X72500977Y-103447419D03*
X90100977Y-103447419D03*
X99700977Y-103659919D03*
D32*
X113300977Y-105059919D03*
X129900977Y-106459919D03*
D33*
X138100977Y-172059929D03*
D32*
G04 #@! TO.N,Net-(R201-Pad1)*
X190700977Y-172259919D03*
D31*
G04 #@! TO.N,LEM_B_U*
X133357663Y-112743853D03*
X133700977Y-101459919D03*
G04 #@! TO.N,LEM_B_ALL*
X132100977Y-105659919D03*
G04 #@! TO.N,LEM_A_ALL*
X136100977Y-138059920D03*
X131757663Y-103143853D03*
X131685143Y-112848740D03*
D32*
G04 #@! TO.N,LEM_B_V*
X136600000Y-105500000D03*
D31*
G04 #@! TO.N,LEM_A_V*
X128600000Y-102300000D03*
G04 #@! TO.N,LEM_A_U*
X136100978Y-137259920D03*
G04 #@! TO.N,LCD_AUDIO*
X165757663Y-117143853D03*
X135329153Y-117143853D03*
X165272467Y-131259917D03*
D34*
X109700977Y-103059919D03*
D30*
G04 #@! TO.N,5VH*
X178200977Y-175959917D03*
D32*
G04 #@! TO.N,Net-(R902-Pad1)*
X75900977Y-101659919D03*
G04 #@! TO.N,Net-(R901-Pad1)*
X74500977Y-100659919D03*
G04 #@! TO.N,Net-(D402-Pad2)*
X118100977Y-148346700D03*
G04 #@! TO.N,Net-(D401-Pad2)*
X118100977Y-150226300D03*
G04 #@! TO.N,Net-(C823-Pad2)*
X110900977Y-118459917D03*
X102800977Y-145759917D03*
G04 #@! TO.N,Net-(C824-Pad2)*
X110900977Y-117259917D03*
X103400977Y-144359917D03*
D31*
G04 #@! TO.N,Net-(R423-Pad1)*
X198500977Y-168459917D03*
D32*
G04 #@! TO.N,Net-(R421-Pad1)*
X197300977Y-173459919D03*
D31*
G04 #@! TO.N,Net-(R426-Pad1)*
X210100977Y-167259919D03*
G04 #@! TO.N,Net-(R433-Pad2)*
X207900977Y-181459917D03*
D32*
X195300977Y-172859919D03*
G04 #@! TO.N,Net-(D705-Pad2)*
X162300977Y-107259919D03*
G04 #@! TO.N,Net-(D706-Pad2)*
X151800977Y-104359919D03*
G04 #@! TO.N,Net-(R922-Pad1)*
X101900977Y-101059919D03*
G04 #@! TO.N,Net-(R923-Pad1)*
X103100977Y-101659919D03*
D31*
G04 #@! TO.N,Net-(R434-Pad2)*
X207700977Y-173453090D03*
D32*
X209500977Y-202059919D03*
G04 #@! TO.N,Net-(C1608-Pad2)*
X196064000Y-98280000D03*
X198096000Y-121394000D03*
G04 #@! TO.N,Net-(C1607-Pad2)*
X198200977Y-83359917D03*
X196400977Y-113959917D03*
G04 #@! TO.N,Net-(R903-Pad1)*
X83700977Y-100459919D03*
G04 #@! TO.N,Net-(R904-Pad1)*
X84900977Y-101659919D03*
G04 #@! TO.N,Net-(R920-Pad1)*
X92500977Y-100459919D03*
G04 #@! TO.N,Net-(R921-Pad1)*
X93700977Y-101459919D03*
D31*
G04 #@! TO.N,USB_D-*
X182700977Y-155659917D03*
G04 #@! TO.N,USB_D+*
X183974037Y-155245659D03*
G04 #@! TO.N,FAN_RPM1*
X121672467Y-155259917D03*
X122129487Y-124476150D03*
X141100977Y-155659917D03*
G04 #@! TO.N,IGBT_ALARM1*
X123900977Y-153459917D03*
X141100977Y-153859917D03*
X123970977Y-124059919D03*
G04 #@! TO.N,IGBT_ALARM2*
X138500978Y-146859919D03*
X122500977Y-117659919D03*
X123100977Y-154659917D03*
G04 #@! TO.N,FAN_RPM2*
X136900977Y-146059916D03*
X122700977Y-152459917D03*
D32*
G04 #@! TO.N,FAN_RPM2_H*
X98400977Y-145422400D03*
G04 #@! TO.N,IGBT_ALARM2_H*
X96000977Y-145359917D03*
D31*
G04 #@! TO.N,DIR2*
X151672467Y-167172363D03*
X151672467Y-151543853D03*
X97900977Y-172459917D03*
G04 #@! TO.N,STEP2*
X150957663Y-151943853D03*
X150540184Y-167362921D03*
X99100977Y-172459917D03*
G04 #@! TO.N,STEP1*
X148100977Y-148459919D03*
X121900977Y-153259917D03*
G04 #@! TO.N,DIR1*
X149583673Y-151979886D03*
X82039849Y-172193862D03*
X148900977Y-162418707D03*
D32*
G04 #@! TO.N,STEP1_H*
X75000000Y-188700000D03*
G04 #@! TO.N,DIR1_H*
X76200000Y-181500000D03*
G04 #@! TO.N,DIR2_H*
X84499990Y-187900000D03*
G04 #@! TO.N,STEP2_H*
X77400000Y-188700000D03*
D31*
G04 #@! TO.N,DACB_DBG*
X135412879Y-114859919D03*
D32*
X147400977Y-113959919D03*
D34*
X109440977Y-100229919D03*
D31*
X133100977Y-100659919D03*
D32*
G04 #@! TO.N,/endat/ENDAT1_CS_H*
X143100977Y-181459919D03*
G04 #@! TO.N,/endat/ENDAT1_CLK_H*
X138300977Y-188459919D03*
G04 #@! TO.N,/endat/ENDAT1_MISO_H*
X144500977Y-181659919D03*
G04 #@! TO.N,/endat/ENDAT2_MOSI_H*
X158800977Y-189159917D03*
D35*
G04 #@! TO.N,/endat/ENDAT2_CS_H*
X156200000Y-181500000D03*
D32*
G04 #@! TO.N,/endat/ENDAT2_CLK_H*
X151500977Y-186259919D03*
D35*
G04 #@! TO.N,/endat/ENDAT2_MISO_H*
X157800000Y-181900000D03*
D31*
G04 #@! TO.N,ENET_MDCLK*
X141700978Y-134859919D03*
X159300977Y-134059917D03*
X160500977Y-161459917D03*
G04 #@! TO.N,ECAT_MDCLK*
X146500977Y-142859917D03*
X164900977Y-161259917D03*
X165900977Y-145859917D03*
G04 #@! TO.N,ECAT_LED_ERR*
X145700978Y-146859920D03*
X121200977Y-147259919D03*
G04 #@! TO.N,ECAT_LED_RUN*
X121300977Y-154059917D03*
X146800977Y-155559917D03*
D32*
G04 #@! TO.N,/ethernet/enet_led0*
X199100977Y-182859919D03*
D31*
G04 #@! TO.N,/ethernet/enet_led1*
X182500977Y-162659917D03*
G04 #@! TO.N,/ethernet/clk_xi*
X190700977Y-167459917D03*
G04 #@! TO.N,/ethercat/ecat0_col*
X202100977Y-165259917D03*
G04 #@! TO.N,/ethercat/ecat0_crs*
X200737600Y-165844000D03*
G04 #@! TO.N,/ethercat/ecat1_col*
X213100977Y-157459917D03*
G04 #@! TO.N,/ethercat/ecat1_crs*
X210500977Y-157459917D03*
D32*
G04 #@! TO.N,1-WIRE_P_H*
X77400977Y-147959917D03*
G04 #@! TO.N,1-WIRE_N_H*
X79200977Y-147959917D03*
G04 #@! TO.N,VBUS1_N_H*
X196400977Y-120015958D03*
D33*
G04 #@! TO.N,VBUS2_N_H*
X207000000Y-73100000D03*
D32*
X197800000Y-127100000D03*
G04 #@! TO.N,NTC1_2_H*
X81600977Y-119959917D03*
G04 #@! TO.N,NTC1_1_H*
X74000977Y-119959917D03*
G04 #@! TO.N,BRK_RES1_H*
X81600977Y-122559917D03*
G04 #@! TO.N,BRK_MEC1_H*
X74000977Y-122559917D03*
G04 #@! TO.N,IGBT1_WL_H*
X83500977Y-127559917D03*
G04 #@! TO.N,SD_CLK_OUT1_H*
X74000977Y-137759917D03*
G04 #@! TO.N,IGBT1_WH_H*
X83500977Y-130119917D03*
G04 #@! TO.N,SD_CLK_IN1_H*
X77000977Y-140359917D03*
G04 #@! TO.N,IGBT1_VL_H*
X83500977Y-132679917D03*
G04 #@! TO.N,SD1_A_H*
X77000977Y-135237000D03*
G04 #@! TO.N,IGBT1_VH_H*
X83500977Y-135239917D03*
G04 #@! TO.N,SD1_W_H*
X77000977Y-132697000D03*
G04 #@! TO.N,IGBT1_UL_H*
X83500977Y-137799917D03*
G04 #@! TO.N,SD1_V_H*
X77000977Y-130157000D03*
G04 #@! TO.N,IGBT1_UH_H*
X83500977Y-140359917D03*
G04 #@! TO.N,SD1_U_H*
X77000977Y-127559917D03*
G04 #@! TO.N,FREE_OUT1_2_H*
X81600977Y-117359917D03*
G04 #@! TO.N,FREE_OUT1_1_H*
X74000977Y-117359917D03*
G04 #@! TO.N,FREE_OUT2_1_H*
X91400977Y-117359917D03*
G04 #@! TO.N,FREE_OUT2_2_H*
X98800977Y-117359917D03*
G04 #@! TO.N,SD2_U_H*
X91200977Y-127559917D03*
G04 #@! TO.N,IGBT2_UH_H*
X98300977Y-140313300D03*
G04 #@! TO.N,SD2_V_H*
X91200977Y-130159917D03*
G04 #@! TO.N,IGBT2_UL_H*
X98300977Y-137769371D03*
G04 #@! TO.N,SD2_W_H*
X91200977Y-132559917D03*
G04 #@! TO.N,IGBT2_VH_H*
X98300977Y-135225445D03*
G04 #@! TO.N,SD2_A_H*
X91200977Y-135237000D03*
G04 #@! TO.N,IGBT2_VL_H*
X98300977Y-132681519D03*
G04 #@! TO.N,SD_CLK_IN2_H*
X91200977Y-140359917D03*
G04 #@! TO.N,IGBT2_WH_H*
X98300977Y-130137593D03*
G04 #@! TO.N,SD_CLK_OUT2_H*
X91600977Y-137759917D03*
G04 #@! TO.N,IGBT2_WL_H*
X98300977Y-127593667D03*
G04 #@! TO.N,BRK_MEC2_H*
X91400977Y-122559917D03*
G04 #@! TO.N,BRK_RES2_H*
X98800977Y-122559917D03*
G04 #@! TO.N,NTC2_1_H*
X90800977Y-119959917D03*
G04 #@! TO.N,NTC2_2_H*
X99000977Y-119959917D03*
D31*
G04 #@! TO.N,NTC2_1_N*
X137710366Y-134850532D03*
X123400000Y-108700000D03*
X136900977Y-113259917D03*
G04 #@! TO.N,NTC2_1_P*
X134500977Y-109259919D03*
X123500977Y-104259919D03*
G04 #@! TO.N,NTC2_2_N*
X137700979Y-135659918D03*
X122157663Y-101543853D03*
X136900977Y-111659919D03*
X124200000Y-109500000D03*
G04 #@! TO.N,NTC2_2_P*
X136900978Y-135659919D03*
G04 #@! TO.N,NTC1_1_N*
X133700977Y-110059919D03*
D34*
X121000000Y-105100000D03*
D32*
X81300977Y-101459919D03*
D31*
G04 #@! TO.N,NTC1_1_P*
X134157663Y-113543853D03*
D34*
X118200000Y-105100000D03*
D32*
X82300977Y-100859919D03*
D31*
G04 #@! TO.N,NTC1_2_N*
X136100978Y-134859919D03*
G04 #@! TO.N,NTC1_2_P*
X132500977Y-101259919D03*
X120900977Y-103259919D03*
G04 #@! TO.N,VBUS1_N*
X125700977Y-119259919D03*
D32*
X177300977Y-118459917D03*
D31*
X127388998Y-138859917D03*
G04 #@! TO.N,VBUS1_P*
X136900977Y-138059919D03*
D32*
X177700977Y-116459917D03*
D31*
X132700977Y-115659917D03*
G04 #@! TO.N,VBUS2_N*
X133300977Y-136459919D03*
D32*
X174200977Y-122159919D03*
D31*
G04 #@! TO.N,VBUS2_P*
X134500977Y-136459917D03*
D32*
X177400000Y-121500000D03*
D31*
G04 #@! TO.N,SD1_A*
X127300977Y-162459917D03*
X127388998Y-148459917D03*
G04 #@! TO.N,FREE_OUT1_1*
X127388998Y-149259919D03*
X124100977Y-118459917D03*
X122269001Y-149254217D03*
G04 #@! TO.N,FREE_OUT1_2*
X136100977Y-146859919D03*
X124529153Y-117143853D03*
X127388998Y-150431409D03*
G04 #@! TO.N,SD1_V*
X135300981Y-146059917D03*
D32*
X90520977Y-166259919D03*
D31*
G04 #@! TO.N,BRK_MEC1*
X135300978Y-143659919D03*
G04 #@! TO.N,SD1_W*
X136100979Y-146059918D03*
D32*
X89220977Y-166259919D03*
D31*
G04 #@! TO.N,BRK_MEC2*
X136100977Y-143659920D03*
X120500977Y-123259919D03*
G04 #@! TO.N,SD2_W*
X136500977Y-155859917D03*
X122890977Y-157139919D03*
G04 #@! TO.N,SD2_V*
X135100977Y-155259917D03*
X121460977Y-156329919D03*
G04 #@! TO.N,SD2_U*
X137700980Y-146859920D03*
X122486712Y-162645652D03*
G04 #@! TO.N,SD2_A*
X138500980Y-146059918D03*
D32*
X100270977Y-166289919D03*
D31*
G04 #@! TO.N,SD_CLK_IN2*
X138100977Y-158659917D03*
X123530977Y-158659919D03*
G04 #@! TO.N,IGBT2_VL*
X143300980Y-134859919D03*
X143909434Y-129240763D03*
X124100977Y-131059917D03*
G04 #@! TO.N,IGBT2_VH*
X143300977Y-123659917D03*
X120710977Y-133679919D03*
G04 #@! TO.N,FREE_OUT2_1*
X148500977Y-156859919D03*
X121300977Y-121059917D03*
X149300977Y-118659917D03*
G04 #@! TO.N,FREE_OUT2_2*
X127388998Y-147659917D03*
X120900977Y-119259919D03*
X144824023Y-147736874D03*
G04 #@! TO.N,SD_CLK_IN1*
X145700977Y-134059919D03*
X122100977Y-134659917D03*
X123008677Y-170440677D03*
D32*
G04 #@! TO.N,SD_CLK_OUT*
X85500977Y-166059917D03*
X97720977Y-166319919D03*
D31*
X145300977Y-124859917D03*
X126072467Y-125059917D03*
G04 #@! TO.N,IGBT1_UL*
X146500979Y-138859919D03*
X120700977Y-136259917D03*
G04 #@! TO.N,IGBT1_WL*
X146500978Y-138059919D03*
X121605698Y-130859919D03*
X145300977Y-125659917D03*
G04 #@! TO.N,BRK_RES2*
X146700977Y-122259917D03*
X123830977Y-122449919D03*
G04 #@! TO.N,1WIRE_OUT*
X147187201Y-143805607D03*
D32*
X78310977Y-166209919D03*
D31*
G04 #@! TO.N,IGBT1_UH*
X147300977Y-138859916D03*
X121240977Y-137689919D03*
G04 #@! TO.N,IGBT1_WH*
X147300977Y-138059920D03*
X128300977Y-136659917D03*
G04 #@! TO.N,BRK_RES1*
X148142461Y-125688429D03*
X122100977Y-122059917D03*
G04 #@! TO.N,IGBT2_WL*
X124100977Y-128859917D03*
X147500977Y-126859917D03*
G04 #@! TO.N,1WIRE_EN*
X148100977Y-143659919D03*
D32*
X76530977Y-166019919D03*
D31*
G04 #@! TO.N,IGBT1_VL*
X126129487Y-122056725D03*
X125900977Y-132459917D03*
X156806450Y-127493795D03*
G04 #@! TO.N,IGBT2_UL*
X121300977Y-135614900D03*
X150500977Y-137659919D03*
G04 #@! TO.N,IGBT2_WH*
X149300977Y-126459917D03*
X124100977Y-129859917D03*
G04 #@! TO.N,1WIRE_IN*
X153852942Y-144754549D03*
D32*
X74720977Y-166289919D03*
D31*
X153100977Y-162459919D03*
G04 #@! TO.N,IGBT1_VH*
X125100977Y-120659917D03*
X157700977Y-127659917D03*
X125300977Y-133059917D03*
G04 #@! TO.N,IGBT2_UH*
X149300977Y-137659919D03*
X122300977Y-136059917D03*
D32*
G04 #@! TO.N,/endat/ENDAT1_DATA_H_N*
X145873200Y-181659919D03*
G04 #@! TO.N,/step_dir/DIR1_A_P_H*
X74900977Y-181459919D03*
G04 #@! TO.N,/qep/QEP1_A_N_H*
X90474990Y-194059919D03*
G04 #@! TO.N,/qep/QEP1_I_N_H*
X98423746Y-181359929D03*
G04 #@! TO.N,/qep/QEP1_S_P_H*
X92278120Y-181384877D03*
G04 #@! TO.N,/qep/QEP2_S_N_H*
X110703474Y-185559929D03*
G04 #@! TO.N,/qep/QEP1_S_N_H*
X90900977Y-181459919D03*
G04 #@! TO.N,/qep/QEP2_S_H*
X107113200Y-181338000D03*
G04 #@! TO.N,/qep/QEP2_I_H*
X109907200Y-182214610D03*
G04 #@! TO.N,/qep/QEP2_B_H*
X108600977Y-188959917D03*
G04 #@! TO.N,/qep/QEP2_A_H*
X105030700Y-185809907D03*
G04 #@! TO.N,/qep/QEP1_S_H*
X84671410Y-182075898D03*
G04 #@! TO.N,/qep/QEP1_I_H*
X86099472Y-184000528D03*
G04 #@! TO.N,/qep/QEP1_B_H*
X96081528Y-185184990D03*
G04 #@! TO.N,/qep/QEP1_A_H*
X92951010Y-185494058D03*
D31*
G04 #@! TO.N,/ethercat/ecat0_bias*
X206557663Y-172343853D03*
G04 #@! TO.N,/ethercat/ecat1_bias*
X209659443Y-173189923D03*
D32*
G04 #@! TO.N,/can rs485/CAN_N_H*
X171700977Y-188859919D03*
G04 #@! TO.N,/can rs485/CAN_P_H*
X167400000Y-189100000D03*
D31*
G04 #@! TO.N,/uc_adc/ADC_REFH*
X134900977Y-132059918D03*
X135310365Y-136450534D03*
X137300977Y-131659918D03*
G04 #@! TO.N,1V2uC*
X144100977Y-144459917D03*
X137700975Y-143659918D03*
X144900978Y-139659918D03*
X142510366Y-144450531D03*
X144900979Y-141259916D03*
X141300979Y-137259920D03*
X137700979Y-141259918D03*
D32*
X149300977Y-133259917D03*
D33*
X144500977Y-124059917D03*
D32*
G04 #@! TO.N,/endat/ENDAT1_MOSI_H*
X145900977Y-188459919D03*
G04 #@! TO.N,Net-(D1402-Pad1)*
X118100977Y-146289300D03*
G04 #@! TO.N,Net-(D1401-Pad1)*
X118100977Y-144181100D03*
D31*
G04 #@! TO.N,3V3uC*
X137700979Y-142059920D03*
X144900977Y-142859920D03*
X139310365Y-144450529D03*
X140900979Y-144459919D03*
X144900978Y-138059919D03*
X143300980Y-137259920D03*
X137700980Y-139659917D03*
X144900978Y-145259918D03*
X144900979Y-140459917D03*
X140100981Y-137259920D03*
X149300977Y-140059917D03*
X147700978Y-132859917D03*
X139700978Y-132859919D03*
X132900977Y-139259917D03*
D34*
X154500977Y-151059917D03*
X158700977Y-151059917D03*
D32*
X157100977Y-135659917D03*
D34*
X134700977Y-149459917D03*
D30*
X140868038Y-124292856D03*
D31*
X143300977Y-146059917D03*
D32*
X149300977Y-147659917D03*
D33*
G04 #@! TO.N,5VP*
X90171400Y-142857000D03*
X87844670Y-151955873D03*
D32*
X99952038Y-154379898D03*
D33*
X90500977Y-114243900D03*
X81200977Y-114917000D03*
X99400977Y-113659919D03*
D32*
X103700977Y-142161040D03*
X103800977Y-131759917D03*
X103800977Y-126859919D03*
X103800977Y-136959917D03*
D33*
X110200977Y-127959917D03*
D32*
X109000977Y-140959917D03*
X108800977Y-114359917D03*
D30*
X73000000Y-143100000D03*
D33*
X72400977Y-113959919D03*
X93900977Y-155659917D03*
X106033600Y-155758400D03*
D32*
X89400977Y-123559917D03*
D33*
G04 #@! TO.N,GNDP*
X81205200Y-153931400D03*
X72594600Y-153404611D03*
X78200977Y-124959917D03*
X95600977Y-155759917D03*
D32*
X95800977Y-152432800D03*
D33*
X86818600Y-115450400D03*
D32*
X107100977Y-142247400D03*
X107385764Y-134359917D03*
X107000977Y-131759917D03*
X107400977Y-129159917D03*
X107400977Y-120829325D03*
X107500977Y-118659917D03*
X107000977Y-126559917D03*
X107000977Y-112959917D03*
X107300977Y-139633484D03*
D33*
X98600977Y-124559917D03*
D32*
X107000977Y-136959917D03*
X107400977Y-123959917D03*
X107431537Y-115559917D03*
D33*
X86800977Y-124959917D03*
X88400977Y-124959917D03*
X91657300Y-150559917D03*
D32*
X83600977Y-151962900D03*
X96100977Y-117459919D03*
D33*
G04 #@! TO.N,5VI*
X105487600Y-184589200D03*
X94733740Y-184439336D03*
X149175600Y-185681400D03*
X155195400Y-185757600D03*
X159996000Y-185808400D03*
X142035472Y-186200410D03*
X72400000Y-182100000D03*
X89000000Y-181100000D03*
X135563243Y-187132361D03*
D30*
X176600977Y-185159917D03*
D33*
G04 #@! TO.N,GNDI*
X80748000Y-196324000D03*
X98528000Y-189059000D03*
X94346010Y-182389325D03*
X86000000Y-181100000D03*
X77430000Y-182476210D03*
X107800000Y-196300000D03*
X137800000Y-181100000D03*
D32*
X147430704Y-196523395D03*
D33*
X122900977Y-195459917D03*
X113900977Y-196259917D03*
D32*
X147400977Y-199159917D03*
D33*
X123000977Y-199559917D03*
X107800977Y-199959917D03*
X81000977Y-198959917D03*
X113365974Y-189009927D03*
X147061850Y-184550400D03*
X115488679Y-200109907D03*
X81300977Y-188859919D03*
X161900977Y-183459919D03*
X109333151Y-183559909D03*
D30*
G04 #@! TO.N,GNDB*
X196600977Y-137359917D03*
G04 #@! TO.N,5VB*
X203000000Y-99100000D03*
X200200977Y-137359917D03*
G04 #@! TD*
D36*
G04 #@! TO.N,GND*
X140100976Y-139659918D02*
X142500977Y-139659918D01*
X142500975Y-140459918D02*
X142500977Y-140459916D01*
X140100977Y-140459918D02*
X142500975Y-140459918D01*
X140100980Y-141259918D02*
X142500977Y-141259918D01*
X140227188Y-142059919D02*
X140100976Y-141933707D01*
X142500977Y-142059919D02*
X140227188Y-142059919D01*
X140100976Y-142059919D02*
X140100976Y-139659918D01*
X140900978Y-139659919D02*
X140900978Y-142059920D01*
X141700979Y-142059915D02*
X141700977Y-142059917D01*
X141700979Y-139659919D02*
X141700979Y-142059915D01*
X142500977Y-139659918D02*
X142500977Y-142059919D01*
D37*
G04 #@! TO.N,ECAT0_RX_CLK*
X191700977Y-166659917D02*
X190900977Y-165859917D01*
X166900977Y-166459917D02*
X158100977Y-166459917D01*
X167500977Y-165859917D02*
X166900977Y-166459917D01*
X190900977Y-165859917D02*
X167500977Y-165859917D01*
X199796135Y-166712673D02*
X199743379Y-166659917D01*
X199743379Y-166659917D02*
X191700977Y-166659917D01*
D38*
G04 #@! TO.N,ECAT_MDIO*
X197700977Y-170859919D02*
X196100977Y-170859919D01*
X204300977Y-172059917D02*
X198900975Y-172059917D01*
X198900975Y-172059917D02*
X197700977Y-170859919D01*
X207700977Y-171459917D02*
X204900977Y-171459917D01*
X204900977Y-171459917D02*
X204300977Y-172059917D01*
D37*
G04 #@! TO.N,ECAT0_RX_ER*
X159300977Y-159859917D02*
X159100977Y-159659917D01*
X183900977Y-159859917D02*
X159300977Y-159859917D01*
X197500977Y-160659917D02*
X184700977Y-160659917D01*
X198300977Y-160059917D02*
X198100977Y-160059917D01*
X184700977Y-160659917D02*
X183900977Y-159859917D01*
X198100977Y-160059917D02*
X197500977Y-160659917D01*
G04 #@! TO.N,ECAT0_TX_D2*
X157500977Y-162459917D02*
X157500977Y-163059917D01*
X159500977Y-160459917D02*
X157500977Y-162459917D01*
X183700977Y-160459917D02*
X159500977Y-160459917D01*
X184300977Y-161059917D02*
X183700977Y-160459917D01*
X207100977Y-170258804D02*
X207100977Y-165059917D01*
X200500977Y-161059917D02*
X184300977Y-161059917D01*
X206480671Y-170879110D02*
X207100977Y-170258804D01*
X207100977Y-165059917D02*
X203900977Y-161859917D01*
X201300977Y-161859917D02*
X200500977Y-161059917D01*
X203900977Y-161859917D02*
X201300977Y-161859917D01*
G04 #@! TO.N,ECAT0_TX_CLK*
X203584913Y-167543853D02*
X205729153Y-167543853D01*
X197100977Y-164859917D02*
X200900977Y-164859917D01*
X164300977Y-163659917D02*
X165300977Y-162659917D01*
X164300977Y-165059917D02*
X164300977Y-163659917D01*
X165300977Y-162659917D02*
X169900977Y-162659917D01*
X200900977Y-164859917D02*
X203584913Y-167543853D01*
X183500977Y-162259917D02*
X194500977Y-162259917D01*
X169900977Y-162659917D02*
X170900977Y-161659917D01*
X170900977Y-161659917D02*
X182900977Y-161659917D01*
X194500977Y-162259917D02*
X197100977Y-164859917D01*
X182900977Y-161659917D02*
X183500977Y-162259917D01*
G04 #@! TO.N,ECAT_EEPROM_SDA*
X149176400Y-168936120D02*
X153876865Y-168936120D01*
X148071687Y-167831407D02*
X149176400Y-168936120D01*
X130300977Y-168859917D02*
X131329487Y-167831407D01*
X153876865Y-168936120D02*
X154896208Y-167916777D01*
X131329487Y-167831407D02*
X148071687Y-167831407D01*
D38*
X126900975Y-168859919D02*
X125300977Y-168859919D01*
X126900977Y-168859917D02*
X126900975Y-168859919D01*
D37*
X126900977Y-168859917D02*
X130300977Y-168859917D01*
G04 #@! TO.N,LCD_GPIO0*
X157700977Y-132059917D02*
X157700975Y-132059919D01*
X158100977Y-132059917D02*
X157700977Y-132059917D01*
X158700977Y-132659917D02*
X158100977Y-132059917D01*
X157700975Y-132059919D02*
X152900977Y-132059919D01*
X164900977Y-133259917D02*
X164300977Y-132659917D01*
X164300977Y-132659917D02*
X158700977Y-132659917D01*
G04 #@! TO.N,ECAT_RST*
X203472073Y-172620064D02*
X203300977Y-172620064D01*
X203300977Y-172620064D02*
X204461124Y-172620064D01*
X203300977Y-172620064D02*
X198500977Y-172620064D01*
D38*
X197900975Y-172059917D02*
X196700977Y-172059917D01*
X207700977Y-172459917D02*
X207100977Y-173059917D01*
X207100977Y-173059917D02*
X204900977Y-173059917D01*
X204900977Y-173059917D02*
X204461124Y-172620064D01*
X204461124Y-172620064D02*
X198500977Y-172620064D01*
X198461122Y-172620064D02*
X197900975Y-172059917D01*
X198500977Y-172620064D02*
X198461122Y-172620064D01*
D37*
G04 #@! TO.N,ECAT_EEPROM_SCL*
X128900977Y-171259917D02*
X126500977Y-171259917D01*
X124979487Y-172781407D02*
X124979487Y-175503099D01*
X126500977Y-171259917D02*
X124979487Y-172781407D01*
X146100977Y-169259917D02*
X132500977Y-169259917D01*
X132100977Y-169659917D02*
X132100977Y-170859917D01*
X132100977Y-170859917D02*
X131300977Y-171659917D01*
X146900977Y-168459917D02*
X146100977Y-169259917D01*
X132500977Y-169259917D02*
X132100977Y-169659917D01*
X129300977Y-171659917D02*
X128900977Y-171259917D01*
X131300977Y-171659917D02*
X129300977Y-171659917D01*
G04 #@! TO.N,ENDAT1_N_SKEW_CLK*
X145500977Y-172459917D02*
X143300977Y-172459917D01*
X153300977Y-171659917D02*
X152100977Y-170459917D01*
X153300977Y-171859917D02*
X153300977Y-171659917D01*
X152100977Y-170459917D02*
X146700977Y-170459917D01*
X146700977Y-170459917D02*
X146129478Y-171031416D01*
X146129478Y-171031416D02*
X146129478Y-171831416D01*
X146129478Y-171831416D02*
X145500977Y-172459917D01*
G04 #@! TO.N,ECAT0_RX_D3*
X163900977Y-162059917D02*
X163700977Y-161859917D01*
X170100977Y-161059917D02*
X169100977Y-162059917D01*
X169100977Y-162059917D02*
X163900977Y-162059917D01*
X202700977Y-164059917D02*
X197100977Y-164059917D01*
X197100977Y-164059917D02*
X194700977Y-161659917D01*
X205100977Y-166459917D02*
X202700977Y-164059917D01*
X194700977Y-161659917D02*
X183900977Y-161659917D01*
X183900977Y-161659917D02*
X183300977Y-161059917D01*
X183300977Y-161059917D02*
X170100977Y-161059917D01*
G04 #@! TO.N,QEP1_A*
X147377830Y-166459919D02*
X147700977Y-166459919D01*
X90900977Y-170259917D02*
X119700977Y-170259917D01*
X88500977Y-172659917D02*
X90900977Y-170259917D01*
X133300979Y-166459919D02*
X147377830Y-166459919D01*
X119700977Y-170259917D02*
X123700977Y-166259917D01*
X123700977Y-166259917D02*
X133100977Y-166259917D01*
X133100977Y-166259917D02*
X133300979Y-166459919D01*
G04 #@! TO.N,QEP1_B*
X143661857Y-128705045D02*
X143890356Y-128476546D01*
X143306985Y-129059917D02*
X143661857Y-128705045D01*
X130986173Y-129491336D02*
X131417592Y-129059917D01*
X131417592Y-129059917D02*
X143306985Y-129059917D01*
X129900977Y-165659917D02*
X131100977Y-165659917D01*
X123700977Y-165659917D02*
X129900977Y-165659917D01*
X119500977Y-169859917D02*
X123700977Y-165659917D01*
X87300977Y-172659917D02*
X90100977Y-169859917D01*
X90100977Y-169859917D02*
X119500977Y-169859917D01*
G04 #@! TO.N,FLASH_SPI_MISO*
X127100977Y-126459917D02*
X125100977Y-126459917D01*
X141900977Y-122859917D02*
X140300977Y-122859917D01*
X129900977Y-123659917D02*
X127100977Y-126459917D01*
X139500977Y-123659917D02*
X129900977Y-123659917D01*
X140300977Y-122859917D02*
X139500977Y-123659917D01*
X142300979Y-124059921D02*
X142700977Y-124459919D01*
X142300979Y-123259919D02*
X142300979Y-124059921D01*
X142300979Y-123259919D02*
X141900977Y-122859917D01*
G04 #@! TO.N,FLASH_SPI_CS*
X130500977Y-124259917D02*
X130620222Y-124140672D01*
X139500975Y-124659917D02*
X140700977Y-125859919D01*
X130620222Y-124140672D02*
X132381732Y-124140672D01*
X132381732Y-124140672D02*
X132900977Y-124659917D01*
X132900977Y-124659917D02*
X139500975Y-124659917D01*
X140700977Y-125859919D02*
X140900977Y-125859919D01*
G04 #@! TO.N,QEP1_S*
X142300977Y-158059917D02*
X121613025Y-158059917D01*
X121613025Y-158059917D02*
X121270358Y-157717250D01*
X121270358Y-157717250D02*
X121041859Y-157488751D01*
G04 #@! TO.N,QEP2_I*
X101929476Y-172231418D02*
X101700977Y-172459917D01*
X102300977Y-171859917D02*
X101929476Y-172231418D01*
X124272840Y-171859917D02*
X102300977Y-171859917D01*
X131326860Y-170372024D02*
X125760733Y-170372024D01*
X125760733Y-170372024D02*
X124272840Y-171859917D01*
X140300977Y-126859919D02*
X140300977Y-127259919D01*
X139500975Y-126059917D02*
X140300977Y-126859919D01*
X132700977Y-126059917D02*
X139500975Y-126059917D01*
X131596256Y-125495640D02*
X132136700Y-125495640D01*
X132136700Y-125495640D02*
X132700977Y-126059917D01*
G04 #@! TO.N,QEP2_B*
X103100977Y-173459917D02*
X103100977Y-172659917D01*
X126100977Y-170859917D02*
X124700977Y-172259917D01*
X129700977Y-170859917D02*
X126100977Y-170859917D01*
X124700977Y-172259917D02*
X108900977Y-172259917D01*
X108900977Y-172259917D02*
X106900977Y-174259917D01*
X106900977Y-174259917D02*
X103900977Y-174259917D01*
X103900977Y-174259917D02*
X103100977Y-173459917D01*
X139500975Y-125459917D02*
X132900977Y-125459917D01*
X132126442Y-124685382D02*
X131624124Y-124685382D01*
X132900977Y-125459917D02*
X132126442Y-124685382D01*
X131624124Y-124685382D02*
X131300977Y-124685382D01*
X140900977Y-126859919D02*
X139500975Y-125459917D01*
D39*
G04 #@! TO.N,QEP2_A*
X121500977Y-160859917D02*
X123110975Y-160859917D01*
X123110975Y-160859917D02*
X124040977Y-161789919D01*
X124040977Y-161789919D02*
X134060977Y-161789919D01*
X135190979Y-160659917D02*
X140900977Y-160659917D01*
X134060977Y-161789919D02*
X135190979Y-160659917D01*
D37*
G04 #@! TO.N,QEP1_I*
X86329476Y-172431418D02*
X86100977Y-172659917D01*
X89300977Y-169459917D02*
X86329476Y-172431418D01*
X119300977Y-169459917D02*
X89300977Y-169459917D01*
X123900977Y-164859917D02*
X119300977Y-169459917D01*
X131900977Y-164859917D02*
X123900977Y-164859917D01*
D39*
X132700975Y-164859917D02*
X131900977Y-164859917D01*
X141300977Y-165859919D02*
X133700975Y-165859917D01*
X133700975Y-165859917D02*
X132700975Y-164859917D01*
D37*
G04 #@! TO.N,ENDAT2_CS*
X145300977Y-170859917D02*
X145300977Y-171659917D01*
X154100977Y-170059917D02*
X146100977Y-170059917D01*
X154900977Y-172459917D02*
X154900977Y-170859917D01*
X146100977Y-170059917D02*
X145300977Y-170859917D01*
X154900977Y-170859917D02*
X154100977Y-170059917D01*
G04 #@! TO.N,QEP2_S*
X100729476Y-172231418D02*
X100500977Y-172459917D01*
X123891598Y-171459917D02*
X101500977Y-171459917D01*
X101500977Y-171459917D02*
X100729476Y-172231418D01*
X131300977Y-169459917D02*
X125891598Y-169459917D01*
X125891598Y-169459917D02*
X123891598Y-171459917D01*
X131596256Y-126240850D02*
X132215323Y-126859917D01*
X138458573Y-126859917D02*
X138479775Y-126881119D01*
X132215323Y-126859917D02*
X138458573Y-126859917D01*
G04 #@! TO.N,ENET_PWDN*
X140100980Y-134800536D02*
X140100980Y-135659918D01*
X141900977Y-133859917D02*
X141041599Y-133859917D01*
X158700977Y-133259917D02*
X158300977Y-133659917D01*
X141041599Y-133859917D02*
X140100980Y-134800536D01*
X158300977Y-133659917D02*
X152900977Y-133659917D01*
X152900977Y-133659917D02*
X151500977Y-132259917D01*
X143500977Y-132259917D02*
X141900977Y-133859917D01*
X159700977Y-133259917D02*
X158700977Y-133259917D01*
X151500977Y-132259917D02*
X143500977Y-132259917D01*
G04 #@! TO.N,ENDAT2_MISO*
X145424766Y-156383706D02*
X156377188Y-156383706D01*
X156377188Y-156383706D02*
X156500977Y-156259917D01*
X141100977Y-154859917D02*
X143900977Y-154859917D01*
X143900977Y-154859917D02*
X145424766Y-156383706D01*
G04 #@! TO.N,ENET_RX_DV*
X139779124Y-134381770D02*
X139300977Y-134859917D01*
X140100977Y-134381770D02*
X139779124Y-134381770D01*
X141100977Y-133381770D02*
X140100977Y-134381770D01*
X141579124Y-133381770D02*
X141100977Y-133381770D01*
X157500977Y-133059917D02*
X157300977Y-133259917D01*
X157900977Y-133059917D02*
X157500977Y-133059917D01*
X157300977Y-133259917D02*
X153100977Y-133259917D01*
X153100977Y-133259917D02*
X151700977Y-131859917D01*
X151700977Y-131859917D02*
X143100977Y-131859917D01*
X143100977Y-131859917D02*
X141579124Y-133381770D01*
G04 #@! TO.N,ENET_RX_CLK*
X139860685Y-133840831D02*
X140100977Y-133840831D01*
X139320063Y-133840831D02*
X140100977Y-133840831D01*
X138777190Y-134383704D02*
X139320063Y-133840831D01*
X138777190Y-135136130D02*
X138777190Y-134383704D01*
X139300978Y-135659917D02*
X139300977Y-135659917D01*
X139300977Y-135659917D02*
X138777190Y-135136130D01*
X158729487Y-131459917D02*
X159300977Y-132031407D01*
X142700977Y-131459917D02*
X158729487Y-131459917D01*
X141169744Y-132991150D02*
X142700977Y-131459917D01*
X141100977Y-132991150D02*
X141169744Y-132991150D01*
X140100977Y-133840831D02*
X140251296Y-133840831D01*
X140251296Y-133840831D02*
X141100977Y-132991150D01*
G04 #@! TO.N,ENET_RX_D0*
X157100977Y-130259917D02*
X159900977Y-127459917D01*
X141900977Y-130259917D02*
X157100977Y-130259917D01*
X140500977Y-131659917D02*
X141900977Y-130259917D01*
X159900977Y-127459917D02*
X161100977Y-127459917D01*
X138900977Y-131059917D02*
X139500977Y-131659917D01*
X139500977Y-131659917D02*
X140500977Y-131659917D01*
G04 #@! TO.N,ENET_RX_ER*
X138500980Y-135859920D02*
X138500980Y-136459920D01*
X138300977Y-135659917D02*
X138500980Y-135859920D01*
X142500977Y-131059917D02*
X139996274Y-133564620D01*
X139996274Y-133564620D02*
X138796274Y-133564620D01*
X158700977Y-131059917D02*
X142500977Y-131059917D01*
X158900977Y-130859917D02*
X158700977Y-131059917D01*
X138796274Y-133564620D02*
X138300977Y-134059917D01*
X138300977Y-134059917D02*
X138300977Y-135659917D01*
G04 #@! TO.N,RS485_EN*
X170000977Y-171759917D02*
X170000977Y-175959917D01*
X167900977Y-169659917D02*
X170000977Y-171759917D01*
X137100977Y-169659917D02*
X167900977Y-169659917D01*
X136300977Y-171859917D02*
X136300977Y-170459917D01*
X136300977Y-170459917D02*
X137100977Y-169659917D01*
G04 #@! TO.N,ECAT1_TX_EN*
X133813423Y-152372363D02*
X133757663Y-152372363D01*
X191300977Y-153259917D02*
X134700977Y-153259917D01*
X215072478Y-154488416D02*
X192529476Y-154488416D01*
X192529476Y-154488416D02*
X191300977Y-153259917D01*
X134700977Y-153259917D02*
X133813423Y-152372363D01*
X215200977Y-153959917D02*
X215072478Y-154488416D01*
G04 #@! TO.N,CAN_RX*
X137300977Y-143059917D02*
X136300978Y-142059918D01*
X138900977Y-143059917D02*
X137300977Y-143059917D01*
X139300977Y-143459917D02*
X138900977Y-143059917D01*
X143100977Y-143459917D02*
X139300977Y-143459917D01*
X136300978Y-142059918D02*
X136100979Y-142059918D01*
X148700979Y-142459919D02*
X144100975Y-142459919D01*
X161100977Y-151659917D02*
X159500977Y-150059917D01*
X168100977Y-151659917D02*
X161100977Y-151659917D01*
X153100977Y-150059917D02*
X150900977Y-147859917D01*
X159500977Y-150059917D02*
X153100977Y-150059917D01*
X150900977Y-147859917D02*
X150900977Y-144659917D01*
X144100975Y-142459919D02*
X143100977Y-143459917D01*
X150900977Y-144659917D02*
X148700979Y-142459919D01*
G04 #@! TO.N,ECAT1_RX_DV*
X199500977Y-153859917D02*
X210700977Y-153859917D01*
X199100977Y-153459917D02*
X199500977Y-153859917D01*
X194500977Y-153459917D02*
X199100977Y-153459917D01*
X193700977Y-152659917D02*
X194500977Y-153459917D01*
X138100975Y-145259919D02*
X144100979Y-145259919D01*
X137700977Y-145659917D02*
X138100975Y-145259919D01*
X137700977Y-146059919D02*
X137700977Y-145659917D01*
X136900977Y-146859917D02*
X137129478Y-146631418D01*
X137129478Y-146631418D02*
X137700977Y-146059919D01*
X144100979Y-145259919D02*
X144805679Y-145964619D01*
X144805679Y-145964619D02*
X145596275Y-145964619D01*
X146100977Y-145459917D02*
X146100977Y-143859917D01*
X150300977Y-144859917D02*
X150300977Y-148459917D01*
X148700979Y-143259919D02*
X150300977Y-144859917D01*
X146700977Y-143259919D02*
X148700979Y-143259919D01*
X146100979Y-143859917D02*
X146700977Y-143259919D01*
X146100977Y-143859917D02*
X146100979Y-143859917D01*
X145596275Y-145964619D02*
X146100977Y-145459917D01*
X150300977Y-148459917D02*
X154500977Y-152659917D01*
X154500977Y-152659917D02*
X193700977Y-152659917D01*
G04 #@! TO.N,ECAT1_TX_CLK*
X214947253Y-156688418D02*
X215804264Y-155831407D01*
X164472476Y-156688418D02*
X214947253Y-156688418D01*
X162900977Y-158259917D02*
X164472476Y-156688418D01*
X133348557Y-157107497D02*
X140853397Y-157107497D01*
X132700977Y-156459917D02*
X133348557Y-157107497D01*
X140853397Y-157107497D02*
X141100977Y-156859917D01*
X141100977Y-156859917D02*
X144300977Y-156859917D01*
X144300977Y-156859917D02*
X145700977Y-158259917D01*
X145700977Y-158259917D02*
X162900977Y-158259917D01*
G04 #@! TO.N,CAN_TX*
X135300977Y-156659917D02*
X135100977Y-156459917D01*
X140500977Y-156659917D02*
X135300977Y-156659917D01*
X170700977Y-155859917D02*
X164100977Y-155859917D01*
X171100977Y-156259917D02*
X170700977Y-155859917D01*
X164100977Y-155859917D02*
X162300977Y-157659917D01*
X162300977Y-157659917D02*
X145900977Y-157659917D01*
X145900977Y-157659917D02*
X144500977Y-156259917D01*
X140900977Y-156259917D02*
X140500977Y-156659917D01*
X144500977Y-156259917D02*
X140900977Y-156259917D01*
G04 #@! TO.N,ECAT1_TX_D3*
X135500977Y-152859917D02*
X153100977Y-152859917D01*
X135100977Y-152459917D02*
X135500977Y-152859917D01*
G04 #@! TO.N,ECAT1_TX_D0*
X144024768Y-157383708D02*
X141577186Y-157383708D01*
X215450363Y-158259917D02*
X209900977Y-158259917D01*
X163500977Y-158859917D02*
X145500977Y-158859917D01*
X126422986Y-157293774D02*
X126194487Y-157065275D01*
X165100977Y-157259917D02*
X163500977Y-158859917D01*
X126789129Y-157659917D02*
X126422986Y-157293774D01*
X141300977Y-157659917D02*
X126789129Y-157659917D01*
X145500977Y-158859917D02*
X144024768Y-157383708D01*
X209900977Y-158259917D02*
X208900977Y-157259917D01*
X217163849Y-156546431D02*
X215450363Y-158259917D01*
X141577186Y-157383708D02*
X141300977Y-157659917D01*
X208900977Y-157259917D02*
X165100977Y-157259917D01*
G04 #@! TO.N,/uc_clk_dbg/MCU_TRSTn*
X126798078Y-108700000D02*
X126129487Y-108031409D01*
X144900977Y-108459919D02*
X144660896Y-108700000D01*
X144660896Y-108700000D02*
X126798078Y-108700000D01*
G04 #@! TO.N,/uc_clk_dbg/MCU_TCK*
X128333739Y-106033739D02*
X127394569Y-106033739D01*
X127394569Y-106033739D02*
X127071422Y-106033739D01*
X136900977Y-106831409D02*
X136577830Y-106831409D01*
X129800000Y-107500000D02*
X128333739Y-106033739D01*
X135909239Y-107500000D02*
X129800000Y-107500000D01*
X136577830Y-106831409D02*
X135909239Y-107500000D01*
G04 #@! TO.N,/uc_clk_dbg/MCU_TDI*
X128100977Y-107259919D02*
X128741058Y-107900000D01*
X137460896Y-107900000D02*
X138900977Y-106459919D01*
X128741058Y-107900000D02*
X137460896Y-107900000D01*
G04 #@! TO.N,/uc_clk_dbg/MCU_TMS*
X141300977Y-106459919D02*
X139460896Y-108300000D01*
X139460896Y-108300000D02*
X127482084Y-108300000D01*
X126700966Y-107518882D02*
X126472467Y-107290383D01*
X127482084Y-108300000D02*
X126700966Y-107518882D01*
D38*
G04 #@! TO.N,/uc_clk_dbg/MCU_TDO*
X125800000Y-107100000D02*
X125000000Y-107900000D01*
X125000000Y-107900000D02*
X124600000Y-107900000D01*
X125800000Y-105900000D02*
X125800000Y-107100000D01*
X127140081Y-104559919D02*
X125800000Y-105900000D01*
X146900977Y-106259919D02*
X145200977Y-104559919D01*
X145200977Y-104559919D02*
X127140081Y-104559919D01*
D37*
G04 #@! TO.N,LCD_AUDIO*
X135652300Y-117143853D02*
X135329153Y-117143853D01*
X165757663Y-117143853D02*
X135652300Y-117143853D01*
X132784913Y-117143853D02*
X128500979Y-112859919D01*
X135329153Y-117143853D02*
X132784913Y-117143853D01*
X128500979Y-112859919D02*
X124759919Y-112859919D01*
X124759919Y-112859919D02*
X122200000Y-110300000D01*
X122200000Y-110300000D02*
X122200000Y-108700000D01*
X122200000Y-108700000D02*
X119400000Y-105900000D01*
X119400000Y-105900000D02*
X117300977Y-105900000D01*
D39*
X115141058Y-102700000D02*
X110060896Y-102700000D01*
X117100977Y-104659919D02*
X115141058Y-102700000D01*
X117100977Y-105700000D02*
X117100977Y-104659919D01*
X110060896Y-102700000D02*
X109700977Y-103059919D01*
X117300977Y-105900000D02*
X117100977Y-105700000D01*
D37*
G04 #@! TO.N,FAN_RPM1*
X121995614Y-155259917D02*
X121672467Y-155259917D01*
X129900977Y-155259917D02*
X121995614Y-155259917D01*
X130500977Y-154659917D02*
X129900977Y-155259917D01*
X137300977Y-154659917D02*
X130500977Y-154659917D01*
X141100977Y-155659917D02*
X138300977Y-155659917D01*
X138300977Y-155659917D02*
X137300977Y-154659917D01*
G04 #@! TO.N,IGBT_ALARM1*
X141100977Y-153859917D02*
X134500977Y-153859917D01*
X134100977Y-153459917D02*
X123900977Y-153459917D01*
X134500977Y-153859917D02*
X134100977Y-153459917D01*
G04 #@! TO.N,IGBT_ALARM2*
X138500978Y-146859919D02*
X138335161Y-146859919D01*
G04 #@! TO.N,DIR2*
X98129476Y-172231418D02*
X97900977Y-172459917D01*
X123700977Y-166859917D02*
X119900977Y-170659917D01*
X119900977Y-170659917D02*
X99700977Y-170659917D01*
X151672467Y-167172363D02*
X151360021Y-166859917D01*
X99700977Y-170659917D02*
X98129476Y-172231418D01*
X151360021Y-166859917D02*
X123700977Y-166859917D01*
G04 #@! TO.N,STEP2*
X99329476Y-172231418D02*
X99100977Y-172459917D01*
X120300977Y-171059917D02*
X100500977Y-171059917D01*
X100500977Y-171059917D02*
X99329476Y-172231418D01*
X150540184Y-167362921D02*
X123997973Y-167362921D01*
X123997973Y-167362921D02*
X120300977Y-171059917D01*
G04 #@! TO.N,STEP1*
X147700975Y-148459919D02*
X148100977Y-148459919D01*
X123100977Y-153259917D02*
X123700977Y-152659917D01*
X121900977Y-153259917D02*
X123100977Y-153259917D01*
X123700977Y-152659917D02*
X129300977Y-152659917D01*
X130300977Y-151659917D02*
X144500977Y-151659917D01*
X129300977Y-152659917D02*
X130300977Y-151659917D01*
X144500977Y-151659917D02*
X147700975Y-148459919D01*
G04 #@! TO.N,DIR1*
X85173794Y-169059917D02*
X119100977Y-169059917D01*
X82039849Y-172193862D02*
X85173794Y-169059917D01*
X119100977Y-169059917D02*
X124100977Y-164059917D01*
D39*
X148859765Y-162459919D02*
X148900977Y-162418707D01*
X146900977Y-162459919D02*
X148859765Y-162459919D01*
X130790987Y-163059919D02*
X146300977Y-163059919D01*
X124100977Y-164059917D02*
X124900975Y-163259919D01*
X124900975Y-163259919D02*
X130590987Y-163259919D01*
X130590987Y-163259919D02*
X130790987Y-163059919D01*
X146300977Y-163059919D02*
X146900977Y-162459919D01*
D37*
G04 #@! TO.N,DACB_DBG*
X136612877Y-116059917D02*
X135412879Y-114859919D01*
X146041599Y-116059917D02*
X136612877Y-116059917D01*
X147400977Y-113959919D02*
X146041599Y-116059917D01*
D38*
X109770896Y-99900000D02*
X109440977Y-100229919D01*
D37*
X132860896Y-100659919D02*
X132100977Y-99900000D01*
X133100977Y-100659919D02*
X132860896Y-100659919D01*
D38*
X132100977Y-99900000D02*
X109770896Y-99900000D01*
D37*
G04 #@! TO.N,ENET_MDCLK*
X147700977Y-134059917D02*
X153500977Y-134059917D01*
X141700978Y-134459916D02*
X141900977Y-134259917D01*
X141700978Y-134859919D02*
X141700978Y-134459916D01*
X141900977Y-134259917D02*
X142300977Y-134259917D01*
X142300977Y-134259917D02*
X143700977Y-132859917D01*
X143700977Y-132859917D02*
X146500977Y-132859917D01*
X153500977Y-134059917D02*
X159300977Y-134059917D01*
X146500977Y-132859917D02*
X147700977Y-134059917D01*
G04 #@! TO.N,ECAT_LED_ERR*
X145700978Y-148059916D02*
X145700978Y-146859920D01*
X122911992Y-150859919D02*
X128100975Y-150859919D01*
X143300977Y-150459917D02*
X145700978Y-148059916D01*
X128100975Y-150859919D02*
X128500977Y-150459917D01*
X128500977Y-150459917D02*
X143300977Y-150459917D01*
D38*
X121500977Y-147559919D02*
X121200977Y-147259919D01*
X121500977Y-150259919D02*
X121500977Y-147559919D01*
X122911992Y-150859919D02*
X122100977Y-150859919D01*
X122100977Y-150859919D02*
X121500977Y-150259919D01*
D37*
G04 #@! TO.N,ECAT_LED_RUN*
X134223189Y-154382129D02*
X133900977Y-154059917D01*
X144223189Y-154382129D02*
X134223189Y-154382129D01*
X133900977Y-154059917D02*
X121300977Y-154059917D01*
X146800977Y-155559917D02*
X145384913Y-155543853D01*
X145384913Y-155543853D02*
X144223189Y-154382129D01*
G04 #@! TO.N,NTC2_1_N*
X135300977Y-113259917D02*
X136900977Y-113259917D01*
X133541060Y-111500000D02*
X135300977Y-113259917D01*
X125000000Y-111500000D02*
X133541060Y-111500000D01*
X123400000Y-108700000D02*
X123400000Y-109900000D01*
X123400000Y-109900000D02*
X125000000Y-111500000D01*
G04 #@! TO.N,NTC2_1_P*
X125000000Y-109100000D02*
X134341058Y-109100000D01*
X134341058Y-109100000D02*
X134500977Y-109259919D01*
D38*
X123500977Y-107600977D02*
X123500977Y-104259919D01*
D37*
X123500977Y-107600977D02*
X125000000Y-109100000D01*
G04 #@! TO.N,NTC2_2_N*
X133541060Y-110700000D02*
X134500979Y-111659919D01*
X134500979Y-111659919D02*
X136900977Y-111659919D01*
X124200000Y-109500000D02*
X125400000Y-110700000D01*
X125400000Y-110700000D02*
X133541060Y-110700000D01*
G04 #@! TO.N,NTC1_1_N*
X125377830Y-110059919D02*
X133700977Y-110059919D01*
X121617911Y-105717911D02*
X121000000Y-105100000D01*
X121617911Y-106300000D02*
X121617911Y-105717911D01*
X121617911Y-106300000D02*
X125377830Y-110059919D01*
X121000000Y-105100000D02*
X119959919Y-104059919D01*
X119959919Y-104059919D02*
X118100977Y-104059919D01*
X115700977Y-101659919D02*
X115100977Y-101059919D01*
X118100977Y-104059919D02*
X115700977Y-101659919D01*
D38*
X81500977Y-100059919D02*
X81500977Y-101659919D01*
X82300977Y-99259919D02*
X81500977Y-100059919D01*
X115100977Y-101059919D02*
X107500977Y-101059919D01*
X81500977Y-101659919D02*
X81300977Y-101459919D01*
X105700977Y-99259919D02*
X82300977Y-99259919D01*
X107500977Y-101059919D02*
X105700977Y-99259919D01*
D37*
G04 #@! TO.N,NTC1_1_P*
X119400000Y-105100000D02*
X118200000Y-105100000D01*
X134041599Y-113659917D02*
X130491596Y-113659917D01*
X124883708Y-112183708D02*
X122600000Y-109900000D01*
X122600000Y-109900000D02*
X122600000Y-108300000D01*
X134157663Y-113543853D02*
X134041599Y-113659917D01*
X130491596Y-113659917D02*
X129015387Y-112183708D01*
X122600000Y-108300000D02*
X119400000Y-105100000D01*
X129015387Y-112183708D02*
X124883708Y-112183708D01*
X118200000Y-105100000D02*
X118200000Y-104758942D01*
X118200000Y-104758942D02*
X115341058Y-101900000D01*
D38*
X82300977Y-100059919D02*
X82300977Y-100859919D01*
X82700977Y-99659919D02*
X82300977Y-100059919D01*
X105500977Y-99659919D02*
X82700977Y-99659919D01*
X107300977Y-101459919D02*
X105500977Y-99659919D01*
X115341058Y-101900000D02*
X114900977Y-101459919D01*
X114900977Y-101459919D02*
X112300977Y-101459919D01*
X112300977Y-101459919D02*
X107300977Y-101459919D01*
G04 #@! TO.N,NTC1_2_P*
X122100977Y-103259919D02*
X120900977Y-103259919D01*
X124800977Y-100559919D02*
X122100977Y-103259919D01*
X132500977Y-101259919D02*
X131800977Y-100559919D01*
X131800977Y-100559919D02*
X124800977Y-100559919D01*
D37*
G04 #@! TO.N,VBUS1_N*
X127060896Y-117900000D02*
X125700977Y-119259919D01*
X156552453Y-117900000D02*
X127060896Y-117900000D01*
X176729041Y-118515231D02*
X165215231Y-118515231D01*
X177300977Y-118459917D02*
X176729041Y-118515231D01*
X165215231Y-118515231D02*
X164200000Y-117500000D01*
X164200000Y-117500000D02*
X156952453Y-117500000D01*
X156952453Y-117500000D02*
X156552453Y-117900000D01*
G04 #@! TO.N,VBUS1_P*
X163964859Y-116123799D02*
X163428741Y-116659917D01*
X163428741Y-116659917D02*
X133700977Y-116659917D01*
X133700977Y-116659917D02*
X132700977Y-115659917D01*
X132500977Y-115659917D02*
X132700977Y-115659917D01*
D39*
X174000977Y-116123799D02*
X174237097Y-116123799D01*
D37*
X174000977Y-116123799D02*
X163964859Y-116123799D01*
D39*
X174237097Y-116123799D02*
X174600977Y-115759919D01*
X177000979Y-115759919D02*
X177700977Y-116459917D01*
X174600977Y-115759919D02*
X177000979Y-115759919D01*
D37*
G04 #@! TO.N,VBUS2_N*
X133300977Y-134859919D02*
X133300977Y-136459919D01*
X138300979Y-129859917D02*
X133300977Y-134859919D01*
X156700977Y-129859917D02*
X138300979Y-129859917D01*
X159853399Y-126707495D02*
X156700977Y-129859917D01*
X169217041Y-122343853D02*
X164853399Y-126707495D01*
X164853399Y-126707495D02*
X159853399Y-126707495D01*
D39*
X174017043Y-122343853D02*
X174200977Y-122159919D01*
X172700977Y-122343853D02*
X174017043Y-122343853D01*
D37*
X172700977Y-122343853D02*
X169217041Y-122343853D01*
G04 #@! TO.N,VBUS2_P*
X176776201Y-122123799D02*
X177400000Y-121500000D01*
X176776201Y-122768577D02*
X176776201Y-122123799D01*
X174917261Y-123276201D02*
X176268577Y-123276201D01*
X176268577Y-123276201D02*
X176776201Y-122768577D01*
X159300977Y-129059917D02*
X163300977Y-129059917D01*
X157700977Y-130659917D02*
X159300977Y-129059917D01*
X134500977Y-136459917D02*
X134500977Y-135259919D01*
X174624766Y-122983706D02*
X174917261Y-123276201D01*
X169377188Y-122983706D02*
X174624766Y-122983706D01*
X163300977Y-129059917D02*
X169377188Y-122983706D01*
X134500977Y-135259919D02*
X137700977Y-132059919D01*
X140900975Y-132059919D02*
X142300977Y-130659917D01*
X137700977Y-132059919D02*
X140900975Y-132059919D01*
X142300977Y-130659917D02*
X157700977Y-130659917D01*
D39*
G04 #@! TO.N,FREE_OUT1_1*
X127383296Y-149254217D02*
X127388998Y-149259919D01*
X122269001Y-149254217D02*
X127383296Y-149254217D01*
D37*
G04 #@! TO.N,SD2_W*
X135900977Y-155859917D02*
X136500977Y-155859917D01*
X131500977Y-156059917D02*
X131700977Y-155859917D01*
X131700977Y-155859917D02*
X135900977Y-155859917D01*
X124870977Y-156076127D02*
X131500977Y-156059917D01*
D38*
X124277916Y-156076127D02*
X124870977Y-156076127D01*
X122890977Y-157139919D02*
X123214124Y-157139919D01*
X123214124Y-157139919D02*
X124277916Y-156076127D01*
G04 #@! TO.N,SD2_V*
X122900977Y-156259917D02*
X122830975Y-156329919D01*
X122830975Y-156329919D02*
X121460977Y-156329919D01*
D37*
X122900977Y-156259917D02*
X123500977Y-155659917D01*
X130500977Y-155659917D02*
X130900977Y-155259917D01*
X123500977Y-155659917D02*
X130500977Y-155659917D01*
X130900977Y-155259917D02*
X135100977Y-155259917D01*
D38*
G04 #@! TO.N,SD_CLK_IN2*
X124780977Y-158659917D02*
X124780975Y-158659919D01*
X124780975Y-158659919D02*
X123530977Y-158659919D01*
D37*
X124780977Y-158659917D02*
X138100977Y-158659917D01*
G04 #@! TO.N,IGBT2_VL*
X124500977Y-131059917D02*
X124100977Y-131059917D01*
X131300977Y-130259917D02*
X125300977Y-130259917D01*
X132100977Y-129459917D02*
X131300977Y-130259917D01*
X125300977Y-130259917D02*
X124500977Y-131059917D01*
X143909434Y-129240763D02*
X143690280Y-129459917D01*
X143690280Y-129459917D02*
X132100977Y-129459917D01*
G04 #@! TO.N,IGBT2_VH*
X142500977Y-122259917D02*
X143300977Y-123059917D01*
X140300977Y-122259917D02*
X142500977Y-122259917D01*
X139500977Y-123059917D02*
X140300977Y-122259917D01*
X143300977Y-123059917D02*
X143300977Y-123659917D01*
X129700977Y-123059917D02*
X139500977Y-123059917D01*
X123900977Y-125859917D02*
X126900977Y-125859917D01*
X126900977Y-125859917D02*
X129700977Y-123059917D01*
D39*
X120710977Y-129049917D02*
X121110975Y-128649919D01*
X120710977Y-133679919D02*
X120710977Y-129049917D01*
D37*
X121110975Y-128649919D02*
X123900977Y-125859917D01*
G04 #@! TO.N,FREE_OUT2_1*
X149100977Y-118459917D02*
X149300977Y-118659917D01*
X128040083Y-118459917D02*
X149100977Y-118459917D01*
X126440083Y-120059917D02*
X128040083Y-118459917D01*
X121300977Y-121059917D02*
X122300977Y-120059917D01*
X122300977Y-120059917D02*
X126440083Y-120059917D01*
D38*
G04 #@! TO.N,FREE_OUT2_2*
X128900977Y-147659917D02*
X130100977Y-148859917D01*
X127388998Y-147659917D02*
X128900977Y-147659917D01*
X130100977Y-148859917D02*
X133900977Y-148859917D01*
X133900977Y-148859917D02*
X134300977Y-148459917D01*
X134300977Y-148459917D02*
X144100980Y-148459917D01*
D37*
X144100980Y-148459917D02*
X144824023Y-147736874D01*
G04 #@! TO.N,SD_CLK_IN1*
X132100975Y-137259917D02*
X129500975Y-134659917D01*
X129500975Y-134659917D02*
X123500981Y-134659917D01*
X135300977Y-137259917D02*
X132100975Y-137259917D01*
X135700975Y-136859919D02*
X135300977Y-137259917D01*
X139700977Y-136459919D02*
X139300977Y-136859919D01*
X142900975Y-136459919D02*
X139700977Y-136459919D01*
X145700977Y-133859917D02*
X145300977Y-133459917D01*
X145300977Y-133459917D02*
X144100977Y-133459917D01*
X143700977Y-135659917D02*
X142900975Y-136459919D01*
X139300977Y-136859919D02*
X135700975Y-136859919D01*
X145700977Y-134059919D02*
X145700977Y-133859917D01*
X144100977Y-133459917D02*
X143700977Y-133859917D01*
X143700977Y-133859917D02*
X143700977Y-135659917D01*
X122900977Y-134659917D02*
X122100977Y-134659917D01*
X123500981Y-134659917D02*
X122900977Y-134659917D01*
G04 #@! TO.N,SD_CLK_OUT*
X126900977Y-125059917D02*
X126072467Y-125059917D01*
X142274778Y-120433718D02*
X136927176Y-120433718D01*
X145500977Y-124659917D02*
X145500977Y-123659917D01*
X145300977Y-124859917D02*
X145500977Y-124659917D01*
X145500977Y-123659917D02*
X142274778Y-120433718D01*
X131500977Y-120459917D02*
X126900977Y-125059917D01*
X136927176Y-120433718D02*
X136900977Y-120459917D01*
X136900977Y-120459917D02*
X131500977Y-120459917D01*
G04 #@! TO.N,IGBT1_UL*
X145900975Y-138859919D02*
X146500979Y-138859919D01*
X145700977Y-139059917D02*
X145900975Y-138859919D01*
X139700977Y-139059917D02*
X145700977Y-139059917D01*
X138100977Y-140659917D02*
X139700977Y-139059917D01*
X136700977Y-140859919D02*
X136900977Y-140659917D01*
X121100977Y-136659917D02*
X126500975Y-136659917D01*
X120700977Y-136259917D02*
X121100977Y-136659917D01*
X126500975Y-136659917D02*
X127500977Y-137659919D01*
X136900977Y-140659917D02*
X138100977Y-140659917D01*
X129300979Y-137659919D02*
X132500979Y-140859919D01*
X127500977Y-137659919D02*
X129300979Y-137659919D01*
X132500979Y-140859919D02*
X136700977Y-140859919D01*
G04 #@! TO.N,IGBT1_WL*
X143900977Y-125659917D02*
X145300977Y-125659917D01*
X141700977Y-127859917D02*
X143900977Y-125659917D01*
X122900977Y-127859917D02*
X141700977Y-127859917D01*
X121500977Y-129259917D02*
X122900977Y-127859917D01*
X121605698Y-130859919D02*
X121500977Y-130755198D01*
X121500977Y-130755198D02*
X121500977Y-129259917D01*
G04 #@! TO.N,BRK_RES2*
X143700977Y-119259917D02*
X146700977Y-122259917D01*
X130100977Y-119259917D02*
X143700977Y-119259917D01*
X128100977Y-121259917D02*
X130100977Y-119259917D01*
D39*
X125810977Y-121259917D02*
X125020979Y-121259917D01*
X125020979Y-121259917D02*
X123830977Y-122449919D01*
D37*
X125810977Y-121259917D02*
X128100977Y-121259917D01*
G04 #@! TO.N,1WIRE_OUT*
X146500977Y-144491831D02*
X147187201Y-143805607D01*
X146500977Y-147859917D02*
X146500977Y-144491831D01*
X143500977Y-150859917D02*
X146500977Y-147859917D01*
X128673766Y-151287128D02*
X129100977Y-150859917D01*
X129100977Y-150859917D02*
X143500977Y-150859917D01*
X117500977Y-167859917D02*
X119500977Y-165859917D01*
X119500977Y-165859917D02*
X119500977Y-153859917D01*
X122073766Y-151287128D02*
X128673766Y-151287128D01*
X119500977Y-153859917D02*
X122073766Y-151287128D01*
X78860977Y-167859917D02*
X117500977Y-167859917D01*
D38*
X78860977Y-167859917D02*
X78670975Y-167859917D01*
X78310977Y-167499919D02*
X78310977Y-166209919D01*
X78670975Y-167859917D02*
X78310977Y-167499919D01*
D37*
G04 #@! TO.N,IGBT1_UH*
X147300977Y-138859919D02*
X147300977Y-138859916D01*
X146900977Y-139259919D02*
X147300977Y-138859919D01*
X127100979Y-138059919D02*
X128700979Y-138059919D01*
X145300977Y-142059919D02*
X145700977Y-141659919D01*
X146100977Y-139259919D02*
X146900977Y-139259919D01*
X142900977Y-143059917D02*
X143900975Y-142059919D01*
X128700979Y-138059919D02*
X132300979Y-141659919D01*
X126500977Y-137459917D02*
X127100979Y-138059919D01*
X138300979Y-141659919D02*
X139700977Y-143059917D01*
X139700977Y-143059917D02*
X142900977Y-143059917D01*
X132300979Y-141659919D02*
X138300979Y-141659919D01*
X145700977Y-139659919D02*
X146100977Y-139259919D01*
X143900975Y-142059919D02*
X145300977Y-142059919D01*
X145700977Y-141659919D02*
X145700977Y-139659919D01*
D39*
X121470979Y-137459917D02*
X121240977Y-137689919D01*
X126500977Y-137459917D02*
X121470979Y-137459917D01*
D37*
G04 #@! TO.N,IGBT1_WH*
X129900977Y-136659917D02*
X128300977Y-136659917D01*
X131700977Y-138459917D02*
X129900977Y-136659917D01*
X134100977Y-139259919D02*
X133300975Y-138459917D01*
X146900976Y-137659919D02*
X144100977Y-137659919D01*
X147300977Y-138059920D02*
X146900976Y-137659919D01*
X144100977Y-137659919D02*
X143500979Y-138259917D01*
X143500979Y-138259917D02*
X139100979Y-138259917D01*
X133300975Y-138459917D02*
X131700977Y-138459917D01*
X139100979Y-138259917D02*
X138100977Y-139259919D01*
X138100977Y-139259919D02*
X134100977Y-139259919D01*
G04 #@! TO.N,BRK_RES1*
X147513949Y-125059917D02*
X148142461Y-125688429D01*
X147500977Y-125059917D02*
X147513949Y-125059917D01*
X122100977Y-122369919D02*
X123190975Y-123459917D01*
X122100977Y-122059917D02*
X122100977Y-122369919D01*
X142500977Y-120059917D02*
X147500977Y-125059917D01*
X127700977Y-123459917D02*
X131100977Y-120059917D01*
X123190975Y-123459917D02*
X127700977Y-123459917D01*
X131100977Y-120059917D02*
X142500977Y-120059917D01*
G04 #@! TO.N,IGBT2_WL*
X124900977Y-128859917D02*
X124100977Y-128859917D01*
X125500977Y-128259917D02*
X124900977Y-128859917D01*
X142300979Y-128259917D02*
X125500977Y-128259917D01*
X147500977Y-126859917D02*
X143720306Y-126840590D01*
X143720306Y-126840590D02*
X142300979Y-128259917D01*
G04 #@! TO.N,1WIRE_EN*
X120053399Y-166307495D02*
X118100977Y-168259917D01*
X120053399Y-154107495D02*
X120053399Y-166307495D01*
X147300977Y-144459919D02*
X147300977Y-147659917D01*
X148100977Y-143659919D02*
X147300977Y-144459919D01*
X147300977Y-147659917D02*
X143700977Y-151259917D01*
X143700977Y-151259917D02*
X129900977Y-151259917D01*
X122300977Y-151859917D02*
X120053399Y-154107495D01*
X129300977Y-151859917D02*
X122300977Y-151859917D01*
X129900977Y-151259917D02*
X129300977Y-151859917D01*
X118100977Y-168259917D02*
X77770977Y-168259917D01*
D38*
X76530977Y-167829919D02*
X76530977Y-166019919D01*
X77770977Y-168259917D02*
X76960975Y-168259917D01*
X76960975Y-168259917D02*
X76530977Y-167829919D01*
D37*
G04 #@! TO.N,IGBT1_VL*
X128100977Y-122059917D02*
X128300977Y-121859917D01*
X128300977Y-121859919D02*
X128300977Y-121859917D01*
X126129487Y-122056725D02*
X126132679Y-122059917D01*
X128100979Y-122059917D02*
X128300977Y-121859919D01*
X126132679Y-122059917D02*
X128100979Y-122059917D01*
X146900977Y-123659917D02*
X152972572Y-123659917D01*
X156577951Y-127265296D02*
X156806450Y-127493795D01*
X152972572Y-123659917D02*
X156577951Y-127265296D01*
X142900977Y-119659917D02*
X146900977Y-123659917D01*
X130500977Y-119659917D02*
X142900977Y-119659917D01*
X128300977Y-121859917D02*
X130500977Y-119659917D01*
G04 #@! TO.N,IGBT2_UL*
X149700977Y-136859919D02*
X150500977Y-137659919D01*
X141700977Y-137859917D02*
X142700975Y-136859919D01*
X121655960Y-135259917D02*
X129300975Y-135259917D01*
X121300977Y-135614900D02*
X121655960Y-135259917D01*
X129300975Y-135259917D02*
X131700977Y-137659919D01*
X131700977Y-137659919D02*
X134900977Y-137659919D01*
X138100977Y-138459919D02*
X138700979Y-137859917D01*
X134900977Y-137659919D02*
X135700977Y-138459919D01*
X142700975Y-136859919D02*
X149700977Y-136859919D01*
X138700979Y-137859917D02*
X141700977Y-137859917D01*
X135700977Y-138459919D02*
X138100977Y-138459919D01*
G04 #@! TO.N,IGBT2_WH*
X124700977Y-129859917D02*
X125900977Y-128659917D01*
X124100977Y-129859917D02*
X124700977Y-129859917D01*
X125900977Y-128659917D02*
X142700977Y-128659917D01*
X142700977Y-128659917D02*
X143700977Y-127659917D01*
X149300977Y-126859917D02*
X149300977Y-126459917D01*
X143700977Y-127659917D02*
X148500977Y-127659917D01*
X148500977Y-127659917D02*
X149300977Y-126859917D01*
D38*
G04 #@! TO.N,1WIRE_IN*
X76360977Y-168659917D02*
X75860975Y-168659917D01*
X74720977Y-167519919D02*
X74720977Y-166289919D01*
X75860975Y-168659917D02*
X74720977Y-167519919D01*
D37*
X118700977Y-168659917D02*
X76360977Y-168659917D01*
X124500975Y-162859919D02*
X118700977Y-168659917D01*
D39*
X139100977Y-161459919D02*
X152100977Y-161459919D01*
X152100977Y-161459919D02*
X153100977Y-162459919D01*
X138100977Y-162459919D02*
X129610967Y-162459919D01*
X129610967Y-162459919D02*
X129300977Y-162769909D01*
X138100977Y-162459919D02*
X139100977Y-161459919D01*
X129300977Y-162769909D02*
X129100977Y-162769909D01*
D37*
X129100977Y-162769909D02*
X124500975Y-162859919D01*
G04 #@! TO.N,IGBT1_VH*
X150300977Y-123059917D02*
X146100977Y-118859917D01*
X127526012Y-120659917D02*
X125100977Y-120659917D01*
X129326012Y-118859917D02*
X127526012Y-120659917D01*
X146100977Y-118859917D02*
X129326012Y-118859917D01*
X153500977Y-123059917D02*
X155100977Y-123059917D01*
X153500977Y-123059917D02*
X150300977Y-123059917D01*
X157700977Y-125659917D02*
X157700977Y-127659917D01*
X155100977Y-123059917D02*
X157700977Y-125659917D01*
G04 #@! TO.N,IGBT2_UH*
X145500977Y-138659917D02*
X145700975Y-138459919D01*
X137900977Y-140259917D02*
X139500977Y-138659917D01*
X136900977Y-140259917D02*
X137900977Y-140259917D01*
X148500977Y-138459919D02*
X149300977Y-137659919D01*
X126700977Y-136059917D02*
X127900979Y-137259919D01*
X127900979Y-137259919D02*
X129700979Y-137259919D01*
X145700975Y-138459919D02*
X148500977Y-138459919D01*
X129700979Y-137259919D02*
X132500979Y-140059919D01*
X122300977Y-136059917D02*
X126700977Y-136059917D01*
X139500977Y-138659917D02*
X145500977Y-138659917D01*
X132500979Y-140059919D02*
X136700979Y-140059919D01*
X136700979Y-140059919D02*
X136900977Y-140259917D01*
D40*
G04 #@! TO.N,/endat/ENDAT1_DATA_H_N*
X145873200Y-181659919D02*
X145873200Y-185432142D01*
X145873200Y-185432142D02*
X148500977Y-188059919D01*
X148500977Y-188059919D02*
X150300977Y-188059919D01*
X150300977Y-188059919D02*
X152100977Y-189859919D01*
X152100977Y-200498977D02*
X154027000Y-202425000D01*
X154027000Y-202425000D02*
X154027000Y-204325000D01*
X152100977Y-189859919D02*
X152100977Y-200498977D01*
G04 #@! TO.N,/step_dir/DIR1_A_P_H*
X74900977Y-181459919D02*
X74900977Y-183459919D01*
X74900977Y-183459919D02*
X78500977Y-187059919D01*
X78500977Y-187059919D02*
X81700977Y-187059919D01*
X81700977Y-187059919D02*
X82900977Y-188259919D01*
X82900977Y-202487977D02*
X84705000Y-204292000D01*
X82900977Y-188259919D02*
X82900977Y-202487977D01*
G04 #@! TO.N,/qep/QEP1_A_N_H*
X106041000Y-204042000D02*
X106041000Y-204292000D01*
X99258919Y-197259919D02*
X106041000Y-204042000D01*
X93674990Y-197259919D02*
X99258919Y-197259919D01*
X90474990Y-194059919D02*
X93674990Y-197259919D01*
G04 #@! TO.N,/qep/QEP1_I_N_H*
X98500977Y-181259919D02*
X98423746Y-181337150D01*
X98423746Y-181337150D02*
X98423746Y-181359929D01*
X120100977Y-201459919D02*
X121281000Y-202639942D01*
X114700977Y-201459919D02*
X120100977Y-201459919D01*
X110100977Y-196859919D02*
X114700977Y-201459919D01*
X110100977Y-195859919D02*
X110100977Y-196859919D01*
X98423746Y-183782688D02*
X103300977Y-188659919D01*
X107900977Y-190259919D02*
X107900977Y-193659919D01*
X98423746Y-181359929D02*
X98423746Y-183782688D01*
X103300977Y-188659919D02*
X106300977Y-188659919D01*
X106300977Y-188659919D02*
X107900977Y-190259919D01*
X121281000Y-202639942D02*
X121281000Y-204292000D01*
X107900977Y-193659919D02*
X110100977Y-195859919D01*
G04 #@! TO.N,/qep/QEP1_S_P_H*
X101500977Y-181659919D02*
X100100977Y-180259919D01*
X93403078Y-180259919D02*
X92678119Y-180984878D01*
X111700977Y-195859917D02*
X111700977Y-190659919D01*
X100100977Y-180259919D02*
X93403078Y-180259919D01*
X119508917Y-198459917D02*
X114300977Y-198459917D01*
X92678119Y-180984878D02*
X92278120Y-181384877D01*
X104300977Y-187459919D02*
X101500977Y-184659919D01*
X101500977Y-184659919D02*
X101500977Y-181659919D01*
X108500977Y-187459919D02*
X104300977Y-187459919D01*
X111700977Y-190659919D02*
X108500977Y-187459919D01*
X114300977Y-198459917D02*
X111700977Y-195859917D01*
X125091000Y-204042000D02*
X119508917Y-198459917D01*
X125091000Y-204292000D02*
X125091000Y-204042000D01*
G04 #@! TO.N,/qep/QEP2_S_N_H*
X114400987Y-185559929D02*
X111269159Y-185559929D01*
X111269159Y-185559929D02*
X110703474Y-185559929D01*
X118000976Y-189159918D02*
X114400987Y-185559929D01*
X128901000Y-191592000D02*
X128901000Y-191342000D01*
X126718918Y-189159918D02*
X118000976Y-189159918D01*
X128901000Y-191342000D02*
X126718918Y-189159918D01*
G04 #@! TO.N,/qep/QEP1_S_N_H*
X128901000Y-202392000D02*
X128901000Y-204292000D01*
X92800988Y-179559908D02*
X102600966Y-179559908D01*
X90900977Y-181459919D02*
X92800988Y-179559908D01*
X115500977Y-195459917D02*
X116900979Y-196859919D01*
X110300977Y-187259919D02*
X114300977Y-187259919D01*
X123368919Y-196859919D02*
X128901000Y-202392000D01*
X116900979Y-196859919D02*
X123368919Y-196859919D01*
X102600966Y-179559908D02*
X110300977Y-187259919D01*
X114300977Y-187259919D02*
X115500977Y-188459919D01*
X115500977Y-188459919D02*
X115500977Y-195459917D01*
G04 #@! TD*
M02*
