M48
;DRILL file {KiCad 5.0.2+dfsg1-1} date Tue 03 Mar 2020 11:07:16 PM -03
;FORMAT={-:-/ absolute / metric / decimal}
FMAT,2
METRIC,TZ
T1C0.800
%
G90
G05
T1
X79.201Y-161.96G85X88.401Y-161.96
G05
X89.601Y-176.16G85X98.801Y-176.16
G05
X116.001Y-114.16G85X116.001Y-123.36
G05
X182.201Y-191.56G85X182.201Y-182.36
G05
X153.515Y-90.3G85X156.287Y-91.9
G05
X156.315Y-91.9G85X159.087Y-90.3
G05
X192.801Y-90.16G85X192.801Y-80.96
G05
X107.601Y-178.16G85X98.401Y-178.16
G05
X105.601Y-158.56G85X114.801Y-158.56
G05
X70.601Y-110.36G85X79.801Y-110.36
G05
X216.254Y-147.443G85X209.748Y-140.937
G05
X154.201Y-176.16G85X163.401Y-176.16
G05
X191.201Y-134.46G85X191.201Y-125.26
G05
X131.857Y-186.929G85X135.745Y-178.591
G05
X104.415Y-90.3G85X107.187Y-91.9
G05
X107.215Y-91.9G85X109.987Y-90.3
G05
X174.601Y-180.16G85X165.401Y-180.16
G05
X83.615Y-90.3G85X86.387Y-91.9
G05
X86.415Y-91.9G85X89.187Y-90.3
G05
X145.715Y-90.3G85X148.487Y-91.9
G05
X148.515Y-91.9G85X151.287Y-90.3
G05
X91.415Y-90.3G85X94.187Y-91.9
G05
X94.215Y-91.9G85X96.987Y-90.3
G05
X87.801Y-158.96G85X97.001Y-158.96
G05
X218.001Y-107.96G85X218.001Y-98.76
G05
X186.915Y-90.3G85X189.687Y-91.9
G05
X189.715Y-91.9G85X192.487Y-90.3
G05
X112.315Y-90.3G85X115.087Y-91.9
G05
X115.115Y-91.9G85X117.887Y-90.3
G05
X116.001Y-141.36G85X116.001Y-132.16
G05
X124.915Y-90.3G85X127.687Y-91.9
G05
X127.715Y-91.9G85X130.487Y-90.3
G05
X70.915Y-90.3G85X73.687Y-91.9
G05
X73.715Y-91.9G85X76.487Y-90.3
G05
X125.385Y-186.46G85X117.417Y-181.86
G05
X109.61Y-149.203G85X111.992Y-140.317
G05
X146.601Y-178.36G85X155.801Y-178.36
G05
X80.401Y-178.16G85X89.601Y-178.16
G05
X70.601Y-158.96G85X79.801Y-158.96
G05
X95.801Y-106.76G85X105.001Y-106.76
G05
X132.715Y-90.3G85X135.487Y-91.9
G05
X135.515Y-91.9G85X138.287Y-90.3
G05
X137.401Y-176.16G85X146.601Y-176.16
G05
X87.001Y-110.16G85X96.201Y-110.16
G05
X191.201Y-116.76G85X191.201Y-125.96
G05
X178.963Y-205.728G85X184.239Y-198.192
G05
X160.648Y-178.207G85X167.154Y-184.713
G05
X174.315Y-90.3G85X177.087Y-91.9
G05
X177.115Y-91.9G85X179.887Y-90.3
G05
X97.001Y-161.96G85X106.201Y-161.96
G05
X218.001Y-126.16G85X218.001Y-135.36
G05
X180.201Y-200.16G85X180.201Y-190.96
G05
X105.277Y-109.403G85X112.325Y-115.317
G05
X79.001Y-106.76G85X88.201Y-106.76
G05
X166.115Y-90.3G85X168.887Y-91.9
G05
X168.915Y-91.9G85X171.687Y-90.3
G05
X191.231Y-142.8G85X200.431Y-142.8
G05
X191.201Y-107.76G85X191.201Y-116.96
G05
X112.701Y-132.06G85X112.701Y-122.86
G05
X71.201Y-176.16G85X80.401Y-176.16
G05
X191.201Y-142.76G85X191.201Y-133.56
G05
X173.001Y-182.36G85X182.201Y-182.36
G05
T0
M30
