  0
SECTION
  2
HEADER
  9
$ACADVER
  1
AC1009
  9
$DWGCODEPAGE
  3
ansi_1252
  9
$INSBASE
 10
0.0
 20
0.0
 30
0.0
  9
$EXTMIN
 10
-8.250000000000007
 20
-10.79099999999999
 30
0.0
  9
$EXTMAX
 10
8.250000000000007
 20
14.86000000000001
 30
0.0
  9
$LIMMIN
 10
0.0
 20
0.0
  9
$LIMMAX
 10
12.0
 20
9.0
  9
$ORTHOMODE
 70
     0
  9
$REGENMODE
 70
     1
  9
$FILLMODE
 70
     1
  9
$QTEXTMODE
 70
     0
  9
$MIRRTEXT
 70
     1
  9
$DRAGMODE
 70
     2
  9
$LTSCALE
 40
1.0
  9
$OSMODE
 70
    37
  9
$ATTMODE
 70
     1
  9
$TEXTSIZE
 40
0.2
  9
$TRACEWID
 40
0.05
  9
$TEXTSTYLE
  7
STANDARD
  9
$CLAYER
  8
DEFAULT
  9
$CELTYPE
  6
BYLAYER
  9
$CECOLOR
 62
   256
  9
$DIMSCALE
 40
1.0
  9
$DIMASZ
 40
0.18
  9
$DIMEXO
 40
0.0625
  9
$DIMDLI
 40
0.38
  9
$DIMRND
 40
0.0
  9
$DIMDLE
 40
0.0
  9
$DIMEXE
 40
0.18
  9
$DIMTP
 40
0.0
  9
$DIMTM
 40
0.0
  9
$DIMTXT
 40
0.18
  9
$DIMCEN
 40
0.09
  9
$DIMTSZ
 40
0.0
  9
$DIMTOL
 70
     0
  9
$DIMLIM
 70
     0
  9
$DIMTIH
 70
     1
  9
$DIMTOH
 70
     1
  9
$DIMSE1
 70
     0
  9
$DIMSE2
 70
     0
  9
$DIMTAD
 70
     0
  9
$DIMZIN
 70
     0
  9
$DIMBLK
  1

  9
$DIMASO
 70
     1
  9
$DIMSHO
 70
     1
  9
$DIMPOST
  1

  9
$DIMAPOST
  1

  9
$DIMALT
 70
     0
  9
$DIMALTD
 70
     2
  9
$DIMALTF
 40
25.4
  9
$DIMLFAC
 40
1.0
  9
$DIMTOFL
 70
     0
  9
$DIMTVP
 40
0.0
  9
$DIMTIX
 70
     0
  9
$DIMSOXD
 70
     0
  9
$DIMSAH
 70
     0
  9
$DIMBLK1
  1

  9
$DIMBLK2
  1

  9
$DIMSTYLE
  2
STANDARD
  9
$DIMCLRD
 70
     0
  9
$DIMCLRE
 70
     0
  9
$DIMCLRT
 70
     0
  9
$DIMTFAC
 40
1.0
  9
$DIMGAP
 40
0.09
  9
$LUNITS
 70
     2
  9
$LUPREC
 70
     3
  9
$SKETCHINC
 40
0.1
  9
$FILLETRAD
 40
0.5
  9
$AUNITS
 70
     0
  9
$AUPREC
 70
     0
  9
$MENU
  1
.
  9
$ELEVATION
 40
0.0
  9
$PELEVATION
 40
0.0
  9
$THICKNESS
 40
0.0
  9
$LIMCHECK
 70
     0
  9
$CHAMFERA
 40
0.5
  9
$CHAMFERB
 40
0.5
  9
$SKPOLY
 70
     0
  9
$TDCREATE
 40
2458862.430710579
  9
$TDUPDATE
 40
2458862.43071059
  9
$TDINDWG
 40
0.0000000116
  9
$TDUSRTIMER
 40
0.0000000116
  9
$USRTIMER
 70
     1
  9
$ANGBASE
 50
0.0
  9
$ANGDIR
 70
     0
  9
$PDMODE
 70
     0
  9
$PDSIZE
 40
0.0
  9
$PLINEWID
 40
0.0
  9
$COORDS
 70
     1
  9
$SPLFRAME
 70
     0
  9
$SPLINETYPE
 70
     6
  9
$SPLINESEGS
 70
     8
  9
$ATTDIA
 70
     0
  9
$ATTREQ
 70
     1
  9
$HANDLING
 70
     1
  9
$HANDSEED
  5
30D
  9
$SURFTAB1
 70
     6
  9
$SURFTAB2
 70
     6
  9
$SURFTYPE
 70
     6
  9
$SURFU
 70
     6
  9
$SURFV
 70
     6
  9
$UCSNAME
  2

  9
$UCSORG
 10
0.0
 20
0.0
 30
0.0
  9
$UCSXDIR
 10
1.0
 20
0.0
 30
0.0
  9
$UCSYDIR
 10
0.0
 20
1.0
 30
0.0
  9
$PUCSNAME
  2

  9
$PUCSORG
 10
0.0
 20
0.0
 30
0.0
  9
$PUCSXDIR
 10
1.0
 20
0.0
 30
0.0
  9
$PUCSYDIR
 10
0.0
 20
1.0
 30
0.0
  9
$USERI1
 70
     0
  9
$USERI2
 70
     0
  9
$USERI3
 70
     0
  9
$USERI4
 70
     0
  9
$USERI5
 70
     0
  9
$USERR1
 40
0.0
  9
$USERR2
 40
0.0
  9
$USERR3
 40
0.0
  9
$USERR4
 40
0.0
  9
$USERR5
 40
0.0
  9
$WORLDVIEW
 70
     1
  9
$SHADEDGE
 70
     3
  9
$SHADEDIF
 70
    70
  9
$TILEMODE
 70
     1
  9
$MAXACTVP
 70
    64
  9
$PLIMCHECK
 70
     0
  9
$PEXTMIN
 10
1.000000000000000E+20
 20
1.000000000000000E+20
 30
1.000000000000000E+20
  9
$PEXTMAX
 10
-1.000000000000000E+20
 20
-1.000000000000000E+20
 30
-1.000000000000000E+20
  9
$PLIMMIN
 10
0.0
 20
0.0
  9
$PLIMMAX
 10
12.0
 20
9.0
  9
$UNITMODE
 70
     0
  9
$VISRETAIN
 70
     1
  9
$PLINEGEN
 70
     0
  9
$PSLTSCALE
 70
     1
  0
ENDSEC
  0
SECTION
  2
TABLES
  0
TABLE
  2
VPORT
 70
     1
  0
VPORT
  2
*ACTIVE
 70
     0
 10
0.0
 20
0.0
 11
1.0
 21
1.0
 12
0.0
 22
2.034500000000008
 13
0.0
 23
0.0
 14
0.5
 24
0.5
 15
0.5
 25
0.5
 16
0.0
 26
0.0
 36
1.0
 17
0.0
 27
0.0
 37
0.0
 40
26.16402
 41
0.6432497758371999
 42
50.0
 43
0.0
 44
0.0
 50
0.0
 51
0.0
 71
     0
 72
   100
 73
     1
 74
     3
 75
     0
 76
     0
 77
     0
 78
     0
  0
ENDTAB
  0
TABLE
  2
LTYPE
 70
     1
  0
LTYPE
  2
CONTINUOUS
 70
     0
  3
Solid line
 72
    65
 73
     0
 40
0.0
  0
ENDTAB
  0
TABLE
  2
LAYER
 70
     2
  0
LAYER
  2
0
 70
     0
 62
     7
  6
CONTINUOUS
  0
LAYER
  2
DEFAULT
 70
     0
 62
     7
  6
CONTINUOUS
  0
ENDTAB
  0
TABLE
  2
STYLE
 70
     1
  0
STYLE
  2
STANDARD
 70
     0
 40
0.0
 41
1.0
 50
0.0
 71
     0
 42
0.2
  3
txt
  4

  0
ENDTAB
  0
TABLE
  2
VIEW
 70
     0
  0
ENDTAB
  0
TABLE
  2
UCS
 70
     0
  0
ENDTAB
  0
TABLE
  2
APPID
 70
     1
  0
APPID
  2
ACAD
 70
     0
  0
ENDTAB
  0
TABLE
  2
DIMSTYLE
 70
     1
  0
DIMSTYLE
  2
STANDARD
 70
     0
  3

  4

  5

  6

  7

 40
1.0
 41
0.18
 42
0.0625
 43
0.38
 44
0.18
 45
0.0
 46
0.0
 47
0.0
 48
0.0
140
0.18
141
0.09
142
0.0
143
25.4
144
1.0
145
0.0
146
1.0
147
0.09
 71
     0
 72
     0
 73
     1
 74
     1
 75
     0
 76
     0
 77
     0
 78
     0
170
     0
171
     2
172
     0
173
     0
174
     0
175
     0
176
     0
177
     0
178
     0
  0
ENDTAB
  0
ENDSEC
  0
SECTION
  2
BLOCKS
  0
BLOCK
  8
0
  2
$MODEL_SPACE
 70
     0
 10
0.0
 20
0.0
 30
0.0
  3
$MODEL_SPACE
  1

  0
ENDBLK
  5
21
  8
0
  0
BLOCK
 67
     1
  8
0
  2
$PAPER_SPACE
 70
     0
 10
0.0
 20
0.0
 30
0.0
  3
$PAPER_SPACE
  1

  0
ENDBLK
  5
1D
 67
     1
  8
0
  0
ENDSEC
  0
SECTION
  2
ENTITIES
  0
ARC
  5
3C
  8
DEFAULT
 10
5.715000000000003
 20
0.0000000000000025
 30
0.0
 40
1.599999999999999
 50
269.9999999999999
 51
90.0
  0
ARC
  5
3D
  8
DEFAULT
 10
5.715000000000003
 20
0.0000000000000018
 30
0.0
 40
1.6
 50
270.0
 51
90.00000000000006
  0
ARC
  5
3E
  8
DEFAULT
 10
-5.715000000000002
 20
0.0000000000000053
 30
0.0
 40
1.6
 50
270.0000000000001
 51
89.99999999999997
  0
ARC
  5
3F
  8
DEFAULT
 10
-5.715000000000002
 20
0.0000000000000053
 30
0.0
 40
1.6
 50
270.0
 51
89.99999999999994
  0
LINE
  5
40
  8
DEFAULT
 10
2.950000000000006
 20
6.125000000000005
 30
0.0
 11
3.400000000000005
 21
6.125000000000005
 31
0.0
  0
LINE
  5
41
  8
DEFAULT
 10
3.400000000000005
 20
6.125000000000005
 30
0.0
 11
3.400000000000005
 21
6.575000000000008
 31
0.0
  0
LINE
  5
42
  8
DEFAULT
 10
3.400000000000005
 20
6.575000000000008
 30
0.0
 11
2.950000000000006
 21
6.575000000000008
 31
0.0
  0
LINE
  5
43
  8
DEFAULT
 10
2.950000000000006
 20
6.575000000000008
 30
0.0
 11
2.950000000000006
 21
6.125000000000005
 31
0.0
  0
LINE
  5
44
  8
DEFAULT
 10
0.4100000000000038
 20
6.125000000000005
 30
0.0
 11
0.860000000000003
 21
6.125000000000005
 31
0.0
  0
LINE
  5
45
  8
DEFAULT
 10
0.860000000000003
 20
6.125000000000005
 30
0.0
 11
0.860000000000003
 21
6.575000000000008
 31
0.0
  0
LINE
  5
46
  8
DEFAULT
 10
0.860000000000003
 20
6.575000000000008
 30
0.0
 11
0.4100000000000038
 21
6.575000000000008
 31
0.0
  0
LINE
  5
47
  8
DEFAULT
 10
0.4100000000000038
 20
6.575000000000008
 30
0.0
 11
0.4100000000000038
 21
6.125000000000005
 31
0.0
  0
LINE
  5
48
  8
DEFAULT
 10
-2.129999999999987
 20
6.125000000000005
 30
0.0
 11
-1.679999999999999
 21
6.125000000000005
 31
0.0
  0
LINE
  5
49
  8
DEFAULT
 10
-1.679999999999999
 20
6.125000000000005
 30
0.0
 11
-1.679999999999999
 21
6.575000000000008
 31
0.0
  0
LINE
  5
4A
  8
DEFAULT
 10
-1.679999999999999
 20
6.575000000000008
 30
0.0
 11
-2.129999999999987
 21
6.575000000000008
 31
0.0
  0
LINE
  5
4B
  8
DEFAULT
 10
-2.129999999999987
 20
6.575000000000008
 30
0.0
 11
-2.129999999999987
 21
6.125000000000005
 31
0.0
  0
LINE
  5
4C
  8
DEFAULT
 10
-4.670000000000001
 20
6.125000000000005
 30
0.0
 11
-4.220000000000012
 21
6.125000000000005
 31
0.0
  0
LINE
  5
4D
  8
DEFAULT
 10
-4.220000000000012
 20
6.125000000000005
 30
0.0
 11
-4.220000000000012
 21
6.575000000000008
 31
0.0
  0
LINE
  5
4E
  8
DEFAULT
 10
-4.220000000000012
 20
6.575000000000008
 30
0.0
 11
-4.670000000000001
 21
6.575000000000008
 31
0.0
  0
LINE
  5
4F
  8
DEFAULT
 10
-4.670000000000001
 20
6.575000000000008
 30
0.0
 11
-4.670000000000001
 21
6.125000000000005
 31
0.0
  0
LINE
  5
50
  8
DEFAULT
 10
-3.400000000000005
 20
8.665000000000008
 30
0.0
 11
-2.949999999999994
 21
8.665000000000008
 31
0.0
  0
LINE
  5
51
  8
DEFAULT
 10
-2.949999999999994
 20
8.665000000000008
 30
0.0
 11
-2.949999999999994
 21
9.115000000000007
 31
0.0
  0
LINE
  5
52
  8
DEFAULT
 10
-2.949999999999994
 20
9.115000000000007
 30
0.0
 11
-3.399999999999994
 21
9.115000000000007
 31
0.0
  0
LINE
  5
53
  8
DEFAULT
 10
-3.399999999999994
 20
9.115000000000007
 30
0.0
 11
-3.400000000000005
 21
8.665000000000008
 31
0.0
  0
LINE
  5
54
  8
DEFAULT
 10
-0.860000000000003
 20
8.665000000000008
 30
0.0
 11
-0.4099999999999812
 21
8.665000000000008
 31
0.0
  0
LINE
  5
55
  8
DEFAULT
 10
-0.4099999999999812
 20
8.665000000000008
 30
0.0
 11
-0.4100000000000038
 21
9.115000000000007
 31
0.0
  0
LINE
  5
56
  8
DEFAULT
 10
-0.4100000000000038
 20
9.115000000000007
 30
0.0
 11
-0.860000000000003
 21
9.115000000000007
 31
0.0
  0
LINE
  5
57
  8
DEFAULT
 10
-0.860000000000003
 20
9.115000000000007
 30
0.0
 11
-0.860000000000003
 21
8.665000000000008
 31
0.0
  0
LINE
  5
58
  8
DEFAULT
 10
1.679999999999999
 20
8.665000000000008
 30
0.0
 11
2.129999999999987
 21
8.665000000000008
 31
0.0
  0
LINE
  5
59
  8
DEFAULT
 10
2.129999999999987
 20
8.665000000000008
 30
0.0
 11
2.129999999999987
 21
9.11500000000001
 31
0.0
  0
LINE
  5
5A
  8
DEFAULT
 10
2.129999999999987
 20
9.11500000000001
 30
0.0
 11
1.679999999999999
 21
9.11500000000001
 31
0.0
  0
LINE
  5
5B
  8
DEFAULT
 10
1.679999999999999
 20
9.11500000000001
 30
0.0
 11
1.679999999999999
 21
8.665000000000008
 31
0.0
  0
LINE
  5
5C
  8
DEFAULT
 10
4.220000000000012
 20
8.665000000000008
 30
0.0
 11
4.670000000000001
 21
8.665000000000008
 31
0.0
  0
LINE
  5
5D
  8
DEFAULT
 10
4.670000000000001
 20
8.665000000000008
 30
0.0
 11
4.670000000000001
 21
9.11500000000001
 31
0.0
  0
LINE
  5
5E
  8
DEFAULT
 10
4.670000000000001
 20
9.11500000000001
 30
0.0
 11
4.220000000000012
 21
9.11500000000001
 31
0.0
  0
LINE
  5
5F
  8
DEFAULT
 10
4.220000000000012
 20
9.11500000000001
 30
0.0
 11
4.220000000000012
 21
8.665000000000008
 31
0.0
  0
LINE
  5
60
  8
DEFAULT
 10
5.685
 20
13.94500000000001
 30
0.0
 11
5.235
 21
13.94500000000001
 31
0.0
  0
LINE
  5
61
  8
DEFAULT
 10
5.235
 20
13.94500000000001
 30
0.0
 11
5.235
 21
13.49500000000001
 31
0.0
  0
LINE
  5
62
  8
DEFAULT
 10
5.235
 20
13.49500000000001
 30
0.0
 11
5.685
 21
13.49500000000001
 31
0.0
  0
LINE
  5
63
  8
DEFAULT
 10
5.685
 20
13.49500000000001
 30
0.0
 11
5.685
 21
13.94500000000001
 31
0.0
  0
LINE
  5
64
  8
DEFAULT
 10
3.144999999999998
 20
13.94500000000001
 30
0.0
 11
2.694999999999999
 21
13.94500000000001
 31
0.0
  0
LINE
  5
65
  8
DEFAULT
 10
2.694999999999999
 20
13.94500000000001
 30
0.0
 11
2.694999999999999
 21
13.49500000000001
 31
0.0
  0
LINE
  5
66
  8
DEFAULT
 10
2.694999999999999
 20
13.49500000000001
 30
0.0
 11
3.144999999999998
 21
13.49500000000001
 31
0.0
  0
LINE
  5
67
  8
DEFAULT
 10
3.144999999999998
 20
13.49500000000001
 30
0.0
 11
3.144999999999998
 21
13.94500000000001
 31
0.0
  0
LINE
  5
68
  8
DEFAULT
 10
-2.694999999999999
 20
13.94500000000001
 30
0.0
 11
-3.144999999999998
 21
13.94500000000001
 31
0.0
  0
LINE
  5
69
  8
DEFAULT
 10
-3.144999999999998
 20
13.94500000000001
 30
0.0
 11
-3.144999999999998
 21
13.49500000000001
 31
0.0
  0
LINE
  5
6A
  8
DEFAULT
 10
-3.144999999999998
 20
13.49500000000001
 30
0.0
 11
-2.694999999999999
 21
13.49500000000001
 31
0.0
  0
LINE
  5
6B
  8
DEFAULT
 10
-2.694999999999999
 20
13.49500000000001
 30
0.0
 11
-2.694999999999999
 21
13.94500000000001
 31
0.0
  0
LINE
  5
6C
  8
DEFAULT
 10
-5.235
 20
13.94500000000001
 30
0.0
 11
-5.685
 21
13.94500000000001
 31
0.0
  0
LINE
  5
6D
  8
DEFAULT
 10
-5.685
 20
13.94500000000001
 30
0.0
 11
-5.685
 21
13.49500000000001
 31
0.0
  0
LINE
  5
6E
  8
DEFAULT
 10
-5.685
 20
13.49500000000001
 30
0.0
 11
-5.235
 21
13.49500000000001
 31
0.0
  0
LINE
  5
6F
  8
DEFAULT
 10
-5.235
 20
13.49500000000001
 30
0.0
 11
-5.235
 21
13.94500000000001
 31
0.0
  0
ARC
  5
70
  8
DEFAULT
 10
5.715000000000002
 20
0.0000000000000018
 30
0.0
 40
1.6
 50
90.0
 51
269.9999999999999
  0
ARC
  5
71
  8
DEFAULT
 10
-5.714999999999998
 20
0.0000000000000062
 30
0.0
 40
1.599999999999999
 50
90.0000000000001
 51
269.9999999999999
  0
LINE
  5
72
  8
DEFAULT
 10
8.249999999999984
 20
3.750000000000007
 30
0.0
 11
7.920000000000006
 21
3.750000000000007
 31
0.0
  0
LINE
  5
73
  8
DEFAULT
 10
7.920000000000006
 20
3.750000000000007
 30
0.0
 11
7.919999999999995
 21
2.350000000000005
 31
0.0
  0
LINE
  5
74
  8
DEFAULT
 10
7.919999999999995
 20
2.350000000000005
 30
0.0
 11
8.249999999999984
 21
2.350000000000005
 31
0.0
  0
LINE
  5
75
  8
DEFAULT
 10
-8.249999999999984
 20
2.350000000000005
 30
0.0
 11
-7.919999999999995
 21
2.350000000000007
 31
0.0
  0
LINE
  5
76
  8
DEFAULT
 10
-7.919999999999995
 20
2.350000000000007
 30
0.0
 11
-7.919999999999995
 21
3.750000000000007
 31
0.0
  0
LINE
  5
77
  8
DEFAULT
 10
-7.919999999999995
 20
3.750000000000007
 30
0.0
 11
-8.249999999999984
 21
3.750000000000007
 31
0.0
  0
LINE
  5
78
  8
DEFAULT
 10
-8.249999999999984
 20
14.86
 30
0.0
 11
8.249999999999984
 21
14.86
 31
0.0
  0
LINE
  5
79
  8
DEFAULT
 10
-8.249999999999984
 20
7.089185865380591
 30
0.0
 11
-8.249999999999984
 21
14.86
 31
0.0
  0
LINE
  5
7A
  8
DEFAULT
 10
8.249999999999984
 20
-10.78999999999999
 30
0.0
 11
-8.249999999999984
 21
-10.78999999999999
 31
0.0
  0
LINE
  5
7B
  8
DEFAULT
 10
8.249999999999984
 20
14.86
 30
0.0
 11
8.249999999999984
 21
7.089185865380591
 31
0.0
  0
LINE
  5
7C
  8
DEFAULT
 10
8.249999999999984
 20
2.350000000000005
 30
0.0
 11
8.249999999999984
 21
-10.78999999999999
 31
0.0
  0
LINE
  5
7D
  8
DEFAULT
 10
8.249999999999984
 20
7.089185865380591
 30
0.0
 11
8.249999999999984
 21
3.750000000000007
 31
0.0
  0
LINE
  5
7E
  8
DEFAULT
 10
-8.249999999999984
 20
-10.78999999999999
 30
0.0
 11
-8.249999999999984
 21
2.350000000000005
 31
0.0
  0
LINE
  5
7F
  8
DEFAULT
 10
-8.249999999999984
 20
3.750000000000007
 30
0.0
 11
-8.249999999999984
 21
7.089185865380591
 31
0.0
  0
LINE
  5
80
  8
DEFAULT
 10
-8.249999999999984
 20
14.34904545958405
 30
0.0
 11
-8.249999999999984
 21
13.31928707458083
 31
0.0
  0
LINE
  5
81
  8
DEFAULT
 10
-8.249999999999984
 20
13.31928707458083
 30
0.0
 11
-8.249999999999984
 21
14.34904545958405
 31
0.0
  0
LINE
  5
82
  8
DEFAULT
 10
-8.249999999999984
 20
14.86
 30
0.0
 11
-8.249999999999984
 21
12.85999999999999
 31
0.0
  0
LINE
  5
83
  8
DEFAULT
 10
-8.249999999999984
 20
12.85999999999999
 30
0.0
 11
-8.249999999999996
 21
14.86
 31
0.0
  0
LINE
  5
84
  8
DEFAULT
 10
-8.249999999999984
 20
2.550000000000004
 30
0.0
 11
-8.249999999999984
 21
2.350000000000007
 31
0.0
  0
LINE
  5
85
  8
DEFAULT
 10
-8.249999999999984
 20
3.749999999999998
 30
0.0
 11
-8.249999999999984
 21
3.550000000000004
 31
0.0
  0
LINE
  5
86
  8
DEFAULT
 10
-8.249999999999984
 20
3.550000000000004
 30
0.0
 11
-8.249999999999984
 21
2.550000000000004
 31
0.0
  0
LINE
  5
87
  8
DEFAULT
 10
-8.249999999999984
 20
12.85999999999999
 30
0.0
 11
-8.249999999999996
 21
7.089185865380587
 31
0.0
  0
LINE
  5
88
  8
DEFAULT
 10
-8.249999999999984
 20
-10.78999999999999
 30
0.0
 11
-8.249999999999984
 21
3.07516980465504
 31
0.0
  0
LINE
  5
89
  8
DEFAULT
 10
-8.249999999999984
 20
3.07516980465504
 30
0.0
 11
-8.249999999999996
 21
4.28798193252044
 31
0.0
  0
LINE
  5
8A
  8
DEFAULT
 10
-8.249999999999996
 20
4.28798193252044
 30
0.0
 11
-8.249999999999984
 21
12.85999999999999
 31
0.0
  0
LINE
  5
8B
  8
DEFAULT
 10
-8.249999999999984
 20
3.07516980465504
 30
0.0
 11
-8.249999999999996
 21
14.86
 31
0.0
  0
LINE
  5
8C
  8
DEFAULT
 10
8.249999999999984
 20
2.350000000000012
 30
0.0
 11
8.249999999999984
 21
2.550000000000004
 31
0.0
  0
LINE
  5
8D
  8
DEFAULT
 10
8.249999999999984
 20
3.550000000000008
 30
0.0
 11
8.249999999999984
 21
3.749999999999998
 31
0.0
  0
LINE
  5
8E
  8
DEFAULT
 10
8.249999999999984
 20
2.550000000000004
 30
0.0
 11
8.249999999999984
 21
3.550000000000008
 31
0.0
  0
LINE
  5
8F
  8
DEFAULT
 10
8.249999999999984
 20
12.85999999999999
 30
0.0
 11
8.249999999999996
 21
4.287981932520442
 31
0.0
  0
LINE
  5
90
  8
DEFAULT
 10
8.249999999999996
 20
4.287981932520442
 30
0.0
 11
8.249999999999984
 21
2.852757723738009
 31
0.0
  0
LINE
  5
91
  8
DEFAULT
 10
8.249999999999984
 20
2.852757723738009
 30
0.0
 11
8.249999999999984
 21
-10.78999999999999
 31
0.0
  0
LINE
  5
92
  8
DEFAULT
 10
8.249999999999996
 20
7.089185865380587
 30
0.0
 11
8.249999999999984
 21
12.85999999999999
 31
0.0
  0
LINE
  5
93
  8
DEFAULT
 10
8.249999999999984
 20
14.34904545958405
 30
0.0
 11
8.249999999999984
 21
13.31928707458083
 31
0.0
  0
LINE
  5
94
  8
DEFAULT
 10
8.249999999999984
 20
13.31928707458083
 30
0.0
 11
8.249999999999984
 21
14.34904545958405
 31
0.0
  0
LINE
  5
95
  8
DEFAULT
 10
8.249999999999996
 20
14.86
 30
0.0
 11
8.249999999999984
 21
12.85999999999999
 31
0.0
  0
LINE
  5
96
  8
DEFAULT
 10
8.249999999999984
 20
12.85999999999999
 30
0.0
 11
8.249999999999984
 21
14.86
 31
0.0
  0
ARC
  5
97
  8
DEFAULT
 10
4.463783700377239
 20
2.345537113717227
 30
0.0
 40
0.5985440357086692
 50
262.3984266591989
 51
4.933925911970839
  0
ARC
  5
98
  8
DEFAULT
 10
4.432498727885338
 20
2.441455481335642
 30
0.0
 40
0.6291824832057111
 50
355.9497982117379
 51
68.65221949523884
  0
LINE
  5
99
  8
DEFAULT
 10
4.241767176209098
 20
3.07516980465504
 30
0.0
 11
4.661538810824488
 21
3.027468482539653
 31
0.0
  0
LINE
  5
9A
  8
DEFAULT
 10
3.974639772362951
 20
3.07516980465504
 30
0.0
 11
4.241767176209098
 21
3.07516980465504
 31
0.0
  0
LINE
  5
9B
  8
DEFAULT
 10
3.974639772362951
 20
1.752253137988374
 30
0.0
 11
3.974639772362951
 21
3.07516980465504
 31
0.0
  0
LINE
  5
9C
  8
DEFAULT
 10
4.384606135210164
 20
1.752253137988374
 30
0.0
 11
3.974639772362951
 21
1.752253137988374
 31
0.0
  0
LINE
  5
9D
  8
DEFAULT
 10
2.473638169798853
 20
2.706279580296068
 30
0.0
 11
2.347229666193097
 21
1.752253137988374
 31
0.0
  0
LINE
  5
9E
  8
DEFAULT
 10
2.953036457058464
 20
1.752253137988374
 30
0.0
 11
2.473638169798853
 21
2.706279580296068
 31
0.0
  0
LINE
  5
9F
  8
DEFAULT
 10
2.979802198912113
 20
1.752253137988374
 30
0.0
 11
2.953036457058464
 21
1.752253137988374
 31
0.0
  0
LINE
  5
A0
  8
DEFAULT
 10
3.457345434756129
 20
2.704159521535381
 30
0.0
 11
2.979802198912113
 21
1.752253137988374
 31
0.0
  0
LINE
  5
A1
  8
DEFAULT
 10
3.584018945706968
 20
1.752253137988374
 30
0.0
 11
3.457345434756129
 21
2.704159521535381
 31
0.0
  0
LINE
  5
A2
  8
DEFAULT
 10
3.703272250995431
 20
1.752253137988374
 30
0.0
 11
3.584018945706968
 21
1.752253137988374
 31
0.0
  0
LINE
  5
A3
  8
DEFAULT
 10
3.527572381203761
 20
3.07516980465504
 30
0.0
 11
3.703272250995431
 21
1.752253137988374
 31
0.0
  0
LINE
  5
A4
  8
DEFAULT
 10
3.510346903773196
 20
3.07516980465504
 30
0.0
 11
3.527572381203761
 21
3.07516980465504
 31
0.0
  0
LINE
  5
A5
  8
DEFAULT
 10
2.96549180227748
 20
1.989699719184955
 30
0.0
 11
3.510346903773196
 21
3.07516980465504
 31
0.0
  0
LINE
  5
A6
  8
DEFAULT
 10
2.419311664056333
 20
3.07516980465504
 30
0.0
 11
2.96549180227748
 21
1.989699719184955
 31
0.0
  0
LINE
  5
A7
  8
DEFAULT
 10
2.402351193970861
 20
3.07516980465504
 30
0.0
 11
2.419311664056333
 21
3.07516980465504
 31
0.0
  0
LINE
  5
A8
  8
DEFAULT
 10
2.227711353559541
 20
1.752253137988374
 30
0.0
 11
2.402351193970861
 21
3.07516980465504
 31
0.0
  0
LINE
  5
A9
  8
DEFAULT
 10
2.347229666193097
 20
1.752253137988374
 30
0.0
 11
2.227711353559541
 21
1.752253137988374
 31
0.0
  0
LINE
  5
AA
  8
DEFAULT
 10
2.075067122790309
 20
2.193225360210597
 30
0.0
 11
1.566253020226211
 21
2.193225360210597
 31
0.0
  0
LINE
  5
AB
  8
DEFAULT
 10
2.075067122790309
 20
2.328909120894357
 30
0.0
 11
2.075067122790309
 21
2.193225360210597
 31
0.0
  0
LINE
  5
AC
  8
DEFAULT
 10
1.566253020226211
 20
2.328909120894357
 30
0.0
 11
2.075067122790309
 21
2.328909120894357
 31
0.0
  0
LINE
  5
AD
  8
DEFAULT
 10
1.566253020226211
 20
2.193225360210597
 30
0.0
 11
1.566253020226211
 21
2.328909120894357
 31
0.0
  0
ARC
  5
AE
  8
DEFAULT
 10
0.8172826320011805
 20
2.34553711371722
 30
0.0
 40
0.5985440357086638
 50
262.3984266591983
 51
4.933925911971482
  0
ARC
  5
AF
  8
DEFAULT
 10
0.7859976595092673
 20
2.441455481335639
 30
0.0
 40
0.6291824832057161
 50
355.9497982117383
 51
68.65221949523848
  0
LINE
  5
B0
  8
DEFAULT
 10
0.5952661078330332
 20
3.07516980465504
 30
0.0
 11
1.015037742448423
 21
3.027468482539653
 31
0.0
  0
LINE
  5
B1
  8
DEFAULT
 10
0.3281387039868863
 20
3.07516980465504
 30
0.0
 11
0.5952661078330332
 21
3.07516980465504
 31
0.0
  0
LINE
  5
B2
  8
DEFAULT
 10
0.3281387039868863
 20
1.752253137988374
 30
0.0
 11
0.3281387039868863
 21
3.07516980465504
 31
0.0
  0
LINE
  5
B3
  8
DEFAULT
 10
0.7381050668340986
 20
1.752253137988374
 30
0.0
 11
0.3281387039868863
 21
1.752253137988374
 31
0.0
  0
LINE
  5
B4
  8
DEFAULT
 10
-0.401161509688329
 20
2.939486043971279
 30
0.0
 11
-0.6046871507139748
 21
2.939486043971279
 31
0.0
  0
LINE
  5
B5
  8
DEFAULT
 10
-0.401161509688329
 20
1.752253137988374
 30
0.0
 11
-0.401161509688329
 21
2.939486043971279
 31
0.0
  0
LINE
  5
B6
  8
DEFAULT
 10
-0.2824382190900402
 20
1.752253137988374
 30
0.0
 11
-0.401161509688329
 21
1.752253137988374
 31
0.0
  0
LINE
  5
B7
  8
DEFAULT
 10
-0.2824382190900402
 20
3.07516980465504
 30
0.0
 11
-0.2824382190900402
 21
1.752253137988374
 31
0.0
  0
LINE
  5
B8
  8
DEFAULT
 10
-0.5270399986039341
 20
3.07516980465504
 30
0.0
 11
-0.2824382190900402
 21
3.07516980465504
 31
0.0
  0
LINE
  5
B9
  8
DEFAULT
 10
-0.6046871507139748
 20
2.939486043971279
 30
0.0
 11
-0.5270399986039341
 21
3.07516980465504
 31
0.0
  0
LINE
  5
BA
  8
DEFAULT
 10
-1.418789714816536
 20
2.939486043971279
 30
0.0
 11
-1.622315355842171
 21
2.939486043971279
 31
0.0
  0
LINE
  5
BB
  8
DEFAULT
 10
-1.418789714816536
 20
1.752253137988374
 30
0.0
 11
-1.418789714816536
 21
2.939486043971279
 31
0.0
  0
LINE
  5
BC
  8
DEFAULT
 10
-1.300066424218247
 20
1.752253137988374
 30
0.0
 11
-1.418789714816536
 21
1.752253137988374
 31
0.0
  0
LINE
  5
BD
  8
DEFAULT
 10
-1.300066424218247
 20
3.07516980465504
 30
0.0
 11
-1.300066424218247
 21
1.752253137988374
 31
0.0
  0
LINE
  5
BE
  8
DEFAULT
 10
-1.54466820373213
 20
3.07516980465504
 30
0.0
 11
-1.300066424218247
 21
3.07516980465504
 31
0.0
  0
LINE
  5
BF
  8
DEFAULT
 10
-1.622315355842171
 20
2.939486043971279
 30
0.0
 11
-1.54466820373213
 21
3.07516980465504
 31
0.0
  0
ARC
  5
C0
  8
DEFAULT
 10
-2.408073284572459
 20
2.105869729860379
 30
0.0
 40
0.2588796416456415
 50
283.379068604109
 51
20.15755873125017
  0
LINE
  5
C1
  8
DEFAULT
 10
-2.434827875874231
 20
1.873096487347347
 30
0.0
 11
-2.34817047403128
 21
1.854015958501197
 31
0.0
  0
LINE
  5
C2
  8
DEFAULT
 10
-2.603902562038771
 20
1.972739249099487
 30
0.0
 11
-2.434827875874231
 21
1.873096487347347
 31
0.0
  0
LINE
  5
C3
  8
DEFAULT
 10
-2.67386450114132
 20
1.870976428586665
 30
0.0
 11
-2.603902562038771
 21
1.972739249099487
 31
0.0
  0
LINE
  5
C4
  8
DEFAULT
 10
-2.354795657658411
 20
1.718332197817436
 30
0.0
 11
-2.67386450114132
 21
1.870976428586665
 31
0.0
  0
ARC
  5
C5
  8
DEFAULT
 10
-2.376332080673216
 20
2.06706059067883
 30
0.0
 40
0.3493927725411104
 50
273.5339279004803
 51
19.17670261988787
  0
LINE
  5
C6
  8
DEFAULT
 10
-2.046327107978934
 20
3.07516980465504
 30
0.0
 11
-2.046327107978934
 21
2.181830044371921
 31
0.0
  0
LINE
  5
C7
  8
DEFAULT
 10
-2.165050398577223
 20
3.07516980465504
 30
0.0
 11
-2.046327107978934
 21
3.07516980465504
 31
0.0
  0
LINE
  5
C8
  8
DEFAULT
 10
-2.165050398577223
 20
2.195080411626197
 30
0.0
 11
-2.165050398577223
 21
3.07516980465504
 31
0.0
  0
LINE
  5
C9
  8
DEFAULT
 10
-3.589729885756699
 20
1.752253137988374
 30
0.0
 11
-3.708453176354999
 21
1.752253137988374
 31
0.0
  0
LINE
  5
CA
  8
DEFAULT
 10
-3.589729885756699
 20
2.362830061065299
 30
0.0
 11
-3.589729885756699
 21
1.752253137988374
 31
0.0
  0
LINE
  5
CB
  8
DEFAULT
 10
-3.493267212145593
 20
2.362830061065299
 30
0.0
 11
-3.589729885756699
 21
2.362830061065299
 31
0.0
  0
LINE
  5
CC
  8
DEFAULT
 10
-3.007243741258852
 20
1.752253137988374
 30
0.0
 11
-3.493267212145593
 21
2.362830061065299
 31
0.0
  0
LINE
  5
CD
  8
DEFAULT
 10
-2.860429672081496
 20
1.752253137988374
 30
0.0
 11
-3.007243741258852
 21
1.752253137988374
 31
0.0
  0
LINE
  5
CE
  8
DEFAULT
 10
-3.346453142968247
 20
2.362830061065299
 30
0.0
 11
-2.860429672081496
 21
1.752253137988374
 31
0.0
  0
ARC
  5
CF
  8
DEFAULT
 10
-3.261044343495955
 20
2.737190442538291
 30
0.0
 40
0.3839796325899368
 50
257.1481690970148
 51
357.6409135942931
  0
ARC
  5
D0
  8
DEFAULT
 10
-3.21007599677476
 20
2.730953432274914
 30
0.0
 40
0.3328234258163122
 50
358.3525606930081
 51
78.5467005964099
  0
LINE
  5
D1
  8
DEFAULT
 10
-3.44371083861461
 20
3.07516980465504
 30
0.0
 11
-3.143987531322951
 21
3.057149305189228
 31
0.0
  0
LINE
  5
D2
  8
DEFAULT
 10
-3.708453176354999
 20
3.07516980465504
 30
0.0
 11
-3.44371083861461
 21
3.07516980465504
 31
0.0
  0
LINE
  5
D3
  8
DEFAULT
 10
-3.708453176354999
 20
1.752253137988374
 30
0.0
 11
-3.708453176354999
 21
3.07516980465504
 31
0.0
  0
LINE
  5
D4
  8
DEFAULT
 10
-5.200974543876361
 20
1.752253137988374
 30
0.0
 11
-4.573437150713975
 21
3.07516980465504
 31
0.0
  0
LINE
  5
D5
  8
DEFAULT
 10
-5.071385952129568
 20
1.752253137988374
 30
0.0
 11
-5.200974543876361
 21
1.752253137988374
 31
0.0
  0
LINE
  5
D6
  8
DEFAULT
 10
-4.870245377209691
 20
2.176264890125129
 30
0.0
 11
-5.071385952129568
 21
1.752253137988374
 31
0.0
  0
LINE
  5
D7
  8
DEFAULT
 10
-4.27053375528128
 20
2.176264890125129
 30
0.0
 11
-4.870245377209691
 21
2.176264890125129
 31
0.0
  0
LINE
  5
D8
  8
DEFAULT
 10
-4.074958334608207
 20
1.752253137988374
 30
0.0
 11
-4.27053375528128
 21
2.176264890125129
 31
0.0
  0
LINE
  5
D9
  8
DEFAULT
 10
-3.945899757551577
 20
1.752253137988374
 30
0.0
 11
-4.074958334608207
 21
1.752253137988374
 31
0.0
  0
LINE
  5
DA
  8
DEFAULT
 10
-4.556476680628503
 20
3.07516980465504
 30
0.0
 11
-3.945899757551577
 21
1.752253137988374
 31
0.0
  0
LINE
  5
DB
  8
DEFAULT
 10
-4.573437150713975
 20
3.07516980465504
 30
0.0
 11
-4.556476680628503
 21
3.07516980465504
 31
0.0
  0
LINE
  5
DC
  8
DEFAULT
 10
-2.999999999999995
 20
-10.28999999999999
 30
0.0
 11
2.999999999999995
 21
-10.28999999999999
 31
0.0
  0
LINE
  5
DD
  8
DEFAULT
 10
-2.999999999999995
 20
-10.78999999999999
 30
0.0
 11
-2.999999999999995
 21
-10.28999999999999
 31
0.0
  0
LINE
  5
DE
  8
DEFAULT
 10
2.999999999999995
 20
-10.28999999999999
 30
0.0
 11
2.999999999999995
 21
-10.78999999999999
 31
0.0
  0
LINE
  5
DF
  8
DEFAULT
 10
8.249999999999996
 20
14.86
 30
0.0
 11
-8.249999999999996
 21
14.86
 31
0.0
  0
LINE
  5
E0
  8
DEFAULT
 10
8.249999999999984
 20
2.852757723738009
 30
0.0
 11
8.249999999999996
 21
14.86
 31
0.0
  0
LINE
  5
E1
  8
DEFAULT
 10
2.999999999999995
 20
-10.78999999999999
 30
0.0
 11
8.249999999999984
 21
-10.78999999999999
 31
0.0
  0
LINE
  5
E2
  8
DEFAULT
 10
-8.249999999999984
 20
-10.78999999999999
 30
0.0
 11
-2.999999999999995
 21
-10.78999999999999
 31
0.0
  0
LINE
  5
E3
  8
DEFAULT
 10
6.999999999999997
 20
-10.78999999999999
 30
0.0
 11
4.500000000000003
 21
-10.78999999999999
 31
0.0
  0
LINE
  5
E4
  8
DEFAULT
 10
4.500000000000003
 20
-10.78999999999999
 30
0.0
 11
6.999999999999997
 21
-10.78999999999999
 31
0.0
  0
LINE
  5
E5
  8
DEFAULT
 10
-6.999999999999997
 20
-10.78999999999999
 30
0.0
 11
-4.500000000000003
 21
-10.78999999999999
 31
0.0
  0
LINE
  5
E6
  8
DEFAULT
 10
-4.500000000000003
 20
-10.78999999999999
 30
0.0
 11
-6.999999999999997
 21
-10.78999999999999
 31
0.0
  0
LINE
  5
E7
  8
DEFAULT
 10
-4.000000000000004
 20
-10.78999999999999
 30
0.0
 11
-2.999999999999995
 21
-10.78999999999999
 31
0.0
  0
LINE
  5
E8
  8
DEFAULT
 10
-6.0
 20
-10.78999999999999
 30
0.0
 11
-4.000000000000004
 21
-10.78999999999999
 31
0.0
  0
LINE
  5
E9
  8
DEFAULT
 10
-5.000000000000002
 20
-10.78999999999999
 30
0.0
 11
-6.0
 21
-10.78999999999999
 31
0.0
  0
LINE
  5
EA
  8
DEFAULT
 10
-6.0
 20
-10.78999999999999
 30
0.0
 11
-5.000000000000002
 21
-10.78999999999999
 31
0.0
  0
LINE
  5
EB
  8
DEFAULT
 10
6.0
 20
-10.78999999999999
 30
0.0
 11
-6.0
 21
-10.78999999999999
 31
0.0
  0
LINE
  5
EC
  8
DEFAULT
 10
5.000000000000002
 20
-10.78999999999999
 30
0.0
 11
6.0
 21
-10.78999999999999
 31
0.0
  0
LINE
  5
ED
  8
DEFAULT
 10
6.0
 20
-10.78999999999999
 30
0.0
 11
5.000000000000002
 21
-10.78999999999999
 31
0.0
  0
LINE
  5
EE
  8
DEFAULT
 10
4.000000000000004
 20
-10.78999999999999
 30
0.0
 11
6.0
 21
-10.78999999999999
 31
0.0
  0
LINE
  5
EF
  8
DEFAULT
 10
2.999999999999995
 20
-10.78999999999999
 30
0.0
 11
4.000000000000004
 21
-10.78999999999999
 31
0.0
  0
LINE
  5
F0
  8
DEFAULT
 10
2.999999999999995
 20
-10.78999999999999
 30
0.0
 11
2.999999999999995
 21
-10.28999999999999
 31
0.0
  0
LINE
  5
F1
  8
DEFAULT
 10
4.000000000000004
 20
-10.28999999999999
 30
0.0
 11
2.999999999999995
 21
-10.28999999999999
 31
0.0
  0
LINE
  5
F2
  8
DEFAULT
 10
4.000000000000004
 20
-10.78999999999999
 30
0.0
 11
4.000000000000004
 21
-10.28999999999999
 31
0.0
  0
LINE
  5
F3
  8
DEFAULT
 10
4.000000000000004
 20
-10.78999999999999
 30
0.0
 11
4.000000000000004
 21
-10.28999999999999
 31
0.0
  0
LINE
  5
F4
  8
DEFAULT
 10
6.0
 20
-10.28999999999999
 30
0.0
 11
4.000000000000004
 21
-10.28999999999999
 31
0.0
  0
LINE
  5
F5
  8
DEFAULT
 10
6.0
 20
-10.78999999999999
 30
0.0
 11
6.0
 21
-10.28999999999999
 31
0.0
  0
LINE
  5
F6
  8
DEFAULT
 10
6.0
 20
-10.78999999999999
 30
0.0
 11
6.0
 21
-10.28999999999999
 31
0.0
  0
LINE
  5
F7
  8
DEFAULT
 10
5.000000000000002
 20
-10.28999999999999
 30
0.0
 11
6.0
 21
-10.28999999999999
 31
0.0
  0
LINE
  5
F8
  8
DEFAULT
 10
5.000000000000002
 20
-10.78999999999999
 30
0.0
 11
5.000000000000002
 21
-10.28999999999999
 31
0.0
  0
LINE
  5
F9
  8
DEFAULT
 10
5.000000000000002
 20
-10.78999999999999
 30
0.0
 11
5.000000000000002
 21
-10.28999999999999
 31
0.0
  0
LINE
  5
FA
  8
DEFAULT
 10
6.0
 20
-10.28999999999999
 30
0.0
 11
5.000000000000002
 21
-10.28999999999999
 31
0.0
  0
LINE
  5
FB
  8
DEFAULT
 10
6.0
 20
-10.78999999999999
 30
0.0
 11
6.0
 21
-10.28999999999999
 31
0.0
  0
LINE
  5
FC
  8
DEFAULT
 10
6.0
 20
-10.78999999999999
 30
0.0
 11
6.0
 21
-10.28999999999999
 31
0.0
  0
LINE
  5
FD
  8
DEFAULT
 10
-6.0
 20
-10.28999999999999
 30
0.0
 11
6.0
 21
-10.28999999999999
 31
0.0
  0
LINE
  5
FE
  8
DEFAULT
 10
-6.0
 20
-10.78999999999999
 30
0.0
 11
-6.0
 21
-10.28999999999999
 31
0.0
  0
LINE
  5
FF
  8
DEFAULT
 10
-6.0
 20
-10.78999999999999
 30
0.0
 11
-6.0
 21
-10.28999999999999
 31
0.0
  0
LINE
  5
100
  8
DEFAULT
 10
-5.000000000000002
 20
-10.28999999999999
 30
0.0
 11
-6.0
 21
-10.28999999999999
 31
0.0
  0
LINE
  5
101
  8
DEFAULT
 10
-5.000000000000002
 20
-10.78999999999999
 30
0.0
 11
-5.000000000000002
 21
-10.28999999999999
 31
0.0
  0
LINE
  5
102
  8
DEFAULT
 10
-5.000000000000002
 20
-10.78999999999999
 30
0.0
 11
-5.000000000000002
 21
-10.28999999999999
 31
0.0
  0
LINE
  5
103
  8
DEFAULT
 10
-6.0
 20
-10.28999999999999
 30
0.0
 11
-5.000000000000002
 21
-10.28999999999999
 31
0.0
  0
LINE
  5
104
  8
DEFAULT
 10
-6.0
 20
-10.78999999999999
 30
0.0
 11
-6.0
 21
-10.28999999999999
 31
0.0
  0
LINE
  5
105
  8
DEFAULT
 10
-6.0
 20
-10.78999999999999
 30
0.0
 11
-6.0
 21
-10.28999999999999
 31
0.0
  0
LINE
  5
106
  8
DEFAULT
 10
-4.000000000000004
 20
-10.28999999999999
 30
0.0
 11
-6.0
 21
-10.28999999999999
 31
0.0
  0
LINE
  5
107
  8
DEFAULT
 10
-4.000000000000004
 20
-10.78999999999999
 30
0.0
 11
-4.000000000000004
 21
-10.28999999999999
 31
0.0
  0
LINE
  5
108
  8
DEFAULT
 10
-4.000000000000004
 20
-10.78999999999999
 30
0.0
 11
-4.000000000000004
 21
-10.28999999999999
 31
0.0
  0
LINE
  5
109
  8
DEFAULT
 10
-2.999999999999995
 20
-10.28999999999999
 30
0.0
 11
-4.000000000000004
 21
-10.28999999999999
 31
0.0
  0
LINE
  5
10A
  8
DEFAULT
 10
-2.999999999999995
 20
-10.78999999999999
 30
0.0
 11
-2.999999999999995
 21
-10.28999999999999
 31
0.0
  0
LINE
  5
10B
  8
DEFAULT
 10
-6.999999999999997
 20
-10.78999999999999
 30
0.0
 11
-6.999999999999997
 21
-10.79099999999999
 31
0.0
  0
LINE
  5
10C
  8
DEFAULT
 10
-6.999999999999997
 20
-10.79099999999999
 30
0.0
 11
-6.999999999999997
 21
-10.78999999999999
 31
0.0
  0
LINE
  5
10D
  8
DEFAULT
 10
-6.999999999999997
 20
-10.79099999999999
 30
0.0
 11
-4.500000000000003
 21
-10.79099999999999
 31
0.0
  0
LINE
  5
10E
  8
DEFAULT
 10
-4.500000000000003
 20
-10.79099999999999
 30
0.0
 11
-4.500000000000003
 21
-10.78999999999999
 31
0.0
  0
LINE
  5
10F
  8
DEFAULT
 10
-4.500000000000003
 20
-10.79099999999999
 30
0.0
 11
-4.500000000000003
 21
-10.78999999999999
 31
0.0
  0
LINE
  5
110
  8
DEFAULT
 10
-4.500000000000003
 20
-10.79099999999999
 30
0.0
 11
-6.999999999999997
 21
-10.79099999999999
 31
0.0
  0
LINE
  5
111
  8
DEFAULT
 10
6.999999999999997
 20
-10.79099999999999
 30
0.0
 11
4.500000000000003
 21
-10.79099999999999
 31
0.0
  0
LINE
  5
112
  8
DEFAULT
 10
6.999999999999997
 20
-10.78999999999999
 30
0.0
 11
6.999999999999997
 21
-10.79099999999999
 31
0.0
  0
LINE
  5
113
  8
DEFAULT
 10
4.500000000000003
 20
-10.79099999999999
 30
0.0
 11
4.500000000000003
 21
-10.78999999999999
 31
0.0
  0
LINE
  5
114
  8
DEFAULT
 10
4.500000000000003
 20
-10.79099999999999
 30
0.0
 11
4.500000000000003
 21
-10.78999999999999
 31
0.0
  0
LINE
  5
115
  8
DEFAULT
 10
4.500000000000003
 20
-10.79099999999999
 30
0.0
 11
6.999999999999997
 21
-10.79099999999999
 31
0.0
  0
LINE
  5
116
  8
DEFAULT
 10
6.999999999999997
 20
-10.79099999999999
 30
0.0
 11
6.999999999999997
 21
-10.78999999999999
 31
0.0
  0
LINE
  5
117
  8
DEFAULT
 10
-4.573437150713952
 20
3.07516980465504
 30
0.0
 11
-4.556476680628503
 21
3.07516980465504
 31
0.0
  0
LINE
  5
118
  8
DEFAULT
 10
-4.556476680628503
 20
3.07516980465504
 30
0.0
 11
-3.945899757551577
 21
1.752253137988374
 31
0.0
  0
LINE
  5
119
  8
DEFAULT
 10
-3.945899757551577
 20
1.752253137988374
 30
0.0
 11
-4.074958334608207
 21
1.752253137988374
 31
0.0
  0
LINE
  5
11A
  8
DEFAULT
 10
-4.074958334608207
 20
1.752253137988374
 30
0.0
 11
-4.27053375528128
 21
2.176264890125129
 31
0.0
  0
LINE
  5
11B
  8
DEFAULT
 10
-4.27053375528128
 20
2.176264890125129
 30
0.0
 11
-4.870245377209691
 21
2.176264890125129
 31
0.0
  0
LINE
  5
11C
  8
DEFAULT
 10
-4.870245377209691
 20
2.176264890125129
 30
0.0
 11
-5.071385952129568
 21
1.752253137988374
 31
0.0
  0
LINE
  5
11D
  8
DEFAULT
 10
-5.071385952129568
 20
1.752253137988374
 30
0.0
 11
-5.200974543876361
 21
1.752253137988374
 31
0.0
  0
LINE
  5
11E
  8
DEFAULT
 10
-5.200974543876361
 20
1.752253137988374
 30
0.0
 11
-4.573437150713952
 21
3.07516980465504
 31
0.0
  0
LINE
  5
11F
  8
DEFAULT
 10
-4.805848592353934
 20
2.311948650808887
 30
0.0
 11
-4.566281952396658
 21
2.817317657886878
 31
0.0
  0
LINE
  5
120
  8
DEFAULT
 10
-4.333075488721443
 20
2.311948650808887
 30
0.0
 11
-4.805848592353934
 21
2.311948650808887
 31
0.0
  0
LINE
  5
121
  8
DEFAULT
 10
-4.566281952396658
 20
2.817317657886878
 30
0.0
 11
-4.333075488721443
 21
2.311948650808887
 31
0.0
  0
LINE
  5
122
  8
DEFAULT
 10
-4.566281952396658
 20
2.817317657886878
 30
0.0
 11
-4.333075488721443
 21
2.311948650808887
 31
0.0
  0
LINE
  5
123
  8
DEFAULT
 10
-4.333075488721443
 20
2.311948650808887
 30
0.0
 11
-4.805848592353934
 21
2.31194865080889
 31
0.0
  0
LINE
  5
124
  8
DEFAULT
 10
-4.805848592353934
 20
2.31194865080889
 30
0.0
 11
-4.566281952396658
 21
2.817317657886878
 31
0.0
  0
LINE
  5
125
  8
DEFAULT
 10
-3.708453176354999
 20
1.752253137988374
 30
0.0
 11
-3.708453176354999
 21
3.07516980465504
 31
0.0
  0
LINE
  5
126
  8
DEFAULT
 10
-3.708453176354999
 20
3.07516980465504
 30
0.0
 11
-3.44371083861461
 21
3.07516980465504
 31
0.0
  0
LINE
  5
127
  8
DEFAULT
 10
-3.44371083861461
 20
3.07516980465504
 30
0.0
 11
-3.143987531322951
 21
3.057149305189231
 31
0.0
  0
ARC
  5
128
  8
DEFAULT
 10
-3.210075996774766
 20
2.730953432274913
 30
0.0
 40
0.3328234258163177
 50
358.3525606930082
 51
78.54670059640915
  0
ARC
  5
129
  8
DEFAULT
 10
-3.261044343495954
 20
2.737190442538291
 30
0.0
 40
0.3839796325899359
 50
257.1481690970147
 51
357.640913594293
  0
LINE
  5
12A
  8
DEFAULT
 10
-3.346453142968247
 20
2.362830061065299
 30
0.0
 11
-2.860429672081496
 21
1.752253137988374
 31
0.0
  0
LINE
  5
12B
  8
DEFAULT
 10
-2.860429672081496
 20
1.752253137988374
 30
0.0
 11
-3.007243741258852
 21
1.752253137988374
 31
0.0
  0
LINE
  5
12C
  8
DEFAULT
 10
-3.007243741258852
 20
1.752253137988374
 30
0.0
 11
-3.493267212145593
 21
2.362830061065299
 31
0.0
  0
LINE
  5
12D
  8
DEFAULT
 10
-3.493267212145593
 20
2.362830061065299
 30
0.0
 11
-3.589729885756699
 21
2.362830061065299
 31
0.0
  0
LINE
  5
12E
  8
DEFAULT
 10
-3.589729885756699
 20
2.362830061065299
 30
0.0
 11
-3.589729885756699
 21
1.752253137988374
 31
0.0
  0
LINE
  5
12F
  8
DEFAULT
 10
-3.589729885756699
 20
1.752253137988374
 30
0.0
 11
-3.708453176354999
 21
1.752253137988374
 31
0.0
  0
LINE
  5
130
  8
DEFAULT
 10
-3.589729885756699
 20
2.498513821749061
 30
0.0
 11
-3.589729885756699
 21
2.939486043971279
 31
0.0
  0
LINE
  5
131
  8
DEFAULT
 10
-3.347513172348585
 20
2.496658770333459
 30
0.0
 11
-3.589729885756699
 21
2.498513821749061
 31
0.0
  0
ARC
  5
132
  8
DEFAULT
 10
-3.268388147253433
 20
2.759988598060256
 30
0.0
 40
0.2749606658541052
 50
253.2755920992579
 51
351.9849620026114
  0
ARC
  5
133
  8
DEFAULT
 10
-3.261312228689911
 20
2.683964783005726
 30
0.0
 40
0.2678629825404344
 50
8.087684852306904
 51
107.4602686060486
  0
LINE
  5
134
  8
DEFAULT
 10
-3.589729885756699
 20
2.939486043971279
 30
0.0
 11
-3.341683010756722
 21
2.939486043971279
 31
0.0
  0
LINE
  5
135
  8
DEFAULT
 10
-3.589729885756699
 20
2.939486043971279
 30
0.0
 11
-3.341683010756722
 21
2.939486043971279
 31
0.0
  0
ARC
  5
136
  8
DEFAULT
 10
-3.261312228689911
 20
2.683964783005725
 30
0.0
 40
0.2678629825404349
 50
8.087684852306984
 51
107.4602686060487
  0
ARC
  5
137
  8
DEFAULT
 10
-3.268388147253433
 20
2.759988598060257
 30
0.0
 40
0.2749606658541057
 50
253.275592099258
 51
351.9849620026113
  0
LINE
  5
138
  8
DEFAULT
 10
-3.347513172348585
 20
2.496658770333459
 30
0.0
 11
-3.589729885756699
 21
2.498513821749061
 31
0.0
  0
LINE
  5
139
  8
DEFAULT
 10
-3.589729885756699
 20
2.498513821749061
 30
0.0
 11
-3.589729885756699
 21
2.939486043971279
 31
0.0
  0
LINE
  5
13A
  8
DEFAULT
 10
-2.165050398577223
 20
2.195080411626197
 30
0.0
 11
-2.165050398577223
 21
3.07516980465504
 31
0.0
  0
LINE
  5
13B
  8
DEFAULT
 10
-2.165050398577223
 20
3.07516980465504
 30
0.0
 11
-2.046327107978934
 21
3.07516980465504
 31
0.0
  0
LINE
  5
13C
  8
DEFAULT
 10
-2.046327107978934
 20
3.07516980465504
 30
0.0
 11
-2.046327107978934
 21
2.181830044371921
 31
0.0
  0
ARC
  5
13D
  8
DEFAULT
 10
-2.376332080673215
 20
2.06706059067883
 30
0.0
 40
0.3493927725411098
 50
273.5339279004801
 51
19.17670261988805
  0
LINE
  5
13E
  8
DEFAULT
 10
-2.354795657658411
 20
1.718332197817436
 30
0.0
 11
-2.67386450114132
 21
1.870976428586665
 31
0.0
  0
LINE
  5
13F
  8
DEFAULT
 10
-2.67386450114132
 20
1.870976428586665
 30
0.0
 11
-2.603902562038771
 21
1.972739249099483
 31
0.0
  0
LINE
  5
140
  8
DEFAULT
 10
-2.603902562038771
 20
1.972739249099483
 30
0.0
 11
-2.434827875874231
 21
1.873096487347347
 31
0.0
  0
LINE
  5
141
  8
DEFAULT
 10
-2.434827875874231
 20
1.873096487347347
 30
0.0
 11
-2.34817047403128
 21
1.854015958501197
 31
0.0
  0
ARC
  5
142
  8
DEFAULT
 10
-2.408073284572459
 20
2.105869729860379
 30
0.0
 40
0.2588796416456409
 50
283.3790686041089
 51
20.15755873125029
  0
LINE
  5
143
  8
DEFAULT
 10
-1.622315355842171
 20
2.939486043971279
 30
0.0
 11
-1.54466820373213
 21
3.07516980465504
 31
0.0
  0
LINE
  5
144
  8
DEFAULT
 10
-1.54466820373213
 20
3.07516980465504
 30
0.0
 11
-1.300066424218247
 21
3.07516980465504
 31
0.0
  0
LINE
  5
145
  8
DEFAULT
 10
-1.300066424218247
 20
3.07516980465504
 30
0.0
 11
-1.300066424218247
 21
1.752253137988374
 31
0.0
  0
LINE
  5
146
  8
DEFAULT
 10
-1.300066424218247
 20
1.752253137988374
 30
0.0
 11
-1.418789714816536
 21
1.752253137988374
 31
0.0
  0
LINE
  5
147
  8
DEFAULT
 10
-1.418789714816536
 20
1.752253137988374
 30
0.0
 11
-1.418789714816536
 21
2.939486043971279
 31
0.0
  0
LINE
  5
148
  8
DEFAULT
 10
-1.418789714816536
 20
2.939486043971279
 30
0.0
 11
-1.622315355842171
 21
2.939486043971279
 31
0.0
  0
LINE
  5
149
  8
DEFAULT
 10
-0.6046871507139748
 20
2.939486043971279
 30
0.0
 11
-0.5270399986039341
 21
3.07516980465504
 31
0.0
  0
LINE
  5
14A
  8
DEFAULT
 10
-0.5270399986039341
 20
3.07516980465504
 30
0.0
 11
-0.2824382190900402
 21
3.07516980465504
 31
0.0
  0
LINE
  5
14B
  8
DEFAULT
 10
-0.2824382190900402
 20
3.07516980465504
 30
0.0
 11
-0.2824382190900402
 21
1.752253137988374
 31
0.0
  0
LINE
  5
14C
  8
DEFAULT
 10
-0.2824382190900402
 20
1.752253137988374
 30
0.0
 11
-0.401161509688329
 21
1.752253137988374
 31
0.0
  0
LINE
  5
14D
  8
DEFAULT
 10
-0.401161509688329
 20
1.752253137988374
 30
0.0
 11
-0.401161509688329
 21
2.939486043971279
 31
0.0
  0
LINE
  5
14E
  8
DEFAULT
 10
-0.401161509688329
 20
2.939486043971279
 30
0.0
 11
-0.6046871507139748
 21
2.939486043971279
 31
0.0
  0
LINE
  5
14F
  8
DEFAULT
 10
0.7381050668340986
 20
1.752253137988374
 30
0.0
 11
0.3281387039868863
 21
1.752253137988374
 31
0.0
  0
LINE
  5
150
  8
DEFAULT
 10
0.3281387039868863
 20
1.752253137988374
 30
0.0
 11
0.3281387039868863
 21
3.07516980465504
 31
0.0
  0
LINE
  5
151
  8
DEFAULT
 10
0.3281387039868863
 20
3.07516980465504
 30
0.0
 11
0.5952661078330332
 21
3.07516980465504
 31
0.0
  0
LINE
  5
152
  8
DEFAULT
 10
0.5952661078330332
 20
3.07516980465504
 30
0.0
 11
1.015037742448423
 21
3.027468482539653
 31
0.0
  0
ARC
  5
153
  8
DEFAULT
 10
0.7859976595092648
 20
2.441455481335638
 30
0.0
 40
0.6291824832057186
 50
355.9497982117384
 51
68.65221949523833
  0
ARC
  5
154
  8
DEFAULT
 10
0.8172826320011805
 20
2.34553711371722
 30
0.0
 40
0.5985440357086638
 50
262.3984266591983
 51
4.933925911971482
  0
LINE
  5
155
  8
DEFAULT
 10
0.5987112033191618
 20
1.887936898672136
 30
0.0
 11
0.4468619945851638
 21
1.887936898672136
 31
0.0
  0
LINE
  5
156
  8
DEFAULT
 10
0.9768766847561293
 20
1.921592831497989
 30
0.0
 11
0.5987112033191618
 21
1.887936898672136
 31
0.0
  0
ARC
  5
157
  8
DEFAULT
 10
0.82939504775621
 20
2.364330100793767
 30
0.0
 40
0.466655250560474
 50
288.4235976196579
 51
4.049072086251344
  0
ARC
  5
158
  8
DEFAULT
 10
0.8021393547355743
 20
2.430088778453317
 30
0.0
 40
0.4938371308743496
 50
356.1907850133645
 51
73.01486370014494
  0
LINE
  5
159
  8
DEFAULT
 10
0.5398795727101638
 20
2.939486043971279
 30
0.0
 11
0.9464008400712925
 21
2.902385015659313
 31
0.0
  0
LINE
  5
15A
  8
DEFAULT
 10
0.4468619945851638
 20
2.939486043971279
 30
0.0
 11
0.5398795727101638
 21
2.939486043971279
 31
0.0
  0
LINE
  5
15B
  8
DEFAULT
 10
0.4468619945851638
 20
1.887936898672136
 30
0.0
 11
0.4468619945851638
 21
2.939486043971279
 31
0.0
  0
LINE
  5
15C
  8
DEFAULT
 10
0.4468619945851638
 20
1.887936898672136
 30
0.0
 11
0.4468619945851638
 21
2.939486043971279
 31
0.0
  0
LINE
  5
15D
  8
DEFAULT
 10
0.4468619945851638
 20
2.939486043971279
 30
0.0
 11
0.5398795727101638
 21
2.939486043971279
 31
0.0
  0
LINE
  5
15E
  8
DEFAULT
 10
0.5398795727101638
 20
2.939486043971279
 30
0.0
 11
0.9464008400712925
 21
2.902385015659313
 31
0.0
  0
ARC
  5
15F
  8
DEFAULT
 10
0.8021393547355743
 20
2.430088778453317
 30
0.0
 40
0.4938371308743496
 50
356.1907850133645
 51
73.01486370014494
  0
ARC
  5
160
  8
DEFAULT
 10
0.8293950477562173
 20
2.364330100793766
 30
0.0
 40
0.4666552505604667
 50
288.4235976196572
 51
4.049072086251571
  0
LINE
  5
161
  8
DEFAULT
 10
0.9768766847561293
 20
1.921592831497993
 30
0.0
 11
0.5987112033191618
 21
1.887936898672136
 31
0.0
  0
LINE
  5
162
  8
DEFAULT
 10
0.5987112033191618
 20
1.887936898672136
 30
0.0
 11
0.4468619945851638
 21
1.887936898672136
 31
0.0
  0
LINE
  5
163
  8
DEFAULT
 10
1.566253020226211
 20
2.193225360210597
 30
0.0
 11
1.566253020226211
 21
2.328909120894357
 31
0.0
  0
LINE
  5
164
  8
DEFAULT
 10
1.566253020226211
 20
2.328909120894357
 30
0.0
 11
2.075067122790309
 21
2.328909120894357
 31
0.0
  0
LINE
  5
165
  8
DEFAULT
 10
2.075067122790309
 20
2.328909120894357
 30
0.0
 11
2.075067122790309
 21
2.193225360210597
 31
0.0
  0
LINE
  5
166
  8
DEFAULT
 10
2.075067122790309
 20
2.193225360210597
 30
0.0
 11
1.566253020226211
 21
2.193225360210597
 31
0.0
  0
LINE
  5
167
  8
DEFAULT
 10
2.347229666193097
 20
1.752253137988374
 30
0.0
 11
2.227711353559541
 21
1.752253137988374
 31
0.0
  0
LINE
  5
168
  8
DEFAULT
 10
2.227711353559541
 20
1.752253137988374
 30
0.0
 11
2.402351193970861
 21
3.07516980465504
 31
0.0
  0
LINE
  5
169
  8
DEFAULT
 10
2.402351193970861
 20
3.07516980465504
 30
0.0
 11
2.419311664056333
 21
3.07516980465504
 31
0.0
  0
LINE
  5
16A
  8
DEFAULT
 10
2.419311664056333
 20
3.07516980465504
 30
0.0
 11
2.96549180227748
 21
1.989699719184955
 31
0.0
  0
LINE
  5
16B
  8
DEFAULT
 10
2.96549180227748
 20
1.989699719184955
 30
0.0
 11
3.510346903773196
 21
3.07516980465504
 31
0.0
  0
LINE
  5
16C
  8
DEFAULT
 10
3.510346903773196
 20
3.07516980465504
 30
0.0
 11
3.527572381203761
 21
3.07516980465504
 31
0.0
  0
LINE
  5
16D
  8
DEFAULT
 10
3.527572381203761
 20
3.07516980465504
 30
0.0
 11
3.703272250995431
 21
1.752253137988374
 31
0.0
  0
LINE
  5
16E
  8
DEFAULT
 10
3.703272250995431
 20
1.752253137988374
 30
0.0
 11
3.584018945706968
 21
1.752253137988374
 31
0.0
  0
LINE
  5
16F
  8
DEFAULT
 10
3.584018945706968
 20
1.752253137988374
 30
0.0
 11
3.457345434756129
 21
2.704159521535381
 31
0.0
  0
LINE
  5
170
  8
DEFAULT
 10
3.457345434756129
 20
2.704159521535381
 30
0.0
 11
2.979802198912113
 21
1.752253137988374
 31
0.0
  0
LINE
  5
171
  8
DEFAULT
 10
2.979802198912113
 20
1.752253137988374
 30
0.0
 11
2.953036457058464
 21
1.752253137988374
 31
0.0
  0
LINE
  5
172
  8
DEFAULT
 10
2.953036457058464
 20
1.752253137988374
 30
0.0
 11
2.473638169798853
 21
2.706279580296068
 31
0.0
  0
LINE
  5
173
  8
DEFAULT
 10
2.473638169798853
 20
2.706279580296068
 30
0.0
 11
2.347229666193097
 21
1.752253137988374
 31
0.0
  0
LINE
  5
174
  8
DEFAULT
 10
4.384606135210164
 20
1.752253137988374
 30
0.0
 11
3.974639772362951
 21
1.752253137988374
 31
0.0
  0
LINE
  5
175
  8
DEFAULT
 10
3.974639772362951
 20
1.752253137988374
 30
0.0
 11
3.974639772362951
 21
3.07516980465504
 31
0.0
  0
LINE
  5
176
  8
DEFAULT
 10
3.974639772362951
 20
3.07516980465504
 30
0.0
 11
4.241767176209098
 21
3.07516980465504
 31
0.0
  0
LINE
  5
177
  8
DEFAULT
 10
4.241767176209098
 20
3.07516980465504
 30
0.0
 11
4.661538810824488
 21
3.027468482539653
 31
0.0
  0
ARC
  5
178
  8
DEFAULT
 10
4.432498727885331
 20
2.441455481335638
 30
0.0
 40
0.629182483205717
 50
355.9497982117383
 51
68.65221949523844
  0
ARC
  5
179
  8
DEFAULT
 10
4.463783700377237
 20
2.345537113717228
 30
0.0
 40
0.5985440357086709
 50
262.3984266591992
 51
4.933925911970654
  0
LINE
  5
17A
  8
DEFAULT
 10
4.245212271695227
 20
1.887936898672136
 30
0.0
 11
4.093363062961229
 21
1.887936898672136
 31
0.0
  0
LINE
  5
17B
  8
DEFAULT
 10
4.623377753132194
 20
1.921592831497989
 30
0.0
 11
4.245212271695227
 21
1.887936898672136
 31
0.0
  0
ARC
  5
17C
  8
DEFAULT
 10
4.475896116132275
 20
2.364330100793767
 30
0.0
 40
0.466655250560474
 50
288.4235976196579
 51
4.049072086251344
  0
ARC
  5
17D
  8
DEFAULT
 10
4.448640423111615
 20
2.430088778453301
 30
0.0
 40
0.4938371308743728
 50
356.1907850133666
 51
73.01486370014284
  0
LINE
  5
17E
  8
DEFAULT
 10
4.186380641086229
 20
2.939486043971279
 30
0.0
 11
4.592901908447358
 21
2.902385015659313
 31
0.0
  0
LINE
  5
17F
  8
DEFAULT
 10
4.093363062961229
 20
2.939486043971279
 30
0.0
 11
4.186380641086229
 21
2.939486043971279
 31
0.0
  0
LINE
  5
180
  8
DEFAULT
 10
4.093363062961229
 20
1.887936898672136
 30
0.0
 11
4.093363062961229
 21
2.939486043971279
 31
0.0
  0
LINE
  5
181
  8
DEFAULT
 10
4.093363062961229
 20
1.887936898672136
 30
0.0
 11
4.093363062961229
 21
2.939486043971279
 31
0.0
  0
LINE
  5
182
  8
DEFAULT
 10
4.093363062961229
 20
2.939486043971279
 30
0.0
 11
4.186380641086229
 21
2.939486043971279
 31
0.0
  0
LINE
  5
183
  8
DEFAULT
 10
4.186380641086229
 20
2.939486043971279
 30
0.0
 11
4.592901908447358
 21
2.902385015659313
 31
0.0
  0
ARC
  5
184
  8
DEFAULT
 10
4.448640423111612
 20
2.430088778453298
 30
0.0
 40
0.4938371308743763
 50
356.190785013367
 51
73.01486370014253
  0
ARC
  5
185
  8
DEFAULT
 10
4.475896116132281
 20
2.364330100793766
 30
0.0
 40
0.4666552505604678
 50
288.4235976196574
 51
4.049072086251561
  0
LINE
  5
186
  8
DEFAULT
 10
4.623377753132194
 20
1.921592831497993
 30
0.0
 11
4.245212271695227
 21
1.887936898672136
 31
0.0
  0
LINE
  5
187
  8
DEFAULT
 10
4.245212271695227
 20
1.887936898672136
 30
0.0
 11
4.093363062961229
 21
1.887936898672136
 31
0.0
  0
LINE
  5
188
  8
DEFAULT
 10
8.240000000000004
 20
13.31928707458083
 30
0.0
 11
8.249999999999984
 21
13.31928707458083
 31
0.0
  0
LINE
  5
189
  8
DEFAULT
 10
8.249999999999984
 20
13.31928707458083
 30
0.0
 11
8.240000000000004
 21
13.31928707458083
 31
0.0
  0
LINE
  5
18A
  8
DEFAULT
 10
8.240000000000004
 20
14.34904545958405
 30
0.0
 11
8.240000000000004
 21
13.31928707458083
 31
0.0
  0
LINE
  5
18B
  8
DEFAULT
 10
8.249999999999984
 20
14.34904545958405
 30
0.0
 11
8.240000000000004
 21
14.34904545958405
 31
0.0
  0
LINE
  5
18C
  8
DEFAULT
 10
8.249999999999984
 20
14.34904545958405
 30
0.0
 11
8.240000000000004
 21
14.34904545958405
 31
0.0
  0
LINE
  5
18D
  8
DEFAULT
 10
8.240000000000004
 20
13.31928707458083
 30
0.0
 11
8.240000000000004
 21
14.34904545958405
 31
0.0
  0
LINE
  5
18E
  8
DEFAULT
 10
-8.249999999999984
 20
13.31928707458083
 30
0.0
 11
-8.240000000000004
 21
13.31928707458083
 31
0.0
  0
LINE
  5
18F
  8
DEFAULT
 10
-8.240000000000004
 20
13.31928707458083
 30
0.0
 11
-8.249999999999984
 21
13.31928707458083
 31
0.0
  0
LINE
  5
190
  8
DEFAULT
 10
-8.240000000000004
 20
13.31928707458083
 30
0.0
 11
-8.240000000000004
 21
14.34904545958405
 31
0.0
  0
LINE
  5
191
  8
DEFAULT
 10
-8.240000000000004
 20
14.34904545958405
 30
0.0
 11
-8.249999999999984
 21
14.34904545958405
 31
0.0
  0
LINE
  5
192
  8
DEFAULT
 10
-8.240000000000004
 20
14.34904545958405
 30
0.0
 11
-8.249999999999984
 21
14.34904545958405
 31
0.0
  0
LINE
  5
193
  8
DEFAULT
 10
-8.240000000000004
 20
14.34904545958405
 30
0.0
 11
-8.240000000000004
 21
13.31928707458083
 31
0.0
  0
LINE
  5
194
  8
DEFAULT
 10
-8.249999999999984
 20
3.749999999999998
 30
0.0
 11
-7.919999999999995
 21
3.750000000000007
 31
0.0
  0
LINE
  5
195
  8
DEFAULT
 10
-7.919999999999995
 20
2.550000000000004
 30
0.0
 11
-7.919999999999995
 21
2.350000000000007
 31
0.0
  0
LINE
  5
196
  8
DEFAULT
 10
-7.919999999999995
 20
3.750000000000007
 30
0.0
 11
-7.919999999999995
 21
3.550000000000004
 31
0.0
  0
LINE
  5
197
  8
DEFAULT
 10
-7.919999999999995
 20
3.550000000000004
 30
0.0
 11
-7.919999999999995
 21
2.550000000000004
 31
0.0
  0
LINE
  5
198
  8
DEFAULT
 10
-7.919999999999995
 20
2.350000000000007
 30
0.0
 11
-8.249999999999984
 21
2.350000000000007
 31
0.0
  0
LINE
  5
199
  8
DEFAULT
 10
-7.919999999999995
 20
2.550000000000004
 30
0.0
 11
-8.249999999999984
 21
2.550000000000004
 31
0.0
  0
LINE
  5
19A
  8
DEFAULT
 10
-8.249999999999984
 20
3.550000000000004
 30
0.0
 11
-7.919999999999995
 21
3.550000000000004
 31
0.0
  0
LINE
  5
19B
  8
DEFAULT
 10
7.919999999999995
 20
2.350000000000007
 30
0.0
 11
8.249999999999984
 21
2.350000000000012
 31
0.0
  0
LINE
  5
19C
  8
DEFAULT
 10
7.919999999999995
 20
2.550000000000004
 30
0.0
 11
7.919999999999995
 21
2.350000000000007
 31
0.0
  0
LINE
  5
19D
  8
DEFAULT
 10
7.919999999999995
 20
3.750000000000007
 30
0.0
 11
7.919999999999995
 21
3.550000000000004
 31
0.0
  0
LINE
  5
19E
  8
DEFAULT
 10
7.919999999999995
 20
3.550000000000004
 30
0.0
 11
7.919999999999995
 21
2.550000000000004
 31
0.0
  0
LINE
  5
19F
  8
DEFAULT
 10
8.249999999999984
 20
3.749999999999998
 30
0.0
 11
7.919999999999995
 21
3.750000000000007
 31
0.0
  0
LINE
  5
1A0
  8
DEFAULT
 10
8.249999999999984
 20
2.550000000000004
 30
0.0
 11
7.919999999999995
 21
2.550000000000004
 31
0.0
  0
LINE
  5
1A1
  8
DEFAULT
 10
7.919999999999995
 20
3.550000000000004
 30
0.0
 11
8.249999999999984
 21
3.550000000000008
 31
0.0
  0
ARC
  5
1A2
  8
DEFAULT
 10
-5.715000000000003
 20
0.0000000000000049
 30
0.0
 40
1.6
 50
89.99999999999997
 51
270.0
  0
ARC
  5
1A3
  8
DEFAULT
 10
5.715000000000002
 20
0.0000000000000018
 30
0.0
 40
1.6
 50
90.00000000000004
 51
269.9999999999999
  0
LINE
  5
1A4
  8
DEFAULT
 10
-5.235
 20
13.94500000000001
 30
0.0
 11
-5.235
 21
13.49500000000001
 31
0.0
  0
LINE
  5
1A5
  8
DEFAULT
 10
-5.235
 20
13.49500000000001
 30
0.0
 11
-5.685
 21
13.49500000000001
 31
0.0
  0
LINE
  5
1A6
  8
DEFAULT
 10
-5.685
 20
13.49500000000001
 30
0.0
 11
-5.685
 21
13.94500000000001
 31
0.0
  0
LINE
  5
1A7
  8
DEFAULT
 10
-5.685
 20
13.94500000000001
 30
0.0
 11
-5.235
 21
13.94500000000001
 31
0.0
  0
LINE
  5
1A8
  8
DEFAULT
 10
-2.694999999999999
 20
13.94500000000001
 30
0.0
 11
-2.694999999999999
 21
13.49500000000001
 31
0.0
  0
LINE
  5
1A9
  8
DEFAULT
 10
-2.694999999999999
 20
13.49500000000001
 30
0.0
 11
-3.144999999999998
 21
13.49500000000001
 31
0.0
  0
LINE
  5
1AA
  8
DEFAULT
 10
-3.144999999999998
 20
13.49500000000001
 30
0.0
 11
-3.144999999999998
 21
13.94500000000001
 31
0.0
  0
LINE
  5
1AB
  8
DEFAULT
 10
-3.144999999999998
 20
13.94500000000001
 30
0.0
 11
-2.694999999999999
 21
13.94500000000001
 31
0.0
  0
LINE
  5
1AC
  8
DEFAULT
 10
3.144999999999998
 20
13.94500000000001
 30
0.0
 11
3.144999999999998
 21
13.49500000000001
 31
0.0
  0
LINE
  5
1AD
  8
DEFAULT
 10
3.144999999999998
 20
13.49500000000001
 30
0.0
 11
2.694999999999999
 21
13.49500000000001
 31
0.0
  0
LINE
  5
1AE
  8
DEFAULT
 10
2.694999999999999
 20
13.49500000000001
 30
0.0
 11
2.694999999999999
 21
13.94500000000001
 31
0.0
  0
LINE
  5
1AF
  8
DEFAULT
 10
2.694999999999999
 20
13.94500000000001
 30
0.0
 11
3.144999999999998
 21
13.94500000000001
 31
0.0
  0
LINE
  5
1B0
  8
DEFAULT
 10
5.685
 20
13.94500000000001
 30
0.0
 11
5.685
 21
13.49500000000001
 31
0.0
  0
LINE
  5
1B1
  8
DEFAULT
 10
5.685
 20
13.49500000000001
 30
0.0
 11
5.235
 21
13.49500000000001
 31
0.0
  0
LINE
  5
1B2
  8
DEFAULT
 10
5.235
 20
13.49500000000001
 30
0.0
 11
5.235
 21
13.94500000000001
 31
0.0
  0
LINE
  5
1B3
  8
DEFAULT
 10
5.235
 20
13.94500000000001
 30
0.0
 11
5.685
 21
13.94500000000001
 31
0.0
  0
LINE
  5
1B4
  8
DEFAULT
 10
4.220000000000012
 20
8.665000000000008
 30
0.0
 11
4.220000000000012
 21
9.11500000000001
 31
0.0
  0
LINE
  5
1B5
  8
DEFAULT
 10
4.220000000000012
 20
9.11500000000001
 30
0.0
 11
4.670000000000001
 21
9.11500000000001
 31
0.0
  0
LINE
  5
1B6
  8
DEFAULT
 10
4.670000000000001
 20
9.11500000000001
 30
0.0
 11
4.670000000000001
 21
8.665000000000008
 31
0.0
  0
LINE
  5
1B7
  8
DEFAULT
 10
4.670000000000001
 20
8.665000000000008
 30
0.0
 11
4.220000000000012
 21
8.665000000000008
 31
0.0
  0
LINE
  5
1B8
  8
DEFAULT
 10
1.679999999999999
 20
8.665000000000008
 30
0.0
 11
1.679999999999999
 21
9.11500000000001
 31
0.0
  0
LINE
  5
1B9
  8
DEFAULT
 10
1.679999999999999
 20
9.11500000000001
 30
0.0
 11
2.129999999999987
 21
9.11500000000001
 31
0.0
  0
LINE
  5
1BA
  8
DEFAULT
 10
2.129999999999987
 20
9.11500000000001
 30
0.0
 11
2.129999999999987
 21
8.665000000000008
 31
0.0
  0
LINE
  5
1BB
  8
DEFAULT
 10
2.129999999999987
 20
8.665000000000008
 30
0.0
 11
1.679999999999999
 21
8.665000000000008
 31
0.0
  0
LINE
  5
1BC
  8
DEFAULT
 10
-0.860000000000003
 20
8.665000000000008
 30
0.0
 11
-0.860000000000003
 21
9.115000000000007
 31
0.0
  0
LINE
  5
1BD
  8
DEFAULT
 10
-0.860000000000003
 20
9.115000000000007
 30
0.0
 11
-0.4100000000000038
 21
9.115000000000007
 31
0.0
  0
LINE
  5
1BE
  8
DEFAULT
 10
-0.4100000000000038
 20
9.115000000000007
 30
0.0
 11
-0.4100000000000038
 21
8.665000000000008
 31
0.0
  0
LINE
  5
1BF
  8
DEFAULT
 10
-0.4100000000000038
 20
8.665000000000008
 30
0.0
 11
-0.860000000000003
 21
8.665000000000008
 31
0.0
  0
LINE
  5
1C0
  8
DEFAULT
 10
-3.400000000000005
 20
8.665000000000008
 30
0.0
 11
-3.399999999999994
 21
9.115000000000007
 31
0.0
  0
LINE
  5
1C1
  8
DEFAULT
 10
-3.399999999999994
 20
9.115000000000007
 30
0.0
 11
-2.949999999999994
 21
9.115000000000007
 31
0.0
  0
LINE
  5
1C2
  8
DEFAULT
 10
-2.949999999999994
 20
9.115000000000007
 30
0.0
 11
-2.949999999999994
 21
8.665000000000008
 31
0.0
  0
LINE
  5
1C3
  8
DEFAULT
 10
-2.949999999999994
 20
8.665000000000008
 30
0.0
 11
-3.400000000000005
 21
8.665000000000008
 31
0.0
  0
LINE
  5
1C4
  8
DEFAULT
 10
-4.670000000000001
 20
6.125000000000005
 30
0.0
 11
-4.670000000000001
 21
6.575000000000008
 31
0.0
  0
LINE
  5
1C5
  8
DEFAULT
 10
-4.670000000000001
 20
6.575000000000008
 30
0.0
 11
-4.220000000000012
 21
6.575000000000008
 31
0.0
  0
LINE
  5
1C6
  8
DEFAULT
 10
-4.220000000000012
 20
6.575000000000008
 30
0.0
 11
-4.220000000000012
 21
6.125000000000005
 31
0.0
  0
LINE
  5
1C7
  8
DEFAULT
 10
-4.220000000000012
 20
6.125000000000005
 30
0.0
 11
-4.670000000000001
 21
6.125000000000005
 31
0.0
  0
LINE
  5
1C8
  8
DEFAULT
 10
-2.129999999999987
 20
6.125000000000005
 30
0.0
 11
-2.129999999999987
 21
6.575000000000008
 31
0.0
  0
LINE
  5
1C9
  8
DEFAULT
 10
-2.129999999999987
 20
6.575000000000008
 30
0.0
 11
-1.679999999999999
 21
6.575000000000008
 31
0.0
  0
LINE
  5
1CA
  8
DEFAULT
 10
-1.679999999999999
 20
6.575000000000008
 30
0.0
 11
-1.679999999999999
 21
6.125000000000005
 31
0.0
  0
LINE
  5
1CB
  8
DEFAULT
 10
-1.679999999999999
 20
6.125000000000005
 30
0.0
 11
-2.129999999999987
 21
6.125000000000005
 31
0.0
  0
LINE
  5
1CC
  8
DEFAULT
 10
0.4100000000000038
 20
6.125000000000005
 30
0.0
 11
0.4100000000000038
 21
6.575000000000008
 31
0.0
  0
LINE
  5
1CD
  8
DEFAULT
 10
0.4100000000000038
 20
6.575000000000008
 30
0.0
 11
0.860000000000003
 21
6.575000000000008
 31
0.0
  0
LINE
  5
1CE
  8
DEFAULT
 10
0.860000000000003
 20
6.575000000000008
 30
0.0
 11
0.860000000000003
 21
6.125000000000005
 31
0.0
  0
LINE
  5
1CF
  8
DEFAULT
 10
0.860000000000003
 20
6.125000000000005
 30
0.0
 11
0.4100000000000038
 21
6.125000000000005
 31
0.0
  0
LINE
  5
1D0
  8
DEFAULT
 10
2.950000000000006
 20
6.125000000000005
 30
0.0
 11
2.950000000000006
 21
6.575000000000008
 31
0.0
  0
LINE
  5
1D1
  8
DEFAULT
 10
2.950000000000006
 20
6.575000000000008
 30
0.0
 11
3.400000000000005
 21
6.575000000000008
 31
0.0
  0
LINE
  5
1D2
  8
DEFAULT
 10
3.400000000000005
 20
6.575000000000008
 30
0.0
 11
3.400000000000005
 21
6.125000000000005
 31
0.0
  0
LINE
  5
1D3
  8
DEFAULT
 10
3.400000000000005
 20
6.125000000000005
 30
0.0
 11
2.950000000000006
 21
6.125000000000005
 31
0.0
  0
ARC
  5
1D4
  8
DEFAULT
 10
5.715000000000003
 20
0.0000000000000039
 30
0.0
 40
1.600000000000008
 50
269.9999999999999
 51
90.0
  0
ARC
  5
1D5
  8
DEFAULT
 10
-5.715000000000002
 20
0.0000000000000054
 30
0.0
 40
1.599999999999997
 50
270.0
 51
90.0
  0
LINE
  5
1D6
  8
DEFAULT
 10
0.0000000000000053
 20
-10.78999999999999
 30
0.0
 11
0.0000000000000053
 21
14.86
 31
0.0
  0
LINE
  5
1D7
  8
DEFAULT
 10
-8.249999999999996
 20
2.035000000000005
 30
0.0
 11
8.250000000000005
 21
2.035000000000005
 31
0.0
  0
LINE
  5
1D8
  8
DEFAULT
 10
-8.249999999999996
 20
14.86000000000001
 30
0.0
 11
-8.249999999999996
 21
12.85999999999999
 31
0.0
  0
LINE
  5
1D9
  8
DEFAULT
 10
-8.249999999999996
 20
12.85999999999999
 30
0.0
 11
-8.249999999999996
 21
-10.78999999999999
 31
0.0
  0
LINE
  5
1DA
  8
DEFAULT
 10
-8.249999999999996
 20
13.86
 30
0.0
 11
-8.249999999999996
 21
3.681575868587742
 31
0.0
  0
LINE
  5
1DB
  8
DEFAULT
 10
8.249999999999996
 20
-10.78999999999999
 30
0.0
 11
8.249999999999996
 21
12.85999999999999
 31
0.0
  0
LINE
  5
1DC
  8
DEFAULT
 10
8.249999999999996
 20
12.85999999999999
 30
0.0
 11
8.249999999999996
 21
14.86000000000001
 31
0.0
  0
LINE
  5
1DD
  8
DEFAULT
 10
8.249999999999996
 20
7.08918586538059
 30
0.0
 11
8.249999999999996
 21
14.86000000000001
 31
0.0
  0
LINE
  5
1DE
  8
DEFAULT
 10
0.0000000000000053
 20
14.86
 30
0.0
 11
0.0000000000000053
 21
-10.29
 31
0.0
  0
LINE
  5
1DF
  8
DEFAULT
 10
-8.249999999999995
 20
2.035000000000007
 30
0.0
 11
-5.066851032409301
 21
2.035000000000007
 31
0.0
  0
LINE
  5
1E0
  8
DEFAULT
 10
-4.937257909462795
 20
2.035000000000007
 30
0.0
 11
-4.20537532471106
 21
2.035000000000007
 31
0.0
  0
LINE
  5
1E1
  8
DEFAULT
 10
-4.076398309249246
 20
2.035000000000007
 30
0.0
 11
-3.708453176354989
 21
2.035000000000007
 31
0.0
  0
LINE
  5
1E2
  8
DEFAULT
 10
-3.589729885756698
 20
2.035000000000007
 30
0.0
 11
-3.23231220693997
 21
2.035000000000007
 31
0.0
  0
LINE
  5
1E3
  8
DEFAULT
 10
-3.08549813776262
 20
2.035000000000007
 30
0.0
 11
-2.172174747252981
 21
2.035000000000007
 31
0.0
  0
LINE
  5
1E4
  8
DEFAULT
 10
-2.051329188681103
 20
2.035000000000007
 30
0.0
 11
-1.418789714816528
 21
2.035000000000007
 31
0.0
  0
LINE
  5
1E5
  8
DEFAULT
 10
-1.300066424218238
 20
2.035000000000007
 30
0.0
 11
-0.4011615096883239
 21
2.035000000000007
 31
0.0
  0
LINE
  5
1E6
  8
DEFAULT
 10
-0.2824382190900337
 20
2.035000000000007
 30
0.0
 11
0.3281387039868914
 21
2.035000000000007
 31
0.0
  0
LINE
  5
1E7
  8
DEFAULT
 10
1.322946681541572
 20
2.035000000000007
 30
0.0
 11
2.265037111184874
 21
2.035000000000007
 31
0.0
  0
LINE
  5
1E8
  8
DEFAULT
 10
2.384693625409631
 20
2.035000000000007
 30
0.0
 11
2.810956158897628
 21
2.035000000000007
 31
0.0
  0
LINE
  5
1E9
  8
DEFAULT
 10
2.942697886564642
 20
2.035000000000007
 30
0.0
 11
2.98823041979598
 21
2.035000000000007
 31
0.0
  0
LINE
  5
1EA
  8
DEFAULT
 10
3.121647924230856
 20
2.035000000000007
 30
0.0
 11
3.546392832109659
 21
2.035000000000007
 31
0.0
  0
LINE
  5
1EB
  8
DEFAULT
 10
3.665719933384518
 20
2.035000000000007
 30
0.0
 11
3.974639772362958
 21
2.035000000000007
 31
0.0
  0
LINE
  5
1EC
  8
DEFAULT
 10
4.969447749917641
 20
2.035000000000007
 30
0.0
 11
8.250000000000005
 21
2.035000000000007
 31
0.0
  0
LINE
  5
1ED
  8
DEFAULT
 10
-8.250000000000002
 20
-10.78999999999999
 30
0.0
 11
-5.000000000000001
 21
-10.78999999999999
 31
0.0
  0
LINE
  5
1EE
  8
DEFAULT
 10
5.000000000000002
 20
-10.78999999999999
 30
0.0
 11
8.25
 21
-10.78999999999999
 31
0.0
  0
LINE
  5
1EF
  8
DEFAULT
 10
-8.249999999999996
 20
14.86000000000001
 30
0.0
 11
-8.249999999999996
 21
7.089185865380587
 31
0.0
  0
LINE
  5
1F0
  8
DEFAULT
 10
8.249999999999996
 20
3.570369828129227
 30
0.0
 11
8.249999999999996
 21
13.86
 31
0.0
  0
LINE
  5
1F1
  8
DEFAULT
 10
-8.250000000000002
 20
14.86
 30
0.0
 11
8.25
 21
14.86
 31
0.0
  0
LINE
  5
1F2
  8
DEFAULT
 10
2.999999999999995
 20
-10.28999999999999
 30
0.0
 11
2.999999999999995
 21
-10.79
 31
0.0
  0
LINE
  5
1F3
  8
DEFAULT
 10
3.499999999999994
 20
-10.28999999999999
 30
0.0
 11
3.499999999999994
 21
-10.79
 31
0.0
  0
LINE
  5
1F4
  8
DEFAULT
 10
3.999999999999993
 20
-10.53999999999999
 30
0.0
 11
2.999999999999993
 21
-10.53999999999999
 31
0.0
  0
LINE
  5
1F5
  8
DEFAULT
 10
4.000000000000004
 20
-10.78999999999999
 30
0.0
 11
4.000000000000004
 21
-10.28999999999999
 31
0.0
  0
LINE
  5
1F6
  8
DEFAULT
 10
5.000000000000004
 20
-10.28999999999999
 30
0.0
 11
5.000000000000004
 21
-10.79
 31
0.0
  0
LINE
  5
1F7
  8
DEFAULT
 10
6.000000000000004
 20
-10.53999999999999
 30
0.0
 11
4.000000000000003
 21
-10.53999999999999
 31
0.0
  0
LINE
  5
1F8
  8
DEFAULT
 10
6.000000000000001
 20
-10.28999999999999
 30
0.0
 11
6.000000000000001
 21
-10.79
 31
0.0
  0
LINE
  5
1F9
  8
DEFAULT
 10
5.5
 20
-10.28999999999999
 30
0.0
 11
5.5
 21
-10.79
 31
0.0
  0
LINE
  5
1FA
  8
DEFAULT
 10
5.000000000000002
 20
-10.53999999999999
 30
0.0
 11
6.0
 21
-10.53999999999999
 31
0.0
  0
LINE
  5
1FB
  8
DEFAULT
 10
5.000000000000001
 20
-10.28999999999999
 30
0.0
 11
5.000000000000001
 21
-10.79
 31
0.0
  0
LINE
  5
1FC
  8
DEFAULT
 10
5.500000000000001
 20
-10.28999999999999
 30
0.0
 11
5.500000000000001
 21
-10.79
 31
0.0
  0
LINE
  5
1FD
  8
DEFAULT
 10
6.0
 20
-10.53999999999999
 30
0.0
 11
5.0
 21
-10.53999999999999
 31
0.0
  0
LINE
  5
1FE
  8
DEFAULT
 10
6.0
 20
-10.28999999999999
 30
0.0
 11
6.0
 21
-10.79
 31
0.0
  0
LINE
  5
1FF
  8
DEFAULT
 10
0.0
 20
-10.28999999999999
 30
0.0
 11
0.0
 21
-10.79
 31
0.0
  0
LINE
  5
200
  8
DEFAULT
 10
-6.000000000000001
 20
-10.53999999999999
 30
0.0
 11
5.999999999999998
 21
-10.53999999999999
 31
0.0
  0
LINE
  5
201
  8
DEFAULT
 10
-6.0
 20
-10.28999999999999
 30
0.0
 11
-6.0
 21
-10.79
 31
0.0
  0
LINE
  5
202
  8
DEFAULT
 10
-5.999999999999998
 20
-10.53999999999999
 30
0.0
 11
-5.0
 21
-10.53999999999999
 31
0.0
  0
LINE
  5
203
  8
DEFAULT
 10
-5.500000000000001
 20
-10.28999999999999
 30
0.0
 11
-5.500000000000001
 21
-10.79
 31
0.0
  0
LINE
  5
204
  8
DEFAULT
 10
-5.000000000000002
 20
-10.28999999999999
 30
0.0
 11
-5.000000000000002
 21
-10.79
 31
0.0
  0
LINE
  5
205
  8
DEFAULT
 10
-5.5
 20
-10.28999999999999
 30
0.0
 11
-5.5
 21
-10.79
 31
0.0
  0
LINE
  5
206
  8
DEFAULT
 10
-6.0
 20
-10.53999999999999
 30
0.0
 11
-5.000000000000004
 21
-10.53999999999999
 31
0.0
  0
LINE
  5
207
  8
DEFAULT
 10
-6.0
 20
-10.28999999999999
 30
0.0
 11
-6.0
 21
-10.79
 31
0.0
  0
LINE
  5
208
  8
DEFAULT
 10
-5.000000000000004
 20
-10.28999999999999
 30
0.0
 11
-5.000000000000004
 21
-10.79
 31
0.0
  0
LINE
  5
209
  8
DEFAULT
 10
-4.000000000000003
 20
-10.53999999999999
 30
0.0
 11
-6.000000000000004
 21
-10.53999999999999
 31
0.0
  0
LINE
  5
20A
  8
DEFAULT
 10
-4.000000000000004
 20
-10.28999999999999
 30
0.0
 11
-4.000000000000004
 21
-10.79
 31
0.0
  0
LINE
  5
20B
  8
DEFAULT
 10
-3.499999999999994
 20
-10.28999999999999
 30
0.0
 11
-3.499999999999994
 21
-10.79
 31
0.0
  0
LINE
  5
20C
  8
DEFAULT
 10
-2.999999999999993
 20
-10.53999999999999
 30
0.0
 11
-3.999999999999993
 21
-10.53999999999999
 31
0.0
  0
LINE
  5
20D
  8
DEFAULT
 10
-2.999999999999995
 20
-10.28999999999999
 30
0.0
 11
-2.999999999999995
 21
-10.79
 31
0.0
  0
LINE
  5
20E
  8
DEFAULT
 10
-6.999999999999997
 20
-10.78999999999999
 30
0.0
 11
-6.999999999999997
 21
-10.79099999999999
 31
0.0
  0
LINE
  5
20F
  8
DEFAULT
 10
-5.749999999999997
 20
-10.78999999999999
 30
0.0
 11
-5.749999999999997
 21
-10.79099999999999
 31
0.0
  0
LINE
  5
210
  8
DEFAULT
 10
-4.499999999999997
 20
-10.79049999999999
 30
0.0
 11
-6.999999999999999
 21
-10.79049999999999
 31
0.0
  0
LINE
  5
211
  8
DEFAULT
 10
-4.500000000000003
 20
-10.78999999999999
 30
0.0
 11
-4.500000000000003
 21
-10.79099999999999
 31
0.0
  0
LINE
  5
212
  8
DEFAULT
 10
-5.749999999999996
 20
-10.78999999999999
 30
0.0
 11
-5.749999999999996
 21
-10.79099999999999
 31
0.0
  0
LINE
  5
213
  8
DEFAULT
 10
-6.999999999999997
 20
-10.79049999999999
 30
0.0
 11
-4.499999999999997
 21
-10.79049999999999
 31
0.0
  0
LINE
  5
214
  8
DEFAULT
 10
-7.000000000000002
 20
-10.79099999999999
 30
0.0
 11
-4.500000000000002
 21
-10.79099999999999
 31
0.0
  0
LINE
  5
215
  8
DEFAULT
 10
5.749999999999996
 20
-10.78999999999999
 30
0.0
 11
5.749999999999996
 21
-10.79099999999999
 31
0.0
  0
LINE
  5
216
  8
DEFAULT
 10
4.499999999999997
 20
-10.79049999999999
 30
0.0
 11
6.999999999999997
 21
-10.79049999999999
 31
0.0
  0
LINE
  5
217
  8
DEFAULT
 10
4.500000000000003
 20
-10.79099999999999
 30
0.0
 11
4.500000000000003
 21
-10.78999999999999
 31
0.0
  0
LINE
  5
218
  8
DEFAULT
 10
5.749999999999997
 20
-10.78999999999999
 30
0.0
 11
5.749999999999997
 21
-10.79099999999999
 31
0.0
  0
LINE
  5
219
  8
DEFAULT
 10
6.999999999999997
 20
-10.79049999999999
 30
0.0
 11
4.499999999999996
 21
-10.79049999999999
 31
0.0
  0
LINE
  5
21A
  8
DEFAULT
 10
6.999999999999998
 20
-10.78999999999999
 30
0.0
 11
6.999999999999998
 21
-10.79099999999999
 31
0.0
  0
LINE
  5
21B
  8
DEFAULT
 10
4.499999999999998
 20
-10.79099999999999
 30
0.0
 11
7.000000000000002
 21
-10.79099999999999
 31
0.0
  0
LINE
  5
21C
  8
DEFAULT
 10
-4.573437150713975
 20
3.075169804655042
 30
0.0
 11
-4.556476680628502
 21
3.075169804655042
 31
0.0
  0
LINE
  5
21D
  8
DEFAULT
 10
-4.556476680628504
 20
3.075169804655042
 30
0.0
 11
-3.945899757551581
 21
1.752253137988375
 31
0.0
  0
LINE
  5
21E
  8
DEFAULT
 10
-3.945899757551576
 20
1.752253137988374
 30
0.0
 11
-4.074958334608201
 21
1.752253137988374
 31
0.0
  0
LINE
  5
21F
  8
DEFAULT
 10
-4.074958334608207
 20
1.752253137988376
 30
0.0
 11
-4.270533755281283
 21
2.176264890125128
 31
0.0
  0
LINE
  5
220
  8
DEFAULT
 10
-4.27053375528128
 20
2.176264890125127
 30
0.0
 11
-4.870245377209699
 21
2.176264890125127
 31
0.0
  0
LINE
  5
221
  8
DEFAULT
 10
-4.870245377209692
 20
2.176264890125126
 30
0.0
 11
-5.071385952129563
 21
1.752253137988372
 31
0.0
  0
LINE
  5
222
  8
DEFAULT
 10
-5.071385952129567
 20
1.752253137988374
 30
0.0
 11
-5.200974543876361
 21
1.752253137988374
 31
0.0
  0
LINE
  5
223
  8
DEFAULT
 10
-5.200974543876361
 20
1.752253137988375
 30
0.0
 11
-4.57343715071397
 21
3.075169804655041
 31
0.0
  0
LINE
  5
224
  8
DEFAULT
 10
-4.57343715071397
 20
3.075169804655041
 30
0.0
 11
-4.57343715071397
 21
2.802223672056012
 31
0.0
  0
LINE
  5
225
  8
DEFAULT
 10
-4.57343715071397
 20
2.311948650808889
 30
0.0
 11
-4.57343715071397
 21
2.176264890125128
 31
0.0
  0
LINE
  5
226
  8
DEFAULT
 10
-4.887205847295165
 20
2.413711471321708
 30
0.0
 11
-4.757608639682931
 21
2.413711471321708
 31
0.0
  0
LINE
  5
227
  8
DEFAULT
 10
-4.380034734684364
 20
2.413711471321708
 30
0.0
 11
-4.251188219090038
 21
2.413711471321708
 31
0.0
  0
LINE
  5
228
  8
DEFAULT
 10
-4.333075488721443
 20
2.311948650808888
 30
0.0
 11
-4.566281952396657
 21
2.817317657886881
 31
0.0
  0
LINE
  5
229
  8
DEFAULT
 10
-4.805848592353923
 20
2.311948650808887
 30
0.0
 11
-4.333075488721443
 21
2.311948650808887
 31
0.0
  0
LINE
  5
22A
  8
DEFAULT
 10
-4.566281952396658
 20
2.817317657886878
 30
0.0
 11
-4.805848592353923
 21
2.311948650808888
 31
0.0
  0
LINE
  5
22B
  8
DEFAULT
 10
-4.569462040537685
 20
2.810609219739828
 30
0.0
 11
-4.569462040537685
 21
2.31194865080889
 31
0.0
  0
LINE
  5
22C
  8
DEFAULT
 10
-4.686065272375293
 20
2.564633154347883
 30
0.0
 11
-4.449678720559052
 21
2.564633154347883
 31
0.0
  0
LINE
  5
22D
  8
DEFAULT
 10
-3.708453176354999
 20
1.752253137988376
 30
0.0
 11
-3.708453176354999
 21
3.075169804655044
 31
0.0
  0
LINE
  5
22E
  8
DEFAULT
 10
-3.708453176354999
 20
3.075169804655042
 30
0.0
 11
-3.443710838614615
 21
3.075169804655042
 31
0.0
  0
LINE
  5
22F
  8
DEFAULT
 10
-3.44371083861461
 20
3.075169804655042
 30
0.0
 11
-3.143987531322939
 21
3.057149305189231
 31
0.0
  0
ARC
  5
230
  8
DEFAULT
 10
-3.210075996774755
 20
2.730953432274912
 30
0.0
 40
0.3328234258163182
 50
358.3525606930083
 51
78.5467005964091
  0
ARC
  5
231
  8
DEFAULT
 10
-3.261044343495956
 20
2.737190442538303
 30
0.0
 40
0.3839796325899494
 50
257.1481690970153
 51
357.6409135942913
  0
LINE
  5
232
  8
DEFAULT
 10
-3.346453142968247
 20
2.362830061065297
 30
0.0
 11
-2.860429672081495
 21
1.752253137988373
 31
0.0
  0
LINE
  5
233
  8
DEFAULT
 10
-2.860429672081494
 20
1.752253137988374
 30
0.0
 11
-3.007243741258845
 21
1.752253137988374
 31
0.0
  0
LINE
  5
234
  8
DEFAULT
 10
-3.00724374125884
 20
1.752253137988374
 30
0.0
 11
-3.493267212145592
 21
2.362830061065298
 31
0.0
  0
LINE
  5
235
  8
DEFAULT
 10
-3.493267212145594
 20
2.362830061065297
 30
0.0
 11
-3.589729885756706
 21
2.362830061065297
 31
0.0
  0
LINE
  5
236
  8
DEFAULT
 10
-3.589729885756699
 20
2.362830061065299
 30
0.0
 11
-3.589729885756699
 21
1.752253137988376
 31
0.0
  0
LINE
  5
237
  8
DEFAULT
 10
-3.589729885756701
 20
1.752253137988374
 30
0.0
 11
-3.708453176354994
 21
1.752253137988374
 31
0.0
  0
LINE
  5
238
  8
DEFAULT
 10
-3.284441424218243
 20
3.071971816994727
 30
0.0
 11
-3.284441424218243
 21
2.938581306669411
 31
0.0
  0
LINE
  5
239
  8
DEFAULT
 10
-3.284441424218243
 20
2.49810946739032
 30
0.0
 11
-3.284441424218243
 21
2.364530924856646
 31
0.0
  0
LINE
  5
23A
  8
DEFAULT
 10
-3.284441424218243
 20
2.284926571425167
 30
0.0
 11
-3.284441424218243
 21
2.100488395097678
 31
0.0
  0
LINE
  5
23B
  8
DEFAULT
 10
-3.708453176354997
 20
2.413711471321707
 30
0.0
 11
-3.061541789941431
 21
2.413711471321707
 31
0.0
  0
LINE
  5
23C
  8
DEFAULT
 10
-3.341683010756699
 20
2.939486043971279
 30
0.0
 11
-3.5897298857567
 21
2.939486043971279
 31
0.0
  0
ARC
  5
23D
  8
DEFAULT
 10
-3.261312228689904
 20
2.683964783005732
 30
0.0
 40
0.2678629825404266
 50
8.087684852305708
 51
107.4602686060482
  0
ARC
  5
23E
  8
DEFAULT
 10
-3.268388147253433
 20
2.759988598060255
 30
0.0
 40
0.2749606658541046
 50
253.2755920992579
 51
351.9849620026116
  0
LINE
  5
23F
  8
DEFAULT
 10
-3.589729885756698
 20
2.498513821749059
 30
0.0
 11
-3.34751317234858
 21
2.496658770333461
 31
0.0
  0
LINE
  5
240
  8
DEFAULT
 10
-3.589729885756699
 20
2.939486043971279
 30
0.0
 11
-3.589729885756699
 21
2.498513821749057
 31
0.0
  0
LINE
  5
241
  8
DEFAULT
 10
-3.292921659260973
 20
2.93887579635266
 30
0.0
 11
-3.292921659260973
 21
2.497687466796089
 31
0.0
  0
LINE
  5
242
  8
DEFAULT
 10
-3.589729885756698
 20
2.718065056827056
 30
0.0
 11
-2.996260818950203
 21
2.718065056827056
 31
0.0
  0
LINE
  5
243
  8
DEFAULT
 10
-2.165050398577223
 20
2.195080411626198
 30
0.0
 11
-2.165050398577223
 21
3.075169804655042
 31
0.0
  0
LINE
  5
244
  8
DEFAULT
 10
-2.165050398577223
 20
3.075169804655042
 30
0.0
 11
-2.04632710797893
 21
3.075169804655042
 31
0.0
  0
LINE
  5
245
  8
DEFAULT
 10
-2.046327107978923
 20
3.075169804655046
 30
0.0
 11
-2.046327107978923
 21
2.181830044371925
 31
0.0
  0
ARC
  5
246
  8
DEFAULT
 10
-2.376332080673214
 20
2.067060590678838
 30
0.0
 40
0.3493927725411164
 50
273.5339279004799
 51
19.17670261988629
  0
LINE
  5
247
  8
DEFAULT
 10
-2.354795657658411
 20
1.718332197817436
 30
0.0
 11
-2.67386450114132
 21
1.870976428586665
 31
0.0
  0
LINE
  5
248
  8
DEFAULT
 10
-2.67386450114132
 20
1.870976428586665
 30
0.0
 11
-2.603902562038755
 21
1.972739249099486
 31
0.0
  0
LINE
  5
249
  8
DEFAULT
 10
-2.603902562038759
 20
1.972739249099485
 30
0.0
 11
-2.434827875874231
 21
1.873096487347349
 31
0.0
  0
LINE
  5
24A
  8
DEFAULT
 10
-2.434827875874231
 20
1.873096487347349
 30
0.0
 11
-2.34817047403128
 21
1.854015958501195
 31
0.0
  0
ARC
  5
24B
  8
DEFAULT
 10
-2.408073284572459
 20
2.105869729860378
 30
0.0
 40
0.2588796416456415
 50
283.379068604109
 51
20.15755873125017
  0
LINE
  5
24C
  8
DEFAULT
 10
-2.046327107978925
 20
2.39675100123624
 30
0.0
 11
-2.165050398577214
 21
2.39675100123624
 31
0.0
  0
LINE
  5
24D
  8
DEFAULT
 10
-2.36009580456012
 20
1.854611159150427
 30
0.0
 11
-2.36009580456012
 21
1.718503197109216
 31
0.0
  0
LINE
  5
24E
  8
DEFAULT
 10
-1.62231535584217
 20
2.93948604397128
 30
0.0
 11
-1.544668203732128
 21
3.075169804655041
 31
0.0
  0
LINE
  5
24F
  8
DEFAULT
 10
-1.54466820373213
 20
3.075169804655042
 30
0.0
 11
-1.300066424218243
 21
3.075169804655042
 31
0.0
  0
LINE
  5
250
  8
DEFAULT
 10
-1.300066424218247
 20
3.075169804655042
 30
0.0
 11
-1.300066424218247
 21
1.752253137988374
 31
0.0
  0
LINE
  5
251
  8
DEFAULT
 10
-1.300066424218247
 20
1.752253137988374
 30
0.0
 11
-1.41878971481654
 21
1.752253137988374
 31
0.0
  0
LINE
  5
252
  8
DEFAULT
 10
-1.418789714816536
 20
1.752253137988371
 30
0.0
 11
-1.418789714816536
 21
2.939486043971277
 31
0.0
  0
LINE
  5
253
  8
DEFAULT
 10
-1.418789714816538
 20
2.939486043971279
 30
0.0
 11
-1.622315355842178
 21
2.939486043971279
 31
0.0
  0
LINE
  5
254
  8
DEFAULT
 10
-1.418789714816533
 20
2.413711471321708
 30
0.0
 11
-1.300066424218243
 21
2.413711471321708
 31
0.0
  0
LINE
  5
255
  8
DEFAULT
 10
-1.461190890030209
 20
2.93948604397128
 30
0.0
 11
-1.461190890030209
 21
3.075169804655041
 31
0.0
  0
LINE
  5
256
  8
DEFAULT
 10
-0.604687150713974
 20
2.93948604397128
 30
0.0
 11
-0.5270399986039312
 21
3.075169804655041
 31
0.0
  0
LINE
  5
257
  8
DEFAULT
 10
-0.527039998603923
 20
3.075169804655042
 30
0.0
 11
-0.282438219090036
 21
3.075169804655042
 31
0.0
  0
LINE
  5
258
  8
DEFAULT
 10
-0.2824382190900402
 20
3.075169804655042
 30
0.0
 11
-0.2824382190900402
 21
1.752253137988374
 31
0.0
  0
LINE
  5
259
  8
DEFAULT
 10
-0.2824382190900404
 20
1.752253137988374
 30
0.0
 11
-0.4011615096883331
 21
1.752253137988374
 31
0.0
  0
LINE
  5
25A
  8
DEFAULT
 10
-0.401161509688329
 20
1.752253137988371
 30
0.0
 11
-0.401161509688329
 21
2.939486043971277
 31
0.0
  0
LINE
  5
25B
  8
DEFAULT
 10
-0.4011615096883294
 20
2.939486043971279
 30
0.0
 11
-0.6046871507139691
 21
2.939486043971279
 31
0.0
  0
LINE
  5
25C
  8
DEFAULT
 10
-0.4011615096883289
 20
2.413711471321708
 30
0.0
 11
-0.2824382190900387
 21
2.413711471321708
 31
0.0
  0
LINE
  5
25D
  8
DEFAULT
 10
-0.4435626849020045
 20
2.93948604397128
 30
0.0
 11
-0.4435626849020045
 21
3.075169804655041
 31
0.0
  0
LINE
  5
25E
  8
DEFAULT
 10
0.7381050668341089
 20
1.752253137988374
 30
0.0
 11
0.3281387039868858
 21
1.752253137988374
 31
0.0
  0
LINE
  5
25F
  8
DEFAULT
 10
0.3281387039868863
 20
1.752253137988376
 30
0.0
 11
0.3281387039868863
 21
3.075169804655044
 31
0.0
  0
LINE
  5
260
  8
DEFAULT
 10
0.3281387039868859
 20
3.075169804655042
 30
0.0
 11
0.5952661078330371
 21
3.075169804655042
 31
0.0
  0
LINE
  5
261
  8
DEFAULT
 10
0.5952661078330445
 20
3.075169804655042
 30
0.0
 11
1.015037742448423
 21
3.027468482539655
 31
0.0
  0
ARC
  5
262
  8
DEFAULT
 10
0.7859976595092644
 20
2.44145548133564
 30
0.0
 40
0.6291824832057183
 50
355.9497982117382
 51
68.65221949523828
  0
ARC
  5
263
  8
DEFAULT
 10
0.8172826320011862
 20
2.345537113717215
 30
0.0
 40
0.5985440357086581
 50
262.3984266591987
 51
4.933925911971998
  0
LINE
  5
264
  8
DEFAULT
 10
0.870873746721928
 20
3.060055863553068
 30
0.0
 11
0.870873746721928
 21
2.919202760486622
 31
0.0
  0
LINE
  5
265
  8
DEFAULT
 10
0.870873746721928
 20
1.900771500411794
 30
0.0
 11
0.870873746721928
 21
1.758510208468155
 31
0.0
  0
LINE
  5
266
  8
DEFAULT
 10
0.3281387039868846
 20
2.413711471321707
 30
0.0
 11
0.4468619945851762
 21
2.413711471321707
 31
0.0
  0
LINE
  5
267
  8
DEFAULT
 10
1.294646478953232
 20
2.413711471321707
 30
0.0
 11
1.413349800713884
 21
2.413711471321707
 31
0.0
  0
LINE
  5
268
  8
DEFAULT
 10
0.4468619945851751
 20
2.939486043971283
 30
0.0
 11
0.4468619945851751
 21
1.887936898672137
 31
0.0
  0
LINE
  5
269
  8
DEFAULT
 10
0.5398795727101756
 20
2.939486043971279
 30
0.0
 11
0.4468619945851749
 21
2.939486043971279
 31
0.0
  0
LINE
  5
26A
  8
DEFAULT
 10
0.9464008400712811
 20
2.902385015659315
 30
0.0
 11
0.5398795727101751
 21
2.939486043971279
 31
0.0
  0
ARC
  5
26B
  8
DEFAULT
 10
0.8021393547355551
 20
2.430088778453302
 30
0.0
 40
0.4938371308743679
 50
356.1907850133664
 51
73.01486370014466
  0
ARC
  5
26C
  8
DEFAULT
 10
0.8293950477561967
 20
2.36433010079378
 30
0.0
 40
0.466655250560486
 50
288.4235976196576
 51
4.049072086249709
  0
LINE
  5
26D
  8
DEFAULT
 10
0.5987112033191506
 20
1.887936898672136
 30
0.0
 11
0.9768766847561179
 21
1.921592831497989
 31
0.0
  0
LINE
  5
26E
  8
DEFAULT
 10
0.4468619945851746
 20
1.887936898672136
 30
0.0
 11
0.5987112033191487
 21
1.887936898672136
 31
0.0
  0
LINE
  5
26F
  8
DEFAULT
 10
0.8708737467219336
 20
2.919202760486624
 30
0.0
 11
0.8708737467219336
 21
1.9007715004118
 31
0.0
  0
LINE
  5
270
  8
DEFAULT
 10
0.4468619945851804
 20
2.41371147132171
 30
0.0
 11
1.294646478953236
 21
2.41371147132171
 31
0.0
  0
LINE
  5
271
  8
DEFAULT
 10
1.566253020226199
 20
2.193225360210596
 30
0.0
 11
1.566253020226199
 21
2.328909120894358
 31
0.0
  0
LINE
  5
272
  8
DEFAULT
 10
1.566253020226201
 20
2.328909120894357
 30
0.0
 11
2.075067122790301
 21
2.328909120894357
 31
0.0
  0
LINE
  5
273
  8
DEFAULT
 10
2.075067122790309
 20
2.328909120894357
 30
0.0
 11
2.075067122790309
 21
2.193225360210596
 31
0.0
  0
LINE
  5
274
  8
DEFAULT
 10
2.075067122790309
 20
2.193225360210597
 30
0.0
 11
1.566253020226204
 21
2.193225360210597
 31
0.0
  0
LINE
  5
275
  8
DEFAULT
 10
1.566253020226202
 20
2.261067240552477
 30
0.0
 11
2.075067122790302
 21
2.261067240552477
 31
0.0
  0
LINE
  5
276
  8
DEFAULT
 10
1.820660071508252
 20
2.193225360210595
 30
0.0
 11
1.820660071508252
 21
2.328909120894358
 31
0.0
  0
LINE
  5
277
  8
DEFAULT
 10
2.347229666193089
 20
1.752253137988374
 30
0.0
 11
2.227711353559537
 21
1.752253137988374
 31
0.0
  0
LINE
  5
278
  8
DEFAULT
 10
2.227711353559541
 20
1.75225313798837
 30
0.0
 11
2.402351193970865
 21
3.07516980465504
 31
0.0
  0
LINE
  5
279
  8
DEFAULT
 10
2.402351193970862
 20
3.075169804655042
 30
0.0
 11
2.419311664056335
 21
3.075169804655042
 31
0.0
  0
LINE
  5
27A
  8
DEFAULT
 10
2.419311664056334
 20
3.07516980465504
 30
0.0
 11
2.965491802277486
 21
1.989699719184957
 31
0.0
  0
LINE
  5
27B
  8
DEFAULT
 10
2.96549180227748
 20
1.989699719184954
 30
0.0
 11
3.510346903773208
 21
3.075169804655041
 31
0.0
  0
LINE
  5
27C
  8
DEFAULT
 10
3.510346903773207
 20
3.075169804655042
 30
0.0
 11
3.527572381203762
 21
3.075169804655042
 31
0.0
  0
LINE
  5
27D
  8
DEFAULT
 10
3.527572381203761
 20
3.075169804655042
 30
0.0
 11
3.703272250995428
 21
1.752253137988377
 31
0.0
  0
LINE
  5
27E
  8
DEFAULT
 10
3.703272250995432
 20
1.752253137988374
 30
0.0
 11
3.584018945706966
 21
1.752253137988374
 31
0.0
  0
LINE
  5
27F
  8
DEFAULT
 10
3.584018945706968
 20
1.752253137988372
 30
0.0
 11
3.457345434756113
 21
2.704159521535378
 31
0.0
  0
LINE
  5
280
  8
DEFAULT
 10
3.457345434756118
 20
2.704159521535381
 30
0.0
 11
2.9798021989121
 21
1.752253137988375
 31
0.0
  0
LINE
  5
281
  8
DEFAULT
 10
2.9798021989121
 20
1.752253137988374
 30
0.0
 11
2.95303645705847
 21
1.752253137988374
 31
0.0
  0
LINE
  5
282
  8
DEFAULT
 10
2.953036457058463
 20
1.752253137988375
 30
0.0
 11
2.473638169798849
 21
2.706279580296067
 31
0.0
  0
LINE
  5
283
  8
DEFAULT
 10
2.473638169798853
 20
2.706279580296067
 30
0.0
 11
2.347229666193084
 21
1.752253137988377
 31
0.0
  0
LINE
  5
284
  8
DEFAULT
 10
2.315031273765198
 20
2.413711471321708
 30
0.0
 11
2.434872895359748
 21
2.413711471321708
 31
0.0
  0
LINE
  5
285
  8
DEFAULT
 10
2.620653644558467
 20
2.413711471321708
 30
0.0
 11
2.752140185784845
 21
2.413711471321708
 31
0.0
  0
LINE
  5
286
  8
DEFAULT
 10
3.17832582629925
 20
2.413711471321708
 30
0.0
 11
3.311636251436225
 21
2.413711471321708
 31
0.0
  0
LINE
  5
287
  8
DEFAULT
 10
3.495996372395908
 20
2.413711471321708
 30
0.0
 11
3.6154223160996
 21
2.413711471321708
 31
0.0
  0
LINE
  5
288
  8
DEFAULT
 10
2.965491802277482
 20
1.752253137988377
 30
0.0
 11
2.965491802277482
 21
1.989699719184957
 31
0.0
  0
LINE
  5
289
  8
DEFAULT
 10
4.384606135210175
 20
1.752253137988374
 30
0.0
 11
3.974639772362956
 21
1.752253137988374
 31
0.0
  0
LINE
  5
28A
  8
DEFAULT
 10
3.974639772362951
 20
1.752253137988376
 30
0.0
 11
3.974639772362951
 21
3.075169804655044
 31
0.0
  0
LINE
  5
28B
  8
DEFAULT
 10
3.97463977236295
 20
3.075169804655042
 30
0.0
 11
4.241767176209107
 21
3.075169804655042
 31
0.0
  0
LINE
  5
28C
  8
DEFAULT
 10
4.24176717620911
 20
3.075169804655042
 30
0.0
 11
4.661538810824488
 21
3.027468482539655
 31
0.0
  0
ARC
  5
28D
  8
DEFAULT
 10
4.432498727885326
 20
2.441455481335626
 30
0.0
 40
0.6291824832057323
 50
355.9497982117396
 51
68.65221949523847
  0
ARC
  5
28E
  8
DEFAULT
 10
4.46378370037725
 20
2.345537113717228
 30
0.0
 40
0.59854403570867
 50
262.3984266591991
 51
4.933925911970704
  0
LINE
  5
28F
  8
DEFAULT
 10
4.517374815098002
 20
3.06005586355307
 30
0.0
 11
4.517374815098002
 21
2.919202760486622
 31
0.0
  0
LINE
  5
290
  8
DEFAULT
 10
4.517374815098002
 20
1.900771500411794
 30
0.0
 11
4.517374815098002
 21
1.758510208468155
 31
0.0
  0
LINE
  5
291
  8
DEFAULT
 10
3.974639772362961
 20
2.413711471321707
 30
0.0
 11
4.093363062961251
 21
2.413711471321707
 31
0.0
  0
LINE
  5
292
  8
DEFAULT
 10
4.941147547329306
 20
2.413711471321707
 30
0.0
 11
5.059850869089958
 21
2.413711471321707
 31
0.0
  0
LINE
  5
293
  8
DEFAULT
 10
4.09336306296124
 20
2.939486043971283
 30
0.0
 11
4.09336306296124
 21
1.887936898672137
 31
0.0
  0
LINE
  5
294
  8
DEFAULT
 10
4.18638064108624
 20
2.939486043971279
 30
0.0
 11
4.09336306296124
 21
2.939486043971279
 31
0.0
  0
LINE
  5
295
  8
DEFAULT
 10
4.592901908447358
 20
2.902385015659315
 30
0.0
 11
4.18638064108624
 21
2.939486043971279
 31
0.0
  0
ARC
  5
296
  8
DEFAULT
 10
4.448640423111611
 20
2.430088778453299
 30
0.0
 40
0.493837130874377
 50
356.1907850133668
 51
73.01486370014243
  0
ARC
  5
297
  8
DEFAULT
 10
4.475896116132262
 20
2.36433010079378
 30
0.0
 40
0.4666552505604865
 50
288.4235976196576
 51
4.049072086249643
  0
LINE
  5
298
  8
DEFAULT
 10
4.245212271695216
 20
1.887936898672136
 30
0.0
 11
4.623377753132183
 21
1.921592831497989
 31
0.0
  0
LINE
  5
299
  8
DEFAULT
 10
4.09336306296124
 20
1.887936898672136
 30
0.0
 11
4.245212271695216
 21
1.887936898672136
 31
0.0
  0
LINE
  5
29A
  8
DEFAULT
 10
4.517374815098002
 20
2.919202760486624
 30
0.0
 11
4.517374815098002
 21
1.9007715004118
 31
0.0
  0
LINE
  5
29B
  8
DEFAULT
 10
4.093363062961249
 20
2.41371147132171
 30
0.0
 11
4.941147547329308
 21
2.41371147132171
 31
0.0
  0
LINE
  5
29C
  8
DEFAULT
 10
8.240000000000004
 20
13.31928707458083
 30
0.0
 11
8.250000000000007
 21
13.31928707458083
 31
0.0
  0
LINE
  5
29D
  8
DEFAULT
 10
8.240000000000004
 20
13.83416626708244
 30
0.0
 11
8.250000000000007
 21
13.83416626708244
 31
0.0
  0
LINE
  5
29E
  8
DEFAULT
 10
8.245000000000005
 20
14.34904545958405
 30
0.0
 11
8.245000000000005
 21
13.31928707458083
 31
0.0
  0
LINE
  5
29F
  8
DEFAULT
 10
8.250000000000005
 20
14.34904545958405
 30
0.0
 11
8.240000000000004
 21
14.34904545958405
 31
0.0
  0
LINE
  5
2A0
  8
DEFAULT
 10
8.240000000000004
 20
13.83416626708244
 30
0.0
 11
8.250000000000007
 21
13.83416626708244
 31
0.0
  0
LINE
  5
2A1
  8
DEFAULT
 10
8.245000000000005
 20
13.31928707458083
 30
0.0
 11
8.245000000000005
 21
14.34904545958405
 31
0.0
  0
LINE
  5
2A2
  8
DEFAULT
 10
8.240000000000004
 20
13.31928707458083
 30
0.0
 11
8.240000000000004
 21
14.34904545958405
 31
0.0
  0
LINE
  5
2A3
  8
DEFAULT
 10
-8.240000000000004
 20
13.31928707458083
 30
0.0
 11
-8.250000000000007
 21
13.31928707458083
 31
0.0
  0
LINE
  5
2A4
  8
DEFAULT
 10
-8.245000000000005
 20
14.34904545958405
 30
0.0
 11
-8.245000000000005
 21
13.31928707458083
 31
0.0
  0
LINE
  5
2A5
  8
DEFAULT
 10
-8.250000000000005
 20
13.83416626708244
 30
0.0
 11
-8.240000000000004
 21
13.83416626708244
 31
0.0
  0
LINE
  5
2A6
  8
DEFAULT
 10
-8.250000000000005
 20
14.34904545958405
 30
0.0
 11
-8.240000000000004
 21
14.34904545958405
 31
0.0
  0
LINE
  5
2A7
  8
DEFAULT
 10
-8.245000000000005
 20
13.31928707458083
 30
0.0
 11
-8.245000000000005
 21
14.34904545958405
 31
0.0
  0
LINE
  5
2A8
  8
DEFAULT
 10
-8.250000000000005
 20
13.83416626708244
 30
0.0
 11
-8.240000000000004
 21
13.83416626708244
 31
0.0
  0
LINE
  5
2A9
  8
DEFAULT
 10
-8.240000000000004
 20
13.31928707458083
 30
0.0
 11
-8.240000000000004
 21
14.34904545958405
 31
0.0
  0
LINE
  5
2AA
  8
DEFAULT
 10
-8.249999999999996
 20
3.750000000000007
 30
0.0
 11
-7.919999999999997
 21
3.750000000000007
 31
0.0
  0
LINE
  5
2AB
  8
DEFAULT
 10
-7.919999999999995
 20
3.750000000000009
 30
0.0
 11
-7.919999999999995
 21
2.350000000000007
 31
0.0
  0
LINE
  5
2AC
  8
DEFAULT
 10
-7.919999999999995
 20
2.350000000000007
 30
0.0
 11
-8.249999999999996
 21
2.350000000000007
 31
0.0
  0
LINE
  5
2AD
  8
DEFAULT
 10
-8.085
 20
2.550000000000009
 30
0.0
 11
-8.085
 21
3.550000000000007
 31
0.0
  0
LINE
  5
2AE
  8
DEFAULT
 10
-8.250000000000002
 20
3.050000000000006
 30
0.0
 11
-7.92
 21
3.050000000000006
 31
0.0
  0
LINE
  5
2AF
  8
DEFAULT
 10
-7.92
 20
3.650000000000004
 30
0.0
 11
-8.25
 21
3.650000000000004
 31
0.0
  0
LINE
  5
2B0
  8
DEFAULT
 10
-8.085
 20
3.550000000000004
 30
0.0
 11
-8.085
 21
3.749999999999996
 31
0.0
  0
LINE
  5
2B1
  8
DEFAULT
 10
-8.250000000000002
 20
2.450000000000007
 30
0.0
 11
-7.92
 21
2.450000000000007
 31
0.0
  0
LINE
  5
2B2
  8
DEFAULT
 10
-8.085
 20
2.550000000000007
 30
0.0
 11
-8.085
 21
2.350000000000007
 31
0.0
  0
LINE
  5
2B3
  8
DEFAULT
 10
7.919999999999995
 20
2.350000000000007
 30
0.0
 11
8.249999999999996
 21
2.350000000000007
 31
0.0
  0
LINE
  5
2B4
  8
DEFAULT
 10
7.919999999999995
 20
3.750000000000009
 30
0.0
 11
7.919999999999995
 21
2.350000000000007
 31
0.0
  0
LINE
  5
2B5
  8
DEFAULT
 10
8.249999999999996
 20
3.750000000000007
 30
0.0
 11
7.919999999999997
 21
3.750000000000007
 31
0.0
  0
LINE
  5
2B6
  8
DEFAULT
 10
8.085
 20
2.55000000000001
 30
0.0
 11
8.085
 21
3.550000000000011
 31
0.0
  0
LINE
  5
2B7
  8
DEFAULT
 10
7.92
 20
3.05000000000001
 30
0.0
 11
8.25
 21
3.05000000000001
 31
0.0
  0
LINE
  5
2B8
  8
DEFAULT
 10
8.084999999999997
 20
3.749999999999997
 30
0.0
 11
8.084999999999997
 21
3.550000000000005
 31
0.0
  0
LINE
  5
2B9
  8
DEFAULT
 10
8.249999999999996
 20
3.650000000000006
 30
0.0
 11
7.919999999999997
 21
3.650000000000006
 31
0.0
  0
LINE
  5
2BA
  8
DEFAULT
 10
8.084999999999997
 20
2.350000000000009
 30
0.0
 11
8.084999999999997
 21
2.550000000000006
 31
0.0
  0
LINE
  5
2BB
  8
DEFAULT
 10
7.919999999999995
 20
2.450000000000006
 30
0.0
 11
8.249999999999996
 21
2.450000000000006
 31
0.0
  0
ARC
  5
2BC
  8
DEFAULT
 10
-5.715000000000003
 20
0.0000000000000049
 30
0.0
 40
1.600000000000008
 50
89.99999999999997
 51
270.0
  0
LINE
  5
2BD
  8
DEFAULT
 10
-5.715000000000002
 20
-1.599999999999992
 30
0.0
 11
-5.715000000000002
 21
1.600000000000006
 31
0.0
  0
LINE
  5
2BE
  8
DEFAULT
 10
-7.315000000000001
 20
0.0000000000000053
 30
0.0
 11
-4.115000000000004
 21
0.0000000000000053
 31
0.0
  0
ARC
  5
2BF
  8
DEFAULT
 10
5.715000000000002
 20
0.0000000000000035
 30
0.0
 40
1.599999999999997
 50
90.0
 51
270.0
  0
LINE
  5
2C0
  8
DEFAULT
 10
5.715000000000002
 20
-1.599999999999997
 30
0.0
 11
5.715000000000002
 21
1.600000000000005
 31
0.0
  0
LINE
  5
2C1
  8
DEFAULT
 10
4.115000000000004
 20
0.0000000000000018
 30
0.0
 11
7.315000000000001
 21
0.0000000000000018
 31
0.0
  0
LINE
  5
2C2
  8
DEFAULT
 10
-5.235
 20
13.94500000000001
 30
0.0
 11
-5.235
 21
13.49500000000001
 31
0.0
  0
LINE
  5
2C3
  8
DEFAULT
 10
-5.235
 20
13.49500000000001
 30
0.0
 11
-5.684999999999998
 21
13.49500000000001
 31
0.0
  0
LINE
  5
2C4
  8
DEFAULT
 10
-5.685
 20
13.49500000000001
 30
0.0
 11
-5.685
 21
13.94500000000001
 31
0.0
  0
LINE
  5
2C5
  8
DEFAULT
 10
-5.684999999999998
 20
13.94500000000001
 30
0.0
 11
-5.235
 21
13.94500000000001
 31
0.0
  0
LINE
  5
2C6
  8
DEFAULT
 10
-5.459999999999996
 20
13.49500000000001
 30
0.0
 11
-5.459999999999996
 21
13.94500000000001
 31
0.0
  0
LINE
  5
2C7
  8
DEFAULT
 10
-5.684999999999997
 20
13.72000000000001
 30
0.0
 11
-5.234999999999998
 21
13.72000000000001
 31
0.0
  0
LINE
  5
2C8
  8
DEFAULT
 10
-2.694999999999999
 20
13.94500000000001
 30
0.0
 11
-2.694999999999999
 21
13.49500000000001
 31
0.0
  0
LINE
  5
2C9
  8
DEFAULT
 10
-2.694999999999999
 20
13.49500000000001
 30
0.0
 11
-3.144999999999997
 21
13.49500000000001
 31
0.0
  0
LINE
  5
2CA
  8
DEFAULT
 10
-3.144999999999998
 20
13.49500000000001
 30
0.0
 11
-3.144999999999998
 21
13.94500000000001
 31
0.0
  0
LINE
  5
2CB
  8
DEFAULT
 10
-3.144999999999997
 20
13.94500000000001
 30
0.0
 11
-2.694999999999999
 21
13.94500000000001
 31
0.0
  0
LINE
  5
2CC
  8
DEFAULT
 10
-2.92
 20
13.49500000000001
 30
0.0
 11
-2.92
 21
13.94500000000001
 31
0.0
  0
LINE
  5
2CD
  8
DEFAULT
 10
-3.145
 20
13.72000000000001
 30
0.0
 11
-2.695000000000001
 21
13.72000000000001
 31
0.0
  0
LINE
  5
2CE
  8
DEFAULT
 10
3.144999999999998
 20
13.94500000000001
 30
0.0
 11
3.144999999999998
 21
13.49500000000001
 31
0.0
  0
LINE
  5
2CF
  8
DEFAULT
 10
3.144999999999997
 20
13.49500000000001
 30
0.0
 11
2.694999999999999
 21
13.49500000000001
 31
0.0
  0
LINE
  5
2D0
  8
DEFAULT
 10
2.694999999999999
 20
13.49500000000001
 30
0.0
 11
2.694999999999999
 21
13.94500000000001
 31
0.0
  0
LINE
  5
2D1
  8
DEFAULT
 10
2.694999999999999
 20
13.94500000000001
 30
0.0
 11
3.144999999999997
 21
13.94500000000001
 31
0.0
  0
LINE
  5
2D2
  8
DEFAULT
 10
2.92
 20
13.49500000000001
 30
0.0
 11
2.92
 21
13.94500000000001
 31
0.0
  0
LINE
  5
2D3
  8
DEFAULT
 10
2.694999999999999
 20
13.72000000000001
 30
0.0
 11
3.144999999999999
 21
13.72000000000001
 31
0.0
  0
LINE
  5
2D4
  8
DEFAULT
 10
5.685
 20
13.94500000000001
 30
0.0
 11
5.685
 21
13.49500000000001
 31
0.0
  0
LINE
  5
2D5
  8
DEFAULT
 10
5.685000000000001
 20
13.49500000000001
 30
0.0
 11
5.234999999999999
 21
13.49500000000001
 31
0.0
  0
LINE
  5
2D6
  8
DEFAULT
 10
5.235
 20
13.49500000000001
 30
0.0
 11
5.235
 21
13.94500000000001
 31
0.0
  0
LINE
  5
2D7
  8
DEFAULT
 10
5.235
 20
13.94500000000001
 30
0.0
 11
5.685
 21
13.94500000000001
 31
0.0
  0
LINE
  5
2D8
  8
DEFAULT
 10
5.459999999999999
 20
13.49500000000001
 30
0.0
 11
5.459999999999999
 21
13.94500000000001
 31
0.0
  0
LINE
  5
2D9
  8
DEFAULT
 10
5.234999999999999
 20
13.72000000000001
 30
0.0
 11
5.685000000000001
 21
13.72000000000001
 31
0.0
  0
LINE
  5
2DA
  8
DEFAULT
 10
4.220000000000002
 20
8.665000000000006
 30
0.0
 11
4.220000000000002
 21
9.115000000000009
 31
0.0
  0
LINE
  5
2DB
  8
DEFAULT
 10
4.220000000000002
 20
9.11500000000001
 30
0.0
 11
4.670000000000001
 21
9.11500000000001
 31
0.0
  0
LINE
  5
2DC
  8
DEFAULT
 10
4.670000000000001
 20
9.115000000000007
 30
0.0
 11
4.670000000000001
 21
8.665000000000004
 31
0.0
  0
LINE
  5
2DD
  8
DEFAULT
 10
4.670000000000003
 20
8.665000000000008
 30
0.0
 11
4.22
 21
8.665000000000008
 31
0.0
  0
LINE
  5
2DE
  8
DEFAULT
 10
4.444999999999999
 20
8.665000000000006
 30
0.0
 11
4.444999999999999
 21
9.115000000000009
 31
0.0
  0
LINE
  5
2DF
  8
DEFAULT
 10
4.219999999999999
 20
8.890000000000006
 30
0.0
 11
4.670000000000002
 21
8.890000000000006
 31
0.0
  0
LINE
  5
2E0
  8
DEFAULT
 10
1.679999999999999
 20
8.665000000000008
 30
0.0
 11
1.68
 21
9.115000000000013
 31
0.0
  0
LINE
  5
2E1
  8
DEFAULT
 10
1.679999999999999
 20
9.11500000000001
 30
0.0
 11
2.130000000000002
 21
9.11500000000001
 31
0.0
  0
LINE
  5
2E2
  8
DEFAULT
 10
2.129999999999997
 20
9.115000000000013
 30
0.0
 11
2.129999999999999
 21
8.665000000000008
 31
0.0
  0
LINE
  5
2E3
  8
DEFAULT
 10
2.130000000000003
 20
8.665000000000008
 30
0.0
 11
1.679999999999999
 21
8.665000000000008
 31
0.0
  0
LINE
  5
2E4
  8
DEFAULT
 10
1.905000000000001
 20
8.665000000000004
 30
0.0
 11
1.905000000000001
 21
9.115000000000009
 31
0.0
  0
LINE
  5
2E5
  8
DEFAULT
 10
1.679999999999999
 20
8.890000000000006
 30
0.0
 11
2.13
 21
8.890000000000006
 31
0.0
  0
LINE
  5
2E6
  8
DEFAULT
 10
-0.860000000000003
 20
8.665000000000006
 30
0.0
 11
-0.860000000000003
 21
9.115000000000006
 31
0.0
  0
LINE
  5
2E7
  8
DEFAULT
 10
-0.8600000000000032
 20
9.115000000000007
 30
0.0
 11
-0.41
 21
9.115000000000007
 31
0.0
  0
LINE
  5
2E8
  8
DEFAULT
 10
-0.4100000000000047
 20
9.115000000000007
 30
0.0
 11
-0.4100000000000038
 21
8.665000000000004
 31
0.0
  0
LINE
  5
2E9
  8
DEFAULT
 10
-0.4100000000000016
 20
8.665000000000008
 30
0.0
 11
-0.8600000000000031
 21
8.665000000000008
 31
0.0
  0
LINE
  5
2EA
  8
DEFAULT
 10
-0.6349999999999989
 20
8.665000000000006
 30
0.0
 11
-0.6349999999999989
 21
9.115000000000006
 31
0.0
  0
LINE
  5
2EB
  8
DEFAULT
 10
-0.8599999999999997
 20
8.890000000000006
 30
0.0
 11
-0.4099999999999965
 21
8.890000000000006
 31
0.0
  0
LINE
  5
2EC
  8
DEFAULT
 10
-3.400000000000005
 20
8.665000000000006
 30
0.0
 11
-3.400000000000003
 21
9.115000000000006
 31
0.0
  0
LINE
  5
2ED
  8
DEFAULT
 10
-3.399999999999992
 20
9.115000000000007
 30
0.0
 11
-2.94999999999999
 21
9.115000000000007
 31
0.0
  0
LINE
  5
2EE
  8
DEFAULT
 10
-2.949999999999995
 20
9.115000000000007
 30
0.0
 11
-2.949999999999994
 21
8.665000000000004
 31
0.0
  0
LINE
  5
2EF
  8
DEFAULT
 10
-2.950000000000004
 20
8.665000000000008
 30
0.0
 11
-3.400000000000006
 21
8.665000000000008
 31
0.0
  0
LINE
  5
2F0
  8
DEFAULT
 10
-3.175000000000001
 20
8.665000000000006
 30
0.0
 11
-3.175000000000001
 21
9.115000000000006
 31
0.0
  0
LINE
  5
2F1
  8
DEFAULT
 10
-3.4
 20
8.890000000000006
 30
0.0
 11
-2.949999999999998
 21
8.890000000000006
 31
0.0
  0
LINE
  5
2F2
  8
DEFAULT
 10
-4.670000000000001
 20
6.125000000000006
 30
0.0
 11
-4.670000000000001
 21
6.575000000000006
 31
0.0
  0
LINE
  5
2F3
  8
DEFAULT
 10
-4.669999999999999
 20
6.575000000000008
 30
0.0
 11
-4.22
 21
6.575000000000008
 31
0.0
  0
LINE
  5
2F4
  8
DEFAULT
 10
-4.220000000000002
 20
6.575000000000007
 30
0.0
 11
-4.220000000000002
 21
6.125000000000004
 31
0.0
  0
LINE
  5
2F5
  8
DEFAULT
 10
-4.219999999999998
 20
6.125000000000005
 30
0.0
 11
-4.670000000000001
 21
6.125000000000005
 31
0.0
  0
LINE
  5
2F6
  8
DEFAULT
 10
-4.444999999999999
 20
6.125000000000006
 30
0.0
 11
-4.444999999999999
 21
6.575000000000009
 31
0.0
  0
LINE
  5
2F7
  8
DEFAULT
 10
-4.669999999999999
 20
6.350000000000006
 30
0.0
 11
-4.22
 21
6.350000000000006
 31
0.0
  0
LINE
  5
2F8
  8
DEFAULT
 10
-2.129999999999999
 20
6.125000000000008
 30
0.0
 11
-2.129999999999998
 21
6.575000000000006
 31
0.0
  0
LINE
  5
2F9
  8
DEFAULT
 10
-2.129999999999999
 20
6.575000000000005
 30
0.0
 11
-1.679999999999996
 21
6.575000000000005
 31
0.0
  0
LINE
  5
2FA
  8
DEFAULT
 10
-1.679999999999999
 20
6.575000000000006
 30
0.0
 11
-1.679999999999999
 21
6.125000000000008
 31
0.0
  0
LINE
  5
2FB
  8
DEFAULT
 10
-1.679999999999998
 20
6.125000000000005
 30
0.0
 11
-2.130000000000001
 21
6.125000000000005
 31
0.0
  0
LINE
  5
2FC
  8
DEFAULT
 10
-1.904999999999998
 20
6.125000000000007
 30
0.0
 11
-1.904999999999998
 21
6.575000000000006
 31
0.0
  0
LINE
  5
2FD
  8
DEFAULT
 10
-2.129999999999998
 20
6.350000000000007
 30
0.0
 11
-1.679999999999996
 21
6.350000000000007
 31
0.0
  0
LINE
  5
2FE
  8
DEFAULT
 10
0.4100000000000038
 20
6.125000000000006
 30
0.0
 11
0.4100000000000038
 21
6.575000000000006
 31
0.0
  0
LINE
  5
2FF
  8
DEFAULT
 10
0.4100000000000035
 20
6.575000000000008
 30
0.0
 11
0.8600000000000066
 21
6.575000000000008
 31
0.0
  0
LINE
  5
300
  8
DEFAULT
 10
0.8600000000000025
 20
6.575000000000007
 30
0.0
 11
0.860000000000003
 21
6.125000000000004
 31
0.0
  0
LINE
  5
301
  8
DEFAULT
 10
0.860000000000005
 20
6.125000000000005
 30
0.0
 11
0.4100000000000018
 21
6.125000000000005
 31
0.0
  0
LINE
  5
302
  8
DEFAULT
 10
0.6350000000000007
 20
6.125000000000006
 30
0.0
 11
0.6350000000000007
 21
6.575000000000009
 31
0.0
  0
LINE
  5
303
  8
DEFAULT
 10
0.4099999999999982
 20
6.350000000000006
 30
0.0
 11
0.8599999999999997
 21
6.350000000000006
 31
0.0
  0
LINE
  5
304
  8
DEFAULT
 10
2.950000000000006
 20
6.125000000000006
 30
0.0
 11
2.950000000000006
 21
6.575000000000006
 31
0.0
  0
LINE
  5
305
  8
DEFAULT
 10
2.950000000000006
 20
6.575000000000008
 30
0.0
 11
3.400000000000008
 21
6.575000000000008
 31
0.0
  0
LINE
  5
306
  8
DEFAULT
 10
3.400000000000004
 20
6.575000000000007
 30
0.0
 11
3.400000000000005
 21
6.125000000000004
 31
0.0
  0
LINE
  5
307
  8
DEFAULT
 10
3.400000000000007
 20
6.125000000000005
 30
0.0
 11
2.950000000000006
 21
6.125000000000005
 31
0.0
  0
LINE
  5
308
  8
DEFAULT
 10
3.175000000000002
 20
6.125000000000006
 30
0.0
 11
3.175000000000002
 21
6.575000000000009
 31
0.0
  0
LINE
  5
309
  8
DEFAULT
 10
2.950000000000001
 20
6.350000000000006
 30
0.0
 11
3.400000000000004
 21
6.350000000000006
 31
0.0
  0
ENDSEC
  0
EOF
