  0
SECTION
  2
HEADER
  9
$ACADVER
  1
AC1009
  9
$DWGCODEPAGE
  3
ansi_1252
  9
$INSBASE
 10
0.0
 20
0.0
 30
0.0
  9
$EXTMIN
 10
-7.990000000028648
 20
-10.40167652646466
 30
0.0
  9
$EXTMAX
 10
7.989999999971353
 20
9.111543176785338
 30
0.0
  9
$LIMMIN
 10
0.0
 20
0.0
  9
$LIMMAX
 10
12.0
 20
9.0
  9
$ORTHOMODE
 70
     0
  9
$REGENMODE
 70
     1
  9
$FILLMODE
 70
     1
  9
$QTEXTMODE
 70
     0
  9
$MIRRTEXT
 70
     1
  9
$DRAGMODE
 70
     2
  9
$LTSCALE
 40
1.0
  9
$OSMODE
 70
    37
  9
$ATTMODE
 70
     1
  9
$TEXTSIZE
 40
0.2
  9
$TRACEWID
 40
0.05
  9
$TEXTSTYLE
  7
STANDARD
  9
$CLAYER
  8
DEFAULT
  9
$CELTYPE
  6
BYLAYER
  9
$CECOLOR
 62
   256
  9
$DIMSCALE
 40
1.0
  9
$DIMASZ
 40
0.18
  9
$DIMEXO
 40
0.0625
  9
$DIMDLI
 40
0.38
  9
$DIMRND
 40
0.0
  9
$DIMDLE
 40
0.0
  9
$DIMEXE
 40
0.18
  9
$DIMTP
 40
0.0
  9
$DIMTM
 40
0.0
  9
$DIMTXT
 40
0.18
  9
$DIMCEN
 40
0.09
  9
$DIMTSZ
 40
0.0
  9
$DIMTOL
 70
     0
  9
$DIMLIM
 70
     0
  9
$DIMTIH
 70
     1
  9
$DIMTOH
 70
     1
  9
$DIMSE1
 70
     0
  9
$DIMSE2
 70
     0
  9
$DIMTAD
 70
     0
  9
$DIMZIN
 70
     0
  9
$DIMBLK
  1

  9
$DIMASO
 70
     1
  9
$DIMSHO
 70
     1
  9
$DIMPOST
  1

  9
$DIMAPOST
  1

  9
$DIMALT
 70
     0
  9
$DIMALTD
 70
     2
  9
$DIMALTF
 40
25.4
  9
$DIMLFAC
 40
1.0
  9
$DIMTOFL
 70
     0
  9
$DIMTVP
 40
0.0
  9
$DIMTIX
 70
     0
  9
$DIMSOXD
 70
     0
  9
$DIMSAH
 70
     0
  9
$DIMBLK1
  1

  9
$DIMBLK2
  1

  9
$DIMSTYLE
  2
STANDARD
  9
$DIMCLRD
 70
     0
  9
$DIMCLRE
 70
     0
  9
$DIMCLRT
 70
     0
  9
$DIMTFAC
 40
1.0
  9
$DIMGAP
 40
0.09
  9
$LUNITS
 70
     2
  9
$LUPREC
 70
     3
  9
$SKETCHINC
 40
0.1
  9
$FILLETRAD
 40
0.5
  9
$AUNITS
 70
     0
  9
$AUPREC
 70
     0
  9
$MENU
  1
.
  9
$ELEVATION
 40
0.0
  9
$PELEVATION
 40
0.0
  9
$THICKNESS
 40
0.0
  9
$LIMCHECK
 70
     0
  9
$CHAMFERA
 40
0.5
  9
$CHAMFERB
 40
0.5
  9
$SKPOLY
 70
     0
  9
$TDCREATE
 40
2458862.478991493
  9
$TDUPDATE
 40
2458862.478991505
  9
$TDINDWG
 40
0.0000000116
  9
$TDUSRTIMER
 40
0.0000000116
  9
$USRTIMER
 70
     1
  9
$ANGBASE
 50
0.0
  9
$ANGDIR
 70
     0
  9
$PDMODE
 70
     0
  9
$PDSIZE
 40
0.0
  9
$PLINEWID
 40
0.0
  9
$COORDS
 70
     1
  9
$SPLFRAME
 70
     0
  9
$SPLINETYPE
 70
     6
  9
$SPLINESEGS
 70
     8
  9
$ATTDIA
 70
     0
  9
$ATTREQ
 70
     1
  9
$HANDLING
 70
     1
  9
$HANDSEED
  5
259
  9
$SURFTAB1
 70
     6
  9
$SURFTAB2
 70
     6
  9
$SURFTYPE
 70
     6
  9
$SURFU
 70
     6
  9
$SURFV
 70
     6
  9
$UCSNAME
  2

  9
$UCSORG
 10
0.0
 20
0.0
 30
0.0
  9
$UCSXDIR
 10
1.0
 20
0.0
 30
0.0
  9
$UCSYDIR
 10
0.0
 20
1.0
 30
0.0
  9
$PUCSNAME
  2

  9
$PUCSORG
 10
0.0
 20
0.0
 30
0.0
  9
$PUCSXDIR
 10
1.0
 20
0.0
 30
0.0
  9
$PUCSYDIR
 10
0.0
 20
1.0
 30
0.0
  9
$USERI1
 70
     0
  9
$USERI2
 70
     0
  9
$USERI3
 70
     0
  9
$USERI4
 70
     0
  9
$USERI5
 70
     0
  9
$USERR1
 40
0.0
  9
$USERR2
 40
0.0
  9
$USERR3
 40
0.0
  9
$USERR4
 40
0.0
  9
$USERR5
 40
0.0
  9
$WORLDVIEW
 70
     1
  9
$SHADEDGE
 70
     3
  9
$SHADEDIF
 70
    70
  9
$TILEMODE
 70
     1
  9
$MAXACTVP
 70
    64
  9
$PLIMCHECK
 70
     0
  9
$PEXTMIN
 10
1.000000000000000E+20
 20
1.000000000000000E+20
 30
1.000000000000000E+20
  9
$PEXTMAX
 10
-1.000000000000000E+20
 20
-1.000000000000000E+20
 30
-1.000000000000000E+20
  9
$PLIMMIN
 10
0.0
 20
0.0
  9
$PLIMMAX
 10
12.0
 20
9.0
  9
$UNITMODE
 70
     0
  9
$VISRETAIN
 70
     1
  9
$PLINEGEN
 70
     0
  9
$PSLTSCALE
 70
     1
  0
ENDSEC
  0
SECTION
  2
TABLES
  0
TABLE
  2
VPORT
 70
     1
  0
VPORT
  2
*ACTIVE
 70
     0
 10
0.0
 20
0.0
 11
1.0
 21
1.0
 12
-0.0000000000286473
 22
-0.6450666748396614
 13
0.0
 23
0.0
 14
0.5
 24
0.5
 15
0.5
 25
0.5
 16
0.0
 26
0.0
 36
1.0
 17
0.0
 27
0.0
 37
0.0
 40
19.903484097315
 41
0.8189319980514785
 42
50.0
 43
0.0
 44
0.0
 50
0.0
 51
0.0
 71
     0
 72
   100
 73
     1
 74
     3
 75
     0
 76
     0
 77
     0
 78
     0
  0
ENDTAB
  0
TABLE
  2
LTYPE
 70
     1
  0
LTYPE
  2
CONTINUOUS
 70
     0
  3
Solid line
 72
    65
 73
     0
 40
0.0
  0
ENDTAB
  0
TABLE
  2
LAYER
 70
     2
  0
LAYER
  2
0
 70
     0
 62
     7
  6
CONTINUOUS
  0
LAYER
  2
DEFAULT
 70
     0
 62
     7
  6
CONTINUOUS
  0
ENDTAB
  0
TABLE
  2
STYLE
 70
     1
  0
STYLE
  2
STANDARD
 70
     0
 40
0.0
 41
1.0
 50
0.0
 71
     0
 42
0.2
  3
txt
  4

  0
ENDTAB
  0
TABLE
  2
VIEW
 70
     0
  0
ENDTAB
  0
TABLE
  2
UCS
 70
     0
  0
ENDTAB
  0
TABLE
  2
APPID
 70
     1
  0
APPID
  2
ACAD
 70
     0
  0
ENDTAB
  0
TABLE
  2
DIMSTYLE
 70
     1
  0
DIMSTYLE
  2
STANDARD
 70
     0
  3

  4

  5

  6

  7

 40
1.0
 41
0.18
 42
0.0625
 43
0.38
 44
0.18
 45
0.0
 46
0.0
 47
0.0
 48
0.0
140
0.18
141
0.09
142
0.0
143
25.4
144
1.0
145
0.0
146
1.0
147
0.09
 71
     0
 72
     0
 73
     1
 74
     1
 75
     0
 76
     0
 77
     0
 78
     0
170
     0
171
     2
172
     0
173
     0
174
     0
175
     0
176
     0
177
     0
178
     0
  0
ENDTAB
  0
ENDSEC
  0
SECTION
  2
BLOCKS
  0
BLOCK
  8
0
  2
$MODEL_SPACE
 70
     0
 10
0.0
 20
0.0
 30
0.0
  3
$MODEL_SPACE
  1

  0
ENDBLK
  5
21
  8
0
  0
BLOCK
 67
     1
  8
0
  2
$PAPER_SPACE
 70
     0
 10
0.0
 20
0.0
 30
0.0
  3
$PAPER_SPACE
  1

  0
ENDBLK
  5
1D
 67
     1
  8
0
  0
ENDSEC
  0
SECTION
  2
ENTITIES
  0
ARC
  5
3C
  8
DEFAULT
 10
4.444999999971353
 20
8.886543176785333
 30
0.0
 40
0.2249999999999996
 50
179.9999999999995
 51
0.0000000000004523
  0
ARC
  5
3D
  8
DEFAULT
 10
4.444999999971353
 20
8.886543176785333
 30
0.0
 40
0.2249999999999996
 50
179.9999999999995
 51
0.0000000000004523
  0
ARC
  5
3E
  8
DEFAULT
 10
4.444999999971352
 20
8.886543176785128
 30
0.0
 40
0.2249999999996929
 50
221.8103148958347
 51
318.1896851041659
  0
ARC
  5
3F
  8
DEFAULT
 10
4.444999999971352
 20
8.886543176785134
 30
0.0
 40
0.2249999999996984
 50
221.8103148958354
 51
318.1896851041648
  0
ARC
  5
40
  8
DEFAULT
 10
4.444999999971353
 20
8.886543176785333
 30
0.0
 40
0.2249999999999996
 50
179.9999999999995
 51
0.0000000000004523
  0
ARC
  5
41
  8
DEFAULT
 10
4.444999999971353
 20
8.886543176785334
 30
0.0
 40
0.2249999999999996
 50
0.0
 51
180.0
  0
ARC
  5
42
  8
DEFAULT
 10
4.444999999971353
 20
8.886543176785334
 30
0.0
 40
0.2249999999999996
 50
0.0
 51
180.0
  0
ARC
  5
43
  8
DEFAULT
 10
4.444999999971353
 20
8.886543176785537
 30
0.0
 40
0.2249999999996966
 50
41.81031489583508
 51
138.1896851041649
  0
ARC
  5
44
  8
DEFAULT
 10
4.444999999971353
 20
8.886543176785535
 30
0.0
 40
0.2249999999996978
 50
41.81031489583543
 51
138.1896851041646
  0
ARC
  5
45
  8
DEFAULT
 10
4.444999999971353
 20
8.886543176785334
 30
0.0
 40
0.2249999999999996
 50
0.0
 51
180.0
  0
ARC
  5
46
  8
DEFAULT
 10
4.444999999971353
 20
8.886543176785334
 30
0.0
 40
0.2249999999999996
 50
0.0
 51
180.0
  0
ARC
  5
47
  8
DEFAULT
 10
4.444999999971353
 20
8.886543176785333
 30
0.0
 40
0.2249999999999996
 50
179.9999999999995
 51
0.0000000000004523
  0
LINE
  5
48
  8
DEFAULT
 10
4.669999999971353
 20
8.886543176785334
 30
0.0
 11
4.219999999971353
 21
8.886543176785334
 31
0.0
  0
LINE
  5
49
  8
DEFAULT
 10
4.444999999971353
 20
8.661543176785335
 30
0.0
 11
4.444999999971353
 21
9.111543176785334
 31
0.0
  0
ARC
  5
4A
  8
DEFAULT
 10
1.904999999971353
 20
8.886543176785334
 30
0.0
 40
0.2249999999999996
 50
180.0
 51
0.0
  0
ARC
  5
4B
  8
DEFAULT
 10
1.904999999971353
 20
8.886543176785334
 30
0.0
 40
0.2249999999999996
 50
180.0
 51
0.0
  0
ARC
  5
4C
  8
DEFAULT
 10
1.904999999971353
 20
8.886543176785134
 30
0.0
 40
0.2249999999996974
 50
221.8103148958355
 51
318.1896851041645
  0
ARC
  5
4D
  8
DEFAULT
 10
1.904999999971353
 20
8.886543176785134
 30
0.0
 40
0.2249999999996976
 50
221.8103148958355
 51
318.1896851041645
  0
ARC
  5
4E
  8
DEFAULT
 10
1.904999999971353
 20
8.886543176785333
 30
0.0
 40
0.2249999999999996
 50
179.9999999999995
 51
0.0000000000004523
  0
ARC
  5
4F
  8
DEFAULT
 10
1.904999999971353
 20
8.886543176785334
 30
0.0
 40
0.2250000000000003
 50
0.0
 51
180.0
  0
ARC
  5
50
  8
DEFAULT
 10
1.904999999971353
 20
8.886543176785334
 30
0.0
 40
0.2250000000000003
 50
0.0
 51
180.0
  0
ARC
  5
51
  8
DEFAULT
 10
1.904999999971354
 20
8.88654317678554
 30
0.0
 40
0.2249999999996943
 50
41.81031489583481
 51
138.1896851041656
  0
ARC
  5
52
  8
DEFAULT
 10
1.904999999971353
 20
8.886543176785535
 30
0.0
 40
0.2249999999996976
 50
41.81031489583545
 51
138.1896851041645
  0
ARC
  5
53
  8
DEFAULT
 10
1.904999999971353
 20
8.886543176785334
 30
0.0
 40
0.2249999999999999
 50
0.0
 51
180.0
  0
ARC
  5
54
  8
DEFAULT
 10
1.904999999971353
 20
8.886543176785334
 30
0.0
 40
0.2250000000000003
 50
0.0
 51
180.0
  0
ARC
  5
55
  8
DEFAULT
 10
1.904999999971353
 20
8.886543176785334
 30
0.0
 40
0.2249999999999996
 50
180.0
 51
0.0
  0
LINE
  5
56
  8
DEFAULT
 10
2.129999999971353
 20
8.886543176785334
 30
0.0
 11
1.679999999971353
 21
8.886543176785334
 31
0.0
  0
LINE
  5
57
  8
DEFAULT
 10
1.904999999971353
 20
8.661543176785335
 30
0.0
 11
1.904999999971353
 21
9.111543176785334
 31
0.0
  0
ARC
  5
58
  8
DEFAULT
 10
-0.6350000000286481
 20
8.886543176785334
 30
0.0
 40
0.2250000000000006
 50
180.0
 51
0.0
  0
ARC
  5
59
  8
DEFAULT
 10
-0.6350000000286481
 20
8.886543176785334
 30
0.0
 40
0.2250000000000006
 50
180.0
 51
0.0
  0
ARC
  5
5A
  8
DEFAULT
 10
-0.635000000028647
 20
8.886543176785345
 30
0.0
 40
0.2250000000000138
 50
221.810314895778
 51
318.189685104222
  0
ARC
  5
5B
  8
DEFAULT
 10
-0.6350000000286469
 20
8.886543176785343
 30
0.0
 40
0.225000000000012
 50
221.8103148957777
 51
318.1896851042222
  0
ARC
  5
5C
  8
DEFAULT
 10
-0.6350000000286479
 20
8.886543176785333
 30
0.0
 40
0.2250000000000002
 50
179.9999999999995
 51
0.0000000000004523
  0
ARC
  5
5D
  8
DEFAULT
 10
-0.6350000000286481
 20
8.886543176785336
 30
0.0
 40
0.2249999999999991
 50
359.9999999999995
 51
180.0000000000005
  0
ARC
  5
5E
  8
DEFAULT
 10
-0.6350000000286481
 20
8.886543176785336
 30
0.0
 40
0.2249999999999991
 50
359.9999999999995
 51
180.0000000000005
  0
ARC
  5
5F
  8
DEFAULT
 10
-0.635000000028647
 20
8.886543176785324
 30
0.0
 40
0.2250000000000138
 50
41.81031489577805
 51
138.189685104222
  0
ARC
  5
60
  8
DEFAULT
 10
-0.6350000000286473
 20
8.886543176785324
 30
0.0
 40
0.2250000000000136
 50
41.81031489577806
 51
138.1896851042219
  0
ARC
  5
61
  8
DEFAULT
 10
-0.6350000000286466
 20
8.886543176785336
 30
0.0
 40
0.2250000000000003
 50
359.9999999999995
 51
180.0000000000005
  0
ARC
  5
62
  8
DEFAULT
 10
-0.6350000000286481
 20
8.886543176785336
 30
0.0
 40
0.2249999999999991
 50
359.9999999999995
 51
180.0000000000005
  0
ARC
  5
63
  8
DEFAULT
 10
-0.6350000000286481
 20
8.886543176785334
 30
0.0
 40
0.2250000000000006
 50
180.0
 51
0.0
  0
LINE
  5
64
  8
DEFAULT
 10
-0.4100000000286474
 20
8.886543176785334
 30
0.0
 11
-0.8600000000286466
 21
8.886543176785334
 31
0.0
  0
LINE
  5
65
  8
DEFAULT
 10
-0.6350000000286471
 20
8.661543176785335
 30
0.0
 11
-0.6350000000286471
 21
9.111543176785334
 31
0.0
  0
ARC
  5
66
  8
DEFAULT
 10
-4.445000000028648
 20
6.346543176785335
 30
0.0
 40
0.2249999999999996
 50
0.0
 51
180.0
  0
ARC
  5
67
  8
DEFAULT
 10
-4.445000000028648
 20
6.346543176785335
 30
0.0
 40
0.2249999999999996
 50
0.0
 51
180.0
  0
ARC
  5
68
  8
DEFAULT
 10
-4.445000000028648
 20
6.34654317678554
 30
0.0
 40
0.2249999999996936
 50
41.81031489583456
 51
138.1896851041654
  0
ARC
  5
69
  8
DEFAULT
 10
-4.445000000028648
 20
6.346543176785538
 30
0.0
 40
0.224999999999696
 50
41.81031489583491
 51
138.1896851041651
  0
ARC
  5
6A
  8
DEFAULT
 10
-4.445000000028648
 20
6.346543176785335
 30
0.0
 40
0.2249999999999996
 50
0.0
 51
180.0
  0
ARC
  5
6B
  8
DEFAULT
 10
-4.445000000028648
 20
6.346543176785335
 30
0.0
 40
0.2249999999999996
 50
180.0
 51
0.0
  0
ARC
  5
6C
  8
DEFAULT
 10
-4.445000000028648
 20
6.346543176785335
 30
0.0
 40
0.2249999999999996
 50
180.0
 51
0.0
  0
ARC
  5
6D
  8
DEFAULT
 10
-4.445000000028648
 20
6.346543176785134
 30
0.0
 40
0.2249999999996966
 50
221.8103148958351
 51
318.1896851041649
  0
ARC
  5
6E
  8
DEFAULT
 10
-4.445000000028648
 20
6.346543176785134
 30
0.0
 40
0.2249999999996966
 50
221.8103148958351
 51
318.1896851041649
  0
ARC
  5
6F
  8
DEFAULT
 10
-4.445000000028648
 20
6.346543176785335
 30
0.0
 40
0.2249999999999996
 50
180.0
 51
0.0
  0
ARC
  5
70
  8
DEFAULT
 10
-4.445000000028648
 20
6.346543176785335
 30
0.0
 40
0.2249999999999996
 50
180.0
 51
0.0
  0
ARC
  5
71
  8
DEFAULT
 10
-4.445000000028648
 20
6.346543176785335
 30
0.0
 40
0.2249999999999996
 50
0.0
 51
180.0
  0
LINE
  5
72
  8
DEFAULT
 10
-4.670000000028647
 20
6.346543176785335
 30
0.0
 11
-4.220000000028648
 21
6.346543176785335
 31
0.0
  0
LINE
  5
73
  8
DEFAULT
 10
-4.445000000028648
 20
6.571543176785335
 30
0.0
 11
-4.445000000028648
 21
6.121543176785336
 31
0.0
  0
ARC
  5
74
  8
DEFAULT
 10
-1.905000000028646
 20
6.346543176785335
 30
0.0
 40
0.225000000000001
 50
0.0
 51
180.0
  0
ARC
  5
75
  8
DEFAULT
 10
-1.905000000028646
 20
6.346543176785335
 30
0.0
 40
0.225000000000001
 50
0.0
 51
180.0
  0
ARC
  5
76
  8
DEFAULT
 10
-1.905000000028649
 20
6.346543176785536
 30
0.0
 40
0.2249999999996968
 50
41.81031489583505
 51
138.1896851041644
  0
ARC
  5
77
  8
DEFAULT
 10
-1.905000000028648
 20
6.34654317678554
 30
0.0
 40
0.2249999999996947
 50
41.81031489583462
 51
138.1896851041654
  0
ARC
  5
78
  8
DEFAULT
 10
-1.905000000028648
 20
6.346543176785335
 30
0.0
 40
0.224999999999999
 50
0.0
 51
180.0
  0
ARC
  5
79
  8
DEFAULT
 10
-1.905000000028647
 20
6.346543176785335
 30
0.0
 40
0.2249999999999999
 50
180.0
 51
0.0
  0
ARC
  5
7A
  8
DEFAULT
 10
-1.905000000028647
 20
6.346543176785335
 30
0.0
 40
0.2249999999999999
 50
180.0
 51
0.0
  0
ARC
  5
7B
  8
DEFAULT
 10
-1.905000000028648
 20
6.346543176785133
 30
0.0
 40
0.224999999999696
 50
221.8103148958349
 51
318.1896851041651
  0
ARC
  5
7C
  8
DEFAULT
 10
-1.905000000028648
 20
6.346543176785133
 30
0.0
 40
0.2249999999996955
 50
221.810314895835
 51
318.1896851041651
  0
ARC
  5
7D
  8
DEFAULT
 10
-1.905000000028647
 20
6.346543176785335
 30
0.0
 40
0.2249999999999992
 50
180.0
 51
0.0
  0
ARC
  5
7E
  8
DEFAULT
 10
-1.905000000028647
 20
6.346543176785335
 30
0.0
 40
0.2249999999999999
 50
180.0
 51
0.0
  0
ARC
  5
7F
  8
DEFAULT
 10
-1.905000000028646
 20
6.346543176785335
 30
0.0
 40
0.225000000000001
 50
0.0
 51
180.0
  0
LINE
  5
80
  8
DEFAULT
 10
-2.130000000028647
 20
6.346543176785335
 30
0.0
 11
-1.680000000028648
 21
6.346543176785335
 31
0.0
  0
LINE
  5
81
  8
DEFAULT
 10
-1.905000000028648
 20
6.571543176785335
 30
0.0
 11
-1.905000000028648
 21
6.121543176785336
 31
0.0
  0
ARC
  5
82
  8
DEFAULT
 10
0.6349999999713528
 20
6.346543176785334
 30
0.0
 40
0.225
 50
0.0000000000002262
 51
179.9999999999998
  0
ARC
  5
83
  8
DEFAULT
 10
0.6349999999713528
 20
6.346543176785334
 30
0.0
 40
0.225
 50
0.0000000000002262
 51
179.9999999999998
  0
ARC
  5
84
  8
DEFAULT
 10
0.6349999999713526
 20
6.34654317678533
 30
0.0
 40
0.2250000000000095
 50
41.81031489577687
 51
138.1896851042231
  0
ARC
  5
85
  8
DEFAULT
 10
0.6349999999713528
 20
6.34654317678533
 30
0.0
 40
0.2250000000000095
 50
41.81031489577688
 51
138.1896851042231
  0
ARC
  5
86
  8
DEFAULT
 10
0.6349999999713527
 20
6.346543176785335
 30
0.0
 40
0.2249999999999996
 50
0.0
 51
180.0
  0
ARC
  5
87
  8
DEFAULT
 10
0.6349999999713528
 20
6.346543176785334
 30
0.0
 40
0.2249999999999998
 50
179.9999999999998
 51
0.0000000000002262
  0
ARC
  5
88
  8
DEFAULT
 10
0.6349999999713528
 20
6.346543176785334
 30
0.0
 40
0.2249999999999998
 50
179.9999999999998
 51
0.0000000000002262
  0
ARC
  5
89
  8
DEFAULT
 10
0.6349999999713525
 20
6.346543176785341
 30
0.0
 40
0.2250000000000096
 50
221.810314895777
 51
318.1896851042231
  0
ARC
  5
8A
  8
DEFAULT
 10
0.6349999999713525
 20
6.346543176785341
 30
0.0
 40
0.2250000000000092
 50
221.8103148957769
 51
318.1896851042231
  0
ARC
  5
8B
  8
DEFAULT
 10
0.6349999999713527
 20
6.346543176785335
 30
0.0
 40
0.2249999999999996
 50
180.0
 51
0.0
  0
ARC
  5
8C
  8
DEFAULT
 10
0.6349999999713528
 20
6.346543176785334
 30
0.0
 40
0.2249999999999998
 50
179.9999999999998
 51
0.0000000000002262
  0
ARC
  5
8D
  8
DEFAULT
 10
0.6349999999713528
 20
6.346543176785334
 30
0.0
 40
0.225
 50
0.0000000000002262
 51
179.9999999999998
  0
LINE
  5
8E
  8
DEFAULT
 10
0.4099999999713528
 20
6.346543176785335
 30
0.0
 11
0.859999999971352
 21
6.346543176785335
 31
0.0
  0
LINE
  5
8F
  8
DEFAULT
 10
0.6349999999713525
 20
6.571543176785335
 30
0.0
 11
0.6349999999713525
 21
6.121543176785336
 31
0.0
  0
ARC
  5
90
  8
DEFAULT
 10
3.174999999971352
 20
6.346543176785334
 30
0.0
 40
0.2249999999999992
 50
0.0000000000002262
 51
179.9999999999998
  0
ARC
  5
91
  8
DEFAULT
 10
3.174999999971352
 20
6.346543176785336
 30
0.0
 40
0.2249999999999996
 50
359.9999999999998
 51
180.0000000000002
  0
ARC
  5
92
  8
DEFAULT
 10
3.174999999971353
 20
6.34654317678554
 30
0.0
 40
0.2249999999996942
 50
41.81031489583473
 51
138.1896851041655
  0
ARC
  5
93
  8
DEFAULT
 10
3.174999999971353
 20
6.34654317678554
 30
0.0
 40
0.2249999999996942
 50
41.81031489583448
 51
138.1896851041653
  0
ARC
  5
94
  8
DEFAULT
 10
3.174999999971353
 20
6.346543176785335
 30
0.0
 40
0.2250000000000001
 50
0.0
 51
180.0
  0
ARC
  5
95
  8
DEFAULT
 10
3.174999999971353
 20
6.346543176785335
 30
0.0
 40
0.2249999999999996
 50
180.0
 51
0.0
  0
ARC
  5
96
  8
DEFAULT
 10
3.174999999971352
 20
6.346543176785336
 30
0.0
 40
0.2250000000000005
 50
180.0000000000002
 51
359.9999999999998
  0
ARC
  5
97
  8
DEFAULT
 10
3.174999999971353
 20
6.346543176785132
 30
0.0
 40
0.2249999999996954
 50
221.8103148958348
 51
318.1896851041653
  0
ARC
  5
98
  8
DEFAULT
 10
3.174999999971353
 20
6.346543176785132
 30
0.0
 40
0.2249999999996951
 50
221.8103148958348
 51
318.1896851041652
  0
ARC
  5
99
  8
DEFAULT
 10
3.174999999971353
 20
6.346543176785335
 30
0.0
 40
0.2249999999999992
 50
180.0
 51
0.0
  0
ARC
  5
9A
  8
DEFAULT
 10
3.174999999971353
 20
6.346543176785335
 30
0.0
 40
0.2249999999999996
 50
180.0
 51
0.0
  0
ARC
  5
9B
  8
DEFAULT
 10
3.174999999971352
 20
6.346543176785334
 30
0.0
 40
0.2249999999999992
 50
0.0000000000002262
 51
179.9999999999998
  0
LINE
  5
9C
  8
DEFAULT
 10
2.949999999971353
 20
6.346543176785335
 30
0.0
 11
3.399999999971352
 21
6.346543176785335
 31
0.0
  0
LINE
  5
9D
  8
DEFAULT
 10
3.174999999971353
 20
6.571543176785335
 30
0.0
 11
3.174999999971353
 21
6.121543176785336
 31
0.0
  0
LINE
  5
9E
  8
DEFAULT
 10
7.048999999970936
 20
-2.799456823214665
 30
0.0
 11
7.048999999970936
 21
-2.299456823214664
 31
0.0
  0
LINE
  5
9F
  8
DEFAULT
 10
7.048999999971353
 20
-2.299456823214664
 30
0.0
 11
7.048999999971353
 21
-2.799456823214665
 31
0.0
  0
LINE
  5
A0
  8
DEFAULT
 10
7.048999999971352
 20
-2.299456823214664
 30
0.0
 11
7.048999999971352
 21
-2.799456823214665
 31
0.0
  0
LINE
  5
A1
  8
DEFAULT
 10
6.548999999971352
 20
-2.799456823214665
 30
0.0
 11
7.048999999971353
 21
-2.799456823214665
 31
0.0
  0
LINE
  5
A2
  8
DEFAULT
 10
6.548999999971352
 20
-2.299456823214664
 30
0.0
 11
6.548999999971352
 21
-2.799456823214665
 31
0.0
  0
LINE
  5
A3
  8
DEFAULT
 10
7.048999999971353
 20
-2.299456823214664
 30
0.0
 11
7.048999999971353
 21
-2.799456823214665
 31
0.0
  0
LINE
  5
A4
  8
DEFAULT
 10
6.548999999971352
 20
-2.299456823214664
 30
0.0
 11
7.048999999971353
 21
-2.299456823214664
 31
0.0
  0
LINE
  5
A5
  8
DEFAULT
 10
6.798999999971352
 20
-2.799456823214665
 30
0.0
 11
6.798999999971352
 21
-2.299456823214664
 31
0.0
  0
LINE
  5
A6
  8
DEFAULT
 10
6.548999999971353
 20
-2.549456823214664
 30
0.0
 11
7.048999999971352
 21
-2.549456823214664
 31
0.0
  0
LINE
  5
A7
  8
DEFAULT
 10
6.548999999971352
 20
-2.799456823214665
 30
0.0
 11
6.548999999971352
 21
-2.299456823214664
 31
0.0
  0
LINE
  5
A8
  8
DEFAULT
 10
6.548999999971352
 20
-2.299456823214664
 30
0.0
 11
6.548999999971352
 21
-2.799456823214665
 31
0.0
  0
LINE
  5
A9
  8
DEFAULT
 10
6.548999999971352
 20
-2.799456823214665
 30
0.0
 11
6.548999999971352
 21
-2.299456823214664
 31
0.0
  0
LINE
  5
AA
  8
DEFAULT
 10
6.548999999971352
 20
-4.831456823214665
 30
0.0
 11
6.548999999971352
 21
-4.331456823214665
 31
0.0
  0
LINE
  5
AB
  8
DEFAULT
 10
6.548999999971352
 20
-4.831456823214665
 30
0.0
 11
6.548999999971352
 21
-4.331456823214665
 31
0.0
  0
LINE
  5
AC
  8
DEFAULT
 10
6.548999999971352
 20
-4.831456823214665
 30
0.0
 11
6.548999999971352
 21
-4.331456823214665
 31
0.0
  0
LINE
  5
AD
  8
DEFAULT
 10
6.548999999971352
 20
-4.831456823214665
 30
0.0
 11
7.048999999971353
 21
-4.831456823214665
 31
0.0
  0
LINE
  5
AE
  8
DEFAULT
 10
7.048999999971353
 20
-4.331456823214665
 30
0.0
 11
6.548999999971352
 21
-4.331456823214665
 31
0.0
  0
LINE
  5
AF
  8
DEFAULT
 10
7.048999999971353
 20
-4.831456823214665
 30
0.0
 11
7.048999999971353
 21
-4.331456823214665
 31
0.0
  0
LINE
  5
B0
  8
DEFAULT
 10
6.548999999971352
 20
-4.831456823214665
 30
0.0
 11
6.548999999971352
 21
-4.331456823214665
 31
0.0
  0
LINE
  5
B1
  8
DEFAULT
 10
6.798999999971352
 20
-4.831456823214665
 30
0.0
 11
6.798999999971352
 21
-4.331456823214665
 31
0.0
  0
LINE
  5
B2
  8
DEFAULT
 10
6.548999999971353
 20
-4.581456823214665
 30
0.0
 11
7.048999999971352
 21
-4.581456823214665
 31
0.0
  0
LINE
  5
B3
  8
DEFAULT
 10
7.048999999971353
 20
-4.331456823214665
 30
0.0
 11
7.048999999971353
 21
-4.831456823214665
 31
0.0
  0
LINE
  5
B4
  8
DEFAULT
 10
7.048999999971353
 20
-4.831456823214665
 30
0.0
 11
7.048999999971353
 21
-4.331456823214665
 31
0.0
  0
LINE
  5
B5
  8
DEFAULT
 10
7.048999999971352
 20
-4.331456823214665
 30
0.0
 11
7.048999999971352
 21
-4.831456823214665
 31
0.0
  0
LINE
  5
B6
  8
DEFAULT
 10
7.048999999971353
 20
-4.331456823214665
 30
0.0
 11
6.548999999971352
 21
-4.331456823214665
 31
0.0
  0
LINE
  5
B7
  8
DEFAULT
 10
6.548999999971352
 20
-4.331456823214665
 30
0.0
 11
6.468999999971352
 21
-4.331456823214665
 31
0.0
  0
LINE
  5
B8
  8
DEFAULT
 10
7.128999999971353
 20
-4.331456823214665
 30
0.0
 11
7.048999999971353
 21
-4.331456823214665
 31
0.0
  0
LINE
  5
B9
  8
DEFAULT
 10
7.128999999971353
 20
-4.331456823214665
 30
0.0
 11
7.048999999971353
 21
-4.331456823214665
 31
0.0
  0
LINE
  5
BA
  8
DEFAULT
 10
6.548999999971352
 20
-4.331456823214665
 30
0.0
 11
6.468999999971352
 21
-4.331456823214665
 31
0.0
  0
LINE
  5
BB
  8
DEFAULT
 10
7.048999999971353
 20
-4.331456823214665
 30
0.0
 11
6.548999999971352
 21
-4.331456823214665
 31
0.0
  0
LINE
  5
BC
  8
DEFAULT
 10
6.548999999971352
 20
-4.331456823214665
 30
0.0
 11
7.048999999971352
 21
-4.331456823214665
 31
0.0
  0
LINE
  5
BD
  8
DEFAULT
 10
6.468999999971352
 20
-4.831456823214665
 30
0.0
 11
6.548999999971352
 21
-4.831456823214665
 31
0.0
  0
LINE
  5
BE
  8
DEFAULT
 10
7.128999999971353
 20
-4.831456823214665
 30
0.0
 11
7.048999999971353
 21
-4.831456823214665
 31
0.0
  0
LINE
  5
BF
  8
DEFAULT
 10
7.048999999971353
 20
-4.831456823214665
 30
0.0
 11
7.128999999971353
 21
-4.831456823214665
 31
0.0
  0
LINE
  5
C0
  8
DEFAULT
 10
6.548999999971352
 20
-4.831456823214665
 30
0.0
 11
7.048999999971353
 21
-4.831456823214665
 31
0.0
  0
LINE
  5
C1
  8
DEFAULT
 10
6.468999999971352
 20
-4.831456823214665
 30
0.0
 11
6.548999999971352
 21
-4.831456823214665
 31
0.0
  0
LINE
  5
C2
  8
DEFAULT
 10
7.048999999971353
 20
-4.831456823214665
 30
0.0
 11
6.548999999971352
 21
-4.831456823214665
 31
0.0
  0
LINE
  5
C3
  8
DEFAULT
 10
7.048999999971352
 20
-4.831456823214665
 30
0.0
 11
6.548999999971352
 21
-4.831456823214665
 31
0.0
  0
LINE
  5
C4
  8
DEFAULT
 10
-6.549000000028647
 20
-2.299456823214664
 30
0.0
 11
-6.549000000028647
 21
-2.799456823214665
 31
0.0
  0
LINE
  5
C5
  8
DEFAULT
 10
-6.549000000028647
 20
-2.799456823214665
 30
0.0
 11
-6.549000000028647
 21
-2.299456823214664
 31
0.0
  0
LINE
  5
C6
  8
DEFAULT
 10
-6.549000000028647
 20
-2.799456823214665
 30
0.0
 11
-6.549000000028647
 21
-2.299456823214664
 31
0.0
  0
LINE
  5
C7
  8
DEFAULT
 10
-6.549000000028647
 20
-2.799456823214665
 30
0.0
 11
-7.049000000028648
 21
-2.799456823214665
 31
0.0
  0
LINE
  5
C8
  8
DEFAULT
 10
-7.049000000028648
 20
-2.299456823214664
 30
0.0
 11
-6.549000000028647
 21
-2.299456823214664
 31
0.0
  0
LINE
  5
C9
  8
DEFAULT
 10
-7.049000000028648
 20
-2.799456823214665
 30
0.0
 11
-7.049000000028648
 21
-2.299456823214664
 31
0.0
  0
LINE
  5
CA
  8
DEFAULT
 10
-6.549000000028647
 20
-2.799456823214665
 30
0.0
 11
-6.549000000028647
 21
-2.299456823214664
 31
0.0
  0
LINE
  5
CB
  8
DEFAULT
 10
-6.549000000028648
 20
-2.549456823214664
 30
0.0
 11
-7.049000000028647
 21
-2.549456823214664
 31
0.0
  0
LINE
  5
CC
  8
DEFAULT
 10
-6.799000000028647
 20
-2.799456823214665
 30
0.0
 11
-6.799000000028647
 21
-2.299456823214664
 31
0.0
  0
LINE
  5
CD
  8
DEFAULT
 10
-7.049000000028397
 20
-2.299456823214664
 30
0.0
 11
-7.04900000002823
 21
-2.799456823214665
 31
0.0
  0
LINE
  5
CE
  8
DEFAULT
 10
-7.049000000028648
 20
-2.799456823214665
 30
0.0
 11
-7.049000000028648
 21
-2.299456823214664
 31
0.0
  0
LINE
  5
CF
  8
DEFAULT
 10
-7.049000000028647
 20
-2.299456823214664
 30
0.0
 11
-7.049000000028647
 21
-2.799456823214665
 31
0.0
  0
LINE
  5
D0
  8
DEFAULT
 10
-6.209000000028648
 20
-2.299456823214664
 30
0.0
 11
-7.049000000028397
 21
-2.299456823214664
 31
0.0
  0
LINE
  5
D1
  8
DEFAULT
 10
-6.049000000028647
 20
-2.299456823214664
 30
0.0
 11
-6.209000000028647
 21
-2.299456823214664
 31
0.0
  0
LINE
  5
D2
  8
DEFAULT
 10
-6.049000000028647
 20
-2.299456823214664
 30
0.0
 11
-6.549000000028647
 21
-2.299456823214664
 31
0.0
  0
LINE
  5
D3
  8
DEFAULT
 10
-7.049000000028648
 20
-2.299456823214664
 30
0.0
 11
-6.549000000028647
 21
-2.299456823214664
 31
0.0
  0
LINE
  5
D4
  8
DEFAULT
 10
-7.049000000028514
 20
-2.299456823214664
 30
0.0
 11
-6.549000000028648
 21
-2.299456823214664
 31
0.0
  0
LINE
  5
D5
  8
DEFAULT
 10
-7.049000000028231
 20
-2.799456823214665
 30
0.0
 11
-6.209000000028648
 21
-2.799456823214665
 31
0.0
  0
LINE
  5
D6
  8
DEFAULT
 10
-6.209000000028647
 20
-2.799456823214665
 30
0.0
 11
-6.049000000028647
 21
-2.799456823214665
 31
0.0
  0
LINE
  5
D7
  8
DEFAULT
 10
-6.049000000028647
 20
-2.799456823214665
 30
0.0
 11
-6.549000000028647
 21
-2.799456823214665
 31
0.0
  0
LINE
  5
D8
  8
DEFAULT
 10
-6.549000000028647
 20
-2.799456823214665
 30
0.0
 11
-7.049000000028648
 21
-2.799456823214665
 31
0.0
  0
LINE
  5
D9
  8
DEFAULT
 10
-6.549000000028648
 20
-2.799456823214665
 30
0.0
 11
-7.049000000028246
 21
-2.799456823214665
 31
0.0
  0
LINE
  5
DA
  8
DEFAULT
 10
-6.549000000028647
 20
-4.831456823214665
 30
0.0
 11
-6.549000000028647
 21
-4.331456823214665
 31
0.0
  0
LINE
  5
DB
  8
DEFAULT
 10
-6.549000000028647
 20
-4.831456823214665
 30
0.0
 11
-6.549000000028647
 21
-4.331456823214665
 31
0.0
  0
LINE
  5
DC
  8
DEFAULT
 10
-6.549000000028647
 20
-4.831456823214665
 30
0.0
 11
-6.549000000028647
 21
-4.331456823214665
 31
0.0
  0
LINE
  5
DD
  8
DEFAULT
 10
-6.549000000028647
 20
-4.831456823214665
 30
0.0
 11
-7.049000000028648
 21
-4.831456823214665
 31
0.0
  0
LINE
  5
DE
  8
DEFAULT
 10
-7.049000000028648
 20
-4.331456823214665
 30
0.0
 11
-6.549000000028647
 21
-4.331456823214665
 31
0.0
  0
LINE
  5
DF
  8
DEFAULT
 10
-7.049000000028648
 20
-4.831456823214665
 30
0.0
 11
-7.049000000028648
 21
-4.331456823214665
 31
0.0
  0
LINE
  5
E0
  8
DEFAULT
 10
-6.549000000028647
 20
-4.831456823214665
 30
0.0
 11
-6.549000000028647
 21
-4.331456823214665
 31
0.0
  0
LINE
  5
E1
  8
DEFAULT
 10
-6.549000000028648
 20
-4.581456823214665
 30
0.0
 11
-7.049000000028647
 21
-4.581456823214665
 31
0.0
  0
LINE
  5
E2
  8
DEFAULT
 10
-6.799000000028647
 20
-4.831456823214665
 30
0.0
 11
-6.799000000028647
 21
-4.331456823214665
 31
0.0
  0
LINE
  5
E3
  8
DEFAULT
 10
-7.049000000028648
 20
-4.331456823214665
 30
0.0
 11
-7.049000000028648
 21
-4.831456823214665
 31
0.0
  0
LINE
  5
E4
  8
DEFAULT
 10
-7.049000000028648
 20
-4.831456823214665
 30
0.0
 11
-7.049000000028648
 21
-4.331456823214665
 31
0.0
  0
LINE
  5
E5
  8
DEFAULT
 10
-7.049000000028647
 20
-4.331456823214665
 30
0.0
 11
-7.049000000028647
 21
-4.831456823214665
 31
0.0
  0
LINE
  5
E6
  8
DEFAULT
 10
-6.549000000028647
 20
-4.331456823214665
 30
0.0
 11
-7.049000000028648
 21
-4.331456823214665
 31
0.0
  0
LINE
  5
E7
  8
DEFAULT
 10
-7.129000000028648
 20
-4.331456823214665
 30
0.0
 11
-7.049000000028648
 21
-4.331456823214665
 31
0.0
  0
LINE
  5
E8
  8
DEFAULT
 10
-6.549000000028647
 20
-4.331456823214665
 30
0.0
 11
-6.469000000028647
 21
-4.331456823214665
 31
0.0
  0
LINE
  5
E9
  8
DEFAULT
 10
-7.049000000028648
 20
-4.331456823214665
 30
0.0
 11
-6.549000000028647
 21
-4.331456823214665
 31
0.0
  0
LINE
  5
EA
  8
DEFAULT
 10
-6.549000000028647
 20
-4.331456823214665
 30
0.0
 11
-6.469000000028647
 21
-4.331456823214665
 31
0.0
  0
LINE
  5
EB
  8
DEFAULT
 10
-7.129000000028648
 20
-4.331456823214665
 30
0.0
 11
-7.049000000028648
 21
-4.331456823214665
 31
0.0
  0
LINE
  5
EC
  8
DEFAULT
 10
-6.549000000028647
 20
-4.331456823214665
 30
0.0
 11
-7.049000000028647
 21
-4.331456823214665
 31
0.0
  0
LINE
  5
ED
  8
DEFAULT
 10
-7.049000000028648
 20
-4.831456823214665
 30
0.0
 11
-7.129000000028648
 21
-4.831456823214665
 31
0.0
  0
LINE
  5
EE
  8
DEFAULT
 10
-7.049000000028648
 20
-4.831456823214665
 30
0.0
 11
-6.549000000028647
 21
-4.831456823214665
 31
0.0
  0
LINE
  5
EF
  8
DEFAULT
 10
-6.549000000028647
 20
-4.831456823214665
 30
0.0
 11
-6.469000000028647
 21
-4.831456823214665
 31
0.0
  0
LINE
  5
F0
  8
DEFAULT
 10
-6.469000000028647
 20
-4.831456823214665
 30
0.0
 11
-6.549000000028647
 21
-4.831456823214665
 31
0.0
  0
LINE
  5
F1
  8
DEFAULT
 10
-6.549000000028647
 20
-4.831456823214665
 30
0.0
 11
-7.049000000028648
 21
-4.831456823214665
 31
0.0
  0
LINE
  5
F2
  8
DEFAULT
 10
-7.049000000028648
 20
-4.831456823214665
 30
0.0
 11
-7.129000000028648
 21
-4.831456823214665
 31
0.0
  0
LINE
  5
F3
  8
DEFAULT
 10
-7.049000000028647
 20
-4.831456823214665
 30
0.0
 11
-6.549000000028647
 21
-4.831456823214665
 31
0.0
  0
ARC
  5
F4
  8
DEFAULT
 10
5.714999999971475
 20
-0.0034568232151878
 30
0.0
 40
0.8499999999997268
 50
294.3157391711692
 51
65.68426082880433
  0
LINE
  5
F5
  8
DEFAULT
 10
6.064999999971621
 20
0.77113984602593
 30
0.0
 11
6.064999999971264
 21
-0.7780534924564666
 31
0.0
  0
LINE
  5
F6
  8
DEFAULT
 10
6.564999999971352
 20
-0.003456823215048
 30
0.0
 11
6.064999999971444
 21
-0.003456823215048
 31
0.0
  0
LINE
  5
F7
  8
DEFAULT
 10
6.314999999971389
 20
-0.6055365521543996
 30
0.0
 11
6.314999999971389
 21
0.598622905724468
 31
0.0
  0
ARC
  5
F8
  8
DEFAULT
 10
-5.815000000027967
 20
-0.003456823215703
 30
0.0
 40
0.9999999999984773
 50
296.74368395041
 51
63.25631604950613
  0
LINE
  5
F9
  8
DEFAULT
 10
-5.365000000027236
 20
0.8895717317568117
 30
0.0
 11
-5.365000000028543
 21
-0.896485378188876
 31
0.0
  0
LINE
  5
FA
  8
DEFAULT
 10
-5.365000000027678
 20
-0.003456823215271
 30
0.0
 11
-4.815000000028648
 21
-0.003456823215271
 31
0.0
  0
LINE
  5
FB
  8
DEFAULT
 10
-5.090000000028233
 20
0.6852920424814488
 30
0.0
 11
-5.090000000028233
 21
-0.6922056889118448
 31
0.0
  0
ARC
  5
FC
  8
DEFAULT
 10
-5.815000000028961
 20
-0.0034568232146834
 30
0.0
 40
1.75000000000032
 50
314.4153085972104
 51
0.0000000000006329
  0
ARC
  5
FD
  8
DEFAULT
 10
-5.815000000028972
 20
-0.00345682321465
 30
0.0
 40
1.75000000000033
 50
359.9999999999995
 51
45.58469140278948
  0
ARC
  5
FE
  8
DEFAULT
 10
-5.815000000029167
 20
-0.0034568232146821
 30
0.0
 40
1.75000000000052
 50
0.0000000000005223
 51
45.58469140278565
  0
ARC
  5
FF
  8
DEFAULT
 10
-5.81500000002916
 20
-0.0034568232146493
 30
0.0
 40
1.750000000000514
 50
314.4153085972142
 51
359.9999999999994
  0
ARC
  5
100
  8
DEFAULT
 10
-5.815000000028648
 20
-0.0034568232146648
 30
0.0
 40
1.75
 50
314.4153085972026
 51
45.58469140279741
  0
LINE
  5
101
  8
DEFAULT
 10
-4.590255128636747
 20
1.246543176785233
 30
0.0
 11
-4.885843802439671
 21
1.246543176785302
 31
0.0
  0
LINE
  5
102
  8
DEFAULT
 10
-4.885843802439671
 20
-1.253456823214631
 30
0.0
 11
-4.590255128636747
 21
-1.253456823214561
 31
0.0
  0
ARC
  5
103
  8
DEFAULT
 10
-5.715000000028741
 20
-0.0034568232146646
 30
0.0
 40
1.500000000000094
 50
0.0000000000000097
 51
56.44269023807156
  0
ARC
  5
104
  8
DEFAULT
 10
-5.715000000028738
 20
-0.0034568232146669
 30
0.0
 40
1.50000000000009
 50
303.5573097619284
 51
0.0000000000001038
  0
ARC
  5
105
  8
DEFAULT
 10
-5.815000000029167
 20
-0.0034568232146821
 30
0.0
 40
1.75000000000052
 50
0.0000000000005223
 51
45.58469140278565
  0
ARC
  5
106
  8
DEFAULT
 10
-5.81500000002916
 20
-0.0034568232146493
 30
0.0
 40
1.750000000000514
 50
314.4153085972142
 51
359.9999999999994
  0
LINE
  5
107
  8
DEFAULT
 10
-4.47542190123417
 20
-1.129525434459363
 30
0.0
 11
-4.47542190123417
 21
-0.8481142312737624
 31
0.0
  0
LINE
  5
108
  8
DEFAULT
 10
-4.47542190123417
 20
0.8412005848444332
 30
0.0
 11
-4.47542190123417
 21
1.122611788030034
 31
0.0
  0
LINE
  5
109
  8
DEFAULT
 10
-4.065000000028648
 20
-0.0034568232146643
 30
0.0
 11
-4.215000000028647
 21
-0.0034568232146643
 31
0.0
  0
ARC
  5
10A
  8
DEFAULT
 10
-5.715000000028751
 20
-0.00345682321467
 30
0.0
 40
1.500000000000104
 50
0.0000000000002163
 51
56.44269023807136
  0
ARC
  5
10B
  8
DEFAULT
 10
-5.715000000028749
 20
-0.0034568232146593
 30
0.0
 40
1.500000000000103
 50
303.5573097619286
 51
359.9999999999998
  0
ARC
  5
10C
  8
DEFAULT
 10
-5.715000000028741
 20
-0.0034568232146646
 30
0.0
 40
1.500000000000094
 50
0.0000000000000097
 51
56.44269023807156
  0
ARC
  5
10D
  8
DEFAULT
 10
-5.715000000028738
 20
-0.0034568232146669
 30
0.0
 40
1.50000000000009
 50
303.5573097619284
 51
0.0000000000001038
  0
ARC
  5
10E
  8
DEFAULT
 10
-5.715000000028646
 20
-0.0034568232146639
 30
0.0
 40
1.499999999999999
 50
303.5573097619255
 51
56.44269023807453
  0
LINE
  5
10F
  8
DEFAULT
 10
-5.315000000028648
 20
-1.253456823214664
 30
0.0
 11
-4.885843802439671
 21
-1.253456823214631
 31
0.0
  0
LINE
  5
110
  8
DEFAULT
 10
-5.715000000028647
 20
-1.253456823214664
 30
0.0
 11
-5.365000000028647
 21
-1.253456823214664
 31
0.0
  0
LINE
  5
111
  8
DEFAULT
 10
-4.590255128636769
 20
-1.25345682321454
 30
0.0
 11
-5.365000000028638
 21
-1.253456823214693
 31
0.0
  0
LINE
  5
112
  8
DEFAULT
 10
-5.715000000028647
 20
-1.253456823214664
 30
0.0
 11
-5.315000000028648
 21
-1.253456823214664
 31
0.0
  0
LINE
  5
113
  8
DEFAULT
 10
-4.885843802439671
 20
-1.253456823214631
 30
0.0
 11
-4.590255128636747
 21
-1.253456823214561
 31
0.0
  0
LINE
  5
114
  8
DEFAULT
 10
-5.365000000028648
 20
-1.253456823214664
 30
0.0
 11
-4.885843802439648
 21
-1.253456823214664
 31
0.0
  0
LINE
  5
115
  8
DEFAULT
 10
-5.365000000028647
 20
-1.253456823214664
 30
0.0
 11
-5.365000000028648
 21
1.246543176785336
 31
0.0
  0
LINE
  5
116
  8
DEFAULT
 10
-5.365000000027236
 20
0.8895717317568117
 30
0.0
 11
-5.365000000028638
 21
1.246543176785364
 31
0.0
  0
LINE
  5
117
  8
DEFAULT
 10
-5.365000000028638
 20
-1.253456823214693
 30
0.0
 11
-5.365000000028543
 21
-0.896485378188876
 31
0.0
  0
LINE
  5
118
  8
DEFAULT
 10
-5.365000000027236
 20
0.8895717317568117
 30
0.0
 11
-5.365000000028543
 21
-0.896485378188876
 31
0.0
  0
LINE
  5
119
  8
DEFAULT
 10
-5.365000000028648
 20
1.246543176785336
 30
0.0
 11
-5.365000000028648
 21
-1.253456823214664
 31
0.0
  0
LINE
  5
11A
  8
DEFAULT
 10
-5.365000000028638
 20
1.246543176785364
 30
0.0
 11
-4.590255128636769
 21
1.246543176785211
 31
0.0
  0
LINE
  5
11B
  8
DEFAULT
 10
-5.365000000027236
 20
0.8895717317568117
 30
0.0
 11
-5.365000000028638
 21
1.246543176785364
 31
0.0
  0
ARC
  5
11C
  8
DEFAULT
 10
-5.815000000027967
 20
-0.003456823215703
 30
0.0
 40
0.9999999999984773
 50
296.74368395041
 51
63.25631604950613
  0
LINE
  5
11D
  8
DEFAULT
 10
-5.365000000028638
 20
-1.253456823214693
 30
0.0
 11
-5.365000000028543
 21
-0.896485378188876
 31
0.0
  0
LINE
  5
11E
  8
DEFAULT
 10
-4.590255128636769
 20
-1.25345682321454
 30
0.0
 11
-5.365000000028638
 21
-1.253456823214693
 31
0.0
  0
ARC
  5
11F
  8
DEFAULT
 10
-5.815000000028961
 20
-0.0034568232146834
 30
0.0
 40
1.75000000000032
 50
314.4153085972104
 51
0.0000000000006329
  0
ARC
  5
120
  8
DEFAULT
 10
-5.815000000028972
 20
-0.00345682321465
 30
0.0
 40
1.75000000000033
 50
359.9999999999995
 51
45.58469140278948
  0
LINE
  5
121
  8
DEFAULT
 10
-4.815000000028945
 20
-0.0034568232146643
 30
0.0
 11
-4.065000000028635
 21
-0.0034568232146643
 31
0.0
  0
LINE
  5
122
  8
DEFAULT
 10
-4.885843802439671
 20
1.246543176785302
 30
0.0
 11
-5.315000000028648
 21
1.246543176785336
 31
0.0
  0
LINE
  5
123
  8
DEFAULT
 10
-5.365000000028648
 20
1.246543176785336
 30
0.0
 11
-5.715000000028646
 21
1.246543176785336
 31
0.0
  0
LINE
  5
124
  8
DEFAULT
 10
-5.365000000028638
 20
1.246543176785364
 30
0.0
 11
-4.590255128636769
 21
1.246543176785211
 31
0.0
  0
LINE
  5
125
  8
DEFAULT
 10
-4.590255128636747
 20
1.246543176785233
 30
0.0
 11
-4.885843802439671
 21
1.246543176785302
 31
0.0
  0
LINE
  5
126
  8
DEFAULT
 10
-5.315000000028648
 20
1.246543176785336
 30
0.0
 11
-5.715000000028646
 21
1.246543176785336
 31
0.0
  0
LINE
  5
127
  8
DEFAULT
 10
-4.885843802439648
 20
1.246543176785336
 30
0.0
 11
-5.365000000028648
 21
1.246543176785336
 31
0.0
  0
LINE
  5
128
  8
DEFAULT
 10
-6.065000000028648
 20
1.246543176785336
 30
0.0
 11
-5.715000000028646
 21
1.246543176785336
 31
0.0
  0
LINE
  5
129
  8
DEFAULT
 10
-5.715000000028647
 20
-1.253456823214664
 30
0.0
 11
-6.065000000028648
 21
-1.253456823214664
 31
0.0
  0
LINE
  5
12A
  8
DEFAULT
 10
-5.365000000028648
 20
1.246543176785336
 30
0.0
 11
-5.715000000028646
 21
1.246543176785336
 31
0.0
  0
LINE
  5
12B
  8
DEFAULT
 10
-6.065000000028648
 20
1.246543176785336
 30
0.0
 11
-6.065000000028648
 21
-1.253456823214664
 31
0.0
  0
LINE
  5
12C
  8
DEFAULT
 10
-5.715000000028647
 20
-1.253456823214664
 30
0.0
 11
-5.365000000028647
 21
-1.253456823214664
 31
0.0
  0
LINE
  5
12D
  8
DEFAULT
 10
-5.365000000028647
 20
-1.253456823214664
 30
0.0
 11
-5.365000000028648
 21
1.246543176785336
 31
0.0
  0
LINE
  5
12E
  8
DEFAULT
 10
-5.715000000028647
 20
1.246543176785336
 30
0.0
 11
-5.715000000028647
 21
-1.253456823214664
 31
0.0
  0
LINE
  5
12F
  8
DEFAULT
 10
-5.365000000028648
 20
-0.0034568232146643
 30
0.0
 11
-6.065000000028647
 21
-0.0034568232146643
 31
0.0
  0
ARC
  5
130
  8
DEFAULT
 10
-5.715000000028884
 20
-0.0034568232149249
 30
0.0
 40
0.8499999999994403
 50
114.3157391711959
 51
245.6842608288173
  0
LINE
  5
131
  8
DEFAULT
 10
-6.065000000028737
 20
-0.7780534924558609
 30
0.0
 11
-6.065000000028916
 21
0.77113984602593
 31
0.0
  0
LINE
  5
132
  8
DEFAULT
 10
-6.565000000028647
 20
-0.0034568232147487
 30
0.0
 11
-6.065000000028832
 21
-0.0034568232147487
 31
0.0
  0
LINE
  5
133
  8
DEFAULT
 10
-6.315000000028714
 20
0.5986229057244375
 30
0.0
 11
-6.315000000028714
 21
-0.6055365521540663
 31
0.0
  0
LINE
  5
134
  8
DEFAULT
 10
-6.065000000028737
 20
-0.7780534924558609
 30
0.0
 11
-6.065000000028657
 21
-1.253456823214696
 31
0.0
  0
LINE
  5
135
  8
DEFAULT
 10
-6.065000000028657
 20
1.246543176785368
 30
0.0
 11
-6.065000000028916
 21
0.77113984602593
 31
0.0
  0
LINE
  5
136
  8
DEFAULT
 10
-6.065000000028737
 20
-0.7780534924558609
 30
0.0
 11
-6.065000000028916
 21
0.77113984602593
 31
0.0
  0
LINE
  5
137
  8
DEFAULT
 10
-6.065000000028648
 20
1.246543176785336
 30
0.0
 11
-6.065000000028648
 21
-1.253456823214664
 31
0.0
  0
LINE
  5
138
  8
DEFAULT
 10
-6.065000000028648
 20
1.246543176785336
 30
0.0
 11
-6.065000000028648
 21
-1.253456823214664
 31
0.0
  0
LINE
  5
139
  8
DEFAULT
 10
-6.544156197617612
 20
1.246543176785282
 30
0.0
 11
-6.065000000028657
 21
1.246543176785368
 31
0.0
  0
ARC
  5
13A
  8
DEFAULT
 10
-5.715000000028632
 20
-0.0034568232146643
 30
0.0
 40
1.500000000000028
 50
123.557309761926
 51
236.442690238074
  0
LINE
  5
13B
  8
DEFAULT
 10
-6.065000000028657
 20
-1.253456823214696
 30
0.0
 11
-6.544156197617613
 21
-1.253456823214611
 31
0.0
  0
LINE
  5
13C
  8
DEFAULT
 10
-6.065000000028737
 20
-0.7780534924558609
 30
0.0
 11
-6.065000000028657
 21
-1.253456823214696
 31
0.0
  0
ARC
  5
13D
  8
DEFAULT
 10
-5.715000000028884
 20
-0.0034568232149249
 30
0.0
 40
0.8499999999994403
 50
114.3157391711959
 51
245.6842608288173
  0
LINE
  5
13E
  8
DEFAULT
 10
-6.065000000028657
 20
1.246543176785368
 30
0.0
 11
-6.065000000028916
 21
0.77113984602593
 31
0.0
  0
LINE
  5
13F
  8
DEFAULT
 10
-6.565000000028608
 20
-0.0034568232146643
 30
0.0
 11
-7.21500000002863
 21
-0.0034568232146643
 31
0.0
  0
LINE
  5
140
  8
DEFAULT
 10
-6.631515139019678
 20
-1.253456823214705
 30
0.0
 11
-6.115000000028647
 21
-1.253456823214664
 31
0.0
  0
LINE
  5
141
  8
DEFAULT
 10
-6.544156197617613
 20
-1.253456823214611
 30
0.0
 11
-6.631515139019678
 21
-1.253456823214705
 31
0.0
  0
LINE
  5
142
  8
DEFAULT
 10
-6.065000000028657
 20
-1.253456823214696
 30
0.0
 11
-6.544156197617613
 21
-1.253456823214611
 31
0.0
  0
LINE
  5
143
  8
DEFAULT
 10
-6.115000000028647
 20
-1.253456823214664
 30
0.0
 11
-5.715000000028647
 21
-1.253456823214664
 31
0.0
  0
LINE
  5
144
  8
DEFAULT
 10
-5.715000000028647
 20
-1.253456823214664
 30
0.0
 11
-6.065000000028648
 21
-1.253456823214664
 31
0.0
  0
LINE
  5
145
  8
DEFAULT
 10
-6.578383517292255
 20
-1.253456823214664
 30
0.0
 11
-6.065000000028648
 21
-1.253456823214664
 31
0.0
  0
ARC
  5
146
  8
DEFAULT
 10
-5.715000000028769
 20
-0.0034568232146652
 30
0.0
 40
1.549999999999879
 50
126.2493208828908
 51
233.7506791171092
  0
LINE
  5
147
  8
DEFAULT
 10
-6.631515139019678
 20
1.246543176785375
 30
0.0
 11
-6.544156197617612
 21
1.246543176785282
 31
0.0
  0
LINE
  5
148
  8
DEFAULT
 10
-6.544156197617613
 20
-1.253456823214611
 30
0.0
 11
-6.631515139019678
 21
-1.253456823214705
 31
0.0
  0
ARC
  5
149
  8
DEFAULT
 10
-5.715000000028632
 20
-0.0034568232146643
 30
0.0
 40
1.500000000000028
 50
123.557309761926
 51
236.442690238074
  0
ARC
  5
14A
  8
DEFAULT
 10
-5.715000000028647
 20
-0.0034568232146646
 30
0.0
 40
1.525
 50
124.9481230160266
 51
235.0518769839694
  0
LINE
  5
14B
  8
DEFAULT
 10
-7.014038105705286
 20
0.7465431767853581
 30
0.0
 11
-7.057339375894516
 21
0.7715431767853642
 31
0.0
  0
LINE
  5
14C
  8
DEFAULT
 10
-6.115000000028648
 20
1.246543176785336
 30
0.0
 11
-6.631515139019678
 21
1.246543176785375
 31
0.0
  0
LINE
  5
14D
  8
DEFAULT
 10
-6.631515139019678
 20
1.246543176785375
 30
0.0
 11
-6.544156197617612
 21
1.246543176785282
 31
0.0
  0
LINE
  5
14E
  8
DEFAULT
 10
-6.544156197617612
 20
1.246543176785282
 30
0.0
 11
-6.065000000028657
 21
1.246543176785368
 31
0.0
  0
LINE
  5
14F
  8
DEFAULT
 10
-6.065000000028648
 20
1.246543176785336
 30
0.0
 11
-5.715000000028646
 21
1.246543176785336
 31
0.0
  0
LINE
  5
150
  8
DEFAULT
 10
-5.715000000028646
 20
1.246543176785336
 30
0.0
 11
-6.115000000028648
 21
1.246543176785336
 31
0.0
  0
LINE
  5
151
  8
DEFAULT
 10
-6.065000000028648
 20
1.246543176785336
 30
0.0
 11
-6.578383517292107
 21
1.246543176785336
 31
0.0
  0
ARC
  5
152
  8
DEFAULT
 10
5.715000063107793
 20
-0.003455980226668
 30
0.0
 40
0.9999992324290311
 50
110.4873354082591
 51
249.5126064464439
  0
LINE
  5
153
  8
DEFAULT
 10
5.364999049333706
 20
-0.9402044818084754
 30
0.0
 11
5.364999999971444
 21
0.9332928765450941
 31
0.0
  0
LINE
  5
154
  8
DEFAULT
 10
5.36499938111993
 20
-0.0034565012589312
 30
0.0
 11
4.714999999971704
 21
-0.0034565012589312
 31
0.0
  0
LINE
  5
155
  8
DEFAULT
 10
5.039999680828243
 20
-0.7412733873157336
 30
0.0
 11
5.039999680828243
 21
0.7343606129823561
 31
0.0
  0
LINE
  5
156
  8
DEFAULT
 10
5.364999999971352
 20
1.246543176785336
 30
0.0
 11
5.364999999971354
 21
-1.253456823214664
 31
0.0
  0
LINE
  5
157
  8
DEFAULT
 10
5.365000515423206
 20
1.246542549325918
 30
0.0
 11
5.364999999971352
 21
1.246543176785336
 31
0.0
  0
LINE
  5
158
  8
DEFAULT
 10
5.364999049333706
 20
-0.9402044818084754
 30
0.0
 11
5.364997774165505
 21
-1.253459533619228
 31
0.0
  0
LINE
  5
159
  8
DEFAULT
 10
5.365000515423206
 20
1.246542549325918
 30
0.0
 11
5.364999999971444
 21
0.9332928765450941
 31
0.0
  0
LINE
  5
15A
  8
DEFAULT
 10
5.364999999971354
 20
-1.253456823214664
 30
0.0
 11
5.364997774165505
 21
-1.253459533619228
 31
0.0
  0
LINE
  5
15B
  8
DEFAULT
 10
5.364999049333706
 20
-0.9402044818084754
 30
0.0
 11
5.364999999971444
 21
0.9332928765450941
 31
0.0
  0
LINE
  5
15C
  8
DEFAULT
 10
5.364999999971353
 20
1.246543165238606
 30
0.0
 11
5.364999999971353
 21
-1.253456873022478
 31
0.0
  0
LINE
  5
15D
  8
DEFAULT
 10
4.885843802382376
 20
-1.253456823214631
 30
0.0
 11
5.314999999971353
 21
-1.253456823214664
 31
0.0
  0
LINE
  5
15E
  8
DEFAULT
 10
5.364999999971354
 20
-1.253456823214664
 30
0.0
 11
5.714999999971352
 21
-1.253456823214664
 31
0.0
  0
LINE
  5
15F
  8
DEFAULT
 10
5.364997774165505
 20
-1.253459533619228
 30
0.0
 11
4.590255128579547
 21
-1.253456823214455
 31
0.0
  0
LINE
  5
160
  8
DEFAULT
 10
4.590255128579453
 20
-1.253456823214561
 30
0.0
 11
4.885843802382376
 21
-1.253456823214631
 31
0.0
  0
LINE
  5
161
  8
DEFAULT
 10
5.314999999971353
 20
-1.253456823214664
 30
0.0
 11
5.714999999971352
 21
-1.253456823214664
 31
0.0
  0
LINE
  5
162
  8
DEFAULT
 10
5.364999999971354
 20
-1.253456823214664
 30
0.0
 11
5.364997774165505
 21
-1.253459533619228
 31
0.0
  0
LINE
  5
163
  8
DEFAULT
 10
4.885843802382353
 20
-1.253456823214664
 30
0.0
 11
5.364999305911367
 21
-1.253456823214664
 31
0.0
  0
ARC
  5
164
  8
DEFAULT
 10
5.714999999971456
 20
-0.0034568232146591
 30
0.0
 40
1.500000000000103
 50
180.0000000000002
 51
236.4426902380714
  0
ARC
  5
165
  8
DEFAULT
 10
5.714999999971451
 20
-0.0034568232146669
 30
0.0
 40
1.500000000000098
 50
123.5573097619286
 51
179.9999999999999
  0
ARC
  5
166
  8
DEFAULT
 10
5.714999999971451
 20
-0.0034568232146669
 30
0.0
 40
1.500000000000099
 50
123.5573097619285
 51
179.9999999999999
  0
ARC
  5
167
  8
DEFAULT
 10
5.714999999971449
 20
-0.0034568232146625
 30
0.0
 40
1.500000000000097
 50
180.0000000000001
 51
236.4426902380715
  0
ARC
  5
168
  8
DEFAULT
 10
5.714999999971352
 20
-0.0034568232146642
 30
0.0
 40
1.5
 50
123.5573097619255
 51
236.4426902380745
  0
LINE
  5
169
  8
DEFAULT
 10
4.885843802382376
 20
1.246543176785302
 30
0.0
 11
4.590255128579453
 21
1.246543176785233
 31
0.0
  0
ARC
  5
16A
  8
DEFAULT
 10
5.814999999971842
 20
-0.0034568232146689
 30
0.0
 40
1.750000000000489
 50
134.4153085972139
 51
179.9999999999998
  0
ARC
  5
16B
  8
DEFAULT
 10
5.814999999971828
 20
-0.003456823214665
 30
0.0
 40
1.750000000000476
 50
179.9999999999999
 51
225.5846914027862
  0
ARC
  5
16C
  8
DEFAULT
 10
5.714999999971451
 20
-0.0034568232146669
 30
0.0
 40
1.500000000000099
 50
123.5573097619285
 51
179.9999999999999
  0
ARC
  5
16D
  8
DEFAULT
 10
5.714999999971449
 20
-0.0034568232146625
 30
0.0
 40
1.500000000000097
 50
180.0000000000001
 51
236.4426902380715
  0
LINE
  5
16E
  8
DEFAULT
 10
4.590255128579453
 20
-1.253456823214561
 30
0.0
 11
4.885843802382376
 21
-1.253456823214631
 31
0.0
  0
LINE
  5
16F
  8
DEFAULT
 10
4.475421901176875
 20
1.122611788030034
 30
0.0
 11
4.475421901176875
 21
0.8412005848444333
 31
0.0
  0
LINE
  5
170
  8
DEFAULT
 10
4.475421901176875
 20
-0.8481142312737625
 30
0.0
 11
4.475421901176875
 21
-1.129525434459363
 31
0.0
  0
LINE
  5
171
  8
DEFAULT
 10
4.064999999971353
 20
-0.0034568232146643
 30
0.0
 11
4.214999999971353
 21
-0.0034568232146643
 31
0.0
  0
ARC
  5
172
  8
DEFAULT
 10
5.815000813198067
 20
-0.0034568232146638
 30
0.0
 40
1.75000056914024
 50
134.415327615343
 51
225.584672384657
  0
ARC
  5
173
  8
DEFAULT
 10
5.814999999971842
 20
-0.0034568232146689
 30
0.0
 40
1.750000000000489
 50
134.4153085972139
 51
179.9999999999998
  0
ARC
  5
174
  8
DEFAULT
 10
5.814999999971828
 20
-0.003456823214665
 30
0.0
 40
1.750000000000476
 50
179.9999999999999
 51
225.5846914027862
  0
ARC
  5
175
  8
DEFAULT
 10
5.814999999971353
 20
-0.0034568232146641
 30
0.0
 40
1.75
 50
134.4153085972026
 51
225.5846914027974
  0
LINE
  5
176
  8
DEFAULT
 10
4.590255128579547
 20
1.246543176785126
 30
0.0
 11
5.365000515423206
 21
1.246542549325918
 31
0.0
  0
ARC
  5
177
  8
DEFAULT
 10
5.815000813198067
 20
-0.0034568232146638
 30
0.0
 40
1.75000056914024
 50
134.415327615343
 51
225.584672384657
  0
LINE
  5
178
  8
DEFAULT
 10
5.364997774165505
 20
-1.253459533619228
 30
0.0
 11
4.590255128579547
 21
-1.253456823214455
 31
0.0
  0
LINE
  5
179
  8
DEFAULT
 10
5.364999049333706
 20
-0.9402044818084754
 30
0.0
 11
5.364997774165505
 21
-1.253459533619228
 31
0.0
  0
ARC
  5
17A
  8
DEFAULT
 10
5.715000063107793
 20
-0.003455980226668
 30
0.0
 40
0.9999992324290311
 50
110.4873354082591
 51
249.5126064464439
  0
LINE
  5
17B
  8
DEFAULT
 10
5.365000515423206
 20
1.246542549325918
 30
0.0
 11
5.364999999971444
 21
0.9332928765450941
 31
0.0
  0
LINE
  5
17C
  8
DEFAULT
 10
4.715000155921412
 20
-0.0034568232146643
 30
0.0
 11
4.065000243826044
 21
-0.0034568232146643
 31
0.0
  0
LINE
  5
17D
  8
DEFAULT
 10
5.314999999971353
 20
1.246543176785336
 30
0.0
 11
4.885843802382376
 21
1.246543176785302
 31
0.0
  0
LINE
  5
17E
  8
DEFAULT
 10
5.714999999971353
 20
1.246543176785336
 30
0.0
 11
5.364999999971352
 21
1.246543176785336
 31
0.0
  0
LINE
  5
17F
  8
DEFAULT
 10
4.590255128579547
 20
1.246543176785126
 30
0.0
 11
5.365000515423206
 21
1.246542549325918
 31
0.0
  0
LINE
  5
180
  8
DEFAULT
 10
5.365000515423206
 20
1.246542549325918
 30
0.0
 11
5.364999999971352
 21
1.246543176785336
 31
0.0
  0
LINE
  5
181
  8
DEFAULT
 10
5.714999999971353
 20
1.246543176785336
 30
0.0
 11
5.314999999971353
 21
1.246543176785336
 31
0.0
  0
LINE
  5
182
  8
DEFAULT
 10
4.885843802382376
 20
1.246543176785302
 30
0.0
 11
4.590255128579453
 21
1.246543176785233
 31
0.0
  0
LINE
  5
183
  8
DEFAULT
 10
5.365000160733401
 20
1.246543176785336
 30
0.0
 11
4.885843802382353
 21
1.246543176785336
 31
0.0
  0
LINE
  5
184
  8
DEFAULT
 10
5.714999999971353
 20
1.246543176785336
 30
0.0
 11
6.064999999971353
 21
1.246543176785336
 31
0.0
  0
LINE
  5
185
  8
DEFAULT
 10
6.064999999971353
 20
-1.253456823214664
 30
0.0
 11
5.714999999971352
 21
-1.253456823214664
 31
0.0
  0
LINE
  5
186
  8
DEFAULT
 10
6.064999999971353
 20
1.246543176785336
 30
0.0
 11
6.064999999971353
 21
-1.253456823214664
 31
0.0
  0
LINE
  5
187
  8
DEFAULT
 10
5.714999999971353
 20
1.246543176785336
 30
0.0
 11
5.364999999971352
 21
1.246543176785336
 31
0.0
  0
LINE
  5
188
  8
DEFAULT
 10
5.364999999971352
 20
1.246543176785336
 30
0.0
 11
5.364999999971354
 21
-1.253456823214664
 31
0.0
  0
LINE
  5
189
  8
DEFAULT
 10
5.364999999971354
 20
-1.253456823214664
 30
0.0
 11
5.714999999971352
 21
-1.253456823214664
 31
0.0
  0
LINE
  5
18A
  8
DEFAULT
 10
5.714999999971353
 20
1.246543176785336
 30
0.0
 11
5.714999999971353
 21
-1.253456823214664
 31
0.0
  0
LINE
  5
18B
  8
DEFAULT
 10
6.064999999971352
 20
-0.0034568232146643
 30
0.0
 11
5.364999999971353
 21
-0.0034568232146643
 31
0.0
  0
LINE
  5
18C
  8
DEFAULT
 10
6.064999999971621
 20
0.77113984602593
 30
0.0
 11
6.064999999971362
 21
1.246543176785368
 31
0.0
  0
LINE
  5
18D
  8
DEFAULT
 10
6.064999999971362
 20
-1.253456823214696
 30
0.0
 11
6.064999999971264
 21
-0.7780534924564666
 31
0.0
  0
LINE
  5
18E
  8
DEFAULT
 10
6.064999999971353
 20
1.246543176785336
 30
0.0
 11
6.064999999971353
 21
-1.253456823214664
 31
0.0
  0
LINE
  5
18F
  8
DEFAULT
 10
6.064999999971621
 20
0.77113984602593
 30
0.0
 11
6.064999999971264
 21
-0.7780534924564666
 31
0.0
  0
LINE
  5
190
  8
DEFAULT
 10
6.064999999971353
 20
1.246543176785336
 30
0.0
 11
6.064999999971353
 21
-1.253456823214664
 31
0.0
  0
LINE
  5
191
  8
DEFAULT
 10
6.114999999971354
 20
-1.253456823214664
 30
0.0
 11
6.631515138962384
 21
-1.253456823214705
 31
0.0
  0
LINE
  5
192
  8
DEFAULT
 10
6.544156197560318
 20
-1.253456823214611
 30
0.0
 11
6.064999999971362
 21
-1.253456823214696
 31
0.0
  0
LINE
  5
193
  8
DEFAULT
 10
6.631515138962384
 20
-1.253456823214705
 30
0.0
 11
6.544156197560318
 21
-1.253456823214611
 31
0.0
  0
LINE
  5
194
  8
DEFAULT
 10
6.064999999971353
 20
-1.253456823214664
 30
0.0
 11
5.714999999971352
 21
-1.253456823214664
 31
0.0
  0
LINE
  5
195
  8
DEFAULT
 10
5.714999999971352
 20
-1.253456823214664
 30
0.0
 11
6.114999999971352
 21
-1.253456823214664
 31
0.0
  0
LINE
  5
196
  8
DEFAULT
 10
6.064999999971353
 20
-1.253456823214664
 30
0.0
 11
6.578383517234813
 21
-1.253456823214664
 31
0.0
  0
ARC
  5
197
  8
DEFAULT
 10
5.714999999971473
 20
-0.0034568232146656
 30
0.0
 40
1.54999999999988
 50
306.2493208828909
 51
53.75067911710919
  0
LINE
  5
198
  8
DEFAULT
 10
6.544156197560318
 20
1.246543176785282
 30
0.0
 11
6.631515138962383
 21
1.246543176785375
 31
0.0
  0
ARC
  5
199
  8
DEFAULT
 10
5.714999999971316
 20
-0.0034568232146635
 30
0.0
 40
1.500000000000039
 50
303.5573097619266
 51
56.44269023807329
  0
LINE
  5
19A
  8
DEFAULT
 10
6.631515138962384
 20
-1.253456823214705
 30
0.0
 11
6.544156197560318
 21
-1.253456823214611
 31
0.0
  0
ARC
  5
19B
  8
DEFAULT
 10
5.714999999971351
 20
-0.0034568232146653
 30
0.0
 40
1.525
 50
304.9481230160267
 51
55.05187698396797
  0
LINE
  5
19C
  8
DEFAULT
 10
7.014038105647991
 20
0.7465431767853581
 30
0.0
 11
7.057339375837222
 21
0.7715431767853642
 31
0.0
  0
LINE
  5
19D
  8
DEFAULT
 10
6.064999999971362
 20
1.246543176785368
 30
0.0
 11
6.544156197560318
 21
1.246543176785282
 31
0.0
  0
ARC
  5
19E
  8
DEFAULT
 10
5.714999999971316
 20
-0.0034568232146635
 30
0.0
 40
1.500000000000039
 50
303.5573097619266
 51
56.44269023807329
  0
LINE
  5
19F
  8
DEFAULT
 10
6.064999999971621
 20
0.77113984602593
 30
0.0
 11
6.064999999971362
 21
1.246543176785368
 31
0.0
  0
ARC
  5
1A0
  8
DEFAULT
 10
5.714999999971475
 20
-0.0034568232151878
 30
0.0
 40
0.8499999999997268
 50
294.3157391711692
 51
65.68426082880433
  0
LINE
  5
1A1
  8
DEFAULT
 10
6.064999999971362
 20
-1.253456823214696
 30
0.0
 11
6.064999999971264
 21
-0.7780534924564666
 31
0.0
  0
LINE
  5
1A2
  8
DEFAULT
 10
6.544156197560318
 20
-1.253456823214611
 30
0.0
 11
6.064999999971362
 21
-1.253456823214696
 31
0.0
  0
LINE
  5
1A3
  8
DEFAULT
 10
6.564999999971345
 20
-0.0034568232146643
 30
0.0
 11
7.214999999971336
 21
-0.0034568232146643
 31
0.0
  0
LINE
  5
1A4
  8
DEFAULT
 10
6.631515138962383
 20
1.246543176785375
 30
0.0
 11
6.114999999971352
 21
1.246543176785336
 31
0.0
  0
LINE
  5
1A5
  8
DEFAULT
 10
6.064999999971362
 20
1.246543176785368
 30
0.0
 11
6.544156197560318
 21
1.246543176785282
 31
0.0
  0
LINE
  5
1A6
  8
DEFAULT
 10
6.544156197560318
 20
1.246543176785282
 30
0.0
 11
6.631515138962383
 21
1.246543176785375
 31
0.0
  0
LINE
  5
1A7
  8
DEFAULT
 10
6.114999999971352
 20
1.246543176785336
 30
0.0
 11
5.714999999971353
 21
1.246543176785336
 31
0.0
  0
LINE
  5
1A8
  8
DEFAULT
 10
5.714999999971353
 20
1.246543176785336
 30
0.0
 11
6.064999999971353
 21
1.246543176785336
 31
0.0
  0
LINE
  5
1A9
  8
DEFAULT
 10
6.578383517234989
 20
1.246543176785336
 30
0.0
 11
6.064999999971353
 21
1.246543176785336
 31
0.0
  0
LINE
  5
1AA
  8
DEFAULT
 10
7.949999999971353
 20
3.369543176785336
 30
0.0
 11
7.949999339202352
 21
3.369543800298202
 31
0.0
  0
LINE
  5
1AB
  8
DEFAULT
 10
7.949999339202352
 20
3.369543800298202
 30
0.0
 11
7.989999999940747
 21
3.289540022834981
 31
0.0
  0
LINE
  5
1AC
  8
DEFAULT
 10
7.989999999940747
 20
3.289540022834981
 30
0.0
 11
7.989999999951538
 21
3.289540738655304
 31
0.0
  0
LINE
  5
1AD
  8
DEFAULT
 10
7.989999999951538
 20
3.289540738655304
 30
0.0
 11
7.949999999971353
 21
3.369543176785336
 31
0.0
  0
LINE
  5
1AE
  8
DEFAULT
 10
7.989999999931347
 20
3.289540348165116
 30
0.0
 11
7.949999567802049
 21
3.36954350091049
 31
0.0
  0
LINE
  5
1AF
  8
DEFAULT
 10
7.949999999971353
 20
2.719543176785336
 30
0.0
 11
7.949999339202352
 21
2.719542553272473
 31
0.0
  0
LINE
  5
1B0
  8
DEFAULT
 10
7.989999999951538
 20
2.79954561491537
 30
0.0
 11
7.949999999971353
 21
2.719543176785336
 31
0.0
  0
LINE
  5
1B1
  8
DEFAULT
 10
7.98999999996927
 20
2.79954383253698
 30
0.0
 11
7.989999999951538
 21
2.79954561491537
 31
0.0
  0
LINE
  5
1B2
  8
DEFAULT
 10
7.949999339202352
 20
2.719542553272473
 30
0.0
 11
7.98999999996927
 21
2.79954383253698
 31
0.0
  0
LINE
  5
1B3
  8
DEFAULT
 10
7.989999999965467
 20
2.799544261656051
 30
0.0
 11
7.949999567802049
 21
2.719542852660183
 31
0.0
  0
LINE
  5
1B4
  8
DEFAULT
 10
7.989999999940747
 20
3.28954002283498
 30
0.0
 11
7.989999999951539
 21
2.79954561491537
 31
0.0
  0
LINE
  5
1B5
  8
DEFAULT
 10
7.98999999996927
 20
2.79954383253698
 30
0.0
 11
7.989999999951538
 21
2.79954561491537
 31
0.0
  0
LINE
  5
1B6
  8
DEFAULT
 10
7.989999999951538
 20
3.289540738655304
 30
0.0
 11
7.98999999996927
 21
2.79954383253698
 31
0.0
  0
LINE
  5
1B7
  8
DEFAULT
 10
7.989999999940747
 20
3.289540022834981
 30
0.0
 11
7.989999999951538
 21
3.289540738655304
 31
0.0
  0
LINE
  5
1B8
  8
DEFAULT
 10
7.989999999971353
 20
2.799544960137484
 30
0.0
 11
7.989999999971353
 21
3.289540348241739
 31
0.0
  0
LINE
  5
1B9
  8
DEFAULT
 10
7.949999339202352
 20
3.369543800298202
 30
0.0
 11
7.949999999971353
 21
2.719543176785336
 31
0.0
  0
LINE
  5
1BA
  8
DEFAULT
 10
7.989999999940747
 20
3.28954002283498
 30
0.0
 11
7.989999999951539
 21
2.79954561491537
 31
0.0
  0
LINE
  5
1BB
  8
DEFAULT
 10
7.949999339202352
 20
3.369543800298202
 30
0.0
 11
7.989999999940747
 21
3.289540022834981
 31
0.0
  0
LINE
  5
1BC
  8
DEFAULT
 10
7.989999999951538
 20
2.79954561491537
 30
0.0
 11
7.949999999971353
 21
2.719543176785336
 31
0.0
  0
LINE
  5
1BD
  8
DEFAULT
 10
7.989999999971352
 20
2.799543176785337
 30
0.0
 11
7.989999999971352
 21
3.289542981559459
 31
0.0
  0
LINE
  5
1BE
  8
DEFAULT
 10
7.949999443479077
 20
3.042028903116383
 30
0.0
 11
7.989999999936703
 21
3.042647824049685
 31
0.0
  0
LINE
  5
1BF
  8
DEFAULT
 10
7.949998884229544
 20
3.369534287938444
 30
0.0
 11
7.989999999931371
 21
3.289533017479073
 31
0.0
  0
LINE
  5
1C0
  8
DEFAULT
 10
7.789999999971353
 20
2.919543176785337
 30
0.0
 11
7.789999999971353
 21
3.169543176785337
 31
0.0
  0
LINE
  5
1C1
  8
DEFAULT
 10
7.789999999971353
 20
3.169543176785337
 30
0.0
 11
7.789999999971353
 21
2.919543176785337
 31
0.0
  0
LINE
  5
1C2
  8
DEFAULT
 10
7.789999999971353
 20
2.919543176785337
 30
0.0
 11
7.789999999971353
 21
3.169543176785337
 31
0.0
  0
LINE
  5
1C3
  8
DEFAULT
 10
7.789999999971353
 20
3.169543176785337
 30
0.0
 11
7.749999999971353
 21
3.169543176785336
 31
0.0
  0
LINE
  5
1C4
  8
DEFAULT
 10
7.749999999971353
 20
3.169543176785336
 30
0.0
 11
7.789999999971353
 21
3.169543176785337
 31
0.0
  0
LINE
  5
1C5
  8
DEFAULT
 10
7.749999999971353
 20
3.169543176785337
 30
0.0
 11
7.789999999971353
 21
3.169543176785337
 31
0.0
  0
LINE
  5
1C6
  8
DEFAULT
 10
7.749999999971353
 20
3.169543176785336
 30
0.0
 11
7.749999999971353
 21
2.919543176785336
 31
0.0
  0
LINE
  5
1C7
  8
DEFAULT
 10
7.749999999971353
 20
2.919543176785336
 30
0.0
 11
7.789999999971353
 21
2.919543176785337
 31
0.0
  0
LINE
  5
1C8
  8
DEFAULT
 10
7.749999999971353
 20
3.169543176785336
 30
0.0
 11
7.789999999971353
 21
3.169543176785337
 31
0.0
  0
LINE
  5
1C9
  8
DEFAULT
 10
7.789999999971353
 20
3.169543176785337
 30
0.0
 11
7.789999999971353
 21
2.919543176785337
 31
0.0
  0
LINE
  5
1CA
  8
DEFAULT
 10
7.749999999971353
 20
3.044543176785337
 30
0.0
 11
7.789999999971353
 21
3.044543176785337
 31
0.0
  0
LINE
  5
1CB
  8
DEFAULT
 10
7.769999999971353
 20
2.919543176785337
 30
0.0
 11
7.769999999971353
 21
3.169543176785337
 31
0.0
  0
LINE
  5
1CC
  8
DEFAULT
 10
7.749999999971353
 20
2.919543176785336
 30
0.0
 11
7.789999999971353
 21
2.919543176785337
 31
0.0
  0
LINE
  5
1CD
  8
DEFAULT
 10
7.749999999971353
 20
2.919543176785336
 30
0.0
 11
7.789999999971353
 21
2.919543176785337
 31
0.0
  0
LINE
  5
1CE
  8
DEFAULT
 10
7.749999999971353
 20
2.919543176785337
 30
0.0
 11
7.789999999971353
 21
2.919543176785337
 31
0.0
  0
LINE
  5
1CF
  8
DEFAULT
 10
-7.950000000028647
 20
3.369543176785336
 30
0.0
 11
-7.949999339259646
 21
3.369543800298202
 31
0.0
  0
LINE
  5
1D0
  8
DEFAULT
 10
-7.949999339259646
 20
3.369543800298202
 30
0.0
 11
-7.989999999998042
 21
3.289540022834981
 31
0.0
  0
LINE
  5
1D1
  8
DEFAULT
 10
-7.989999999998042
 20
3.289540022834981
 30
0.0
 11
-7.990000000008832
 21
3.289540738655304
 31
0.0
  0
LINE
  5
1D2
  8
DEFAULT
 10
-7.990000000008832
 20
3.289540738655304
 30
0.0
 11
-7.950000000028647
 21
3.369543176785336
 31
0.0
  0
LINE
  5
1D3
  8
DEFAULT
 10
-7.989999999988641
 20
3.289540348165116
 30
0.0
 11
-7.949999567859344
 21
3.36954350091049
 31
0.0
  0
LINE
  5
1D4
  8
DEFAULT
 10
-7.949999339259646
 20
2.719542553272473
 30
0.0
 11
-7.950000000028647
 21
3.369543176785336
 31
0.0
  0
LINE
  5
1D5
  8
DEFAULT
 10
-7.990000000008832
 20
3.289540738655304
 30
0.0
 11
-7.990000000026565
 21
2.79954383253698
 31
0.0
  0
LINE
  5
1D6
  8
DEFAULT
 10
-7.949999339259646
 20
2.719542553272473
 30
0.0
 11
-7.990000000026565
 21
2.79954383253698
 31
0.0
  0
LINE
  5
1D7
  8
DEFAULT
 10
-7.990000000008832
 20
3.289540738655304
 30
0.0
 11
-7.950000000028647
 21
3.369543176785336
 31
0.0
  0
LINE
  5
1D8
  8
DEFAULT
 10
-7.990000000028647
 20
3.289543176785337
 30
0.0
 11
-7.990000000028647
 21
2.799543198478155
 31
0.0
  0
LINE
  5
1D9
  8
DEFAULT
 10
-7.949999443536371
 20
3.047057450454321
 30
0.0
 11
-7.990000000013073
 21
3.046438536233144
 31
0.0
  0
LINE
  5
1DA
  8
DEFAULT
 10
-7.949998884286838
 20
2.71955206563223
 30
0.0
 11
-7.990000000022726
 21
2.799551596599706
 31
0.0
  0
LINE
  5
1DB
  8
DEFAULT
 10
-7.950000000028647
 20
2.719543176785336
 30
0.0
 11
-7.949999339259646
 21
2.719542553272473
 31
0.0
  0
LINE
  5
1DC
  8
DEFAULT
 10
-7.990000000008832
 20
2.79954561491537
 30
0.0
 11
-7.950000000028647
 21
2.719543176785336
 31
0.0
  0
LINE
  5
1DD
  8
DEFAULT
 10
-7.990000000026565
 20
2.79954383253698
 30
0.0
 11
-7.990000000008832
 21
2.79954561491537
 31
0.0
  0
LINE
  5
1DE
  8
DEFAULT
 10
-7.949999339259646
 20
2.719542553272473
 30
0.0
 11
-7.990000000026565
 21
2.79954383253698
 31
0.0
  0
LINE
  5
1DF
  8
DEFAULT
 10
-7.990000000022762
 20
2.799544261656051
 30
0.0
 11
-7.949999567859344
 21
2.719542852660183
 31
0.0
  0
LINE
  5
1E0
  8
DEFAULT
 10
-7.989999999998042
 20
3.28954002283498
 30
0.0
 11
-7.990000000008833
 21
2.79954561491537
 31
0.0
  0
LINE
  5
1E1
  8
DEFAULT
 10
-7.990000000026565
 20
2.79954383253698
 30
0.0
 11
-7.990000000008832
 21
2.79954561491537
 31
0.0
  0
LINE
  5
1E2
  8
DEFAULT
 10
-7.990000000008832
 20
3.289540738655304
 30
0.0
 11
-7.990000000026565
 21
2.79954383253698
 31
0.0
  0
LINE
  5
1E3
  8
DEFAULT
 10
-7.989999999998042
 20
3.289540022834981
 30
0.0
 11
-7.990000000008832
 21
3.289540738655304
 31
0.0
  0
LINE
  5
1E4
  8
DEFAULT
 10
-7.990000000028648
 20
3.289540348241739
 30
0.0
 11
-7.990000000028648
 21
2.799544960137484
 31
0.0
  0
LINE
  5
1E5
  8
DEFAULT
 10
-7.790000000028647
 20
3.169543176785337
 30
0.0
 11
-7.790000000028647
 21
2.919543176785337
 31
0.0
  0
LINE
  5
1E6
  8
DEFAULT
 10
-7.790000000028647
 20
2.919543176785337
 30
0.0
 11
-7.790000000028647
 21
3.169543176785337
 31
0.0
  0
LINE
  5
1E7
  8
DEFAULT
 10
-7.790000000028647
 20
3.169543176785337
 30
0.0
 11
-7.790000000028647
 21
2.919543176785337
 31
0.0
  0
LINE
  5
1E8
  8
DEFAULT
 10
-7.790000000028647
 20
2.919543176785337
 30
0.0
 11
-7.750000000028647
 21
2.919543176785336
 31
0.0
  0
LINE
  5
1E9
  8
DEFAULT
 10
-7.750000000028647
 20
2.919543176785336
 30
0.0
 11
-7.790000000028647
 21
2.919543176785337
 31
0.0
  0
LINE
  5
1EA
  8
DEFAULT
 10
-7.750000000028647
 20
2.919543176785337
 30
0.0
 11
-7.790000000028647
 21
2.919543176785337
 31
0.0
  0
LINE
  5
1EB
  8
DEFAULT
 10
-7.750000000028647
 20
2.919543176785336
 30
0.0
 11
-7.750000000028647
 21
3.169543176785336
 31
0.0
  0
LINE
  5
1EC
  8
DEFAULT
 10
-7.750000000028647
 20
3.169543176785336
 30
0.0
 11
-7.790000000028647
 21
3.169543176785337
 31
0.0
  0
LINE
  5
1ED
  8
DEFAULT
 10
-7.750000000028647
 20
2.919543176785336
 30
0.0
 11
-7.790000000028647
 21
2.919543176785337
 31
0.0
  0
LINE
  5
1EE
  8
DEFAULT
 10
-7.790000000028647
 20
2.919543176785337
 30
0.0
 11
-7.790000000028647
 21
3.169543176785337
 31
0.0
  0
LINE
  5
1EF
  8
DEFAULT
 10
-7.750000000028647
 20
3.044543176785337
 30
0.0
 11
-7.790000000028647
 21
3.044543176785337
 31
0.0
  0
LINE
  5
1F0
  8
DEFAULT
 10
-7.770000000028648
 20
3.169543176785337
 30
0.0
 11
-7.770000000028648
 21
2.919543176785337
 31
0.0
  0
LINE
  5
1F1
  8
DEFAULT
 10
-7.750000000028647
 20
3.169543176785336
 30
0.0
 11
-7.790000000028647
 21
3.169543176785337
 31
0.0
  0
LINE
  5
1F2
  8
DEFAULT
 10
-7.750000000028647
 20
3.169543176785336
 30
0.0
 11
-7.790000000028647
 21
3.169543176785337
 31
0.0
  0
LINE
  5
1F3
  8
DEFAULT
 10
-7.750000000028647
 20
3.169543176785337
 30
0.0
 11
-7.790000000028647
 21
3.169543176785337
 31
0.0
  0
LINE
  5
1F4
  8
DEFAULT
 10
-7.750000000028647
 20
2.394543176785337
 30
0.0
 11
-7.950000000028647
 21
2.394543176785337
 31
0.0
  0
LINE
  5
1F5
  8
DEFAULT
 10
-7.750000000028647
 20
2.394543176785337
 30
0.0
 11
-7.950000000028647
 21
2.394543176785337
 31
0.0
  0
LINE
  5
1F6
  8
DEFAULT
 10
-7.750000000028647
 20
2.394543176785337
 30
0.0
 11
-7.950000000028647
 21
2.394543176785337
 31
0.0
  0
LINE
  5
1F7
  8
DEFAULT
 10
-7.950000000028647
 20
3.694543176785337
 30
0.0
 11
-7.950000000028647
 21
2.394543176785337
 31
0.0
  0
LINE
  5
1F8
  8
DEFAULT
 10
-7.750000000028647
 20
3.694543176785337
 30
0.0
 11
-7.750000000028647
 21
2.394543176785337
 31
0.0
  0
LINE
  5
1F9
  8
DEFAULT
 10
-7.750000000028647
 20
2.394543176785337
 30
0.0
 11
-7.950000000028647
 21
2.394543176785337
 31
0.0
  0
LINE
  5
1FA
  8
DEFAULT
 10
-7.950000000028647
 20
3.694543176785337
 30
0.0
 11
-7.750000000028647
 21
3.694543176785337
 31
0.0
  0
LINE
  5
1FB
  8
DEFAULT
 10
-7.850000000028652
 20
3.694543176785337
 30
0.0
 11
-7.850000000028652
 21
2.394543176785336
 31
0.0
  0
LINE
  5
1FC
  8
DEFAULT
 10
-7.750000000028647
 20
3.044543176785337
 30
0.0
 11
-7.950000000028647
 21
3.044543176785337
 31
0.0
  0
LINE
  5
1FD
  8
DEFAULT
 10
-7.950000000028647
 20
3.694543176785337
 30
0.0
 11
-7.750000000028647
 21
3.694543176785337
 31
0.0
  0
LINE
  5
1FE
  8
DEFAULT
 10
-7.950000000028647
 20
3.694543176785337
 30
0.0
 11
-7.750000000028647
 21
3.694543176785337
 31
0.0
  0
LINE
  5
1FF
  8
DEFAULT
 10
-7.950000000028648
 20
3.694543176785336
 30
0.0
 11
-7.750000000028647
 21
3.694543176785336
 31
0.0
  0
LINE
  5
200
  8
DEFAULT
 10
-7.749991434221314
 20
-1.755456823214663
 30
0.0
 11
-7.749979265707081
 21
-10.40167652646466
 31
0.0
  0
LINE
  5
201
  8
DEFAULT
 10
-7.749991434221314
 20
-1.755456823214663
 30
0.0
 11
-7.749999104720148
 21
-1.455453113854663
 31
0.0
  0
LINE
  5
202
  8
DEFAULT
 10
-7.750000000028647
 20
-5.981299535684794
 30
0.0
 11
-7.750000000028647
 21
-5.839878179474823
 31
0.0
  0
LINE
  5
203
  8
DEFAULT
 10
-7.750000000028647
 20
-4.157035466974985
 30
0.0
 11
-7.750000000028647
 21
-5.839878179474823
 31
0.0
  0
LINE
  5
204
  8
DEFAULT
 10
-7.750000000028647
 20
-4.015614110744666
 30
0.0
 11
-7.750000000028647
 21
-4.157035466974985
 31
0.0
  0
LINE
  5
205
  8
DEFAULT
 10
-7.750000000028647
 20
6.735857751836337
 30
0.0
 11
-7.750000000028647
 21
-4.015614110744666
 31
0.0
  0
LINE
  5
206
  8
DEFAULT
 10
-7.750000000028647
 20
3.894543176785337
 30
0.0
 11
-7.750000000028647
 21
6.735857751836337
 31
0.0
  0
LINE
  5
207
  8
DEFAULT
 10
-7.750000000028647
 20
3.694543176785337
 30
0.0
 11
-7.750000000028647
 21
3.894543176785337
 31
0.0
  0
LINE
  5
208
  8
DEFAULT
 10
-7.750000000028647
 20
3.694543176785337
 30
0.0
 11
-7.750000000028647
 21
2.394543176785337
 31
0.0
  0
LINE
  5
209
  8
DEFAULT
 10
-7.750000000028647
 20
2.394543176785337
 30
0.0
 11
-7.750000000028647
 21
1.744543176785335
 31
0.0
  0
LINE
  5
20A
  8
DEFAULT
 10
-7.750000000028647
 20
1.744543176785335
 30
0.0
 11
-7.750000000028647
 21
-1.255456823214663
 31
0.0
  0
LINE
  5
20B
  8
DEFAULT
 10
-7.750000000028647
 20
-1.255456823214663
 30
0.0
 11
-7.749999104720148
 21
-1.455453113854663
 31
0.0
  0
LINE
  5
20C
  8
DEFAULT
 10
-7.749979265707081
 20
-10.40167652646466
 30
0.0
 11
-7.749979062145196
 21
-10.40167491607977
 31
0.0
  0
LINE
  5
20D
  8
DEFAULT
 10
-7.749979062145196
 20
-10.40167491607977
 30
0.0
 11
-7.749991430284648
 21
-6.086324788854665
 31
0.0
  0
LINE
  5
20E
  8
DEFAULT
 10
-7.749991430284648
 20
-6.086324788854665
 30
0.0
 11
-7.750000000028647
 21
-5.981299535684794
 31
0.0
  0
LINE
  5
20F
  8
DEFAULT
 10
-7.750000000028647
 20
3.169543176785336
 30
0.0
 11
-7.750000000028647
 21
2.919543176785336
 31
0.0
  0
LINE
  5
210
  8
DEFAULT
 10
-7.750000000028647
 20
2.919543176785336
 30
0.0
 11
-7.750000000028647
 21
3.169543176785336
 31
0.0
  0
LINE
  5
211
  8
DEFAULT
 10
-7.750000000028647
 20
-10.40167599318041
 30
0.0
 11
-7.750000000028647
 21
6.735857751836333
 31
0.0
  0
LINE
  5
212
  8
DEFAULT
 10
-7.950000000028647
 20
-10.39845682321466
 30
0.0
 11
-7.950000001739981
 21
-1.755456823214663
 31
0.0
  0
LINE
  5
213
  8
DEFAULT
 10
-7.950000001784147
 20
-1.455453113794663
 30
0.0
 11
-7.950000001739981
 21
-1.755456823214663
 31
0.0
  0
LINE
  5
214
  8
DEFAULT
 10
-7.950000000028647
 20
-5.981299535684794
 30
0.0
 11
-7.950000000028647
 21
-5.839878179487322
 31
0.0
  0
LINE
  5
215
  8
DEFAULT
 10
-7.950000000028647
 20
-6.086324788854665
 30
0.0
 11
-7.950000000028647
 21
-5.981299535684794
 31
0.0
  0
LINE
  5
216
  8
DEFAULT
 10
-7.950000000028647
 20
-10.39845682321466
 30
0.0
 11
-7.950000000028647
 21
-6.086324788854665
 31
0.0
  0
LINE
  5
217
  8
DEFAULT
 10
-7.950000000028647
 20
-1.255456823214663
 30
0.0
 11
-7.950000001784147
 21
-1.455453113794663
 31
0.0
  0
LINE
  5
218
  8
DEFAULT
 10
-7.950000000028647
 20
1.744543176785335
 30
0.0
 11
-7.950000000028647
 21
-1.255456823214663
 31
0.0
  0
LINE
  5
219
  8
DEFAULT
 10
-7.950000000028647
 20
2.394543176785337
 30
0.0
 11
-7.950000000028647
 21
1.744543176785335
 31
0.0
  0
LINE
  5
21A
  8
DEFAULT
 10
-7.950000000028647
 20
3.694543176785337
 30
0.0
 11
-7.950000000028647
 21
2.394543176785337
 31
0.0
  0
LINE
  5
21B
  8
DEFAULT
 10
-7.950000000028647
 20
3.894543176785337
 30
0.0
 11
-7.950000000028647
 21
3.694543176785337
 31
0.0
  0
LINE
  5
21C
  8
DEFAULT
 10
-7.950000000028647
 20
6.735857751836337
 30
0.0
 11
-7.950000000028647
 21
3.894543176785337
 31
0.0
  0
LINE
  5
21D
  8
DEFAULT
 10
-7.950000000028647
 20
-4.015614110744666
 30
0.0
 11
-7.950000000028647
 21
6.735857751836337
 31
0.0
  0
LINE
  5
21E
  8
DEFAULT
 10
-7.950000000028647
 20
-4.157035466962485
 30
0.0
 11
-7.950000000028647
 21
-4.015614110744666
 31
0.0
  0
LINE
  5
21F
  8
DEFAULT
 10
-7.950000000028647
 20
-5.839878179487322
 30
0.0
 11
-7.950000000028647
 21
-4.157035466962485
 31
0.0
  0
LINE
  5
220
  8
DEFAULT
 10
-7.949999339259646
 20
3.369543800298202
 30
0.0
 11
-7.950000000028647
 21
2.719543176785336
 31
0.0
  0
LINE
  5
221
  8
DEFAULT
 10
-7.950000000028647
 20
3.369543176785336
 30
0.0
 11
-7.949999339259646
 21
3.369543800298202
 31
0.0
  0
LINE
  5
222
  8
DEFAULT
 10
-7.949999339259646
 20
2.719542553272473
 30
0.0
 11
-7.950000000028647
 21
3.369543176785336
 31
0.0
  0
LINE
  5
223
  8
DEFAULT
 10
-7.950000000028647
 20
2.719543176785336
 30
0.0
 11
-7.949999339259646
 21
2.719542553272473
 31
0.0
  0
LINE
  5
224
  8
DEFAULT
 10
-7.950000000028647
 20
-10.39845682321466
 30
0.0
 11
-7.950000000028647
 21
6.735857751836333
 31
0.0
  0
LINE
  5
225
  8
DEFAULT
 10
7.749999999971353
 20
3.694543176785337
 30
0.0
 11
7.949999999971353
 21
3.694543176785337
 31
0.0
  0
LINE
  5
226
  8
DEFAULT
 10
7.749999999971353
 20
3.694543176785337
 30
0.0
 11
7.949999999971353
 21
3.694543176785337
 31
0.0
  0
LINE
  5
227
  8
DEFAULT
 10
7.749999999971353
 20
3.694543176785336
 30
0.0
 11
7.949999999971353
 21
3.694543176785336
 31
0.0
  0
LINE
  5
228
  8
DEFAULT
 10
7.949999999971353
 20
2.394543176785337
 30
0.0
 11
7.949999999971353
 21
3.694543176785337
 31
0.0
  0
LINE
  5
229
  8
DEFAULT
 10
7.749999999971353
 20
2.394543176785337
 30
0.0
 11
7.749999999971353
 21
3.694543176785337
 31
0.0
  0
LINE
  5
22A
  8
DEFAULT
 10
7.749999999971353
 20
2.394543176785337
 30
0.0
 11
7.949999999971353
 21
2.394543176785337
 31
0.0
  0
LINE
  5
22B
  8
DEFAULT
 10
7.749999999971353
 20
3.694543176785337
 30
0.0
 11
7.949999999971353
 21
3.694543176785337
 31
0.0
  0
LINE
  5
22C
  8
DEFAULT
 10
7.849999999971352
 20
3.694543176785337
 30
0.0
 11
7.849999999971352
 21
2.394543176785336
 31
0.0
  0
LINE
  5
22D
  8
DEFAULT
 10
7.949999999971353
 20
3.044543176785337
 30
0.0
 11
7.749999999971353
 21
3.044543176785337
 31
0.0
  0
LINE
  5
22E
  8
DEFAULT
 10
7.949999999971353
 20
2.394543176785337
 30
0.0
 11
7.749999999971353
 21
2.394543176785337
 31
0.0
  0
LINE
  5
22F
  8
DEFAULT
 10
7.749999999971353
 20
2.394543176785337
 30
0.0
 11
7.949999999971353
 21
2.394543176785337
 31
0.0
  0
LINE
  5
230
  8
DEFAULT
 10
7.749999999971353
 20
2.394543176785337
 30
0.0
 11
7.949999999971353
 21
2.394543176785337
 31
0.0
  0
LINE
  5
231
  8
DEFAULT
 10
7.749979265649786
 20
-10.40167652646466
 30
0.0
 11
7.749991430227353
 21
-6.086324788854665
 31
0.0
  0
LINE
  5
232
  8
DEFAULT
 10
7.749999999971353
 20
-5.839878179487258
 30
0.0
 11
7.749999999971353
 21
-5.981299535684663
 31
0.0
  0
LINE
  5
233
  8
DEFAULT
 10
7.749999999971353
 20
-5.981299535684663
 30
0.0
 11
7.749991430227353
 21
-6.086324788854665
 31
0.0
  0
LINE
  5
234
  8
DEFAULT
 10
7.749979265649786
 20
-10.40167652646466
 30
0.0
 11
7.749979062502513
 21
-10.40167491606577
 31
0.0
  0
LINE
  5
235
  8
DEFAULT
 10
7.749979062502513
 20
-10.40167491606577
 30
0.0
 11
7.749991434662687
 21
-1.755456823214663
 31
0.0
  0
LINE
  5
236
  8
DEFAULT
 10
7.749991434662687
 20
-1.755456823214663
 30
0.0
 11
7.749999105757352
 21
-1.455454736854664
 31
0.0
  0
LINE
  5
237
  8
DEFAULT
 10
7.749999105757352
 20
-1.455454736854664
 30
0.0
 11
7.749999999971353
 21
-1.255456823214663
 31
0.0
  0
LINE
  5
238
  8
DEFAULT
 10
7.749999999971353
 20
-1.255456823214663
 30
0.0
 11
7.749999999971353
 21
1.744543176785335
 31
0.0
  0
LINE
  5
239
  8
DEFAULT
 10
7.749999999971353
 20
1.744543176785335
 30
0.0
 11
7.749999999971353
 21
2.394543176785337
 31
0.0
  0
LINE
  5
23A
  8
DEFAULT
 10
7.749999999971353
 20
2.394543176785337
 30
0.0
 11
7.749999999971353
 21
3.694543176785337
 31
0.0
  0
LINE
  5
23B
  8
DEFAULT
 10
7.749999999971353
 20
3.694543176785337
 30
0.0
 11
7.749999999971353
 21
3.894543176785337
 31
0.0
  0
LINE
  5
23C
  8
DEFAULT
 10
7.749999999971353
 20
3.894543176785337
 30
0.0
 11
7.749999999971353
 21
6.735857751836337
 31
0.0
  0
LINE
  5
23D
  8
DEFAULT
 10
7.749999999971353
 20
6.735857751836337
 30
0.0
 11
7.749999999971353
 21
-4.015614110744666
 31
0.0
  0
LINE
  5
23E
  8
DEFAULT
 10
7.749999999971353
 20
-4.015614110744666
 30
0.0
 11
7.749999999971353
 21
-4.157035466962485
 31
0.0
  0
LINE
  5
23F
  8
DEFAULT
 10
7.749999999971353
 20
-4.157035466962485
 30
0.0
 11
7.749999999971353
 21
-5.839878179487258
 31
0.0
  0
LINE
  5
240
  8
DEFAULT
 10
7.749999999971353
 20
2.919543176785336
 30
0.0
 11
7.749999999971353
 21
3.169543176785336
 31
0.0
  0
LINE
  5
241
  8
DEFAULT
 10
7.749999999971353
 20
3.169543176785336
 30
0.0
 11
7.749999999971353
 21
2.919543176785336
 31
0.0
  0
LINE
  5
242
  8
DEFAULT
 10
7.749999999971353
 20
-10.40167544719222
 30
0.0
 11
7.749999999971353
 21
6.735857751836333
 31
0.0
  0
LINE
  5
243
  8
DEFAULT
 10
7.949999999971353
 20
-6.086324788854665
 30
0.0
 11
7.949999999971352
 21
-10.39845682321466
 31
0.0
  0
LINE
  5
244
  8
DEFAULT
 10
7.949999999971353
 20
-5.83987817949351
 30
0.0
 11
7.949999999971353
 21
-5.981299535684663
 31
0.0
  0
LINE
  5
245
  8
DEFAULT
 10
7.949999999971353
 20
-4.157035466974985
 30
0.0
 11
7.949999999971353
 21
-5.83987817949351
 31
0.0
  0
LINE
  5
246
  8
DEFAULT
 10
7.949999999971353
 20
-4.015614110744666
 30
0.0
 11
7.949999999971353
 21
-4.157035466974985
 31
0.0
  0
LINE
  5
247
  8
DEFAULT
 10
7.949999999971353
 20
6.735857751836337
 30
0.0
 11
7.949999999971353
 21
-4.015614110744666
 31
0.0
  0
LINE
  5
248
  8
DEFAULT
 10
7.949999999971353
 20
3.894543176785337
 30
0.0
 11
7.949999999971353
 21
6.735857751836337
 31
0.0
  0
LINE
  5
249
  8
DEFAULT
 10
7.949999999971353
 20
3.694543176785337
 30
0.0
 11
7.949999999971353
 21
3.894543176785337
 31
0.0
  0
LINE
  5
24A
  8
DEFAULT
 10
7.949999999971353
 20
2.394543176785337
 30
0.0
 11
7.949999999971353
 21
3.694543176785337
 31
0.0
  0
LINE
  5
24B
  8
DEFAULT
 10
7.949999999971353
 20
1.744543176785335
 30
0.0
 11
7.949999999971353
 21
2.394543176785337
 31
0.0
  0
LINE
  5
24C
  8
DEFAULT
 10
7.949999999971353
 20
-1.255456823214663
 30
0.0
 11
7.949999999971353
 21
1.744543176785335
 31
0.0
  0
LINE
  5
24D
  8
DEFAULT
 10
7.950000002816353
 20
-1.455454737034664
 30
0.0
 11
7.949999999971353
 21
-1.255456823214663
 31
0.0
  0
LINE
  5
24E
  8
DEFAULT
 10
7.95000000187802
 20
-1.755456823214663
 30
0.0
 11
7.950000002816353
 21
-1.455454737034664
 31
0.0
  0
LINE
  5
24F
  8
DEFAULT
 10
7.950000000138228
 20
-10.39845682320717
 30
0.0
 11
7.95000000187802
 21
-1.755456823214663
 31
0.0
  0
LINE
  5
250
  8
DEFAULT
 10
7.949999999971353
 20
-5.981299535684663
 30
0.0
 11
7.949999999971353
 21
-6.086324788854665
 31
0.0
  0
LINE
  5
251
  8
DEFAULT
 10
7.949999339202352
 20
3.369543800298202
 30
0.0
 11
7.949999999971353
 21
2.719543176785336
 31
0.0
  0
LINE
  5
252
  8
DEFAULT
 10
7.949999999971353
 20
3.369543176785336
 30
0.0
 11
7.949999339202352
 21
3.369543800298202
 31
0.0
  0
LINE
  5
253
  8
DEFAULT
 10
7.949999339202352
 20
2.719542553272473
 30
0.0
 11
7.949999999971353
 21
3.369543176785336
 31
0.0
  0
LINE
  5
254
  8
DEFAULT
 10
7.949999999971353
 20
2.719543176785336
 30
0.0
 11
7.949999339202352
 21
2.719542553272473
 31
0.0
  0
LINE
  5
255
  8
DEFAULT
 10
7.949999999971353
 20
-10.39845682320797
 30
0.0
 11
7.949999999971353
 21
6.735857751836333
 31
0.0
  0
ENDSEC
  0
EOF
