  0
SECTION
  2
HEADER
  9
$ACADVER
  1
AC1009
  9
$INSBASE
 10
0.0
 20
0.0
 30
0.0
  9
$EXTMIN
 10
0.0
 20
0.0
 30
0.0
  9
$EXTMAX
 10
0.0
 20
0.0
 30
0.0
  0
ENDSEC
  0
SECTION
  2
TABLES
  0
TABLE
  2
VPORT
 70
0
  0
ENDTAB
  0
TABLE
  2
LTYPE
 70
1
  0
LTYPE
  2
CONTINUOUS
 70
0
  3
Solid line
 72
65
 73
0
 40
0.0
  0
ENDTAB
  0
TABLE
  2
LAYER
 70
1
  0
LAYER
  2
0
 70
64
 62
7
  6
continuous
  0
ENDTAB
  0
TABLE
  2
STYLE
 70
1
  0
STYLE
  2
STANDARD
 70
0
 40
0
 41
1.0
 50
0.0
 71
0
 42
1
 3
ARIAL.TTF
 4

  0
ENDTAB
  0
TABLE
  2
VIEW
 70
0
  0
ENDTAB
  0
ENDSEC
  0
SECTION
  2
BLOCKS
  0
BLOCK
  8
0
  2
FUSION
 70
0
 10
0.0
 20
0.0
 30
0.0
  3
FUSION
  0
LINE
  8
0
 62
0
 10
5.5
 20
-4.26
 30
0.0
 11
-5.5
 21
-4.26
 31
0.0
  0
LINE
  8
0
 62
0
 10
5.5
 20
-4.25
 30
0.0
 11
5.5
 21
-4.26
 31
0.0
  0
LINE
  8
0
 62
0
 10
-5.5
 20
-4.25
 30
0.0
 11
5.5
 21
-4.25
 31
0.0
  0
LINE
  8
0
 62
0
 10
-5.5
 20
-4.25
 30
0.0
 11
-5.5
 21
-4.26
 31
0.0
  0
POLYLINE
  8
0
 62
0
 70
0
 66
1
 10
0.0
 20
0.0
 30
0.0
  0
VERTEX
  8
0
 10
-5.5
 20
-4.25
 30
0.0
  0
VERTEX
  8
0
 10
-5.5
 20
-4.1767766953
 30
0.0
  0
SEQEND
  8
0
  0
LINE
  8
0
 62
0
 10
-5.75
 20
4.0
 30
0.0
 11
-5.75
 21
-4.0
 31
0.0
  0
LINE
  8
0
 62
0
 10
5.5
 20
4.25
 30
0.0
 11
-5.5
 21
4.25
 31
0.0
  0
ARC
  8
0
 62
0
 10
5.5
 20
-4.0
 30
0.0
 40
0.25
 50
-90.0
 51
-45.0
  0
LINE
  8
0
 62
0
 10
5.75
 20
-4.0
 30
0.0
 11
5.75
 21
4.0
 31
0.0
  0
ARC
  8
0
 62
0
 10
5.5
 20
-4.0
 30
0.0
 40
0.25
 50
-45.0
 51
-0.0
  0
POLYLINE
  8
0
 62
0
 70
0
 66
1
 10
0.0
 20
0.0
 30
0.0
  0
VERTEX
  8
0
 10
-5.5
 20
-4.1767766953
 30
0.0
  0
VERTEX
  8
0
 10
-5.5
 20
-4.0
 30
0.0
  0
SEQEND
  8
0
  0
ARC
  8
0
 62
0
 10
-5.5
 20
-4.0
 30
0.0
 40
0.25
 50
-135.0
 51
-90.0
  0
POLYLINE
  8
0
 62
0
 70
0
 66
1
 10
0.0
 20
0.0
 30
0.0
  0
VERTEX
  8
0
 10
-5.5
 20
-4.0
 30
0.0
  0
VERTEX
  8
0
 10
-5.6767766953
 20
-4.0
 30
0.0
  0
SEQEND
  8
0
  0
POLYLINE
  8
0
 62
0
 70
0
 66
1
 10
0.0
 20
0.0
 30
0.0
  0
VERTEX
  8
0
 10
-5.6767766953
 20
-4.0
 30
0.0
  0
VERTEX
  8
0
 10
-5.75
 20
-4.0
 30
0.0
  0
SEQEND
  8
0
  0
ARC
  8
0
 62
0
 10
-5.5
 20
-4.0
 30
0.0
 40
0.25
 50
-180.0
 51
-135.0
  0
POLYLINE
  8
0
 62
0
 70
0
 66
1
 10
0.0
 20
0.0
 30
0.0
  0
VERTEX
  8
0
 10
-5.75
 20
4.0
 30
0.0
  0
VERTEX
  8
0
 10
-5.6767766953
 20
4.0
 30
0.0
  0
SEQEND
  8
0
  0
POLYLINE
  8
0
 62
0
 70
0
 66
1
 10
0.0
 20
0.0
 30
0.0
  0
VERTEX
  8
0
 10
-5.6767766953
 20
4.0
 30
0.0
  0
VERTEX
  8
0
 10
-5.5
 20
4.0
 30
0.0
  0
SEQEND
  8
0
  0
ARC
  8
0
 62
0
 10
-5.5
 20
4.0
 30
0.0
 40
0.25
 50
135.0
 51
-180.0
  0
POLYLINE
  8
0
 62
0
 70
0
 66
1
 10
0.0
 20
0.0
 30
0.0
  0
VERTEX
  8
0
 10
-5.5
 20
4.0
 30
0.0
  0
VERTEX
  8
0
 10
-5.5
 20
4.1767766953
 30
0.0
  0
SEQEND
  8
0
  0
POLYLINE
  8
0
 62
0
 70
0
 66
1
 10
0.0
 20
0.0
 30
0.0
  0
VERTEX
  8
0
 10
-5.5
 20
4.1767766953
 30
0.0
  0
VERTEX
  8
0
 10
-5.5
 20
4.25
 30
0.0
  0
SEQEND
  8
0
  0
ARC
  8
0
 62
0
 10
-5.5
 20
4.0
 30
0.0
 40
0.25
 50
90.0
 51
135.0
  0
POLYLINE
  8
0
 62
0
 70
0
 66
1
 10
0.0
 20
0.0
 30
0.0
  0
VERTEX
  8
0
 10
5.5
 20
4.25
 30
0.0
  0
VERTEX
  8
0
 10
5.5
 20
4.1767766953
 30
0.0
  0
SEQEND
  8
0
  0
POLYLINE
  8
0
 62
0
 70
0
 66
1
 10
0.0
 20
0.0
 30
0.0
  0
VERTEX
  8
0
 10
5.5
 20
4.1767766953
 30
0.0
  0
VERTEX
  8
0
 10
5.5
 20
4.0
 30
0.0
  0
SEQEND
  8
0
  0
ARC
  8
0
 62
0
 10
5.5
 20
4.0
 30
0.0
 40
0.25
 50
45.0
 51
90.0
  0
POLYLINE
  8
0
 62
0
 70
0
 66
1
 10
0.0
 20
0.0
 30
0.0
  0
VERTEX
  8
0
 10
5.5
 20
4.0
 30
0.0
  0
VERTEX
  8
0
 10
5.6767766953
 20
4.0
 30
0.0
  0
SEQEND
  8
0
  0
POLYLINE
  8
0
 62
0
 70
0
 66
1
 10
0.0
 20
0.0
 30
0.0
  0
VERTEX
  8
0
 10
5.6767766953
 20
4.0
 30
0.0
  0
VERTEX
  8
0
 10
5.75
 20
4.0
 30
0.0
  0
SEQEND
  8
0
  0
ARC
  8
0
 62
0
 10
5.5
 20
4.0
 30
0.0
 40
0.25
 50
-0.0
 51
45.0
  0
POLYLINE
  8
0
 62
0
 70
0
 66
1
 10
0.0
 20
0.0
 30
0.0
  0
VERTEX
  8
0
 10
5.75
 20
-4.0
 30
0.0
  0
VERTEX
  8
0
 10
5.6767766953
 20
-4.0
 30
0.0
  0
SEQEND
  8
0
  0
POLYLINE
  8
0
 62
0
 70
0
 66
1
 10
0.0
 20
0.0
 30
0.0
  0
VERTEX
  8
0
 10
5.6767766953
 20
-4.0
 30
0.0
  0
VERTEX
  8
0
 10
5.5
 20
-4.0
 30
0.0
  0
SEQEND
  8
0
  0
POLYLINE
  8
0
 62
0
 70
0
 66
1
 10
0.0
 20
0.0
 30
0.0
  0
VERTEX
  8
0
 10
5.5
 20
-4.1767766953
 30
0.0
  0
VERTEX
  8
0
 10
5.5
 20
-4.25
 30
0.0
  0
SEQEND
  8
0
  0
ARC
  8
0
 62
0
 10
-5.5
 20
-4.0
 30
0.0
 40
0.25
 50
-135.0
 51
-90.0
  0
ARC
  8
0
 62
0
 10
-5.5
 20
-4.0
 30
0.0
 40
0.25
 50
-180.0
 51
-135.0
  0
ARC
  8
0
 62
0
 10
-5.5
 20
4.0
 30
0.0
 40
0.25
 50
135.0
 51
-180.0
  0
ARC
  8
0
 62
0
 10
-5.5
 20
4.0
 30
0.0
 40
0.25
 50
90.0
 51
135.0
  0
ARC
  8
0
 62
0
 10
5.5
 20
4.0
 30
0.0
 40
0.25
 50
45.0
 51
90.0
  0
ARC
  8
0
 62
0
 10
5.5
 20
4.0
 30
0.0
 40
0.25
 50
-0.0
 51
45.0
  0
POLYLINE
  8
0
 62
0
 70
0
 66
1
 10
0.0
 20
0.0
 30
0.0
  0
VERTEX
  8
0
 10
5.5
 20
-4.0
 30
0.0
  0
VERTEX
  8
0
 10
5.5
 20
-4.1767766953
 30
0.0
  0
SEQEND
  8
0
  0
LINE
  8
0
 62
0
 10
5.5
 20
-4.0
 30
0.0
 11
-5.5
 21
-4.0
 31
0.0
  0
LINE
  8
0
 62
0
 10
-5.5
 20
-4.0
 30
0.0
 11
-5.5
 21
4.0
 31
0.0
  0
LINE
  8
0
 62
0
 10
5.5
 20
4.0
 30
0.0
 11
5.5
 21
-4.0
 31
0.0
  0
LINE
  8
0
 62
0
 10
-5.5
 20
4.0
 30
0.0
 11
5.5
 21
4.0
 31
0.0
  0
LINE
  8
0
 62
0
 10
5.5
 20
-4.1767766953
 30
0.0
 11
-5.5
 21
-4.1767766953
 31
0.0
  0
POLYLINE
  8
0
 62
0
 70
0
 66
1
 10
0.0
 20
0.0
 30
0.0
  0
VERTEX
  8
0
 10
5.75
 20
-4.0
 30
0.0
  0
VERTEX
  8
0
 10
5.5
 20
-4.1767766953
 30
0.0
  0
SEQEND
  8
0
  0
POLYLINE
  8
0
 62
0
 70
0
 66
1
 10
0.0
 20
0.0
 30
0.0
  0
VERTEX
  8
0
 10
-5.5
 20
-4.0
 30
0.0
  0
VERTEX
  8
0
 10
-5.6767766953
 20
-4.1767766953
 30
0.0
  0
SEQEND
  8
0
  0
LINE
  8
0
 62
0
 10
-5.6767766953
 20
-4.0
 30
0.0
 11
-5.6767766953
 21
4.0
 31
0.0
  0
POLYLINE
  8
0
 62
0
 70
0
 66
1
 10
0.0
 20
0.0
 30
0.0
  0
VERTEX
  8
0
 10
-5.5
 20
4.0
 30
0.0
  0
VERTEX
  8
0
 10
-5.6767766953
 20
4.1767766953
 30
0.0
  0
SEQEND
  8
0
  0
LINE
  8
0
 62
0
 10
-5.5
 20
4.1767766953
 30
0.0
 11
5.5
 21
4.1767766953
 31
0.0
  0
POLYLINE
  8
0
 62
0
 70
0
 66
1
 10
0.0
 20
0.0
 30
0.0
  0
VERTEX
  8
0
 10
5.5
 20
4.0
 30
0.0
  0
VERTEX
  8
0
 10
5.6767766953
 20
4.1767766953
 30
0.0
  0
SEQEND
  8
0
  0
LINE
  8
0
 62
0
 10
5.6767766953
 20
-4.0
 30
0.0
 11
5.6767766953
 21
4.0
 31
0.0
  0
ENDBLK
  0
ENDSEC
  0
SECTION
  2
ENTITIES
  0
INSERT
  2
FUSION
  8
0
 62
0
 10
0.0
 20
0.0
 30
0.0
  0
ENDSEC
  0
EOF
