  0
SECTION
  2
HEADER
  9
$ACADVER
  1
AC1009
  9
$DWGCODEPAGE
  3
ansi_1252
  9
$INSBASE
 10
0.0
 20
0.0
 30
0.0
  9
$EXTMIN
 10
-5.050000000000001
 20
-1.55
 30
0.0
  9
$EXTMAX
 10
5.050000000000001
 20
1.550000000000001
 30
0.0
  9
$LIMMIN
 10
0.0
 20
0.0
  9
$LIMMAX
 10
12.0
 20
9.0
  9
$ORTHOMODE
 70
     0
  9
$REGENMODE
 70
     1
  9
$FILLMODE
 70
     1
  9
$QTEXTMODE
 70
     0
  9
$MIRRTEXT
 70
     1
  9
$DRAGMODE
 70
     2
  9
$LTSCALE
 40
1.0
  9
$OSMODE
 70
    37
  9
$ATTMODE
 70
     1
  9
$TEXTSIZE
 40
0.2
  9
$TRACEWID
 40
0.05
  9
$TEXTSTYLE
  7
STANDARD
  9
$CLAYER
  8
DEFAULT
  9
$CELTYPE
  6
BYLAYER
  9
$CECOLOR
 62
   256
  9
$DIMSCALE
 40
1.0
  9
$DIMASZ
 40
0.18
  9
$DIMEXO
 40
0.0625
  9
$DIMDLI
 40
0.38
  9
$DIMRND
 40
0.0
  9
$DIMDLE
 40
0.0
  9
$DIMEXE
 40
0.18
  9
$DIMTP
 40
0.0
  9
$DIMTM
 40
0.0
  9
$DIMTXT
 40
0.18
  9
$DIMCEN
 40
0.09
  9
$DIMTSZ
 40
0.0
  9
$DIMTOL
 70
     0
  9
$DIMLIM
 70
     0
  9
$DIMTIH
 70
     1
  9
$DIMTOH
 70
     1
  9
$DIMSE1
 70
     0
  9
$DIMSE2
 70
     0
  9
$DIMTAD
 70
     0
  9
$DIMZIN
 70
     0
  9
$DIMBLK
  1

  9
$DIMASO
 70
     1
  9
$DIMSHO
 70
     1
  9
$DIMPOST
  1

  9
$DIMAPOST
  1

  9
$DIMALT
 70
     0
  9
$DIMALTD
 70
     2
  9
$DIMALTF
 40
25.4
  9
$DIMLFAC
 40
1.0
  9
$DIMTOFL
 70
     0
  9
$DIMTVP
 40
0.0
  9
$DIMTIX
 70
     0
  9
$DIMSOXD
 70
     0
  9
$DIMSAH
 70
     0
  9
$DIMBLK1
  1

  9
$DIMBLK2
  1

  9
$DIMSTYLE
  2
STANDARD
  9
$DIMCLRD
 70
     0
  9
$DIMCLRE
 70
     0
  9
$DIMCLRT
 70
     0
  9
$DIMTFAC
 40
1.0
  9
$DIMGAP
 40
0.09
  9
$LUNITS
 70
     2
  9
$LUPREC
 70
     3
  9
$SKETCHINC
 40
0.1
  9
$FILLETRAD
 40
0.5
  9
$AUNITS
 70
     0
  9
$AUPREC
 70
     0
  9
$MENU
  1
.
  9
$ELEVATION
 40
0.0
  9
$PELEVATION
 40
0.0
  9
$THICKNESS
 40
0.0
  9
$LIMCHECK
 70
     0
  9
$CHAMFERA
 40
0.5
  9
$CHAMFERB
 40
0.5
  9
$SKPOLY
 70
     0
  9
$TDCREATE
 40
2458869.170205857
  9
$TDUPDATE
 40
2458869.170205868
  9
$TDINDWG
 40
0.0000000116
  9
$TDUSRTIMER
 40
0.0000000116
  9
$USRTIMER
 70
     1
  9
$ANGBASE
 50
0.0
  9
$ANGDIR
 70
     0
  9
$PDMODE
 70
     0
  9
$PDSIZE
 40
0.0
  9
$PLINEWID
 40
0.0
  9
$COORDS
 70
     1
  9
$SPLFRAME
 70
     0
  9
$SPLINETYPE
 70
     6
  9
$SPLINESEGS
 70
     8
  9
$ATTDIA
 70
     0
  9
$ATTREQ
 70
     1
  9
$HANDLING
 70
     1
  9
$HANDSEED
  5
CD
  9
$SURFTAB1
 70
     6
  9
$SURFTAB2
 70
     6
  9
$SURFTYPE
 70
     6
  9
$SURFU
 70
     6
  9
$SURFV
 70
     6
  9
$UCSNAME
  2

  9
$UCSORG
 10
0.0
 20
0.0
 30
0.0
  9
$UCSXDIR
 10
1.0
 20
0.0
 30
0.0
  9
$UCSYDIR
 10
0.0
 20
1.0
 30
0.0
  9
$PUCSNAME
  2

  9
$PUCSORG
 10
0.0
 20
0.0
 30
0.0
  9
$PUCSXDIR
 10
1.0
 20
0.0
 30
0.0
  9
$PUCSYDIR
 10
0.0
 20
1.0
 30
0.0
  9
$USERI1
 70
     0
  9
$USERI2
 70
     0
  9
$USERI3
 70
     0
  9
$USERI4
 70
     0
  9
$USERI5
 70
     0
  9
$USERR1
 40
0.0
  9
$USERR2
 40
0.0
  9
$USERR3
 40
0.0
  9
$USERR4
 40
0.0
  9
$USERR5
 40
0.0
  9
$WORLDVIEW
 70
     1
  9
$SHADEDGE
 70
     3
  9
$SHADEDIF
 70
    70
  9
$TILEMODE
 70
     1
  9
$MAXACTVP
 70
    64
  9
$PLIMCHECK
 70
     0
  9
$PEXTMIN
 10
1.000000000000000E+20
 20
1.000000000000000E+20
 30
1.000000000000000E+20
  9
$PEXTMAX
 10
-1.000000000000000E+20
 20
-1.000000000000000E+20
 30
-1.000000000000000E+20
  9
$PLIMMIN
 10
0.0
 20
0.0
  9
$PLIMMAX
 10
12.0
 20
9.0
  9
$UNITMODE
 70
     0
  9
$VISRETAIN
 70
     1
  9
$PLINEGEN
 70
     0
  9
$PSLTSCALE
 70
     1
  0
ENDSEC
  0
SECTION
  2
TABLES
  0
TABLE
  2
VPORT
 70
     1
  0
VPORT
  2
*ACTIVE
 70
     0
 10
0.0
 20
0.0
 11
1.0
 21
1.0
 12
0.0
 22
0.0
 13
0.0
 23
0.0
 14
0.5
 24
0.5
 15
0.5
 25
0.5
 16
0.0
 26
0.0
 36
1.0
 17
0.0
 27
0.0000000000000004
 37
0.0
 40
3.162000000000001
 41
3.258064516129032
 42
50.0
 43
0.0
 44
0.0
 50
0.0
 51
0.0
 71
     0
 72
   100
 73
     1
 74
     3
 75
     0
 76
     0
 77
     0
 78
     0
  0
ENDTAB
  0
TABLE
  2
LTYPE
 70
     1
  0
LTYPE
  2
CONTINUOUS
 70
     0
  3
Solid line
 72
    65
 73
     0
 40
0.0
  0
ENDTAB
  0
TABLE
  2
LAYER
 70
     2
  0
LAYER
  2
0
 70
     0
 62
     7
  6
CONTINUOUS
  0
LAYER
  2
DEFAULT
 70
     0
 62
     7
  6
CONTINUOUS
  0
ENDTAB
  0
TABLE
  2
STYLE
 70
     1
  0
STYLE
  2
STANDARD
 70
     0
 40
0.0
 41
1.0
 50
0.0
 71
     0
 42
0.2
  3
txt
  4

  0
ENDTAB
  0
TABLE
  2
VIEW
 70
     0
  0
ENDTAB
  0
TABLE
  2
UCS
 70
     0
  0
ENDTAB
  0
TABLE
  2
APPID
 70
     1
  0
APPID
  2
ACAD
 70
     0
  0
ENDTAB
  0
TABLE
  2
DIMSTYLE
 70
     1
  0
DIMSTYLE
  2
STANDARD
 70
     0
  3

  4

  5

  6

  7

 40
1.0
 41
0.18
 42
0.0625
 43
0.38
 44
0.18
 45
0.0
 46
0.0
 47
0.0
 48
0.0
140
0.18
141
0.09
142
0.0
143
25.4
144
1.0
145
0.0
146
1.0
147
0.09
 71
     0
 72
     0
 73
     1
 74
     1
 75
     0
 76
     0
 77
     0
 78
     0
170
     0
171
     2
172
     0
173
     0
174
     0
175
     0
176
     0
177
     0
178
     0
  0
ENDTAB
  0
ENDSEC
  0
SECTION
  2
BLOCKS
  0
BLOCK
  8
0
  2
$MODEL_SPACE
 70
     0
 10
0.0
 20
0.0
 30
0.0
  3
$MODEL_SPACE
  1

  0
ENDBLK
  5
21
  8
0
  0
BLOCK
 67
     1
  8
0
  2
$PAPER_SPACE
 70
     0
 10
0.0
 20
0.0
 30
0.0
  3
$PAPER_SPACE
  1

  0
ENDBLK
  5
1D
 67
     1
  8
0
  0
ENDSEC
  0
SECTION
  2
ENTITIES
  0
LINE
  5
3C
  8
DEFAULT
 62
   253
 10
3.299999999999999
 20
1.35
 30
0.0
 11
4.85
 21
1.35
 31
0.0
  0
LINE
  5
3D
  8
DEFAULT
 62
   253
 10
3.299999999999999
 20
-1.35
 30
0.0
 11
3.299999999999999
 21
1.35
 31
0.0
  0
LINE
  5
3E
  8
DEFAULT
 62
   253
 10
4.85
 20
-1.35
 30
0.0
 11
3.299999999999999
 21
-1.35
 31
0.0
  0
LINE
  5
3F
  8
DEFAULT
 62
   253
 10
4.85
 20
1.35
 30
0.0
 11
4.85
 21
-1.35
 31
0.0
  0
LINE
  5
40
  8
DEFAULT
 62
   253
 10
4.85
 20
-1.35
 30
0.0
 11
3.299999999999999
 21
-1.35
 31
0.0
  0
LINE
  5
41
  8
DEFAULT
 62
   253
 10
3.299999999999999
 20
1.35
 30
0.0
 11
4.85
 21
1.35
 31
0.0
  0
LINE
  5
42
  8
DEFAULT
 62
   253
 10
4.85
 20
1.35
 30
0.0
 11
4.85
 21
-1.35
 31
0.0
  0
ARC
  5
43
  8
DEFAULT
 62
   253
 10
4.950000000000002
 20
-1.450000000000002
 30
0.0
 40
0.0999999999999983
 50
269.9999999999995
 51
0.0000000000010178
  0
LINE
  5
44
  8
DEFAULT
 62
   253
 10
4.95
 20
-1.45
 30
0.0
 11
4.95
 21
-1.55
 31
0.0
  0
LINE
  5
45
  8
DEFAULT
 62
   253
 10
5.050000000000001
 20
-1.45
 30
0.0
 11
4.95
 21
-1.45
 31
0.0
  0
LINE
  5
46
  8
DEFAULT
 62
   253
 10
4.95
 20
1.55
 30
0.0
 11
4.95
 21
1.45
 31
0.0
  0
LINE
  5
47
  8
DEFAULT
 62
   253
 10
4.950000000000001
 20
1.45
 30
0.0
 11
5.050000000000001
 21
1.45
 31
0.0
  0
ARC
  5
48
  8
DEFAULT
 62
   253
 10
4.950000000000002
 20
1.450000000000001
 30
0.0
 40
0.0999999999999988
 50
359.9999999999995
 51
90.00000000000102
  0
ARC
  5
49
  8
DEFAULT
 62
   253
 10
4.95
 20
-1.45
 30
0.0
 40
0.0999999999999996
 50
270.0
 51
0.0000000000002544
  0
LINE
  5
4A
  8
DEFAULT
 62
   253
 10
4.95
 20
-1.55
 30
0.0
 11
4.95
 21
-1.45
 31
0.0
  0
LINE
  5
4B
  8
DEFAULT
 62
   253
 10
4.95
 20
-1.45
 30
0.0
 11
5.05
 21
-1.45
 31
0.0
  0
LINE
  5
4C
  8
DEFAULT
 62
   253
 10
5.05
 20
1.45
 30
0.0
 11
4.95
 21
1.45
 31
0.0
  0
LINE
  5
4D
  8
DEFAULT
 62
   253
 10
4.95
 20
1.45
 30
0.0
 11
4.95
 21
1.55
 31
0.0
  0
ARC
  5
4E
  8
DEFAULT
 62
   253
 10
4.95
 20
1.450000000000001
 30
0.0
 40
0.0999999999999996
 50
359.9999999999998
 51
89.99999999999949
  0
LINE
  5
4F
  8
DEFAULT
 62
   253
 10
4.95
 20
-1.45
 30
0.0
 11
4.95
 21
1.45
 31
0.0
  0
LINE
  5
50
  8
DEFAULT
 62
   253
 10
5.05
 20
1.45
 30
0.0
 11
5.05
 21
-1.45
 31
0.0
  0
LINE
  5
51
  8
DEFAULT
 62
   253
 10
3.3
 20
1.45
 30
0.0
 11
3.3
 21
1.55
 31
0.0
  0
LINE
  5
52
  8
DEFAULT
 62
   253
 10
3.299999999999999
 20
1.55
 30
0.0
 11
4.95
 21
1.55
 31
0.0
  0
LINE
  5
53
  8
DEFAULT
 62
   253
 10
4.95
 20
1.45
 30
0.0
 11
3.299999999999999
 21
1.45
 31
0.0
  0
LINE
  5
54
  8
DEFAULT
 62
   253
 10
3.3
 20
-1.55
 30
0.0
 11
3.3
 21
-1.45
 31
0.0
  0
LINE
  5
55
  8
DEFAULT
 62
   253
 10
3.299999999999999
 20
-1.45
 30
0.0
 11
4.95
 21
-1.45
 31
0.0
  0
LINE
  5
56
  8
DEFAULT
 62
   253
 10
4.95
 20
-1.55
 30
0.0
 11
3.299999999999999
 21
-1.55
 31
0.0
  0
LINE
  5
57
  8
DEFAULT
 62
   253
 10
3.3
 20
1.55
 30
0.0
 11
3.3
 21
1.45
 31
0.0
  0
LINE
  5
58
  8
DEFAULT
 62
   253
 10
3.299999999999999
 20
1.45
 30
0.0
 11
4.95
 21
1.45
 31
0.0
  0
LINE
  5
59
  8
DEFAULT
 62
   253
 10
4.95
 20
1.55
 30
0.0
 11
3.299999999999999
 21
1.55
 31
0.0
  0
LINE
  5
5A
  8
DEFAULT
 62
   253
 10
3.3
 20
-1.45
 30
0.0
 11
3.3
 21
-1.55
 31
0.0
  0
LINE
  5
5B
  8
DEFAULT
 62
   253
 10
3.299999999999999
 20
-1.55
 30
0.0
 11
4.95
 21
-1.55
 31
0.0
  0
LINE
  5
5C
  8
DEFAULT
 62
   253
 10
4.95
 20
-1.45
 30
0.0
 11
3.299999999999999
 21
-1.45
 31
0.0
  0
LINE
  5
5D
  8
DEFAULT
 62
   253
 10
3.299999999999999
 20
-1.45
 30
0.0
 11
3.299999999999999
 21
1.45
 31
0.0
  0
LINE
  5
5E
  8
DEFAULT
 62
   253
 10
3.299999999999999
 20
-1.45
 30
0.0
 11
3.299999999999999
 21
1.45
 31
0.0
  0
LINE
  5
5F
  8
DEFAULT
 62
   253
 10
3.299999999999999
 20
1.35
 30
0.0
 11
3.299999999999999
 21
-1.35
 31
0.0
  0
LINE
  5
60
  8
DEFAULT
 62
   253
 10
5.050000000000001
 20
1.45
 30
0.0
 11
5.050000000000001
 21
-1.45
 31
0.0
  0
LINE
  5
61
  8
DEFAULT
 62
   253
 10
4.95
 20
-1.45
 30
0.0
 11
4.95
 21
1.45
 31
0.0
  0
LINE
  5
62
  8
DEFAULT
 62
   253
 10
4.074999999999999
 20
1.35
 30
0.0
 11
4.074999999999999
 21
-1.350000000000001
 31
0.0
  0
LINE
  5
63
  8
DEFAULT
 62
   253
 10
4.85
 20
0.0
 30
0.0
 11
3.3
 21
0.0
 31
0.0
  0
LINE
  5
64
  8
DEFAULT
 62
   253
 10
4.85
 20
-1.35
 30
0.0
 11
3.3
 21
-1.35
 31
0.0
  0
LINE
  5
65
  8
DEFAULT
 62
   253
 10
4.85
 20
1.350000000000001
 30
0.0
 11
3.3
 21
1.350000000000001
 31
0.0
  0
LINE
  5
66
  8
DEFAULT
 62
   253
 10
4.074999999999999
 20
-1.35
 30
0.0
 11
4.074999999999999
 21
1.350000000000001
 31
0.0
  0
LINE
  5
67
  8
DEFAULT
 62
   253
 10
4.85
 20
0.0
 30
0.0
 11
3.3
 21
0.0
 31
0.0
  0
LINE
  5
68
  8
DEFAULT
 62
   253
 10
4.85
 20
1.35
 30
0.0
 11
4.85
 21
-1.35
 31
0.0
  0
LINE
  5
69
  8
DEFAULT
 62
   253
 10
4.95
 20
0.0000000000000002
 30
0.0
 11
5.050000000000001
 21
0.0000000000000002
 31
0.0
  0
LINE
  5
6A
  8
DEFAULT
 62
   253
 10
5.05
 20
1.45
 30
0.0
 11
4.95
 21
1.45
 31
0.0
  0
LINE
  5
6B
  8
DEFAULT
 62
   253
 10
4.95
 20
-0.0000000000000002
 30
0.0
 11
5.05
 21
-0.0000000000000002
 31
0.0
  0
LINE
  5
6C
  8
DEFAULT
 62
   253
 10
4.125
 20
1.55
 30
0.0
 11
4.125
 21
1.45
 31
0.0
  0
ARC
  5
6D
  8
DEFAULT
 62
   253
 10
4.95
 20
1.45
 30
0.0
 40
0.1000000000000003
 50
0.0
 51
90.0
  0
ARC
  5
6E
  8
DEFAULT
 62
   253
 10
4.95
 20
-1.45
 30
0.0
 40
0.1000000000000001
 50
270.0
 51
0.0
  0
LINE
  5
6F
  8
DEFAULT
 62
   253
 10
4.125
 20
-1.45
 30
0.0
 11
4.125
 21
-1.55
 31
0.0
  0
LINE
  5
70
  8
DEFAULT
 62
   253
 10
4.125
 20
1.45
 30
0.0
 11
4.125
 21
1.55
 31
0.0
  0
LINE
  5
71
  8
DEFAULT
 62
   253
 10
4.125
 20
-1.55
 30
0.0
 11
4.125
 21
-1.45
 31
0.0
  0
LINE
  5
72
  8
DEFAULT
 62
   253
 10
4.125
 20
1.45
 30
0.0
 11
4.125
 21
-1.45
 31
0.0
  0
LINE
  5
73
  8
DEFAULT
 62
   253
 10
4.95
 20
0.0
 30
0.0
 11
3.3
 21
0.0
 31
0.0
  0
LINE
  5
74
  8
DEFAULT
 62
   253
 10
3.3
 20
-1.55
 30
0.0
 11
3.3
 21
-1.35
 31
0.0
  0
LINE
  5
75
  8
DEFAULT
 62
   253
 10
3.3
 20
1.35
 30
0.0
 11
3.3
 21
1.55
 31
0.0
  0
LINE
  5
76
  8
DEFAULT
 62
   253
 10
4.95
 20
-1.55
 30
0.0
 11
3.3
 21
-1.55
 31
0.0
  0
LINE
  5
77
  8
DEFAULT
 62
   253
 10
5.05
 20
1.45
 30
0.0
 11
5.05
 21
-1.45
 31
0.0
  0
LINE
  5
78
  8
DEFAULT
 62
   253
 10
4.95
 20
1.55
 30
0.0
 11
3.3
 21
1.55
 31
0.0
  0
LINE
  5
79
  8
DEFAULT
 62
   253
 10
4.125
 20
-1.45
 30
0.0
 11
4.125
 21
1.45
 31
0.0
  0
LINE
  5
7A
  8
DEFAULT
 62
   253
 10
4.95
 20
0.0
 30
0.0
 11
3.3
 21
0.0
 31
0.0
  0
LINE
  5
7B
  8
DEFAULT
 62
   253
 10
-4.85
 20
1.35
 30
0.0
 11
-3.299999999999999
 21
1.35
 31
0.0
  0
LINE
  5
7C
  8
DEFAULT
 62
   253
 10
-3.299999999999999
 20
1.35
 30
0.0
 11
-4.85
 21
1.35
 31
0.0
  0
LINE
  5
7D
  8
DEFAULT
 62
   253
 10
-3.299999999999999
 20
1.35
 30
0.0
 11
-3.299999999999999
 21
-1.35
 31
0.0
  0
LINE
  5
7E
  8
DEFAULT
 62
   253
 10
-3.299999999999999
 20
-1.35
 30
0.0
 11
-4.85
 21
-1.35
 31
0.0
  0
LINE
  5
7F
  8
DEFAULT
 62
   253
 10
-4.85
 20
-1.35
 30
0.0
 11
-4.85
 21
1.35
 31
0.0
  0
LINE
  5
80
  8
DEFAULT
 62
   253
 10
-4.85
 20
1.35
 30
0.0
 11
-4.85
 21
-1.35
 31
0.0
  0
LINE
  5
81
  8
DEFAULT
 62
   253
 10
-4.85
 20
-1.35
 30
0.0
 11
-3.299999999999999
 21
-1.35
 31
0.0
  0
LINE
  5
82
  8
DEFAULT
 62
   253
 10
-3.299999999999999
 20
-1.35
 30
0.0
 11
-3.299999999999999
 21
1.35
 31
0.0
  0
LINE
  5
83
  8
DEFAULT
 62
   253
 10
-4.95
 20
-1.55
 30
0.0
 11
-4.95
 21
-1.45
 31
0.0
  0
LINE
  5
84
  8
DEFAULT
 62
   253
 10
-4.950000000000001
 20
-1.45
 30
0.0
 11
-5.050000000000001
 21
-1.45
 31
0.0
  0
ARC
  5
85
  8
DEFAULT
 62
   253
 10
-4.950000000000002
 20
-1.450000000000001
 30
0.0
 40
0.0999999999999988
 50
179.9999999999995
 51
270.000000000001
  0
LINE
  5
86
  8
DEFAULT
 62
   253
 10
-4.95
 20
1.45
 30
0.0
 11
-4.95
 21
1.55
 31
0.0
  0
ARC
  5
87
  8
DEFAULT
 62
   253
 10
-4.949999999999998
 20
1.449999999999999
 30
0.0
 40
0.1000000000000014
 50
90.00000000000102
 51
179.9999999999996
  0
LINE
  5
88
  8
DEFAULT
 62
   253
 10
-5.05
 20
1.45
 30
0.0
 11
-4.95
 21
1.45
 31
0.0
  0
LINE
  5
89
  8
DEFAULT
 62
   253
 10
-5.05
 20
1.45
 30
0.0
 11
-5.050000000000001
 21
-1.45
 31
0.0
  0
LINE
  5
8A
  8
DEFAULT
 62
   253
 10
-4.95
 20
-1.45
 30
0.0
 11
-4.95
 21
1.45
 31
0.0
  0
LINE
  5
8B
  8
DEFAULT
 62
   253
 10
-4.95
 20
-1.45
 30
0.0
 11
-4.95
 21
-1.55
 31
0.0
  0
ARC
  5
8C
  8
DEFAULT
 62
   253
 10
-4.949999999999999
 20
-1.45
 30
0.0
 40
0.1000000000000001
 50
180.0
 51
269.9999999999995
  0
LINE
  5
8D
  8
DEFAULT
 62
   253
 10
-5.05
 20
-1.45
 30
0.0
 11
-4.95
 21
-1.45
 31
0.0
  0
ARC
  5
8E
  8
DEFAULT
 62
   253
 10
-4.95
 20
1.45
 30
0.0
 40
0.0999999999999996
 50
90.00000000000051
 51
180.0000000000003
  0
LINE
  5
8F
  8
DEFAULT
 62
   253
 10
-4.95
 20
1.55
 30
0.0
 11
-4.95
 21
1.45
 31
0.0
  0
LINE
  5
90
  8
DEFAULT
 62
   253
 10
-4.95
 20
1.45
 30
0.0
 11
-5.05
 21
1.45
 31
0.0
  0
LINE
  5
91
  8
DEFAULT
 62
   253
 10
-4.95
 20
1.45
 30
0.0
 11
-4.95
 21
-1.45
 31
0.0
  0
LINE
  5
92
  8
DEFAULT
 62
   253
 10
-3.3
 20
1.55
 30
0.0
 11
-3.3
 21
1.45
 31
0.0
  0
LINE
  5
93
  8
DEFAULT
 62
   253
 10
-3.299999999999999
 20
1.45
 30
0.0
 11
-4.95
 21
1.45
 31
0.0
  0
LINE
  5
94
  8
DEFAULT
 62
   253
 10
-4.95
 20
1.55
 30
0.0
 11
-3.299999999999999
 21
1.55
 31
0.0
  0
LINE
  5
95
  8
DEFAULT
 62
   253
 10
-3.3
 20
-1.45
 30
0.0
 11
-3.3
 21
-1.55
 31
0.0
  0
LINE
  5
96
  8
DEFAULT
 62
   253
 10
-3.299999999999999
 20
-1.55
 30
0.0
 11
-4.95
 21
-1.55
 31
0.0
  0
LINE
  5
97
  8
DEFAULT
 62
   253
 10
-4.95
 20
-1.45
 30
0.0
 11
-3.299999999999999
 21
-1.45
 31
0.0
  0
LINE
  5
98
  8
DEFAULT
 62
   253
 10
-3.3
 20
1.45
 30
0.0
 11
-3.3
 21
1.55
 31
0.0
  0
LINE
  5
99
  8
DEFAULT
 62
   253
 10
-3.299999999999999
 20
1.55
 30
0.0
 11
-4.95
 21
1.55
 31
0.0
  0
LINE
  5
9A
  8
DEFAULT
 62
   253
 10
-4.95
 20
1.45
 30
0.0
 11
-3.299999999999999
 21
1.45
 31
0.0
  0
LINE
  5
9B
  8
DEFAULT
 62
   253
 10
-3.3
 20
-1.55
 30
0.0
 11
-3.3
 21
-1.45
 31
0.0
  0
LINE
  5
9C
  8
DEFAULT
 62
   253
 10
-3.299999999999999
 20
-1.45
 30
0.0
 11
-4.95
 21
-1.45
 31
0.0
  0
LINE
  5
9D
  8
DEFAULT
 62
   253
 10
-4.95
 20
-1.55
 30
0.0
 11
-3.299999999999999
 21
-1.55
 31
0.0
  0
LINE
  5
9E
  8
DEFAULT
 62
   253
 10
-3.299999999999999
 20
-1.45
 30
0.0
 11
-3.299999999999999
 21
1.45
 31
0.0
  0
LINE
  5
9F
  8
DEFAULT
 62
   253
 10
-3.299999999999999
 20
-1.45
 30
0.0
 11
-3.299999999999999
 21
1.45
 31
0.0
  0
LINE
  5
A0
  8
DEFAULT
 62
   253
 10
-5.05
 20
-1.45
 30
0.0
 11
-5.05
 21
1.45
 31
0.0
  0
LINE
  5
A1
  8
DEFAULT
 62
   253
 10
-4.85
 20
1.350000000000001
 30
0.0
 11
-3.3
 21
1.350000000000001
 31
0.0
  0
LINE
  5
A2
  8
DEFAULT
 62
   253
 10
-4.074999999999999
 20
-1.35
 30
0.0
 11
-4.074999999999999
 21
1.350000000000001
 31
0.0
  0
LINE
  5
A3
  8
DEFAULT
 62
   253
 10
-4.85
 20
0.0
 30
0.0
 11
-3.3
 21
0.0
 31
0.0
  0
LINE
  5
A4
  8
DEFAULT
 62
   253
 10
-4.074999999999999
 20
1.35
 30
0.0
 11
-4.074999999999999
 21
-1.350000000000001
 31
0.0
  0
LINE
  5
A5
  8
DEFAULT
 62
   253
 10
-4.85
 20
0.0
 30
0.0
 11
-3.3
 21
0.0
 31
0.0
  0
LINE
  5
A6
  8
DEFAULT
 62
   253
 10
-4.85
 20
-1.35
 30
0.0
 11
-3.3
 21
-1.35
 31
0.0
  0
LINE
  5
A7
  8
DEFAULT
 62
   253
 10
-4.85
 20
1.35
 30
0.0
 11
-4.85
 21
-1.35
 31
0.0
  0
LINE
  5
A8
  8
DEFAULT
 62
   253
 10
-4.95
 20
0.0
 30
0.0
 11
-5.050000000000001
 21
0.0
 31
0.0
  0
LINE
  5
A9
  8
DEFAULT
 62
   253
 10
-4.95
 20
1.45
 30
0.0
 11
-5.05
 21
1.45
 31
0.0
  0
LINE
  5
AA
  8
DEFAULT
 62
   253
 10
-4.95
 20
0.0
 30
0.0
 11
-5.05
 21
0.0
 31
0.0
  0
LINE
  5
AB
  8
DEFAULT
 62
   253
 10
-4.125
 20
1.55
 30
0.0
 11
-4.125
 21
1.45
 31
0.0
  0
ARC
  5
AC
  8
DEFAULT
 62
   253
 10
-4.95
 20
1.45
 30
0.0
 40
0.0999999999999999
 50
90.0
 51
180.0
  0
ARC
  5
AD
  8
DEFAULT
 62
   253
 10
-4.95
 20
-1.45
 30
0.0
 40
0.1000000000000001
 50
180.0
 51
270.0
  0
LINE
  5
AE
  8
DEFAULT
 62
   253
 10
-4.125
 20
-1.45
 30
0.0
 11
-4.125
 21
-1.55
 31
0.0
  0
LINE
  5
AF
  8
DEFAULT
 62
   253
 10
-4.125
 20
1.45
 30
0.0
 11
-4.125
 21
1.55
 31
0.0
  0
LINE
  5
B0
  8
DEFAULT
 62
   253
 10
-4.125
 20
-1.55
 30
0.0
 11
-4.125
 21
-1.45
 31
0.0
  0
LINE
  5
B1
  8
DEFAULT
 62
   253
 10
-4.125
 20
1.45
 30
0.0
 11
-4.125
 21
-1.45
 31
0.0
  0
LINE
  5
B2
  8
DEFAULT
 62
   253
 10
-4.95
 20
0.0
 30
0.0
 11
-3.3
 21
0.0
 31
0.0
  0
LINE
  5
B3
  8
DEFAULT
 62
   253
 10
-3.3
 20
-1.55
 30
0.0
 11
-3.3
 21
-1.35
 31
0.0
  0
LINE
  5
B4
  8
DEFAULT
 62
   253
 10
-3.3
 20
1.35
 30
0.0
 11
-3.3
 21
1.55
 31
0.0
  0
LINE
  5
B5
  8
DEFAULT
 62
   253
 10
-4.95
 20
-1.55
 30
0.0
 11
-3.3
 21
-1.55
 31
0.0
  0
LINE
  5
B6
  8
DEFAULT
 62
   253
 10
-5.05
 20
1.45
 30
0.0
 11
-5.05
 21
-1.45
 31
0.0
  0
LINE
  5
B7
  8
DEFAULT
 62
   253
 10
-4.95
 20
1.55
 30
0.0
 11
-3.3
 21
1.55
 31
0.0
  0
LINE
  5
B8
  8
DEFAULT
 62
   253
 10
-4.125
 20
-1.45
 30
0.0
 11
-4.125
 21
1.45
 31
0.0
  0
LINE
  5
B9
  8
DEFAULT
 62
   253
 10
-4.95
 20
0.0
 30
0.0
 11
-3.3
 21
0.0
 31
0.0
  0
LINE
  5
BA
  8
DEFAULT
 62
   253
 10
-4.75
 20
-1.325
 30
0.0
 11
4.75
 21
-1.325
 31
0.0
  0
LINE
  5
BB
  8
DEFAULT
 62
   253
 10
4.75
 20
-1.325
 30
0.0
 11
4.75
 21
1.324999999999999
 31
0.0
  0
LINE
  5
BC
  8
DEFAULT
 62
   253
 10
4.75
 20
1.324999999999999
 30
0.0
 11
-4.75
 21
1.325
 31
0.0
  0
LINE
  5
BD
  8
DEFAULT
 62
   253
 10
-4.75
 20
1.325
 30
0.0
 11
-4.75
 21
-1.325
 31
0.0
  0
LINE
  5
BE
  8
DEFAULT
 62
   253
 10
4.75
 20
-1.325
 30
0.0
 11
4.75
 21
1.324999999999999
 31
0.0
  0
LINE
  5
BF
  8
DEFAULT
 62
   253
 10
4.75
 20
1.324999999999999
 30
0.0
 11
-4.75
 21
1.325
 31
0.0
  0
LINE
  5
C0
  8
DEFAULT
 62
   253
 10
-4.75
 20
1.325
 30
0.0
 11
-4.75
 21
-1.325
 31
0.0
  0
LINE
  5
C1
  8
DEFAULT
 62
   253
 10
4.75
 20
-1.325
 30
0.0
 11
-4.75
 21
-1.325
 31
0.0
  0
LINE
  5
C2
  8
DEFAULT
 62
   253
 10
0.0
 20
1.325
 30
0.0
 11
0.0
 21
-1.325
 31
0.0
  0
LINE
  5
C3
  8
DEFAULT
 62
   253
 10
-4.75
 20
-0.0000000000000001
 30
0.0
 11
4.75
 21
-0.0000000000000001
 31
0.0
  0
LINE
  5
C4
  8
DEFAULT
 62
   253
 10
4.75
 20
1.325
 30
0.0
 11
4.75
 21
-1.325
 31
0.0
  0
LINE
  5
C5
  8
DEFAULT
 62
   253
 10
-4.75
 20
1.325
 30
0.0
 11
4.749999999999999
 21
1.324999999999998
 31
0.0
  0
LINE
  5
C6
  8
DEFAULT
 62
   253
 10
-4.75
 20
-1.325
 30
0.0
 11
-4.75
 21
1.325
 31
0.0
  0
LINE
  5
C7
  8
DEFAULT
 62
   253
 10
4.75
 20
-1.325
 30
0.0
 11
-4.749999999999999
 21
-1.324999999999998
 31
0.0
  0
LINE
  5
C8
  8
DEFAULT
 62
   253
 10
0.0
 20
-1.325
 30
0.0
 11
0.0
 21
1.325
 31
0.0
  0
LINE
  5
C9
  8
DEFAULT
 62
   253
 10
-4.75
 20
-0.0000000000000001
 30
0.0
 11
4.75
 21
-0.0000000000000001
 31
0.0
  0
ENDSEC
  0
EOF
