  0
SECTION
  2
HEADER
  9
$ACADVER
  1
AC1009
  9
$DWGCODEPAGE
  3
ansi_1252
  9
$INSBASE
 10
0.0
 20
0.0
 30
0.0
  9
$EXTMIN
 10
-1.155369215493891
 20
-0.2501359105991283
 30
0.0
  9
$EXTMAX
 10
45.37192540693829
 20
0.250135910599121
 30
0.0
  9
$LIMMIN
 10
0.0
 20
0.0
  9
$LIMMAX
 10
12.0
 20
9.0
  9
$ORTHOMODE
 70
     0
  9
$REGENMODE
 70
     1
  9
$FILLMODE
 70
     1
  9
$QTEXTMODE
 70
     0
  9
$MIRRTEXT
 70
     1
  9
$DRAGMODE
 70
     2
  9
$LTSCALE
 40
1.0
  9
$OSMODE
 70
    37
  9
$ATTMODE
 70
     1
  9
$TEXTSIZE
 40
0.2
  9
$TRACEWID
 40
0.05
  9
$TEXTSTYLE
  7
STANDARD
  9
$CLAYER
  8
44MM
  9
$CELTYPE
  6
BYLAYER
  9
$CECOLOR
 62
   256
  9
$DIMSCALE
 40
1.0
  9
$DIMASZ
 40
0.18
  9
$DIMEXO
 40
0.0625
  9
$DIMDLI
 40
0.38
  9
$DIMRND
 40
0.0
  9
$DIMDLE
 40
0.0
  9
$DIMEXE
 40
0.18
  9
$DIMTP
 40
0.0
  9
$DIMTM
 40
0.0
  9
$DIMTXT
 40
0.18
  9
$DIMCEN
 40
0.09
  9
$DIMTSZ
 40
0.0
  9
$DIMTOL
 70
     0
  9
$DIMLIM
 70
     0
  9
$DIMTIH
 70
     1
  9
$DIMTOH
 70
     1
  9
$DIMSE1
 70
     0
  9
$DIMSE2
 70
     0
  9
$DIMTAD
 70
     0
  9
$DIMZIN
 70
     0
  9
$DIMBLK
  1

  9
$DIMASO
 70
     1
  9
$DIMSHO
 70
     1
  9
$DIMPOST
  1

  9
$DIMAPOST
  1

  9
$DIMALT
 70
     0
  9
$DIMALTD
 70
     2
  9
$DIMALTF
 40
25.4
  9
$DIMLFAC
 40
1.0
  9
$DIMTOFL
 70
     0
  9
$DIMTVP
 40
0.0
  9
$DIMTIX
 70
     0
  9
$DIMSOXD
 70
     0
  9
$DIMSAH
 70
     0
  9
$DIMBLK1
  1

  9
$DIMBLK2
  1

  9
$DIMSTYLE
  2
STANDARD
  9
$DIMCLRD
 70
     0
  9
$DIMCLRE
 70
     0
  9
$DIMCLRT
 70
     0
  9
$DIMTFAC
 40
1.0
  9
$DIMGAP
 40
0.09
  9
$LUNITS
 70
     2
  9
$LUPREC
 70
     3
  9
$SKETCHINC
 40
0.1
  9
$FILLETRAD
 40
0.5
  9
$AUNITS
 70
     0
  9
$AUPREC
 70
     0
  9
$MENU
  1
.
  9
$ELEVATION
 40
0.0
  9
$PELEVATION
 40
0.0
  9
$THICKNESS
 40
0.0
  9
$LIMCHECK
 70
     0
  9
$CHAMFERA
 40
0.5
  9
$CHAMFERB
 40
0.5
  9
$SKPOLY
 70
     0
  9
$TDCREATE
 40
2458882.921792523
  9
$TDUPDATE
 40
2458882.921792535
  9
$TDINDWG
 40
0.0000000116
  9
$TDUSRTIMER
 40
0.0000000116
  9
$USRTIMER
 70
     1
  9
$ANGBASE
 50
0.0
  9
$ANGDIR
 70
     0
  9
$PDMODE
 70
     0
  9
$PDSIZE
 40
0.0
  9
$PLINEWID
 40
0.0
  9
$COORDS
 70
     1
  9
$SPLFRAME
 70
     0
  9
$SPLINETYPE
 70
     6
  9
$SPLINESEGS
 70
     8
  9
$ATTDIA
 70
     0
  9
$ATTREQ
 70
     1
  9
$HANDLING
 70
     1
  9
$HANDSEED
  5
2DF
  9
$SURFTAB1
 70
     6
  9
$SURFTAB2
 70
     6
  9
$SURFTYPE
 70
     6
  9
$SURFU
 70
     6
  9
$SURFV
 70
     6
  9
$UCSNAME
  2

  9
$UCSORG
 10
0.0
 20
0.0
 30
0.0
  9
$UCSXDIR
 10
1.0
 20
0.0
 30
0.0
  9
$UCSYDIR
 10
0.0
 20
1.0
 30
0.0
  9
$PUCSNAME
  2

  9
$PUCSORG
 10
0.0
 20
0.0
 30
0.0
  9
$PUCSXDIR
 10
1.0
 20
0.0
 30
0.0
  9
$PUCSYDIR
 10
0.0
 20
1.0
 30
0.0
  9
$USERI1
 70
     0
  9
$USERI2
 70
     0
  9
$USERI3
 70
     0
  9
$USERI4
 70
     0
  9
$USERI5
 70
     0
  9
$USERR1
 40
0.0
  9
$USERR2
 40
0.0
  9
$USERR3
 40
0.0
  9
$USERR4
 40
0.0
  9
$USERR5
 40
0.0
  9
$WORLDVIEW
 70
     1
  9
$SHADEDGE
 70
     3
  9
$SHADEDIF
 70
    70
  9
$TILEMODE
 70
     1
  9
$MAXACTVP
 70
    64
  9
$PLIMCHECK
 70
     0
  9
$PEXTMIN
 10
1.000000000000000E+20
 20
1.000000000000000E+20
 30
1.000000000000000E+20
  9
$PEXTMAX
 10
-1.000000000000000E+20
 20
-1.000000000000000E+20
 30
-1.000000000000000E+20
  9
$PLIMMIN
 10
0.0
 20
0.0
  9
$PLIMMAX
 10
12.0
 20
9.0
  9
$UNITMODE
 70
     0
  9
$VISRETAIN
 70
     1
  9
$PLINEGEN
 70
     0
  9
$PSLTSCALE
 70
     1
  0
ENDSEC
  0
SECTION
  2
TABLES
  0
TABLE
  2
VPORT
 70
     1
  0
VPORT
  2
*ACTIVE
 70
     0
 10
0.0
 20
0.0
 11
1.0
 21
1.0
 12
22.1082780957222
 22
-0.0000000000000037
 13
0.0
 23
0.0
 14
0.5
 24
0.5
 15
0.5
 25
0.5
 16
0.0
 26
0.0
 36
1.0
 17
0.0
 27
0.0
 37
0.0
 40
0.5102772576222143
 41
93.00402831202878
 42
50.0
 43
0.0
 44
0.0
 50
0.0
 51
0.0
 71
     0
 72
   100
 73
     1
 74
     3
 75
     0
 76
     0
 77
     0
 78
     0
  0
ENDTAB
  0
TABLE
  2
LTYPE
 70
     1
  0
LTYPE
  2
CONTINUOUS
 70
     0
  3
Solid line
 72
    65
 73
     0
 40
0.0
  0
ENDTAB
  0
TABLE
  2
LAYER
 70
     2
  0
LAYER
  2
0
 70
     0
 62
     7
  6
CONTINUOUS
  0
LAYER
  2
44MM
 70
     0
 62
   253
  6
CONTINUOUS
  0
ENDTAB
  0
TABLE
  2
STYLE
 70
     1
  0
STYLE
  2
STANDARD
 70
     0
 40
0.0
 41
1.0
 50
0.0
 71
     0
 42
0.2
  3
txt
  4

  0
ENDTAB
  0
TABLE
  2
VIEW
 70
     0
  0
ENDTAB
  0
TABLE
  2
UCS
 70
     0
  0
ENDTAB
  0
TABLE
  2
APPID
 70
     1
  0
APPID
  2
ACAD
 70
     0
  0
ENDTAB
  0
TABLE
  2
DIMSTYLE
 70
     1
  0
DIMSTYLE
  2
STANDARD
 70
     0
  3

  4

  5

  6

  7

 40
1.0
 41
0.18
 42
0.0625
 43
0.38
 44
0.18
 45
0.0
 46
0.0
 47
0.0
 48
0.0
140
0.18
141
0.09
142
0.0
143
25.4
144
1.0
145
0.0
146
1.0
147
0.09
 71
     0
 72
     0
 73
     1
 74
     1
 75
     0
 76
     0
 77
     0
 78
     0
170
     0
171
     2
172
     0
173
     0
174
     0
175
     0
176
     0
177
     0
178
     0
  0
ENDTAB
  0
ENDSEC
  0
SECTION
  2
BLOCKS
  0
BLOCK
  8
0
  2
$MODEL_SPACE
 70
     0
 10
0.0
 20
0.0
 30
0.0
  3
$MODEL_SPACE
  1

  0
ENDBLK
  5
21
  8
0
  0
BLOCK
 67
     1
  8
0
  2
$PAPER_SPACE
 70
     0
 10
0.0
 20
0.0
 30
0.0
  3
$PAPER_SPACE
  1

  0
ENDBLK
  5
1D
 67
     1
  8
0
  0
ENDSEC
  0
SECTION
  2
ENTITIES
  0
POLYLINE
  5
3C
  8
44MM
 66
     1
 10
0.0
 20
0.0
 30
0.0
  0
VERTEX
  5
3D
  8
44MM
 10
44.24999999999999
 20
-0.0000000000000027
 30
0.0
  0
VERTEX
  5
3E
  8
44MM
 10
44.24999005169726
 20
-0.0000000000000027
 30
0.0
  0
VERTEX
  5
3F
  8
44MM
 10
44.00080724362333
 20
-0.0000000000000026
 30
0.0
  0
VERTEX
  5
40
  8
44MM
 10
44.00081061194631
 20
-0.0000000000000026
 30
0.0
  0
VERTEX
  5
41
  8
44MM
 10
45.37166411507701
 20
-0.0000000000000027
 30
0.0
  0
VERTEX
  5
42
  8
44MM
 10
45.37192540693829
 20
-0.0000000000000027
 30
0.0
  0
VERTEX
  5
43
  8
44MM
 10
-1.155369215493891
 20
0.0000000000000002
 30
0.0
  0
VERTEX
  5
44
  8
44MM
 10
-1.155278818664134
 20
0.0000000000000002
 30
0.0
  0
VERTEX
  5
45
  8
44MM
 10
-0.0484208948442569
 20
0.0000000000000001
 30
0.0
  0
VERTEX
  5
46
  8
44MM
 10
-0.048424117092006
 20
0.0000000000000001
 30
0.0
  0
VERTEX
  5
47
  8
44MM
 10
-0.2500095168712597
 20
0.0000000000000001
 30
0.0
  0
VERTEX
  5
48
  8
44MM
 10
-0.2500000000000006
 20
0.0000000000000001
 30
0.0
  0
SEQEND
  5
49
  8
44MM
  0
CIRCLE
  5
4A
  8
44MM
 10
-0.0000000000000006
 20
-0.0001358736758194
 30
0.0
 40
0.2500000369233089
  0
CIRCLE
  5
4B
  8
44MM
 10
44.00000000000001
 20
0.0001358736758193
 30
0.0
 40
0.2500000369233017
  0
POLYLINE
  5
4C
  8
44MM
 66
     1
 10
0.0
 20
0.0
 30
0.0
  0
VERTEX
  5
4D
  8
44MM
 10
44.20228416034973
 20
0.1469051342588308
 30
0.0
  0
VERTEX
  5
4E
  8
44MM
 10
44.2022563794602
 20
0.1469051342588308
 30
0.0
  0
VERTEX
  5
4F
  8
44MM
 10
43.95238515324468
 20
0.1469051342588308
 30
0.0
  0
VERTEX
  5
50
  8
44MM
 10
43.95239455937264
 20
0.1469051342588308
 30
0.0
  0
VERTEX
  5
51
  8
44MM
 10
45.32959263577775
 20
0.1469051342588306
 30
0.0
  0
VERTEX
  5
52
  8
44MM
 10
45.32922877612017
 20
0.1469051342588306
 30
0.0
  0
VERTEX
  5
53
  8
44MM
 10
-1.113036444333358
 20
0.1469051342588335
 30
0.0
  0
VERTEX
  5
54
  8
44MM
 10
-1.112822686585985
 20
0.1469051342588335
 30
0.0
  0
VERTEX
  5
55
  8
44MM
 10
-0.0000048422705828
 20
0.1469051342588333
 30
0.0
  0
VERTEX
  5
56
  8
44MM
 10
-0.0000020267133522
 20
0.1469051342588333
 30
0.0
  0
VERTEX
  5
57
  8
44MM
 10
-0.2022758446341866
 20
0.1469051342588333
 30
0.0
  0
VERTEX
  5
58
  8
44MM
 10
-0.2022841603497278
 20
0.1469051342588333
 30
0.0
  0
SEQEND
  5
59
  8
44MM
  0
POLYLINE
  5
5A
  8
44MM
 66
     1
 10
0.0
 20
0.0
 30
0.0
  0
VERTEX
  5
5B
  8
44MM
 10
44.07832364244975
 20
0.2374139992363608
 30
0.0
  0
VERTEX
  5
5C
  8
44MM
 10
44.07824953445559
 20
0.2374139992363608
 30
0.0
  0
VERTEX
  5
5D
  8
44MM
 10
43.82658987341452
 20
0.2374139992363608
 30
0.0
  0
VERTEX
  5
5E
  8
44MM
 10
43.82661496509758
 20
0.2374139992363608
 30
0.0
  0
VERTEX
  5
5F
  8
44MM
 10
45.21961673939488
 20
0.2374139992363606
 30
0.0
  0
VERTEX
  5
60
  8
44MM
 10
45.21957811438582
 20
0.2374139992363606
 30
0.0
  0
VERTEX
  5
61
  8
44MM
 10
-1.002990502778674
 20
0.2374139992363636
 30
0.0
  0
VERTEX
  5
62
  8
44MM
 10
-1.003060547950471
 20
0.2374139992363636
 30
0.0
  0
VERTEX
  5
63
  8
44MM
 10
0.1257747520044799
 20
0.2374139992363634
 30
0.0
  0
VERTEX
  5
64
  8
44MM
 10
0.1257932531168162
 20
0.2374139992363634
 30
0.0
  0
VERTEX
  5
65
  8
44MM
 10
-0.0782689996295927
 20
0.2374139992363634
 30
0.0
  0
VERTEX
  5
66
  8
44MM
 10
-0.0783236424497489
 20
0.2374139992363634
 30
0.0
  0
SEQEND
  5
67
  8
44MM
  0
POLYLINE
  5
68
  8
44MM
 66
     1
 10
0.0
 20
0.0
 30
0.0
  0
VERTEX
  5
69
  8
44MM
 10
43.92381060858582
 20
0.238107489667873
 30
0.0
  0
VERTEX
  5
6A
  8
44MM
 10
43.66978986433416
 20
0.238107489667873
 30
0.0
  0
VERTEX
  5
6B
  8
44MM
 10
43.66983450758693
 20
0.238107489667873
 30
0.0
  0
VERTEX
  5
6C
  8
44MM
 10
45.08253511300368
 20
0.2381074896678729
 30
0.0
  0
VERTEX
  5
6D
  8
44MM
 10
45.08290188314071
 20
0.2381074896678729
 30
0.0
  0
VERTEX
  5
6E
  8
44MM
 10
-0.8660394007906889
 20
0.2381074896678759
 30
0.0
  0
VERTEX
  5
6F
  8
44MM
 10
-0.866314271533555
 20
0.2381074896678759
 30
0.0
  0
VERTEX
  5
70
  8
44MM
 10
0.2825552095151099
 20
0.2381074896678756
 30
0.0
  0
VERTEX
  5
71
  8
44MM
 10
0.2825932621971581
 20
0.2381074896678756
 30
0.0
  0
VERTEX
  5
72
  8
44MM
 10
0.076189391414175
 20
0.2381074896678757
 30
0.0
  0
SEQEND
  5
73
  8
44MM
  0
POLYLINE
  5
74
  8
44MM
 66
     1
 10
0.0
 20
0.0
 30
0.0
  0
VERTEX
  5
75
  8
44MM
 10
43.79791769100908
 20
0.1471826769456809
 30
0.0
  0
VERTEX
  5
76
  8
44MM
 10
43.5420335830319
 20
0.1471826769456809
 30
0.0
  0
VERTEX
  5
77
  8
44MM
 10
43.54209415635927
 20
0.1471826769456809
 30
0.0
  0
VERTEX
  5
78
  8
44MM
 10
44.97154189567196
 20
0.1471826769456807
 30
0.0
  0
VERTEX
  5
79
  8
44MM
 10
44.97149138777925
 20
0.1471826769456807
 30
0.0
  0
VERTEX
  5
7A
  8
44MM
 10
-0.7550145897217009
 20
0.1471826769456837
 30
0.0
  0
VERTEX
  5
7B
  8
44MM
 10
-0.7549542840648239
 20
0.1471826769456837
 30
0.0
  0
VERTEX
  5
7C
  8
44MM
 10
0.4102955607427788
 20
0.1471826769456835
 30
0.0
  0
VERTEX
  5
7D
  8
44MM
 10
0.4103495434994148
 20
0.1471826769456835
 30
0.0
  0
VERTEX
  5
7E
  8
44MM
 10
0.2020823089909215
 20
0.1471826769456835
 30
0.0
  0
SEQEND
  5
7F
  8
44MM
  0
POLYLINE
  5
80
  8
44MM
 66
     1
 10
0.0
 20
0.0
 30
0.0
  0
VERTEX
  5
81
  8
44MM
 10
43.75
 20
-0.0000000000000026
 30
0.0
  0
VERTEX
  5
82
  8
44MM
 10
43.49340665365617
 20
-0.0000000000000026
 30
0.0
  0
VERTEX
  5
83
  8
44MM
 10
43.49347329033012
 20
-0.0000000000000026
 30
0.0
  0
VERTEX
  5
84
  8
44MM
 10
44.92915576646777
 20
-0.0000000000000028
 30
0.0
  0
VERTEX
  5
85
  8
44MM
 10
44.9292328342915
 20
-0.0000000000000028
 30
0.0
  0
VERTEX
  5
86
  8
44MM
 10
-0.7127560362339576
 20
0.0000000000000001
 30
0.0
  0
VERTEX
  5
87
  8
44MM
 10
-0.712568154860626
 20
0.0000000000000001
 30
0.0
  0
VERTEX
  5
88
  8
44MM
 10
0.4589164267719344
 20
-0.0000000000000001
 30
0.0
  0
VERTEX
  5
89
  8
44MM
 10
0.4589764728751553
 20
-0.0000000000000001
 30
0.0
  0
VERTEX
  5
8A
  8
44MM
 10
0.2499999999999993
 20
-0.0000000000000001
 30
0.0
  0
SEQEND
  5
8B
  8
44MM
  0
POLYLINE
  5
8C
  8
44MM
 66
     1
 10
0.0
 20
0.0
 30
0.0
  0
VERTEX
  5
8D
  8
44MM
 10
43.79771583965028
 20
-0.1469051342588361
 30
0.0
  0
VERTEX
  5
8E
  8
44MM
 10
43.54182874403483
 20
-0.146905134258836
 30
0.0
  0
VERTEX
  5
8F
  8
44MM
 10
43.54188934290379
 20
-0.146905134258836
 30
0.0
  0
VERTEX
  5
90
  8
44MM
 10
44.97136334579625
 20
-0.1469051342588364
 30
0.0
  0
VERTEX
  5
91
  8
44MM
 10
44.97131337531114
 20
-0.1469051342588364
 30
0.0
  0
VERTEX
  5
92
  8
44MM
 10
-0.7548365772535914
 20
-0.1469051342588334
 30
0.0
  0
VERTEX
  5
93
  8
44MM
 10
-0.7547757341891062
 20
-0.1469051342588334
 30
0.0
  0
VERTEX
  5
94
  8
44MM
 10
0.4105003741982603
 20
-0.1469051342588336
 30
0.0
  0
VERTEX
  5
95
  8
44MM
 10
0.4105543824965015
 20
-0.1469051342588336
 30
0.0
  0
VERTEX
  5
96
  8
44MM
 10
0.2022841603497264
 20
-0.1469051342588336
 30
0.0
  0
SEQEND
  5
97
  8
44MM
  0
POLYLINE
  5
98
  8
44MM
 66
     1
 10
0.0
 20
0.0
 30
0.0
  0
VERTEX
  5
99
  8
44MM
 10
43.92167635755025
 20
-0.2374139992363662
 30
0.0
  0
VERTEX
  5
9A
  8
44MM
 10
43.667624023865
 20
-0.2374139992363661
 30
0.0
  0
VERTEX
  5
9B
  8
44MM
 10
43.66766893717885
 20
-0.2374139992363661
 30
0.0
  0
VERTEX
  5
9C
  8
44MM
 10
45.08064163776882
 20
-0.2374139992363663
 30
0.0
  0
VERTEX
  5
9D
  8
44MM
 10
45.08101400753061
 20
-0.2374139992363663
 30
0.0
  0
VERTEX
  5
9E
  8
44MM
 10
-0.864157207395228
 20
-0.2374139992363634
 30
0.0
  0
VERTEX
  5
9F
  8
44MM
 10
-0.8644263959234628
 20
-0.2374139992363634
 30
0.0
  0
VERTEX
  5
A0
  8
44MM
 10
0.2847207799231978
 20
-0.2374139992363635
 30
0.0
  0
VERTEX
  5
A1
  8
44MM
 10
0.2847591026663332
 20
-0.2374139992363635
 30
0.0
  0
VERTEX
  5
A2
  8
44MM
 10
0.0783236424497476
 20
-0.2374139992363635
 30
0.0
  0
SEQEND
  5
A3
  8
44MM
  0
POLYLINE
  5
A4
  8
44MM
 66
     1
 10
0.0
 20
0.0
 30
0.0
  0
VERTEX
  5
A5
  8
44MM
 10
44.07618939141418
 20
-0.2381074896678784
 30
0.0
  0
VERTEX
  5
A6
  8
44MM
 10
44.07611448579775
 20
-0.2381074896678784
 30
0.0
  0
VERTEX
  5
A7
  8
44MM
 10
43.82442403294533
 20
-0.2381074896678784
 30
0.0
  0
VERTEX
  5
A8
  8
44MM
 10
43.82444939468948
 20
-0.2381074896678784
 30
0.0
  0
VERTEX
  5
A9
  8
44MM
 10
45.21772326416001
 20
-0.2381074896678786
 30
0.0
  0
VERTEX
  5
AA
  8
44MM
 10
45.21769023877573
 20
-0.2381074896678786
 30
0.0
  0
VERTEX
  5
AB
  8
44MM
 10
-1.001102627168582
 20
-0.2381074896678756
 30
0.0
  0
VERTEX
  5
AC
  8
44MM
 10
-1.001167072715617
 20
-0.2381074896678756
 30
0.0
  0
VERTEX
  5
AD
  8
44MM
 10
0.1279403224125677
 20
-0.2381074896678757
 30
0.0
  0
VERTEX
  5
AE
  8
44MM
 10
0.1279590935859912
 20
-0.2381074896678757
 30
0.0
  0
VERTEX
  5
AF
  8
44MM
 10
-0.0761339509717395
 20
-0.2381074896678757
 30
0.0
  0
VERTEX
  5
B0
  8
44MM
 10
-0.0761893914141763
 20
-0.2381074896678757
 30
0.0
  0
SEQEND
  5
B1
  8
44MM
  0
POLYLINE
  5
B2
  8
44MM
 66
     1
 10
0.0
 20
0.0
 30
0.0
  0
VERTEX
  5
B3
  8
44MM
 10
44.20208230899092
 20
-0.1471826769456863
 30
0.0
  0
VERTEX
  5
B4
  8
44MM
 10
44.20205445266456
 20
-0.1471826769456863
 30
0.0
  0
VERTEX
  5
B5
  8
44MM
 10
43.9521803142476
 20
-0.1471826769456862
 30
0.0
  0
VERTEX
  5
B6
  8
44MM
 10
43.95218974591715
 20
-0.1471826769456862
 30
0.0
  0
VERTEX
  5
B7
  8
44MM
 10
45.32941355630554
 20
-0.1471826769456864
 30
0.0
  0
VERTEX
  5
B8
  8
44MM
 10
45.32905022624445
 20
-0.1471826769456864
 30
0.0
  0
VERTEX
  5
B9
  8
44MM
 10
-1.112857364861146
 20
-0.1471826769456834
 30
0.0
  0
VERTEX
  5
BA
  8
44MM
 10
-1.112643085262559
 20
-0.1471826769456834
 30
0.0
  0
VERTEX
  5
BB
  8
44MM
 10
0.0001999711848986
 20
-0.1471826769456835
 30
0.0
  0
VERTEX
  5
BC
  8
44MM
 10
0.0002028122837344
 20
-0.1471826769456835
 30
0.0
  0
VERTEX
  5
BD
  8
44MM
 10
-0.2020739178385476
 20
-0.1471826769456835
 30
0.0
  0
VERTEX
  5
BE
  8
44MM
 10
-0.2020823089909229
 20
-0.1471826769456835
 30
0.0
  0
SEQEND
  5
BF
  8
44MM
  0
CIRCLE
  5
C0
  8
44MM
 10
43.99999999999999
 20
-0.0001358736758193
 30
0.0
 40
0.2500000369233089
  0
POLYLINE
  5
C1
  8
44MM
 66
     1
 10
0.0
 20
0.0
 30
0.0
  0
VERTEX
  5
C2
  8
44MM
 10
44.17677669529664
 20
-0.0000000000000026
 30
0.0
  0
VERTEX
  5
C3
  8
44MM
 10
44.17662806639186
 20
0.0098155370170684
 30
0.0
  0
VERTEX
  5
C4
  8
44MM
 10
44.17620040593813
 20
0.0196157331481939
 30
0.0
  0
VERTEX
  5
C5
  8
44MM
 10
44.17549750260431
 20
0.0293857624081939
 30
0.0
  0
VERTEX
  5
C6
  8
44MM
 10
44.17452314505928
 20
0.0391107988118883
 30
0.0
  0
VERTEX
  5
C7
  8
44MM
 10
44.17328112197188
 20
0.048776016374097
 30
0.0
  0
VERTEX
  5
C8
  8
44MM
 10
44.17177522201101
 20
0.0583665891096399
 30
0.0
  0
VERTEX
  5
C9
  8
44MM
 10
44.17000923384549
 20
0.0678676910333369
 30
0.0
  0
VERTEX
  5
CA
  8
44MM
 10
44.16798694614421
 20
0.0772644961600079
 30
0.0
  0
VERTEX
  5
CB
  8
44MM
 10
44.16571214757603
 20
0.0865421785044729
 30
0.0
  0
VERTEX
  5
CC
  8
44MM
 10
44.1631886268098
 20
0.0956859120815517
 30
0.0
  0
VERTEX
  5
CD
  8
44MM
 10
44.1604201725144
 20
0.1046808709060643
 30
0.0
  0
VERTEX
  5
CE
  8
44MM
 10
44.15741057335868
 20
0.1135122289928306
 30
0.0
  0
VERTEX
  5
CF
  8
44MM
 10
44.15416361801151
 20
0.1221651603566705
 30
0.0
  0
VERTEX
  5
D0
  8
44MM
 10
44.15068309514175
 20
0.1306248390124038
 30
0.0
  0
VERTEX
  5
D1
  8
44MM
 10
44.14697279341827
 20
0.1388764389748506
 30
0.0
  0
VERTEX
  5
D2
  8
44MM
 10
44.14303650150993
 20
0.1469051342588307
 30
0.0
  0
VERTEX
  5
D3
  8
44MM
 10
44.13887873329531
 20
0.154697188425212
 30
0.0
  0
VERTEX
  5
D4
  8
44MM
 10
44.13671906734678
 20
0.1585014762880061
 30
0.0
  0
VERTEX
  5
D5
  8
44MM
 10
44.13450690349198
 20
0.1622432232190539
 30
0.0
  0
VERTEX
  5
D6
  8
44MM
 10
44.13224325922182
 20
0.1659213931297437
 30
0.0
  0
VERTEX
  5
D7
  8
44MM
 10
44.1299291520272
 20
0.169534949931464
 30
0.0
  0
VERTEX
  5
D8
  8
44MM
 10
44.12756559939903
 20
0.173082857535603
 30
0.0
  0
VERTEX
  5
D9
  8
44MM
 10
44.12515361882824
 20
0.1765640798535494
 30
0.0
  0
VERTEX
  5
DA
  8
44MM
 10
44.12269422780571
 20
0.1799775807966915
 30
0.0
  0
VERTEX
  5
DB
  8
44MM
 10
44.12018844382237
 20
0.1833223242764178
 30
0.0
  0
VERTEX
  5
DC
  8
44MM
 10
44.11763728436913
 20
0.1865972742041166
 30
0.0
  0
VERTEX
  5
DD
  8
44MM
 10
44.1150417669369
 20
0.1898013944911764
 30
0.0
  0
VERTEX
  5
DE
  8
44MM
 10
44.11240290901657
 20
0.1929336490489857
 30
0.0
  0
VERTEX
  5
DF
  8
44MM
 10
44.10972172809907
 20
0.1959930017889329
 30
0.0
  0
VERTEX
  5
E0
  8
44MM
 10
44.1069992416753
 20
0.1989784166224063
 30
0.0
  0
VERTEX
  5
E1
  8
44MM
 10
44.10423646723618
 20
0.2018888574607944
 30
0.0
  0
VERTEX
  5
E2
  8
44MM
 10
44.1014344222726
 20
0.2047232882154856
 30
0.0
  0
VERTEX
  5
E3
  8
44MM
 10
44.09859412427548
 20
0.2074806727978684
 30
0.0
  0
VERTEX
  5
E4
  8
44MM
 10
44.09571659073573
 20
0.2101599751193313
 30
0.0
  0
VERTEX
  5
E5
  8
44MM
 10
44.09280283914427
 20
0.2127601590912625
 30
0.0
  0
VERTEX
  5
E6
  8
44MM
 10
44.08985388699199
 20
0.2152801886250506
 30
0.0
  0
VERTEX
  5
E7
  8
44MM
 10
44.08687075176981
 20
0.2177190276320839
 30
0.0
  0
VERTEX
  5
E8
  8
44MM
 10
44.08385445096864
 20
0.2200756400237509
 30
0.0
  0
VERTEX
  5
E9
  8
44MM
 10
44.08080600207938
 20
0.22234898971144
 30
0.0
  0
VERTEX
  5
EA
  8
44MM
 10
44.07772642259295
 20
0.2245380406065398
 30
0.0
  0
VERTEX
  5
EB
  8
44MM
 10
44.07461673000025
 20
0.2266417566204384
 30
0.0
  0
VERTEX
  5
EC
  8
44MM
 10
44.0714779417922
 20
0.2286591016645245
 30
0.0
  0
VERTEX
  5
ED
  8
44MM
 10
44.0683110754597
 20
0.2305890396501864
 30
0.0
  0
VERTEX
  5
EE
  8
44MM
 10
44.06511714849367
 20
0.2324305344888126
 30
0.0
  0
VERTEX
  5
EF
  8
44MM
 10
44.06189717838501
 20
0.2341825500917914
 30
0.0
  0
VERTEX
  5
F0
  8
44MM
 10
44.05865218262463
 20
0.2358440503705113
 30
0.0
  0
VERTEX
  5
F1
  8
44MM
 10
44.05538317870345
 20
0.2374139992363608
 30
0.0
  0
VERTEX
  5
F2
  8
44MM
 10
44.05209124327237
 20
0.23889151301244
 30
0.0
  0
VERTEX
  5
F3
  8
44MM
 10
44.04877768962227
 20
0.2402763176686963
 30
0.0
  0
VERTEX
  5
F4
  8
44MM
 10
44.04544389020405
 20
0.2415682915867888
 30
0.0
  0
VERTEX
  5
F5
  8
44MM
 10
44.04209121746858
 20
0.2427673131483765
 30
0.0
  0
VERTEX
  5
F6
  8
44MM
 10
44.03872104386677
 20
0.2438732607351186
 30
0.0
  0
VERTEX
  5
F7
  8
44MM
 10
44.0353347418495
 20
0.2448860127286742
 30
0.0
  0
VERTEX
  5
F8
  8
44MM
 10
44.03193368386764
 20
0.2458054475107024
 30
0.0
  0
VERTEX
  5
F9
  8
44MM
 10
44.02851924237208
 20
0.2466314434628622
 30
0.0
  0
VERTEX
  5
FA
  8
44MM
 10
44.02509278981374
 20
0.2473638789668128
 30
0.0
  0
VERTEX
  5
FB
  8
44MM
 10
44.02165569864346
 20
0.2480026324042134
 30
0.0
  0
VERTEX
  5
FC
  8
44MM
 10
44.01820934131216
 20
0.2485475821567229
 30
0.0
  0
VERTEX
  5
FD
  8
44MM
 10
44.0147550902707
 20
0.2489986066060005
 30
0.0
  0
VERTEX
  5
FE
  8
44MM
 10
44.01129431797
 20
0.2493555841337053
 30
0.0
  0
VERTEX
  5
FF
  8
44MM
 10
44.00782839686092
 20
0.2496183931214964
 30
0.0
  0
VERTEX
  5
100
  8
44MM
 10
44.00435869939434
 20
0.249786911951033
 30
0.0
  0
VERTEX
  5
101
  8
44MM
 10
44.00088659802118
 20
0.249861019003974
 30
0.0
  0
VERTEX
  5
102
  8
44MM
 10
43.99741346519231
 20
0.2498405926619787
 30
0.0
  0
VERTEX
  5
103
  8
44MM
 10
43.9939406733586
 20
0.2497255113067061
 30
0.0
  0
VERTEX
  5
104
  8
44MM
 10
43.99046959497096
 20
0.2495156533198153
 30
0.0
  0
VERTEX
  5
105
  8
44MM
 10
43.98700160248026
 20
0.2492108970829655
 30
0.0
  0
VERTEX
  5
106
  8
44MM
 10
43.9835380683374
 20
0.2488111209778156
 30
0.0
  0
VERTEX
  5
107
  8
44MM
 10
43.98008036499326
 20
0.2483162033860249
 30
0.0
  0
VERTEX
  5
108
  8
44MM
 10
43.97662986489873
 20
0.2477260226892525
 30
0.0
  0
VERTEX
  5
109
  8
44MM
 10
43.97318794050469
 20
0.2470404572691573
 30
0.0
  0
VERTEX
  5
10A
  8
44MM
 10
43.96975596426203
 20
0.2462593855073986
 30
0.0
  0
VERTEX
  5
10B
  8
44MM
 10
43.96633530862164
 20
0.2453826857856355
 30
0.0
  0
VERTEX
  5
10C
  8
44MM
 10
43.96292734603441
 20
0.2444102364855271
 30
0.0
  0
VERTEX
  5
10D
  8
44MM
 10
43.95953344895121
 20
0.2433419159887323
 30
0.0
  0
VERTEX
  5
10E
  8
44MM
 10
43.95615498982293
 20
0.2421776026769105
 30
0.0
  0
VERTEX
  5
10F
  8
44MM
 10
43.95279334110049
 20
0.2409171749317205
 30
0.0
  0
VERTEX
  5
110
  8
44MM
 10
43.94944987523473
 20
0.2395605111348217
 30
0.0
  0
VERTEX
  5
111
  8
44MM
 10
43.94612596467657
 20
0.238107489667873
 30
0.0
  0
VERTEX
  5
112
  8
44MM
 10
43.94282294548324
 20
0.2365582079215717
 30
0.0
  0
VERTEX
  5
113
  8
44MM
 10
43.93954200813752
 20
0.2349136393227669
 30
0.0
  0
VERTEX
  5
114
  8
44MM
 10
43.93628430672852
 20
0.2331749763073461
 30
0.0
  0
VERTEX
  5
115
  8
44MM
 10
43.93305099534538
 20
0.2313434113111965
 30
0.0
  0
VERTEX
  5
116
  8
44MM
 10
43.92984322807719
 20
0.2294201367702055
 30
0.0
  0
VERTEX
  5
117
  8
44MM
 10
43.92666215901311
 20
0.2274063451202604
 30
0.0
  0
VERTEX
  5
118
  8
44MM
 10
43.92350894224224
 20
0.2253032287972485
 30
0.0
  0
VERTEX
  5
119
  8
44MM
 10
43.92038473185372
 20
0.2231119802370571
 30
0.0
  0
VERTEX
  5
11A
  8
44MM
 10
43.91729068193666
 20
0.2208337918755737
 30
0.0
  0
VERTEX
  5
11B
  8
44MM
 10
43.91422794658018
 20
0.2184698561486855
 30
0.0
  0
VERTEX
  5
11C
  8
44MM
 10
43.91119767987343
 20
0.2160213654922798
 30
0.0
  0
VERTEX
  5
11D
  8
44MM
 10
43.90820103590552
 20
0.2134895123422439
 30
0.0
  0
VERTEX
  5
11E
  8
44MM
 10
43.90523916876556
 20
0.2108754891344653
 30
0.0
  0
VERTEX
  5
11F
  8
44MM
 10
43.9023132325427
 20
0.2081804883048311
 30
0.0
  0
VERTEX
  5
120
  8
44MM
 10
43.89942438132606
 20
0.2054057022892288
 30
0.0
  0
VERTEX
  5
121
  8
44MM
 10
43.89657376920474
 20
0.2025523235235457
 30
0.0
  0
VERTEX
  5
122
  8
44MM
 10
43.89376255026789
 20
0.199621544443669
 30
0.0
  0
VERTEX
  5
123
  8
44MM
 10
43.89099187860462
 20
0.1966145574854862
 30
0.0
  0
VERTEX
  5
124
  8
44MM
 10
43.88826290830406
 20
0.1935325550848846
 30
0.0
  0
VERTEX
  5
125
  8
44MM
 10
43.88557679345533
 20
0.1903767296777514
 30
0.0
  0
VERTEX
  5
126
  8
44MM
 10
43.88293468814755
 20
0.187148273699974
 30
0.0
  0
VERTEX
  5
127
  8
44MM
 10
43.88033774646986
 20
0.1838483795874397
 30
0.0
  0
VERTEX
  5
128
  8
44MM
 10
43.87778712251136
 20
0.1804782397760359
 30
0.0
  0
VERTEX
  5
129
  8
44MM
 10
43.87528397036121
 20
0.1770390467016499
 30
0.0
  0
VERTEX
  5
12A
  8
44MM
 10
43.8728294441085
 20
0.173531992800169
 30
0.0
  0
VERTEX
  5
12B
  8
44MM
 10
43.87042469784238
 20
0.1699582705074805
 30
0.0
  0
VERTEX
  5
12C
  8
44MM
 10
43.86807088565195
 20
0.1663190722594717
 30
0.0
  0
VERTEX
  5
12D
  8
44MM
 10
43.86576916162635
 20
0.1626155904920301
 30
0.0
  0
VERTEX
  5
12E
  8
44MM
 10
43.86352067985469
 20
0.1588490176410428
 30
0.0
  0
VERTEX
  5
12F
  8
44MM
 10
43.86132659442612
 20
0.1550205461423973
 30
0.0
  0
VERTEX
  5
130
  8
44MM
 10
43.85918805942974
 20
0.1511313684319809
 30
0.0
  0
VERTEX
  5
131
  8
44MM
 10
43.85710622895468
 20
0.1471826769456809
 30
0.0
  0
VERTEX
  5
132
  8
44MM
 10
43.85311629440803
 20
0.1391123678938456
 30
0.0
  0
VERTEX
  5
133
  8
44MM
 10
43.84936100591416
 20
0.1308233859983222
 30
0.0
  0
VERTEX
  5
134
  8
44MM
 10
43.84584357508407
 20
0.1223303437754074
 30
0.0
  0
VERTEX
  5
135
  8
44MM
 10
43.84256721352879
 20
0.1136478537413982
 30
0.0
  0
VERTEX
  5
136
  8
44MM
 10
43.83953513285929
 20
0.1047905284125915
 30
0.0
  0
VERTEX
  5
137
  8
44MM
 10
43.83675054468657
 20
0.0957729803052842
 30
0.0
  0
VERTEX
  5
138
  8
44MM
 10
43.83421666062165
 20
0.0866098219357733
 30
0.0
  0
VERTEX
  5
139
  8
44MM
 10
43.83193669227553
 20
0.0773156658203555
 30
0.0
  0
VERTEX
  5
13A
  8
44MM
 10
43.82991385125921
 20
0.0679051244753278
 30
0.0
  0
VERTEX
  5
13B
  8
44MM
 10
43.82815134918368
 20
0.0583928104169871
 30
0.0
  0
VERTEX
  5
13C
  8
44MM
 10
43.82665239765996
 20
0.0487933361616304
 30
0.0
  0
VERTEX
  5
13D
  8
44MM
 10
43.82542020829903
 20
0.0391213142255545
 30
0.0
  0
VERTEX
  5
13E
  8
44MM
 10
43.8244579927119
 20
0.0293913571250563
 30
0.0
  0
VERTEX
  5
13F
  8
44MM
 10
43.82376896250959
 20
0.0196180773764328
 30
0.0
  0
VERTEX
  5
140
  8
44MM
 10
43.82335632930307
 20
0.0098160874959808
 30
0.0
  0
VERTEX
  5
141
  8
44MM
 10
43.82322330470336
 20
-0.0000000000000027
 30
0.0
  0
VERTEX
  5
142
  8
44MM
 10
43.82337193360814
 20
-0.0098155370170737
 30
0.0
  0
VERTEX
  5
143
  8
44MM
 10
43.82379959406188
 20
-0.0196157331481993
 30
0.0
  0
VERTEX
  5
144
  8
44MM
 10
43.8245024973957
 20
-0.0293857624081993
 30
0.0
  0
VERTEX
  5
145
  8
44MM
 10
43.82547685494073
 20
-0.0391107988118937
 30
0.0
  0
VERTEX
  5
146
  8
44MM
 10
43.82671887802812
 20
-0.0487760163741024
 30
0.0
  0
VERTEX
  5
147
  8
44MM
 10
43.82822477798901
 20
-0.0583665891096453
 30
0.0
  0
VERTEX
  5
148
  8
44MM
 10
43.82999076615452
 20
-0.0678676910333423
 30
0.0
  0
VERTEX
  5
149
  8
44MM
 10
43.8320130538558
 20
-0.0772644961600133
 30
0.0
  0
VERTEX
  5
14A
  8
44MM
 10
43.83428785242398
 20
-0.0865421785044783
 30
0.0
  0
VERTEX
  5
14B
  8
44MM
 10
43.83681137319022
 20
-0.0956859120815572
 30
0.0
  0
VERTEX
  5
14C
  8
44MM
 10
43.83957982748561
 20
-0.1046808709060698
 30
0.0
  0
VERTEX
  5
14D
  8
44MM
 10
43.84258942664133
 20
-0.1135122289928361
 30
0.0
  0
VERTEX
  5
14E
  8
44MM
 10
43.84583638198851
 20
-0.1221651603566759
 30
0.0
  0
VERTEX
  5
14F
  8
44MM
 10
43.84931690485826
 20
-0.1306248390124093
 30
0.0
  0
VERTEX
  5
150
  8
44MM
 10
43.85302720658174
 20
-0.1388764389748561
 30
0.0
  0
VERTEX
  5
151
  8
44MM
 10
43.85696349849009
 20
-0.1469051342588362
 30
0.0
  0
VERTEX
  5
152
  8
44MM
 10
43.86112126670469
 20
-0.1546971884252175
 30
0.0
  0
VERTEX
  5
153
  8
44MM
 10
43.86328093265323
 20
-0.1585014762880116
 30
0.0
  0
VERTEX
  5
154
  8
44MM
 10
43.86549309650803
 20
-0.1622432232190594
 30
0.0
  0
VERTEX
  5
155
  8
44MM
 10
43.86775674077819
 20
-0.1659213931297492
 30
0.0
  0
VERTEX
  5
156
  8
44MM
 10
43.87007084797281
 20
-0.1695349499314694
 30
0.0
  0
VERTEX
  5
157
  8
44MM
 10
43.87243440060097
 20
-0.1730828575356085
 30
0.0
  0
VERTEX
  5
158
  8
44MM
 10
43.87484638117176
 20
-0.1765640798535549
 30
0.0
  0
VERTEX
  5
159
  8
44MM
 10
43.87730577219429
 20
-0.179977580796697
 30
0.0
  0
VERTEX
  5
15A
  8
44MM
 10
43.87981155617763
 20
-0.1833223242764233
 30
0.0
  0
VERTEX
  5
15B
  8
44MM
 10
43.88236271563087
 20
-0.1865972742041221
 30
0.0
  0
VERTEX
  5
15C
  8
44MM
 10
43.8849582330631
 20
-0.1898013944911819
 30
0.0
  0
VERTEX
  5
15D
  8
44MM
 10
43.88759709098343
 20
-0.1929336490489912
 30
0.0
  0
VERTEX
  5
15E
  8
44MM
 10
43.89027827190093
 20
-0.1959930017889383
 30
0.0
  0
VERTEX
  5
15F
  8
44MM
 10
43.8930007583247
 20
-0.1989784166224117
 30
0.0
  0
VERTEX
  5
160
  8
44MM
 10
43.89576353276382
 20
-0.2018888574607998
 30
0.0
  0
VERTEX
  5
161
  8
44MM
 10
43.8985655777274
 20
-0.2047232882154911
 30
0.0
  0
VERTEX
  5
162
  8
44MM
 10
43.90140587572452
 20
-0.2074806727978739
 30
0.0
  0
VERTEX
  5
163
  8
44MM
 10
43.90428340926427
 20
-0.2101599751193367
 30
0.0
  0
VERTEX
  5
164
  8
44MM
 10
43.90719716085573
 20
-0.2127601590912679
 30
0.0
  0
VERTEX
  5
165
  8
44MM
 10
43.91014611300801
 20
-0.2152801886250559
 30
0.0
  0
VERTEX
  5
166
  8
44MM
 10
43.91312924823019
 20
-0.2177190276320893
 30
0.0
  0
VERTEX
  5
167
  8
44MM
 10
43.91614554903137
 20
-0.2200756400237563
 30
0.0
  0
VERTEX
  5
168
  8
44MM
 10
43.91919399792063
 20
-0.2223489897114454
 30
0.0
  0
VERTEX
  5
169
  8
44MM
 10
43.92227357740705
 20
-0.2245380406065451
 30
0.0
  0
VERTEX
  5
16A
  8
44MM
 10
43.92538326999976
 20
-0.2266417566204438
 30
0.0
  0
VERTEX
  5
16B
  8
44MM
 10
43.9285220582078
 20
-0.2286591016645299
 30
0.0
  0
VERTEX
  5
16C
  8
44MM
 10
43.9316889245403
 20
-0.2305890396501917
 30
0.0
  0
VERTEX
  5
16D
  8
44MM
 10
43.93488285150633
 20
-0.2324305344888179
 30
0.0
  0
VERTEX
  5
16E
  8
44MM
 10
43.93810282161499
 20
-0.2341825500917967
 30
0.0
  0
VERTEX
  5
16F
  8
44MM
 10
43.94134781737537
 20
-0.2358440503705167
 30
0.0
  0
VERTEX
  5
170
  8
44MM
 10
43.94461682129655
 20
-0.2374139992363662
 30
0.0
  0
VERTEX
  5
171
  8
44MM
 10
43.94790875672764
 20
-0.2388915130124454
 30
0.0
  0
VERTEX
  5
172
  8
44MM
 10
43.95122231037774
 20
-0.2402763176687017
 30
0.0
  0
VERTEX
  5
173
  8
44MM
 10
43.95455610979596
 20
-0.2415682915867941
 30
0.0
  0
VERTEX
  5
174
  8
44MM
 10
43.95790878253142
 20
-0.2427673131483818
 30
0.0
  0
VERTEX
  5
175
  8
44MM
 10
43.96127895613324
 20
-0.243873260735124
 30
0.0
  0
VERTEX
  5
176
  8
44MM
 10
43.96466525815052
 20
-0.2448860127286795
 30
0.0
  0
VERTEX
  5
177
  8
44MM
 10
43.96806631613237
 20
-0.2458054475107077
 30
0.0
  0
VERTEX
  5
178
  8
44MM
 10
43.97148075762792
 20
-0.2466314434628675
 30
0.0
  0
VERTEX
  5
179
  8
44MM
 10
43.97490721018627
 20
-0.2473638789668182
 30
0.0
  0
VERTEX
  5
17A
  8
44MM
 10
43.97834430135655
 20
-0.2480026324042187
 30
0.0
  0
VERTEX
  5
17B
  8
44MM
 10
43.98179065868786
 20
-0.2485475821567282
 30
0.0
  0
VERTEX
  5
17C
  8
44MM
 10
43.98524490972931
 20
-0.2489986066060058
 30
0.0
  0
VERTEX
  5
17D
  8
44MM
 10
43.98870568203002
 20
-0.2493555841337106
 30
0.0
  0
VERTEX
  5
17E
  8
44MM
 10
43.9921716031391
 20
-0.2496183931215018
 30
0.0
  0
VERTEX
  5
17F
  8
44MM
 10
43.99564130060567
 20
-0.2497869119510384
 30
0.0
  0
VERTEX
  5
180
  8
44MM
 10
43.99911340197883
 20
-0.2498610190039794
 30
0.0
  0
VERTEX
  5
181
  8
44MM
 10
44.0025865348077
 20
-0.2498405926619841
 30
0.0
  0
VERTEX
  5
182
  8
44MM
 10
44.00605932664141
 20
-0.2497255113067114
 30
0.0
  0
VERTEX
  5
183
  8
44MM
 10
44.00953040502905
 20
-0.2495156533198206
 30
0.0
  0
VERTEX
  5
184
  8
44MM
 10
44.01299839751975
 20
-0.2492108970829708
 30
0.0
  0
VERTEX
  5
185
  8
44MM
 10
44.01646193166261
 20
-0.2488111209778209
 30
0.0
  0
VERTEX
  5
186
  8
44MM
 10
44.01991963500676
 20
-0.2483162033860302
 30
0.0
  0
VERTEX
  5
187
  8
44MM
 10
44.02337013510129
 20
-0.2477260226892578
 30
0.0
  0
VERTEX
  5
188
  8
44MM
 10
44.02681205949533
 20
-0.2470404572691627
 30
0.0
  0
VERTEX
  5
189
  8
44MM
 10
44.03024403573799
 20
-0.246259385507404
 30
0.0
  0
VERTEX
  5
18A
  8
44MM
 10
44.03366469137838
 20
-0.2453826857856408
 30
0.0
  0
VERTEX
  5
18B
  8
44MM
 10
44.03707265396561
 20
-0.2444102364855324
 30
0.0
  0
VERTEX
  5
18C
  8
44MM
 10
44.04046655104881
 20
-0.2433419159887377
 30
0.0
  0
VERTEX
  5
18D
  8
44MM
 10
44.04384501017708
 20
-0.2421776026769158
 30
0.0
  0
VERTEX
  5
18E
  8
44MM
 10
44.04720665889953
 20
-0.2409171749317259
 30
0.0
  0
VERTEX
  5
18F
  8
44MM
 10
44.05055012476528
 20
-0.239560511134827
 30
0.0
  0
VERTEX
  5
190
  8
44MM
 10
44.05387403532345
 20
-0.2381074896678784
 30
0.0
  0
VERTEX
  5
191
  8
44MM
 10
44.05717705451677
 20
-0.236558207921577
 30
0.0
  0
VERTEX
  5
192
  8
44MM
 10
44.06045799186249
 20
-0.2349136393227722
 30
0.0
  0
VERTEX
  5
193
  8
44MM
 10
44.06371569327149
 20
-0.2331749763073514
 30
0.0
  0
VERTEX
  5
194
  8
44MM
 10
44.06694900465464
 20
-0.2313434113112018
 30
0.0
  0
VERTEX
  5
195
  8
44MM
 10
44.07015677192283
 20
-0.2294201367702108
 30
0.0
  0
VERTEX
  5
196
  8
44MM
 10
44.07333784098691
 20
-0.2274063451202656
 30
0.0
  0
VERTEX
  5
197
  8
44MM
 10
44.07649105775778
 20
-0.2253032287972538
 30
0.0
  0
VERTEX
  5
198
  8
44MM
 10
44.0796152681463
 20
-0.2231119802370625
 30
0.0
  0
VERTEX
  5
199
  8
44MM
 10
44.08270931806335
 20
-0.220833791875579
 30
0.0
  0
VERTEX
  5
19A
  8
44MM
 10
44.08577205341982
 20
-0.2184698561486908
 30
0.0
  0
VERTEX
  5
19B
  8
44MM
 10
44.08880232012658
 20
-0.2160213654922851
 30
0.0
  0
VERTEX
  5
19C
  8
44MM
 10
44.09179896409449
 20
-0.2134895123422492
 30
0.0
  0
VERTEX
  5
19D
  8
44MM
 10
44.09476083123444
 20
-0.2108754891344706
 30
0.0
  0
VERTEX
  5
19E
  8
44MM
 10
44.0976867674573
 20
-0.2081804883048365
 30
0.0
  0
VERTEX
  5
19F
  8
44MM
 10
44.10057561867394
 20
-0.2054057022892342
 30
0.0
  0
VERTEX
  5
1A0
  8
44MM
 10
44.10342623079526
 20
-0.202552323523551
 30
0.0
  0
VERTEX
  5
1A1
  8
44MM
 10
44.10623744973212
 20
-0.1996215444436744
 30
0.0
  0
VERTEX
  5
1A2
  8
44MM
 10
44.10900812139539
 20
-0.1966145574854916
 30
0.0
  0
VERTEX
  5
1A3
  8
44MM
 10
44.11173709169595
 20
-0.1935325550848899
 30
0.0
  0
VERTEX
  5
1A4
  8
44MM
 10
44.11442320654469
 20
-0.1903767296777567
 30
0.0
  0
VERTEX
  5
1A5
  8
44MM
 10
44.11706531185246
 20
-0.1871482736999793
 30
0.0
  0
VERTEX
  5
1A6
  8
44MM
 10
44.11966225353015
 20
-0.183848379587445
 30
0.0
  0
VERTEX
  5
1A7
  8
44MM
 10
44.12221287748864
 20
-0.1804782397760412
 30
0.0
  0
VERTEX
  5
1A8
  8
44MM
 10
44.12471602963879
 20
-0.1770390467016552
 30
0.0
  0
VERTEX
  5
1A9
  8
44MM
 10
44.1271705558915
 20
-0.1735319928001743
 30
0.0
  0
VERTEX
  5
1AA
  8
44MM
 10
44.12957530215762
 20
-0.1699582705074858
 30
0.0
  0
VERTEX
  5
1AB
  8
44MM
 10
44.13192911434805
 20
-0.1663190722594771
 30
0.0
  0
VERTEX
  5
1AC
  8
44MM
 10
44.13423083837364
 20
-0.1626155904920354
 30
0.0
  0
VERTEX
  5
1AD
  8
44MM
 10
44.13647932014529
 20
-0.1588490176410481
 30
0.0
  0
VERTEX
  5
1AE
  8
44MM
 10
44.13867340557387
 20
-0.1550205461424026
 30
0.0
  0
VERTEX
  5
1AF
  8
44MM
 10
44.14081194057025
 20
-0.1511313684319862
 30
0.0
  0
VERTEX
  5
1B0
  8
44MM
 10
44.14289377104532
 20
-0.1471826769456862
 30
0.0
  0
VERTEX
  5
1B1
  8
44MM
 10
44.14688370559197
 20
-0.139112367893851
 30
0.0
  0
VERTEX
  5
1B2
  8
44MM
 10
44.15063899408584
 20
-0.1308233859983275
 30
0.0
  0
VERTEX
  5
1B3
  8
44MM
 10
44.15415642491592
 20
-0.1223303437754127
 30
0.0
  0
VERTEX
  5
1B4
  8
44MM
 10
44.1574327864712
 20
-0.1136478537414035
 30
0.0
  0
VERTEX
  5
1B5
  8
44MM
 10
44.1604648671407
 20
-0.1047905284125968
 30
0.0
  0
VERTEX
  5
1B6
  8
44MM
 10
44.16324945531342
 20
-0.0957729803052895
 30
0.0
  0
VERTEX
  5
1B7
  8
44MM
 10
44.16578333937834
 20
-0.0866098219357785
 30
0.0
  0
VERTEX
  5
1B8
  8
44MM
 10
44.16806330772445
 20
-0.0773156658203608
 30
0.0
  0
VERTEX
  5
1B9
  8
44MM
 10
44.17008614874077
 20
-0.0679051244753331
 30
0.0
  0
VERTEX
  5
1BA
  8
44MM
 10
44.1718486508163
 20
-0.0583928104169924
 30
0.0
  0
VERTEX
  5
1BB
  8
44MM
 10
44.17334760234003
 20
-0.0487933361616357
 30
0.0
  0
VERTEX
  5
1BC
  8
44MM
 10
44.17457979170096
 20
-0.0391213142255598
 30
0.0
  0
VERTEX
  5
1BD
  8
44MM
 10
44.17554200728809
 20
-0.0293913571250616
 30
0.0
  0
VERTEX
  5
1BE
  8
44MM
 10
44.17623103749041
 20
-0.0196180773764381
 30
0.0
  0
VERTEX
  5
1BF
  8
44MM
 10
44.17664367069693
 20
-0.0098160874959861
 30
0.0
  0
VERTEX
  5
1C0
  8
44MM
 10
44.17677669529664
 20
-0.0000000000000026
 30
0.0
  0
SEQEND
  5
1C1
  8
44MM
  0
POLYLINE
  5
1C2
  8
44MM
 66
     1
 10
0.0
 20
0.0
 30
0.0
  0
VERTEX
  5
1C3
  8
44MM
 10
31.0
 20
-0.0000000000000012
 30
0.0
  0
VERTEX
  5
1C4
  8
44MM
 10
31.0
 20
0.2498647796749683
 30
0.0
  0
VERTEX
  5
1C5
  8
44MM
 10
31.0
 20
0.2498626301084911
 30
0.0
  0
VERTEX
  5
1C6
  8
44MM
 10
31.0
 20
-0.2498647796749707
 30
0.0
  0
VERTEX
  5
1C7
  8
44MM
 10
31.0
 20
-0.2498626301084935
 30
0.0
  0
VERTEX
  5
1C8
  8
44MM
 10
31.0
 20
-0.0000000000000012
 30
0.0
  0
SEQEND
  5
1C9
  8
44MM
  0
POLYLINE
  5
1CA
  8
44MM
 66
     1
 10
0.0
 20
0.0
 30
0.0
  0
VERTEX
  5
1CB
  8
44MM
 10
21.0
 20
-0.0000000000000012
 30
0.0
  0
VERTEX
  5
1CC
  8
44MM
 10
21.0
 20
0.2498647796749683
 30
0.0
  0
VERTEX
  5
1CD
  8
44MM
 10
21.0
 20
0.2498626301084911
 30
0.0
  0
VERTEX
  5
1CE
  8
44MM
 10
21.00000000000001
 20
-0.2498647796749707
 30
0.0
  0
VERTEX
  5
1CF
  8
44MM
 10
21.00000000000001
 20
-0.2498626301084935
 30
0.0
  0
VERTEX
  5
1D0
  8
44MM
 10
21.0
 20
-0.0000000000000012
 30
0.0
  0
SEQEND
  5
1D1
  8
44MM
  0
POLYLINE
  5
1D2
  8
44MM
 66
     1
 10
0.0
 20
0.0
 30
0.0
  0
VERTEX
  5
1D3
  8
44MM
 10
11.0
 20
-0.0000000000000012
 30
0.0
  0
VERTEX
  5
1D4
  8
44MM
 10
11.0
 20
0.2498647796749683
 30
0.0
  0
VERTEX
  5
1D5
  8
44MM
 10
11.0
 20
0.2498626301084911
 30
0.0
  0
VERTEX
  5
1D6
  8
44MM
 10
11.0
 20
-0.2498647796749706
 30
0.0
  0
VERTEX
  5
1D7
  8
44MM
 10
11.0
 20
-0.2498626301084935
 30
0.0
  0
VERTEX
  5
1D8
  8
44MM
 10
11.0
 20
-0.0000000000000012
 30
0.0
  0
SEQEND
  5
1D9
  8
44MM
  0
POLYLINE
  5
1DA
  8
44MM
 66
     1
 10
0.0
 20
0.0
 30
0.0
  0
VERTEX
  5
1DB
  8
44MM
 10
-0.176776695296638
 20
0.0000000000000001
 30
0.0
  0
VERTEX
  5
1DC
  8
44MM
 10
-0.1766280663918504
 20
0.0098155370170711
 30
0.0
  0
VERTEX
  5
1DD
  8
44MM
 10
-0.1762004059381177
 20
0.0196157331481966
 30
0.0
  0
VERTEX
  5
1DE
  8
44MM
 10
-0.1754975026043029
 20
0.0293857624081966
 30
0.0
  0
VERTEX
  5
1DF
  8
44MM
 10
-0.1745231450592691
 20
0.039110798811891
 30
0.0
  0
VERTEX
  5
1E0
  8
44MM
 10
-0.1732811219718793
 20
0.0487760163740997
 30
0.0
  0
VERTEX
  5
1E1
  8
44MM
 10
-0.1717752220109965
 20
0.0583665891096426
 30
0.0
  0
VERTEX
  5
1E2
  8
44MM
 10
-0.1700092338454837
 20
0.0678676910333396
 30
0.0
  0
VERTEX
  5
1E3
  8
44MM
 10
-0.167986946144204
 20
0.0772644961600106
 30
0.0
  0
VERTEX
  5
1E4
  8
44MM
 10
-0.1657121475760204
 20
0.0865421785044755
 30
0.0
  0
VERTEX
  5
1E5
  8
44MM
 10
-0.1631886268097959
 20
0.0956859120815544
 30
0.0
  0
VERTEX
  5
1E6
  8
44MM
 10
-0.1604201725143936
 20
0.104680870906067
 30
0.0
  0
VERTEX
  5
1E7
  8
44MM
 10
-0.1574105733586764
 20
0.1135122289928332
 30
0.0
  0
VERTEX
  5
1E8
  8
44MM
 10
-0.1541636180115075
 20
0.1221651603566731
 30
0.0
  0
VERTEX
  5
1E9
  8
44MM
 10
-0.1506830951417498
 20
0.1306248390124065
 30
0.0
  0
VERTEX
  5
1EA
  8
44MM
 10
-0.1469727934182664
 20
0.1388764389748532
 30
0.0
  0
VERTEX
  5
1EB
  8
44MM
 10
-0.1430365015099202
 20
0.1469051342588334
 30
0.0
  0
VERTEX
  5
1EC
  8
44MM
 10
-0.1388787332953098
 20
0.1546971884252147
 30
0.0
  0
VERTEX
  5
1ED
  8
44MM
 10
-0.1367190673467783
 20
0.1585014762880088
 30
0.0
  0
VERTEX
  5
1EE
  8
44MM
 10
-0.1345069034919751
 20
0.1622432232190566
 30
0.0
  0
VERTEX
  5
1EF
  8
44MM
 10
-0.1322432592218096
 20
0.1659213931297464
 30
0.0
  0
VERTEX
  5
1F0
  8
44MM
 10
-0.1299291520271914
 20
0.1695349499314666
 30
0.0
  0
VERTEX
  5
1F1
  8
44MM
 10
-0.1275655993990298
 20
0.1730828575356056
 30
0.0
  0
VERTEX
  5
1F2
  8
44MM
 10
-0.1251536188282343
 20
0.176564079853552
 30
0.0
  0
VERTEX
  5
1F3
  8
44MM
 10
-0.1226942278057141
 20
0.1799775807966942
 30
0.0
  0
VERTEX
  5
1F4
  8
44MM
 10
-0.1201884438223789
 20
0.1833223242764204
 30
0.0
  0
VERTEX
  5
1F5
  8
44MM
 10
-0.117637284369138
 20
0.1865972742041192
 30
0.0
  0
VERTEX
  5
1F6
  8
44MM
 10
-0.1150417669369008
 20
0.1898013944911791
 30
0.0
  0
VERTEX
  5
1F7
  8
44MM
 10
-0.1124029090165767
 20
0.1929336490489883
 30
0.0
  0
VERTEX
  5
1F8
  8
44MM
 10
-0.1097217280990752
 20
0.1959930017889355
 30
0.0
  0
VERTEX
  5
1F9
  8
44MM
 10
-0.1069992416753057
 20
0.1989784166224089
 30
0.0
  0
VERTEX
  5
1FA
  8
44MM
 10
-0.1042364672361776
 20
0.201888857460797
 30
0.0
  0
VERTEX
  5
1FB
  8
44MM
 10
-0.1014344222726004
 20
0.2047232882154882
 30
0.0
  0
VERTEX
  5
1FC
  8
44MM
 10
-0.0985941242754834
 20
0.2074806727978711
 30
0.0
  0
VERTEX
  5
1FD
  8
44MM
 10
-0.0957165907357361
 20
0.2101599751193339
 30
0.0
  0
VERTEX
  5
1FE
  8
44MM
 10
-0.0928028391442679
 20
0.2127601590912651
 30
0.0
  0
VERTEX
  5
1FF
  8
44MM
 10
-0.0898538869919882
 20
0.2152801886250532
 30
0.0
  0
VERTEX
  5
200
  8
44MM
 10
-0.0868707517698064
 20
0.2177190276320865
 30
0.0
  0
VERTEX
  5
201
  8
44MM
 10
-0.083854450968632
 20
0.2200756400237535
 30
0.0
  0
VERTEX
  5
202
  8
44MM
 10
-0.0808060020793745
 20
0.2223489897114427
 30
0.0
  0
VERTEX
  5
203
  8
44MM
 10
-0.0777264225929431
 20
0.2245380406065424
 30
0.0
  0
VERTEX
  5
204
  8
44MM
 10
-0.0746167300002473
 20
0.2266417566204411
 30
0.0
  0
VERTEX
  5
205
  8
44MM
 10
-0.0714779417921967
 20
0.2286591016645271
 30
0.0
  0
VERTEX
  5
206
  8
44MM
 10
-0.0683110754597005
 20
0.230589039650189
 30
0.0
  0
VERTEX
  5
207
  8
44MM
 10
-0.0651171484936682
 20
0.2324305344888152
 30
0.0
  0
VERTEX
  5
208
  8
44MM
 10
-0.0618971783850092
 20
0.234182550091794
 30
0.0
  0
VERTEX
  5
209
  8
44MM
 10
-0.0586521826246329
 20
0.235844050370514
 30
0.0
  0
VERTEX
  5
20A
  8
44MM
 10
-0.0553831787034489
 20
0.2374139992363634
 30
0.0
  0
VERTEX
  5
20B
  8
44MM
 10
-0.0520912432723626
 20
0.2388915130124427
 30
0.0
  0
VERTEX
  5
20C
  8
44MM
 10
-0.0487776896222645
 20
0.240276317668699
 30
0.0
  0
VERTEX
  5
20D
  8
44MM
 10
-0.0454438902040413
 20
0.2415682915867914
 30
0.0
  0
VERTEX
  5
20E
  8
44MM
 10
-0.0420912174685796
 20
0.2427673131483792
 30
0.0
  0
VERTEX
  5
20F
  8
44MM
 10
-0.038721043866766
 20
0.2438732607351213
 30
0.0
  0
VERTEX
  5
210
  8
44MM
 10
-0.0353347418494872
 20
0.2448860127286769
 30
0.0
  0
VERTEX
  5
211
  8
44MM
 10
-0.0319336838676299
 20
0.245805447510705
 30
0.0
  0
VERTEX
  5
212
  8
44MM
 10
-0.0285192423720805
 20
0.2466314434628649
 30
0.0
  0
VERTEX
  5
213
  8
44MM
 10
-0.0250927898137258
 20
0.2473638789668155
 30
0.0
  0
VERTEX
  5
214
  8
44MM
 10
-0.0216556986434525
 20
0.248002632404216
 30
0.0
  0
VERTEX
  5
215
  8
44MM
 10
-0.018209341312147
 20
0.2485475821567255
 30
0.0
  0
VERTEX
  5
216
  8
44MM
 10
-0.0147550902706962
 20
0.2489986066060031
 30
0.0
  0
VERTEX
  5
217
  8
44MM
 10
-0.0112943179699866
 20
0.249355584133708
 30
0.0
  0
VERTEX
  5
218
  8
44MM
 10
-0.0078283968609048
 20
0.2496183931214991
 30
0.0
  0
VERTEX
  5
219
  8
44MM
 10
-0.0043586993943376
 20
0.2497869119510356
 30
0.0
  0
VERTEX
  5
21A
  8
44MM
 10
-0.0008865980211714
 20
0.2498610190039767
 30
0.0
  0
VERTEX
  5
21B
  8
44MM
 10
0.002586534807707
 20
0.2498405926619814
 30
0.0
  0
VERTEX
  5
21C
  8
44MM
 10
0.0060593266414109
 20
0.2497255113067088
 30
0.0
  0
VERTEX
  5
21D
  8
44MM
 10
0.0095304050290539
 20
0.249515653319818
 30
0.0
  0
VERTEX
  5
21E
  8
44MM
 10
0.0129983975197492
 20
0.2492108970829681
 30
0.0
  0
VERTEX
  5
21F
  8
44MM
 10
0.0164619316626101
 20
0.2488111209778183
 30
0.0
  0
VERTEX
  5
220
  8
44MM
 10
0.0199196350067501
 20
0.2483162033860276
 30
0.0
  0
VERTEX
  5
221
  8
44MM
 10
0.0233701351012826
 20
0.2477260226892551
 30
0.0
  0
VERTEX
  5
222
  8
44MM
 10
0.0268120594953208
 20
0.24704045726916
 30
0.0
  0
VERTEX
  5
223
  8
44MM
 10
0.0302440357379782
 20
0.2462593855074013
 30
0.0
  0
VERTEX
  5
224
  8
44MM
 10
0.0336646913783681
 20
0.2453826857856382
 30
0.0
  0
VERTEX
  5
225
  8
44MM
 10
0.0370726539656038
 20
0.2444102364855297
 30
0.0
  0
VERTEX
  5
226
  8
44MM
 10
0.0404665510487988
 20
0.243341915988735
 30
0.0
  0
VERTEX
  5
227
  8
44MM
 10
0.0438450101770664
 20
0.2421776026769131
 30
0.0
  0
VERTEX
  5
228
  8
44MM
 10
0.04720665889952
 20
0.2409171749317232
 30
0.0
  0
VERTEX
  5
229
  8
44MM
 10
0.0505501247652729
 20
0.2395605111348243
 30
0.0
  0
VERTEX
  5
22A
  8
44MM
 10
0.0538740353234386
 20
0.2381074896678757
 30
0.0
  0
VERTEX
  5
22B
  8
44MM
 10
0.0571770545167573
 20
0.2365582079215743
 30
0.0
  0
VERTEX
  5
22C
  8
44MM
 10
0.060457991862478
 20
0.2349136393227695
 30
0.0
  0
VERTEX
  5
22D
  8
44MM
 10
0.0637156932714765
 20
0.2331749763073487
 30
0.0
  0
VERTEX
  5
22E
  8
44MM
 10
0.0669490046546286
 20
0.2313434113111991
 30
0.0
  0
VERTEX
  5
22F
  8
44MM
 10
0.0701567719228103
 20
0.2294201367702081
 30
0.0
  0
VERTEX
  5
230
  8
44MM
 10
0.0733378409868975
 20
0.227406345120263
 30
0.0
  0
VERTEX
  5
231
  8
44MM
 10
0.0764910577577659
 20
0.2253032287972511
 30
0.0
  0
VERTEX
  5
232
  8
44MM
 10
0.0796152681462914
 20
0.2231119802370598
 30
0.0
  0
VERTEX
  5
233
  8
44MM
 10
0.08270931806335
 20
0.2208337918755764
 30
0.0
  0
VERTEX
  5
234
  8
44MM
 10
0.0857720534198175
 20
0.2184698561486881
 30
0.0
  0
VERTEX
  5
235
  8
44MM
 10
0.0888023201265698
 20
0.2160213654922824
 30
0.0
  0
VERTEX
  5
236
  8
44MM
 10
0.0917989640944827
 20
0.2134895123422466
 30
0.0
  0
VERTEX
  5
237
  8
44MM
 10
0.094760831234432
 20
0.2108754891344679
 30
0.0
  0
VERTEX
  5
238
  8
44MM
 10
0.0976867674572938
 20
0.2081804883048338
 30
0.0
  0
VERTEX
  5
239
  8
44MM
 10
0.1005756186739439
 20
0.2054057022892314
 30
0.0
  0
VERTEX
  5
23A
  8
44MM
 10
0.103426230795258
 20
0.2025523235235483
 30
0.0
  0
VERTEX
  5
23B
  8
44MM
 10
0.1062374497321122
 20
0.1996215444436717
 30
0.0
  0
VERTEX
  5
23C
  8
44MM
 10
0.1090081213953822
 20
0.1966145574854889
 30
0.0
  0
VERTEX
  5
23D
  8
44MM
 10
0.1117370916959439
 20
0.1935325550848873
 30
0.0
  0
VERTEX
  5
23E
  8
44MM
 10
0.1144232065446733
 20
0.190376729677754
 30
0.0
  0
VERTEX
  5
23F
  8
44MM
 10
0.1170653118524461
 20
0.1871482736999766
 30
0.0
  0
VERTEX
  5
240
  8
44MM
 10
0.1196622535301382
 20
0.1838483795874424
 30
0.0
  0
VERTEX
  5
241
  8
44MM
 10
0.1222128774886256
 20
0.1804782397760386
 30
0.0
  0
VERTEX
  5
242
  8
44MM
 10
0.124716029638784
 20
0.1770390467016525
 30
0.0
  0
VERTEX
  5
243
  8
44MM
 10
0.1271705558914895
 20
0.1735319928001716
 30
0.0
  0
VERTEX
  5
244
  8
44MM
 10
0.1295753021576177
 20
0.1699582705074831
 30
0.0
  0
VERTEX
  5
245
  8
44MM
 10
0.1319291143480446
 20
0.1663190722594744
 30
0.0
  0
VERTEX
  5
246
  8
44MM
 10
0.1342308383736461
 20
0.1626155904920327
 30
0.0
  0
VERTEX
  5
247
  8
44MM
 10
0.136479320145298
 20
0.1588490176410455
 30
0.0
  0
VERTEX
  5
248
  8
44MM
 10
0.1386734055738763
 20
0.1550205461424
 30
0.0
  0
VERTEX
  5
249
  8
44MM
 10
0.1408119405702567
 20
0.1511313684319835
 30
0.0
  0
VERTEX
  5
24A
  8
44MM
 10
0.1428937710453152
 20
0.1471826769456835
 30
0.0
  0
VERTEX
  5
24B
  8
44MM
 10
0.1468837055919683
 20
0.1391123678938483
 30
0.0
  0
VERTEX
  5
24C
  8
44MM
 10
0.1506389940858357
 20
0.1308233859983249
 30
0.0
  0
VERTEX
  5
24D
  8
44MM
 10
0.1541564249159158
 20
0.1223303437754101
 30
0.0
  0
VERTEX
  5
24E
  8
44MM
 10
0.1574327864712071
 20
0.1136478537414009
 30
0.0
  0
VERTEX
  5
24F
  8
44MM
 10
0.1604648671407081
 20
0.1047905284125942
 30
0.0
  0
VERTEX
  5
250
  8
44MM
 10
0.1632494553134174
 20
0.0957729803052869
 30
0.0
  0
VERTEX
  5
251
  8
44MM
 10
0.1657833393783334
 20
0.0866098219357759
 30
0.0
  0
VERTEX
  5
252
  8
44MM
 10
0.1680633077244546
 20
0.0773156658203581
 30
0.0
  0
VERTEX
  5
253
  8
44MM
 10
0.1700861487407797
 20
0.0679051244753305
 30
0.0
  0
VERTEX
  5
254
  8
44MM
 10
0.171848650816307
 20
0.0583928104169898
 30
0.0
  0
VERTEX
  5
255
  8
44MM
 10
0.1733476023400352
 20
0.0487933361616331
 30
0.0
  0
VERTEX
  5
256
  8
44MM
 10
0.1745797917009626
 20
0.0391213142255572
 30
0.0
  0
VERTEX
  5
257
  8
44MM
 10
0.1755420072880879
 20
0.029391357125059
 30
0.0
  0
VERTEX
  5
258
  8
44MM
 10
0.1762310374904094
 20
0.0196180773764355
 30
0.0
  0
VERTEX
  5
259
  8
44MM
 10
0.1766436706969259
 20
0.0098160874959835
 30
0.0
  0
VERTEX
  5
25A
  8
44MM
 10
0.1767766952966357
 20
-0.0000000000000001
 30
0.0
  0
VERTEX
  5
25B
  8
44MM
 10
0.1766280663918481
 20
-0.009815537017071
 30
0.0
  0
VERTEX
  5
25C
  8
44MM
 10
0.1762004059381154
 20
-0.0196157331481966
 30
0.0
  0
VERTEX
  5
25D
  8
44MM
 10
0.1754975026043007
 20
-0.0293857624081966
 30
0.0
  0
VERTEX
  5
25E
  8
44MM
 10
0.1745231450592669
 20
-0.039110798811891
 30
0.0
  0
VERTEX
  5
25F
  8
44MM
 10
0.1732811219718771
 20
-0.0487760163740997
 30
0.0
  0
VERTEX
  5
260
  8
44MM
 10
0.1717752220109943
 20
-0.0583665891096426
 30
0.0
  0
VERTEX
  5
261
  8
44MM
 10
0.1700092338454815
 20
-0.0678676910333396
 30
0.0
  0
VERTEX
  5
262
  8
44MM
 10
0.1679869461442018
 20
-0.0772644961600107
 30
0.0
  0
VERTEX
  5
263
  8
44MM
 10
0.1657121475760182
 20
-0.0865421785044757
 30
0.0
  0
VERTEX
  5
264
  8
44MM
 10
0.1631886268097937
 20
-0.0956859120815545
 30
0.0
  0
VERTEX
  5
265
  8
44MM
 10
0.1604201725143914
 20
-0.1046808709060671
 30
0.0
  0
VERTEX
  5
266
  8
44MM
 10
0.1574105733586742
 20
-0.1135122289928334
 30
0.0
  0
VERTEX
  5
267
  8
44MM
 10
0.1541636180115053
 20
-0.1221651603566733
 30
0.0
  0
VERTEX
  5
268
  8
44MM
 10
0.1506830951417476
 20
-0.1306248390124067
 30
0.0
  0
VERTEX
  5
269
  8
44MM
 10
0.1469727934182641
 20
-0.1388764389748535
 30
0.0
  0
VERTEX
  5
26A
  8
44MM
 10
0.143036501509918
 20
-0.1469051342588336
 30
0.0
  0
VERTEX
  5
26B
  8
44MM
 10
0.1388787332953075
 20
-0.1546971884252148
 30
0.0
  0
VERTEX
  5
26C
  8
44MM
 10
0.136719067346776
 20
-0.158501476288009
 30
0.0
  0
VERTEX
  5
26D
  8
44MM
 10
0.1345069034919728
 20
-0.1622432232190567
 30
0.0
  0
VERTEX
  5
26E
  8
44MM
 10
0.1322432592218074
 20
-0.1659213931297465
 30
0.0
  0
VERTEX
  5
26F
  8
44MM
 10
0.1299291520271891
 20
-0.1695349499314667
 30
0.0
  0
VERTEX
  5
270
  8
44MM
 10
0.1275655993990275
 20
-0.1730828575356058
 30
0.0
  0
VERTEX
  5
271
  8
44MM
 10
0.125153618828232
 20
-0.1765640798535522
 30
0.0
  0
VERTEX
  5
272
  8
44MM
 10
0.1226942278057118
 20
-0.1799775807966943
 30
0.0
  0
VERTEX
  5
273
  8
44MM
 10
0.1201884438223766
 20
-0.1833223242764206
 30
0.0
  0
VERTEX
  5
274
  8
44MM
 10
0.1176372843691356
 20
-0.1865972742041195
 30
0.0
  0
VERTEX
  5
275
  8
44MM
 10
0.1150417669368984
 20
-0.1898013944911793
 30
0.0
  0
VERTEX
  5
276
  8
44MM
 10
0.1124029090165744
 20
-0.1929336490489885
 30
0.0
  0
VERTEX
  5
277
  8
44MM
 10
0.1097217280990729
 20
-0.1959930017889357
 30
0.0
  0
VERTEX
  5
278
  8
44MM
 10
0.1069992416753034
 20
-0.1989784166224091
 30
0.0
  0
VERTEX
  5
279
  8
44MM
 10
0.1042364672361753
 20
-0.2018888574607972
 30
0.0
  0
VERTEX
  5
27A
  8
44MM
 10
0.101434422272598
 20
-0.2047232882154884
 30
0.0
  0
VERTEX
  5
27B
  8
44MM
 10
0.098594124275481
 20
-0.2074806727978712
 30
0.0
  0
VERTEX
  5
27C
  8
44MM
 10
0.0957165907357337
 20
-0.210159975119334
 30
0.0
  0
VERTEX
  5
27D
  8
44MM
 10
0.0928028391442655
 20
-0.2127601590912652
 30
0.0
  0
VERTEX
  5
27E
  8
44MM
 10
0.0898538869919858
 20
-0.2152801886250533
 30
0.0
  0
VERTEX
  5
27F
  8
44MM
 10
0.086870751769804
 20
-0.2177190276320866
 30
0.0
  0
VERTEX
  5
280
  8
44MM
 10
0.0838544509686296
 20
-0.2200756400237536
 30
0.0
  0
VERTEX
  5
281
  8
44MM
 10
0.080806002079372
 20
-0.2223489897114427
 30
0.0
  0
VERTEX
  5
282
  8
44MM
 10
0.0777264225929406
 20
-0.2245380406065424
 30
0.0
  0
VERTEX
  5
283
  8
44MM
 10
0.0746167300002449
 20
-0.2266417566204411
 30
0.0
  0
VERTEX
  5
284
  8
44MM
 10
0.0714779417921942
 20
-0.2286591016645272
 30
0.0
  0
VERTEX
  5
285
  8
44MM
 10
0.068311075459698
 20
-0.2305890396501891
 30
0.0
  0
VERTEX
  5
286
  8
44MM
 10
0.0651171484936656
 20
-0.2324305344888152
 30
0.0
  0
VERTEX
  5
287
  8
44MM
 10
0.0618971783850066
 20
-0.2341825500917941
 30
0.0
  0
VERTEX
  5
288
  8
44MM
 10
0.0586521826246304
 20
-0.235844050370514
 30
0.0
  0
VERTEX
  5
289
  8
44MM
 10
0.0553831787034463
 20
-0.2374139992363635
 30
0.0
  0
VERTEX
  5
28A
  8
44MM
 10
0.05209124327236
 20
-0.2388915130124427
 30
0.0
  0
VERTEX
  5
28B
  8
44MM
 10
0.0487776896222619
 20
-0.240276317668699
 30
0.0
  0
VERTEX
  5
28C
  8
44MM
 10
0.0454438902040387
 20
-0.2415682915867914
 30
0.0
  0
VERTEX
  5
28D
  8
44MM
 10
0.042091217468577
 20
-0.2427673131483791
 30
0.0
  0
VERTEX
  5
28E
  8
44MM
 10
0.0387210438667634
 20
-0.2438732607351213
 30
0.0
  0
VERTEX
  5
28F
  8
44MM
 10
0.0353347418494846
 20
-0.2448860127286768
 30
0.0
  0
VERTEX
  5
290
  8
44MM
 10
0.0319336838676272
 20
-0.245805447510705
 30
0.0
  0
VERTEX
  5
291
  8
44MM
 10
0.0285192423720779
 20
-0.2466314434628648
 30
0.0
  0
VERTEX
  5
292
  8
44MM
 10
0.0250927898137232
 20
-0.2473638789668154
 30
0.0
  0
VERTEX
  5
293
  8
44MM
 10
0.0216556986434498
 20
-0.248002632404216
 30
0.0
  0
VERTEX
  5
294
  8
44MM
 10
0.0182093413121444
 20
-0.2485475821567255
 30
0.0
  0
VERTEX
  5
295
  8
44MM
 10
0.0147550902706935
 20
-0.2489986066060031
 30
0.0
  0
VERTEX
  5
296
  8
44MM
 10
0.0112943179699839
 20
-0.2493555841337079
 30
0.0
  0
VERTEX
  5
297
  8
44MM
 10
0.0078283968609022
 20
-0.2496183931214991
 30
0.0
  0
VERTEX
  5
298
  8
44MM
 10
0.0043586993943349
 20
-0.2497869119510356
 30
0.0
  0
VERTEX
  5
299
  8
44MM
 10
0.0008865980211688
 20
-0.2498610190039767
 30
0.0
  0
VERTEX
  5
29A
  8
44MM
 10
-0.0025865348077096
 20
-0.2498405926619813
 30
0.0
  0
VERTEX
  5
29B
  8
44MM
 10
-0.0060593266414136
 20
-0.2497255113067087
 30
0.0
  0
VERTEX
  5
29C
  8
44MM
 10
-0.0095304050290565
 20
-0.249515653319818
 30
0.0
  0
VERTEX
  5
29D
  8
44MM
 10
-0.0129983975197518
 20
-0.2492108970829681
 30
0.0
  0
VERTEX
  5
29E
  8
44MM
 10
-0.0164619316626128
 20
-0.2488111209778183
 30
0.0
  0
VERTEX
  5
29F
  8
44MM
 10
-0.0199196350067528
 20
-0.2483162033860276
 30
0.0
  0
VERTEX
  5
2A0
  8
44MM
 10
-0.0233701351012852
 20
-0.2477260226892551
 30
0.0
  0
VERTEX
  5
2A1
  8
44MM
 10
-0.0268120594953235
 20
-0.24704045726916
 30
0.0
  0
VERTEX
  5
2A2
  8
44MM
 10
-0.0302440357379808
 20
-0.2462593855074013
 30
0.0
  0
VERTEX
  5
2A3
  8
44MM
 10
-0.0336646913783707
 20
-0.2453826857856382
 30
0.0
  0
VERTEX
  5
2A4
  8
44MM
 10
-0.0370726539656065
 20
-0.2444102364855297
 30
0.0
  0
VERTEX
  5
2A5
  8
44MM
 10
-0.0404665510488015
 20
-0.243341915988735
 30
0.0
  0
VERTEX
  5
2A6
  8
44MM
 10
-0.0438450101770691
 20
-0.2421776026769131
 30
0.0
  0
VERTEX
  5
2A7
  8
44MM
 10
-0.0472066588995226
 20
-0.2409171749317232
 30
0.0
  0
VERTEX
  5
2A8
  8
44MM
 10
-0.0505501247652755
 20
-0.2395605111348243
 30
0.0
  0
VERTEX
  5
2A9
  8
44MM
 10
-0.0538740353234411
 20
-0.2381074896678757
 30
0.0
  0
VERTEX
  5
2AA
  8
44MM
 10
-0.0571770545167599
 20
-0.2365582079215744
 30
0.0
  0
VERTEX
  5
2AB
  8
44MM
 10
-0.0604579918624806
 20
-0.2349136393227696
 30
0.0
  0
VERTEX
  5
2AC
  8
44MM
 10
-0.0637156932714791
 20
-0.2331749763073488
 30
0.0
  0
VERTEX
  5
2AD
  8
44MM
 10
-0.0669490046546312
 20
-0.2313434113111991
 30
0.0
  0
VERTEX
  5
2AE
  8
44MM
 10
-0.0701567719228129
 20
-0.2294201367702081
 30
0.0
  0
VERTEX
  5
2AF
  8
44MM
 10
-0.0733378409869
 20
-0.227406345120263
 30
0.0
  0
VERTEX
  5
2B0
  8
44MM
 10
-0.0764910577577684
 20
-0.2253032287972511
 30
0.0
  0
VERTEX
  5
2B1
  8
44MM
 10
-0.079615268146294
 20
-0.2231119802370598
 30
0.0
  0
VERTEX
  5
2B2
  8
44MM
 10
-0.0827093180633525
 20
-0.2208337918755764
 30
0.0
  0
VERTEX
  5
2B3
  8
44MM
 10
-0.08577205341982
 20
-0.2184698561486881
 30
0.0
  0
VERTEX
  5
2B4
  8
44MM
 10
-0.0888023201265722
 20
-0.2160213654922824
 30
0.0
  0
VERTEX
  5
2B5
  8
44MM
 10
-0.0917989640944851
 20
-0.2134895123422466
 30
0.0
  0
VERTEX
  5
2B6
  8
44MM
 10
-0.0947608312344345
 20
-0.2108754891344679
 30
0.0
  0
VERTEX
  5
2B7
  8
44MM
 10
-0.0976867674572963
 20
-0.2081804883048338
 30
0.0
  0
VERTEX
  5
2B8
  8
44MM
 10
-0.1005756186739463
 20
-0.2054057022892315
 30
0.0
  0
VERTEX
  5
2B9
  8
44MM
 10
-0.1034262307952604
 20
-0.2025523235235484
 30
0.0
  0
VERTEX
  5
2BA
  8
44MM
 10
-0.1062374497321145
 20
-0.1996215444436718
 30
0.0
  0
VERTEX
  5
2BB
  8
44MM
 10
-0.1090081213953845
 20
-0.1966145574854889
 30
0.0
  0
VERTEX
  5
2BC
  8
44MM
 10
-0.1117370916959462
 20
-0.1935325550848873
 30
0.0
  0
VERTEX
  5
2BD
  8
44MM
 10
-0.1144232065446756
 20
-0.1903767296777541
 30
0.0
  0
VERTEX
  5
2BE
  8
44MM
 10
-0.1170653118524484
 20
-0.1871482736999767
 30
0.0
  0
VERTEX
  5
2BF
  8
44MM
 10
-0.1196622535301405
 20
-0.1838483795874424
 30
0.0
  0
VERTEX
  5
2C0
  8
44MM
 10
-0.1222128774886279
 20
-0.1804782397760386
 30
0.0
  0
VERTEX
  5
2C1
  8
44MM
 10
-0.1247160296387863
 20
-0.1770390467016526
 30
0.0
  0
VERTEX
  5
2C2
  8
44MM
 10
-0.1271705558914917
 20
-0.1735319928001716
 30
0.0
  0
VERTEX
  5
2C3
  8
44MM
 10
-0.1295753021576199
 20
-0.1699582705074831
 30
0.0
  0
VERTEX
  5
2C4
  8
44MM
 10
-0.1319291143480469
 20
-0.1663190722594744
 30
0.0
  0
VERTEX
  5
2C5
  8
44MM
 10
-0.1342308383736484
 20
-0.1626155904920328
 30
0.0
  0
VERTEX
  5
2C6
  8
44MM
 10
-0.1364793201453003
 20
-0.1588490176410455
 30
0.0
  0
VERTEX
  5
2C7
  8
44MM
 10
-0.1386734055738785
 20
-0.1550205461424
 30
0.0
  0
VERTEX
  5
2C8
  8
44MM
 10
-0.1408119405702589
 20
-0.1511313684319836
 30
0.0
  0
VERTEX
  5
2C9
  8
44MM
 10
-0.1428937710453174
 20
-0.1471826769456835
 30
0.0
  0
VERTEX
  5
2CA
  8
44MM
 10
-0.1468837055919706
 20
-0.1391123678938483
 30
0.0
  0
VERTEX
  5
2CB
  8
44MM
 10
-0.1506389940858379
 20
-0.1308233859983249
 30
0.0
  0
VERTEX
  5
2CC
  8
44MM
 10
-0.154156424915918
 20
-0.1223303437754101
 30
0.0
  0
VERTEX
  5
2CD
  8
44MM
 10
-0.1574327864712093
 20
-0.1136478537414009
 30
0.0
  0
VERTEX
  5
2CE
  8
44MM
 10
-0.1604648671407103
 20
-0.1047905284125942
 30
0.0
  0
VERTEX
  5
2CF
  8
44MM
 10
-0.1632494553134196
 20
-0.0957729803052869
 30
0.0
  0
VERTEX
  5
2D0
  8
44MM
 10
-0.1657833393783356
 20
-0.0866098219357759
 30
0.0
  0
VERTEX
  5
2D1
  8
44MM
 10
-0.1680633077244569
 20
-0.0773156658203581
 30
0.0
  0
VERTEX
  5
2D2
  8
44MM
 10
-0.1700861487407819
 20
-0.0679051244753304
 30
0.0
  0
VERTEX
  5
2D3
  8
44MM
 10
-0.1718486508163092
 20
-0.0583928104169898
 30
0.0
  0
VERTEX
  5
2D4
  8
44MM
 10
-0.1733476023400374
 20
-0.048793336161633
 30
0.0
  0
VERTEX
  5
2D5
  8
44MM
 10
-0.1745797917009648
 20
-0.0391213142255571
 30
0.0
  0
VERTEX
  5
2D6
  8
44MM
 10
-0.1755420072880901
 20
-0.0293913571250589
 30
0.0
  0
VERTEX
  5
2D7
  8
44MM
 10
-0.1762310374904117
 20
-0.0196180773764354
 30
0.0
  0
VERTEX
  5
2D8
  8
44MM
 10
-0.1766436706969282
 20
-0.0098160874959834
 30
0.0
  0
VERTEX
  5
2D9
  8
44MM
 10
-0.176776695296638
 20
0.0000000000000001
 30
0.0
  0
SEQEND
  5
2DA
  8
44MM
  0
CIRCLE
  5
2DB
  8
44MM
 10
-0.0000000000000006
 20
-0.0001358736758194
 30
0.0
 40
0.2500000369233089
  0
ENDSEC
  0
EOF
