  0
SECTION
  2
HEADER
  9
$ACADVER
  1
AC1009
  9
$DWGCODEPAGE
  3
ansi_1252
  9
$INSBASE
 10
0.0
 20
0.0
 30
0.0
  9
$EXTMIN
 10
-0.8420669899945257
 20
-0.2501359105991355
 30
0.0
  9
$EXTMAX
 10
39.05848286800882
 20
0.2501359105991283
 30
0.0
  9
$LIMMIN
 10
0.0
 20
0.0
  9
$LIMMAX
 10
12.0
 20
9.0
  9
$ORTHOMODE
 70
     0
  9
$REGENMODE
 70
     1
  9
$FILLMODE
 70
     1
  9
$QTEXTMODE
 70
     0
  9
$MIRRTEXT
 70
     1
  9
$DRAGMODE
 70
     2
  9
$LTSCALE
 40
1.0
  9
$OSMODE
 70
    37
  9
$ATTMODE
 70
     1
  9
$TEXTSIZE
 40
0.2
  9
$TRACEWID
 40
0.05
  9
$TEXTSTYLE
  7
STANDARD
  9
$CLAYER
  8
DEFAULT
  9
$CELTYPE
  6
BYLAYER
  9
$CECOLOR
 62
   256
  9
$DIMSCALE
 40
1.0
  9
$DIMASZ
 40
0.18
  9
$DIMEXO
 40
0.0625
  9
$DIMDLI
 40
0.38
  9
$DIMRND
 40
0.0
  9
$DIMDLE
 40
0.0
  9
$DIMEXE
 40
0.18
  9
$DIMTP
 40
0.0
  9
$DIMTM
 40
0.0
  9
$DIMTXT
 40
0.18
  9
$DIMCEN
 40
0.09
  9
$DIMTSZ
 40
0.0
  9
$DIMTOL
 70
     0
  9
$DIMLIM
 70
     0
  9
$DIMTIH
 70
     1
  9
$DIMTOH
 70
     1
  9
$DIMSE1
 70
     0
  9
$DIMSE2
 70
     0
  9
$DIMTAD
 70
     0
  9
$DIMZIN
 70
     0
  9
$DIMBLK
  1

  9
$DIMASO
 70
     1
  9
$DIMSHO
 70
     1
  9
$DIMPOST
  1

  9
$DIMAPOST
  1

  9
$DIMALT
 70
     0
  9
$DIMALTD
 70
     2
  9
$DIMALTF
 40
25.4
  9
$DIMLFAC
 40
1.0
  9
$DIMTOFL
 70
     0
  9
$DIMTVP
 40
0.0
  9
$DIMTIX
 70
     0
  9
$DIMSOXD
 70
     0
  9
$DIMSAH
 70
     0
  9
$DIMBLK1
  1

  9
$DIMBLK2
  1

  9
$DIMSTYLE
  2
STANDARD
  9
$DIMCLRD
 70
     0
  9
$DIMCLRE
 70
     0
  9
$DIMCLRT
 70
     0
  9
$DIMTFAC
 40
1.0
  9
$DIMGAP
 40
0.09
  9
$LUNITS
 70
     2
  9
$LUPREC
 70
     3
  9
$SKETCHINC
 40
0.1
  9
$FILLETRAD
 40
0.5
  9
$AUNITS
 70
     0
  9
$AUPREC
 70
     0
  9
$MENU
  1
.
  9
$ELEVATION
 40
0.0
  9
$PELEVATION
 40
0.0
  9
$THICKNESS
 40
0.0
  9
$LIMCHECK
 70
     0
  9
$CHAMFERA
 40
0.5
  9
$CHAMFERB
 40
0.5
  9
$SKPOLY
 70
     0
  9
$TDCREATE
 40
2458882.908518021
  9
$TDUPDATE
 40
2458882.908518033
  9
$TDINDWG
 40
0.0000000116
  9
$TDUSRTIMER
 40
0.0000000116
  9
$USRTIMER
 70
     1
  9
$ANGBASE
 50
0.0
  9
$ANGDIR
 70
     0
  9
$PDMODE
 70
     0
  9
$PDSIZE
 40
0.0
  9
$PLINEWID
 40
0.0
  9
$COORDS
 70
     1
  9
$SPLFRAME
 70
     0
  9
$SPLINETYPE
 70
     6
  9
$SPLINESEGS
 70
     8
  9
$ATTDIA
 70
     0
  9
$ATTREQ
 70
     1
  9
$HANDLING
 70
     1
  9
$HANDSEED
  5
2E5
  9
$SURFTAB1
 70
     6
  9
$SURFTAB2
 70
     6
  9
$SURFTYPE
 70
     6
  9
$SURFU
 70
     6
  9
$SURFV
 70
     6
  9
$UCSNAME
  2

  9
$UCSORG
 10
0.0
 20
0.0
 30
0.0
  9
$UCSXDIR
 10
1.0
 20
0.0
 30
0.0
  9
$UCSYDIR
 10
0.0
 20
1.0
 30
0.0
  9
$PUCSNAME
  2

  9
$PUCSORG
 10
0.0
 20
0.0
 30
0.0
  9
$PUCSXDIR
 10
1.0
 20
0.0
 30
0.0
  9
$PUCSYDIR
 10
0.0
 20
1.0
 30
0.0
  9
$USERI1
 70
     0
  9
$USERI2
 70
     0
  9
$USERI3
 70
     0
  9
$USERI4
 70
     0
  9
$USERI5
 70
     0
  9
$USERR1
 40
0.0
  9
$USERR2
 40
0.0
  9
$USERR3
 40
0.0
  9
$USERR4
 40
0.0
  9
$USERR5
 40
0.0
  9
$WORLDVIEW
 70
     1
  9
$SHADEDGE
 70
     3
  9
$SHADEDIF
 70
    70
  9
$TILEMODE
 70
     1
  9
$MAXACTVP
 70
    64
  9
$PLIMCHECK
 70
     0
  9
$PEXTMIN
 10
1.000000000000000E+20
 20
1.000000000000000E+20
 30
1.000000000000000E+20
  9
$PEXTMAX
 10
-1.000000000000000E+20
 20
-1.000000000000000E+20
 30
-1.000000000000000E+20
  9
$PLIMMIN
 10
0.0
 20
0.0
  9
$PLIMMAX
 10
12.0
 20
9.0
  9
$UNITMODE
 70
     0
  9
$VISRETAIN
 70
     1
  9
$PLINEGEN
 70
     0
  9
$PSLTSCALE
 70
     1
  0
ENDSEC
  0
SECTION
  2
TABLES
  0
TABLE
  2
VPORT
 70
     1
  0
VPORT
  2
*ACTIVE
 70
     0
 10
0.0
 20
0.0
 11
1.0
 21
1.0
 12
19.10820793900715
 22
-0.0000000000000037
 13
0.0
 23
0.0
 14
0.5
 24
0.5
 15
0.5
 25
0.5
 16
0.0
 26
0.0
 36
1.0
 17
0.0
 27
0.0
 37
0.0
 40
0.510277257622229
 41
79.75774002707678
 42
50.0
 43
0.0
 44
0.0
 50
0.0
 51
0.0
 71
     0
 72
   100
 73
     1
 74
     3
 75
     0
 76
     0
 77
     0
 78
     0
  0
ENDTAB
  0
TABLE
  2
LTYPE
 70
     1
  0
LTYPE
  2
CONTINUOUS
 70
     0
  3
Solid line
 72
    65
 73
     0
 40
0.0
  0
ENDTAB
  0
TABLE
  2
LAYER
 70
     2
  0
LAYER
  2
0
 70
     0
 62
     7
  6
CONTINUOUS
  0
LAYER
  2
DEFAULT
 70
     0
 62
    30
  6
CONTINUOUS
  0
ENDTAB
  0
TABLE
  2
STYLE
 70
     1
  0
STYLE
  2
STANDARD
 70
     0
 40
0.0
 41
1.0
 50
0.0
 71
     0
 42
0.2
  3
txt
  4

  0
ENDTAB
  0
TABLE
  2
VIEW
 70
     0
  0
ENDTAB
  0
TABLE
  2
UCS
 70
     0
  0
ENDTAB
  0
TABLE
  2
APPID
 70
     1
  0
APPID
  2
ACAD
 70
     0
  0
ENDTAB
  0
TABLE
  2
DIMSTYLE
 70
     1
  0
DIMSTYLE
  2
STANDARD
 70
     0
  3

  4

  5

  6

  7

 40
1.0
 41
0.18
 42
0.0625
 43
0.38
 44
0.18
 45
0.0
 46
0.0
 47
0.0
 48
0.0
140
0.18
141
0.09
142
0.0
143
25.4
144
1.0
145
0.0
146
1.0
147
0.09
 71
     0
 72
     0
 73
     1
 74
     1
 75
     0
 76
     0
 77
     0
 78
     0
170
     0
171
     2
172
     0
173
     0
174
     0
175
     0
176
     0
177
     0
178
     0
  0
ENDTAB
  0
ENDSEC
  0
SECTION
  2
BLOCKS
  0
BLOCK
  8
0
  2
$MODEL_SPACE
 70
     0
 10
0.0
 20
0.0
 30
0.0
  3
$MODEL_SPACE
  1

  0
ENDBLK
  5
21
  8
0
  0
BLOCK
 67
     1
  8
0
  2
$PAPER_SPACE
 70
     0
 10
0.0
 20
0.0
 30
0.0
  3
$PAPER_SPACE
  1

  0
ENDBLK
  5
1D
 67
     1
  8
0
  0
ENDSEC
  0
SECTION
  2
ENTITIES
  0
POLYLINE
  5
3C
  8
DEFAULT
 66
     1
 10
0.0
 20
0.0
 30
0.0
  0
VERTEX
  5
3D
  8
DEFAULT
 10
0.25
 20
0.0
 30
0.0
  0
VERTEX
  5
3E
  8
DEFAULT
 10
0.3931791980144508
 20
0.0
 30
0.0
  0
VERTEX
  5
3F
  8
DEFAULT
 10
0.3931768664202975
 20
0.0
 30
0.0
  0
VERTEX
  5
40
  8
DEFAULT
 10
-0.4011696912841346
 20
0.0
 30
0.0
  0
VERTEX
  5
41
  8
DEFAULT
 10
-0.4010946252193696
 20
0.0
 30
0.0
  0
VERTEX
  5
42
  8
DEFAULT
 10
38.61764648934169
 20
0.0
 30
0.0
  0
VERTEX
  5
43
  8
DEFAULT
 10
38.61742604325262
 20
0.0
 30
0.0
  0
VERTEX
  5
44
  8
DEFAULT
 10
37.55920626011103
 20
0.0000000000000001
 30
0.0
  0
VERTEX
  5
45
  8
DEFAULT
 10
37.55923626829414
 20
0.0000000000000001
 30
0.0
  0
VERTEX
  5
46
  8
DEFAULT
 10
37.75
 20
0.0000000000000001
 30
0.0
  0
SEQEND
  5
47
  8
DEFAULT
  0
CIRCLE
  5
48
  8
DEFAULT
 10
38.00000000000001
 20
-0.0001358736758196
 30
0.0
 40
0.250000036923316
  0
CIRCLE
  5
49
  8
DEFAULT
 10
0.0
 20
0.0001358736758194
 30
0.0
 40
0.2500000369233089
  0
POLYLINE
  5
4A
  8
DEFAULT
 66
     1
 10
0.0
 20
0.0
 30
0.0
  0
VERTEX
  5
4B
  8
DEFAULT
 10
0.2022841603497272
 20
0.1469051342588335
 30
0.0
  0
VERTEX
  5
4C
  8
DEFAULT
 10
0.3441805380153473
 20
0.1469051342588334
 30
0.0
  0
VERTEX
  5
4D
  8
DEFAULT
 10
0.3441963522388466
 20
0.1469051342588334
 30
0.0
  0
VERTEX
  5
4E
  8
DEFAULT
 10
-0.4430871596971242
 20
0.1469051342588334
 30
0.0
  0
VERTEX
  5
4F
  8
DEFAULT
 10
-0.4428864084905631
 20
0.1469051342588334
 30
0.0
  0
VERTEX
  5
50
  8
DEFAULT
 10
38.65956395775468
 20
0.1469051342588334
 30
0.0
  0
VERTEX
  5
51
  8
DEFAULT
 10
38.65946738950312
 20
0.1469051342588334
 30
0.0
  0
VERTEX
  5
52
  8
DEFAULT
 10
37.60818677429248
 20
0.1469051342588333
 30
0.0
  0
VERTEX
  5
53
  8
DEFAULT
 10
37.60823492829325
 20
0.1469051342588333
 30
0.0
  0
VERTEX
  5
54
  8
DEFAULT
 10
37.79771583965027
 20
0.1469051342588333
 30
0.0
  0
SEQEND
  5
55
  8
DEFAULT
  0
POLYLINE
  5
56
  8
DEFAULT
 66
     1
 10
0.0
 20
0.0
 30
0.0
  0
VERTEX
  5
57
  8
DEFAULT
 10
0.0783236424497483
 20
0.2374139992363635
 30
0.0
  0
VERTEX
  5
58
  8
DEFAULT
 10
0.2169503486173806
 20
0.2374139992363635
 30
0.0
  0
VERTEX
  5
59
  8
DEFAULT
 10
0.2169006749952569
 20
0.2374139992363635
 30
0.0
  0
VERTEX
  5
5A
  8
DEFAULT
 10
-0.552098584326298
 20
0.2374139992363635
 30
0.0
  0
VERTEX
  5
5B
  8
DEFAULT
 10
-0.5519841450926324
 20
0.2374139992363635
 30
0.0
  0
VERTEX
  5
5C
  8
DEFAULT
 10
38.76846094315019
 20
0.2374139992363635
 30
0.0
  0
VERTEX
  5
5D
  8
DEFAULT
 10
38.76868619593344
 20
0.2374139992363635
 30
0.0
  0
VERTEX
  5
5E
  8
DEFAULT
 10
37.73548904210679
 20
0.2374139992363634
 30
0.0
  0
VERTEX
  5
5F
  8
DEFAULT
 10
37.73543277791394
 20
0.2374139992363634
 30
0.0
  0
VERTEX
  5
60
  8
DEFAULT
 10
37.92167635755025
 20
0.2374139992363634
 30
0.0
  0
SEQEND
  5
61
  8
DEFAULT
  0
POLYLINE
  5
62
  8
DEFAULT
 66
     1
 10
0.0
 20
0.0
 30
0.0
  0
VERTEX
  5
63
  8
DEFAULT
 10
-0.0761893914141756
 20
0.2381074896678756
 30
0.0
  0
VERTEX
  5
64
  8
DEFAULT
 10
-0.0762219847345662
 20
0.2381074896678756
 30
0.0
  0
VERTEX
  5
65
  8
DEFAULT
 10
0.0583420562377315
 20
0.2381074896678756
 30
0.0
  0
VERTEX
  5
66
  8
DEFAULT
 10
0.058353091771407
 20
0.2381074896678756
 30
0.0
  0
VERTEX
  5
67
  8
DEFAULT
 10
-0.6883413605713307
 20
0.2381074896678756
 30
0.0
  0
VERTEX
  5
68
  8
DEFAULT
 10
-0.6882365210051591
 20
0.2381074896678756
 30
0.0
  0
VERTEX
  5
69
  8
DEFAULT
 10
38.9048241326123
 20
0.2381074896678757
 30
0.0
  0
VERTEX
  5
6A
  8
DEFAULT
 10
38.90489755201573
 20
0.2381074896678757
 30
0.0
  0
VERTEX
  5
6B
  8
DEFAULT
 10
37.89403662533065
 20
0.2381074896678757
 30
0.0
  0
VERTEX
  5
6C
  8
DEFAULT
 10
37.8940410702936
 20
0.2381074896678757
 30
0.0
  0
VERTEX
  5
6D
  8
DEFAULT
 10
38.07620251956057
 20
0.2381074896678757
 30
0.0
  0
VERTEX
  5
6E
  8
DEFAULT
 10
38.07618939141418
 20
0.2381074896678757
 30
0.0
  0
SEQEND
  5
6F
  8
DEFAULT
  0
POLYLINE
  5
70
  8
DEFAULT
 66
     1
 10
0.0
 20
0.0
 30
0.0
  0
VERTEX
  5
71
  8
DEFAULT
 10
-0.2020823089909222
 20
0.1471826769456836
 30
0.0
  0
VERTEX
  5
72
  8
DEFAULT
 10
-0.2023249604656628
 20
0.1471826769456836
 30
0.0
  0
VERTEX
  5
73
  8
DEFAULT
 10
-0.2022768726556995
 20
0.1471826769456836
 30
0.0
  0
VERTEX
  5
74
  8
DEFAULT
 10
-0.0708270642817763
 20
0.1471826769456836
 30
0.0
  0
VERTEX
  5
75
  8
DEFAULT
 10
-0.07087831977001
 20
0.1471826769456836
 30
0.0
  0
VERTEX
  5
76
  8
DEFAULT
 10
-0.7996043647017888
 20
0.1471826769456836
 30
0.0
  0
VERTEX
  5
77
  8
DEFAULT
 10
-0.799584878355637
 20
0.1471826769456836
 30
0.0
  0
VERTEX
  5
78
  8
DEFAULT
 10
39.01614106980003
 20
0.1471826769456835
 30
0.0
  0
VERTEX
  5
79
  8
DEFAULT
 10
39.01598966111466
 20
0.1471826769456835
 30
0.0
  0
VERTEX
  5
7A
  8
DEFAULT
 10
38.02321678138382
 20
0.1471826769456835
 30
0.0
  0
VERTEX
  5
7B
  8
DEFAULT
 10
38.02327069047647
 20
0.1471826769456835
 30
0.0
  0
VERTEX
  5
7C
  8
DEFAULT
 10
38.20224771284602
 20
0.1471826769456835
 30
0.0
  0
VERTEX
  5
7D
  8
DEFAULT
 10
38.20224152886921
 20
0.1471826769456835
 30
0.0
  0
VERTEX
  5
7E
  8
DEFAULT
 10
38.20208230899092
 20
0.1471826769456835
 30
0.0
  0
SEQEND
  5
7F
  8
DEFAULT
  0
POLYLINE
  5
80
  8
DEFAULT
 66
     1
 10
0.0
 20
0.0
 30
0.0
  0
VERTEX
  5
81
  8
DEFAULT
 10
-0.2500000000000001
 20
0.0
 30
0.0
  0
VERTEX
  5
82
  8
DEFAULT
 10
-0.2503527163300214
 20
0.0
 30
0.0
  0
VERTEX
  5
83
  8
DEFAULT
 10
-0.2503579472358983
 20
0.0
 30
0.0
  0
VERTEX
  5
84
  8
DEFAULT
 10
-0.1199959525831168
 20
0.0
 30
0.0
  0
VERTEX
  5
85
  8
DEFAULT
 10
-0.1200277827731407
 20
0.0
 30
0.0
  0
VERTEX
  5
86
  8
DEFAULT
 10
-0.8420669899945257
 20
0.0
 30
0.0
  0
VERTEX
  5
87
  8
DEFAULT
 10
-0.8419266765644335
 20
0.0
 30
0.0
  0
VERTEX
  5
88
  8
DEFAULT
 10
39.05848286800882
 20
0.0
 30
0.0
  0
VERTEX
  5
89
  8
DEFAULT
 10
39.0584522864074
 20
0.0
 30
0.0
  0
VERTEX
  5
8A
  8
DEFAULT
 10
38.07238566968516
 20
-0.0000000000000001
 30
0.0
  0
VERTEX
  5
8B
  8
DEFAULT
 10
38.07245840594401
 20
-0.0000000000000001
 30
0.0
  0
VERTEX
  5
8C
  8
DEFAULT
 10
38.25027546871039
 20
-0.0000000000000001
 30
0.0
  0
VERTEX
  5
8D
  8
DEFAULT
 10
38.25021482569475
 20
-0.0000000000000001
 30
0.0
  0
VERTEX
  5
8E
  8
DEFAULT
 10
38.25
 20
-0.0000000000000001
 30
0.0
  0
SEQEND
  5
8F
  8
DEFAULT
  0
POLYLINE
  5
90
  8
DEFAULT
 66
     1
 10
0.0
 20
0.0
 30
0.0
  0
VERTEX
  5
91
  8
DEFAULT
 10
-0.2022841603497272
 20
-0.1469051342588334
 30
0.0
  0
VERTEX
  5
92
  8
DEFAULT
 10
-0.202527275468273
 20
-0.1469051342588334
 30
0.0
  0
VERTEX
  5
93
  8
DEFAULT
 10
-0.2024794122612697
 20
-0.1469051342588334
 30
0.0
  0
VERTEX
  5
94
  8
DEFAULT
 10
-0.0710341862591829
 20
-0.1469051342588334
 30
0.0
  0
VERTEX
  5
95
  8
DEFAULT
 10
-0.0710853599191239
 20
-0.1469051342588334
 30
0.0
  0
VERTEX
  5
96
  8
DEFAULT
 10
-0.799783236814223
 20
-0.1469051342588334
 30
0.0
  0
VERTEX
  5
97
  8
DEFAULT
 10
-0.7997632414888081
 20
-0.1469051342588334
 30
0.0
  0
VERTEX
  5
98
  8
DEFAULT
 10
39.01631943293321
 20
-0.1469051342588334
 30
0.0
  0
VERTEX
  5
99
  8
DEFAULT
 10
39.0161685332271
 20
-0.1469051342588334
 30
0.0
  0
VERTEX
  5
9A
  8
DEFAULT
 10
38.02342390336123
 20
-0.1469051342588336
 30
0.0
  0
VERTEX
  5
9B
  8
DEFAULT
 10
38.02347789176257
 20
-0.1469051342588336
 30
0.0
  0
VERTEX
  5
9C
  8
DEFAULT
 10
38.20245002784865
 20
-0.1469051342588336
 30
0.0
  0
VERTEX
  5
9D
  8
DEFAULT
 10
38.20244361446531
 20
-0.1469051342588336
 30
0.0
  0
VERTEX
  5
9E
  8
DEFAULT
 10
38.20228416034973
 20
-0.1469051342588336
 30
0.0
  0
SEQEND
  5
9F
  8
DEFAULT
  0
POLYLINE
  5
A0
  8
DEFAULT
 66
     1
 10
0.0
 20
0.0
 30
0.0
  0
VERTEX
  5
A1
  8
DEFAULT
 10
-0.0783236424497483
 20
-0.2374139992363634
 30
0.0
  0
VERTEX
  5
A2
  8
DEFAULT
 10
-0.0783587124498131
 20
-0.2374139992363634
 30
0.0
  0
VERTEX
  5
A3
  8
DEFAULT
 10
0.0561512383902235
 20
-0.2374139992363634
 30
0.0
  0
VERTEX
  5
A4
  8
DEFAULT
 10
0.0561631124847336
 20
-0.2374139992363634
 30
0.0
  0
VERTEX
  5
A5
  8
DEFAULT
 10
-0.6902272616815909
 20
-0.2374139992363634
 30
0.0
  0
VERTEX
  5
A6
  8
DEFAULT
 10
-0.6901169612830547
 20
-0.2374139992363634
 30
0.0
  0
VERTEX
  5
A7
  8
DEFAULT
 10
38.90670457289019
 20
-0.2374139992363635
 30
0.0
  0
VERTEX
  5
A8
  8
DEFAULT
 10
38.90678345312598
 20
-0.2374139992363635
 30
0.0
  0
VERTEX
  5
A9
  8
DEFAULT
 10
37.89622660461732
 20
-0.2374139992363635
 30
0.0
  0
VERTEX
  5
AA
  8
DEFAULT
 10
37.8962318881411
 20
-0.2374139992363635
 30
0.0
  0
VERTEX
  5
AB
  8
DEFAULT
 10
38.07833924727583
 20
-0.2374139992363635
 30
0.0
  0
VERTEX
  5
AC
  8
DEFAULT
 10
38.07832364244975
 20
-0.2374139992363635
 30
0.0
  0
SEQEND
  5
AD
  8
DEFAULT
  0
POLYLINE
  5
AE
  8
DEFAULT
 66
     1
 10
0.0
 20
0.0
 30
0.0
  0
VERTEX
  5
AF
  8
DEFAULT
 10
0.0761893914141756
 20
-0.2381074896678757
 30
0.0
  0
VERTEX
  5
B0
  8
DEFAULT
 10
0.2147595307698726
 20
-0.2381074896678757
 30
0.0
  0
VERTEX
  5
B1
  8
DEFAULT
 10
0.2147106957085836
 20
-0.2381074896678757
 30
0.0
  0
VERTEX
  5
B2
  8
DEFAULT
 10
-0.5539790246041939
 20
-0.2381074896678758
 30
0.0
  0
VERTEX
  5
B3
  8
DEFAULT
 10
-0.5538590445185824
 20
-0.2381074896678758
 30
0.0
  0
VERTEX
  5
B4
  8
DEFAULT
 10
38.77033584257613
 20
-0.2381074896678758
 30
0.0
  0
VERTEX
  5
B5
  8
DEFAULT
 10
38.77056663621133
 20
-0.2381074896678758
 30
0.0
  0
VERTEX
  5
B6
  8
DEFAULT
 10
37.73767902139348
 20
-0.2381074896678756
 30
0.0
  0
VERTEX
  5
B7
  8
DEFAULT
 10
37.73762359576146
 20
-0.2381074896678756
 30
0.0
  0
VERTEX
  5
B8
  8
DEFAULT
 10
37.92381060858582
 20
-0.2381074896678757
 30
0.0
  0
SEQEND
  5
B9
  8
DEFAULT
  0
POLYLINE
  5
BA
  8
DEFAULT
 66
     1
 10
0.0
 20
0.0
 30
0.0
  0
VERTEX
  5
BB
  8
DEFAULT
 10
0.2020823089909221
 20
-0.1471826769456836
 30
0.0
  0
VERTEX
  5
BC
  8
DEFAULT
 10
0.3439732599673672
 20
-0.1471826769456836
 30
0.0
  0
VERTEX
  5
BD
  8
DEFAULT
 10
0.3439891509527547
 20
-0.1471826769456836
 30
0.0
  0
VERTEX
  5
BE
  8
DEFAULT
 10
-0.4432644823224587
 20
-0.1471826769456836
 30
0.0
  0
VERTEX
  5
BF
  8
DEFAULT
 10
-0.4430631994325649
 20
-0.1471826769456836
 30
0.0
  0
VERTEX
  5
C0
  8
DEFAULT
 10
38.65974128038002
 20
-0.1471826769456835
 30
0.0
  0
VERTEX
  5
C1
  8
DEFAULT
 10
38.65964523616638
 20
-0.1471826769456835
 30
0.0
  0
VERTEX
  5
C2
  8
DEFAULT
 10
37.60839397557857
 20
-0.1471826769456835
 30
0.0
  0
VERTEX
  5
C3
  8
DEFAULT
 10
37.60844220634123
 20
-0.1471826769456835
 30
0.0
  0
VERTEX
  5
C4
  8
DEFAULT
 10
37.79791769100908
 20
-0.1471826769456835
 30
0.0
  0
SEQEND
  5
C5
  8
DEFAULT
  0
CIRCLE
  5
C6
  8
DEFAULT
 10
0.0
 20
-0.0001358736758194
 30
0.0
 40
0.2500000369233089
  0
POLYLINE
  5
C7
  8
DEFAULT
 66
     1
 10
0.0
 20
0.0
 30
0.0
  0
VERTEX
  5
C8
  8
DEFAULT
 10
0.1767766952966363
 20
0.0
 30
0.0
  0
VERTEX
  5
C9
  8
DEFAULT
 10
0.1766280663918487
 20
0.009815537017071
 30
0.0
  0
VERTEX
  5
CA
  8
DEFAULT
 10
0.176200405938116
 20
0.0196157331481965
 30
0.0
  0
VERTEX
  5
CB
  8
DEFAULT
 10
0.1754975026043012
 20
0.0293857624081966
 30
0.0
  0
VERTEX
  5
CC
  8
DEFAULT
 10
0.1745231450592674
 20
0.039110798811891
 30
0.0
  0
VERTEX
  5
CD
  8
DEFAULT
 10
0.1732811219718776
 20
0.0487760163740996
 30
0.0
  0
VERTEX
  5
CE
  8
DEFAULT
 10
0.1717752220109948
 20
0.0583665891096425
 30
0.0
  0
VERTEX
  5
CF
  8
DEFAULT
 10
0.170009233845482
 20
0.0678676910333396
 30
0.0
  0
VERTEX
  5
D0
  8
DEFAULT
 10
0.1679869461442023
 20
0.0772644961600106
 30
0.0
  0
VERTEX
  5
D1
  8
DEFAULT
 10
0.1657121475760186
 20
0.0865421785044756
 30
0.0
  0
VERTEX
  5
D2
  8
DEFAULT
 10
0.1631886268097941
 20
0.0956859120815544
 30
0.0
  0
VERTEX
  5
D3
  8
DEFAULT
 10
0.1604201725143918
 20
0.104680870906067
 30
0.0
  0
VERTEX
  5
D4
  8
DEFAULT
 10
0.1574105733586746
 20
0.1135122289928333
 30
0.0
  0
VERTEX
  5
D5
  8
DEFAULT
 10
0.1541636180115057
 20
0.1221651603566732
 30
0.0
  0
VERTEX
  5
D6
  8
DEFAULT
 10
0.150683095141748
 20
0.1306248390124066
 30
0.0
  0
VERTEX
  5
D7
  8
DEFAULT
 10
0.1469727934182645
 20
0.1388764389748534
 30
0.0
  0
VERTEX
  5
D8
  8
DEFAULT
 10
0.1430365015099184
 20
0.1469051342588335
 30
0.0
  0
VERTEX
  5
D9
  8
DEFAULT
 10
0.138878733295308
 20
0.1546971884252148
 30
0.0
  0
VERTEX
  5
DA
  8
DEFAULT
 10
0.1367190673467764
 20
0.1585014762880089
 30
0.0
  0
VERTEX
  5
DB
  8
DEFAULT
 10
0.1345069034919733
 20
0.1622432232190567
 30
0.0
  0
VERTEX
  5
DC
  8
DEFAULT
 10
0.1322432592218079
 20
0.1659213931297465
 30
0.0
  0
VERTEX
  5
DD
  8
DEFAULT
 10
0.1299291520271896
 20
0.1695349499314667
 30
0.0
  0
VERTEX
  5
DE
  8
DEFAULT
 10
0.127565599399028
 20
0.1730828575356058
 30
0.0
  0
VERTEX
  5
DF
  8
DEFAULT
 10
0.1251536188282324
 20
0.1765640798535522
 30
0.0
  0
VERTEX
  5
E0
  8
DEFAULT
 10
0.1226942278057123
 20
0.1799775807966943
 30
0.0
  0
VERTEX
  5
E1
  8
DEFAULT
 10
0.1201884438223771
 20
0.1833223242764206
 30
0.0
  0
VERTEX
  5
E2
  8
DEFAULT
 10
0.1176372843691362
 20
0.1865972742041194
 30
0.0
  0
VERTEX
  5
E3
  8
DEFAULT
 10
0.115041766936899
 20
0.1898013944911792
 30
0.0
  0
VERTEX
  5
E4
  8
DEFAULT
 10
0.1124029090165749
 20
0.1929336490489885
 30
0.0
  0
VERTEX
  5
E5
  8
DEFAULT
 10
0.1097217280990734
 20
0.1959930017889356
 30
0.0
  0
VERTEX
  5
E6
  8
DEFAULT
 10
0.1069992416753039
 20
0.198978416622409
 30
0.0
  0
VERTEX
  5
E7
  8
DEFAULT
 10
0.1042364672361758
 20
0.2018888574607971
 30
0.0
  0
VERTEX
  5
E8
  8
DEFAULT
 10
0.1014344222725986
 20
0.2047232882154884
 30
0.0
  0
VERTEX
  5
E9
  8
DEFAULT
 10
0.0985941242754816
 20
0.2074806727978712
 30
0.0
  0
VERTEX
  5
EA
  8
DEFAULT
 10
0.0957165907357343
 20
0.210159975119334
 30
0.0
  0
VERTEX
  5
EB
  8
DEFAULT
 10
0.0928028391442661
 20
0.2127601590912652
 30
0.0
  0
VERTEX
  5
EC
  8
DEFAULT
 10
0.0898538869919864
 20
0.2152801886250533
 30
0.0
  0
VERTEX
  5
ED
  8
DEFAULT
 10
0.0868707517698046
 20
0.2177190276320866
 30
0.0
  0
VERTEX
  5
EE
  8
DEFAULT
 10
0.0838544509686303
 20
0.2200756400237536
 30
0.0
  0
VERTEX
  5
EF
  8
DEFAULT
 10
0.0808060020793727
 20
0.2223489897114427
 30
0.0
  0
VERTEX
  5
F0
  8
DEFAULT
 10
0.0777264225929413
 20
0.2245380406065424
 30
0.0
  0
VERTEX
  5
F1
  8
DEFAULT
 10
0.0746167300002456
 20
0.2266417566204411
 30
0.0
  0
VERTEX
  5
F2
  8
DEFAULT
 10
0.0714779417921949
 20
0.2286591016645272
 30
0.0
  0
VERTEX
  5
F3
  8
DEFAULT
 10
0.0683110754596987
 20
0.2305890396501891
 30
0.0
  0
VERTEX
  5
F4
  8
DEFAULT
 10
0.0651171484936664
 20
0.2324305344888152
 30
0.0
  0
VERTEX
  5
F5
  8
DEFAULT
 10
0.0618971783850074
 20
0.2341825500917941
 30
0.0
  0
VERTEX
  5
F6
  8
DEFAULT
 10
0.0586521826246312
 20
0.235844050370514
 30
0.0
  0
VERTEX
  5
F7
  8
DEFAULT
 10
0.0553831787034471
 20
0.2374139992363635
 30
0.0
  0
VERTEX
  5
F8
  8
DEFAULT
 10
0.0520912432723608
 20
0.2388915130124427
 30
0.0
  0
VERTEX
  5
F9
  8
DEFAULT
 10
0.0487776896222628
 20
0.240276317668699
 30
0.0
  0
VERTEX
  5
FA
  8
DEFAULT
 10
0.0454438902040396
 20
0.2415682915867915
 30
0.0
  0
VERTEX
  5
FB
  8
DEFAULT
 10
0.0420912174685779
 20
0.2427673131483792
 30
0.0
  0
VERTEX
  5
FC
  8
DEFAULT
 10
0.0387210438667643
 20
0.2438732607351213
 30
0.0
  0
VERTEX
  5
FD
  8
DEFAULT
 10
0.0353347418494855
 20
0.2448860127286769
 30
0.0
  0
VERTEX
  5
FE
  8
DEFAULT
 10
0.0319336838676282
 20
0.245805447510705
 30
0.0
  0
VERTEX
  5
FF
  8
DEFAULT
 10
0.0285192423720788
 20
0.2466314434628649
 30
0.0
  0
VERTEX
  5
100
  8
DEFAULT
 10
0.0250927898137241
 20
0.2473638789668155
 30
0.0
  0
VERTEX
  5
101
  8
DEFAULT
 10
0.0216556986434508
 20
0.248002632404216
 30
0.0
  0
VERTEX
  5
102
  8
DEFAULT
 10
0.0182093413121454
 20
0.2485475821567255
 30
0.0
  0
VERTEX
  5
103
  8
DEFAULT
 10
0.0147550902706945
 20
0.2489986066060031
 30
0.0
  0
VERTEX
  5
104
  8
DEFAULT
 10
0.0112943179699849
 20
0.249355584133708
 30
0.0
  0
VERTEX
  5
105
  8
DEFAULT
 10
0.0078283968609032
 20
0.2496183931214991
 30
0.0
  0
VERTEX
  5
106
  8
DEFAULT
 10
0.0043586993943359
 20
0.2497869119510357
 30
0.0
  0
VERTEX
  5
107
  8
DEFAULT
 10
0.0008865980211698
 20
0.2498610190039767
 30
0.0
  0
VERTEX
  5
108
  8
DEFAULT
 10
-0.0025865348077086
 20
0.2498405926619814
 30
0.0
  0
VERTEX
  5
109
  8
DEFAULT
 10
-0.0060593266414125
 20
0.2497255113067088
 30
0.0
  0
VERTEX
  5
10A
  8
DEFAULT
 10
-0.0095304050290555
 20
0.249515653319818
 30
0.0
  0
VERTEX
  5
10B
  8
DEFAULT
 10
-0.0129983975197507
 20
0.2492108970829681
 30
0.0
  0
VERTEX
  5
10C
  8
DEFAULT
 10
-0.0164619316626117
 20
0.2488111209778183
 30
0.0
  0
VERTEX
  5
10D
  8
DEFAULT
 10
-0.0199196350067517
 20
0.2483162033860276
 30
0.0
  0
VERTEX
  5
10E
  8
DEFAULT
 10
-0.0233701351012841
 20
0.2477260226892551
 30
0.0
  0
VERTEX
  5
10F
  8
DEFAULT
 10
-0.0268120594953224
 20
0.24704045726916
 30
0.0
  0
VERTEX
  5
110
  8
DEFAULT
 10
-0.0302440357379797
 20
0.2462593855074013
 30
0.0
  0
VERTEX
  5
111
  8
DEFAULT
 10
-0.0336646913783696
 20
0.2453826857856382
 30
0.0
  0
VERTEX
  5
112
  8
DEFAULT
 10
-0.0370726539656054
 20
0.2444102364855297
 30
0.0
  0
VERTEX
  5
113
  8
DEFAULT
 10
-0.0404665510488004
 20
0.243341915988735
 30
0.0
  0
VERTEX
  5
114
  8
DEFAULT
 10
-0.043845010177068
 20
0.2421776026769131
 30
0.0
  0
VERTEX
  5
115
  8
DEFAULT
 10
-0.0472066588995215
 20
0.2409171749317232
 30
0.0
  0
VERTEX
  5
116
  8
DEFAULT
 10
-0.0505501247652744
 20
0.2395605111348243
 30
0.0
  0
VERTEX
  5
117
  8
DEFAULT
 10
-0.0538740353234401
 20
0.2381074896678757
 30
0.0
  0
VERTEX
  5
118
  8
DEFAULT
 10
-0.0571770545167588
 20
0.2365582079215743
 30
0.0
  0
VERTEX
  5
119
  8
DEFAULT
 10
-0.0604579918624795
 20
0.2349136393227695
 30
0.0
  0
VERTEX
  5
11A
  8
DEFAULT
 10
-0.063715693271478
 20
0.2331749763073487
 30
0.0
  0
VERTEX
  5
11B
  8
DEFAULT
 10
-0.0669490046546301
 20
0.2313434113111991
 30
0.0
  0
VERTEX
  5
11C
  8
DEFAULT
 10
-0.0701567719228118
 20
0.2294201367702081
 30
0.0
  0
VERTEX
  5
11D
  8
DEFAULT
 10
-0.073337840986899
 20
0.227406345120263
 30
0.0
  0
VERTEX
  5
11E
  8
DEFAULT
 10
-0.0764910577577674
 20
0.2253032287972511
 30
0.0
  0
VERTEX
  5
11F
  8
DEFAULT
 10
-0.0796152681462929
 20
0.2231119802370597
 30
0.0
  0
VERTEX
  5
120
  8
DEFAULT
 10
-0.0827093180633515
 20
0.2208337918755763
 30
0.0
  0
VERTEX
  5
121
  8
DEFAULT
 10
-0.085772053419819
 20
0.2184698561486881
 30
0.0
  0
VERTEX
  5
122
  8
DEFAULT
 10
-0.0888023201265712
 20
0.2160213654922824
 30
0.0
  0
VERTEX
  5
123
  8
DEFAULT
 10
-0.0917989640944841
 20
0.2134895123422465
 30
0.0
  0
VERTEX
  5
124
  8
DEFAULT
 10
-0.0947608312344335
 20
0.2108754891344679
 30
0.0
  0
VERTEX
  5
125
  8
DEFAULT
 10
-0.0976867674572953
 20
0.2081804883048338
 30
0.0
  0
VERTEX
  5
126
  8
DEFAULT
 10
-0.1005756186739453
 20
0.2054057022892314
 30
0.0
  0
VERTEX
  5
127
  8
DEFAULT
 10
-0.1034262307952595
 20
0.2025523235235483
 30
0.0
  0
VERTEX
  5
128
  8
DEFAULT
 10
-0.1062374497321136
 20
0.1996215444436718
 30
0.0
  0
VERTEX
  5
129
  8
DEFAULT
 10
-0.1090081213953836
 20
0.1966145574854889
 30
0.0
  0
VERTEX
  5
12A
  8
DEFAULT
 10
-0.1117370916959453
 20
0.1935325550848873
 30
0.0
  0
VERTEX
  5
12B
  8
DEFAULT
 10
-0.1144232065446747
 20
0.1903767296777541
 30
0.0
  0
VERTEX
  5
12C
  8
DEFAULT
 10
-0.1170653118524475
 20
0.1871482736999767
 30
0.0
  0
VERTEX
  5
12D
  8
DEFAULT
 10
-0.1196622535301396
 20
0.1838483795874424
 30
0.0
  0
VERTEX
  5
12E
  8
DEFAULT
 10
-0.122212877488627
 20
0.1804782397760386
 30
0.0
  0
VERTEX
  5
12F
  8
DEFAULT
 10
-0.1247160296387855
 20
0.1770390467016526
 30
0.0
  0
VERTEX
  5
130
  8
DEFAULT
 10
-0.1271705558914909
 20
0.1735319928001717
 30
0.0
  0
VERTEX
  5
131
  8
DEFAULT
 10
-0.1295753021576191
 20
0.1699582705074832
 30
0.0
  0
VERTEX
  5
132
  8
DEFAULT
 10
-0.1319291143480461
 20
0.1663190722594745
 30
0.0
  0
VERTEX
  5
133
  8
DEFAULT
 10
-0.1342308383736476
 20
0.1626155904920328
 30
0.0
  0
VERTEX
  5
134
  8
DEFAULT
 10
-0.1364793201452995
 20
0.1588490176410456
 30
0.0
  0
VERTEX
  5
135
  8
DEFAULT
 10
-0.1386734055738778
 20
0.1550205461424001
 30
0.0
  0
VERTEX
  5
136
  8
DEFAULT
 10
-0.1408119405702582
 20
0.1511313684319836
 30
0.0
  0
VERTEX
  5
137
  8
DEFAULT
 10
-0.1428937710453166
 20
0.1471826769456836
 30
0.0
  0
VERTEX
  5
138
  8
DEFAULT
 10
-0.1468837055919698
 20
0.1391123678938483
 30
0.0
  0
VERTEX
  5
139
  8
DEFAULT
 10
-0.1506389940858372
 20
0.1308233859983249
 30
0.0
  0
VERTEX
  5
13A
  8
DEFAULT
 10
-0.1541564249159173
 20
0.1223303437754101
 30
0.0
  0
VERTEX
  5
13B
  8
DEFAULT
 10
-0.1574327864712086
 20
0.113647853741401
 30
0.0
  0
VERTEX
  5
13C
  8
DEFAULT
 10
-0.1604648671407096
 20
0.1047905284125943
 30
0.0
  0
VERTEX
  5
13D
  8
DEFAULT
 10
-0.1632494553134189
 20
0.095772980305287
 30
0.0
  0
VERTEX
  5
13E
  8
DEFAULT
 10
-0.1657833393783349
 20
0.086609821935776
 30
0.0
  0
VERTEX
  5
13F
  8
DEFAULT
 10
-0.1680633077244562
 20
0.0773156658203582
 30
0.0
  0
VERTEX
  5
140
  8
DEFAULT
 10
-0.1700861487407812
 20
0.0679051244753305
 30
0.0
  0
VERTEX
  5
141
  8
DEFAULT
 10
-0.1718486508163086
 20
0.0583928104169899
 30
0.0
  0
VERTEX
  5
142
  8
DEFAULT
 10
-0.1733476023400367
 20
0.0487933361616332
 30
0.0
  0
VERTEX
  5
143
  8
DEFAULT
 10
-0.1745797917009642
 20
0.0391213142255573
 30
0.0
  0
VERTEX
  5
144
  8
DEFAULT
 10
-0.1755420072880894
 20
0.0293913571250591
 30
0.0
  0
VERTEX
  5
145
  8
DEFAULT
 10
-0.176231037490411
 20
0.0196180773764356
 30
0.0
  0
VERTEX
  5
146
  8
DEFAULT
 10
-0.1766436706969274
 20
0.0098160874959836
 30
0.0
  0
VERTEX
  5
147
  8
DEFAULT
 10
-0.1767766952966373
 20
0.0
 30
0.0
  0
VERTEX
  5
148
  8
DEFAULT
 10
-0.1766280663918497
 20
-0.0098155370170709
 30
0.0
  0
VERTEX
  5
149
  8
DEFAULT
 10
-0.176200405938117
 20
-0.0196157331481965
 30
0.0
  0
VERTEX
  5
14A
  8
DEFAULT
 10
-0.1754975026043022
 20
-0.0293857624081965
 30
0.0
  0
VERTEX
  5
14B
  8
DEFAULT
 10
-0.1745231450592684
 20
-0.0391107988118909
 30
0.0
  0
VERTEX
  5
14C
  8
DEFAULT
 10
-0.1732811219718786
 20
-0.0487760163740996
 30
0.0
  0
VERTEX
  5
14D
  8
DEFAULT
 10
-0.1717752220109958
 20
-0.0583665891096425
 30
0.0
  0
VERTEX
  5
14E
  8
DEFAULT
 10
-0.170009233845483
 20
-0.0678676910333395
 30
0.0
  0
VERTEX
  5
14F
  8
DEFAULT
 10
-0.1679869461442033
 20
-0.0772644961600105
 30
0.0
  0
VERTEX
  5
150
  8
DEFAULT
 10
-0.1657121475760197
 20
-0.0865421785044755
 30
0.0
  0
VERTEX
  5
151
  8
DEFAULT
 10
-0.1631886268097952
 20
-0.0956859120815544
 30
0.0
  0
VERTEX
  5
152
  8
DEFAULT
 10
-0.1604201725143928
 20
-0.104680870906067
 30
0.0
  0
VERTEX
  5
153
  8
DEFAULT
 10
-0.1574105733586757
 20
-0.1135122289928332
 30
0.0
  0
VERTEX
  5
154
  8
DEFAULT
 10
-0.1541636180115067
 20
-0.1221651603566731
 30
0.0
  0
VERTEX
  5
155
  8
DEFAULT
 10
-0.150683095141749
 20
-0.1306248390124065
 30
0.0
  0
VERTEX
  5
156
  8
DEFAULT
 10
-0.1469727934182656
 20
-0.1388764389748533
 30
0.0
  0
VERTEX
  5
157
  8
DEFAULT
 10
-0.1430365015099194
 20
-0.1469051342588334
 30
0.0
  0
VERTEX
  5
158
  8
DEFAULT
 10
-0.138878733295309
 20
-0.1546971884252147
 30
0.0
  0
VERTEX
  5
159
  8
DEFAULT
 10
-0.1367190673467774
 20
-0.1585014762880089
 30
0.0
  0
VERTEX
  5
15A
  8
DEFAULT
 10
-0.1345069034919743
 20
-0.1622432232190566
 30
0.0
  0
VERTEX
  5
15B
  8
DEFAULT
 10
-0.1322432592218089
 20
-0.1659213931297464
 30
0.0
  0
VERTEX
  5
15C
  8
DEFAULT
 10
-0.1299291520271906
 20
-0.1695349499314666
 30
0.0
  0
VERTEX
  5
15D
  8
DEFAULT
 10
-0.127565599399029
 20
-0.1730828575356057
 30
0.0
  0
VERTEX
  5
15E
  8
DEFAULT
 10
-0.1251536188282334
 20
-0.1765640798535521
 30
0.0
  0
VERTEX
  5
15F
  8
DEFAULT
 10
-0.1226942278057133
 20
-0.1799775807966942
 30
0.0
  0
VERTEX
  5
160
  8
DEFAULT
 10
-0.1201884438223781
 20
-0.1833223242764205
 30
0.0
  0
VERTEX
  5
161
  8
DEFAULT
 10
-0.1176372843691371
 20
-0.1865972742041193
 30
0.0
  0
VERTEX
  5
162
  8
DEFAULT
 10
-0.1150417669368999
 20
-0.1898013944911791
 30
0.0
  0
VERTEX
  5
163
  8
DEFAULT
 10
-0.1124029090165759
 20
-0.1929336490489884
 30
0.0
  0
VERTEX
  5
164
  8
DEFAULT
 10
-0.1097217280990744
 20
-0.1959930017889355
 30
0.0
  0
VERTEX
  5
165
  8
DEFAULT
 10
-0.1069992416753049
 20
-0.1989784166224089
 30
0.0
  0
VERTEX
  5
166
  8
DEFAULT
 10
-0.1042364672361768
 20
-0.201888857460797
 30
0.0
  0
VERTEX
  5
167
  8
DEFAULT
 10
-0.1014344222725995
 20
-0.2047232882154883
 30
0.0
  0
VERTEX
  5
168
  8
DEFAULT
 10
-0.0985941242754825
 20
-0.2074806727978711
 30
0.0
  0
VERTEX
  5
169
  8
DEFAULT
 10
-0.0957165907357352
 20
-0.2101599751193339
 30
0.0
  0
VERTEX
  5
16A
  8
DEFAULT
 10
-0.092802839144267
 20
-0.2127601590912651
 30
0.0
  0
VERTEX
  5
16B
  8
DEFAULT
 10
-0.0898538869919873
 20
-0.2152801886250532
 30
0.0
  0
VERTEX
  5
16C
  8
DEFAULT
 10
-0.0868707517698056
 20
-0.2177190276320865
 30
0.0
  0
VERTEX
  5
16D
  8
DEFAULT
 10
-0.0838544509686312
 20
-0.2200756400237536
 30
0.0
  0
VERTEX
  5
16E
  8
DEFAULT
 10
-0.0808060020793736
 20
-0.2223489897114427
 30
0.0
  0
VERTEX
  5
16F
  8
DEFAULT
 10
-0.0777264225929422
 20
-0.2245380406065424
 30
0.0
  0
VERTEX
  5
170
  8
DEFAULT
 10
-0.0746167300002465
 20
-0.2266417566204411
 30
0.0
  0
VERTEX
  5
171
  8
DEFAULT
 10
-0.0714779417921958
 20
-0.2286591016645271
 30
0.0
  0
VERTEX
  5
172
  8
DEFAULT
 10
-0.0683110754596996
 20
-0.230589039650189
 30
0.0
  0
VERTEX
  5
173
  8
DEFAULT
 10
-0.0651171484936673
 20
-0.2324305344888152
 30
0.0
  0
VERTEX
  5
174
  8
DEFAULT
 10
-0.0618971783850083
 20
-0.234182550091794
 30
0.0
  0
VERTEX
  5
175
  8
DEFAULT
 10
-0.0586521826246321
 20
-0.235844050370514
 30
0.0
  0
VERTEX
  5
176
  8
DEFAULT
 10
-0.055383178703448
 20
-0.2374139992363635
 30
0.0
  0
VERTEX
  5
177
  8
DEFAULT
 10
-0.0520912432723617
 20
-0.2388915130124427
 30
0.0
  0
VERTEX
  5
178
  8
DEFAULT
 10
-0.0487776896222637
 20
-0.240276317668699
 30
0.0
  0
VERTEX
  5
179
  8
DEFAULT
 10
-0.0454438902040405
 20
-0.2415682915867914
 30
0.0
  0
VERTEX
  5
17A
  8
DEFAULT
 10
-0.0420912174685788
 20
-0.2427673131483792
 30
0.0
  0
VERTEX
  5
17B
  8
DEFAULT
 10
-0.0387210438667652
 20
-0.2438732607351213
 30
0.0
  0
VERTEX
  5
17C
  8
DEFAULT
 10
-0.0353347418494864
 20
-0.2448860127286769
 30
0.0
  0
VERTEX
  5
17D
  8
DEFAULT
 10
-0.031933683867629
 20
-0.245805447510705
 30
0.0
  0
VERTEX
  5
17E
  8
DEFAULT
 10
-0.0285192423720797
 20
-0.2466314434628649
 30
0.0
  0
VERTEX
  5
17F
  8
DEFAULT
 10
-0.025092789813725
 20
-0.2473638789668155
 30
0.0
  0
VERTEX
  5
180
  8
DEFAULT
 10
-0.0216556986434517
 20
-0.248002632404216
 30
0.0
  0
VERTEX
  5
181
  8
DEFAULT
 10
-0.0182093413121463
 20
-0.2485475821567255
 30
0.0
  0
VERTEX
  5
182
  8
DEFAULT
 10
-0.0147550902706954
 20
-0.2489986066060031
 30
0.0
  0
VERTEX
  5
183
  8
DEFAULT
 10
-0.0112943179699858
 20
-0.249355584133708
 30
0.0
  0
VERTEX
  5
184
  8
DEFAULT
 10
-0.0078283968609041
 20
-0.2496183931214991
 30
0.0
  0
VERTEX
  5
185
  8
DEFAULT
 10
-0.0043586993943368
 20
-0.2497869119510357
 30
0.0
  0
VERTEX
  5
186
  8
DEFAULT
 10
-0.0008865980211707
 20
-0.2498610190039767
 30
0.0
  0
VERTEX
  5
187
  8
DEFAULT
 10
0.0025865348077077
 20
-0.2498405926619814
 30
0.0
  0
VERTEX
  5
188
  8
DEFAULT
 10
0.0060593266414117
 20
-0.2497255113067088
 30
0.0
  0
VERTEX
  5
189
  8
DEFAULT
 10
0.0095304050290546
 20
-0.249515653319818
 30
0.0
  0
VERTEX
  5
18A
  8
DEFAULT
 10
0.0129983975197498
 20
-0.2492108970829681
 30
0.0
  0
VERTEX
  5
18B
  8
DEFAULT
 10
0.0164619316626108
 20
-0.2488111209778183
 30
0.0
  0
VERTEX
  5
18C
  8
DEFAULT
 10
0.0199196350067508
 20
-0.2483162033860276
 30
0.0
  0
VERTEX
  5
18D
  8
DEFAULT
 10
0.0233701351012832
 20
-0.2477260226892552
 30
0.0
  0
VERTEX
  5
18E
  8
DEFAULT
 10
0.0268120594953215
 20
-0.24704045726916
 30
0.0
  0
VERTEX
  5
18F
  8
DEFAULT
 10
0.0302440357379788
 20
-0.2462593855074014
 30
0.0
  0
VERTEX
  5
190
  8
DEFAULT
 10
0.0336646913783687
 20
-0.2453826857856382
 30
0.0
  0
VERTEX
  5
191
  8
DEFAULT
 10
0.0370726539656045
 20
-0.2444102364855298
 30
0.0
  0
VERTEX
  5
192
  8
DEFAULT
 10
0.0404665510487995
 20
-0.243341915988735
 30
0.0
  0
VERTEX
  5
193
  8
DEFAULT
 10
0.0438450101770671
 20
-0.2421776026769132
 30
0.0
  0
VERTEX
  5
194
  8
DEFAULT
 10
0.0472066588995206
 20
-0.2409171749317232
 30
0.0
  0
VERTEX
  5
195
  8
DEFAULT
 10
0.0505501247652735
 20
-0.2395605111348244
 30
0.0
  0
VERTEX
  5
196
  8
DEFAULT
 10
0.0538740353234391
 20
-0.2381074896678757
 30
0.0
  0
VERTEX
  5
197
  8
DEFAULT
 10
0.0571770545167579
 20
-0.2365582079215744
 30
0.0
  0
VERTEX
  5
198
  8
DEFAULT
 10
0.0604579918624786
 20
-0.2349136393227696
 30
0.0
  0
VERTEX
  5
199
  8
DEFAULT
 10
0.0637156932714771
 20
-0.2331749763073488
 30
0.0
  0
VERTEX
  5
19A
  8
DEFAULT
 10
0.0669490046546292
 20
-0.2313434113111992
 30
0.0
  0
VERTEX
  5
19B
  8
DEFAULT
 10
0.0701567719228109
 20
-0.2294201367702081
 30
0.0
  0
VERTEX
  5
19C
  8
DEFAULT
 10
0.073337840986898
 20
-0.227406345120263
 30
0.0
  0
VERTEX
  5
19D
  8
DEFAULT
 10
0.0764910577577664
 20
-0.2253032287972511
 30
0.0
  0
VERTEX
  5
19E
  8
DEFAULT
 10
0.079615268146292
 20
-0.2231119802370598
 30
0.0
  0
VERTEX
  5
19F
  8
DEFAULT
 10
0.0827093180633506
 20
-0.2208337918755764
 30
0.0
  0
VERTEX
  5
1A0
  8
DEFAULT
 10
0.0857720534198181
 20
-0.2184698561486881
 30
0.0
  0
VERTEX
  5
1A1
  8
DEFAULT
 10
0.0888023201265703
 20
-0.2160213654922825
 30
0.0
  0
VERTEX
  5
1A2
  8
DEFAULT
 10
0.0917989640944832
 20
-0.2134895123422466
 30
0.0
  0
VERTEX
  5
1A3
  8
DEFAULT
 10
0.0947608312344326
 20
-0.2108754891344679
 30
0.0
  0
VERTEX
  5
1A4
  8
DEFAULT
 10
0.0976867674572944
 20
-0.2081804883048338
 30
0.0
  0
VERTEX
  5
1A5
  8
DEFAULT
 10
0.1005756186739444
 20
-0.2054057022892315
 30
0.0
  0
VERTEX
  5
1A6
  8
DEFAULT
 10
0.1034262307952586
 20
-0.2025523235235484
 30
0.0
  0
VERTEX
  5
1A7
  8
DEFAULT
 10
0.1062374497321127
 20
-0.1996215444436718
 30
0.0
  0
VERTEX
  5
1A8
  8
DEFAULT
 10
0.1090081213953827
 20
-0.1966145574854889
 30
0.0
  0
VERTEX
  5
1A9
  8
DEFAULT
 10
0.1117370916959445
 20
-0.1935325550848873
 30
0.0
  0
VERTEX
  5
1AA
  8
DEFAULT
 10
0.1144232065446738
 20
-0.1903767296777541
 30
0.0
  0
VERTEX
  5
1AB
  8
DEFAULT
 10
0.1170653118524466
 20
-0.1871482736999767
 30
0.0
  0
VERTEX
  5
1AC
  8
DEFAULT
 10
0.1196622535301388
 20
-0.1838483795874424
 30
0.0
  0
VERTEX
  5
1AD
  8
DEFAULT
 10
0.1222128774886261
 20
-0.1804782397760386
 30
0.0
  0
VERTEX
  5
1AE
  8
DEFAULT
 10
0.1247160296387846
 20
-0.1770390467016526
 30
0.0
  0
VERTEX
  5
1AF
  8
DEFAULT
 10
0.12717055589149
 20
-0.1735319928001717
 30
0.0
  0
VERTEX
  5
1B0
  8
DEFAULT
 10
0.1295753021576183
 20
-0.1699582705074832
 30
0.0
  0
VERTEX
  5
1B1
  8
DEFAULT
 10
0.1319291143480452
 20
-0.1663190722594745
 30
0.0
  0
VERTEX
  5
1B2
  8
DEFAULT
 10
0.1342308383736467
 20
-0.1626155904920328
 30
0.0
  0
VERTEX
  5
1B3
  8
DEFAULT
 10
0.1364793201452986
 20
-0.1588490176410456
 30
0.0
  0
VERTEX
  5
1B4
  8
DEFAULT
 10
0.1386734055738769
 20
-0.1550205461424001
 30
0.0
  0
VERTEX
  5
1B5
  8
DEFAULT
 10
0.1408119405702573
 20
-0.1511313684319836
 30
0.0
  0
VERTEX
  5
1B6
  8
DEFAULT
 10
0.1428937710453158
 20
-0.1471826769456836
 30
0.0
  0
VERTEX
  5
1B7
  8
DEFAULT
 10
0.1468837055919689
 20
-0.1391123678938483
 30
0.0
  0
VERTEX
  5
1B8
  8
DEFAULT
 10
0.1506389940858363
 20
-0.1308233859983249
 30
0.0
  0
VERTEX
  5
1B9
  8
DEFAULT
 10
0.1541564249159164
 20
-0.1223303437754102
 30
0.0
  0
VERTEX
  5
1BA
  8
DEFAULT
 10
0.1574327864712077
 20
-0.113647853741401
 30
0.0
  0
VERTEX
  5
1BB
  8
DEFAULT
 10
0.1604648671407087
 20
-0.1047905284125943
 30
0.0
  0
VERTEX
  5
1BC
  8
DEFAULT
 10
0.163249455313418
 20
-0.095772980305287
 30
0.0
  0
VERTEX
  5
1BD
  8
DEFAULT
 10
0.165783339378334
 20
-0.086609821935776
 30
0.0
  0
VERTEX
  5
1BE
  8
DEFAULT
 10
0.1680633077244553
 20
-0.0773156658203582
 30
0.0
  0
VERTEX
  5
1BF
  8
DEFAULT
 10
0.1700861487407803
 20
-0.0679051244753305
 30
0.0
  0
VERTEX
  5
1C0
  8
DEFAULT
 10
0.1718486508163077
 20
-0.0583928104169899
 30
0.0
  0
VERTEX
  5
1C1
  8
DEFAULT
 10
0.1733476023400358
 20
-0.0487933361616331
 30
0.0
  0
VERTEX
  5
1C2
  8
DEFAULT
 10
0.1745797917009632
 20
-0.0391213142255572
 30
0.0
  0
VERTEX
  5
1C3
  8
DEFAULT
 10
0.1755420072880885
 20
-0.0293913571250591
 30
0.0
  0
VERTEX
  5
1C4
  8
DEFAULT
 10
0.1762310374904101
 20
-0.0196180773764355
 30
0.0
  0
VERTEX
  5
1C5
  8
DEFAULT
 10
0.1766436706969265
 20
-0.0098160874959835
 30
0.0
  0
VERTEX
  5
1C6
  8
DEFAULT
 10
0.1767766952966363
 20
0.0
 30
0.0
  0
SEQEND
  5
1C7
  8
DEFAULT
  0
POLYLINE
  5
1C8
  8
DEFAULT
 10
0.0
 20
0.0
 30
0.0
 66
     1
 70
     8
  0
VERTEX
  5
1C9
  8
DEFAULT
 10
8.0
 20
0.0
 30
0.0
 70
    32
  0
VERTEX
  5
1CA
  8
DEFAULT
 10
8.0
 20
0.2498647796749696
 30
0.0
 70
    32
  0
VERTEX
  5
1CB
  8
DEFAULT
 10
8.0
 20
0.2498626301084924
 30
0.0
 70
    32
  0
VERTEX
  5
1CC
  8
DEFAULT
 10
8.0
 20
-0.2498647796749696
 30
0.0
 70
    32
  0
VERTEX
  5
1CD
  8
DEFAULT
 10
8.0
 20
-0.2498626301084924
 30
0.0
 70
    32
  0
VERTEX
  5
1CE
  8
DEFAULT
 10
8.0
 20
0.0
 30
0.0
 70
    32
  0
SEQEND
  5
1CF
  8
DEFAULT
  0
POLYLINE
  5
1D0
  8
DEFAULT
 10
0.0
 20
0.0
 30
0.0
 66
     1
 70
     8
  0
VERTEX
  5
1D1
  8
DEFAULT
 10
18.0
 20
0.0
 30
0.0
 70
    32
  0
VERTEX
  5
1D2
  8
DEFAULT
 10
18.0
 20
0.2498647796749696
 30
0.0
 70
    32
  0
VERTEX
  5
1D3
  8
DEFAULT
 10
18.0
 20
0.2498626301084924
 30
0.0
 70
    32
  0
VERTEX
  5
1D4
  8
DEFAULT
 10
18.0
 20
-0.2498647796749696
 30
0.0
 70
    32
  0
VERTEX
  5
1D5
  8
DEFAULT
 10
18.0
 20
-0.2498626301084924
 30
0.0
 70
    32
  0
VERTEX
  5
1D6
  8
DEFAULT
 10
18.0
 20
0.0
 30
0.0
 70
    32
  0
SEQEND
  5
1D7
  8
DEFAULT
  0
POLYLINE
  5
1D8
  8
DEFAULT
 66
     1
 10
0.0
 20
0.0
 30
0.0
  0
VERTEX
  5
1D9
  8
DEFAULT
 10
28.0
 20
0.0
 30
0.0
  0
VERTEX
  5
1DA
  8
DEFAULT
 10
28.0
 20
0.2498647796749696
 30
0.0
  0
VERTEX
  5
1DB
  8
DEFAULT
 10
28.0
 20
0.2498626301084924
 30
0.0
  0
VERTEX
  5
1DC
  8
DEFAULT
 10
28.0
 20
-0.2498647796749696
 30
0.0
  0
VERTEX
  5
1DD
  8
DEFAULT
 10
28.0
 20
-0.2498626301084924
 30
0.0
  0
VERTEX
  5
1DE
  8
DEFAULT
 10
28.0
 20
0.0
 30
0.0
  0
SEQEND
  5
1DF
  8
DEFAULT
  0
POLYLINE
  5
1E0
  8
DEFAULT
 66
     1
 10
0.0
 20
0.0
 30
0.0
  0
VERTEX
  5
1E1
  8
DEFAULT
 10
37.82322330470336
 20
0.0
 30
0.0
  0
VERTEX
  5
1E2
  8
DEFAULT
 10
37.82337193360814
 20
0.009815537017071
 30
0.0
  0
VERTEX
  5
1E3
  8
DEFAULT
 10
37.82379959406188
 20
0.0196157331481965
 30
0.0
  0
VERTEX
  5
1E4
  8
DEFAULT
 10
37.8245024973957
 20
0.0293857624081965
 30
0.0
  0
VERTEX
  5
1E5
  8
DEFAULT
 10
37.82547685494073
 20
0.0391107988118909
 30
0.0
  0
VERTEX
  5
1E6
  8
DEFAULT
 10
37.82671887802812
 20
0.0487760163740996
 30
0.0
  0
VERTEX
  5
1E7
  8
DEFAULT
 10
37.82822477798901
 20
0.0583665891096425
 30
0.0
  0
VERTEX
  5
1E8
  8
DEFAULT
 10
37.82999076615452
 20
0.0678676910333395
 30
0.0
  0
VERTEX
  5
1E9
  8
DEFAULT
 10
37.8320130538558
 20
0.0772644961600106
 30
0.0
  0
VERTEX
  5
1EA
  8
DEFAULT
 10
37.83428785242398
 20
0.0865421785044756
 30
0.0
  0
VERTEX
  5
1EB
  8
DEFAULT
 10
37.83681137319022
 20
0.0956859120815544
 30
0.0
  0
VERTEX
  5
1EC
  8
DEFAULT
 10
37.83957982748561
 20
0.104680870906067
 30
0.0
  0
VERTEX
  5
1ED
  8
DEFAULT
 10
37.84258942664133
 20
0.1135122289928333
 30
0.0
  0
VERTEX
  5
1EE
  8
DEFAULT
 10
37.84583638198851
 20
0.1221651603566732
 30
0.0
  0
VERTEX
  5
1EF
  8
DEFAULT
 10
37.84931690485826
 20
0.1306248390124066
 30
0.0
  0
VERTEX
  5
1F0
  8
DEFAULT
 10
37.85302720658174
 20
0.1388764389748534
 30
0.0
  0
VERTEX
  5
1F1
  8
DEFAULT
 10
37.85696349849009
 20
0.1469051342588335
 30
0.0
  0
VERTEX
  5
1F2
  8
DEFAULT
 10
37.8611212667047
 20
0.1546971884252148
 30
0.0
  0
VERTEX
  5
1F3
  8
DEFAULT
 10
37.86328093265323
 20
0.1585014762880089
 30
0.0
  0
VERTEX
  5
1F4
  8
DEFAULT
 10
37.86549309650803
 20
0.1622432232190567
 30
0.0
  0
VERTEX
  5
1F5
  8
DEFAULT
 10
37.86775674077819
 20
0.1659213931297465
 30
0.0
  0
VERTEX
  5
1F6
  8
DEFAULT
 10
37.87007084797281
 20
0.1695349499314667
 30
0.0
  0
VERTEX
  5
1F7
  8
DEFAULT
 10
37.87243440060098
 20
0.1730828575356058
 30
0.0
  0
VERTEX
  5
1F8
  8
DEFAULT
 10
37.87484638117177
 20
0.1765640798535522
 30
0.0
  0
VERTEX
  5
1F9
  8
DEFAULT
 10
37.87730577219429
 20
0.1799775807966943
 30
0.0
  0
VERTEX
  5
1FA
  8
DEFAULT
 10
37.87981155617763
 20
0.1833223242764206
 30
0.0
  0
VERTEX
  5
1FB
  8
DEFAULT
 10
37.88236271563087
 20
0.1865972742041194
 30
0.0
  0
VERTEX
  5
1FC
  8
DEFAULT
 10
37.8849582330631
 20
0.1898013944911792
 30
0.0
  0
VERTEX
  5
1FD
  8
DEFAULT
 10
37.88759709098343
 20
0.1929336490489885
 30
0.0
  0
VERTEX
  5
1FE
  8
DEFAULT
 10
37.89027827190093
 20
0.1959930017889356
 30
0.0
  0
VERTEX
  5
1FF
  8
DEFAULT
 10
37.8930007583247
 20
0.198978416622409
 30
0.0
  0
VERTEX
  5
200
  8
DEFAULT
 10
37.89576353276382
 20
0.2018888574607971
 30
0.0
  0
VERTEX
  5
201
  8
DEFAULT
 10
37.8985655777274
 20
0.2047232882154884
 30
0.0
  0
VERTEX
  5
202
  8
DEFAULT
 10
37.90140587572452
 20
0.2074806727978712
 30
0.0
  0
VERTEX
  5
203
  8
DEFAULT
 10
37.90428340926427
 20
0.210159975119334
 30
0.0
  0
VERTEX
  5
204
  8
DEFAULT
 10
37.90719716085573
 20
0.2127601590912652
 30
0.0
  0
VERTEX
  5
205
  8
DEFAULT
 10
37.91014611300801
 20
0.2152801886250533
 30
0.0
  0
VERTEX
  5
206
  8
DEFAULT
 10
37.91312924823019
 20
0.2177190276320866
 30
0.0
  0
VERTEX
  5
207
  8
DEFAULT
 10
37.91614554903137
 20
0.2200756400237536
 30
0.0
  0
VERTEX
  5
208
  8
DEFAULT
 10
37.91919399792063
 20
0.2223489897114427
 30
0.0
  0
VERTEX
  5
209
  8
DEFAULT
 10
37.92227357740705
 20
0.2245380406065424
 30
0.0
  0
VERTEX
  5
20A
  8
DEFAULT
 10
37.92538326999976
 20
0.2266417566204411
 30
0.0
  0
VERTEX
  5
20B
  8
DEFAULT
 10
37.9285220582078
 20
0.2286591016645272
 30
0.0
  0
VERTEX
  5
20C
  8
DEFAULT
 10
37.9316889245403
 20
0.2305890396501891
 30
0.0
  0
VERTEX
  5
20D
  8
DEFAULT
 10
37.93488285150633
 20
0.2324305344888152
 30
0.0
  0
VERTEX
  5
20E
  8
DEFAULT
 10
37.93810282161499
 20
0.2341825500917941
 30
0.0
  0
VERTEX
  5
20F
  8
DEFAULT
 10
37.94134781737537
 20
0.235844050370514
 30
0.0
  0
VERTEX
  5
210
  8
DEFAULT
 10
37.94461682129655
 20
0.2374139992363635
 30
0.0
  0
VERTEX
  5
211
  8
DEFAULT
 10
37.94790875672764
 20
0.2388915130124427
 30
0.0
  0
VERTEX
  5
212
  8
DEFAULT
 10
37.95122231037774
 20
0.240276317668699
 30
0.0
  0
VERTEX
  5
213
  8
DEFAULT
 10
37.95455610979596
 20
0.2415682915867914
 30
0.0
  0
VERTEX
  5
214
  8
DEFAULT
 10
37.95790878253142
 20
0.2427673131483792
 30
0.0
  0
VERTEX
  5
215
  8
DEFAULT
 10
37.96127895613324
 20
0.2438732607351213
 30
0.0
  0
VERTEX
  5
216
  8
DEFAULT
 10
37.96466525815052
 20
0.2448860127286769
 30
0.0
  0
VERTEX
  5
217
  8
DEFAULT
 10
37.96806631613237
 20
0.245805447510705
 30
0.0
  0
VERTEX
  5
218
  8
DEFAULT
 10
37.97148075762792
 20
0.2466314434628649
 30
0.0
  0
VERTEX
  5
219
  8
DEFAULT
 10
37.97490721018627
 20
0.2473638789668155
 30
0.0
  0
VERTEX
  5
21A
  8
DEFAULT
 10
37.97834430135655
 20
0.248002632404216
 30
0.0
  0
VERTEX
  5
21B
  8
DEFAULT
 10
37.98179065868786
 20
0.2485475821567255
 30
0.0
  0
VERTEX
  5
21C
  8
DEFAULT
 10
37.98524490972931
 20
0.2489986066060031
 30
0.0
  0
VERTEX
  5
21D
  8
DEFAULT
 10
37.98870568203002
 20
0.249355584133708
 30
0.0
  0
VERTEX
  5
21E
  8
DEFAULT
 10
37.9921716031391
 20
0.2496183931214991
 30
0.0
  0
VERTEX
  5
21F
  8
DEFAULT
 10
37.99564130060567
 20
0.2497869119510356
 30
0.0
  0
VERTEX
  5
220
  8
DEFAULT
 10
37.99911340197883
 20
0.2498610190039767
 30
0.0
  0
VERTEX
  5
221
  8
DEFAULT
 10
38.0025865348077
 20
0.2498405926619814
 30
0.0
  0
VERTEX
  5
222
  8
DEFAULT
 10
38.00605932664141
 20
0.2497255113067088
 30
0.0
  0
VERTEX
  5
223
  8
DEFAULT
 10
38.00953040502905
 20
0.249515653319818
 30
0.0
  0
VERTEX
  5
224
  8
DEFAULT
 10
38.01299839751975
 20
0.2492108970829681
 30
0.0
  0
VERTEX
  5
225
  8
DEFAULT
 10
38.01646193166261
 20
0.2488111209778183
 30
0.0
  0
VERTEX
  5
226
  8
DEFAULT
 10
38.01991963500676
 20
0.2483162033860276
 30
0.0
  0
VERTEX
  5
227
  8
DEFAULT
 10
38.02337013510129
 20
0.2477260226892551
 30
0.0
  0
VERTEX
  5
228
  8
DEFAULT
 10
38.02681205949533
 20
0.24704045726916
 30
0.0
  0
VERTEX
  5
229
  8
DEFAULT
 10
38.03024403573799
 20
0.2462593855074013
 30
0.0
  0
VERTEX
  5
22A
  8
DEFAULT
 10
38.03366469137838
 20
0.2453826857856382
 30
0.0
  0
VERTEX
  5
22B
  8
DEFAULT
 10
38.03707265396561
 20
0.2444102364855297
 30
0.0
  0
VERTEX
  5
22C
  8
DEFAULT
 10
38.04046655104881
 20
0.243341915988735
 30
0.0
  0
VERTEX
  5
22D
  8
DEFAULT
 10
38.04384501017708
 20
0.2421776026769131
 30
0.0
  0
VERTEX
  5
22E
  8
DEFAULT
 10
38.04720665889953
 20
0.2409171749317232
 30
0.0
  0
VERTEX
  5
22F
  8
DEFAULT
 10
38.05055012476528
 20
0.2395605111348243
 30
0.0
  0
VERTEX
  5
230
  8
DEFAULT
 10
38.05387403532345
 20
0.2381074896678757
 30
0.0
  0
VERTEX
  5
231
  8
DEFAULT
 10
38.05717705451677
 20
0.2365582079215743
 30
0.0
  0
VERTEX
  5
232
  8
DEFAULT
 10
38.06045799186249
 20
0.2349136393227695
 30
0.0
  0
VERTEX
  5
233
  8
DEFAULT
 10
38.06371569327149
 20
0.2331749763073487
 30
0.0
  0
VERTEX
  5
234
  8
DEFAULT
 10
38.06694900465464
 20
0.2313434113111991
 30
0.0
  0
VERTEX
  5
235
  8
DEFAULT
 10
38.07015677192283
 20
0.2294201367702081
 30
0.0
  0
VERTEX
  5
236
  8
DEFAULT
 10
38.07333784098691
 20
0.227406345120263
 30
0.0
  0
VERTEX
  5
237
  8
DEFAULT
 10
38.07649105775778
 20
0.2253032287972511
 30
0.0
  0
VERTEX
  5
238
  8
DEFAULT
 10
38.0796152681463
 20
0.2231119802370597
 30
0.0
  0
VERTEX
  5
239
  8
DEFAULT
 10
38.08270931806335
 20
0.2208337918755763
 30
0.0
  0
VERTEX
  5
23A
  8
DEFAULT
 10
38.08577205341982
 20
0.2184698561486881
 30
0.0
  0
VERTEX
  5
23B
  8
DEFAULT
 10
38.08880232012658
 20
0.2160213654922824
 30
0.0
  0
VERTEX
  5
23C
  8
DEFAULT
 10
38.09179896409449
 20
0.2134895123422465
 30
0.0
  0
VERTEX
  5
23D
  8
DEFAULT
 10
38.09476083123444
 20
0.2108754891344679
 30
0.0
  0
VERTEX
  5
23E
  8
DEFAULT
 10
38.0976867674573
 20
0.2081804883048338
 30
0.0
  0
VERTEX
  5
23F
  8
DEFAULT
 10
38.10057561867394
 20
0.2054057022892314
 30
0.0
  0
VERTEX
  5
240
  8
DEFAULT
 10
38.10342623079526
 20
0.2025523235235483
 30
0.0
  0
VERTEX
  5
241
  8
DEFAULT
 10
38.10623744973212
 20
0.1996215444436718
 30
0.0
  0
VERTEX
  5
242
  8
DEFAULT
 10
38.10900812139539
 20
0.1966145574854889
 30
0.0
  0
VERTEX
  5
243
  8
DEFAULT
 10
38.11173709169595
 20
0.1935325550848873
 30
0.0
  0
VERTEX
  5
244
  8
DEFAULT
 10
38.11442320654469
 20
0.1903767296777541
 30
0.0
  0
VERTEX
  5
245
  8
DEFAULT
 10
38.11706531185246
 20
0.1871482736999767
 30
0.0
  0
VERTEX
  5
246
  8
DEFAULT
 10
38.11966225353015
 20
0.1838483795874424
 30
0.0
  0
VERTEX
  5
247
  8
DEFAULT
 10
38.12221287748864
 20
0.1804782397760386
 30
0.0
  0
VERTEX
  5
248
  8
DEFAULT
 10
38.12471602963879
 20
0.1770390467016526
 30
0.0
  0
VERTEX
  5
249
  8
DEFAULT
 10
38.1271705558915
 20
0.1735319928001717
 30
0.0
  0
VERTEX
  5
24A
  8
DEFAULT
 10
38.12957530215762
 20
0.1699582705074832
 30
0.0
  0
VERTEX
  5
24B
  8
DEFAULT
 10
38.13192911434805
 20
0.1663190722594745
 30
0.0
  0
VERTEX
  5
24C
  8
DEFAULT
 10
38.13423083837364
 20
0.1626155904920328
 30
0.0
  0
VERTEX
  5
24D
  8
DEFAULT
 10
38.13647932014529
 20
0.1588490176410456
 30
0.0
  0
VERTEX
  5
24E
  8
DEFAULT
 10
38.13867340557387
 20
0.1550205461424001
 30
0.0
  0
VERTEX
  5
24F
  8
DEFAULT
 10
38.14081194057025
 20
0.1511313684319836
 30
0.0
  0
VERTEX
  5
250
  8
DEFAULT
 10
38.14289377104532
 20
0.1471826769456836
 30
0.0
  0
VERTEX
  5
251
  8
DEFAULT
 10
38.14688370559196
 20
0.1391123678938483
 30
0.0
  0
VERTEX
  5
252
  8
DEFAULT
 10
38.15063899408582
 20
0.1308233859983249
 30
0.0
  0
VERTEX
  5
253
  8
DEFAULT
 10
38.15415642491591
 20
0.1223303437754101
 30
0.0
  0
VERTEX
  5
254
  8
DEFAULT
 10
38.1574327864712
 20
0.113647853741401
 30
0.0
  0
VERTEX
  5
255
  8
DEFAULT
 10
38.1604648671407
 20
0.1047905284125943
 30
0.0
  0
VERTEX
  5
256
  8
DEFAULT
 10
38.16324945531342
 20
0.095772980305287
 30
0.0
  0
VERTEX
  5
257
  8
DEFAULT
 10
38.16578333937834
 20
0.086609821935776
 30
0.0
  0
VERTEX
  5
258
  8
DEFAULT
 10
38.16806330772445
 20
0.0773156658203582
 30
0.0
  0
VERTEX
  5
259
  8
DEFAULT
 10
38.17008614874077
 20
0.0679051244753305
 30
0.0
  0
VERTEX
  5
25A
  8
DEFAULT
 10
38.1718486508163
 20
0.0583928104169899
 30
0.0
  0
VERTEX
  5
25B
  8
DEFAULT
 10
38.17334760234003
 20
0.0487933361616332
 30
0.0
  0
VERTEX
  5
25C
  8
DEFAULT
 10
38.17457979170096
 20
0.0391213142255573
 30
0.0
  0
VERTEX
  5
25D
  8
DEFAULT
 10
38.17554200728809
 20
0.0293913571250591
 30
0.0
  0
VERTEX
  5
25E
  8
DEFAULT
 10
38.17623103749041
 20
0.0196180773764356
 30
0.0
  0
VERTEX
  5
25F
  8
DEFAULT
 10
38.17664367069693
 20
0.0098160874959836
 30
0.0
  0
VERTEX
  5
260
  8
DEFAULT
 10
38.17677669529664
 20
0.0
 30
0.0
  0
VERTEX
  5
261
  8
DEFAULT
 10
38.17662806639186
 20
-0.009815537017071
 30
0.0
  0
VERTEX
  5
262
  8
DEFAULT
 10
38.17620040593813
 20
-0.0196157331481965
 30
0.0
  0
VERTEX
  5
263
  8
DEFAULT
 10
38.17549750260431
 20
-0.0293857624081965
 30
0.0
  0
VERTEX
  5
264
  8
DEFAULT
 10
38.17452314505928
 20
-0.0391107988118909
 30
0.0
  0
VERTEX
  5
265
  8
DEFAULT
 10
38.17328112197188
 20
-0.0487760163740996
 30
0.0
  0
VERTEX
  5
266
  8
DEFAULT
 10
38.17177522201101
 20
-0.0583665891096425
 30
0.0
  0
VERTEX
  5
267
  8
DEFAULT
 10
38.17000923384549
 20
-0.0678676910333395
 30
0.0
  0
VERTEX
  5
268
  8
DEFAULT
 10
38.16798694614421
 20
-0.0772644961600105
 30
0.0
  0
VERTEX
  5
269
  8
DEFAULT
 10
38.16571214757603
 20
-0.0865421785044755
 30
0.0
  0
VERTEX
  5
26A
  8
DEFAULT
 10
38.1631886268098
 20
-0.0956859120815544
 30
0.0
  0
VERTEX
  5
26B
  8
DEFAULT
 10
38.1604201725144
 20
-0.104680870906067
 30
0.0
  0
VERTEX
  5
26C
  8
DEFAULT
 10
38.15741057335868
 20
-0.1135122289928333
 30
0.0
  0
VERTEX
  5
26D
  8
DEFAULT
 10
38.15416361801151
 20
-0.1221651603566731
 30
0.0
  0
VERTEX
  5
26E
  8
DEFAULT
 10
38.15068309514175
 20
-0.1306248390124065
 30
0.0
  0
VERTEX
  5
26F
  8
DEFAULT
 10
38.14697279341827
 20
-0.1388764389748533
 30
0.0
  0
VERTEX
  5
270
  8
DEFAULT
 10
38.14303650150993
 20
-0.1469051342588334
 30
0.0
  0
VERTEX
  5
271
  8
DEFAULT
 10
38.13887873329531
 20
-0.1546971884252147
 30
0.0
  0
VERTEX
  5
272
  8
DEFAULT
 10
38.13671906734678
 20
-0.1585014762880089
 30
0.0
  0
VERTEX
  5
273
  8
DEFAULT
 10
38.13450690349198
 20
-0.1622432232190566
 30
0.0
  0
VERTEX
  5
274
  8
DEFAULT
 10
38.13224325922182
 20
-0.1659213931297464
 30
0.0
  0
VERTEX
  5
275
  8
DEFAULT
 10
38.1299291520272
 20
-0.1695349499314666
 30
0.0
  0
VERTEX
  5
276
  8
DEFAULT
 10
38.12756559939903
 20
-0.1730828575356057
 30
0.0
  0
VERTEX
  5
277
  8
DEFAULT
 10
38.12515361882824
 20
-0.1765640798535521
 30
0.0
  0
VERTEX
  5
278
  8
DEFAULT
 10
38.12269422780571
 20
-0.1799775807966942
 30
0.0
  0
VERTEX
  5
279
  8
DEFAULT
 10
38.12018844382237
 20
-0.1833223242764205
 30
0.0
  0
VERTEX
  5
27A
  8
DEFAULT
 10
38.11763728436913
 20
-0.1865972742041193
 30
0.0
  0
VERTEX
  5
27B
  8
DEFAULT
 10
38.1150417669369
 20
-0.1898013944911792
 30
0.0
  0
VERTEX
  5
27C
  8
DEFAULT
 10
38.11240290901657
 20
-0.1929336490489884
 30
0.0
  0
VERTEX
  5
27D
  8
DEFAULT
 10
38.10972172809907
 20
-0.1959930017889356
 30
0.0
  0
VERTEX
  5
27E
  8
DEFAULT
 10
38.1069992416753
 20
-0.1989784166224089
 30
0.0
  0
VERTEX
  5
27F
  8
DEFAULT
 10
38.10423646723618
 20
-0.201888857460797
 30
0.0
  0
VERTEX
  5
280
  8
DEFAULT
 10
38.1014344222726
 20
-0.2047232882154883
 30
0.0
  0
VERTEX
  5
281
  8
DEFAULT
 10
38.09859412427548
 20
-0.2074806727978711
 30
0.0
  0
VERTEX
  5
282
  8
DEFAULT
 10
38.09571659073573
 20
-0.2101599751193339
 30
0.0
  0
VERTEX
  5
283
  8
DEFAULT
 10
38.09280283914427
 20
-0.2127601590912651
 30
0.0
  0
VERTEX
  5
284
  8
DEFAULT
 10
38.08985388699199
 20
-0.2152801886250532
 30
0.0
  0
VERTEX
  5
285
  8
DEFAULT
 10
38.08687075176981
 20
-0.2177190276320865
 30
0.0
  0
VERTEX
  5
286
  8
DEFAULT
 10
38.08385445096864
 20
-0.2200756400237536
 30
0.0
  0
VERTEX
  5
287
  8
DEFAULT
 10
38.08080600207938
 20
-0.2223489897114427
 30
0.0
  0
VERTEX
  5
288
  8
DEFAULT
 10
38.07772642259295
 20
-0.2245380406065424
 30
0.0
  0
VERTEX
  5
289
  8
DEFAULT
 10
38.07461673000025
 20
-0.2266417566204411
 30
0.0
  0
VERTEX
  5
28A
  8
DEFAULT
 10
38.0714779417922
 20
-0.2286591016645272
 30
0.0
  0
VERTEX
  5
28B
  8
DEFAULT
 10
38.0683110754597
 20
-0.2305890396501891
 30
0.0
  0
VERTEX
  5
28C
  8
DEFAULT
 10
38.06511714849367
 20
-0.2324305344888152
 30
0.0
  0
VERTEX
  5
28D
  8
DEFAULT
 10
38.06189717838501
 20
-0.2341825500917941
 30
0.0
  0
VERTEX
  5
28E
  8
DEFAULT
 10
38.05865218262463
 20
-0.235844050370514
 30
0.0
  0
VERTEX
  5
28F
  8
DEFAULT
 10
38.05538317870345
 20
-0.2374139992363635
 30
0.0
  0
VERTEX
  5
290
  8
DEFAULT
 10
38.05209124327236
 20
-0.2388915130124427
 30
0.0
  0
VERTEX
  5
291
  8
DEFAULT
 10
38.04877768962226
 20
-0.240276317668699
 30
0.0
  0
VERTEX
  5
292
  8
DEFAULT
 10
38.04544389020404
 20
-0.2415682915867914
 30
0.0
  0
VERTEX
  5
293
  8
DEFAULT
 10
38.04209121746858
 20
-0.2427673131483792
 30
0.0
  0
VERTEX
  5
294
  8
DEFAULT
 10
38.03872104386676
 20
-0.2438732607351213
 30
0.0
  0
VERTEX
  5
295
  8
DEFAULT
 10
38.03533474184948
 20
-0.2448860127286769
 30
0.0
  0
VERTEX
  5
296
  8
DEFAULT
 10
38.03193368386763
 20
-0.245805447510705
 30
0.0
  0
VERTEX
  5
297
  8
DEFAULT
 10
38.02851924237208
 20
-0.2466314434628649
 30
0.0
  0
VERTEX
  5
298
  8
DEFAULT
 10
38.02509278981373
 20
-0.2473638789668155
 30
0.0
  0
VERTEX
  5
299
  8
DEFAULT
 10
38.02165569864345
 20
-0.248002632404216
 30
0.0
  0
VERTEX
  5
29A
  8
DEFAULT
 10
38.01820934131214
 20
-0.2485475821567255
 30
0.0
  0
VERTEX
  5
29B
  8
DEFAULT
 10
38.01475509027069
 20
-0.2489986066060031
 30
0.0
  0
VERTEX
  5
29C
  8
DEFAULT
 10
38.01129431796998
 20
-0.249355584133708
 30
0.0
  0
VERTEX
  5
29D
  8
DEFAULT
 10
38.0078283968609
 20
-0.2496183931214991
 30
0.0
  0
VERTEX
  5
29E
  8
DEFAULT
 10
38.00435869939433
 20
-0.2497869119510357
 30
0.0
  0
VERTEX
  5
29F
  8
DEFAULT
 10
38.00088659802117
 20
-0.2498610190039767
 30
0.0
  0
VERTEX
  5
2A0
  8
DEFAULT
 10
37.9974134651923
 20
-0.2498405926619814
 30
0.0
  0
VERTEX
  5
2A1
  8
DEFAULT
 10
37.99394067335859
 20
-0.2497255113067088
 30
0.0
  0
VERTEX
  5
2A2
  8
DEFAULT
 10
37.99046959497095
 20
-0.249515653319818
 30
0.0
  0
VERTEX
  5
2A3
  8
DEFAULT
 10
37.98700160248025
 20
-0.2492108970829681
 30
0.0
  0
VERTEX
  5
2A4
  8
DEFAULT
 10
37.98353806833739
 20
-0.2488111209778183
 30
0.0
  0
VERTEX
  5
2A5
  8
DEFAULT
 10
37.98008036499324
 20
-0.2483162033860276
 30
0.0
  0
VERTEX
  5
2A6
  8
DEFAULT
 10
37.97662986489871
 20
-0.2477260226892552
 30
0.0
  0
VERTEX
  5
2A7
  8
DEFAULT
 10
37.97318794050467
 20
-0.24704045726916
 30
0.0
  0
VERTEX
  5
2A8
  8
DEFAULT
 10
37.96975596426201
 20
-0.2462593855074014
 30
0.0
  0
VERTEX
  5
2A9
  8
DEFAULT
 10
37.96633530862162
 20
-0.2453826857856382
 30
0.0
  0
VERTEX
  5
2AA
  8
DEFAULT
 10
37.96292734603439
 20
-0.2444102364855298
 30
0.0
  0
VERTEX
  5
2AB
  8
DEFAULT
 10
37.95953344895119
 20
-0.243341915988735
 30
0.0
  0
VERTEX
  5
2AC
  8
DEFAULT
 10
37.95615498982292
 20
-0.2421776026769132
 30
0.0
  0
VERTEX
  5
2AD
  8
DEFAULT
 10
37.95279334110047
 20
-0.2409171749317232
 30
0.0
  0
VERTEX
  5
2AE
  8
DEFAULT
 10
37.94944987523472
 20
-0.2395605111348244
 30
0.0
  0
VERTEX
  5
2AF
  8
DEFAULT
 10
37.94612596467655
 20
-0.2381074896678757
 30
0.0
  0
VERTEX
  5
2B0
  8
DEFAULT
 10
37.94282294548323
 20
-0.2365582079215744
 30
0.0
  0
VERTEX
  5
2B1
  8
DEFAULT
 10
37.93954200813751
 20
-0.2349136393227696
 30
0.0
  0
VERTEX
  5
2B2
  8
DEFAULT
 10
37.93628430672851
 20
-0.2331749763073488
 30
0.0
  0
VERTEX
  5
2B3
  8
DEFAULT
 10
37.93305099534536
 20
-0.2313434113111992
 30
0.0
  0
VERTEX
  5
2B4
  8
DEFAULT
 10
37.92984322807717
 20
-0.2294201367702081
 30
0.0
  0
VERTEX
  5
2B5
  8
DEFAULT
 10
37.92666215901309
 20
-0.227406345120263
 30
0.0
  0
VERTEX
  5
2B6
  8
DEFAULT
 10
37.92350894224222
 20
-0.2253032287972511
 30
0.0
  0
VERTEX
  5
2B7
  8
DEFAULT
 10
37.9203847318537
 20
-0.2231119802370598
 30
0.0
  0
VERTEX
  5
2B8
  8
DEFAULT
 10
37.91729068193665
 20
-0.2208337918755764
 30
0.0
  0
VERTEX
  5
2B9
  8
DEFAULT
 10
37.91422794658018
 20
-0.2184698561486881
 30
0.0
  0
VERTEX
  5
2BA
  8
DEFAULT
 10
37.91119767987342
 20
-0.2160213654922825
 30
0.0
  0
VERTEX
  5
2BB
  8
DEFAULT
 10
37.90820103590551
 20
-0.2134895123422466
 30
0.0
  0
VERTEX
  5
2BC
  8
DEFAULT
 10
37.90523916876556
 20
-0.2108754891344679
 30
0.0
  0
VERTEX
  5
2BD
  8
DEFAULT
 10
37.9023132325427
 20
-0.2081804883048338
 30
0.0
  0
VERTEX
  5
2BE
  8
DEFAULT
 10
37.89942438132606
 20
-0.2054057022892315
 30
0.0
  0
VERTEX
  5
2BF
  8
DEFAULT
 10
37.89657376920474
 20
-0.2025523235235484
 30
0.0
  0
VERTEX
  5
2C0
  8
DEFAULT
 10
37.89376255026788
 20
-0.1996215444436718
 30
0.0
  0
VERTEX
  5
2C1
  8
DEFAULT
 10
37.89099187860461
 20
-0.1966145574854889
 30
0.0
  0
VERTEX
  5
2C2
  8
DEFAULT
 10
37.88826290830405
 20
-0.1935325550848873
 30
0.0
  0
VERTEX
  5
2C3
  8
DEFAULT
 10
37.88557679345531
 20
-0.1903767296777541
 30
0.0
  0
VERTEX
  5
2C4
  8
DEFAULT
 10
37.88293468814754
 20
-0.1871482736999767
 30
0.0
  0
VERTEX
  5
2C5
  8
DEFAULT
 10
37.88033774646985
 20
-0.1838483795874424
 30
0.0
  0
VERTEX
  5
2C6
  8
DEFAULT
 10
37.87778712251136
 20
-0.1804782397760386
 30
0.0
  0
VERTEX
  5
2C7
  8
DEFAULT
 10
37.87528397036121
 20
-0.1770390467016526
 30
0.0
  0
VERTEX
  5
2C8
  8
DEFAULT
 10
37.8728294441085
 20
-0.1735319928001717
 30
0.0
  0
VERTEX
  5
2C9
  8
DEFAULT
 10
37.87042469784238
 20
-0.1699582705074832
 30
0.0
  0
VERTEX
  5
2CA
  8
DEFAULT
 10
37.86807088565195
 20
-0.1663190722594745
 30
0.0
  0
VERTEX
  5
2CB
  8
DEFAULT
 10
37.86576916162635
 20
-0.1626155904920328
 30
0.0
  0
VERTEX
  5
2CC
  8
DEFAULT
 10
37.86352067985469
 20
-0.1588490176410456
 30
0.0
  0
VERTEX
  5
2CD
  8
DEFAULT
 10
37.86132659442612
 20
-0.1550205461424001
 30
0.0
  0
VERTEX
  5
2CE
  8
DEFAULT
 10
37.85918805942974
 20
-0.1511313684319836
 30
0.0
  0
VERTEX
  5
2CF
  8
DEFAULT
 10
37.85710622895468
 20
-0.1471826769456836
 30
0.0
  0
VERTEX
  5
2D0
  8
DEFAULT
 10
37.85311629440803
 20
-0.1391123678938483
 30
0.0
  0
VERTEX
  5
2D1
  8
DEFAULT
 10
37.84936100591416
 20
-0.1308233859983249
 30
0.0
  0
VERTEX
  5
2D2
  8
DEFAULT
 10
37.84584357508408
 20
-0.1223303437754102
 30
0.0
  0
VERTEX
  5
2D3
  8
DEFAULT
 10
37.8425672135288
 20
-0.113647853741401
 30
0.0
  0
VERTEX
  5
2D4
  8
DEFAULT
 10
37.8395351328593
 20
-0.1047905284125943
 30
0.0
  0
VERTEX
  5
2D5
  8
DEFAULT
 10
37.83675054468658
 20
-0.095772980305287
 30
0.0
  0
VERTEX
  5
2D6
  8
DEFAULT
 10
37.83421666062166
 20
-0.086609821935776
 30
0.0
  0
VERTEX
  5
2D7
  8
DEFAULT
 10
37.83193669227555
 20
-0.0773156658203582
 30
0.0
  0
VERTEX
  5
2D8
  8
DEFAULT
 10
37.82991385125923
 20
-0.0679051244753305
 30
0.0
  0
VERTEX
  5
2D9
  8
DEFAULT
 10
37.8281513491837
 20
-0.0583928104169899
 30
0.0
  0
VERTEX
  5
2DA
  8
DEFAULT
 10
37.82665239765997
 20
-0.0487933361616331
 30
0.0
  0
VERTEX
  5
2DB
  8
DEFAULT
 10
37.82542020829904
 20
-0.0391213142255572
 30
0.0
  0
VERTEX
  5
2DC
  8
DEFAULT
 10
37.82445799271191
 20
-0.0293913571250591
 30
0.0
  0
VERTEX
  5
2DD
  8
DEFAULT
 10
37.82376896250959
 20
-0.0196180773764355
 30
0.0
  0
VERTEX
  5
2DE
  8
DEFAULT
 10
37.82335632930307
 20
-0.0098160874959835
 30
0.0
  0
VERTEX
  5
2DF
  8
DEFAULT
 10
37.82322330470336
 20
0.0
 30
0.0
  0
SEQEND
  5
2E0
  8
DEFAULT
  0
CIRCLE
  5
2E1
  8
DEFAULT
 10
38.00000000000001
 20
-0.0001358736758196
 30
0.0
 40
0.250000036923316
  0
ENDSEC
  0
EOF
