  0
SECTION
  2
HEADER
  9
$ACADVER
  1
AC1009
  9
$DWGCODEPAGE
  3
ansi_1252
  9
$INSBASE
 10
0.0
 20
0.0
 30
0.0
  9
$EXTMIN
 10
-0.2500000369233089
 20
-0.2501359105991302
 30
0.0
  9
$EXTMAX
 10
50.25000003692331
 20
0.2501359105991283
 30
0.0
  9
$LIMMIN
 10
0.0
 20
0.0
  9
$LIMMAX
 10
12.0
 20
9.0
  9
$ORTHOMODE
 70
     0
  9
$REGENMODE
 70
     1
  9
$FILLMODE
 70
     1
  9
$QTEXTMODE
 70
     0
  9
$MIRRTEXT
 70
     1
  9
$DRAGMODE
 70
     2
  9
$LTSCALE
 40
1.0
  9
$OSMODE
 70
    37
  9
$ATTMODE
 70
     1
  9
$TEXTSIZE
 40
0.2
  9
$TRACEWID
 40
0.05
  9
$TEXTSTYLE
  7
STANDARD
  9
$CLAYER
  8
50MM
  9
$CELTYPE
  6
BYLAYER
  9
$CECOLOR
 62
   256
  9
$DIMSCALE
 40
1.0
  9
$DIMASZ
 40
0.18
  9
$DIMEXO
 40
0.0625
  9
$DIMDLI
 40
0.38
  9
$DIMRND
 40
0.0
  9
$DIMDLE
 40
0.0
  9
$DIMEXE
 40
0.18
  9
$DIMTP
 40
0.0
  9
$DIMTM
 40
0.0
  9
$DIMTXT
 40
0.18
  9
$DIMCEN
 40
0.09
  9
$DIMTSZ
 40
0.0
  9
$DIMTOL
 70
     0
  9
$DIMLIM
 70
     0
  9
$DIMTIH
 70
     1
  9
$DIMTOH
 70
     1
  9
$DIMSE1
 70
     0
  9
$DIMSE2
 70
     0
  9
$DIMTAD
 70
     0
  9
$DIMZIN
 70
     0
  9
$DIMBLK
  1

  9
$DIMASO
 70
     1
  9
$DIMSHO
 70
     1
  9
$DIMPOST
  1

  9
$DIMAPOST
  1

  9
$DIMALT
 70
     0
  9
$DIMALTD
 70
     2
  9
$DIMALTF
 40
25.4
  9
$DIMLFAC
 40
1.0
  9
$DIMTOFL
 70
     0
  9
$DIMTVP
 40
0.0
  9
$DIMTIX
 70
     0
  9
$DIMSOXD
 70
     0
  9
$DIMSAH
 70
     0
  9
$DIMBLK1
  1

  9
$DIMBLK2
  1

  9
$DIMSTYLE
  2
STANDARD
  9
$DIMCLRD
 70
     0
  9
$DIMCLRE
 70
     0
  9
$DIMCLRT
 70
     0
  9
$DIMTFAC
 40
1.0
  9
$DIMGAP
 40
0.09
  9
$LUNITS
 70
     2
  9
$LUPREC
 70
     3
  9
$SKETCHINC
 40
0.1
  9
$FILLETRAD
 40
0.5
  9
$AUNITS
 70
     0
  9
$AUPREC
 70
     0
  9
$MENU
  1
.
  9
$ELEVATION
 40
0.0
  9
$PELEVATION
 40
0.0
  9
$THICKNESS
 40
0.0
  9
$LIMCHECK
 70
     0
  9
$CHAMFERA
 40
0.5
  9
$CHAMFERB
 40
0.5
  9
$SKPOLY
 70
     0
  9
$TDCREATE
 40
2458882.996082291
  9
$TDUPDATE
 40
2458882.996082303
  9
$TDINDWG
 40
0.0000000116
  9
$TDUSRTIMER
 40
0.0000000116
  9
$USRTIMER
 70
     1
  9
$ANGBASE
 50
0.0
  9
$ANGDIR
 70
     0
  9
$PDMODE
 70
     0
  9
$PDSIZE
 40
0.0
  9
$PLINEWID
 40
0.0
  9
$COORDS
 70
     1
  9
$SPLFRAME
 70
     0
  9
$SPLINETYPE
 70
     6
  9
$SPLINESEGS
 70
     8
  9
$ATTDIA
 70
     0
  9
$ATTREQ
 70
     1
  9
$HANDLING
 70
     1
  9
$HANDSEED
  5
432
  9
$SURFTAB1
 70
     6
  9
$SURFTAB2
 70
     6
  9
$SURFTYPE
 70
     6
  9
$SURFU
 70
     6
  9
$SURFV
 70
     6
  9
$UCSNAME
  2

  9
$UCSORG
 10
0.0
 20
0.0
 30
0.0
  9
$UCSXDIR
 10
1.0
 20
0.0
 30
0.0
  9
$UCSYDIR
 10
0.0
 20
1.0
 30
0.0
  9
$PUCSNAME
  2

  9
$PUCSORG
 10
0.0
 20
0.0
 30
0.0
  9
$PUCSXDIR
 10
1.0
 20
0.0
 30
0.0
  9
$PUCSYDIR
 10
0.0
 20
1.0
 30
0.0
  9
$USERI1
 70
     0
  9
$USERI2
 70
     0
  9
$USERI3
 70
     0
  9
$USERI4
 70
     0
  9
$USERI5
 70
     0
  9
$USERR1
 40
0.0
  9
$USERR2
 40
0.0
  9
$USERR3
 40
0.0
  9
$USERR4
 40
0.0
  9
$USERR5
 40
0.0
  9
$WORLDVIEW
 70
     1
  9
$SHADEDGE
 70
     3
  9
$SHADEDIF
 70
    70
  9
$TILEMODE
 70
     1
  9
$MAXACTVP
 70
    64
  9
$PLIMCHECK
 70
     0
  9
$PEXTMIN
 10
1.000000000000000E+20
 20
1.000000000000000E+20
 30
1.000000000000000E+20
  9
$PEXTMAX
 10
-1.000000000000000E+20
 20
-1.000000000000000E+20
 30
-1.000000000000000E+20
  9
$PLIMMIN
 10
0.0
 20
0.0
  9
$PLIMMAX
 10
12.0
 20
9.0
  9
$UNITMODE
 70
     0
  9
$VISRETAIN
 70
     1
  9
$PLINEGEN
 70
     0
  9
$PSLTSCALE
 70
     1
  0
ENDSEC
  0
SECTION
  2
TABLES
  0
TABLE
  2
VPORT
 70
     1
  0
VPORT
  2
*ACTIVE
 70
     0
 10
0.0
 20
0.0
 11
1.0
 21
1.0
 12
25.0
 22
-0.0000000000000009
 13
0.0
 23
0.0
 14
0.5
 24
0.5
 15
0.5
 25
0.5
 16
0.0
 26
0.0
 36
1.0
 17
0.0
 27
0.0
 37
0.0
 40
0.5102772576222236
 41
100.9451220995983
 42
50.0
 43
0.0
 44
0.0
 50
0.0
 51
0.0
 71
     0
 72
   100
 73
     1
 74
     3
 75
     0
 76
     0
 77
     0
 78
     0
  0
ENDTAB
  0
TABLE
  2
LTYPE
 70
     1
  0
LTYPE
  2
CONTINUOUS
 70
     0
  3
Solid line
 72
    65
 73
     0
 40
0.0
  0
ENDTAB
  0
TABLE
  2
LAYER
 70
     2
  0
LAYER
  2
0
 70
     0
 62
     7
  6
CONTINUOUS
  0
LAYER
  2
50MM
 70
     0
 62
    30
  6
CONTINUOUS
  0
ENDTAB
  0
TABLE
  2
STYLE
 70
     1
  0
STYLE
  2
STANDARD
 70
     0
 40
0.0
 41
1.0
 50
0.0
 71
     0
 42
0.2
  3
txt
  4

  0
ENDTAB
  0
TABLE
  2
VIEW
 70
     0
  0
ENDTAB
  0
TABLE
  2
UCS
 70
     0
  0
ENDTAB
  0
TABLE
  2
APPID
 70
     1
  0
APPID
  2
ACAD
 70
     0
  0
ENDTAB
  0
TABLE
  2
DIMSTYLE
 70
     1
  0
DIMSTYLE
  2
STANDARD
 70
     0
  3

  4

  5

  6

  7

 40
1.0
 41
0.18
 42
0.0625
 43
0.38
 44
0.18
 45
0.0
 46
0.0
 47
0.0
 48
0.0
140
0.18
141
0.09
142
0.0
143
25.4
144
1.0
145
0.0
146
1.0
147
0.09
 71
     0
 72
     0
 73
     1
 74
     1
 75
     0
 76
     0
 77
     0
 78
     0
170
     0
171
     2
172
     0
173
     0
174
     0
175
     0
176
     0
177
     0
178
     0
  0
ENDTAB
  0
ENDSEC
  0
SECTION
  2
BLOCKS
  0
BLOCK
  8
0
  2
$MODEL_SPACE
 70
     0
 10
0.0
 20
0.0
 30
0.0
  3
$MODEL_SPACE
  1

  0
ENDBLK
  5
21
  8
0
  0
BLOCK
 67
     1
  8
0
  2
$PAPER_SPACE
 70
     0
 10
0.0
 20
0.0
 30
0.0
  3
$PAPER_SPACE
  1

  0
ENDBLK
  5
1D
 67
     1
  8
0
  0
ENDSEC
  0
SECTION
  2
ENTITIES
  0
POLYLINE
  5
3C
  8
50MM
 66
     1
 10
0.0
 20
0.0
 30
0.0
  0
VERTEX
  5
3D
  8
50MM
 10
0.25
 20
0.0
 30
0.0
  0
VERTEX
  5
3E
  8
50MM
 10
0.249994182545436
 20
0.0
 30
0.0
  0
VERTEX
  5
3F
  8
50MM
 10
0.2499494650086532
 20
0.0
 30
0.0
  0
VERTEX
  5
40
  8
50MM
 10
0.2499501126919849
 20
0.0
 30
0.0
  0
VERTEX
  5
41
  8
50MM
 10
49.75001923684776
 20
-0.0000000000000039
 30
0.0
  0
VERTEX
  5
42
  8
50MM
 10
49.75001463819843
 20
-0.0000000000000039
 30
0.0
  0
VERTEX
  5
43
  8
50MM
 10
49.75000518167168
 20
-0.0000000000000039
 30
0.0
  0
VERTEX
  5
44
  8
50MM
 10
49.75
 20
-0.0000000000000039
 30
0.0
  0
SEQEND
  5
45
  8
50MM
  0
CIRCLE
  5
46
  8
50MM
 10
50.0
 20
-0.0001358736758213
 30
0.0
 40
0.2500000369233089
  0
CIRCLE
  5
47
  8
50MM
 10
0.0
 20
0.0001358736758194
 30
0.0
 40
0.2500000369233089
  0
POLYLINE
  5
48
  8
50MM
 66
     1
 10
0.0
 20
0.0
 30
0.0
  0
VERTEX
  5
49
  8
50MM
 10
0.2022841603497272
 20
0.1469051342588335
 30
0.0
  0
VERTEX
  5
4A
  8
50MM
 10
0.2022796200871059
 20
0.1469051342588334
 30
0.0
  0
VERTEX
  5
4B
  8
50MM
 10
0.2022539492302274
 20
0.1469051342588334
 30
0.0
  0
VERTEX
  5
4C
  8
50MM
 10
0.2022590560392799
 20
0.1469051342588334
 30
0.0
  0
VERTEX
  5
4D
  8
50MM
 10
49.79772362347025
 20
0.1469051342588294
 30
0.0
  0
VERTEX
  5
4E
  8
50MM
 10
49.79772537834754
 20
0.1469051342588294
 30
0.0
  0
VERTEX
  5
4F
  8
50MM
 10
49.79771974413002
 20
0.1469051342588294
 30
0.0
  0
VERTEX
  5
50
  8
50MM
 10
49.79771583965027
 20
0.1469051342588294
 30
0.0
  0
SEQEND
  5
51
  8
50MM
  0
LINE
  5
52
  8
50MM
 10
0.0783236424497483
 20
0.2374139992363635
 30
0.0
 11
49.92167635755024
 21
0.2374139992363595
 31
0.0
  0
LINE
  5
53
  8
50MM
 10
-0.0761893914141756
 20
0.2381074896678756
 30
0.0
 11
50.07618939141418
 21
0.2381074896678717
 31
0.0
  0
LINE
  5
54
  8
50MM
 10
-0.2020823089909222
 20
0.1471826769456836
 30
0.0
 11
50.20208230899092
 21
0.1471826769456795
 31
0.0
  0
LINE
  5
55
  8
50MM
 10
-0.2500000000000001
 20
0.0
 30
0.0
 11
50.25
 21
-0.0000000000000041
 31
0.0
  0
LINE
  5
56
  8
50MM
 10
-0.2022841603497272
 20
-0.1469051342588334
 30
0.0
 11
50.20228416034973
 21
-0.1469051342588376
 31
0.0
  0
LINE
  5
57
  8
50MM
 10
-0.0783236424497483
 20
-0.2374139992363634
 30
0.0
 11
50.07832364244975
 21
-0.2374139992363675
 31
0.0
  0
LINE
  5
58
  8
50MM
 10
0.0761893914141756
 20
-0.2381074896678757
 30
0.0
 11
49.92381060858582
 21
-0.2381074896678797
 31
0.0
  0
POLYLINE
  5
59
  8
50MM
 66
     1
 10
0.0
 20
0.0
 30
0.0
  0
VERTEX
  5
5A
  8
50MM
 10
0.2020823089909221
 20
-0.1471826769456836
 30
0.0
  0
VERTEX
  5
5B
  8
50MM
 10
0.2020777741311803
 20
-0.1471826769456836
 30
0.0
  0
VERTEX
  5
5C
  8
50MM
 10
0.2020521838470896
 20
-0.1471826769456836
 30
0.0
  0
VERTEX
  5
5D
  8
50MM
 10
0.2020573387724528
 20
-0.1471826769456836
 30
0.0
  0
VERTEX
  5
5E
  8
50MM
 10
49.79792542637954
 20
-0.1471826769456875
 30
0.0
  0
VERTEX
  5
5F
  8
50MM
 10
49.79792720813401
 20
-0.1471826769456875
 30
0.0
  0
VERTEX
  5
60
  8
50MM
 10
49.79792159008593
 20
-0.1471826769456875
 30
0.0
  0
VERTEX
  5
61
  8
50MM
 10
49.79791769100907
 20
-0.1471826769456875
 30
0.0
  0
SEQEND
  5
62
  8
50MM
  0
POLYLINE
  5
63
  8
50MM
 66
     1
 10
0.0
 20
0.0
 30
0.0
  0
VERTEX
  5
64
  8
50MM
 10
1.998953072256371
 20
-0.0000000000000002
 30
0.0
  0
VERTEX
  5
65
  8
50MM
 10
1.998813823808684
 20
0.0098155370170708
 30
0.0
  0
VERTEX
  5
66
  8
50MM
 10
1.998413154407233
 20
0.0196157331481963
 30
0.0
  0
VERTEX
  5
67
  8
50MM
 10
1.997754613605578
 20
0.0293857624081963
 30
0.0
  0
VERTEX
  5
68
  8
50MM
 10
1.996841750957278
 20
0.0391107988118907
 30
0.0
  0
VERTEX
  5
69
  8
50MM
 10
1.995678116015893
 20
0.0487760163740994
 30
0.0
  0
VERTEX
  5
6A
  8
50MM
 10
1.99426725833498
 20
0.0583665891096423
 30
0.0
  0
VERTEX
  5
6B
  8
50MM
 10
1.992612727468099
 20
0.0678676910333393
 30
0.0
  0
VERTEX
  5
6C
  8
50MM
 10
1.99071807296881
 20
0.0772644961600104
 30
0.0
  0
VERTEX
  5
6D
  8
50MM
 10
1.988586844390672
 20
0.0865421785044753
 30
0.0
  0
VERTEX
  5
6E
  8
50MM
 10
1.986222591287243
 20
0.0956859120815542
 30
0.0
  0
VERTEX
  5
6F
  8
50MM
 10
1.983628863212083
 20
0.1046808709060668
 30
0.0
  0
VERTEX
  5
70
  8
50MM
 10
1.980809209718751
 20
0.1135122289928331
 30
0.0
  0
VERTEX
  5
71
  8
50MM
 10
1.977767180360806
 20
0.1221651603566729
 30
0.0
  0
VERTEX
  5
72
  8
50MM
 10
1.974506324691807
 20
0.1306248390124063
 30
0.0
  0
VERTEX
  5
73
  8
50MM
 10
1.971030192265313
 20
0.1388764389748531
 30
0.0
  0
VERTEX
  5
74
  8
50MM
 10
1.967342332634884
 20
0.1469051342588333
 30
0.0
  0
VERTEX
  5
75
  8
50MM
 10
1.963446974793451
 20
0.1546971884252145
 30
0.0
  0
VERTEX
  5
76
  8
50MM
 10
1.95935106549144
 20
0.1622432232190565
 30
0.0
  0
VERTEX
  5
77
  8
50MM
 10
1.955062230918649
 20
0.1695349499314664
 30
0.0
  0
VERTEX
  5
78
  8
50MM
 10
1.952847849840022
 20
0.1730828575356055
 30
0.0
  0
VERTEX
  5
79
  8
50MM
 10
1.950588097264875
 20
0.1765640798535519
 30
0.0
  0
VERTEX
  5
7A
  8
50MM
 10
1.948283926466932
 20
0.1799775807966941
 30
0.0
  0
VERTEX
  5
7B
  8
50MM
 10
1.945936290719917
 20
0.1833223242764203
 30
0.0
  0
VERTEX
  5
7C
  8
50MM
 10
1.943546143297556
 20
0.1865972742041192
 30
0.0
  0
VERTEX
  5
7D
  8
50MM
 10
1.941114437473573
 20
0.189801394491179
 30
0.0
  0
VERTEX
  5
7E
  8
50MM
 10
1.938642126521692
 20
0.1929336490489883
 30
0.0
  0
VERTEX
  5
7F
  8
50MM
 10
1.93613016371564
 20
0.1959930017889354
 30
0.0
  0
VERTEX
  5
80
  8
50MM
 10
1.93357950232914
 20
0.1989784166224088
 30
0.0
  0
VERTEX
  5
81
  8
50MM
 10
1.930991095635917
 20
0.2018888574607969
 30
0.0
  0
VERTEX
  5
82
  8
50MM
 10
1.928365896909696
 20
0.2047232882154881
 30
0.0
  0
VERTEX
  5
83
  8
50MM
 10
1.925704859424202
 20
0.2074806727978709
 30
0.0
  0
VERTEX
  5
84
  8
50MM
 10
1.923008936453159
 20
0.2101599751193338
 30
0.0
  0
VERTEX
  5
85
  8
50MM
 10
1.920279081270293
 20
0.212760159091265
 30
0.0
  0
VERTEX
  5
86
  8
50MM
 10
1.917516247149327
 20
0.215280188625053
 30
0.0
  0
VERTEX
  5
87
  8
50MM
 10
1.914721387363987
 20
0.2177190276320864
 30
0.0
  0
VERTEX
  5
88
  8
50MM
 10
1.911895455187998
 20
0.2200756400237534
 30
0.0
  0
VERTEX
  5
89
  8
50MM
 10
1.909039403895084
 20
0.2223489897114425
 30
0.0
  0
VERTEX
  5
8A
  8
50MM
 10
1.906154186758969
 20
0.2245380406065422
 30
0.0
  0
VERTEX
  5
8B
  8
50MM
 10
1.90324075705338
 20
0.2266417566204409
 30
0.0
  0
VERTEX
  5
8C
  8
50MM
 10
1.90030006805204
 20
0.228659101664527
 30
0.0
  0
VERTEX
  5
8D
  8
50MM
 10
1.897333073028674
 20
0.2305890396501888
 30
0.0
  0
VERTEX
  5
8E
  8
50MM
 10
1.894340725257007
 20
0.232430534488815
 30
0.0
  0
VERTEX
  5
8F
  8
50MM
 10
1.891323978010764
 20
0.2341825500917938
 30
0.0
  0
VERTEX
  5
90
  8
50MM
 10
1.888283784563669
 20
0.2358440503705138
 30
0.0
  0
VERTEX
  5
91
  8
50MM
 10
1.885221098189448
 20
0.2374139992363633
 30
0.0
  0
VERTEX
  5
92
  8
50MM
 10
1.882136927588039
 20
0.2388915130124425
 30
0.0
  0
VERTEX
  5
93
  8
50MM
 10
1.879032503164244
 20
0.2402763176686988
 30
0.0
  0
VERTEX
  5
94
  8
50MM
 10
1.875909110749076
 20
0.2415682915867912
 30
0.0
  0
VERTEX
  5
95
  8
50MM
 10
1.872768036173552
 20
0.242767313148379
 30
0.0
  0
VERTEX
  5
96
  8
50MM
 10
1.869610565268685
 20
0.2438732607351211
 30
0.0
  0
VERTEX
  5
97
  8
50MM
 10
1.86643798386549
 20
0.2448860127286767
 30
0.0
  0
VERTEX
  5
98
  8
50MM
 10
1.863251577794984
 20
0.2458054475107048
 30
0.0
  0
VERTEX
  5
99
  8
50MM
 10
1.860052632888179
 20
0.2466314434628646
 30
0.0
  0
VERTEX
  5
9A
  8
50MM
 10
1.856842434976092
 20
0.2473638789668153
 30
0.0
  0
VERTEX
  5
9B
  8
50MM
 10
1.853622269889738
 20
0.2480026324042158
 30
0.0
  0
VERTEX
  5
9C
  8
50MM
 10
1.850393423460131
 20
0.2485475821567253
 30
0.0
  0
VERTEX
  5
9D
  8
50MM
 10
1.847157181518286
 20
0.2489986066060029
 30
0.0
  0
VERTEX
  5
9E
  8
50MM
 10
1.843914829895218
 20
0.2493555841337078
 30
0.0
  0
VERTEX
  5
9F
  8
50MM
 10
1.840667654421942
 20
0.2496183931214989
 30
0.0
  0
VERTEX
  5
A0
  8
50MM
 10
1.837416940929474
 20
0.2497869119510355
 30
0.0
  0
VERTEX
  5
A1
  8
50MM
 10
1.834163975248827
 20
0.2498610190039765
 30
0.0
  0
VERTEX
  5
A2
  8
50MM
 10
1.830910043211017
 20
0.2498405926619812
 30
0.0
  0
VERTEX
  5
A3
  8
50MM
 10
1.827656430647059
 20
0.2497255113067086
 30
0.0
  0
VERTEX
  5
A4
  8
50MM
 10
1.824404423387968
 20
0.2495156533198177
 30
0.0
  0
VERTEX
  5
A5
  8
50MM
 10
1.821155307264758
 20
0.2492108970829679
 30
0.0
  0
VERTEX
  5
A6
  8
50MM
 10
1.817910368108445
 20
0.248811120977818
 30
0.0
  0
VERTEX
  5
A7
  8
50MM
 10
1.814670891750044
 20
0.2483162033860274
 30
0.0
  0
VERTEX
  5
A8
  8
50MM
 10
1.811438164020569
 20
0.2477260226892549
 30
0.0
  0
VERTEX
  5
A9
  8
50MM
 10
1.808213470751035
 20
0.2470404572691598
 30
0.0
  0
VERTEX
  5
AA
  8
50MM
 10
1.804998097772458
 20
0.2462593855074011
 30
0.0
  0
VERTEX
  5
AB
  8
50MM
 10
1.801793330915852
 20
0.245382685785638
 30
0.0
  0
VERTEX
  5
AC
  8
50MM
 10
1.798600456012232
 20
0.2444102364855295
 30
0.0
  0
VERTEX
  5
AD
  8
50MM
 10
1.795420758892614
 20
0.2433419159887348
 30
0.0
  0
VERTEX
  5
AE
  8
50MM
 10
1.792255525388011
 20
0.2421776026769129
 30
0.0
  0
VERTEX
  5
AF
  8
50MM
 10
1.78910604132944
 20
0.240917174931723
 30
0.0
  0
VERTEX
  5
B0
  8
50MM
 10
1.785973592547914
 20
0.2395605111348241
 30
0.0
  0
VERTEX
  5
B1
  8
50MM
 10
1.782859464874449
 20
0.2381074896678755
 30
0.0
  0
VERTEX
  5
B2
  8
50MM
 10
1.779764910043354
 20
0.2365582079215741
 30
0.0
  0
VERTEX
  5
B3
  8
50MM
 10
1.776691043402113
 20
0.2349136393227693
 30
0.0
  0
VERTEX
  5
B4
  8
50MM
 10
1.773638946201505
 20
0.2331749763073485
 30
0.0
  0
VERTEX
  5
B5
  8
50MM
 10
1.770609699692309
 20
0.2313434113111989
 30
0.0
  0
VERTEX
  5
B6
  8
50MM
 10
1.767604385125304
 20
0.2294201367702079
 30
0.0
  0
VERTEX
  5
B7
  8
50MM
 10
1.764624083751267
 20
0.2274063451202628
 30
0.0
  0
VERTEX
  5
B8
  8
50MM
 10
1.761669876820978
 20
0.2253032287972508
 30
0.0
  0
VERTEX
  5
B9
  8
50MM
 10
1.758742845585214
 20
0.2231119802370595
 30
0.0
  0
VERTEX
  5
BA
  8
50MM
 10
1.755844071294756
 20
0.2208337918755761
 30
0.0
  0
VERTEX
  5
BB
  8
50MM
 10
1.752974635200381
 20
0.2184698561486879
 30
0.0
  0
VERTEX
  5
BC
  8
50MM
 10
1.750135618552868
 20
0.2160213654922822
 30
0.0
  0
VERTEX
  5
BD
  8
50MM
 10
1.747328102602996
 20
0.2134895123422463
 30
0.0
  0
VERTEX
  5
BE
  8
50MM
 10
1.744553168601543
 20
0.2108754891344677
 30
0.0
  0
VERTEX
  5
BF
  8
50MM
 10
1.741811897799287
 20
0.2081804883048335
 30
0.0
  0
VERTEX
  5
C0
  8
50MM
 10
1.739105371447009
 20
0.2054057022892312
 30
0.0
  0
VERTEX
  5
C1
  8
50MM
 10
1.736434670795485
 20
0.2025523235235481
 30
0.0
  0
VERTEX
  5
C2
  8
50MM
 10
1.733800877095496
 20
0.1996215444436715
 30
0.0
  0
VERTEX
  5
C3
  8
50MM
 10
1.731205071597818
 20
0.1966145574854887
 30
0.0
  0
VERTEX
  5
C4
  8
50MM
 10
1.728648335553232
 20
0.193532555084887
 30
0.0
  0
VERTEX
  5
C5
  8
50MM
 10
1.726131750212516
 20
0.1903767296777538
 30
0.0
  0
VERTEX
  5
C6
  8
50MM
 10
1.723656396826447
 20
0.1871482736999765
 30
0.0
  0
VERTEX
  5
C7
  8
50MM
 10
1.721223356645806
 20
0.1838483795874422
 30
0.0
  0
VERTEX
  5
C8
  8
50MM
 10
1.71883371092137
 20
0.1804782397760384
 30
0.0
  0
VERTEX
  5
C9
  8
50MM
 10
1.716488540903918
 20
0.1770390467016524
 30
0.0
  0
VERTEX
  5
CA
  8
50MM
 10
1.714188927844229
 20
0.1735319928001715
 30
0.0
  0
VERTEX
  5
CB
  8
50MM
 10
1.711935952993081
 20
0.169958270507483
 30
0.0
  0
VERTEX
  5
CC
  8
50MM
 10
1.709730697601254
 20
0.1663190722594742
 30
0.0
  0
VERTEX
  5
CD
  8
50MM
 10
1.707574242919525
 20
0.1626155904920326
 30
0.0
  0
VERTEX
  5
CE
  8
50MM
 10
1.703412060689477
 20
0.1550205461423999
 30
0.0
  0
VERTEX
  5
CF
  8
50MM
 10
1.699458056309168
 20
0.1471826769456834
 30
0.0
  0
VERTEX
  5
D0
  8
50MM
 10
1.695719939603072
 20
0.1391123678938481
 30
0.0
  0
VERTEX
  5
D1
  8
50MM
 10
1.692201659668654
 20
0.1308233859983247
 30
0.0
  0
VERTEX
  5
D2
  8
50MM
 10
1.688906225421621
 20
0.1223303437754099
 30
0.0
  0
VERTEX
  5
D3
  8
50MM
 10
1.685836645777685
 20
0.1136478537414008
 30
0.0
  0
VERTEX
  5
D4
  8
50MM
 10
1.682995929652555
 20
0.1047905284125941
 30
0.0
  0
VERTEX
  5
D5
  8
50MM
 10
1.680387085961941
 20
0.0957729803052868
 30
0.0
  0
VERTEX
  5
D6
  8
50MM
 10
1.678013123621552
 20
0.0866098219357758
 30
0.0
  0
VERTEX
  5
D7
  8
50MM
 10
1.675877051547098
 20
0.077315665820358
 30
0.0
  0
VERTEX
  5
D8
  8
50MM
 10
1.673981878654289
 20
0.0679051244753303
 30
0.0
  0
VERTEX
  5
D9
  8
50MM
 10
1.672330613858834
 20
0.0583928104169896
 30
0.0
  0
VERTEX
  5
DA
  8
50MM
 10
1.670926266076444
 20
0.0487933361616329
 30
0.0
  0
VERTEX
  5
DB
  8
50MM
 10
1.669771844222827
 20
0.039121314225557
 30
0.0
  0
VERTEX
  5
DC
  8
50MM
 10
1.668870357213694
 20
0.0293913571250589
 30
0.0
  0
VERTEX
  5
DD
  8
50MM
 10
1.668224813964755
 20
0.0196180773764353
 30
0.0
  0
VERTEX
  5
DE
  8
50MM
 10
1.667838223391718
 20
0.0098160874959833
 30
0.0
  0
VERTEX
  5
DF
  8
50MM
 10
1.667713594410294
 20
-0.0000000000000002
 30
0.0
  0
VERTEX
  5
E0
  8
50MM
 10
1.667852842857982
 20
-0.0098155370170712
 30
0.0
  0
VERTEX
  5
E1
  8
50MM
 10
1.668253512259432
 20
-0.0196157331481967
 30
0.0
  0
VERTEX
  5
E2
  8
50MM
 10
1.668912053061087
 20
-0.0293857624081967
 30
0.0
  0
VERTEX
  5
E3
  8
50MM
 10
1.669824915709387
 20
-0.0391107988118911
 30
0.0
  0
VERTEX
  5
E4
  8
50MM
 10
1.670988550650772
 20
-0.0487760163740998
 30
0.0
  0
VERTEX
  5
E5
  8
50MM
 10
1.672399408331685
 20
-0.0583665891096427
 30
0.0
  0
VERTEX
  5
E6
  8
50MM
 10
1.674053939198566
 20
-0.0678676910333397
 30
0.0
  0
VERTEX
  5
E7
  8
50MM
 10
1.675948593697855
 20
-0.0772644961600107
 30
0.0
  0
VERTEX
  5
E8
  8
50MM
 10
1.678079822275993
 20
-0.0865421785044757
 30
0.0
  0
VERTEX
  5
E9
  8
50MM
 10
1.680444075379422
 20
-0.0956859120815545
 30
0.0
  0
VERTEX
  5
EA
  8
50MM
 10
1.683037803454583
 20
-0.1046808709060671
 30
0.0
  0
VERTEX
  5
EB
  8
50MM
 10
1.685857456947915
 20
-0.1135122289928334
 30
0.0
  0
VERTEX
  5
EC
  8
50MM
 10
1.68889948630586
 20
-0.1221651603566733
 30
0.0
  0
VERTEX
  5
ED
  8
50MM
 10
1.692160341974859
 20
-0.1306248390124067
 30
0.0
  0
VERTEX
  5
EE
  8
50MM
 10
1.695636474401352
 20
-0.1388764389748535
 30
0.0
  0
VERTEX
  5
EF
  8
50MM
 10
1.699324334031781
 20
-0.1469051342588336
 30
0.0
  0
VERTEX
  5
F0
  8
50MM
 10
1.703219691873214
 20
-0.1546971884252149
 30
0.0
  0
VERTEX
  5
F1
  8
50MM
 10
1.707315601175225
 20
-0.1622432232190568
 30
0.0
  0
VERTEX
  5
F2
  8
50MM
 10
1.711604435748016
 20
-0.1695349499314668
 30
0.0
  0
VERTEX
  5
F3
  8
50MM
 10
1.713818816826643
 20
-0.1730828575356059
 30
0.0
  0
VERTEX
  5
F4
  8
50MM
 10
1.71607856940179
 20
-0.1765640798535523
 30
0.0
  0
VERTEX
  5
F5
  8
50MM
 10
1.718382740199734
 20
-0.1799775807966944
 30
0.0
  0
VERTEX
  5
F6
  8
50MM
 10
1.720730375946748
 20
-0.1833223242764207
 30
0.0
  0
VERTEX
  5
F7
  8
50MM
 10
1.72312052336911
 20
-0.1865972742041195
 30
0.0
  0
VERTEX
  5
F8
  8
50MM
 10
1.725552229193093
 20
-0.1898013944911793
 30
0.0
  0
VERTEX
  5
F9
  8
50MM
 10
1.728024540144973
 20
-0.1929336490489886
 30
0.0
  0
VERTEX
  5
FA
  8
50MM
 10
1.730536502951025
 20
-0.1959930017889357
 30
0.0
  0
VERTEX
  5
FB
  8
50MM
 10
1.733087164337525
 20
-0.1989784166224091
 30
0.0
  0
VERTEX
  5
FC
  8
50MM
 10
1.735675571030748
 20
-0.2018888574607972
 30
0.0
  0
VERTEX
  5
FD
  8
50MM
 10
1.738300769756969
 20
-0.2047232882154885
 30
0.0
  0
VERTEX
  5
FE
  8
50MM
 10
1.740961807242464
 20
-0.2074806727978713
 30
0.0
  0
VERTEX
  5
FF
  8
50MM
 10
1.743657730213506
 20
-0.2101599751193341
 30
0.0
  0
VERTEX
  5
100
  8
50MM
 10
1.746387585396373
 20
-0.2127601590912653
 30
0.0
  0
VERTEX
  5
101
  8
50MM
 10
1.749150419517338
 20
-0.2152801886250534
 30
0.0
  0
VERTEX
  5
102
  8
50MM
 10
1.751945279302678
 20
-0.2177190276320867
 30
0.0
  0
VERTEX
  5
103
  8
50MM
 10
1.754771211478668
 20
-0.2200756400237537
 30
0.0
  0
VERTEX
  5
104
  8
50MM
 10
1.757627262771582
 20
-0.2223489897114429
 30
0.0
  0
VERTEX
  5
105
  8
50MM
 10
1.760512479907696
 20
-0.2245380406065426
 30
0.0
  0
VERTEX
  5
106
  8
50MM
 10
1.763425909613286
 20
-0.2266417566204413
 30
0.0
  0
VERTEX
  5
107
  8
50MM
 10
1.766366598614626
 20
-0.2286591016645274
 30
0.0
  0
VERTEX
  5
108
  8
50MM
 10
1.769333593637992
 20
-0.2305890396501892
 30
0.0
  0
VERTEX
  5
109
  8
50MM
 10
1.772325941409659
 20
-0.2324305344888154
 30
0.0
  0
VERTEX
  5
10A
  8
50MM
 10
1.775342688655902
 20
-0.2341825500917942
 30
0.0
  0
VERTEX
  5
10B
  8
50MM
 10
1.778382882102997
 20
-0.2358440503705142
 30
0.0
  0
VERTEX
  5
10C
  8
50MM
 10
1.781445568477218
 20
-0.2374139992363636
 30
0.0
  0
VERTEX
  5
10D
  8
50MM
 10
1.784529739078626
 20
-0.2388915130124429
 30
0.0
  0
VERTEX
  5
10E
  8
50MM
 10
1.787634163502422
 20
-0.2402763176686991
 30
0.0
  0
VERTEX
  5
10F
  8
50MM
 10
1.790757555917589
 20
-0.2415682915867916
 30
0.0
  0
VERTEX
  5
110
  8
50MM
 10
1.793898630493114
 20
-0.2427673131483793
 30
0.0
  0
VERTEX
  5
111
  8
50MM
 10
1.797056101397981
 20
-0.2438732607351214
 30
0.0
  0
VERTEX
  5
112
  8
50MM
 10
1.800228682801175
 20
-0.244886012728677
 30
0.0
  0
VERTEX
  5
113
  8
50MM
 10
1.803415088871682
 20
-0.2458054475107052
 30
0.0
  0
VERTEX
  5
114
  8
50MM
 10
1.806614033778486
 20
-0.246631443462865
 30
0.0
  0
VERTEX
  5
115
  8
50MM
 10
1.809824231690573
 20
-0.2473638789668157
 30
0.0
  0
VERTEX
  5
116
  8
50MM
 10
1.813044396776928
 20
-0.2480026324042162
 30
0.0
  0
VERTEX
  5
117
  8
50MM
 10
1.816273243206535
 20
-0.2485475821567257
 30
0.0
  0
VERTEX
  5
118
  8
50MM
 10
1.81950948514838
 20
-0.2489986066060033
 30
0.0
  0
VERTEX
  5
119
  8
50MM
 10
1.822751836771448
 20
-0.2493555841337081
 30
0.0
  0
VERTEX
  5
11A
  8
50MM
 10
1.825999012244723
 20
-0.2496183931214993
 30
0.0
  0
VERTEX
  5
11B
  8
50MM
 10
1.829249725737192
 20
-0.2497869119510359
 30
0.0
  0
VERTEX
  5
11C
  8
50MM
 10
1.832502691417839
 20
-0.2498610190039769
 30
0.0
  0
VERTEX
  5
11D
  8
50MM
 10
1.835756623455648
 20
-0.2498405926619816
 30
0.0
  0
VERTEX
  5
11E
  8
50MM
 10
1.839010236019607
 20
-0.2497255113067089
 30
0.0
  0
VERTEX
  5
11F
  8
50MM
 10
1.842262243278698
 20
-0.2495156533198182
 30
0.0
  0
VERTEX
  5
120
  8
50MM
 10
1.845511359401907
 20
-0.2492108970829683
 30
0.0
  0
VERTEX
  5
121
  8
50MM
 10
1.84875629855822
 20
-0.2488111209778185
 30
0.0
  0
VERTEX
  5
122
  8
50MM
 10
1.851995774916622
 20
-0.2483162033860278
 30
0.0
  0
VERTEX
  5
123
  8
50MM
 10
1.855228502646097
 20
-0.2477260226892553
 30
0.0
  0
VERTEX
  5
124
  8
50MM
 10
1.85845319591563
 20
-0.2470404572691602
 30
0.0
  0
VERTEX
  5
125
  8
50MM
 10
1.861668568894208
 20
-0.2462593855074015
 30
0.0
  0
VERTEX
  5
126
  8
50MM
 10
1.864873335750814
 20
-0.2453826857856384
 30
0.0
  0
VERTEX
  5
127
  8
50MM
 10
1.868066210654433
 20
-0.24441023648553
 30
0.0
  0
VERTEX
  5
128
  8
50MM
 10
1.871245907774052
 20
-0.2433419159887352
 30
0.0
  0
VERTEX
  5
129
  8
50MM
 10
1.874411141278655
 20
-0.2421776026769134
 30
0.0
  0
VERTEX
  5
12A
  8
50MM
 10
1.877560625337226
 20
-0.2409171749317234
 30
0.0
  0
VERTEX
  5
12B
  8
50MM
 10
1.880693074118752
 20
-0.2395605111348246
 30
0.0
  0
VERTEX
  5
12C
  8
50MM
 10
1.883807201792217
 20
-0.2381074896678759
 30
0.0
  0
VERTEX
  5
12D
  8
50MM
 10
1.886901756623311
 20
-0.2365582079215746
 30
0.0
  0
VERTEX
  5
12E
  8
50MM
 10
1.889975623264552
 20
-0.2349136393227698
 30
0.0
  0
VERTEX
  5
12F
  8
50MM
 10
1.89302772046516
 20
-0.2331749763073489
 30
0.0
  0
VERTEX
  5
130
  8
50MM
 10
1.896056966974356
 20
-0.2313434113111993
 30
0.0
  0
VERTEX
  5
131
  8
50MM
 10
1.899062281541362
 20
-0.2294201367702083
 30
0.0
  0
VERTEX
  5
132
  8
50MM
 10
1.902042582915399
 20
-0.2274063451202632
 30
0.0
  0
VERTEX
  5
133
  8
50MM
 10
1.904996789845688
 20
-0.2253032287972513
 30
0.0
  0
VERTEX
  5
134
  8
50MM
 10
1.907923821081451
 20
-0.22311198023706
 30
0.0
  0
VERTEX
  5
135
  8
50MM
 10
1.91082259537191
 20
-0.2208337918755766
 30
0.0
  0
VERTEX
  5
136
  8
50MM
 10
1.913692031466284
 20
-0.2184698561486883
 30
0.0
  0
VERTEX
  5
137
  8
50MM
 10
1.916531048113798
 20
-0.2160213654922826
 30
0.0
  0
VERTEX
  5
138
  8
50MM
 10
1.91933856406367
 20
-0.2134895123422468
 30
0.0
  0
VERTEX
  5
139
  8
50MM
 10
1.922113498065123
 20
-0.2108754891344681
 30
0.0
  0
VERTEX
  5
13A
  8
50MM
 10
1.924854768867378
 20
-0.208180488304834
 30
0.0
  0
VERTEX
  5
13B
  8
50MM
 10
1.927561295219657
 20
-0.2054057022892317
 30
0.0
  0
VERTEX
  5
13C
  8
50MM
 10
1.93023199587118
 20
-0.2025523235235486
 30
0.0
  0
VERTEX
  5
13D
  8
50MM
 10
1.93286578957117
 20
-0.1996215444436719
 30
0.0
  0
VERTEX
  5
13E
  8
50MM
 10
1.935461595068847
 20
-0.1966145574854891
 30
0.0
  0
VERTEX
  5
13F
  8
50MM
 10
1.938018331113434
 20
-0.1935325550848875
 30
0.0
  0
VERTEX
  5
140
  8
50MM
 10
1.94053491645415
 20
-0.1903767296777543
 30
0.0
  0
VERTEX
  5
141
  8
50MM
 10
1.943010269840219
 20
-0.1871482736999769
 30
0.0
  0
VERTEX
  5
142
  8
50MM
 10
1.94544331002086
 20
-0.1838483795874426
 30
0.0
  0
VERTEX
  5
143
  8
50MM
 10
1.947832955745296
 20
-0.1804782397760388
 30
0.0
  0
VERTEX
  5
144
  8
50MM
 10
1.950178125762748
 20
-0.1770390467016528
 30
0.0
  0
VERTEX
  5
145
  8
50MM
 10
1.952477738822437
 20
-0.1735319928001718
 30
0.0
  0
VERTEX
  5
146
  8
50MM
 10
1.954730713673585
 20
-0.1699582705074834
 30
0.0
  0
VERTEX
  5
147
  8
50MM
 10
1.956935969065412
 20
-0.1663190722594746
 30
0.0
  0
VERTEX
  5
148
  8
50MM
 10
1.959092423747141
 20
-0.162615590492033
 30
0.0
  0
VERTEX
  5
149
  8
50MM
 10
1.963254605977189
 20
-0.1550205461424002
 30
0.0
  0
VERTEX
  5
14A
  8
50MM
 10
1.967208610357498
 20
-0.1471826769456838
 30
0.0
  0
VERTEX
  5
14B
  8
50MM
 10
1.970946727063594
 20
-0.1391123678938485
 30
0.0
  0
VERTEX
  5
14C
  8
50MM
 10
1.974465006998012
 20
-0.1308233859983251
 30
0.0
  0
VERTEX
  5
14D
  8
50MM
 10
1.977760441245044
 20
-0.1223303437754103
 30
0.0
  0
VERTEX
  5
14E
  8
50MM
 10
1.98083002088898
 20
-0.1136478537414011
 30
0.0
  0
VERTEX
  5
14F
  8
50MM
 10
1.98367073701411
 20
-0.1047905284125945
 30
0.0
  0
VERTEX
  5
150
  8
50MM
 10
1.986279580704725
 20
-0.0957729803052872
 30
0.0
  0
VERTEX
  5
151
  8
50MM
 10
1.988653543045114
 20
-0.0866098219357762
 30
0.0
  0
VERTEX
  5
152
  8
50MM
 10
1.990789615119568
 20
-0.0773156658203584
 30
0.0
  0
VERTEX
  5
153
  8
50MM
 10
1.992684788012377
 20
-0.0679051244753307
 30
0.0
  0
VERTEX
  5
154
  8
50MM
 10
1.994336052807832
 20
-0.0583928104169901
 30
0.0
  0
VERTEX
  5
155
  8
50MM
 10
1.995740400590222
 20
-0.0487933361616333
 30
0.0
  0
VERTEX
  5
156
  8
50MM
 10
1.996894822443839
 20
-0.0391213142255574
 30
0.0
  0
VERTEX
  5
157
  8
50MM
 10
1.997796309452971
 20
-0.0293913571250593
 30
0.0
  0
VERTEX
  5
158
  8
50MM
 10
1.998441852701911
 20
-0.0196180773764357
 30
0.0
  0
VERTEX
  5
159
  8
50MM
 10
1.998828443274947
 20
-0.0098160874959838
 30
0.0
  0
VERTEX
  5
15A
  8
50MM
 10
1.998953072256371
 20
-0.0000000000000002
 30
0.0
  0
SEQEND
  5
15B
  8
50MM
  0
POLYLINE
  5
15C
  8
50MM
 66
     1
 10
0.0
 20
0.0
 30
0.0
  0
VERTEX
  5
15D
  8
50MM
 10
10.52199322460497
 20
-0.0000000000000014
 30
0.0
  0
VERTEX
  5
15E
  8
50MM
 10
10.52161763289874
 20
0.0391107988118894
 30
0.0
  0
VERTEX
  5
15F
  8
50MM
 10
10.5205282664129
 20
0.0772644961600091
 30
0.0
  0
VERTEX
  5
160
  8
50MM
 10
10.51876553761531
 20
0.1135122289928318
 30
0.0
  0
VERTEX
  5
161
  8
50MM
 10
10.51636985897385
 20
0.146905134258832
 30
0.0
  0
VERTEX
  5
162
  8
50MM
 10
10.51338937852691
 20
0.1765640798535507
 30
0.0
  0
VERTEX
  5
163
  8
50MM
 10
10.51170406987835
 20
0.1898013944911778
 30
0.0
  0
VERTEX
  5
164
  8
50MM
 10
10.5099031865949
 20
0.2018888574607957
 30
0.0
  0
VERTEX
  5
165
  8
50MM
 10
10.50799758191291
 20
0.2127601590912638
 30
0.0
  0
VERTEX
  5
166
  8
50MM
 10
10.50700890068384
 20
0.2177190276320851
 30
0.0
  0
VERTEX
  5
167
  8
50MM
 10
10.50599810906876
 20
0.2223489897114413
 30
0.0
  0
VERTEX
  5
168
  8
50MM
 10
10.50496656372224
 20
0.2266417566204397
 30
0.0
  0
VERTEX
  5
169
  8
50MM
 10
10.50391562129882
 20
0.2305890396501876
 30
0.0
  0
VERTEX
  5
16A
  8
50MM
 10
10.50284663845304
 20
0.2341825500917926
 30
0.0
  0
VERTEX
  5
16B
  8
50MM
 10
10.50230580582631
 20
0.2358440503705126
 30
0.0
  0
VERTEX
  5
16C
  8
50MM
 10
10.50176097183944
 20
0.2374139992363621
 30
0.0
  0
VERTEX
  5
16D
  8
50MM
 10
10.50121231593426
 20
0.2388915130124412
 30
0.0
  0
VERTEX
  5
16E
  8
50MM
 10
10.50066005699258
 20
0.2402763176686975
 30
0.0
  0
VERTEX
  5
16F
  8
50MM
 10
10.50010442375621
 20
0.24156829158679
 30
0.0
  0
VERTEX
  5
170
  8
50MM
 10
10.49954564496696
 20
0.2427673131483777
 30
0.0
  0
VERTEX
  5
171
  8
50MM
 10
10.49926514747183
 20
0.2433319287897508
 30
0.0
  0
VERTEX
  5
172
  8
50MM
 10
10.49898394936666
 20
0.2438732607351198
 30
0.0
  0
VERTEX
  5
173
  8
50MM
 10
10.49870207924418
 20
0.2443912937821922
 30
0.0
  0
VERTEX
  5
174
  8
50MM
 10
10.49841956569712
 20
0.2448860127286754
 30
0.0
  0
VERTEX
  5
175
  8
50MM
 10
10.49813643731819
 20
0.2453574023722767
 30
0.0
  0
VERTEX
  5
176
  8
50MM
 10
10.49785272270014
 20
0.2458054475107036
 30
0.0
  0
VERTEX
  5
177
  8
50MM
 10
10.49756845043568
 20
0.2462301329416633
 30
0.0
  0
VERTEX
  5
178
  8
50MM
 10
10.49728364911755
 20
0.2466314434628634
 30
0.0
  0
VERTEX
  5
179
  8
50MM
 10
10.49699834733846
 20
0.2470093638720112
 30
0.0
  0
VERTEX
  5
17A
  8
50MM
 10
10.49671257369116
 20
0.2473638789668141
 30
0.0
  0
VERTEX
  5
17B
  8
50MM
 10
10.49656951885214
 20
0.2475323547706197
 30
0.0
  0
VERTEX
  5
17C
  8
50MM
 10
10.49642635676835
 20
0.2476949735449794
 30
0.0
  0
VERTEX
  5
17D
  8
50MM
 10
10.49628309101386
 20
0.2478517333896065
 30
0.0
  0
VERTEX
  5
17E
  8
50MM
 10
10.49613972516278
 20
0.2480026324042146
 30
0.0
  0
VERTEX
  5
17F
  8
50MM
 10
10.49599626278918
 20
0.248147668688517
 30
0.0
  0
VERTEX
  5
180
  8
50MM
 10
10.49585270746716
 20
0.248286840342227
 30
0.0
  0
VERTEX
  5
181
  8
50MM
 10
10.49570906277081
 20
0.2484201454650583
 30
0.0
  0
VERTEX
  5
182
  8
50MM
 10
10.49556533227423
 20
0.2485475821567241
 30
0.0
  0
VERTEX
  5
183
  8
50MM
 10
10.49542151955149
 20
0.2486691485169379
 30
0.0
  0
VERTEX
  5
184
  8
50MM
 10
10.4952776281767
 20
0.2487848426454132
 30
0.0
  0
VERTEX
  5
185
  8
50MM
 10
10.49513366172395
 20
0.2488946626418633
 30
0.0
  0
VERTEX
  5
186
  8
50MM
 10
10.49498962376732
 20
0.2489986066060017
 30
0.0
  0
VERTEX
  5
187
  8
50MM
 10
10.4948455178809
 20
0.2490966726375418
 30
0.0
  0
VERTEX
  5
188
  8
50MM
 10
10.4947013476388
 20
0.249188858836197
 30
0.0
  0
VERTEX
  5
189
  8
50MM
 10
10.49455711661508
 20
0.2492751633016808
 30
0.0
  0
VERTEX
  5
18A
  8
50MM
 10
10.49441282838387
 20
0.2493555841337065
 30
0.0
  0
VERTEX
  5
18B
  8
50MM
 10
10.49426848651922
 20
0.2494301194319876
 30
0.0
  0
VERTEX
  5
18C
  8
50MM
 10
10.49412409459525
 20
0.2494987672962376
 30
0.0
  0
VERTEX
  5
18D
  8
50MM
 10
10.49397965618604
 20
0.2495615258261698
 30
0.0
  0
VERTEX
  5
18E
  8
50MM
 10
10.49383517486568
 20
0.2496183931214977
 30
0.0
  0
VERTEX
  5
18F
  8
50MM
 10
10.49369065420827
 20
0.2496693672819346
 30
0.0
  0
VERTEX
  5
190
  8
50MM
 10
10.49354609778789
 20
0.2497144464071941
 30
0.0
  0
VERTEX
  5
191
  8
50MM
 10
10.49340150917863
 20
0.2497536285969895
 30
0.0
  0
VERTEX
  5
192
  8
50MM
 10
10.49325689195459
 20
0.2497869119510342
 30
0.0
  0
VERTEX
  5
193
  8
50MM
 10
10.49311224968985
 20
0.2498142945690418
 30
0.0
  0
VERTEX
  5
194
  8
50MM
 10
10.49296758595851
 20
0.2498357745507255
 30
0.0
  0
VERTEX
  5
195
  8
50MM
 10
10.49282290433467
 20
0.2498513499957989
 30
0.0
  0
VERTEX
  5
196
  8
50MM
 10
10.49267820839239
 20
0.2498610190039753
 30
0.0
  0
VERTEX
  5
197
  8
50MM
 10
10.49253350170579
 20
0.2498647796749681
 30
0.0
  0
VERTEX
  5
198
  8
50MM
 10
10.49238878784895
 20
0.249862630108491
 30
0.0
  0
VERTEX
  5
199
  8
50MM
 10
10.49224407039596
 20
0.2498545684042571
 30
0.0
  0
VERTEX
  5
19A
  8
50MM
 10
10.49209935292091
 20
0.2498405926619799
 30
0.0
  0
VERTEX
  5
19B
  8
50MM
 10
10.4919546389979
 20
0.249820700981373
 30
0.0
  0
VERTEX
  5
19C
  8
50MM
 10
10.49180993220101
 20
0.2497948914621496
 30
0.0
  0
VERTEX
  5
19D
  8
50MM
 10
10.49166523610433
 20
0.2497631622040232
 30
0.0
  0
VERTEX
  5
19E
  8
50MM
 10
10.49152055428196
 20
0.2497255113067073
 30
0.0
  0
VERTEX
  5
19F
  8
50MM
 10
10.49137589030799
 20
0.2496819368699153
 30
0.0
  0
VERTEX
  5
1A0
  8
50MM
 10
10.4912312477565
 20
0.2496324369933605
 30
0.0
  0
VERTEX
  5
1A1
  8
50MM
 10
10.4910866302016
 20
0.2495770097767565
 30
0.0
  0
VERTEX
  5
1A2
  8
50MM
 10
10.49094204121736
 20
0.2495156533198165
 30
0.0
  0
VERTEX
  5
1A3
  8
50MM
 10
10.49079748437788
 20
0.2494483657222542
 30
0.0
  0
VERTEX
  5
1A4
  8
50MM
 10
10.49065296325725
 20
0.2493751450837828
 30
0.0
  0
VERTEX
  5
1A5
  8
50MM
 10
10.49050848142956
 20
0.2492959895041158
 30
0.0
  0
VERTEX
  5
1A6
  8
50MM
 10
10.49036404246891
 20
0.2492108970829667
 30
0.0
  0
VERTEX
  5
1A7
  8
50MM
 10
10.49021964994938
 20
0.2491198659200488
 30
0.0
  0
VERTEX
  5
1A8
  8
50MM
 10
10.49007530744506
 20
0.2490228941150756
 30
0.0
  0
VERTEX
  5
1A9
  8
50MM
 10
10.48993101853005
 20
0.2489199797677604
 30
0.0
  0
VERTEX
  5
1AA
  8
50MM
 10
10.48978678677843
 20
0.2488111209778168
 30
0.0
  0
VERTEX
  5
1AB
  8
50MM
 10
10.4896426157643
 20
0.2486963158449582
 30
0.0
  0
VERTEX
  5
1AC
  8
50MM
 10
10.48949850906175
 20
0.2485755624688979
 30
0.0
  0
VERTEX
  5
1AD
  8
50MM
 10
10.48935447024487
 20
0.2484488589493494
 30
0.0
  0
VERTEX
  5
1AE
  8
50MM
 10
10.48921050288774
 20
0.2483162033860261
 30
0.0
  0
VERTEX
  5
1AF
  8
50MM
 10
10.48906661056447
 20
0.2481775938786415
 30
0.0
  0
VERTEX
  5
1B0
  8
50MM
 10
10.48892279684913
 20
0.2480330285269089
 30
0.0
  0
VERTEX
  5
1B1
  8
50MM
 10
10.48877906531583
 20
0.2478825054305419
 30
0.0
  0
VERTEX
  5
1B2
  8
50MM
 10
10.48863541953865
 20
0.2477260226892537
 30
0.0
  0
VERTEX
  5
1B3
  8
50MM
 10
10.48849186309169
 20
0.2475635784027578
 30
0.0
  0
VERTEX
  5
1B4
  8
50MM
 10
10.48834839954903
 20
0.2473951706707677
 30
0.0
  0
VERTEX
  5
1B5
  8
50MM
 10
10.48806176547298
 20
0.2470404572691585
 30
0.0
  0
VERTEX
  5
1B6
  8
50MM
 10
10.48777554590324
 20
0.2466618672821335
 30
0.0
  0
VERTEX
  5
1B7
  8
50MM
 10
10.48748976943254
 20
0.2462593855073999
 30
0.0
  0
VERTEX
  5
1B8
  8
50MM
 10
10.48720446465359
 20
0.2458329967426652
 30
0.0
  0
VERTEX
  5
1B9
  8
50MM
 10
10.48691966015914
 20
0.2453826857856367
 30
0.0
  0
VERTEX
  5
1BA
  8
50MM
 10
10.4866353845419
 20
0.244908437434022
 30
0.0
  0
VERTEX
  5
1BB
  8
50MM
 10
10.4863516663946
 20
0.2444102364855283
 30
0.0
  0
VERTEX
  5
1BC
  8
50MM
 10
10.48606853430997
 20
0.243888067737863
 30
0.0
  0
VERTEX
  5
1BD
  8
50MM
 10
10.48578601688074
 20
0.2433419159887336
 30
0.0
  0
VERTEX
  5
1BE
  8
50MM
 10
10.48522294035936
 20
0.2421776026769117
 30
0.0
  0
VERTEX
  5
1BF
  8
50MM
 10
10.48466266557228
 20
0.2409171749317218
 30
0.0
  0
VERTEX
  5
1C0
  8
50MM
 10
10.48410542126132
 20
0.2395605111348229
 30
0.0
  0
VERTEX
  5
1C1
  8
50MM
 10
10.48355143616829
 20
0.2381074896678743
 30
0.0
  0
VERTEX
  5
1C2
  8
50MM
 10
10.48300093296941
 20
0.2365582079215729
 30
0.0
  0
VERTEX
  5
1C3
  8
50MM
 10
10.48245411007845
 20
0.2349136393227681
 30
0.0
  0
VERTEX
  5
1C4
  8
50MM
 10
10.4813722746131
 20
0.2313434113111977
 30
0.0
  0
VERTEX
  5
1C5
  8
50MM
 10
10.48030746855772
 20
0.2274063451202615
 30
0.0
  0
VERTEX
  5
1C6
  8
50MM
 10
10.47926123069782
 20
0.2231119802370583
 30
0.0
  0
VERTEX
  5
1C7
  8
50MM
 10
10.4782350998189
 20
0.2184698561486866
 30
0.0
  0
VERTEX
  5
1C8
  8
50MM
 10
10.47723061470645
 20
0.2134895123422451
 30
0.0
  0
VERTEX
  5
1C9
  8
50MM
 10
10.47529273692299
 20
0.2025523235235469
 30
0.0
  0
VERTEX
  5
1CA
  8
50MM
 10
10.47345990763142
 20
0.1903767296777526
 30
0.0
  0
VERTEX
  5
1CB
  8
50MM
 10
10.47174443711574
 20
0.1770390467016512
 30
0.0
  0
VERTEX
  5
1CC
  8
50MM
 10
10.46871481354798
 20
0.1471826769456822
 30
0.0
  0
VERTEX
  5
1CD
  8
50MM
 10
10.46629164431033
 20
0.1136478537413995
 30
0.0
  0
VERTEX
  5
1CE
  8
50MM
 10
10.46451989076812
 20
0.0773156658203567
 30
0.0
  0
VERTEX
  5
1CF
  8
50MM
 10
10.46343381010537
 20
0.0391213142255558
 30
0.0
  0
VERTEX
  5
1D0
  8
50MM
 10
10.46306765950609
 20
-0.0000000000000014
 30
0.0
  0
VERTEX
  5
1D1
  8
50MM
 10
10.46344325121232
 20
-0.0391107988118923
 30
0.0
  0
VERTEX
  5
1D2
  8
50MM
 10
10.46453261769816
 20
-0.0772644961600118
 30
0.0
  0
VERTEX
  5
1D3
  8
50MM
 10
10.46629534649575
 20
-0.1135122289928344
 30
0.0
  0
VERTEX
  5
1D4
  8
50MM
 10
10.46869102513721
 20
-0.1469051342588345
 30
0.0
  0
VERTEX
  5
1D5
  8
50MM
 10
10.47167150558416
 20
-0.1765640798535532
 30
0.0
  0
VERTEX
  5
1D6
  8
50MM
 10
10.47335681423272
 20
-0.1898013944911802
 30
0.0
  0
VERTEX
  5
1D7
  8
50MM
 10
10.47515769751617
 20
-0.2018888574607982
 30
0.0
  0
VERTEX
  5
1D8
  8
50MM
 10
10.47706330219816
 20
-0.2127601590912663
 30
0.0
  0
VERTEX
  5
1D9
  8
50MM
 10
10.47805198342723
 20
-0.2177190276320877
 30
0.0
  0
VERTEX
  5
1DA
  8
50MM
 10
10.4790627750423
 20
-0.2223489897114439
 30
0.0
  0
VERTEX
  5
1DB
  8
50MM
 10
10.48009432038883
 20
-0.2266417566204423
 30
0.0
  0
VERTEX
  5
1DC
  8
50MM
 10
10.48114526281225
 20
-0.2305890396501902
 30
0.0
  0
VERTEX
  5
1DD
  8
50MM
 10
10.48221424565803
 20
-0.2341825500917953
 30
0.0
  0
VERTEX
  5
1DE
  8
50MM
 10
10.48275507828476
 20
-0.2358440503705152
 30
0.0
  0
VERTEX
  5
1DF
  8
50MM
 10
10.48329991227163
 20
-0.2374139992363647
 30
0.0
  0
VERTEX
  5
1E0
  8
50MM
 10
10.48384856817681
 20
-0.2388915130124439
 30
0.0
  0
VERTEX
  5
1E1
  8
50MM
 10
10.48440082711849
 20
-0.2402763176687002
 30
0.0
  0
VERTEX
  5
1E2
  8
50MM
 10
10.48495646035486
 20
-0.2415682915867927
 30
0.0
  0
VERTEX
  5
1E3
  8
50MM
 10
10.4855152391441
 20
-0.2427673131483804
 30
0.0
  0
VERTEX
  5
1E4
  8
50MM
 10
10.48579573663924
 20
-0.2433319287897535
 30
0.0
  0
VERTEX
  5
1E5
  8
50MM
 10
10.48607693474441
 20
-0.2438732607351225
 30
0.0
  0
VERTEX
  5
1E6
  8
50MM
 10
10.48635880486689
 20
-0.2443912937821949
 30
0.0
  0
VERTEX
  5
1E7
  8
50MM
 10
10.48664131841395
 20
-0.2448860127286781
 30
0.0
  0
VERTEX
  5
1E8
  8
50MM
 10
10.48692444679287
 20
-0.2453574023722794
 30
0.0
  0
VERTEX
  5
1E9
  8
50MM
 10
10.48720816141093
 20
-0.2458054475107063
 30
0.0
  0
VERTEX
  5
1EA
  8
50MM
 10
10.48749243367539
 20
-0.246230132941666
 30
0.0
  0
VERTEX
  5
1EB
  8
50MM
 10
10.48777723499352
 20
-0.2466314434628661
 30
0.0
  0
VERTEX
  5
1EC
  8
50MM
 10
10.48806253677261
 20
-0.2470093638720138
 30
0.0
  0
VERTEX
  5
1ED
  8
50MM
 10
10.48834831041991
 20
-0.2473638789668167
 30
0.0
  0
VERTEX
  5
1EE
  8
50MM
 10
10.48849136525892
 20
-0.2475323547706224
 30
0.0
  0
VERTEX
  5
1EF
  8
50MM
 10
10.48863452734272
 20
-0.247694973544982
 30
0.0
  0
VERTEX
  5
1F0
  8
50MM
 10
10.4887777930972
 20
-0.2478517333896092
 30
0.0
  0
VERTEX
  5
1F1
  8
50MM
 10
10.48892115894829
 20
-0.2480026324042173
 30
0.0
  0
VERTEX
  5
1F2
  8
50MM
 10
10.48906462132189
 20
-0.2481476686885196
 30
0.0
  0
VERTEX
  5
1F3
  8
50MM
 10
10.48920817664391
 20
-0.2482868403422297
 30
0.0
  0
VERTEX
  5
1F4
  8
50MM
 10
10.48935182134026
 20
-0.248420145465061
 30
0.0
  0
VERTEX
  5
1F5
  8
50MM
 10
10.48949555183684
 20
-0.2485475821567268
 30
0.0
  0
VERTEX
  5
1F6
  8
50MM
 10
10.48963936455958
 20
-0.2486691485169406
 30
0.0
  0
VERTEX
  5
1F7
  8
50MM
 10
10.48978325593437
 20
-0.2487848426454159
 30
0.0
  0
VERTEX
  5
1F8
  8
50MM
 10
10.48992722238712
 20
-0.248894662641866
 30
0.0
  0
VERTEX
  5
1F9
  8
50MM
 10
10.49007126034375
 20
-0.2489986066060044
 30
0.0
  0
VERTEX
  5
1FA
  8
50MM
 10
10.49021536623017
 20
-0.2490966726375445
 30
0.0
  0
VERTEX
  5
1FB
  8
50MM
 10
10.49035953647227
 20
-0.2491888588361997
 30
0.0
  0
VERTEX
  5
1FC
  8
50MM
 10
10.49050376749598
 20
-0.2492751633016835
 30
0.0
  0
VERTEX
  5
1FD
  8
50MM
 10
10.4906480557272
 20
-0.2493555841337093
 30
0.0
  0
VERTEX
  5
1FE
  8
50MM
 10
10.49079239759184
 20
-0.2494301194319904
 30
0.0
  0
VERTEX
  5
1FF
  8
50MM
 10
10.49093678951581
 20
-0.2494987672962403
 30
0.0
  0
VERTEX
  5
200
  8
50MM
 10
10.49108122792503
 20
-0.2495615258261726
 30
0.0
  0
VERTEX
  5
201
  8
50MM
 10
10.49122570924538
 20
-0.2496183931215004
 30
0.0
  0
VERTEX
  5
202
  8
50MM
 10
10.4913702299028
 20
-0.2496693672819373
 30
0.0
  0
VERTEX
  5
203
  8
50MM
 10
10.49151478632318
 20
-0.2497144464071968
 30
0.0
  0
VERTEX
  5
204
  8
50MM
 10
10.49165937493244
 20
-0.2497536285969922
 30
0.0
  0
VERTEX
  5
205
  8
50MM
 10
10.49180399215648
 20
-0.2497869119510369
 30
0.0
  0
VERTEX
  5
206
  8
50MM
 10
10.49194863442122
 20
-0.2498142945690445
 30
0.0
  0
VERTEX
  5
207
  8
50MM
 10
10.49209329815255
 20
-0.2498357745507282
 30
0.0
  0
VERTEX
  5
208
  8
50MM
 10
10.4922379797764
 20
-0.2498513499958016
 30
0.0
  0
VERTEX
  5
209
  8
50MM
 10
10.49238267571867
 20
-0.249861019003978
 30
0.0
  0
VERTEX
  5
20A
  8
50MM
 10
10.49252738240527
 20
-0.2498647796749709
 30
0.0
  0
VERTEX
  5
20B
  8
50MM
 10
10.49267209626212
 20
-0.2498626301084937
 30
0.0
  0
VERTEX
  5
20C
  8
50MM
 10
10.49281681371511
 20
-0.2498545684042598
 30
0.0
  0
VERTEX
  5
20D
  8
50MM
 10
10.49296153119015
 20
-0.2498405926619827
 30
0.0
  0
VERTEX
  5
20E
  8
50MM
 10
10.49310624511317
 20
-0.2498207009813757
 30
0.0
  0
VERTEX
  5
20F
  8
50MM
 10
10.49325095191006
 20
-0.2497948914621523
 30
0.0
  0
VERTEX
  5
210
  8
50MM
 10
10.49339564800674
 20
-0.2497631622040259
 30
0.0
  0
VERTEX
  5
211
  8
50MM
 10
10.4935403298291
 20
-0.2497255113067101
 30
0.0
  0
VERTEX
  5
212
  8
50MM
 10
10.49368499380308
 20
-0.249681936869918
 30
0.0
  0
VERTEX
  5
213
  8
50MM
 10
10.49382963635456
 20
-0.2496324369933632
 30
0.0
  0
VERTEX
  5
214
  8
50MM
 10
10.49397425390947
 20
-0.2495770097767592
 30
0.0
  0
VERTEX
  5
215
  8
50MM
 10
10.49411884289371
 20
-0.2495156533198192
 30
0.0
  0
VERTEX
  5
216
  8
50MM
 10
10.49426339973319
 20
-0.2494483657222569
 30
0.0
  0
VERTEX
  5
217
  8
50MM
 10
10.49440792085382
 20
-0.2493751450837855
 30
0.0
  0
VERTEX
  5
218
  8
50MM
 10
10.4945524026815
 20
-0.2492959895041185
 30
0.0
  0
VERTEX
  5
219
  8
50MM
 10
10.49469684164216
 20
-0.2492108970829694
 30
0.0
  0
VERTEX
  5
21A
  8
50MM
 10
10.49484123416169
 20
-0.2491198659200515
 30
0.0
  0
VERTEX
  5
21B
  8
50MM
 10
10.49498557666601
 20
-0.2490228941150783
 30
0.0
  0
VERTEX
  5
21C
  8
50MM
 10
10.49512986558102
 20
-0.2489199797677631
 30
0.0
  0
VERTEX
  5
21D
  8
50MM
 10
10.49527409733264
 20
-0.2488111209778195
 30
0.0
  0
VERTEX
  5
21E
  8
50MM
 10
10.49541826834677
 20
-0.2486963158449609
 30
0.0
  0
VERTEX
  5
21F
  8
50MM
 10
10.49556237504932
 20
-0.2485755624689006
 30
0.0
  0
VERTEX
  5
220
  8
50MM
 10
10.4957064138662
 20
-0.2484488589493521
 30
0.0
  0
VERTEX
  5
221
  8
50MM
 10
10.49585038122333
 20
-0.2483162033860289
 30
0.0
  0
VERTEX
  5
222
  8
50MM
 10
10.4959942735466
 20
-0.2481775938786442
 30
0.0
  0
VERTEX
  5
223
  8
50MM
 10
10.49613808726193
 20
-0.2480330285269117
 30
0.0
  0
VERTEX
  5
224
  8
50MM
 10
10.49628181879524
 20
-0.2478825054305446
 30
0.0
  0
VERTEX
  5
225
  8
50MM
 10
10.49642546457241
 20
-0.2477260226892564
 30
0.0
  0
VERTEX
  5
226
  8
50MM
 10
10.49656902101938
 20
-0.2475635784027606
 30
0.0
  0
VERTEX
  5
227
  8
50MM
 10
10.49671248456204
 20
-0.2473951706707705
 30
0.0
  0
VERTEX
  5
228
  8
50MM
 10
10.49699911863809
 20
-0.2470404572691613
 30
0.0
  0
VERTEX
  5
229
  8
50MM
 10
10.49728533820783
 20
-0.2466618672821362
 30
0.0
  0
VERTEX
  5
22A
  8
50MM
 10
10.49757111467853
 20
-0.2462593855074026
 30
0.0
  0
VERTEX
  5
22B
  8
50MM
 10
10.49785641945748
 20
-0.2458329967426679
 30
0.0
  0
VERTEX
  5
22C
  8
50MM
 10
10.49814122395193
 20
-0.2453826857856395
 30
0.0
  0
VERTEX
  5
22D
  8
50MM
 10
10.49842549956917
 20
-0.2449084374340247
 30
0.0
  0
VERTEX
  5
22E
  8
50MM
 10
10.49870921771647
 20
-0.244410236485531
 30
0.0
  0
VERTEX
  5
22F
  8
50MM
 10
10.4989923498011
 20
-0.2438880677378657
 30
0.0
  0
VERTEX
  5
230
  8
50MM
 10
10.49927486723034
 20
-0.2433419159887363
 30
0.0
  0
VERTEX
  5
231
  8
50MM
 10
10.49983794375171
 20
-0.2421776026769144
 30
0.0
  0
VERTEX
  5
232
  8
50MM
 10
10.50039821853879
 20
-0.2409171749317245
 30
0.0
  0
VERTEX
  5
233
  8
50MM
 10
10.50095546284975
 20
-0.2395605111348257
 30
0.0
  0
VERTEX
  5
234
  8
50MM
 10
10.50150944794277
 20
-0.238107489667877
 30
0.0
  0
VERTEX
  5
235
  8
50MM
 10
10.50205995114166
 20
-0.2365582079215756
 30
0.0
  0
VERTEX
  5
236
  8
50MM
 10
10.50260677403261
 20
-0.2349136393227708
 30
0.0
  0
VERTEX
  5
237
  8
50MM
 10
10.50368860949797
 20
-0.2313434113112003
 30
0.0
  0
VERTEX
  5
238
  8
50MM
 10
10.50475341555335
 20
-0.2274063451202642
 30
0.0
  0
VERTEX
  5
239
  8
50MM
 10
10.50579965341325
 20
-0.223111980237061
 30
0.0
  0
VERTEX
  5
23A
  8
50MM
 10
10.50682578429217
 20
-0.2184698561486893
 30
0.0
  0
VERTEX
  5
23B
  8
50MM
 10
10.50783026940462
 20
-0.2134895123422478
 30
0.0
  0
VERTEX
  5
23C
  8
50MM
 10
10.50976814718808
 20
-0.2025523235235495
 30
0.0
  0
VERTEX
  5
23D
  8
50MM
 10
10.51160097647965
 20
-0.1903767296777552
 30
0.0
  0
VERTEX
  5
23E
  8
50MM
 10
10.51331644699533
 20
-0.1770390467016537
 30
0.0
  0
VERTEX
  5
23F
  8
50MM
 10
10.51634607056309
 20
-0.1471826769456847
 30
0.0
  0
VERTEX
  5
240
  8
50MM
 10
10.51876923980074
 20
-0.1136478537414021
 30
0.0
  0
VERTEX
  5
241
  8
50MM
 10
10.52054099334294
 20
-0.0773156658203595
 30
0.0
  0
VERTEX
  5
242
  8
50MM
 10
10.5216270740057
 20
-0.0391213142255586
 30
0.0
  0
VERTEX
  5
243
  8
50MM
 10
10.52199322460497
 20
-0.0000000000000014
 30
0.0
  0
SEQEND
  5
244
  8
50MM
  0
POLYLINE
  5
245
  8
50MM
 66
     1
 10
0.0
 20
0.0
 30
0.0
  0
VERTEX
  5
246
  8
50MM
 10
19.6367884348888
 20
-0.0000000000000027
 30
0.0
  0
VERTEX
  5
247
  8
50MM
 10
19.63678843488881
 20
0.2498647796749669
 30
0.0
  0
VERTEX
  5
248
  8
50MM
 10
19.63678843488881
 20
0.2498626301084897
 30
0.0
  0
VERTEX
  5
249
  8
50MM
 10
19.63678843488881
 20
-0.2498647796749721
 30
0.0
  0
VERTEX
  5
24A
  8
50MM
 10
19.63678843488881
 20
-0.249862630108495
 30
0.0
  0
VERTEX
  5
24B
  8
50MM
 10
19.6367884348888
 20
-0.0000000000000027
 30
0.0
  0
SEQEND
  5
24C
  8
50MM
  0
POLYLINE
  5
24D
  8
50MM
 66
     1
 10
0.0
 20
0.0
 30
0.0
  0
VERTEX
  5
24E
  8
50MM
 10
32.12973432617276
 20
-0.0000000000000021
 30
0.0
  0
VERTEX
  5
24F
  8
50MM
 10
32.13010991787899
 20
0.0391107988118888
 30
0.0
  0
VERTEX
  5
250
  8
50MM
 10
32.13119928436484
 20
0.0772644961600084
 30
0.0
  0
VERTEX
  5
251
  8
50MM
 10
32.13296201316243
 20
0.1135122289928312
 30
0.0
  0
VERTEX
  5
252
  8
50MM
 10
32.13535769180389
 20
0.1469051342588314
 30
0.0
  0
VERTEX
  5
253
  8
50MM
 10
32.13833817225083
 20
0.17656407985355
 30
0.0
  0
VERTEX
  5
254
  8
50MM
 10
32.14002348089939
 20
0.1898013944911771
 30
0.0
  0
VERTEX
  5
255
  8
50MM
 10
32.14182436418284
 20
0.201888857460795
 30
0.0
  0
VERTEX
  5
256
  8
50MM
 10
32.14372996886482
 20
0.2127601590912631
 30
0.0
  0
VERTEX
  5
257
  8
50MM
 10
32.14471865009389
 20
0.2177190276320845
 30
0.0
  0
VERTEX
  5
258
  8
50MM
 10
32.14572944170897
 20
0.2223489897114406
 30
0.0
  0
VERTEX
  5
259
  8
50MM
 10
32.14676098705549
 20
0.226641756620439
 30
0.0
  0
VERTEX
  5
25A
  8
50MM
 10
32.14781192947891
 20
0.230589039650187
 30
0.0
  0
VERTEX
  5
25B
  8
50MM
 10
32.1488809123247
 20
0.234182550091792
 30
0.0
  0
VERTEX
  5
25C
  8
50MM
 10
32.14942174495143
 20
0.2358440503705119
 30
0.0
  0
VERTEX
  5
25D
  8
50MM
 10
32.14996657893829
 20
0.2374139992363614
 30
0.0
  0
VERTEX
  5
25E
  8
50MM
 10
32.15051523484347
 20
0.2388915130124406
 30
0.0
  0
VERTEX
  5
25F
  8
50MM
 10
32.15106749378515
 20
0.2402763176686969
 30
0.0
  0
VERTEX
  5
260
  8
50MM
 10
32.15162312702152
 20
0.2415682915867894
 30
0.0
  0
VERTEX
  5
261
  8
50MM
 10
32.15218190581076
 20
0.2427673131483771
 30
0.0
  0
VERTEX
  5
262
  8
50MM
 10
32.1524624033059
 20
0.2433319287897502
 30
0.0
  0
VERTEX
  5
263
  8
50MM
 10
32.15274360141107
 20
0.2438732607351192
 30
0.0
  0
VERTEX
  5
264
  8
50MM
 10
32.15302547153355
 20
0.2443912937821916
 30
0.0
  0
VERTEX
  5
265
  8
50MM
 10
32.15330798508062
 20
0.2448860127286748
 30
0.0
  0
VERTEX
  5
266
  8
50MM
 10
32.15359111345953
 20
0.2453574023722761
 30
0.0
  0
VERTEX
  5
267
  8
50MM
 10
32.15387482807759
 20
0.2458054475107029
 30
0.0
  0
VERTEX
  5
268
  8
50MM
 10
32.15415910034205
 20
0.2462301329416627
 30
0.0
  0
VERTEX
  5
269
  8
50MM
 10
32.15444390166019
 20
0.2466314434628628
 30
0.0
  0
VERTEX
  5
26A
  8
50MM
 10
32.15472920343927
 20
0.2470093638720105
 30
0.0
  0
VERTEX
  5
26B
  8
50MM
 10
32.15501497708658
 20
0.2473638789668134
 30
0.0
  0
VERTEX
  5
26C
  8
50MM
 10
32.15515803192559
 20
0.247532354770619
 30
0.0
  0
VERTEX
  5
26D
  8
50MM
 10
32.15530119400938
 20
0.2476949735449787
 30
0.0
  0
VERTEX
  5
26E
  8
50MM
 10
32.15544445976387
 20
0.2478517333896059
 30
0.0
  0
VERTEX
  5
26F
  8
50MM
 10
32.15558782561496
 20
0.2480026324042139
 30
0.0
  0
VERTEX
  5
270
  8
50MM
 10
32.15573128798856
 20
0.2481476686885163
 30
0.0
  0
VERTEX
  5
271
  8
50MM
 10
32.15587484331058
 20
0.2482868403422264
 30
0.0
  0
VERTEX
  5
272
  8
50MM
 10
32.15601848800692
 20
0.2484201454650576
 30
0.0
  0
VERTEX
  5
273
  8
50MM
 10
32.15616221850351
 20
0.2485475821567234
 30
0.0
  0
VERTEX
  5
274
  8
50MM
 10
32.15630603122625
 20
0.2486691485169372
 30
0.0
  0
VERTEX
  5
275
  8
50MM
 10
32.15644992260103
 20
0.2487848426454125
 30
0.0
  0
VERTEX
  5
276
  8
50MM
 10
32.15659388905378
 20
0.2488946626418626
 30
0.0
  0
VERTEX
  5
277
  8
50MM
 10
32.15673792701042
 20
0.248998606606001
 30
0.0
  0
VERTEX
  5
278
  8
50MM
 10
32.15688203289684
 20
0.2490966726375411
 30
0.0
  0
VERTEX
  5
279
  8
50MM
 10
32.15702620313895
 20
0.2491888588361963
 30
0.0
  0
VERTEX
  5
27A
  8
50MM
 10
32.15717043416265
 20
0.2492751633016801
 30
0.0
  0
VERTEX
  5
27B
  8
50MM
 10
32.15731472239387
 20
0.2493555841337059
 30
0.0
  0
VERTEX
  5
27C
  8
50MM
 10
32.1574590642585
 20
0.249430119431987
 30
0.0
  0
VERTEX
  5
27D
  8
50MM
 10
32.15760345618249
 20
0.249498767296237
 30
0.0
  0
VERTEX
  5
27E
  8
50MM
 10
32.1577478945917
 20
0.2495615258261692
 30
0.0
  0
VERTEX
  5
27F
  8
50MM
 10
32.15789237591206
 20
0.249618393121497
 30
0.0
  0
VERTEX
  5
280
  8
50MM
 10
32.15803689656947
 20
0.249669367281934
 30
0.0
  0
VERTEX
  5
281
  8
50MM
 10
32.15818145298985
 20
0.2497144464071934
 30
0.0
  0
VERTEX
  5
282
  8
50MM
 10
32.1583260415991
 20
0.2497536285969888
 30
0.0
  0
VERTEX
  5
283
  8
50MM
 10
32.15847065882315
 20
0.2497869119510336
 30
0.0
  0
VERTEX
  5
284
  8
50MM
 10
32.15861530108788
 20
0.2498142945690411
 30
0.0
  0
VERTEX
  5
285
  8
50MM
 10
32.15875996481922
 20
0.2498357745507248
 30
0.0
  0
VERTEX
  5
286
  8
50MM
 10
32.15890464644307
 20
0.2498513499957982
 30
0.0
  0
VERTEX
  5
287
  8
50MM
 10
32.15904934238534
 20
0.2498610190039746
 30
0.0
  0
VERTEX
  5
288
  8
50MM
 10
32.15919404907195
 20
0.2498647796749675
 30
0.0
  0
VERTEX
  5
289
  8
50MM
 10
32.15933876292879
 20
0.2498626301084903
 30
0.0
  0
VERTEX
  5
28A
  8
50MM
 10
32.15948348038178
 20
0.2498545684042564
 30
0.0
  0
VERTEX
  5
28B
  8
50MM
 10
32.15962819785683
 20
0.2498405926619793
 30
0.0
  0
VERTEX
  5
28C
  8
50MM
 10
32.15977291177985
 20
0.2498207009813723
 30
0.0
  0
VERTEX
  5
28D
  8
50MM
 10
32.15991761857673
 20
0.2497948914621489
 30
0.0
  0
VERTEX
  5
28E
  8
50MM
 10
32.16006231467341
 20
0.2497631622040226
 30
0.0
  0
VERTEX
  5
28F
  8
50MM
 10
32.16020699649578
 20
0.2497255113067067
 30
0.0
  0
VERTEX
  5
290
  8
50MM
 10
32.16035166046975
 20
0.2496819368699146
 30
0.0
  0
VERTEX
  5
291
  8
50MM
 10
32.16049630302123
 20
0.2496324369933599
 30
0.0
  0
VERTEX
  5
292
  8
50MM
 10
32.16064092057614
 20
0.2495770097767558
 30
0.0
  0
VERTEX
  5
293
  8
50MM
 10
32.16078550956038
 20
0.2495156533198158
 30
0.0
  0
VERTEX
  5
294
  8
50MM
 10
32.16093006639987
 20
0.2494483657222535
 30
0.0
  0
VERTEX
  5
295
  8
50MM
 10
32.1610745875205
 20
0.2493751450837821
 30
0.0
  0
VERTEX
  5
296
  8
50MM
 10
32.16121906934818
 20
0.2492959895041151
 30
0.0
  0
VERTEX
  5
297
  8
50MM
 10
32.16136350830883
 20
0.249210897082966
 30
0.0
  0
VERTEX
  5
298
  8
50MM
 10
32.16150790082835
 20
0.2491198659200481
 30
0.0
  0
VERTEX
  5
299
  8
50MM
 10
32.16165224333268
 20
0.2490228941150749
 30
0.0
  0
VERTEX
  5
29A
  8
50MM
 10
32.16179653224769
 20
0.2489199797677598
 30
0.0
  0
VERTEX
  5
29B
  8
50MM
 10
32.1619407639993
 20
0.2488111209778162
 30
0.0
  0
VERTEX
  5
29C
  8
50MM
 10
32.16208493501344
 20
0.2486963158449575
 30
0.0
  0
VERTEX
  5
29D
  8
50MM
 10
32.16222904171599
 20
0.2485755624688972
 30
0.0
  0
VERTEX
  5
29E
  8
50MM
 10
32.16237308053287
 20
0.2484488589493487
 30
0.0
  0
VERTEX
  5
29F
  8
50MM
 10
32.16251704789
 20
0.2483162033860255
 30
0.0
  0
VERTEX
  5
2A0
  8
50MM
 10
32.16266094021327
 20
0.2481775938786408
 30
0.0
  0
VERTEX
  5
2A1
  8
50MM
 10
32.16280475392861
 20
0.2480330285269083
 30
0.0
  0
VERTEX
  5
2A2
  8
50MM
 10
32.16294848546191
 20
0.2478825054305412
 30
0.0
  0
VERTEX
  5
2A3
  8
50MM
 10
32.16309213123908
 20
0.247726022689253
 30
0.0
  0
VERTEX
  5
2A4
  8
50MM
 10
32.16323568768605
 20
0.2475635784027572
 30
0.0
  0
VERTEX
  5
2A5
  8
50MM
 10
32.16337915122871
 20
0.2473951706707671
 30
0.0
  0
VERTEX
  5
2A6
  8
50MM
 10
32.16366578530476
 20
0.2470404572691579
 30
0.0
  0
VERTEX
  5
2A7
  8
50MM
 10
32.1639520048745
 20
0.2466618672821328
 30
0.0
  0
VERTEX
  5
2A8
  8
50MM
 10
32.16423778134521
 20
0.2462593855073992
 30
0.0
  0
VERTEX
  5
2A9
  8
50MM
 10
32.16452308612415
 20
0.2458329967426645
 30
0.0
  0
VERTEX
  5
2AA
  8
50MM
 10
32.1648078906186
 20
0.2453826857856361
 30
0.0
  0
VERTEX
  5
2AB
  8
50MM
 10
32.16509216623584
 20
0.2449084374340213
 30
0.0
  0
VERTEX
  5
2AC
  8
50MM
 10
32.16537588438314
 20
0.2444102364855276
 30
0.0
  0
VERTEX
  5
2AD
  8
50MM
 10
32.16565901646776
 20
0.2438880677378623
 30
0.0
  0
VERTEX
  5
2AE
  8
50MM
 10
32.165941533897
 20
0.2433419159887329
 30
0.0
  0
VERTEX
  5
2AF
  8
50MM
 10
32.16650461041839
 20
0.242177602676911
 30
0.0
  0
VERTEX
  5
2B0
  8
50MM
 10
32.16706488520546
 20
0.2409171749317211
 30
0.0
  0
VERTEX
  5
2B1
  8
50MM
 10
32.16762212951642
 20
0.2395605111348222
 30
0.0
  0
VERTEX
  5
2B2
  8
50MM
 10
32.16817611460944
 20
0.2381074896678736
 30
0.0
  0
VERTEX
  5
2B3
  8
50MM
 10
32.16872661780832
 20
0.2365582079215722
 30
0.0
  0
VERTEX
  5
2B4
  8
50MM
 10
32.16927344069929
 20
0.2349136393227674
 30
0.0
  0
VERTEX
  5
2B5
  8
50MM
 10
32.17035527616464
 20
0.231343411311197
 30
0.0
  0
VERTEX
  5
2B6
  8
50MM
 10
32.17142008222002
 20
0.2274063451202609
 30
0.0
  0
VERTEX
  5
2B7
  8
50MM
 10
32.17246632007992
 20
0.2231119802370576
 30
0.0
  0
VERTEX
  5
2B8
  8
50MM
 10
32.17349245095884
 20
0.218469856148686
 30
0.0
  0
VERTEX
  5
2B9
  8
50MM
 10
32.17449693607128
 20
0.2134895123422444
 30
0.0
  0
VERTEX
  5
2BA
  8
50MM
 10
32.17643481385474
 20
0.2025523235235462
 30
0.0
  0
VERTEX
  5
2BB
  8
50MM
 10
32.17826764314631
 20
0.190376729677752
 30
0.0
  0
VERTEX
  5
2BC
  8
50MM
 10
32.179983113662
 20
0.1770390467016505
 30
0.0
  0
VERTEX
  5
2BD
  8
50MM
 10
32.18301273722975
 20
0.1471826769456815
 30
0.0
  0
VERTEX
  5
2BE
  8
50MM
 10
32.1854359064674
 20
0.1136478537413989
 30
0.0
  0
VERTEX
  5
2BF
  8
50MM
 10
32.18720766000961
 20
0.0773156658203561
 30
0.0
  0
VERTEX
  5
2C0
  8
50MM
 10
32.18829374067236
 20
0.0391213142255551
 30
0.0
  0
VERTEX
  5
2C1
  8
50MM
 10
32.18865989127164
 20
-0.0000000000000021
 30
0.0
  0
VERTEX
  5
2C2
  8
50MM
 10
32.18828429956542
 20
-0.0391107988118929
 30
0.0
  0
VERTEX
  5
2C3
  8
50MM
 10
32.18719493307957
 20
-0.0772644961600125
 30
0.0
  0
VERTEX
  5
2C4
  8
50MM
 10
32.18543220428198
 20
-0.1135122289928351
 30
0.0
  0
VERTEX
  5
2C5
  8
50MM
 10
32.18303652564052
 20
-0.1469051342588352
 30
0.0
  0
VERTEX
  5
2C6
  8
50MM
 10
32.18005604519358
 20
-0.1765640798535539
 30
0.0
  0
VERTEX
  5
2C7
  8
50MM
 10
32.17837073654502
 20
-0.1898013944911809
 30
0.0
  0
VERTEX
  5
2C8
  8
50MM
 10
32.17656985326157
 20
-0.2018888574607988
 30
0.0
  0
VERTEX
  5
2C9
  8
50MM
 10
32.17466424857959
 20
-0.2127601590912669
 30
0.0
  0
VERTEX
  5
2CA
  8
50MM
 10
32.17367556735051
 20
-0.2177190276320884
 30
0.0
  0
VERTEX
  5
2CB
  8
50MM
 10
32.17266477573544
 20
-0.2223489897114446
 30
0.0
  0
VERTEX
  5
2CC
  8
50MM
 10
32.17163323038892
 20
-0.2266417566204429
 30
0.0
  0
VERTEX
  5
2CD
  8
50MM
 10
32.17058228796549
 20
-0.2305890396501909
 30
0.0
  0
VERTEX
  5
2CE
  8
50MM
 10
32.16951330511971
 20
-0.2341825500917959
 30
0.0
  0
VERTEX
  5
2CF
  8
50MM
 10
32.16897247249298
 20
-0.2358440503705159
 30
0.0
  0
VERTEX
  5
2D0
  8
50MM
 10
32.16842763850612
 20
-0.2374139992363654
 30
0.0
  0
VERTEX
  5
2D1
  8
50MM
 10
32.16787898260093
 20
-0.2388915130124446
 30
0.0
  0
VERTEX
  5
2D2
  8
50MM
 10
32.16732672365924
 20
-0.2402763176687009
 30
0.0
  0
VERTEX
  5
2D3
  8
50MM
 10
32.16677109042287
 20
-0.2415682915867934
 30
0.0
  0
VERTEX
  5
2D4
  8
50MM
 10
32.16621231163363
 20
-0.2427673131483811
 30
0.0
  0
VERTEX
  5
2D5
  8
50MM
 10
32.1659318141385
 20
-0.2433319287897541
 30
0.0
  0
VERTEX
  5
2D6
  8
50MM
 10
32.16565061603333
 20
-0.2438732607351232
 30
0.0
  0
VERTEX
  5
2D7
  8
50MM
 10
32.16536874591085
 20
-0.2443912937821956
 30
0.0
  0
VERTEX
  5
2D8
  8
50MM
 10
32.16508623236378
 20
-0.2448860127286788
 30
0.0
  0
VERTEX
  5
2D9
  8
50MM
 10
32.16480310398486
 20
-0.2453574023722801
 30
0.0
  0
VERTEX
  5
2DA
  8
50MM
 10
32.1645193893668
 20
-0.2458054475107069
 30
0.0
  0
VERTEX
  5
2DB
  8
50MM
 10
32.16423511710235
 20
-0.2462301329416667
 30
0.0
  0
VERTEX
  5
2DC
  8
50MM
 10
32.16395031578421
 20
-0.2466314434628668
 30
0.0
  0
VERTEX
  5
2DD
  8
50MM
 10
32.16366501400512
 20
-0.2470093638720145
 30
0.0
  0
VERTEX
  5
2DE
  8
50MM
 10
32.16337924035781
 20
-0.2473638789668174
 30
0.0
  0
VERTEX
  5
2DF
  8
50MM
 10
32.1632361855188
 20
-0.247532354770623
 30
0.0
  0
VERTEX
  5
2E0
  8
50MM
 10
32.16309302343501
 20
-0.2476949735449827
 30
0.0
  0
VERTEX
  5
2E1
  8
50MM
 10
32.16294975768052
 20
-0.2478517333896099
 30
0.0
  0
VERTEX
  5
2E2
  8
50MM
 10
32.16280639182943
 20
-0.2480026324042179
 30
0.0
  0
VERTEX
  5
2E3
  8
50MM
 10
32.16266292945583
 20
-0.2481476686885203
 30
0.0
  0
VERTEX
  5
2E4
  8
50MM
 10
32.16251937413382
 20
-0.2482868403422304
 30
0.0
  0
VERTEX
  5
2E5
  8
50MM
 10
32.16237572943747
 20
-0.2484201454650616
 30
0.0
  0
VERTEX
  5
2E6
  8
50MM
 10
32.16223199894089
 20
-0.2485475821567275
 30
0.0
  0
VERTEX
  5
2E7
  8
50MM
 10
32.16208818621816
 20
-0.2486691485169413
 30
0.0
  0
VERTEX
  5
2E8
  8
50MM
 10
32.16194429484337
 20
-0.2487848426454166
 30
0.0
  0
VERTEX
  5
2E9
  8
50MM
 10
32.16180032839061
 20
-0.2488946626418667
 30
0.0
  0
VERTEX
  5
2EA
  8
50MM
 10
32.16165629043398
 20
-0.2489986066060051
 30
0.0
  0
VERTEX
  5
2EB
  8
50MM
 10
32.16151218454757
 20
-0.2490966726375452
 30
0.0
  0
VERTEX
  5
2EC
  8
50MM
 10
32.16136801430546
 20
-0.2491888588362004
 30
0.0
  0
VERTEX
  5
2ED
  8
50MM
 10
32.16122378328176
 20
-0.2492751633016842
 30
0.0
  0
VERTEX
  5
2EE
  8
50MM
 10
32.16107949505053
 20
-0.2493555841337099
 30
0.0
  0
VERTEX
  5
2EF
  8
50MM
 10
32.16093515318589
 20
-0.249430119431991
 30
0.0
  0
VERTEX
  5
2F0
  8
50MM
 10
32.16079076126191
 20
-0.249498767296241
 30
0.0
  0
VERTEX
  5
2F1
  8
50MM
 10
32.16064632285271
 20
-0.2495615258261732
 30
0.0
  0
VERTEX
  5
2F2
  8
50MM
 10
32.16050184153235
 20
-0.2496183931215011
 30
0.0
  0
VERTEX
  5
2F3
  8
50MM
 10
32.16035732087494
 20
-0.249669367281938
 30
0.0
  0
VERTEX
  5
2F4
  8
50MM
 10
32.16021276445456
 20
-0.2497144464071974
 30
0.0
  0
VERTEX
  5
2F5
  8
50MM
 10
32.1600681758453
 20
-0.2497536285969928
 30
0.0
  0
VERTEX
  5
2F6
  8
50MM
 10
32.15992355862126
 20
-0.2497869119510376
 30
0.0
  0
VERTEX
  5
2F7
  8
50MM
 10
32.15977891635652
 20
-0.2498142945690451
 30
0.0
  0
VERTEX
  5
2F8
  8
50MM
 10
32.15963425262518
 20
-0.2498357745507289
 30
0.0
  0
VERTEX
  5
2F9
  8
50MM
 10
32.15948957100133
 20
-0.2498513499958022
 30
0.0
  0
VERTEX
  5
2FA
  8
50MM
 10
32.15934487505906
 20
-0.2498610190039786
 30
0.0
  0
VERTEX
  5
2FB
  8
50MM
 10
32.15920016837246
 20
-0.2498647796749715
 30
0.0
  0
VERTEX
  5
2FC
  8
50MM
 10
32.15905545451562
 20
-0.2498626301084944
 30
0.0
  0
VERTEX
  5
2FD
  8
50MM
 10
32.15891073706263
 20
-0.2498545684042605
 30
0.0
  0
VERTEX
  5
2FE
  8
50MM
 10
32.15876601958759
 20
-0.2498405926619833
 30
0.0
  0
VERTEX
  5
2FF
  8
50MM
 10
32.15862130566457
 20
-0.2498207009813764
 30
0.0
  0
VERTEX
  5
300
  8
50MM
 10
32.15847659886769
 20
-0.249794891462153
 30
0.0
  0
VERTEX
  5
301
  8
50MM
 10
32.15833190277101
 20
-0.2497631622040266
 30
0.0
  0
VERTEX
  5
302
  8
50MM
 10
32.15818722094863
 20
-0.2497255113067107
 30
0.0
  0
VERTEX
  5
303
  8
50MM
 10
32.15804255697466
 20
-0.2496819368699187
 30
0.0
  0
VERTEX
  5
304
  8
50MM
 10
32.15789791442317
 20
-0.2496324369933639
 30
0.0
  0
VERTEX
  5
305
  8
50MM
 10
32.15775329686826
 20
-0.2495770097767598
 30
0.0
  0
VERTEX
  5
306
  8
50MM
 10
32.15760870788403
 20
-0.2495156533198199
 30
0.0
  0
VERTEX
  5
307
  8
50MM
 10
32.15746415104455
 20
-0.2494483657222575
 30
0.0
  0
VERTEX
  5
308
  8
50MM
 10
32.15731962992393
 20
-0.2493751450837862
 30
0.0
  0
VERTEX
  5
309
  8
50MM
 10
32.15717514809624
 20
-0.2492959895041192
 30
0.0
  0
VERTEX
  5
30A
  8
50MM
 10
32.15703070913558
 20
-0.2492108970829701
 30
0.0
  0
VERTEX
  5
30B
  8
50MM
 10
32.15688631661605
 20
-0.2491198659200521
 30
0.0
  0
VERTEX
  5
30C
  8
50MM
 10
32.15674197411173
 20
-0.2490228941150789
 30
0.0
  0
VERTEX
  5
30D
  8
50MM
 10
32.15659768519672
 20
-0.2489199797677638
 30
0.0
  0
VERTEX
  5
30E
  8
50MM
 10
32.1564534534451
 20
-0.2488111209778202
 30
0.0
  0
VERTEX
  5
30F
  8
50MM
 10
32.15630928243097
 20
-0.2486963158449615
 30
0.0
  0
VERTEX
  5
310
  8
50MM
 10
32.15616517572842
 20
-0.2485755624689013
 30
0.0
  0
VERTEX
  5
311
  8
50MM
 10
32.15602113691153
 20
-0.2484488589493528
 30
0.0
  0
VERTEX
  5
312
  8
50MM
 10
32.15587716955442
 20
-0.2483162033860295
 30
0.0
  0
VERTEX
  5
313
  8
50MM
 10
32.15573327723114
 20
-0.2481775938786449
 30
0.0
  0
VERTEX
  5
314
  8
50MM
 10
32.15558946351581
 20
-0.2480330285269123
 30
0.0
  0
VERTEX
  5
315
  8
50MM
 10
32.15544573198251
 20
-0.2478825054305452
 30
0.0
  0
VERTEX
  5
316
  8
50MM
 10
32.15530208620532
 20
-0.2477260226892571
 30
0.0
  0
VERTEX
  5
317
  8
50MM
 10
32.15515852975835
 20
-0.2475635784027612
 30
0.0
  0
VERTEX
  5
318
  8
50MM
 10
32.1550150662157
 20
-0.2473951706707712
 30
0.0
  0
VERTEX
  5
319
  8
50MM
 10
32.15472843213966
 20
-0.247040457269162
 30
0.0
  0
VERTEX
  5
31A
  8
50MM
 10
32.15444221256992
 20
-0.2466618672821369
 30
0.0
  0
VERTEX
  5
31B
  8
50MM
 10
32.15415643609921
 20
-0.2462593855074033
 30
0.0
  0
VERTEX
  5
31C
  8
50MM
 10
32.15387113132027
 20
-0.2458329967426686
 30
0.0
  0
VERTEX
  5
31D
  8
50MM
 10
32.15358632682582
 20
-0.2453826857856402
 30
0.0
  0
VERTEX
  5
31E
  8
50MM
 10
32.15330205120858
 20
-0.2449084374340254
 30
0.0
  0
VERTEX
  5
31F
  8
50MM
 10
32.15301833306128
 20
-0.2444102364855317
 30
0.0
  0
VERTEX
  5
320
  8
50MM
 10
32.15273520097664
 20
-0.2438880677378664
 30
0.0
  0
VERTEX
  5
321
  8
50MM
 10
32.15245268354741
 20
-0.2433419159887369
 30
0.0
  0
VERTEX
  5
322
  8
50MM
 10
32.15188960702604
 20
-0.2421776026769151
 30
0.0
  0
VERTEX
  5
323
  8
50MM
 10
32.15132933223896
 20
-0.2409171749317252
 30
0.0
  0
VERTEX
  5
324
  8
50MM
 10
32.15077208792799
 20
-0.2395605111348263
 30
0.0
  0
VERTEX
  5
325
  8
50MM
 10
32.15021810283497
 20
-0.2381074896678776
 30
0.0
  0
VERTEX
  5
326
  8
50MM
 10
32.14966759963609
 20
-0.2365582079215763
 30
0.0
  0
VERTEX
  5
327
  8
50MM
 10
32.14912077674512
 20
-0.2349136393227715
 30
0.0
  0
VERTEX
  5
328
  8
50MM
 10
32.14803894127976
 20
-0.231343411311201
 30
0.0
  0
VERTEX
  5
329
  8
50MM
 10
32.14697413522439
 20
-0.2274063451202649
 30
0.0
  0
VERTEX
  5
32A
  8
50MM
 10
32.14592789736449
 20
-0.2231119802370617
 30
0.0
  0
VERTEX
  5
32B
  8
50MM
 10
32.14490176648557
 20
-0.21846985614869
 30
0.0
  0
VERTEX
  5
32C
  8
50MM
 10
32.14389728137313
 20
-0.2134895123422484
 30
0.0
  0
VERTEX
  5
32D
  8
50MM
 10
32.14195940358967
 20
-0.2025523235235502
 30
0.0
  0
VERTEX
  5
32E
  8
50MM
 10
32.14012657429809
 20
-0.1903767296777559
 30
0.0
  0
VERTEX
  5
32F
  8
50MM
 10
32.1384111037824
 20
-0.1770390467016544
 30
0.0
  0
VERTEX
  5
330
  8
50MM
 10
32.13538148021465
 20
-0.1471826769456853
 30
0.0
  0
VERTEX
  5
331
  8
50MM
 10
32.132958310977
 20
-0.1136478537414028
 30
0.0
  0
VERTEX
  5
332
  8
50MM
 10
32.13118655743479
 20
-0.0773156658203601
 30
0.0
  0
VERTEX
  5
333
  8
50MM
 10
32.13010047677204
 20
-0.0391213142255593
 30
0.0
  0
VERTEX
  5
334
  8
50MM
 10
32.12973432617277
 20
-0.0000000000000021
 30
0.0
  0
SEQEND
  5
335
  8
50MM
  0
POLYLINE
  5
336
  8
50MM
 66
     1
 10
0.0
 20
0.0
 30
0.0
  0
VERTEX
  5
337
  8
50MM
 10
46.6677135944103
 20
-0.0000000000000035
 30
0.0
  0
VERTEX
  5
338
  8
50MM
 10
46.66785284285798
 20
0.0098155370170675
 30
0.0
  0
VERTEX
  5
339
  8
50MM
 10
46.66825351225943
 20
0.019615733148193
 30
0.0
  0
VERTEX
  5
33A
  8
50MM
 10
46.66891205306109
 20
0.029385762408193
 30
0.0
  0
VERTEX
  5
33B
  8
50MM
 10
46.66982491570939
 20
0.0391107988118874
 30
0.0
  0
VERTEX
  5
33C
  8
50MM
 10
46.67098855065078
 20
0.0487760163740961
 30
0.0
  0
VERTEX
  5
33D
  8
50MM
 10
46.67239940833169
 20
0.058366589109639
 30
0.0
  0
VERTEX
  5
33E
  8
50MM
 10
46.67405393919857
 20
0.067867691033336
 30
0.0
  0
VERTEX
  5
33F
  8
50MM
 10
46.67594859369786
 20
0.077264496160007
 30
0.0
  0
VERTEX
  5
340
  8
50MM
 10
46.678079822276
 20
0.086542178504472
 30
0.0
  0
VERTEX
  5
341
  8
50MM
 10
46.68044407537943
 20
0.0956859120815509
 30
0.0
  0
VERTEX
  5
342
  8
50MM
 10
46.6830378034546
 20
0.1046808709060635
 30
0.0
  0
VERTEX
  5
343
  8
50MM
 10
46.68585745694792
 20
0.1135122289928297
 30
0.0
  0
VERTEX
  5
344
  8
50MM
 10
46.68889948630586
 20
0.1221651603566696
 30
0.0
  0
VERTEX
  5
345
  8
50MM
 10
46.69216034197486
 20
0.130624839012403
 30
0.0
  0
VERTEX
  5
346
  8
50MM
 10
46.69563647440135
 20
0.1388764389748498
 30
0.0
  0
VERTEX
  5
347
  8
50MM
 10
46.69932433403179
 20
0.1469051342588299
 30
0.0
  0
VERTEX
  5
348
  8
50MM
 10
46.70321969187322
 20
0.1546971884252112
 30
0.0
  0
VERTEX
  5
349
  8
50MM
 10
46.70731560117522
 20
0.1622432232190531
 30
0.0
  0
VERTEX
  5
34A
  8
50MM
 10
46.71160443574801
 20
0.1695349499314631
 30
0.0
  0
VERTEX
  5
34B
  8
50MM
 10
46.71381881682664
 20
0.1730828575356022
 30
0.0
  0
VERTEX
  5
34C
  8
50MM
 10
46.71607856940179
 20
0.1765640798535486
 30
0.0
  0
VERTEX
  5
34D
  8
50MM
 10
46.71838274019974
 20
0.1799775807966907
 30
0.0
  0
VERTEX
  5
34E
  8
50MM
 10
46.72073037594675
 20
0.183322324276417
 30
0.0
  0
VERTEX
  5
34F
  8
50MM
 10
46.72312052336912
 20
0.1865972742041158
 30
0.0
  0
VERTEX
  5
350
  8
50MM
 10
46.72555222919309
 20
0.1898013944911757
 30
0.0
  0
VERTEX
  5
351
  8
50MM
 10
46.72802454014497
 20
0.1929336490489849
 30
0.0
  0
VERTEX
  5
352
  8
50MM
 10
46.73053650295103
 20
0.1959930017889321
 30
0.0
  0
VERTEX
  5
353
  8
50MM
 10
46.73308716433753
 20
0.1989784166224055
 30
0.0
  0
VERTEX
  5
354
  8
50MM
 10
46.73567557103075
 20
0.2018888574607935
 30
0.0
  0
VERTEX
  5
355
  8
50MM
 10
46.73830076975696
 20
0.2047232882154848
 30
0.0
  0
VERTEX
  5
356
  8
50MM
 10
46.74096180724246
 20
0.2074806727978676
 30
0.0
  0
VERTEX
  5
357
  8
50MM
 10
46.7436577302135
 20
0.2101599751193304
 30
0.0
  0
VERTEX
  5
358
  8
50MM
 10
46.74638758539637
 20
0.2127601590912616
 30
0.0
  0
VERTEX
  5
359
  8
50MM
 10
46.74915041951733
 20
0.2152801886250497
 30
0.0
  0
VERTEX
  5
35A
  8
50MM
 10
46.75194527930268
 20
0.217719027632083
 30
0.0
  0
VERTEX
  5
35B
  8
50MM
 10
46.75477121147867
 20
0.2200756400237501
 30
0.0
  0
VERTEX
  5
35C
  8
50MM
 10
46.75762726277159
 20
0.2223489897114392
 30
0.0
  0
VERTEX
  5
35D
  8
50MM
 10
46.7605124799077
 20
0.2245380406065389
 30
0.0
  0
VERTEX
  5
35E
  8
50MM
 10
46.76342590961329
 20
0.2266417566204376
 30
0.0
  0
VERTEX
  5
35F
  8
50MM
 10
46.76636659861462
 20
0.2286591016645236
 30
0.0
  0
VERTEX
  5
360
  8
50MM
 10
46.769333593638
 20
0.2305890396501855
 30
0.0
  0
VERTEX
  5
361
  8
50MM
 10
46.77232594140966
 20
0.2324305344888117
 30
0.0
  0
VERTEX
  5
362
  8
50MM
 10
46.7753426886559
 20
0.2341825500917905
 30
0.0
  0
VERTEX
  5
363
  8
50MM
 10
46.778382882103
 20
0.2358440503705105
 30
0.0
  0
VERTEX
  5
364
  8
50MM
 10
46.78144556847722
 20
0.2374139992363599
 30
0.0
  0
VERTEX
  5
365
  8
50MM
 10
46.78452973907863
 20
0.2388915130124391
 30
0.0
  0
VERTEX
  5
366
  8
50MM
 10
46.78763416350242
 20
0.2402763176686954
 30
0.0
  0
VERTEX
  5
367
  8
50MM
 10
46.79075755591759
 20
0.2415682915867879
 30
0.0
  0
VERTEX
  5
368
  8
50MM
 10
46.79389863049312
 20
0.2427673131483756
 30
0.0
  0
VERTEX
  5
369
  8
50MM
 10
46.79705610139798
 20
0.2438732607351177
 30
0.0
  0
VERTEX
  5
36A
  8
50MM
 10
46.80022868280118
 20
0.2448860127286733
 30
0.0
  0
VERTEX
  5
36B
  8
50MM
 10
46.80341508887169
 20
0.2458054475107015
 30
0.0
  0
VERTEX
  5
36C
  8
50MM
 10
46.80661403377849
 20
0.2466314434628613
 30
0.0
  0
VERTEX
  5
36D
  8
50MM
 10
46.80982423169058
 20
0.2473638789668119
 30
0.0
  0
VERTEX
  5
36E
  8
50MM
 10
46.81304439677693
 20
0.2480026324042125
 30
0.0
  0
VERTEX
  5
36F
  8
50MM
 10
46.81627324320654
 20
0.248547582156722
 30
0.0
  0
VERTEX
  5
370
  8
50MM
 10
46.81950948514839
 20
0.2489986066059996
 30
0.0
  0
VERTEX
  5
371
  8
50MM
 10
46.82275183677146
 20
0.2493555841337044
 30
0.0
  0
VERTEX
  5
372
  8
50MM
 10
46.82599901224474
 20
0.2496183931214956
 30
0.0
  0
VERTEX
  5
373
  8
50MM
 10
46.8292497257372
 20
0.2497869119510321
 30
0.0
  0
VERTEX
  5
374
  8
50MM
 10
46.83250269141784
 20
0.2498610190039731
 30
0.0
  0
VERTEX
  5
375
  8
50MM
 10
46.83575662345565
 20
0.2498405926619778
 30
0.0
  0
VERTEX
  5
376
  8
50MM
 10
46.83901023601962
 20
0.2497255113067052
 30
0.0
  0
VERTEX
  5
377
  8
50MM
 10
46.84226224327871
 20
0.2495156533198144
 30
0.0
  0
VERTEX
  5
378
  8
50MM
 10
46.84551135940192
 20
0.2492108970829646
 30
0.0
  0
VERTEX
  5
379
  8
50MM
 10
46.84875629855824
 20
0.2488111209778147
 30
0.0
  0
VERTEX
  5
37A
  8
50MM
 10
46.85199577491664
 20
0.248316203386024
 30
0.0
  0
VERTEX
  5
37B
  8
50MM
 10
46.85522850264611
 20
0.2477260226892516
 30
0.0
  0
VERTEX
  5
37C
  8
50MM
 10
46.85845319591564
 20
0.2470404572691564
 30
0.0
  0
VERTEX
  5
37D
  8
50MM
 10
46.86166856889422
 20
0.2462593855073978
 30
0.0
  0
VERTEX
  5
37E
  8
50MM
 10
46.86487333575083
 20
0.2453826857856346
 30
0.0
  0
VERTEX
  5
37F
  8
50MM
 10
46.86806621065445
 20
0.2444102364855262
 30
0.0
  0
VERTEX
  5
380
  8
50MM
 10
46.87124590777407
 20
0.2433419159887314
 30
0.0
  0
VERTEX
  5
381
  8
50MM
 10
46.87441114127867
 20
0.2421776026769096
 30
0.0
  0
VERTEX
  5
382
  8
50MM
 10
46.87756062533724
 20
0.2409171749317197
 30
0.0
  0
VERTEX
  5
383
  8
50MM
 10
46.88069307411877
 20
0.2395605111348208
 30
0.0
  0
VERTEX
  5
384
  8
50MM
 10
46.88380720179223
 20
0.2381074896678722
 30
0.0
  0
VERTEX
  5
385
  8
50MM
 10
46.88690175662332
 20
0.2365582079215708
 30
0.0
  0
VERTEX
  5
386
  8
50MM
 10
46.88997562326458
 20
0.234913639322766
 30
0.0
  0
VERTEX
  5
387
  8
50MM
 10
46.89302772046518
 20
0.2331749763073452
 30
0.0
  0
VERTEX
  5
388
  8
50MM
 10
46.89605696697438
 20
0.2313434113111956
 30
0.0
  0
VERTEX
  5
389
  8
50MM
 10
46.89906228154138
 20
0.2294201367702046
 30
0.0
  0
VERTEX
  5
38A
  8
50MM
 10
46.90204258291542
 20
0.2274063451202595
 30
0.0
  0
VERTEX
  5
38B
  8
50MM
 10
46.90499678984571
 20
0.2253032287972476
 30
0.0
  0
VERTEX
  5
38C
  8
50MM
 10
46.90792382108147
 20
0.2231119802370563
 30
0.0
  0
VERTEX
  5
38D
  8
50MM
 10
46.91082259537192
 20
0.2208337918755728
 30
0.0
  0
VERTEX
  5
38E
  8
50MM
 10
46.9136920314663
 20
0.2184698561486846
 30
0.0
  0
VERTEX
  5
38F
  8
50MM
 10
46.91653104811381
 20
0.2160213654922789
 30
0.0
  0
VERTEX
  5
390
  8
50MM
 10
46.91933856406368
 20
0.213489512342243
 30
0.0
  0
VERTEX
  5
391
  8
50MM
 10
46.92211349806513
 20
0.2108754891344644
 30
0.0
  0
VERTEX
  5
392
  8
50MM
 10
46.92485476886738
 20
0.2081804883048303
 30
0.0
  0
VERTEX
  5
393
  8
50MM
 10
46.92756129521966
 20
0.2054057022892279
 30
0.0
  0
VERTEX
  5
394
  8
50MM
 10
46.93023199587119
 20
0.2025523235235449
 30
0.0
  0
VERTEX
  5
395
  8
50MM
 10
46.93286578957118
 20
0.1996215444436682
 30
0.0
  0
VERTEX
  5
396
  8
50MM
 10
46.93546159506886
 20
0.1966145574854854
 30
0.0
  0
VERTEX
  5
397
  8
50MM
 10
46.93801833111345
 20
0.1935325550848838
 30
0.0
  0
VERTEX
  5
398
  8
50MM
 10
46.94053491645416
 20
0.1903767296777505
 30
0.0
  0
VERTEX
  5
399
  8
50MM
 10
46.94301026984023
 20
0.1871482736999731
 30
0.0
  0
VERTEX
  5
39A
  8
50MM
 10
46.94544331002087
 20
0.1838483795874389
 30
0.0
  0
VERTEX
  5
39B
  8
50MM
 10
46.94783295574531
 20
0.1804782397760351
 30
0.0
  0
VERTEX
  5
39C
  8
50MM
 10
46.95017812576275
 20
0.177039046701649
 30
0.0
  0
VERTEX
  5
39D
  8
50MM
 10
46.95247773882245
 20
0.1735319928001681
 30
0.0
  0
VERTEX
  5
39E
  8
50MM
 10
46.9547307136736
 20
0.1699582705074796
 30
0.0
  0
VERTEX
  5
39F
  8
50MM
 10
46.95693596906543
 20
0.1663190722594709
 30
0.0
  0
VERTEX
  5
3A0
  8
50MM
 10
46.95909242374715
 20
0.1626155904920293
 30
0.0
  0
VERTEX
  5
3A1
  8
50MM
 10
46.9632546059772
 20
0.1550205461423965
 30
0.0
  0
VERTEX
  5
3A2
  8
50MM
 10
46.9672086103575
 20
0.14718267694568
 30
0.0
  0
VERTEX
  5
3A3
  8
50MM
 10
46.9709467270636
 20
0.1391123678938448
 30
0.0
  0
VERTEX
  5
3A4
  8
50MM
 10
46.97446500699802
 20
0.1308233859983214
 30
0.0
  0
VERTEX
  5
3A5
  8
50MM
 10
46.97776044124505
 20
0.1223303437754066
 30
0.0
  0
VERTEX
  5
3A6
  8
50MM
 10
46.98083002088899
 20
0.1136478537413974
 30
0.0
  0
VERTEX
  5
3A7
  8
50MM
 10
46.98367073701412
 20
0.1047905284125907
 30
0.0
  0
VERTEX
  5
3A8
  8
50MM
 10
46.98627958070473
 20
0.0957729803052834
 30
0.0
  0
VERTEX
  5
3A9
  8
50MM
 10
46.98865354304512
 20
0.0866098219357724
 30
0.0
  0
VERTEX
  5
3AA
  8
50MM
 10
46.99078961511957
 20
0.0773156658203547
 30
0.0
  0
VERTEX
  5
3AB
  8
50MM
 10
46.99268478801238
 20
0.067905124475327
 30
0.0
  0
VERTEX
  5
3AC
  8
50MM
 10
46.99433605280784
 20
0.0583928104169863
 30
0.0
  0
VERTEX
  5
3AD
  8
50MM
 10
46.99574040059022
 20
0.0487933361616296
 30
0.0
  0
VERTEX
  5
3AE
  8
50MM
 10
46.99689482244385
 20
0.0391213142255537
 30
0.0
  0
VERTEX
  5
3AF
  8
50MM
 10
46.99779630945298
 20
0.0293913571250555
 30
0.0
  0
VERTEX
  5
3B0
  8
50MM
 10
46.99844185270192
 20
0.019618077376432
 30
0.0
  0
VERTEX
  5
3B1
  8
50MM
 10
46.99882844327496
 20
0.00981608749598
 30
0.0
  0
VERTEX
  5
3B2
  8
50MM
 10
46.99895307225638
 20
-0.0000000000000035
 30
0.0
  0
VERTEX
  5
3B3
  8
50MM
 10
46.99881382380869
 20
-0.0098155370170745
 30
0.0
  0
VERTEX
  5
3B4
  8
50MM
 10
46.99841315440724
 20
-0.0196157331482001
 30
0.0
  0
VERTEX
  5
3B5
  8
50MM
 10
46.99775461360558
 20
-0.0293857624082001
 30
0.0
  0
VERTEX
  5
3B6
  8
50MM
 10
46.99684175095729
 20
-0.0391107988118945
 30
0.0
  0
VERTEX
  5
3B7
  8
50MM
 10
46.9956781160159
 20
-0.0487760163741031
 30
0.0
  0
VERTEX
  5
3B8
  8
50MM
 10
46.99426725833499
 20
-0.058366589109646
 30
0.0
  0
VERTEX
  5
3B9
  8
50MM
 10
46.99261272746811
 20
-0.067867691033343
 30
0.0
  0
VERTEX
  5
3BA
  8
50MM
 10
46.99071807296882
 20
-0.0772644961600141
 30
0.0
  0
VERTEX
  5
3BB
  8
50MM
 10
46.98858684439068
 20
-0.086542178504479
 30
0.0
  0
VERTEX
  5
3BC
  8
50MM
 10
46.98622259128725
 20
-0.0956859120815579
 30
0.0
  0
VERTEX
  5
3BD
  8
50MM
 10
46.98362886321209
 20
-0.1046808709060705
 30
0.0
  0
VERTEX
  5
3BE
  8
50MM
 10
46.98080920971876
 20
-0.1135122289928368
 30
0.0
  0
VERTEX
  5
3BF
  8
50MM
 10
46.97776718036081
 20
-0.1221651603566766
 30
0.0
  0
VERTEX
  5
3C0
  8
50MM
 10
46.97450632469181
 20
-0.13062483901241
 30
0.0
  0
VERTEX
  5
3C1
  8
50MM
 10
46.97103019226532
 20
-0.1388764389748568
 30
0.0
  0
VERTEX
  5
3C2
  8
50MM
 10
46.96734233263489
 20
-0.1469051342588369
 30
0.0
  0
VERTEX
  5
3C3
  8
50MM
 10
46.96344697479346
 20
-0.1546971884252182
 30
0.0
  0
VERTEX
  5
3C4
  8
50MM
 10
46.95935106549145
 20
-0.1622432232190602
 30
0.0
  0
VERTEX
  5
3C5
  8
50MM
 10
46.95506223091866
 20
-0.1695349499314702
 30
0.0
  0
VERTEX
  5
3C6
  8
50MM
 10
46.95284784984003
 20
-0.1730828575356093
 30
0.0
  0
VERTEX
  5
3C7
  8
50MM
 10
46.95058809726488
 20
-0.1765640798535556
 30
0.0
  0
VERTEX
  5
3C8
  8
50MM
 10
46.94828392646694
 20
-0.1799775807966977
 30
0.0
  0
VERTEX
  5
3C9
  8
50MM
 10
46.94593629071992
 20
-0.183322324276424
 30
0.0
  0
VERTEX
  5
3CA
  8
50MM
 10
46.94354614329755
 20
-0.1865972742041228
 30
0.0
  0
VERTEX
  5
3CB
  8
50MM
 10
46.94111443747358
 20
-0.1898013944911827
 30
0.0
  0
VERTEX
  5
3CC
  8
50MM
 10
46.9386421265217
 20
-0.1929336490489919
 30
0.0
  0
VERTEX
  5
3CD
  8
50MM
 10
46.93613016371565
 20
-0.1959930017889391
 30
0.0
  0
VERTEX
  5
3CE
  8
50MM
 10
46.93357950232914
 20
-0.1989784166224125
 30
0.0
  0
VERTEX
  5
3CF
  8
50MM
 10
46.93099109563592
 20
-0.2018888574608006
 30
0.0
  0
VERTEX
  5
3D0
  8
50MM
 10
46.92836589690971
 20
-0.2047232882154918
 30
0.0
  0
VERTEX
  5
3D1
  8
50MM
 10
46.92570485942421
 20
-0.2074806727978747
 30
0.0
  0
VERTEX
  5
3D2
  8
50MM
 10
46.92300893645317
 20
-0.2101599751193375
 30
0.0
  0
VERTEX
  5
3D3
  8
50MM
 10
46.9202790812703
 20
-0.2127601590912687
 30
0.0
  0
VERTEX
  5
3D4
  8
50MM
 10
46.91751624714934
 20
-0.2152801886250568
 30
0.0
  0
VERTEX
  5
3D5
  8
50MM
 10
46.914721387364
 20
-0.2177190276320901
 30
0.0
  0
VERTEX
  5
3D6
  8
50MM
 10
46.911895455188
 20
-0.2200756400237571
 30
0.0
  0
VERTEX
  5
3D7
  8
50MM
 10
46.90903940389509
 20
-0.2223489897114463
 30
0.0
  0
VERTEX
  5
3D8
  8
50MM
 10
46.90615418675898
 20
-0.224538040606546
 30
0.0
  0
VERTEX
  5
3D9
  8
50MM
 10
46.90324075705339
 20
-0.2266417566204446
 30
0.0
  0
VERTEX
  5
3DA
  8
50MM
 10
46.90030006805205
 20
-0.2286591016645307
 30
0.0
  0
VERTEX
  5
3DB
  8
50MM
 10
46.89733307302868
 20
-0.2305890396501926
 30
0.0
  0
VERTEX
  5
3DC
  8
50MM
 10
46.89434072525701
 20
-0.2324305344888188
 30
0.0
  0
VERTEX
  5
3DD
  8
50MM
 10
46.89132397801077
 20
-0.2341825500917976
 30
0.0
  0
VERTEX
  5
3DE
  8
50MM
 10
46.88828378456368
 20
-0.2358440503705176
 30
0.0
  0
VERTEX
  5
3DF
  8
50MM
 10
46.88522109818945
 20
-0.237413999236367
 30
0.0
  0
VERTEX
  5
3E0
  8
50MM
 10
46.88213692758804
 20
-0.2388915130124462
 30
0.0
  0
VERTEX
  5
3E1
  8
50MM
 10
46.87903250316425
 20
-0.2402763176687025
 30
0.0
  0
VERTEX
  5
3E2
  8
50MM
 10
46.87590911074908
 20
-0.241568291586795
 30
0.0
  0
VERTEX
  5
3E3
  8
50MM
 10
46.87276803617355
 20
-0.2427673131483827
 30
0.0
  0
VERTEX
  5
3E4
  8
50MM
 10
46.86961056526869
 20
-0.2438732607351248
 30
0.0
  0
VERTEX
  5
3E5
  8
50MM
 10
46.8664379838655
 20
-0.2448860127286804
 30
0.0
  0
VERTEX
  5
3E6
  8
50MM
 10
46.86325157779498
 20
-0.2458054475107086
 30
0.0
  0
VERTEX
  5
3E7
  8
50MM
 10
46.86005263288818
 20
-0.2466314434628684
 30
0.0
  0
VERTEX
  5
3E8
  8
50MM
 10
46.8568424349761
 20
-0.2473638789668191
 30
0.0
  0
VERTEX
  5
3E9
  8
50MM
 10
46.85362226988974
 20
-0.2480026324042196
 30
0.0
  0
VERTEX
  5
3EA
  8
50MM
 10
46.85039342346013
 20
-0.2485475821567291
 30
0.0
  0
VERTEX
  5
3EB
  8
50MM
 10
46.84715718151829
 20
-0.2489986066060067
 30
0.0
  0
VERTEX
  5
3EC
  8
50MM
 10
46.84391482989523
 20
-0.2493555841337115
 30
0.0
  0
VERTEX
  5
3ED
  8
50MM
 10
46.84066765442195
 20
-0.2496183931215027
 30
0.0
  0
VERTEX
  5
3EE
  8
50MM
 10
46.83741694092949
 20
-0.2497869119510392
 30
0.0
  0
VERTEX
  5
3EF
  8
50MM
 10
46.83416397524883
 20
-0.2498610190039803
 30
0.0
  0
VERTEX
  5
3F0
  8
50MM
 10
46.83091004321102
 20
-0.2498405926619849
 30
0.0
  0
VERTEX
  5
3F1
  8
50MM
 10
46.82765643064707
 20
-0.2497255113067123
 30
0.0
  0
VERTEX
  5
3F2
  8
50MM
 10
46.82440442338797
 20
-0.2495156533198215
 30
0.0
  0
VERTEX
  5
3F3
  8
50MM
 10
46.82115530726477
 20
-0.2492108970829717
 30
0.0
  0
VERTEX
  5
3F4
  8
50MM
 10
46.81791036810845
 20
-0.2488111209778218
 30
0.0
  0
VERTEX
  5
3F5
  8
50MM
 10
46.81467089175005
 20
-0.2483162033860311
 30
0.0
  0
VERTEX
  5
3F6
  8
50MM
 10
46.81143816402057
 20
-0.2477260226892587
 30
0.0
  0
VERTEX
  5
3F7
  8
50MM
 10
46.80821347075104
 20
-0.2470404572691635
 30
0.0
  0
VERTEX
  5
3F8
  8
50MM
 10
46.80499809777247
 20
-0.2462593855074049
 30
0.0
  0
VERTEX
  5
3F9
  8
50MM
 10
46.80179333091586
 20
-0.2453826857856417
 30
0.0
  0
VERTEX
  5
3FA
  8
50MM
 10
46.79860045601224
 20
-0.2444102364855333
 30
0.0
  0
VERTEX
  5
3FB
  8
50MM
 10
46.79542075889262
 20
-0.2433419159887386
 30
0.0
  0
VERTEX
  5
3FC
  8
50MM
 10
46.79225552538801
 20
-0.2421776026769167
 30
0.0
  0
VERTEX
  5
3FD
  8
50MM
 10
46.78910604132945
 20
-0.2409171749317268
 30
0.0
  0
VERTEX
  5
3FE
  8
50MM
 10
46.78597359254793
 20
-0.2395605111348279
 30
0.0
  0
VERTEX
  5
3FF
  8
50MM
 10
46.78285946487446
 20
-0.2381074896678793
 30
0.0
  0
VERTEX
  5
400
  8
50MM
 10
46.77976491004337
 20
-0.2365582079215779
 30
0.0
  0
VERTEX
  5
401
  8
50MM
 10
46.77669104340212
 20
-0.2349136393227731
 30
0.0
  0
VERTEX
  5
402
  8
50MM
 10
46.77363894620152
 20
-0.2331749763073523
 30
0.0
  0
VERTEX
  5
403
  8
50MM
 10
46.77060969969232
 20
-0.2313434113112027
 30
0.0
  0
VERTEX
  5
404
  8
50MM
 10
46.76760438512532
 20
-0.2294201367702117
 30
0.0
  0
VERTEX
  5
405
  8
50MM
 10
46.76462408375128
 20
-0.2274063451202666
 30
0.0
  0
VERTEX
  5
406
  8
50MM
 10
46.76166987682099
 20
-0.2253032287972547
 30
0.0
  0
VERTEX
  5
407
  8
50MM
 10
46.75874284558523
 20
-0.2231119802370634
 30
0.0
  0
VERTEX
  5
408
  8
50MM
 10
46.75584407129477
 20
-0.2208337918755799
 30
0.0
  0
VERTEX
  5
409
  8
50MM
 10
46.7529746352004
 20
-0.2184698561486917
 30
0.0
  0
VERTEX
  5
40A
  8
50MM
 10
46.75013561855289
 20
-0.216021365492286
 30
0.0
  0
VERTEX
  5
40B
  8
50MM
 10
46.74732810260301
 20
-0.2134895123422501
 30
0.0
  0
VERTEX
  5
40C
  8
50MM
 10
46.74455316860156
 20
-0.2108754891344715
 30
0.0
  0
VERTEX
  5
40D
  8
50MM
 10
46.7418118977993
 20
-0.2081804883048373
 30
0.0
  0
VERTEX
  5
40E
  8
50MM
 10
46.73910537144702
 20
-0.205405702289235
 30
0.0
  0
VERTEX
  5
40F
  8
50MM
 10
46.7364346707955
 20
-0.2025523235235519
 30
0.0
  0
VERTEX
  5
410
  8
50MM
 10
46.7338008770955
 20
-0.1996215444436752
 30
0.0
  0
VERTEX
  5
411
  8
50MM
 10
46.73120507159783
 20
-0.1966145574854924
 30
0.0
  0
VERTEX
  5
412
  8
50MM
 10
46.72864833555324
 20
-0.1935325550848908
 30
0.0
  0
VERTEX
  5
413
  8
50MM
 10
46.72613175021252
 20
-0.1903767296777576
 30
0.0
  0
VERTEX
  5
414
  8
50MM
 10
46.72365639682646
 20
-0.1871482736999802
 30
0.0
  0
VERTEX
  5
415
  8
50MM
 10
46.72122335664581
 20
-0.1838483795874459
 30
0.0
  0
VERTEX
  5
416
  8
50MM
 10
46.71883371092137
 20
-0.1804782397760421
 30
0.0
  0
VERTEX
  5
417
  8
50MM
 10
46.71648854090392
 20
-0.1770390467016561
 30
0.0
  0
VERTEX
  5
418
  8
50MM
 10
46.71418892784423
 20
-0.1735319928001752
 30
0.0
  0
VERTEX
  5
419
  8
50MM
 10
46.71193595299309
 20
-0.1699582705074867
 30
0.0
  0
VERTEX
  5
41A
  8
50MM
 10
46.70973069760126
 20
-0.166319072259478
 30
0.0
  0
VERTEX
  5
41B
  8
50MM
 10
46.70757424291953
 20
-0.1626155904920363
 30
0.0
  0
VERTEX
  5
41C
  8
50MM
 10
46.70341206068948
 20
-0.1550205461424035
 30
0.0
  0
VERTEX
  5
41D
  8
50MM
 10
46.69945805630917
 20
-0.1471826769456871
 30
0.0
  0
VERTEX
  5
41E
  8
50MM
 10
46.69571993960307
 20
-0.1391123678938518
 30
0.0
  0
VERTEX
  5
41F
  8
50MM
 10
46.69220165966865
 20
-0.1308233859983284
 30
0.0
  0
VERTEX
  5
420
  8
50MM
 10
46.68890622542163
 20
-0.1223303437754136
 30
0.0
  0
VERTEX
  5
421
  8
50MM
 10
46.68583664577768
 20
-0.1136478537414044
 30
0.0
  0
VERTEX
  5
422
  8
50MM
 10
46.68299592965255
 20
-0.1047905284125978
 30
0.0
  0
VERTEX
  5
423
  8
50MM
 10
46.68038708596194
 20
-0.0957729803052905
 30
0.0
  0
VERTEX
  5
424
  8
50MM
 10
46.67801312362155
 20
-0.0866098219357795
 30
0.0
  0
VERTEX
  5
425
  8
50MM
 10
46.6758770515471
 20
-0.0773156658203617
 30
0.0
  0
VERTEX
  5
426
  8
50MM
 10
46.67398187865429
 20
-0.067905124475334
 30
0.0
  0
VERTEX
  5
427
  8
50MM
 10
46.67233061385883
 20
-0.0583928104169934
 30
0.0
  0
VERTEX
  5
428
  8
50MM
 10
46.67092626607645
 20
-0.0487933361616366
 30
0.0
  0
VERTEX
  5
429
  8
50MM
 10
46.66977184422283
 20
-0.0391213142255607
 30
0.0
  0
VERTEX
  5
42A
  8
50MM
 10
46.66887035721369
 20
-0.0293913571250626
 30
0.0
  0
VERTEX
  5
42B
  8
50MM
 10
46.66822481396476
 20
-0.019618077376439
 30
0.0
  0
VERTEX
  5
42C
  8
50MM
 10
46.66783822339173
 20
-0.0098160874959871
 30
0.0
  0
VERTEX
  5
42D
  8
50MM
 10
46.6677135944103
 20
-0.0000000000000035
 30
0.0
  0
SEQEND
  5
42E
  8
50MM
  0
ENDSEC
  0
EOF
