  0
SECTION
  2
HEADER
  9
$ACADVER
  1
AC1009
  9
$DWGCODEPAGE
  3
ansi_1252
  9
$INSBASE
 10
0.0
 20
0.0
 30
0.0
  9
$EXTMIN
 10
-0.2500000369233089
 20
-0.2501359105991172
 30
0.0
  9
$EXTMAX
 10
60.2500000369233
 20
0.2501359105991283
 30
0.0
  9
$LIMMIN
 10
0.0
 20
0.0
  9
$LIMMAX
 10
12.0
 20
9.0
  9
$ORTHOMODE
 70
     0
  9
$REGENMODE
 70
     1
  9
$FILLMODE
 70
     1
  9
$QTEXTMODE
 70
     0
  9
$MIRRTEXT
 70
     1
  9
$DRAGMODE
 70
     2
  9
$LTSCALE
 40
1.0
  9
$OSMODE
 70
    37
  9
$ATTMODE
 70
     1
  9
$TEXTSIZE
 40
0.2
  9
$TRACEWID
 40
0.05
  9
$TEXTSTYLE
  7
STANDARD
  9
$CLAYER
  8
60MM
  9
$CELTYPE
  6
BYLAYER
  9
$CECOLOR
 62
   256
  9
$DIMSCALE
 40
1.0
  9
$DIMASZ
 40
0.18
  9
$DIMEXO
 40
0.0625
  9
$DIMDLI
 40
0.38
  9
$DIMRND
 40
0.0
  9
$DIMDLE
 40
0.0
  9
$DIMEXE
 40
0.18
  9
$DIMTP
 40
0.0
  9
$DIMTM
 40
0.0
  9
$DIMTXT
 40
0.18
  9
$DIMCEN
 40
0.09
  9
$DIMTSZ
 40
0.0
  9
$DIMTOL
 70
     0
  9
$DIMLIM
 70
     0
  9
$DIMTIH
 70
     1
  9
$DIMTOH
 70
     1
  9
$DIMSE1
 70
     0
  9
$DIMSE2
 70
     0
  9
$DIMTAD
 70
     0
  9
$DIMZIN
 70
     0
  9
$DIMBLK
  1

  9
$DIMASO
 70
     1
  9
$DIMSHO
 70
     1
  9
$DIMPOST
  1

  9
$DIMAPOST
  1

  9
$DIMALT
 70
     0
  9
$DIMALTD
 70
     2
  9
$DIMALTF
 40
25.4
  9
$DIMLFAC
 40
1.0
  9
$DIMTOFL
 70
     0
  9
$DIMTVP
 40
0.0
  9
$DIMTIX
 70
     0
  9
$DIMSOXD
 70
     0
  9
$DIMSAH
 70
     0
  9
$DIMBLK1
  1

  9
$DIMBLK2
  1

  9
$DIMSTYLE
  2
STANDARD
  9
$DIMCLRD
 70
     0
  9
$DIMCLRE
 70
     0
  9
$DIMCLRT
 70
     0
  9
$DIMTFAC
 40
1.0
  9
$DIMGAP
 40
0.09
  9
$LUNITS
 70
     2
  9
$LUPREC
 70
     3
  9
$SKETCHINC
 40
0.1
  9
$FILLETRAD
 40
0.5
  9
$AUNITS
 70
     0
  9
$AUPREC
 70
     0
  9
$MENU
  1
.
  9
$ELEVATION
 40
0.0
  9
$PELEVATION
 40
0.0
  9
$THICKNESS
 40
0.0
  9
$LIMCHECK
 70
     0
  9
$CHAMFERA
 40
0.5
  9
$CHAMFERB
 40
0.5
  9
$SKPOLY
 70
     0
  9
$TDCREATE
 40
2458882.996969606
  9
$TDUPDATE
 40
2458882.996969618
  9
$TDINDWG
 40
0.0000000116
  9
$TDUSRTIMER
 40
0.0000000116
  9
$USRTIMER
 70
     1
  9
$ANGBASE
 50
0.0
  9
$ANGDIR
 70
     0
  9
$PDMODE
 70
     0
  9
$PDSIZE
 40
0.0
  9
$PLINEWID
 40
0.0
  9
$COORDS
 70
     1
  9
$SPLFRAME
 70
     0
  9
$SPLINETYPE
 70
     6
  9
$SPLINESEGS
 70
     8
  9
$ATTDIA
 70
     0
  9
$ATTREQ
 70
     1
  9
$HANDLING
 70
     1
  9
$HANDSEED
  5
42F
  9
$SURFTAB1
 70
     6
  9
$SURFTAB2
 70
     6
  9
$SURFTYPE
 70
     6
  9
$SURFU
 70
     6
  9
$SURFV
 70
     6
  9
$UCSNAME
  2

  9
$UCSORG
 10
0.0
 20
0.0
 30
0.0
  9
$UCSXDIR
 10
1.0
 20
0.0
 30
0.0
  9
$UCSYDIR
 10
0.0
 20
1.0
 30
0.0
  9
$PUCSNAME
  2

  9
$PUCSORG
 10
0.0
 20
0.0
 30
0.0
  9
$PUCSXDIR
 10
1.0
 20
0.0
 30
0.0
  9
$PUCSYDIR
 10
0.0
 20
1.0
 30
0.0
  9
$USERI1
 70
     0
  9
$USERI2
 70
     0
  9
$USERI3
 70
     0
  9
$USERI4
 70
     0
  9
$USERI5
 70
     0
  9
$USERR1
 40
0.0
  9
$USERR2
 40
0.0
  9
$USERR3
 40
0.0
  9
$USERR4
 40
0.0
  9
$USERR5
 40
0.0
  9
$WORLDVIEW
 70
     1
  9
$SHADEDGE
 70
     3
  9
$SHADEDIF
 70
    70
  9
$TILEMODE
 70
     1
  9
$MAXACTVP
 70
    64
  9
$PLIMCHECK
 70
     0
  9
$PEXTMIN
 10
1.000000000000000E+20
 20
1.000000000000000E+20
 30
1.000000000000000E+20
  9
$PEXTMAX
 10
-1.000000000000000E+20
 20
-1.000000000000000E+20
 30
-1.000000000000000E+20
  9
$PLIMMIN
 10
0.0
 20
0.0
  9
$PLIMMAX
 10
12.0
 20
9.0
  9
$UNITMODE
 70
     0
  9
$VISRETAIN
 70
     1
  9
$PLINEGEN
 70
     0
  9
$PSLTSCALE
 70
     1
  0
ENDSEC
  0
SECTION
  2
TABLES
  0
TABLE
  2
VPORT
 70
     1
  0
VPORT
  2
*ACTIVE
 70
     0
 10
0.0
 20
0.0
 11
1.0
 21
1.0
 12
30.0
 22
0.0000000000000056
 13
0.0
 23
0.0
 14
0.5
 24
0.5
 15
0.5
 25
0.5
 16
0.0
 26
0.0
 36
1.0
 17
0.0
 27
0.0
 37
0.0
 40
0.5102772576222103
 41
120.9342551594005
 42
50.0
 43
0.0
 44
0.0
 50
0.0
 51
0.0
 71
     0
 72
   100
 73
     1
 74
     3
 75
     0
 76
     0
 77
     0
 78
     0
  0
ENDTAB
  0
TABLE
  2
LTYPE
 70
     1
  0
LTYPE
  2
CONTINUOUS
 70
     0
  3
Solid line
 72
    65
 73
     0
 40
0.0
  0
ENDTAB
  0
TABLE
  2
LAYER
 70
     2
  0
LAYER
  2
0
 70
     0
 62
     7
  6
CONTINUOUS
  0
LAYER
  2
60MM
 70
     0
 62
     5
  6
CONTINUOUS
  0
ENDTAB
  0
TABLE
  2
STYLE
 70
     1
  0
STYLE
  2
STANDARD
 70
     0
 40
0.0
 41
1.0
 50
0.0
 71
     0
 42
0.2
  3
txt
  4

  0
ENDTAB
  0
TABLE
  2
VIEW
 70
     0
  0
ENDTAB
  0
TABLE
  2
UCS
 70
     0
  0
ENDTAB
  0
TABLE
  2
APPID
 70
     1
  0
APPID
  2
ACAD
 70
     0
  0
ENDTAB
  0
TABLE
  2
DIMSTYLE
 70
     1
  0
DIMSTYLE
  2
STANDARD
 70
     0
  3

  4

  5

  6

  7

 40
1.0
 41
0.18
 42
0.0625
 43
0.38
 44
0.18
 45
0.0
 46
0.0
 47
0.0
 48
0.0
140
0.18
141
0.09
142
0.0
143
25.4
144
1.0
145
0.0
146
1.0
147
0.09
 71
     0
 72
     0
 73
     1
 74
     1
 75
     0
 76
     0
 77
     0
 78
     0
170
     0
171
     2
172
     0
173
     0
174
     0
175
     0
176
     0
177
     0
178
     0
  0
ENDTAB
  0
ENDSEC
  0
SECTION
  2
BLOCKS
  0
BLOCK
  8
0
  2
$MODEL_SPACE
 70
     0
 10
0.0
 20
0.0
 30
0.0
  3
$MODEL_SPACE
  1

  0
ENDBLK
  5
21
  8
0
  0
BLOCK
 67
     1
  8
0
  2
$PAPER_SPACE
 70
     0
 10
0.0
 20
0.0
 30
0.0
  3
$PAPER_SPACE
  1

  0
ENDBLK
  5
1D
 67
     1
  8
0
  0
ENDSEC
  0
SECTION
  2
ENTITIES
  0
POLYLINE
  5
3C
  8
60MM
 66
     1
 10
0.0
 20
0.0
 30
0.0
  0
VERTEX
  5
3D
  8
60MM
 10
0.25
 20
0.0
 30
0.0
  0
VERTEX
  5
3E
  8
60MM
 10
0.249994182545436
 20
0.0
 30
0.0
  0
VERTEX
  5
3F
  8
60MM
 10
0.2499494650086532
 20
0.0
 30
0.0
  0
VERTEX
  5
40
  8
60MM
 10
0.2499501126919849
 20
0.0
 30
0.0
  0
VERTEX
  5
41
  8
60MM
 10
59.75000828036967
 20
-0.0000000000000026
 30
0.0
  0
VERTEX
  5
42
  8
60MM
 10
59.7500043869431
 20
-0.0000000000000026
 30
0.0
  0
VERTEX
  5
43
  8
60MM
 10
59.75000000000001
 20
-0.0000000000000026
 30
0.0
  0
SEQEND
  5
44
  8
60MM
  0
CIRCLE
  5
45
  8
60MM
 10
60.0
 20
-0.0001358736758154
 30
0.0
 40
0.2500000369233017
  0
CIRCLE
  5
46
  8
60MM
 10
0.0
 20
0.0001358736758194
 30
0.0
 40
0.2500000369233089
  0
POLYLINE
  5
47
  8
60MM
 66
     1
 10
0.0
 20
0.0
 30
0.0
  0
VERTEX
  5
48
  8
60MM
 10
0.2022841603497272
 20
0.1469051342588335
 30
0.0
  0
VERTEX
  5
49
  8
60MM
 10
0.2022796200871059
 20
0.1469051342588334
 30
0.0
  0
VERTEX
  5
4A
  8
60MM
 10
0.2022539492302274
 20
0.1469051342588334
 30
0.0
  0
VERTEX
  5
4B
  8
60MM
 10
0.2022590560392799
 20
0.1469051342588334
 30
0.0
  0
VERTEX
  5
4C
  8
60MM
 10
59.79771902051876
 20
0.1469051342588308
 30
0.0
  0
VERTEX
  5
4D
  8
60MM
 10
59.79771894940142
 20
0.1469051342588308
 30
0.0
  0
VERTEX
  5
4E
  8
60MM
 10
59.79771583965027
 20
0.1469051342588308
 30
0.0
  0
SEQEND
  5
4F
  8
60MM
  0
LINE
  5
50
  8
60MM
 10
0.0783236424497483
 20
0.2374139992363635
 30
0.0
 11
59.92167635755027
 21
0.2374139992363608
 31
0.0
  0
LINE
  5
51
  8
60MM
 10
-0.0761893914141756
 20
0.2381074896678756
 30
0.0
 11
60.07618939141418
 21
0.2381074896678731
 31
0.0
  0
LINE
  5
52
  8
60MM
 10
-0.2020823089909222
 20
0.1471826769456836
 30
0.0
 11
60.20208230899093
 21
0.1471826769456808
 31
0.0
  0
LINE
  5
53
  8
60MM
 10
-0.2500000000000001
 20
0.0
 30
0.0
 11
60.25
 21
-0.0000000000000027
 31
0.0
  0
LINE
  5
54
  8
60MM
 10
-0.2022841603497272
 20
-0.1469051342588334
 30
0.0
 11
60.20228416034973
 21
-0.1469051342588362
 31
0.0
  0
LINE
  5
55
  8
60MM
 10
-0.0783236424497483
 20
-0.2374139992363634
 30
0.0
 11
60.07832364244975
 21
-0.2374139992363661
 31
0.0
  0
LINE
  5
56
  8
60MM
 10
0.0761893914141756
 20
-0.2381074896678757
 30
0.0
 11
59.92381060858584
 21
-0.2381074896678784
 31
0.0
  0
POLYLINE
  5
57
  8
60MM
 66
     1
 10
0.0
 20
0.0
 30
0.0
  0
VERTEX
  5
58
  8
60MM
 10
0.2020823089909221
 20
-0.1471826769456836
 30
0.0
  0
VERTEX
  5
59
  8
60MM
 10
0.2020777741311803
 20
-0.1471826769456836
 30
0.0
  0
VERTEX
  5
5A
  8
60MM
 10
0.2020521838470896
 20
-0.1471826769456836
 30
0.0
  0
VERTEX
  5
5B
  8
60MM
 10
0.2020573387724528
 20
-0.1471826769456836
 30
0.0
  0
VERTEX
  5
5C
  8
60MM
 10
59.79792085030525
 20
-0.1471826769456862
 30
0.0
  0
VERTEX
  5
5D
  8
60MM
 10
59.79792079535735
 20
-0.1471826769456862
 30
0.0
  0
VERTEX
  5
5E
  8
60MM
 10
59.79791769100908
 20
-0.1471826769456862
 30
0.0
  0
SEQEND
  5
5F
  8
60MM
  0
POLYLINE
  5
60
  8
60MM
 66
     1
 10
0.0
 20
0.0
 30
0.0
  0
VERTEX
  5
61
  8
60MM
 10
1.998953072256371
 20
-0.0000000000000002
 30
0.0
  0
VERTEX
  5
62
  8
60MM
 10
1.998813823808684
 20
0.0098155370170708
 30
0.0
  0
VERTEX
  5
63
  8
60MM
 10
1.998413154407233
 20
0.0196157331481963
 30
0.0
  0
VERTEX
  5
64
  8
60MM
 10
1.997754613605578
 20
0.0293857624081963
 30
0.0
  0
VERTEX
  5
65
  8
60MM
 10
1.996841750957278
 20
0.0391107988118907
 30
0.0
  0
VERTEX
  5
66
  8
60MM
 10
1.995678116015893
 20
0.0487760163740994
 30
0.0
  0
VERTEX
  5
67
  8
60MM
 10
1.99426725833498
 20
0.0583665891096423
 30
0.0
  0
VERTEX
  5
68
  8
60MM
 10
1.992612727468099
 20
0.0678676910333393
 30
0.0
  0
VERTEX
  5
69
  8
60MM
 10
1.99071807296881
 20
0.0772644961600104
 30
0.0
  0
VERTEX
  5
6A
  8
60MM
 10
1.988586844390672
 20
0.0865421785044753
 30
0.0
  0
VERTEX
  5
6B
  8
60MM
 10
1.986222591287243
 20
0.0956859120815542
 30
0.0
  0
VERTEX
  5
6C
  8
60MM
 10
1.983628863212083
 20
0.1046808709060668
 30
0.0
  0
VERTEX
  5
6D
  8
60MM
 10
1.980809209718751
 20
0.1135122289928331
 30
0.0
  0
VERTEX
  5
6E
  8
60MM
 10
1.977767180360806
 20
0.1221651603566729
 30
0.0
  0
VERTEX
  5
6F
  8
60MM
 10
1.974506324691807
 20
0.1306248390124063
 30
0.0
  0
VERTEX
  5
70
  8
60MM
 10
1.971030192265313
 20
0.1388764389748531
 30
0.0
  0
VERTEX
  5
71
  8
60MM
 10
1.967342332634884
 20
0.1469051342588333
 30
0.0
  0
VERTEX
  5
72
  8
60MM
 10
1.963446974793451
 20
0.1546971884252145
 30
0.0
  0
VERTEX
  5
73
  8
60MM
 10
1.95935106549144
 20
0.1622432232190565
 30
0.0
  0
VERTEX
  5
74
  8
60MM
 10
1.955062230918649
 20
0.1695349499314664
 30
0.0
  0
VERTEX
  5
75
  8
60MM
 10
1.952847849840022
 20
0.1730828575356055
 30
0.0
  0
VERTEX
  5
76
  8
60MM
 10
1.950588097264875
 20
0.1765640798535519
 30
0.0
  0
VERTEX
  5
77
  8
60MM
 10
1.948283926466932
 20
0.1799775807966941
 30
0.0
  0
VERTEX
  5
78
  8
60MM
 10
1.945936290719917
 20
0.1833223242764203
 30
0.0
  0
VERTEX
  5
79
  8
60MM
 10
1.943546143297556
 20
0.1865972742041192
 30
0.0
  0
VERTEX
  5
7A
  8
60MM
 10
1.941114437473573
 20
0.189801394491179
 30
0.0
  0
VERTEX
  5
7B
  8
60MM
 10
1.938642126521692
 20
0.1929336490489883
 30
0.0
  0
VERTEX
  5
7C
  8
60MM
 10
1.93613016371564
 20
0.1959930017889354
 30
0.0
  0
VERTEX
  5
7D
  8
60MM
 10
1.93357950232914
 20
0.1989784166224088
 30
0.0
  0
VERTEX
  5
7E
  8
60MM
 10
1.930991095635917
 20
0.2018888574607969
 30
0.0
  0
VERTEX
  5
7F
  8
60MM
 10
1.928365896909696
 20
0.2047232882154881
 30
0.0
  0
VERTEX
  5
80
  8
60MM
 10
1.925704859424202
 20
0.2074806727978709
 30
0.0
  0
VERTEX
  5
81
  8
60MM
 10
1.923008936453159
 20
0.2101599751193338
 30
0.0
  0
VERTEX
  5
82
  8
60MM
 10
1.920279081270293
 20
0.212760159091265
 30
0.0
  0
VERTEX
  5
83
  8
60MM
 10
1.917516247149327
 20
0.215280188625053
 30
0.0
  0
VERTEX
  5
84
  8
60MM
 10
1.914721387363987
 20
0.2177190276320864
 30
0.0
  0
VERTEX
  5
85
  8
60MM
 10
1.911895455187998
 20
0.2200756400237534
 30
0.0
  0
VERTEX
  5
86
  8
60MM
 10
1.909039403895084
 20
0.2223489897114425
 30
0.0
  0
VERTEX
  5
87
  8
60MM
 10
1.906154186758969
 20
0.2245380406065422
 30
0.0
  0
VERTEX
  5
88
  8
60MM
 10
1.90324075705338
 20
0.2266417566204409
 30
0.0
  0
VERTEX
  5
89
  8
60MM
 10
1.90030006805204
 20
0.228659101664527
 30
0.0
  0
VERTEX
  5
8A
  8
60MM
 10
1.897333073028674
 20
0.2305890396501888
 30
0.0
  0
VERTEX
  5
8B
  8
60MM
 10
1.894340725257007
 20
0.232430534488815
 30
0.0
  0
VERTEX
  5
8C
  8
60MM
 10
1.891323978010764
 20
0.2341825500917938
 30
0.0
  0
VERTEX
  5
8D
  8
60MM
 10
1.888283784563669
 20
0.2358440503705138
 30
0.0
  0
VERTEX
  5
8E
  8
60MM
 10
1.885221098189448
 20
0.2374139992363633
 30
0.0
  0
VERTEX
  5
8F
  8
60MM
 10
1.882136927588039
 20
0.2388915130124425
 30
0.0
  0
VERTEX
  5
90
  8
60MM
 10
1.879032503164244
 20
0.2402763176686988
 30
0.0
  0
VERTEX
  5
91
  8
60MM
 10
1.875909110749076
 20
0.2415682915867912
 30
0.0
  0
VERTEX
  5
92
  8
60MM
 10
1.872768036173552
 20
0.242767313148379
 30
0.0
  0
VERTEX
  5
93
  8
60MM
 10
1.869610565268685
 20
0.2438732607351211
 30
0.0
  0
VERTEX
  5
94
  8
60MM
 10
1.86643798386549
 20
0.2448860127286767
 30
0.0
  0
VERTEX
  5
95
  8
60MM
 10
1.863251577794984
 20
0.2458054475107048
 30
0.0
  0
VERTEX
  5
96
  8
60MM
 10
1.860052632888179
 20
0.2466314434628646
 30
0.0
  0
VERTEX
  5
97
  8
60MM
 10
1.856842434976092
 20
0.2473638789668153
 30
0.0
  0
VERTEX
  5
98
  8
60MM
 10
1.853622269889738
 20
0.2480026324042158
 30
0.0
  0
VERTEX
  5
99
  8
60MM
 10
1.850393423460131
 20
0.2485475821567253
 30
0.0
  0
VERTEX
  5
9A
  8
60MM
 10
1.847157181518286
 20
0.2489986066060029
 30
0.0
  0
VERTEX
  5
9B
  8
60MM
 10
1.843914829895218
 20
0.2493555841337078
 30
0.0
  0
VERTEX
  5
9C
  8
60MM
 10
1.840667654421942
 20
0.2496183931214989
 30
0.0
  0
VERTEX
  5
9D
  8
60MM
 10
1.837416940929474
 20
0.2497869119510355
 30
0.0
  0
VERTEX
  5
9E
  8
60MM
 10
1.834163975248827
 20
0.2498610190039765
 30
0.0
  0
VERTEX
  5
9F
  8
60MM
 10
1.830910043211017
 20
0.2498405926619812
 30
0.0
  0
VERTEX
  5
A0
  8
60MM
 10
1.827656430647059
 20
0.2497255113067086
 30
0.0
  0
VERTEX
  5
A1
  8
60MM
 10
1.824404423387968
 20
0.2495156533198177
 30
0.0
  0
VERTEX
  5
A2
  8
60MM
 10
1.821155307264758
 20
0.2492108970829679
 30
0.0
  0
VERTEX
  5
A3
  8
60MM
 10
1.817910368108445
 20
0.248811120977818
 30
0.0
  0
VERTEX
  5
A4
  8
60MM
 10
1.814670891750044
 20
0.2483162033860274
 30
0.0
  0
VERTEX
  5
A5
  8
60MM
 10
1.811438164020569
 20
0.2477260226892549
 30
0.0
  0
VERTEX
  5
A6
  8
60MM
 10
1.808213470751035
 20
0.2470404572691598
 30
0.0
  0
VERTEX
  5
A7
  8
60MM
 10
1.804998097772458
 20
0.2462593855074011
 30
0.0
  0
VERTEX
  5
A8
  8
60MM
 10
1.801793330915852
 20
0.245382685785638
 30
0.0
  0
VERTEX
  5
A9
  8
60MM
 10
1.798600456012232
 20
0.2444102364855295
 30
0.0
  0
VERTEX
  5
AA
  8
60MM
 10
1.795420758892614
 20
0.2433419159887348
 30
0.0
  0
VERTEX
  5
AB
  8
60MM
 10
1.792255525388011
 20
0.2421776026769129
 30
0.0
  0
VERTEX
  5
AC
  8
60MM
 10
1.78910604132944
 20
0.240917174931723
 30
0.0
  0
VERTEX
  5
AD
  8
60MM
 10
1.785973592547914
 20
0.2395605111348241
 30
0.0
  0
VERTEX
  5
AE
  8
60MM
 10
1.782859464874449
 20
0.2381074896678755
 30
0.0
  0
VERTEX
  5
AF
  8
60MM
 10
1.779764910043354
 20
0.2365582079215741
 30
0.0
  0
VERTEX
  5
B0
  8
60MM
 10
1.776691043402113
 20
0.2349136393227693
 30
0.0
  0
VERTEX
  5
B1
  8
60MM
 10
1.773638946201505
 20
0.2331749763073485
 30
0.0
  0
VERTEX
  5
B2
  8
60MM
 10
1.770609699692309
 20
0.2313434113111989
 30
0.0
  0
VERTEX
  5
B3
  8
60MM
 10
1.767604385125304
 20
0.2294201367702079
 30
0.0
  0
VERTEX
  5
B4
  8
60MM
 10
1.764624083751267
 20
0.2274063451202628
 30
0.0
  0
VERTEX
  5
B5
  8
60MM
 10
1.761669876820978
 20
0.2253032287972508
 30
0.0
  0
VERTEX
  5
B6
  8
60MM
 10
1.758742845585214
 20
0.2231119802370595
 30
0.0
  0
VERTEX
  5
B7
  8
60MM
 10
1.755844071294756
 20
0.2208337918755761
 30
0.0
  0
VERTEX
  5
B8
  8
60MM
 10
1.752974635200381
 20
0.2184698561486879
 30
0.0
  0
VERTEX
  5
B9
  8
60MM
 10
1.750135618552868
 20
0.2160213654922822
 30
0.0
  0
VERTEX
  5
BA
  8
60MM
 10
1.747328102602996
 20
0.2134895123422463
 30
0.0
  0
VERTEX
  5
BB
  8
60MM
 10
1.744553168601543
 20
0.2108754891344677
 30
0.0
  0
VERTEX
  5
BC
  8
60MM
 10
1.741811897799287
 20
0.2081804883048335
 30
0.0
  0
VERTEX
  5
BD
  8
60MM
 10
1.739105371447009
 20
0.2054057022892312
 30
0.0
  0
VERTEX
  5
BE
  8
60MM
 10
1.736434670795485
 20
0.2025523235235481
 30
0.0
  0
VERTEX
  5
BF
  8
60MM
 10
1.733800877095496
 20
0.1996215444436715
 30
0.0
  0
VERTEX
  5
C0
  8
60MM
 10
1.731205071597818
 20
0.1966145574854887
 30
0.0
  0
VERTEX
  5
C1
  8
60MM
 10
1.728648335553232
 20
0.193532555084887
 30
0.0
  0
VERTEX
  5
C2
  8
60MM
 10
1.726131750212516
 20
0.1903767296777538
 30
0.0
  0
VERTEX
  5
C3
  8
60MM
 10
1.723656396826447
 20
0.1871482736999765
 30
0.0
  0
VERTEX
  5
C4
  8
60MM
 10
1.721223356645806
 20
0.1838483795874422
 30
0.0
  0
VERTEX
  5
C5
  8
60MM
 10
1.71883371092137
 20
0.1804782397760384
 30
0.0
  0
VERTEX
  5
C6
  8
60MM
 10
1.716488540903918
 20
0.1770390467016524
 30
0.0
  0
VERTEX
  5
C7
  8
60MM
 10
1.714188927844229
 20
0.1735319928001715
 30
0.0
  0
VERTEX
  5
C8
  8
60MM
 10
1.711935952993081
 20
0.169958270507483
 30
0.0
  0
VERTEX
  5
C9
  8
60MM
 10
1.709730697601254
 20
0.1663190722594742
 30
0.0
  0
VERTEX
  5
CA
  8
60MM
 10
1.707574242919525
 20
0.1626155904920326
 30
0.0
  0
VERTEX
  5
CB
  8
60MM
 10
1.703412060689477
 20
0.1550205461423999
 30
0.0
  0
VERTEX
  5
CC
  8
60MM
 10
1.699458056309168
 20
0.1471826769456834
 30
0.0
  0
VERTEX
  5
CD
  8
60MM
 10
1.695719939603072
 20
0.1391123678938481
 30
0.0
  0
VERTEX
  5
CE
  8
60MM
 10
1.692201659668654
 20
0.1308233859983247
 30
0.0
  0
VERTEX
  5
CF
  8
60MM
 10
1.688906225421621
 20
0.1223303437754099
 30
0.0
  0
VERTEX
  5
D0
  8
60MM
 10
1.685836645777685
 20
0.1136478537414008
 30
0.0
  0
VERTEX
  5
D1
  8
60MM
 10
1.682995929652555
 20
0.1047905284125941
 30
0.0
  0
VERTEX
  5
D2
  8
60MM
 10
1.680387085961941
 20
0.0957729803052868
 30
0.0
  0
VERTEX
  5
D3
  8
60MM
 10
1.678013123621552
 20
0.0866098219357758
 30
0.0
  0
VERTEX
  5
D4
  8
60MM
 10
1.675877051547098
 20
0.077315665820358
 30
0.0
  0
VERTEX
  5
D5
  8
60MM
 10
1.673981878654289
 20
0.0679051244753303
 30
0.0
  0
VERTEX
  5
D6
  8
60MM
 10
1.672330613858834
 20
0.0583928104169896
 30
0.0
  0
VERTEX
  5
D7
  8
60MM
 10
1.670926266076444
 20
0.0487933361616329
 30
0.0
  0
VERTEX
  5
D8
  8
60MM
 10
1.669771844222827
 20
0.039121314225557
 30
0.0
  0
VERTEX
  5
D9
  8
60MM
 10
1.668870357213694
 20
0.0293913571250589
 30
0.0
  0
VERTEX
  5
DA
  8
60MM
 10
1.668224813964755
 20
0.0196180773764353
 30
0.0
  0
VERTEX
  5
DB
  8
60MM
 10
1.667838223391718
 20
0.0098160874959833
 30
0.0
  0
VERTEX
  5
DC
  8
60MM
 10
1.667713594410294
 20
-0.0000000000000002
 30
0.0
  0
VERTEX
  5
DD
  8
60MM
 10
1.667852842857982
 20
-0.0098155370170712
 30
0.0
  0
VERTEX
  5
DE
  8
60MM
 10
1.668253512259432
 20
-0.0196157331481967
 30
0.0
  0
VERTEX
  5
DF
  8
60MM
 10
1.668912053061087
 20
-0.0293857624081967
 30
0.0
  0
VERTEX
  5
E0
  8
60MM
 10
1.669824915709387
 20
-0.0391107988118911
 30
0.0
  0
VERTEX
  5
E1
  8
60MM
 10
1.670988550650772
 20
-0.0487760163740998
 30
0.0
  0
VERTEX
  5
E2
  8
60MM
 10
1.672399408331685
 20
-0.0583665891096427
 30
0.0
  0
VERTEX
  5
E3
  8
60MM
 10
1.674053939198566
 20
-0.0678676910333397
 30
0.0
  0
VERTEX
  5
E4
  8
60MM
 10
1.675948593697855
 20
-0.0772644961600107
 30
0.0
  0
VERTEX
  5
E5
  8
60MM
 10
1.678079822275993
 20
-0.0865421785044757
 30
0.0
  0
VERTEX
  5
E6
  8
60MM
 10
1.680444075379422
 20
-0.0956859120815545
 30
0.0
  0
VERTEX
  5
E7
  8
60MM
 10
1.683037803454583
 20
-0.1046808709060671
 30
0.0
  0
VERTEX
  5
E8
  8
60MM
 10
1.685857456947915
 20
-0.1135122289928334
 30
0.0
  0
VERTEX
  5
E9
  8
60MM
 10
1.68889948630586
 20
-0.1221651603566733
 30
0.0
  0
VERTEX
  5
EA
  8
60MM
 10
1.692160341974859
 20
-0.1306248390124067
 30
0.0
  0
VERTEX
  5
EB
  8
60MM
 10
1.695636474401352
 20
-0.1388764389748535
 30
0.0
  0
VERTEX
  5
EC
  8
60MM
 10
1.699324334031781
 20
-0.1469051342588336
 30
0.0
  0
VERTEX
  5
ED
  8
60MM
 10
1.703219691873214
 20
-0.1546971884252149
 30
0.0
  0
VERTEX
  5
EE
  8
60MM
 10
1.707315601175225
 20
-0.1622432232190568
 30
0.0
  0
VERTEX
  5
EF
  8
60MM
 10
1.711604435748016
 20
-0.1695349499314668
 30
0.0
  0
VERTEX
  5
F0
  8
60MM
 10
1.713818816826643
 20
-0.1730828575356059
 30
0.0
  0
VERTEX
  5
F1
  8
60MM
 10
1.71607856940179
 20
-0.1765640798535523
 30
0.0
  0
VERTEX
  5
F2
  8
60MM
 10
1.718382740199734
 20
-0.1799775807966944
 30
0.0
  0
VERTEX
  5
F3
  8
60MM
 10
1.720730375946748
 20
-0.1833223242764207
 30
0.0
  0
VERTEX
  5
F4
  8
60MM
 10
1.72312052336911
 20
-0.1865972742041195
 30
0.0
  0
VERTEX
  5
F5
  8
60MM
 10
1.725552229193093
 20
-0.1898013944911793
 30
0.0
  0
VERTEX
  5
F6
  8
60MM
 10
1.728024540144973
 20
-0.1929336490489886
 30
0.0
  0
VERTEX
  5
F7
  8
60MM
 10
1.730536502951025
 20
-0.1959930017889357
 30
0.0
  0
VERTEX
  5
F8
  8
60MM
 10
1.733087164337525
 20
-0.1989784166224091
 30
0.0
  0
VERTEX
  5
F9
  8
60MM
 10
1.735675571030748
 20
-0.2018888574607972
 30
0.0
  0
VERTEX
  5
FA
  8
60MM
 10
1.738300769756969
 20
-0.2047232882154885
 30
0.0
  0
VERTEX
  5
FB
  8
60MM
 10
1.740961807242464
 20
-0.2074806727978713
 30
0.0
  0
VERTEX
  5
FC
  8
60MM
 10
1.743657730213506
 20
-0.2101599751193341
 30
0.0
  0
VERTEX
  5
FD
  8
60MM
 10
1.746387585396373
 20
-0.2127601590912653
 30
0.0
  0
VERTEX
  5
FE
  8
60MM
 10
1.749150419517338
 20
-0.2152801886250534
 30
0.0
  0
VERTEX
  5
FF
  8
60MM
 10
1.751945279302678
 20
-0.2177190276320867
 30
0.0
  0
VERTEX
  5
100
  8
60MM
 10
1.754771211478668
 20
-0.2200756400237537
 30
0.0
  0
VERTEX
  5
101
  8
60MM
 10
1.757627262771582
 20
-0.2223489897114429
 30
0.0
  0
VERTEX
  5
102
  8
60MM
 10
1.760512479907696
 20
-0.2245380406065426
 30
0.0
  0
VERTEX
  5
103
  8
60MM
 10
1.763425909613286
 20
-0.2266417566204413
 30
0.0
  0
VERTEX
  5
104
  8
60MM
 10
1.766366598614626
 20
-0.2286591016645274
 30
0.0
  0
VERTEX
  5
105
  8
60MM
 10
1.769333593637992
 20
-0.2305890396501892
 30
0.0
  0
VERTEX
  5
106
  8
60MM
 10
1.772325941409659
 20
-0.2324305344888154
 30
0.0
  0
VERTEX
  5
107
  8
60MM
 10
1.775342688655902
 20
-0.2341825500917942
 30
0.0
  0
VERTEX
  5
108
  8
60MM
 10
1.778382882102997
 20
-0.2358440503705142
 30
0.0
  0
VERTEX
  5
109
  8
60MM
 10
1.781445568477218
 20
-0.2374139992363636
 30
0.0
  0
VERTEX
  5
10A
  8
60MM
 10
1.784529739078626
 20
-0.2388915130124429
 30
0.0
  0
VERTEX
  5
10B
  8
60MM
 10
1.787634163502422
 20
-0.2402763176686991
 30
0.0
  0
VERTEX
  5
10C
  8
60MM
 10
1.790757555917589
 20
-0.2415682915867916
 30
0.0
  0
VERTEX
  5
10D
  8
60MM
 10
1.793898630493114
 20
-0.2427673131483793
 30
0.0
  0
VERTEX
  5
10E
  8
60MM
 10
1.797056101397981
 20
-0.2438732607351214
 30
0.0
  0
VERTEX
  5
10F
  8
60MM
 10
1.800228682801175
 20
-0.244886012728677
 30
0.0
  0
VERTEX
  5
110
  8
60MM
 10
1.803415088871682
 20
-0.2458054475107052
 30
0.0
  0
VERTEX
  5
111
  8
60MM
 10
1.806614033778486
 20
-0.246631443462865
 30
0.0
  0
VERTEX
  5
112
  8
60MM
 10
1.809824231690573
 20
-0.2473638789668157
 30
0.0
  0
VERTEX
  5
113
  8
60MM
 10
1.813044396776928
 20
-0.2480026324042162
 30
0.0
  0
VERTEX
  5
114
  8
60MM
 10
1.816273243206535
 20
-0.2485475821567257
 30
0.0
  0
VERTEX
  5
115
  8
60MM
 10
1.81950948514838
 20
-0.2489986066060033
 30
0.0
  0
VERTEX
  5
116
  8
60MM
 10
1.822751836771448
 20
-0.2493555841337081
 30
0.0
  0
VERTEX
  5
117
  8
60MM
 10
1.825999012244723
 20
-0.2496183931214993
 30
0.0
  0
VERTEX
  5
118
  8
60MM
 10
1.829249725737192
 20
-0.2497869119510359
 30
0.0
  0
VERTEX
  5
119
  8
60MM
 10
1.832502691417839
 20
-0.2498610190039769
 30
0.0
  0
VERTEX
  5
11A
  8
60MM
 10
1.835756623455648
 20
-0.2498405926619816
 30
0.0
  0
VERTEX
  5
11B
  8
60MM
 10
1.839010236019607
 20
-0.2497255113067089
 30
0.0
  0
VERTEX
  5
11C
  8
60MM
 10
1.842262243278698
 20
-0.2495156533198182
 30
0.0
  0
VERTEX
  5
11D
  8
60MM
 10
1.845511359401907
 20
-0.2492108970829683
 30
0.0
  0
VERTEX
  5
11E
  8
60MM
 10
1.84875629855822
 20
-0.2488111209778185
 30
0.0
  0
VERTEX
  5
11F
  8
60MM
 10
1.851995774916622
 20
-0.2483162033860278
 30
0.0
  0
VERTEX
  5
120
  8
60MM
 10
1.855228502646097
 20
-0.2477260226892553
 30
0.0
  0
VERTEX
  5
121
  8
60MM
 10
1.85845319591563
 20
-0.2470404572691602
 30
0.0
  0
VERTEX
  5
122
  8
60MM
 10
1.861668568894208
 20
-0.2462593855074015
 30
0.0
  0
VERTEX
  5
123
  8
60MM
 10
1.864873335750814
 20
-0.2453826857856384
 30
0.0
  0
VERTEX
  5
124
  8
60MM
 10
1.868066210654433
 20
-0.24441023648553
 30
0.0
  0
VERTEX
  5
125
  8
60MM
 10
1.871245907774052
 20
-0.2433419159887352
 30
0.0
  0
VERTEX
  5
126
  8
60MM
 10
1.874411141278655
 20
-0.2421776026769134
 30
0.0
  0
VERTEX
  5
127
  8
60MM
 10
1.877560625337226
 20
-0.2409171749317234
 30
0.0
  0
VERTEX
  5
128
  8
60MM
 10
1.880693074118752
 20
-0.2395605111348246
 30
0.0
  0
VERTEX
  5
129
  8
60MM
 10
1.883807201792217
 20
-0.2381074896678759
 30
0.0
  0
VERTEX
  5
12A
  8
60MM
 10
1.886901756623311
 20
-0.2365582079215746
 30
0.0
  0
VERTEX
  5
12B
  8
60MM
 10
1.889975623264552
 20
-0.2349136393227698
 30
0.0
  0
VERTEX
  5
12C
  8
60MM
 10
1.89302772046516
 20
-0.2331749763073489
 30
0.0
  0
VERTEX
  5
12D
  8
60MM
 10
1.896056966974356
 20
-0.2313434113111993
 30
0.0
  0
VERTEX
  5
12E
  8
60MM
 10
1.899062281541362
 20
-0.2294201367702083
 30
0.0
  0
VERTEX
  5
12F
  8
60MM
 10
1.902042582915399
 20
-0.2274063451202632
 30
0.0
  0
VERTEX
  5
130
  8
60MM
 10
1.904996789845688
 20
-0.2253032287972513
 30
0.0
  0
VERTEX
  5
131
  8
60MM
 10
1.907923821081451
 20
-0.22311198023706
 30
0.0
  0
VERTEX
  5
132
  8
60MM
 10
1.91082259537191
 20
-0.2208337918755766
 30
0.0
  0
VERTEX
  5
133
  8
60MM
 10
1.913692031466284
 20
-0.2184698561486883
 30
0.0
  0
VERTEX
  5
134
  8
60MM
 10
1.916531048113798
 20
-0.2160213654922826
 30
0.0
  0
VERTEX
  5
135
  8
60MM
 10
1.91933856406367
 20
-0.2134895123422468
 30
0.0
  0
VERTEX
  5
136
  8
60MM
 10
1.922113498065123
 20
-0.2108754891344681
 30
0.0
  0
VERTEX
  5
137
  8
60MM
 10
1.924854768867378
 20
-0.208180488304834
 30
0.0
  0
VERTEX
  5
138
  8
60MM
 10
1.927561295219657
 20
-0.2054057022892317
 30
0.0
  0
VERTEX
  5
139
  8
60MM
 10
1.93023199587118
 20
-0.2025523235235486
 30
0.0
  0
VERTEX
  5
13A
  8
60MM
 10
1.93286578957117
 20
-0.1996215444436719
 30
0.0
  0
VERTEX
  5
13B
  8
60MM
 10
1.935461595068847
 20
-0.1966145574854891
 30
0.0
  0
VERTEX
  5
13C
  8
60MM
 10
1.938018331113434
 20
-0.1935325550848875
 30
0.0
  0
VERTEX
  5
13D
  8
60MM
 10
1.94053491645415
 20
-0.1903767296777543
 30
0.0
  0
VERTEX
  5
13E
  8
60MM
 10
1.943010269840219
 20
-0.1871482736999769
 30
0.0
  0
VERTEX
  5
13F
  8
60MM
 10
1.94544331002086
 20
-0.1838483795874426
 30
0.0
  0
VERTEX
  5
140
  8
60MM
 10
1.947832955745296
 20
-0.1804782397760388
 30
0.0
  0
VERTEX
  5
141
  8
60MM
 10
1.950178125762748
 20
-0.1770390467016528
 30
0.0
  0
VERTEX
  5
142
  8
60MM
 10
1.952477738822437
 20
-0.1735319928001718
 30
0.0
  0
VERTEX
  5
143
  8
60MM
 10
1.954730713673585
 20
-0.1699582705074834
 30
0.0
  0
VERTEX
  5
144
  8
60MM
 10
1.956935969065412
 20
-0.1663190722594746
 30
0.0
  0
VERTEX
  5
145
  8
60MM
 10
1.959092423747141
 20
-0.162615590492033
 30
0.0
  0
VERTEX
  5
146
  8
60MM
 10
1.963254605977189
 20
-0.1550205461424002
 30
0.0
  0
VERTEX
  5
147
  8
60MM
 10
1.967208610357498
 20
-0.1471826769456838
 30
0.0
  0
VERTEX
  5
148
  8
60MM
 10
1.970946727063594
 20
-0.1391123678938485
 30
0.0
  0
VERTEX
  5
149
  8
60MM
 10
1.974465006998012
 20
-0.1308233859983251
 30
0.0
  0
VERTEX
  5
14A
  8
60MM
 10
1.977760441245044
 20
-0.1223303437754103
 30
0.0
  0
VERTEX
  5
14B
  8
60MM
 10
1.98083002088898
 20
-0.1136478537414011
 30
0.0
  0
VERTEX
  5
14C
  8
60MM
 10
1.98367073701411
 20
-0.1047905284125945
 30
0.0
  0
VERTEX
  5
14D
  8
60MM
 10
1.986279580704725
 20
-0.0957729803052872
 30
0.0
  0
VERTEX
  5
14E
  8
60MM
 10
1.988653543045114
 20
-0.0866098219357762
 30
0.0
  0
VERTEX
  5
14F
  8
60MM
 10
1.990789615119568
 20
-0.0773156658203584
 30
0.0
  0
VERTEX
  5
150
  8
60MM
 10
1.992684788012377
 20
-0.0679051244753307
 30
0.0
  0
VERTEX
  5
151
  8
60MM
 10
1.994336052807832
 20
-0.0583928104169901
 30
0.0
  0
VERTEX
  5
152
  8
60MM
 10
1.995740400590222
 20
-0.0487933361616333
 30
0.0
  0
VERTEX
  5
153
  8
60MM
 10
1.996894822443839
 20
-0.0391213142255574
 30
0.0
  0
VERTEX
  5
154
  8
60MM
 10
1.997796309452971
 20
-0.0293913571250593
 30
0.0
  0
VERTEX
  5
155
  8
60MM
 10
1.998441852701911
 20
-0.0196180773764357
 30
0.0
  0
VERTEX
  5
156
  8
60MM
 10
1.998828443274947
 20
-0.0098160874959838
 30
0.0
  0
VERTEX
  5
157
  8
60MM
 10
1.998953072256371
 20
-0.0000000000000002
 30
0.0
  0
SEQEND
  5
158
  8
60MM
  0
POLYLINE
  5
159
  8
60MM
 66
     1
 10
0.0
 20
0.0
 30
0.0
  0
VERTEX
  5
15A
  8
60MM
 10
10.52199322460497
 20
-0.0000000000000014
 30
0.0
  0
VERTEX
  5
15B
  8
60MM
 10
10.52161763289874
 20
0.0391107988118894
 30
0.0
  0
VERTEX
  5
15C
  8
60MM
 10
10.5205282664129
 20
0.0772644961600091
 30
0.0
  0
VERTEX
  5
15D
  8
60MM
 10
10.51876553761531
 20
0.1135122289928318
 30
0.0
  0
VERTEX
  5
15E
  8
60MM
 10
10.51636985897385
 20
0.146905134258832
 30
0.0
  0
VERTEX
  5
15F
  8
60MM
 10
10.51338937852691
 20
0.1765640798535507
 30
0.0
  0
VERTEX
  5
160
  8
60MM
 10
10.51170406987835
 20
0.1898013944911778
 30
0.0
  0
VERTEX
  5
161
  8
60MM
 10
10.5099031865949
 20
0.2018888574607957
 30
0.0
  0
VERTEX
  5
162
  8
60MM
 10
10.50799758191291
 20
0.2127601590912638
 30
0.0
  0
VERTEX
  5
163
  8
60MM
 10
10.50700890068384
 20
0.2177190276320851
 30
0.0
  0
VERTEX
  5
164
  8
60MM
 10
10.50599810906876
 20
0.2223489897114413
 30
0.0
  0
VERTEX
  5
165
  8
60MM
 10
10.50496656372224
 20
0.2266417566204397
 30
0.0
  0
VERTEX
  5
166
  8
60MM
 10
10.50391562129882
 20
0.2305890396501876
 30
0.0
  0
VERTEX
  5
167
  8
60MM
 10
10.50284663845304
 20
0.2341825500917926
 30
0.0
  0
VERTEX
  5
168
  8
60MM
 10
10.50230580582631
 20
0.2358440503705126
 30
0.0
  0
VERTEX
  5
169
  8
60MM
 10
10.50176097183944
 20
0.2374139992363621
 30
0.0
  0
VERTEX
  5
16A
  8
60MM
 10
10.50121231593426
 20
0.2388915130124412
 30
0.0
  0
VERTEX
  5
16B
  8
60MM
 10
10.50066005699258
 20
0.2402763176686975
 30
0.0
  0
VERTEX
  5
16C
  8
60MM
 10
10.50010442375621
 20
0.24156829158679
 30
0.0
  0
VERTEX
  5
16D
  8
60MM
 10
10.49954564496696
 20
0.2427673131483777
 30
0.0
  0
VERTEX
  5
16E
  8
60MM
 10
10.49926514747183
 20
0.2433319287897508
 30
0.0
  0
VERTEX
  5
16F
  8
60MM
 10
10.49898394936666
 20
0.2438732607351198
 30
0.0
  0
VERTEX
  5
170
  8
60MM
 10
10.49870207924418
 20
0.2443912937821922
 30
0.0
  0
VERTEX
  5
171
  8
60MM
 10
10.49841956569712
 20
0.2448860127286754
 30
0.0
  0
VERTEX
  5
172
  8
60MM
 10
10.49813643731819
 20
0.2453574023722767
 30
0.0
  0
VERTEX
  5
173
  8
60MM
 10
10.49785272270014
 20
0.2458054475107036
 30
0.0
  0
VERTEX
  5
174
  8
60MM
 10
10.49756845043568
 20
0.2462301329416633
 30
0.0
  0
VERTEX
  5
175
  8
60MM
 10
10.49728364911755
 20
0.2466314434628634
 30
0.0
  0
VERTEX
  5
176
  8
60MM
 10
10.49699834733846
 20
0.2470093638720112
 30
0.0
  0
VERTEX
  5
177
  8
60MM
 10
10.49671257369116
 20
0.2473638789668141
 30
0.0
  0
VERTEX
  5
178
  8
60MM
 10
10.49656951885214
 20
0.2475323547706197
 30
0.0
  0
VERTEX
  5
179
  8
60MM
 10
10.49642635676835
 20
0.2476949735449794
 30
0.0
  0
VERTEX
  5
17A
  8
60MM
 10
10.49628309101386
 20
0.2478517333896065
 30
0.0
  0
VERTEX
  5
17B
  8
60MM
 10
10.49613972516278
 20
0.2480026324042146
 30
0.0
  0
VERTEX
  5
17C
  8
60MM
 10
10.49599626278918
 20
0.248147668688517
 30
0.0
  0
VERTEX
  5
17D
  8
60MM
 10
10.49585270746716
 20
0.248286840342227
 30
0.0
  0
VERTEX
  5
17E
  8
60MM
 10
10.49570906277081
 20
0.2484201454650583
 30
0.0
  0
VERTEX
  5
17F
  8
60MM
 10
10.49556533227423
 20
0.2485475821567241
 30
0.0
  0
VERTEX
  5
180
  8
60MM
 10
10.49542151955149
 20
0.2486691485169379
 30
0.0
  0
VERTEX
  5
181
  8
60MM
 10
10.4952776281767
 20
0.2487848426454132
 30
0.0
  0
VERTEX
  5
182
  8
60MM
 10
10.49513366172395
 20
0.2488946626418633
 30
0.0
  0
VERTEX
  5
183
  8
60MM
 10
10.49498962376732
 20
0.2489986066060017
 30
0.0
  0
VERTEX
  5
184
  8
60MM
 10
10.4948455178809
 20
0.2490966726375418
 30
0.0
  0
VERTEX
  5
185
  8
60MM
 10
10.4947013476388
 20
0.249188858836197
 30
0.0
  0
VERTEX
  5
186
  8
60MM
 10
10.49455711661508
 20
0.2492751633016808
 30
0.0
  0
VERTEX
  5
187
  8
60MM
 10
10.49441282838387
 20
0.2493555841337065
 30
0.0
  0
VERTEX
  5
188
  8
60MM
 10
10.49426848651922
 20
0.2494301194319876
 30
0.0
  0
VERTEX
  5
189
  8
60MM
 10
10.49412409459525
 20
0.2494987672962376
 30
0.0
  0
VERTEX
  5
18A
  8
60MM
 10
10.49397965618604
 20
0.2495615258261698
 30
0.0
  0
VERTEX
  5
18B
  8
60MM
 10
10.49383517486568
 20
0.2496183931214977
 30
0.0
  0
VERTEX
  5
18C
  8
60MM
 10
10.49369065420827
 20
0.2496693672819346
 30
0.0
  0
VERTEX
  5
18D
  8
60MM
 10
10.49354609778789
 20
0.2497144464071941
 30
0.0
  0
VERTEX
  5
18E
  8
60MM
 10
10.49340150917863
 20
0.2497536285969895
 30
0.0
  0
VERTEX
  5
18F
  8
60MM
 10
10.49325689195459
 20
0.2497869119510342
 30
0.0
  0
VERTEX
  5
190
  8
60MM
 10
10.49311224968985
 20
0.2498142945690418
 30
0.0
  0
VERTEX
  5
191
  8
60MM
 10
10.49296758595851
 20
0.2498357745507255
 30
0.0
  0
VERTEX
  5
192
  8
60MM
 10
10.49282290433467
 20
0.2498513499957989
 30
0.0
  0
VERTEX
  5
193
  8
60MM
 10
10.49267820839239
 20
0.2498610190039753
 30
0.0
  0
VERTEX
  5
194
  8
60MM
 10
10.49253350170579
 20
0.2498647796749681
 30
0.0
  0
VERTEX
  5
195
  8
60MM
 10
10.49238878784895
 20
0.249862630108491
 30
0.0
  0
VERTEX
  5
196
  8
60MM
 10
10.49224407039596
 20
0.2498545684042571
 30
0.0
  0
VERTEX
  5
197
  8
60MM
 10
10.49209935292091
 20
0.2498405926619799
 30
0.0
  0
VERTEX
  5
198
  8
60MM
 10
10.4919546389979
 20
0.249820700981373
 30
0.0
  0
VERTEX
  5
199
  8
60MM
 10
10.49180993220101
 20
0.2497948914621496
 30
0.0
  0
VERTEX
  5
19A
  8
60MM
 10
10.49166523610433
 20
0.2497631622040232
 30
0.0
  0
VERTEX
  5
19B
  8
60MM
 10
10.49152055428196
 20
0.2497255113067073
 30
0.0
  0
VERTEX
  5
19C
  8
60MM
 10
10.49137589030799
 20
0.2496819368699153
 30
0.0
  0
VERTEX
  5
19D
  8
60MM
 10
10.4912312477565
 20
0.2496324369933605
 30
0.0
  0
VERTEX
  5
19E
  8
60MM
 10
10.4910866302016
 20
0.2495770097767565
 30
0.0
  0
VERTEX
  5
19F
  8
60MM
 10
10.49094204121736
 20
0.2495156533198165
 30
0.0
  0
VERTEX
  5
1A0
  8
60MM
 10
10.49079748437788
 20
0.2494483657222542
 30
0.0
  0
VERTEX
  5
1A1
  8
60MM
 10
10.49065296325725
 20
0.2493751450837828
 30
0.0
  0
VERTEX
  5
1A2
  8
60MM
 10
10.49050848142956
 20
0.2492959895041158
 30
0.0
  0
VERTEX
  5
1A3
  8
60MM
 10
10.49036404246891
 20
0.2492108970829667
 30
0.0
  0
VERTEX
  5
1A4
  8
60MM
 10
10.49021964994938
 20
0.2491198659200488
 30
0.0
  0
VERTEX
  5
1A5
  8
60MM
 10
10.49007530744506
 20
0.2490228941150756
 30
0.0
  0
VERTEX
  5
1A6
  8
60MM
 10
10.48993101853005
 20
0.2489199797677604
 30
0.0
  0
VERTEX
  5
1A7
  8
60MM
 10
10.48978678677843
 20
0.2488111209778168
 30
0.0
  0
VERTEX
  5
1A8
  8
60MM
 10
10.4896426157643
 20
0.2486963158449582
 30
0.0
  0
VERTEX
  5
1A9
  8
60MM
 10
10.48949850906175
 20
0.2485755624688979
 30
0.0
  0
VERTEX
  5
1AA
  8
60MM
 10
10.48935447024487
 20
0.2484488589493494
 30
0.0
  0
VERTEX
  5
1AB
  8
60MM
 10
10.48921050288774
 20
0.2483162033860261
 30
0.0
  0
VERTEX
  5
1AC
  8
60MM
 10
10.48906661056447
 20
0.2481775938786415
 30
0.0
  0
VERTEX
  5
1AD
  8
60MM
 10
10.48892279684913
 20
0.2480330285269089
 30
0.0
  0
VERTEX
  5
1AE
  8
60MM
 10
10.48877906531583
 20
0.2478825054305419
 30
0.0
  0
VERTEX
  5
1AF
  8
60MM
 10
10.48863541953865
 20
0.2477260226892537
 30
0.0
  0
VERTEX
  5
1B0
  8
60MM
 10
10.48849186309169
 20
0.2475635784027578
 30
0.0
  0
VERTEX
  5
1B1
  8
60MM
 10
10.48834839954903
 20
0.2473951706707677
 30
0.0
  0
VERTEX
  5
1B2
  8
60MM
 10
10.48806176547298
 20
0.2470404572691585
 30
0.0
  0
VERTEX
  5
1B3
  8
60MM
 10
10.48777554590324
 20
0.2466618672821335
 30
0.0
  0
VERTEX
  5
1B4
  8
60MM
 10
10.48748976943254
 20
0.2462593855073999
 30
0.0
  0
VERTEX
  5
1B5
  8
60MM
 10
10.48720446465359
 20
0.2458329967426652
 30
0.0
  0
VERTEX
  5
1B6
  8
60MM
 10
10.48691966015914
 20
0.2453826857856367
 30
0.0
  0
VERTEX
  5
1B7
  8
60MM
 10
10.4866353845419
 20
0.244908437434022
 30
0.0
  0
VERTEX
  5
1B8
  8
60MM
 10
10.4863516663946
 20
0.2444102364855283
 30
0.0
  0
VERTEX
  5
1B9
  8
60MM
 10
10.48606853430997
 20
0.243888067737863
 30
0.0
  0
VERTEX
  5
1BA
  8
60MM
 10
10.48578601688074
 20
0.2433419159887336
 30
0.0
  0
VERTEX
  5
1BB
  8
60MM
 10
10.48522294035936
 20
0.2421776026769117
 30
0.0
  0
VERTEX
  5
1BC
  8
60MM
 10
10.48466266557228
 20
0.2409171749317218
 30
0.0
  0
VERTEX
  5
1BD
  8
60MM
 10
10.48410542126132
 20
0.2395605111348229
 30
0.0
  0
VERTEX
  5
1BE
  8
60MM
 10
10.48355143616829
 20
0.2381074896678743
 30
0.0
  0
VERTEX
  5
1BF
  8
60MM
 10
10.48300093296941
 20
0.2365582079215729
 30
0.0
  0
VERTEX
  5
1C0
  8
60MM
 10
10.48245411007845
 20
0.2349136393227681
 30
0.0
  0
VERTEX
  5
1C1
  8
60MM
 10
10.4813722746131
 20
0.2313434113111977
 30
0.0
  0
VERTEX
  5
1C2
  8
60MM
 10
10.48030746855772
 20
0.2274063451202615
 30
0.0
  0
VERTEX
  5
1C3
  8
60MM
 10
10.47926123069782
 20
0.2231119802370583
 30
0.0
  0
VERTEX
  5
1C4
  8
60MM
 10
10.4782350998189
 20
0.2184698561486866
 30
0.0
  0
VERTEX
  5
1C5
  8
60MM
 10
10.47723061470645
 20
0.2134895123422451
 30
0.0
  0
VERTEX
  5
1C6
  8
60MM
 10
10.47529273692299
 20
0.2025523235235469
 30
0.0
  0
VERTEX
  5
1C7
  8
60MM
 10
10.47345990763142
 20
0.1903767296777526
 30
0.0
  0
VERTEX
  5
1C8
  8
60MM
 10
10.47174443711574
 20
0.1770390467016512
 30
0.0
  0
VERTEX
  5
1C9
  8
60MM
 10
10.46871481354798
 20
0.1471826769456822
 30
0.0
  0
VERTEX
  5
1CA
  8
60MM
 10
10.46629164431033
 20
0.1136478537413995
 30
0.0
  0
VERTEX
  5
1CB
  8
60MM
 10
10.46451989076812
 20
0.0773156658203567
 30
0.0
  0
VERTEX
  5
1CC
  8
60MM
 10
10.46343381010537
 20
0.0391213142255558
 30
0.0
  0
VERTEX
  5
1CD
  8
60MM
 10
10.46306765950609
 20
-0.0000000000000014
 30
0.0
  0
VERTEX
  5
1CE
  8
60MM
 10
10.46344325121232
 20
-0.0391107988118923
 30
0.0
  0
VERTEX
  5
1CF
  8
60MM
 10
10.46453261769816
 20
-0.0772644961600118
 30
0.0
  0
VERTEX
  5
1D0
  8
60MM
 10
10.46629534649575
 20
-0.1135122289928344
 30
0.0
  0
VERTEX
  5
1D1
  8
60MM
 10
10.46869102513721
 20
-0.1469051342588345
 30
0.0
  0
VERTEX
  5
1D2
  8
60MM
 10
10.47167150558416
 20
-0.1765640798535532
 30
0.0
  0
VERTEX
  5
1D3
  8
60MM
 10
10.47335681423272
 20
-0.1898013944911802
 30
0.0
  0
VERTEX
  5
1D4
  8
60MM
 10
10.47515769751617
 20
-0.2018888574607982
 30
0.0
  0
VERTEX
  5
1D5
  8
60MM
 10
10.47706330219816
 20
-0.2127601590912663
 30
0.0
  0
VERTEX
  5
1D6
  8
60MM
 10
10.47805198342723
 20
-0.2177190276320877
 30
0.0
  0
VERTEX
  5
1D7
  8
60MM
 10
10.4790627750423
 20
-0.2223489897114439
 30
0.0
  0
VERTEX
  5
1D8
  8
60MM
 10
10.48009432038883
 20
-0.2266417566204423
 30
0.0
  0
VERTEX
  5
1D9
  8
60MM
 10
10.48114526281225
 20
-0.2305890396501902
 30
0.0
  0
VERTEX
  5
1DA
  8
60MM
 10
10.48221424565803
 20
-0.2341825500917953
 30
0.0
  0
VERTEX
  5
1DB
  8
60MM
 10
10.48275507828476
 20
-0.2358440503705152
 30
0.0
  0
VERTEX
  5
1DC
  8
60MM
 10
10.48329991227163
 20
-0.2374139992363647
 30
0.0
  0
VERTEX
  5
1DD
  8
60MM
 10
10.48384856817681
 20
-0.2388915130124439
 30
0.0
  0
VERTEX
  5
1DE
  8
60MM
 10
10.48440082711849
 20
-0.2402763176687002
 30
0.0
  0
VERTEX
  5
1DF
  8
60MM
 10
10.48495646035486
 20
-0.2415682915867927
 30
0.0
  0
VERTEX
  5
1E0
  8
60MM
 10
10.4855152391441
 20
-0.2427673131483804
 30
0.0
  0
VERTEX
  5
1E1
  8
60MM
 10
10.48579573663924
 20
-0.2433319287897535
 30
0.0
  0
VERTEX
  5
1E2
  8
60MM
 10
10.48607693474441
 20
-0.2438732607351225
 30
0.0
  0
VERTEX
  5
1E3
  8
60MM
 10
10.48635880486689
 20
-0.2443912937821949
 30
0.0
  0
VERTEX
  5
1E4
  8
60MM
 10
10.48664131841395
 20
-0.2448860127286781
 30
0.0
  0
VERTEX
  5
1E5
  8
60MM
 10
10.48692444679287
 20
-0.2453574023722794
 30
0.0
  0
VERTEX
  5
1E6
  8
60MM
 10
10.48720816141093
 20
-0.2458054475107063
 30
0.0
  0
VERTEX
  5
1E7
  8
60MM
 10
10.48749243367539
 20
-0.246230132941666
 30
0.0
  0
VERTEX
  5
1E8
  8
60MM
 10
10.48777723499352
 20
-0.2466314434628661
 30
0.0
  0
VERTEX
  5
1E9
  8
60MM
 10
10.48806253677261
 20
-0.2470093638720138
 30
0.0
  0
VERTEX
  5
1EA
  8
60MM
 10
10.48834831041991
 20
-0.2473638789668167
 30
0.0
  0
VERTEX
  5
1EB
  8
60MM
 10
10.48849136525892
 20
-0.2475323547706224
 30
0.0
  0
VERTEX
  5
1EC
  8
60MM
 10
10.48863452734272
 20
-0.247694973544982
 30
0.0
  0
VERTEX
  5
1ED
  8
60MM
 10
10.4887777930972
 20
-0.2478517333896092
 30
0.0
  0
VERTEX
  5
1EE
  8
60MM
 10
10.48892115894829
 20
-0.2480026324042173
 30
0.0
  0
VERTEX
  5
1EF
  8
60MM
 10
10.48906462132189
 20
-0.2481476686885196
 30
0.0
  0
VERTEX
  5
1F0
  8
60MM
 10
10.48920817664391
 20
-0.2482868403422297
 30
0.0
  0
VERTEX
  5
1F1
  8
60MM
 10
10.48935182134026
 20
-0.248420145465061
 30
0.0
  0
VERTEX
  5
1F2
  8
60MM
 10
10.48949555183684
 20
-0.2485475821567268
 30
0.0
  0
VERTEX
  5
1F3
  8
60MM
 10
10.48963936455958
 20
-0.2486691485169406
 30
0.0
  0
VERTEX
  5
1F4
  8
60MM
 10
10.48978325593437
 20
-0.2487848426454159
 30
0.0
  0
VERTEX
  5
1F5
  8
60MM
 10
10.48992722238712
 20
-0.248894662641866
 30
0.0
  0
VERTEX
  5
1F6
  8
60MM
 10
10.49007126034375
 20
-0.2489986066060044
 30
0.0
  0
VERTEX
  5
1F7
  8
60MM
 10
10.49021536623017
 20
-0.2490966726375445
 30
0.0
  0
VERTEX
  5
1F8
  8
60MM
 10
10.49035953647227
 20
-0.2491888588361997
 30
0.0
  0
VERTEX
  5
1F9
  8
60MM
 10
10.49050376749598
 20
-0.2492751633016835
 30
0.0
  0
VERTEX
  5
1FA
  8
60MM
 10
10.4906480557272
 20
-0.2493555841337093
 30
0.0
  0
VERTEX
  5
1FB
  8
60MM
 10
10.49079239759184
 20
-0.2494301194319904
 30
0.0
  0
VERTEX
  5
1FC
  8
60MM
 10
10.49093678951581
 20
-0.2494987672962403
 30
0.0
  0
VERTEX
  5
1FD
  8
60MM
 10
10.49108122792503
 20
-0.2495615258261726
 30
0.0
  0
VERTEX
  5
1FE
  8
60MM
 10
10.49122570924538
 20
-0.2496183931215004
 30
0.0
  0
VERTEX
  5
1FF
  8
60MM
 10
10.4913702299028
 20
-0.2496693672819373
 30
0.0
  0
VERTEX
  5
200
  8
60MM
 10
10.49151478632318
 20
-0.2497144464071968
 30
0.0
  0
VERTEX
  5
201
  8
60MM
 10
10.49165937493244
 20
-0.2497536285969922
 30
0.0
  0
VERTEX
  5
202
  8
60MM
 10
10.49180399215648
 20
-0.2497869119510369
 30
0.0
  0
VERTEX
  5
203
  8
60MM
 10
10.49194863442122
 20
-0.2498142945690445
 30
0.0
  0
VERTEX
  5
204
  8
60MM
 10
10.49209329815255
 20
-0.2498357745507282
 30
0.0
  0
VERTEX
  5
205
  8
60MM
 10
10.4922379797764
 20
-0.2498513499958016
 30
0.0
  0
VERTEX
  5
206
  8
60MM
 10
10.49238267571867
 20
-0.249861019003978
 30
0.0
  0
VERTEX
  5
207
  8
60MM
 10
10.49252738240527
 20
-0.2498647796749709
 30
0.0
  0
VERTEX
  5
208
  8
60MM
 10
10.49267209626212
 20
-0.2498626301084937
 30
0.0
  0
VERTEX
  5
209
  8
60MM
 10
10.49281681371511
 20
-0.2498545684042598
 30
0.0
  0
VERTEX
  5
20A
  8
60MM
 10
10.49296153119015
 20
-0.2498405926619827
 30
0.0
  0
VERTEX
  5
20B
  8
60MM
 10
10.49310624511317
 20
-0.2498207009813757
 30
0.0
  0
VERTEX
  5
20C
  8
60MM
 10
10.49325095191006
 20
-0.2497948914621523
 30
0.0
  0
VERTEX
  5
20D
  8
60MM
 10
10.49339564800674
 20
-0.2497631622040259
 30
0.0
  0
VERTEX
  5
20E
  8
60MM
 10
10.4935403298291
 20
-0.2497255113067101
 30
0.0
  0
VERTEX
  5
20F
  8
60MM
 10
10.49368499380308
 20
-0.249681936869918
 30
0.0
  0
VERTEX
  5
210
  8
60MM
 10
10.49382963635456
 20
-0.2496324369933632
 30
0.0
  0
VERTEX
  5
211
  8
60MM
 10
10.49397425390947
 20
-0.2495770097767592
 30
0.0
  0
VERTEX
  5
212
  8
60MM
 10
10.49411884289371
 20
-0.2495156533198192
 30
0.0
  0
VERTEX
  5
213
  8
60MM
 10
10.49426339973319
 20
-0.2494483657222569
 30
0.0
  0
VERTEX
  5
214
  8
60MM
 10
10.49440792085382
 20
-0.2493751450837855
 30
0.0
  0
VERTEX
  5
215
  8
60MM
 10
10.4945524026815
 20
-0.2492959895041185
 30
0.0
  0
VERTEX
  5
216
  8
60MM
 10
10.49469684164216
 20
-0.2492108970829694
 30
0.0
  0
VERTEX
  5
217
  8
60MM
 10
10.49484123416169
 20
-0.2491198659200515
 30
0.0
  0
VERTEX
  5
218
  8
60MM
 10
10.49498557666601
 20
-0.2490228941150783
 30
0.0
  0
VERTEX
  5
219
  8
60MM
 10
10.49512986558102
 20
-0.2489199797677631
 30
0.0
  0
VERTEX
  5
21A
  8
60MM
 10
10.49527409733264
 20
-0.2488111209778195
 30
0.0
  0
VERTEX
  5
21B
  8
60MM
 10
10.49541826834677
 20
-0.2486963158449609
 30
0.0
  0
VERTEX
  5
21C
  8
60MM
 10
10.49556237504932
 20
-0.2485755624689006
 30
0.0
  0
VERTEX
  5
21D
  8
60MM
 10
10.4957064138662
 20
-0.2484488589493521
 30
0.0
  0
VERTEX
  5
21E
  8
60MM
 10
10.49585038122333
 20
-0.2483162033860289
 30
0.0
  0
VERTEX
  5
21F
  8
60MM
 10
10.4959942735466
 20
-0.2481775938786442
 30
0.0
  0
VERTEX
  5
220
  8
60MM
 10
10.49613808726193
 20
-0.2480330285269117
 30
0.0
  0
VERTEX
  5
221
  8
60MM
 10
10.49628181879524
 20
-0.2478825054305446
 30
0.0
  0
VERTEX
  5
222
  8
60MM
 10
10.49642546457241
 20
-0.2477260226892564
 30
0.0
  0
VERTEX
  5
223
  8
60MM
 10
10.49656902101938
 20
-0.2475635784027606
 30
0.0
  0
VERTEX
  5
224
  8
60MM
 10
10.49671248456204
 20
-0.2473951706707705
 30
0.0
  0
VERTEX
  5
225
  8
60MM
 10
10.49699911863809
 20
-0.2470404572691613
 30
0.0
  0
VERTEX
  5
226
  8
60MM
 10
10.49728533820783
 20
-0.2466618672821362
 30
0.0
  0
VERTEX
  5
227
  8
60MM
 10
10.49757111467853
 20
-0.2462593855074026
 30
0.0
  0
VERTEX
  5
228
  8
60MM
 10
10.49785641945748
 20
-0.2458329967426679
 30
0.0
  0
VERTEX
  5
229
  8
60MM
 10
10.49814122395193
 20
-0.2453826857856395
 30
0.0
  0
VERTEX
  5
22A
  8
60MM
 10
10.49842549956917
 20
-0.2449084374340247
 30
0.0
  0
VERTEX
  5
22B
  8
60MM
 10
10.49870921771647
 20
-0.244410236485531
 30
0.0
  0
VERTEX
  5
22C
  8
60MM
 10
10.4989923498011
 20
-0.2438880677378657
 30
0.0
  0
VERTEX
  5
22D
  8
60MM
 10
10.49927486723034
 20
-0.2433419159887363
 30
0.0
  0
VERTEX
  5
22E
  8
60MM
 10
10.49983794375171
 20
-0.2421776026769144
 30
0.0
  0
VERTEX
  5
22F
  8
60MM
 10
10.50039821853879
 20
-0.2409171749317245
 30
0.0
  0
VERTEX
  5
230
  8
60MM
 10
10.50095546284975
 20
-0.2395605111348257
 30
0.0
  0
VERTEX
  5
231
  8
60MM
 10
10.50150944794277
 20
-0.238107489667877
 30
0.0
  0
VERTEX
  5
232
  8
60MM
 10
10.50205995114166
 20
-0.2365582079215756
 30
0.0
  0
VERTEX
  5
233
  8
60MM
 10
10.50260677403261
 20
-0.2349136393227708
 30
0.0
  0
VERTEX
  5
234
  8
60MM
 10
10.50368860949797
 20
-0.2313434113112003
 30
0.0
  0
VERTEX
  5
235
  8
60MM
 10
10.50475341555335
 20
-0.2274063451202642
 30
0.0
  0
VERTEX
  5
236
  8
60MM
 10
10.50579965341325
 20
-0.223111980237061
 30
0.0
  0
VERTEX
  5
237
  8
60MM
 10
10.50682578429217
 20
-0.2184698561486893
 30
0.0
  0
VERTEX
  5
238
  8
60MM
 10
10.50783026940462
 20
-0.2134895123422478
 30
0.0
  0
VERTEX
  5
239
  8
60MM
 10
10.50976814718808
 20
-0.2025523235235495
 30
0.0
  0
VERTEX
  5
23A
  8
60MM
 10
10.51160097647965
 20
-0.1903767296777552
 30
0.0
  0
VERTEX
  5
23B
  8
60MM
 10
10.51331644699533
 20
-0.1770390467016537
 30
0.0
  0
VERTEX
  5
23C
  8
60MM
 10
10.51634607056309
 20
-0.1471826769456847
 30
0.0
  0
VERTEX
  5
23D
  8
60MM
 10
10.51876923980074
 20
-0.1136478537414021
 30
0.0
  0
VERTEX
  5
23E
  8
60MM
 10
10.52054099334294
 20
-0.0773156658203595
 30
0.0
  0
VERTEX
  5
23F
  8
60MM
 10
10.5216270740057
 20
-0.0391213142255586
 30
0.0
  0
VERTEX
  5
240
  8
60MM
 10
10.52199322460497
 20
-0.0000000000000014
 30
0.0
  0
SEQEND
  5
241
  8
60MM
  0
POLYLINE
  5
242
  8
60MM
 66
     1
 10
0.0
 20
0.0
 30
0.0
  0
VERTEX
  5
243
  8
60MM
 10
19.6367884348888
 20
-0.0000000000000027
 30
0.0
  0
VERTEX
  5
244
  8
60MM
 10
19.63678843488881
 20
0.2498647796749669
 30
0.0
  0
VERTEX
  5
245
  8
60MM
 10
19.63678843488881
 20
0.2498626301084897
 30
0.0
  0
VERTEX
  5
246
  8
60MM
 10
19.63678843488881
 20
-0.2498647796749721
 30
0.0
  0
VERTEX
  5
247
  8
60MM
 10
19.63678843488881
 20
-0.249862630108495
 30
0.0
  0
VERTEX
  5
248
  8
60MM
 10
19.6367884348888
 20
-0.0000000000000027
 30
0.0
  0
SEQEND
  5
249
  8
60MM
  0
POLYLINE
  5
24A
  8
60MM
 66
     1
 10
0.0
 20
0.0
 30
0.0
  0
VERTEX
  5
24B
  8
60MM
 10
33.79640099283943
 20
-0.0000000000000019
 30
0.0
  0
VERTEX
  5
24C
  8
60MM
 10
33.79677658454566
 20
0.039110798811889
 30
0.0
  0
VERTEX
  5
24D
  8
60MM
 10
33.79786595103151
 20
0.0772644961600087
 30
0.0
  0
VERTEX
  5
24E
  8
60MM
 10
33.7996286798291
 20
0.1135122289928314
 30
0.0
  0
VERTEX
  5
24F
  8
60MM
 10
33.80202435847055
 20
0.1469051342588316
 30
0.0
  0
VERTEX
  5
250
  8
60MM
 10
33.8050048389175
 20
0.1765640798535503
 30
0.0
  0
VERTEX
  5
251
  8
60MM
 10
33.80669014756606
 20
0.1898013944911773
 30
0.0
  0
VERTEX
  5
252
  8
60MM
 10
33.80849103084951
 20
0.2018888574607952
 30
0.0
  0
VERTEX
  5
253
  8
60MM
 10
33.81039663553149
 20
0.2127601590912633
 30
0.0
  0
VERTEX
  5
254
  8
60MM
 10
33.81138531676056
 20
0.2177190276320847
 30
0.0
  0
VERTEX
  5
255
  8
60MM
 10
33.81239610837564
 20
0.2223489897114408
 30
0.0
  0
VERTEX
  5
256
  8
60MM
 10
33.81342765372216
 20
0.2266417566204392
 30
0.0
  0
VERTEX
  5
257
  8
60MM
 10
33.81447859614558
 20
0.2305890396501872
 30
0.0
  0
VERTEX
  5
258
  8
60MM
 10
33.81554757899137
 20
0.2341825500917922
 30
0.0
  0
VERTEX
  5
259
  8
60MM
 10
33.8160884116181
 20
0.2358440503705121
 30
0.0
  0
VERTEX
  5
25A
  8
60MM
 10
33.81663324560496
 20
0.2374139992363616
 30
0.0
  0
VERTEX
  5
25B
  8
60MM
 10
33.81718190151014
 20
0.2388915130124409
 30
0.0
  0
VERTEX
  5
25C
  8
60MM
 10
33.81773416045182
 20
0.2402763176686971
 30
0.0
  0
VERTEX
  5
25D
  8
60MM
 10
33.81828979368819
 20
0.2415682915867896
 30
0.0
  0
VERTEX
  5
25E
  8
60MM
 10
33.81884857247744
 20
0.2427673131483773
 30
0.0
  0
VERTEX
  5
25F
  8
60MM
 10
33.81912906997257
 20
0.2433319287897504
 30
0.0
  0
VERTEX
  5
260
  8
60MM
 10
33.81941026807774
 20
0.2438732607351194
 30
0.0
  0
VERTEX
  5
261
  8
60MM
 10
33.81969213820022
 20
0.2443912937821918
 30
0.0
  0
VERTEX
  5
262
  8
60MM
 10
33.81997465174728
 20
0.244886012728675
 30
0.0
  0
VERTEX
  5
263
  8
60MM
 10
33.82025778012621
 20
0.2453574023722763
 30
0.0
  0
VERTEX
  5
264
  8
60MM
 10
33.82054149474426
 20
0.2458054475107032
 30
0.0
  0
VERTEX
  5
265
  8
60MM
 10
33.82082576700871
 20
0.2462301329416629
 30
0.0
  0
VERTEX
  5
266
  8
60MM
 10
33.82111056832685
 20
0.246631443462863
 30
0.0
  0
VERTEX
  5
267
  8
60MM
 10
33.82139587010595
 20
0.2470093638720107
 30
0.0
  0
VERTEX
  5
268
  8
60MM
 10
33.82168164375325
 20
0.2473638789668136
 30
0.0
  0
VERTEX
  5
269
  8
60MM
 10
33.82182469859227
 20
0.2475323547706192
 30
0.0
  0
VERTEX
  5
26A
  8
60MM
 10
33.82196786067605
 20
0.2476949735449789
 30
0.0
  0
VERTEX
  5
26B
  8
60MM
 10
33.82211112643054
 20
0.2478517333896061
 30
0.0
  0
VERTEX
  5
26C
  8
60MM
 10
33.82225449228163
 20
0.2480026324042141
 30
0.0
  0
VERTEX
  5
26D
  8
60MM
 10
33.82239795465523
 20
0.2481476686885165
 30
0.0
  0
VERTEX
  5
26E
  8
60MM
 10
33.82254150997725
 20
0.2482868403422266
 30
0.0
  0
VERTEX
  5
26F
  8
60MM
 10
33.82268515467359
 20
0.2484201454650579
 30
0.0
  0
VERTEX
  5
270
  8
60MM
 10
33.82282888517018
 20
0.2485475821567237
 30
0.0
  0
VERTEX
  5
271
  8
60MM
 10
33.82297269789292
 20
0.2486691485169375
 30
0.0
  0
VERTEX
  5
272
  8
60MM
 10
33.82311658926771
 20
0.2487848426454127
 30
0.0
  0
VERTEX
  5
273
  8
60MM
 10
33.82326055572045
 20
0.2488946626418629
 30
0.0
  0
VERTEX
  5
274
  8
60MM
 10
33.82340459367708
 20
0.2489986066060013
 30
0.0
  0
VERTEX
  5
275
  8
60MM
 10
33.8235486995635
 20
0.2490966726375413
 30
0.0
  0
VERTEX
  5
276
  8
60MM
 10
33.8236928698056
 20
0.2491888588361966
 30
0.0
  0
VERTEX
  5
277
  8
60MM
 10
33.82383710082931
 20
0.2492751633016803
 30
0.0
  0
VERTEX
  5
278
  8
60MM
 10
33.82398138906053
 20
0.2493555841337061
 30
0.0
  0
VERTEX
  5
279
  8
60MM
 10
33.82412573092518
 20
0.2494301194319872
 30
0.0
  0
VERTEX
  5
27A
  8
60MM
 10
33.82427012284915
 20
0.2494987672962372
 30
0.0
  0
VERTEX
  5
27B
  8
60MM
 10
33.82441456125836
 20
0.2495615258261694
 30
0.0
  0
VERTEX
  5
27C
  8
60MM
 10
33.82455904257872
 20
0.2496183931214973
 30
0.0
  0
VERTEX
  5
27D
  8
60MM
 10
33.82470356323613
 20
0.2496693672819342
 30
0.0
  0
VERTEX
  5
27E
  8
60MM
 10
33.82484811965652
 20
0.2497144464071936
 30
0.0
  0
VERTEX
  5
27F
  8
60MM
 10
33.82499270826577
 20
0.249753628596989
 30
0.0
  0
VERTEX
  5
280
  8
60MM
 10
33.82513732548982
 20
0.2497869119510338
 30
0.0
  0
VERTEX
  5
281
  8
60MM
 10
33.82528196775455
 20
0.2498142945690414
 30
0.0
  0
VERTEX
  5
282
  8
60MM
 10
33.82542663148589
 20
0.2498357745507251
 30
0.0
  0
VERTEX
  5
283
  8
60MM
 10
33.82557131310973
 20
0.2498513499957984
 30
0.0
  0
VERTEX
  5
284
  8
60MM
 10
33.82571600905201
 20
0.2498610190039748
 30
0.0
  0
VERTEX
  5
285
  8
60MM
 10
33.82586071573861
 20
0.2498647796749677
 30
0.0
  0
VERTEX
  5
286
  8
60MM
 10
33.82600542959545
 20
0.2498626301084905
 30
0.0
  0
VERTEX
  5
287
  8
60MM
 10
33.82615014704844
 20
0.2498545684042566
 30
0.0
  0
VERTEX
  5
288
  8
60MM
 10
33.82629486452349
 20
0.2498405926619795
 30
0.0
  0
VERTEX
  5
289
  8
60MM
 10
33.8264395784465
 20
0.2498207009813725
 30
0.0
  0
VERTEX
  5
28A
  8
60MM
 10
33.82658428524339
 20
0.2497948914621492
 30
0.0
  0
VERTEX
  5
28B
  8
60MM
 10
33.82672898134007
 20
0.2497631622040228
 30
0.0
  0
VERTEX
  5
28C
  8
60MM
 10
33.82687366316244
 20
0.2497255113067069
 30
0.0
  0
VERTEX
  5
28D
  8
60MM
 10
33.82701832713641
 20
0.2496819368699148
 30
0.0
  0
VERTEX
  5
28E
  8
60MM
 10
33.82716296968789
 20
0.2496324369933601
 30
0.0
  0
VERTEX
  5
28F
  8
60MM
 10
33.8273075872428
 20
0.249577009776756
 30
0.0
  0
VERTEX
  5
290
  8
60MM
 10
33.82745217622704
 20
0.2495156533198161
 30
0.0
  0
VERTEX
  5
291
  8
60MM
 10
33.82759673306653
 20
0.2494483657222537
 30
0.0
  0
VERTEX
  5
292
  8
60MM
 10
33.82774125418715
 20
0.2493751450837823
 30
0.0
  0
VERTEX
  5
293
  8
60MM
 10
33.82788573601484
 20
0.2492959895041154
 30
0.0
  0
VERTEX
  5
294
  8
60MM
 10
33.8280301749755
 20
0.2492108970829662
 30
0.0
  0
VERTEX
  5
295
  8
60MM
 10
33.82817456749503
 20
0.2491198659200483
 30
0.0
  0
VERTEX
  5
296
  8
60MM
 10
33.82831890999935
 20
0.2490228941150751
 30
0.0
  0
VERTEX
  5
297
  8
60MM
 10
33.82846319891436
 20
0.24891997976776
 30
0.0
  0
VERTEX
  5
298
  8
60MM
 10
33.82860743066598
 20
0.2488111209778164
 30
0.0
  0
VERTEX
  5
299
  8
60MM
 10
33.82875160168011
 20
0.2486963158449577
 30
0.0
  0
VERTEX
  5
29A
  8
60MM
 10
33.82889570838266
 20
0.2485755624688974
 30
0.0
  0
VERTEX
  5
29B
  8
60MM
 10
33.82903974719954
 20
0.248448858949349
 30
0.0
  0
VERTEX
  5
29C
  8
60MM
 10
33.82918371455666
 20
0.2483162033860257
 30
0.0
  0
VERTEX
  5
29D
  8
60MM
 10
33.82932760687994
 20
0.2481775938786411
 30
0.0
  0
VERTEX
  5
29E
  8
60MM
 10
33.82947142059527
 20
0.2480330285269085
 30
0.0
  0
VERTEX
  5
29F
  8
60MM
 10
33.82961515212857
 20
0.2478825054305414
 30
0.0
  0
VERTEX
  5
2A0
  8
60MM
 10
33.82975879790574
 20
0.2477260226892532
 30
0.0
  0
VERTEX
  5
2A1
  8
60MM
 10
33.82990235435271
 20
0.2475635784027574
 30
0.0
  0
VERTEX
  5
2A2
  8
60MM
 10
33.83004581789537
 20
0.2473951706707673
 30
0.0
  0
VERTEX
  5
2A3
  8
60MM
 10
33.83033245197142
 20
0.2470404572691581
 30
0.0
  0
VERTEX
  5
2A4
  8
60MM
 10
33.83061867154115
 20
0.246661867282133
 30
0.0
  0
VERTEX
  5
2A5
  8
60MM
 10
33.83090444801186
 20
0.2462593855073994
 30
0.0
  0
VERTEX
  5
2A6
  8
60MM
 10
33.83118975279081
 20
0.2458329967426647
 30
0.0
  0
VERTEX
  5
2A7
  8
60MM
 10
33.83147455728526
 20
0.2453826857856363
 30
0.0
  0
VERTEX
  5
2A8
  8
60MM
 10
33.83175883290249
 20
0.2449084374340215
 30
0.0
  0
VERTEX
  5
2A9
  8
60MM
 10
33.8320425510498
 20
0.2444102364855278
 30
0.0
  0
VERTEX
  5
2AA
  8
60MM
 10
33.83232568313443
 20
0.2438880677378626
 30
0.0
  0
VERTEX
  5
2AB
  8
60MM
 10
33.83260820056367
 20
0.2433419159887331
 30
0.0
  0
VERTEX
  5
2AC
  8
60MM
 10
33.83317127708504
 20
0.2421776026769112
 30
0.0
  0
VERTEX
  5
2AD
  8
60MM
 10
33.83373155187212
 20
0.2409171749317213
 30
0.0
  0
VERTEX
  5
2AE
  8
60MM
 10
33.83428879618309
 20
0.2395605111348225
 30
0.0
  0
VERTEX
  5
2AF
  8
60MM
 10
33.83484278127611
 20
0.2381074896678738
 30
0.0
  0
VERTEX
  5
2B0
  8
60MM
 10
33.83539328447499
 20
0.2365582079215724
 30
0.0
  0
VERTEX
  5
2B1
  8
60MM
 10
33.83594010736596
 20
0.2349136393227677
 30
0.0
  0
VERTEX
  5
2B2
  8
60MM
 10
33.83702194283131
 20
0.2313434113111972
 30
0.0
  0
VERTEX
  5
2B3
  8
60MM
 10
33.83808674888669
 20
0.2274063451202611
 30
0.0
  0
VERTEX
  5
2B4
  8
60MM
 10
33.83913298674659
 20
0.2231119802370579
 30
0.0
  0
VERTEX
  5
2B5
  8
60MM
 10
33.84015911762551
 20
0.2184698561486862
 30
0.0
  0
VERTEX
  5
2B6
  8
60MM
 10
33.84116360273795
 20
0.2134895123422446
 30
0.0
  0
VERTEX
  5
2B7
  8
60MM
 10
33.84310148052141
 20
0.2025523235235465
 30
0.0
  0
VERTEX
  5
2B8
  8
60MM
 10
33.84493430981298
 20
0.1903767296777522
 30
0.0
  0
VERTEX
  5
2B9
  8
60MM
 10
33.84664978032868
 20
0.1770390467016507
 30
0.0
  0
VERTEX
  5
2BA
  8
60MM
 10
33.84967940389642
 20
0.1471826769456817
 30
0.0
  0
VERTEX
  5
2BB
  8
60MM
 10
33.85210257313407
 20
0.1136478537413991
 30
0.0
  0
VERTEX
  5
2BC
  8
60MM
 10
33.85387432667628
 20
0.0773156658203563
 30
0.0
  0
VERTEX
  5
2BD
  8
60MM
 10
33.85496040733904
 20
0.0391213142255553
 30
0.0
  0
VERTEX
  5
2BE
  8
60MM
 10
33.85532655793831
 20
-0.0000000000000019
 30
0.0
  0
VERTEX
  5
2BF
  8
60MM
 10
33.85495096623208
 20
-0.0391107988118927
 30
0.0
  0
VERTEX
  5
2C0
  8
60MM
 10
33.85386159974624
 20
-0.0772644961600122
 30
0.0
  0
VERTEX
  5
2C1
  8
60MM
 10
33.85209887094865
 20
-0.1135122289928348
 30
0.0
  0
VERTEX
  5
2C2
  8
60MM
 10
33.84970319230719
 20
-0.1469051342588349
 30
0.0
  0
VERTEX
  5
2C3
  8
60MM
 10
33.84672271186025
 20
-0.1765640798535536
 30
0.0
  0
VERTEX
  5
2C4
  8
60MM
 10
33.84503740321169
 20
-0.1898013944911807
 30
0.0
  0
VERTEX
  5
2C5
  8
60MM
 10
33.84323651992823
 20
-0.2018888574607986
 30
0.0
  0
VERTEX
  5
2C6
  8
60MM
 10
33.84133091524625
 20
-0.2127601590912667
 30
0.0
  0
VERTEX
  5
2C7
  8
60MM
 10
33.84034223401717
 20
-0.2177190276320881
 30
0.0
  0
VERTEX
  5
2C8
  8
60MM
 10
33.8393314424021
 20
-0.2223489897114443
 30
0.0
  0
VERTEX
  5
2C9
  8
60MM
 10
33.83829989705558
 20
-0.2266417566204427
 30
0.0
  0
VERTEX
  5
2CA
  8
60MM
 10
33.83724895463215
 20
-0.2305890396501907
 30
0.0
  0
VERTEX
  5
2CB
  8
60MM
 10
33.83617997178637
 20
-0.2341825500917957
 30
0.0
  0
VERTEX
  5
2CC
  8
60MM
 10
33.83563913915965
 20
-0.2358440503705156
 30
0.0
  0
VERTEX
  5
2CD
  8
60MM
 10
33.83509430517278
 20
-0.2374139992363651
 30
0.0
  0
VERTEX
  5
2CE
  8
60MM
 10
33.8345456492676
 20
-0.2388915130124444
 30
0.0
  0
VERTEX
  5
2CF
  8
60MM
 10
33.83399339032592
 20
-0.2402763176687007
 30
0.0
  0
VERTEX
  5
2D0
  8
60MM
 10
33.83343775708954
 20
-0.2415682915867931
 30
0.0
  0
VERTEX
  5
2D1
  8
60MM
 10
33.8328789783003
 20
-0.2427673131483808
 30
0.0
  0
VERTEX
  5
2D2
  8
60MM
 10
33.83259848080517
 20
-0.2433319287897539
 30
0.0
  0
VERTEX
  5
2D3
  8
60MM
 10
33.8323172827
 20
-0.2438732607351229
 30
0.0
  0
VERTEX
  5
2D4
  8
60MM
 10
33.83203541257752
 20
-0.2443912937821954
 30
0.0
  0
VERTEX
  5
2D5
  8
60MM
 10
33.83175289903046
 20
-0.2448860127286785
 30
0.0
  0
VERTEX
  5
2D6
  8
60MM
 10
33.83146977065153
 20
-0.2453574023722799
 30
0.0
  0
VERTEX
  5
2D7
  8
60MM
 10
33.83118605603347
 20
-0.2458054475107067
 30
0.0
  0
VERTEX
  5
2D8
  8
60MM
 10
33.83090178376902
 20
-0.2462301329416665
 30
0.0
  0
VERTEX
  5
2D9
  8
60MM
 10
33.83061698245088
 20
-0.2466314434628665
 30
0.0
  0
VERTEX
  5
2DA
  8
60MM
 10
33.83033168067179
 20
-0.2470093638720143
 30
0.0
  0
VERTEX
  5
2DB
  8
60MM
 10
33.83004590702448
 20
-0.2473638789668172
 30
0.0
  0
VERTEX
  5
2DC
  8
60MM
 10
33.82990285218547
 20
-0.2475323547706228
 30
0.0
  0
VERTEX
  5
2DD
  8
60MM
 10
33.82975969010168
 20
-0.2476949735449825
 30
0.0
  0
VERTEX
  5
2DE
  8
60MM
 10
33.82961642434719
 20
-0.2478517333896097
 30
0.0
  0
VERTEX
  5
2DF
  8
60MM
 10
33.82947305849611
 20
-0.2480026324042177
 30
0.0
  0
VERTEX
  5
2E0
  8
60MM
 10
33.82932959612251
 20
-0.2481476686885201
 30
0.0
  0
VERTEX
  5
2E1
  8
60MM
 10
33.82918604080049
 20
-0.2482868403422301
 30
0.0
  0
VERTEX
  5
2E2
  8
60MM
 10
33.82904239610414
 20
-0.2484201454650614
 30
0.0
  0
VERTEX
  5
2E3
  8
60MM
 10
33.82889866560756
 20
-0.2485475821567272
 30
0.0
  0
VERTEX
  5
2E4
  8
60MM
 10
33.82875485288483
 20
-0.2486691485169411
 30
0.0
  0
VERTEX
  5
2E5
  8
60MM
 10
33.82861096151004
 20
-0.2487848426454163
 30
0.0
  0
VERTEX
  5
2E6
  8
60MM
 10
33.82846699505728
 20
-0.2488946626418665
 30
0.0
  0
VERTEX
  5
2E7
  8
60MM
 10
33.82832295710065
 20
-0.2489986066060049
 30
0.0
  0
VERTEX
  5
2E8
  8
60MM
 10
33.82817885121424
 20
-0.249096672637545
 30
0.0
  0
VERTEX
  5
2E9
  8
60MM
 10
33.82803468097213
 20
-0.2491888588362002
 30
0.0
  0
VERTEX
  5
2EA
  8
60MM
 10
33.82789044994843
 20
-0.2492751633016839
 30
0.0
  0
VERTEX
  5
2EB
  8
60MM
 10
33.8277461617172
 20
-0.2493555841337097
 30
0.0
  0
VERTEX
  5
2EC
  8
60MM
 10
33.82760181985256
 20
-0.2494301194319908
 30
0.0
  0
VERTEX
  5
2ED
  8
60MM
 10
33.82745742792859
 20
-0.2494987672962408
 30
0.0
  0
VERTEX
  5
2EE
  8
60MM
 10
33.82731298951938
 20
-0.249561525826173
 30
0.0
  0
VERTEX
  5
2EF
  8
60MM
 10
33.82716850819902
 20
-0.2496183931215008
 30
0.0
  0
VERTEX
  5
2F0
  8
60MM
 10
33.82702398754161
 20
-0.2496693672819378
 30
0.0
  0
VERTEX
  5
2F1
  8
60MM
 10
33.82687943112123
 20
-0.2497144464071972
 30
0.0
  0
VERTEX
  5
2F2
  8
60MM
 10
33.82673484251197
 20
-0.2497536285969926
 30
0.0
  0
VERTEX
  5
2F3
  8
60MM
 10
33.82659022528793
 20
-0.2497869119510374
 30
0.0
  0
VERTEX
  5
2F4
  8
60MM
 10
33.82644558302319
 20
-0.2498142945690449
 30
0.0
  0
VERTEX
  5
2F5
  8
60MM
 10
33.82630091929185
 20
-0.2498357745507286
 30
0.0
  0
VERTEX
  5
2F6
  8
60MM
 10
33.826156237668
 20
-0.249851349995802
 30
0.0
  0
VERTEX
  5
2F7
  8
60MM
 10
33.82601154172573
 20
-0.2498610190039784
 30
0.0
  0
VERTEX
  5
2F8
  8
60MM
 10
33.82586683503913
 20
-0.2498647796749713
 30
0.0
  0
VERTEX
  5
2F9
  8
60MM
 10
33.82572212118229
 20
-0.2498626301084941
 30
0.0
  0
VERTEX
  5
2FA
  8
60MM
 10
33.8255774037293
 20
-0.2498545684042602
 30
0.0
  0
VERTEX
  5
2FB
  8
60MM
 10
33.82543268625425
 20
-0.2498405926619831
 30
0.0
  0
VERTEX
  5
2FC
  8
60MM
 10
33.82528797233123
 20
-0.2498207009813762
 30
0.0
  0
VERTEX
  5
2FD
  8
60MM
 10
33.82514326553434
 20
-0.2497948914621528
 30
0.0
  0
VERTEX
  5
2FE
  8
60MM
 10
33.82499856943767
 20
-0.2497631622040264
 30
0.0
  0
VERTEX
  5
2FF
  8
60MM
 10
33.8248538876153
 20
-0.2497255113067105
 30
0.0
  0
VERTEX
  5
300
  8
60MM
 10
33.82470922364133
 20
-0.2496819368699184
 30
0.0
  0
VERTEX
  5
301
  8
60MM
 10
33.82456458108985
 20
-0.2496324369933637
 30
0.0
  0
VERTEX
  5
302
  8
60MM
 10
33.82441996353494
 20
-0.2495770097767596
 30
0.0
  0
VERTEX
  5
303
  8
60MM
 10
33.82427537455069
 20
-0.2495156533198197
 30
0.0
  0
VERTEX
  5
304
  8
60MM
 10
33.82413081771121
 20
-0.2494483657222573
 30
0.0
  0
VERTEX
  5
305
  8
60MM
 10
33.82398629659058
 20
-0.2493751450837859
 30
0.0
  0
VERTEX
  5
306
  8
60MM
 10
33.8238418147629
 20
-0.249295989504119
 30
0.0
  0
VERTEX
  5
307
  8
60MM
 10
33.82369737580225
 20
-0.2492108970829698
 30
0.0
  0
VERTEX
  5
308
  8
60MM
 10
33.82355298328272
 20
-0.2491198659200519
 30
0.0
  0
VERTEX
  5
309
  8
60MM
 10
33.8234086407784
 20
-0.2490228941150787
 30
0.0
  0
VERTEX
  5
30A
  8
60MM
 10
33.82326435186339
 20
-0.2489199797677636
 30
0.0
  0
VERTEX
  5
30B
  8
60MM
 10
33.82312012011177
 20
-0.24881112097782
 30
0.0
  0
VERTEX
  5
30C
  8
60MM
 10
33.82297594909764
 20
-0.2486963158449613
 30
0.0
  0
VERTEX
  5
30D
  8
60MM
 10
33.82283184239509
 20
-0.2485755624689011
 30
0.0
  0
VERTEX
  5
30E
  8
60MM
 10
33.82268780357821
 20
-0.2484488589493526
 30
0.0
  0
VERTEX
  5
30F
  8
60MM
 10
33.82254383622108
 20
-0.2483162033860293
 30
0.0
  0
VERTEX
  5
310
  8
60MM
 10
33.82239994389781
 20
-0.2481775938786447
 30
0.0
  0
VERTEX
  5
311
  8
60MM
 10
33.82225613018247
 20
-0.2480330285269121
 30
0.0
  0
VERTEX
  5
312
  8
60MM
 10
33.82211239864917
 20
-0.247882505430545
 30
0.0
  0
VERTEX
  5
313
  8
60MM
 10
33.821968752872
 20
-0.2477260226892569
 30
0.0
  0
VERTEX
  5
314
  8
60MM
 10
33.82182519642502
 20
-0.247563578402761
 30
0.0
  0
VERTEX
  5
315
  8
60MM
 10
33.82168173288237
 20
-0.2473951706707709
 30
0.0
  0
VERTEX
  5
316
  8
60MM
 10
33.82139509880632
 20
-0.2470404572691617
 30
0.0
  0
VERTEX
  5
317
  8
60MM
 10
33.82110887923658
 20
-0.2466618672821367
 30
0.0
  0
VERTEX
  5
318
  8
60MM
 10
33.82082310276587
 20
-0.2462593855074031
 30
0.0
  0
VERTEX
  5
319
  8
60MM
 10
33.82053779798693
 20
-0.2458329967426684
 30
0.0
  0
VERTEX
  5
31A
  8
60MM
 10
33.82025299349247
 20
-0.2453826857856399
 30
0.0
  0
VERTEX
  5
31B
  8
60MM
 10
33.81996871787524
 20
-0.2449084374340252
 30
0.0
  0
VERTEX
  5
31C
  8
60MM
 10
33.81968499972794
 20
-0.2444102364855315
 30
0.0
  0
VERTEX
  5
31D
  8
60MM
 10
33.81940186764331
 20
-0.2438880677378662
 30
0.0
  0
VERTEX
  5
31E
  8
60MM
 10
33.81911935021407
 20
-0.2433419159887367
 30
0.0
  0
VERTEX
  5
31F
  8
60MM
 10
33.81855627369269
 20
-0.2421776026769148
 30
0.0
  0
VERTEX
  5
320
  8
60MM
 10
33.81799599890562
 20
-0.240917174931725
 30
0.0
  0
VERTEX
  5
321
  8
60MM
 10
33.81743875459465
 20
-0.2395605111348261
 30
0.0
  0
VERTEX
  5
322
  8
60MM
 10
33.81688476950163
 20
-0.2381074896678774
 30
0.0
  0
VERTEX
  5
323
  8
60MM
 10
33.81633426630275
 20
-0.236558207921576
 30
0.0
  0
VERTEX
  5
324
  8
60MM
 10
33.81578744341178
 20
-0.2349136393227713
 30
0.0
  0
VERTEX
  5
325
  8
60MM
 10
33.81470560794642
 20
-0.2313434113112008
 30
0.0
  0
VERTEX
  5
326
  8
60MM
 10
33.81364080189105
 20
-0.2274063451202646
 30
0.0
  0
VERTEX
  5
327
  8
60MM
 10
33.81259456403114
 20
-0.2231119802370614
 30
0.0
  0
VERTEX
  5
328
  8
60MM
 10
33.81156843315222
 20
-0.2184698561486897
 30
0.0
  0
VERTEX
  5
329
  8
60MM
 10
33.81056394803979
 20
-0.2134895123422482
 30
0.0
  0
VERTEX
  5
32A
  8
60MM
 10
33.80862607025632
 20
-0.20255232352355
 30
0.0
  0
VERTEX
  5
32B
  8
60MM
 10
33.80679324096475
 20
-0.1903767296777557
 30
0.0
  0
VERTEX
  5
32C
  8
60MM
 10
33.80507777044906
 20
-0.1770390467016541
 30
0.0
  0
VERTEX
  5
32D
  8
60MM
 10
33.80204814688131
 20
-0.1471826769456851
 30
0.0
  0
VERTEX
  5
32E
  8
60MM
 10
33.79962497764367
 20
-0.1136478537414026
 30
0.0
  0
VERTEX
  5
32F
  8
60MM
 10
33.79785322410146
 20
-0.0773156658203599
 30
0.0
  0
VERTEX
  5
330
  8
60MM
 10
33.79676714343871
 20
-0.039121314225559
 30
0.0
  0
VERTEX
  5
331
  8
60MM
 10
33.79640099283943
 20
-0.0000000000000019
 30
0.0
  0
SEQEND
  5
332
  8
60MM
  0
POLYLINE
  5
333
  8
60MM
 66
     1
 10
0.0
 20
0.0
 30
0.0
  0
VERTEX
  5
334
  8
60MM
 10
55.00104692774364
 20
-0.0000000000000024
 30
0.0
  0
VERTEX
  5
335
  8
60MM
 10
55.00118617619133
 20
0.0098155370170686
 30
0.0
  0
VERTEX
  5
336
  8
60MM
 10
55.00158684559278
 20
0.0196157331481941
 30
0.0
  0
VERTEX
  5
337
  8
60MM
 10
55.00224538639443
 20
0.0293857624081941
 30
0.0
  0
VERTEX
  5
338
  8
60MM
 10
55.00315824904273
 20
0.0391107988118885
 30
0.0
  0
VERTEX
  5
339
  8
60MM
 10
55.00432188398412
 20
0.0487760163740972
 30
0.0
  0
VERTEX
  5
33A
  8
60MM
 10
55.00573274166503
 20
0.0583665891096401
 30
0.0
  0
VERTEX
  5
33B
  8
60MM
 10
55.00738727253191
 20
0.0678676910333371
 30
0.0
  0
VERTEX
  5
33C
  8
60MM
 10
55.0092819270312
 20
0.0772644961600081
 30
0.0
  0
VERTEX
  5
33D
  8
60MM
 10
55.01141315560933
 20
0.0865421785044731
 30
0.0
  0
VERTEX
  5
33E
  8
60MM
 10
55.01377740871276
 20
0.095685912081552
 30
0.0
  0
VERTEX
  5
33F
  8
60MM
 10
55.01637113678792
 20
0.1046808709060646
 30
0.0
  0
VERTEX
  5
340
  8
60MM
 10
55.01919079028126
 20
0.1135122289928309
 30
0.0
  0
VERTEX
  5
341
  8
60MM
 10
55.02223281963921
 20
0.1221651603566707
 30
0.0
  0
VERTEX
  5
342
  8
60MM
 10
55.0254936753082
 20
0.1306248390124041
 30
0.0
  0
VERTEX
  5
343
  8
60MM
 10
55.0289698077347
 20
0.1388764389748509
 30
0.0
  0
VERTEX
  5
344
  8
60MM
 10
55.03265766736513
 20
0.146905134258831
 30
0.0
  0
VERTEX
  5
345
  8
60MM
 10
55.03655302520656
 20
0.1546971884252123
 30
0.0
  0
VERTEX
  5
346
  8
60MM
 10
55.04064893450857
 20
0.1622432232190542
 30
0.0
  0
VERTEX
  5
347
  8
60MM
 10
55.04493776908136
 20
0.1695349499314642
 30
0.0
  0
VERTEX
  5
348
  8
60MM
 10
55.04715215016
 20
0.1730828575356033
 30
0.0
  0
VERTEX
  5
349
  8
60MM
 10
55.04941190273514
 20
0.1765640798535497
 30
0.0
  0
VERTEX
  5
34A
  8
60MM
 10
55.05171607353309
 20
0.1799775807966918
 30
0.0
  0
VERTEX
  5
34B
  8
60MM
 10
55.05406370928011
 20
0.1833223242764181
 30
0.0
  0
VERTEX
  5
34C
  8
60MM
 10
55.05645385670248
 20
0.186597274204117
 30
0.0
  0
VERTEX
  5
34D
  8
60MM
 10
55.05888556252645
 20
0.1898013944911768
 30
0.0
  0
VERTEX
  5
34E
  8
60MM
 10
55.06135787347833
 20
0.1929336490489861
 30
0.0
  0
VERTEX
  5
34F
  8
60MM
 10
55.06386983628438
 20
0.1959930017889332
 30
0.0
  0
VERTEX
  5
350
  8
60MM
 10
55.06642049767089
 20
0.1989784166224066
 30
0.0
  0
VERTEX
  5
351
  8
60MM
 10
55.0690089043641
 20
0.2018888574607947
 30
0.0
  0
VERTEX
  5
352
  8
60MM
 10
55.07163410309032
 20
0.2047232882154859
 30
0.0
  0
VERTEX
  5
353
  8
60MM
 10
55.07429514057581
 20
0.2074806727978687
 30
0.0
  0
VERTEX
  5
354
  8
60MM
 10
55.07699106354686
 20
0.2101599751193315
 30
0.0
  0
VERTEX
  5
355
  8
60MM
 10
55.07972091872973
 20
0.2127601590912628
 30
0.0
  0
VERTEX
  5
356
  8
60MM
 10
55.08248375285069
 20
0.2152801886250508
 30
0.0
  0
VERTEX
  5
357
  8
60MM
 10
55.08527861263603
 20
0.2177190276320841
 30
0.0
  0
VERTEX
  5
358
  8
60MM
 10
55.08810454481203
 20
0.2200756400237512
 30
0.0
  0
VERTEX
  5
359
  8
60MM
 10
55.09096059610494
 20
0.2223489897114403
 30
0.0
  0
VERTEX
  5
35A
  8
60MM
 10
55.09384581324105
 20
0.22453804060654
 30
0.0
  0
VERTEX
  5
35B
  8
60MM
 10
55.09675924294664
 20
0.2266417566204387
 30
0.0
  0
VERTEX
  5
35C
  8
60MM
 10
55.09969993194798
 20
0.2286591016645247
 30
0.0
  0
VERTEX
  5
35D
  8
60MM
 10
55.10266692697135
 20
0.2305890396501866
 30
0.0
  0
VERTEX
  5
35E
  8
60MM
 10
55.10565927474302
 20
0.2324305344888128
 30
0.0
  0
VERTEX
  5
35F
  8
60MM
 10
55.10867602198925
 20
0.2341825500917916
 30
0.0
  0
VERTEX
  5
360
  8
60MM
 10
55.11171621543635
 20
0.2358440503705116
 30
0.0
  0
VERTEX
  5
361
  8
60MM
 10
55.11477890181057
 20
0.2374139992363611
 30
0.0
  0
VERTEX
  5
362
  8
60MM
 10
55.11786307241197
 20
0.2388915130124402
 30
0.0
  0
VERTEX
  5
363
  8
60MM
 10
55.12096749683577
 20
0.2402763176686965
 30
0.0
  0
VERTEX
  5
364
  8
60MM
 10
55.12409088925094
 20
0.241568291586789
 30
0.0
  0
VERTEX
  5
365
  8
60MM
 10
55.12723196382646
 20
0.2427673131483767
 30
0.0
  0
VERTEX
  5
366
  8
60MM
 10
55.13038943473133
 20
0.2438732607351188
 30
0.0
  0
VERTEX
  5
367
  8
60MM
 10
55.13356201613452
 20
0.2448860127286744
 30
0.0
  0
VERTEX
  5
368
  8
60MM
 10
55.13674842220503
 20
0.2458054475107026
 30
0.0
  0
VERTEX
  5
369
  8
60MM
 10
55.13994736711183
 20
0.2466314434628624
 30
0.0
  0
VERTEX
  5
36A
  8
60MM
 10
55.14315756502392
 20
0.2473638789668131
 30
0.0
  0
VERTEX
  5
36B
  8
60MM
 10
55.14637773011027
 20
0.2480026324042136
 30
0.0
  0
VERTEX
  5
36C
  8
60MM
 10
55.14960657653988
 20
0.2485475821567231
 30
0.0
  0
VERTEX
  5
36D
  8
60MM
 10
55.15284281848173
 20
0.2489986066060007
 30
0.0
  0
VERTEX
  5
36E
  8
60MM
 10
55.1560851701048
 20
0.2493555841337055
 30
0.0
  0
VERTEX
  5
36F
  8
60MM
 10
55.15933234557808
 20
0.2496183931214967
 30
0.0
  0
VERTEX
  5
370
  8
60MM
 10
55.16258305907054
 20
0.2497869119510332
 30
0.0
  0
VERTEX
  5
371
  8
60MM
 10
55.16583602475119
 20
0.2498610190039743
 30
0.0
  0
VERTEX
  5
372
  8
60MM
 10
55.16908995678899
 20
0.2498405926619789
 30
0.0
  0
VERTEX
  5
373
  8
60MM
 10
55.17234356935296
 20
0.2497255113067063
 30
0.0
  0
VERTEX
  5
374
  8
60MM
 10
55.17559557661205
 20
0.2495156533198155
 30
0.0
  0
VERTEX
  5
375
  8
60MM
 10
55.17884469273526
 20
0.2492108970829657
 30
0.0
  0
VERTEX
  5
376
  8
60MM
 10
55.18208963189158
 20
0.2488111209778158
 30
0.0
  0
VERTEX
  5
377
  8
60MM
 10
55.18532910824998
 20
0.2483162033860251
 30
0.0
  0
VERTEX
  5
378
  8
60MM
 10
55.18856183597946
 20
0.2477260226892527
 30
0.0
  0
VERTEX
  5
379
  8
60MM
 10
55.19178652924899
 20
0.2470404572691575
 30
0.0
  0
VERTEX
  5
37A
  8
60MM
 10
55.19500190222756
 20
0.2462593855073989
 30
0.0
  0
VERTEX
  5
37B
  8
60MM
 10
55.19820666908417
 20
0.2453826857856357
 30
0.0
  0
VERTEX
  5
37C
  8
60MM
 10
55.20139954398779
 20
0.2444102364855273
 30
0.0
  0
VERTEX
  5
37D
  8
60MM
 10
55.20457924110741
 20
0.2433419159887326
 30
0.0
  0
VERTEX
  5
37E
  8
60MM
 10
55.20774447461201
 20
0.2421776026769107
 30
0.0
  0
VERTEX
  5
37F
  8
60MM
 10
55.21089395867058
 20
0.2409171749317208
 30
0.0
  0
VERTEX
  5
380
  8
60MM
 10
55.2140264074521
 20
0.2395605111348219
 30
0.0
  0
VERTEX
  5
381
  8
60MM
 10
55.21714053512557
 20
0.2381074896678733
 30
0.0
  0
VERTEX
  5
382
  8
60MM
 10
55.22023508995666
 20
0.2365582079215719
 30
0.0
  0
VERTEX
  5
383
  8
60MM
 10
55.2233089565979
 20
0.2349136393227672
 30
0.0
  0
VERTEX
  5
384
  8
60MM
 10
55.22636105379851
 20
0.2331749763073463
 30
0.0
  0
VERTEX
  5
385
  8
60MM
 10
55.22939030030771
 20
0.2313434113111967
 30
0.0
  0
VERTEX
  5
386
  8
60MM
 10
55.23239561487471
 20
0.2294201367702057
 30
0.0
  0
VERTEX
  5
387
  8
60MM
 10
55.23537591624875
 20
0.2274063451202606
 30
0.0
  0
VERTEX
  5
388
  8
60MM
 10
55.23833012317904
 20
0.2253032287972487
 30
0.0
  0
VERTEX
  5
389
  8
60MM
 10
55.2412571544148
 20
0.2231119802370574
 30
0.0
  0
VERTEX
  5
38A
  8
60MM
 10
55.24415592870526
 20
0.2208337918755739
 30
0.0
  0
VERTEX
  5
38B
  8
60MM
 10
55.24702536479963
 20
0.2184698561486857
 30
0.0
  0
VERTEX
  5
38C
  8
60MM
 10
55.24986438144714
 20
0.21602136549228
 30
0.0
  0
VERTEX
  5
38D
  8
60MM
 10
55.25267189739702
 20
0.2134895123422441
 30
0.0
  0
VERTEX
  5
38E
  8
60MM
 10
55.25544683139847
 20
0.2108754891344655
 30
0.0
  0
VERTEX
  5
38F
  8
60MM
 10
55.25818810220072
 20
0.2081804883048314
 30
0.0
  0
VERTEX
  5
390
  8
60MM
 10
55.260894628553
 20
0.2054057022892291
 30
0.0
  0
VERTEX
  5
391
  8
60MM
 10
55.26356532920452
 20
0.202552323523546
 30
0.0
  0
VERTEX
  5
392
  8
60MM
 10
55.26619912290451
 20
0.1996215444436693
 30
0.0
  0
VERTEX
  5
393
  8
60MM
 10
55.26879492840219
 20
0.1966145574854865
 30
0.0
  0
VERTEX
  5
394
  8
60MM
 10
55.27135166444678
 20
0.1935325550848849
 30
0.0
  0
VERTEX
  5
395
  8
60MM
 10
55.27386824978749
 20
0.1903767296777517
 30
0.0
  0
VERTEX
  5
396
  8
60MM
 10
55.27634360317356
 20
0.1871482736999742
 30
0.0
  0
VERTEX
  5
397
  8
60MM
 10
55.27877664335421
 20
0.18384837958744
 30
0.0
  0
VERTEX
  5
398
  8
60MM
 10
55.28116628907864
 20
0.1804782397760362
 30
0.0
  0
VERTEX
  5
399
  8
60MM
 10
55.28351145909609
 20
0.1770390467016502
 30
0.0
  0
VERTEX
  5
39A
  8
60MM
 10
55.28581107215578
 20
0.1735319928001692
 30
0.0
  0
VERTEX
  5
39B
  8
60MM
 10
55.28806404700693
 20
0.1699582705074807
 30
0.0
  0
VERTEX
  5
39C
  8
60MM
 10
55.29026930239876
 20
0.166319072259472
 30
0.0
  0
VERTEX
  5
39D
  8
60MM
 10
55.29242575708048
 20
0.1626155904920303
 30
0.0
  0
VERTEX
  5
39E
  8
60MM
 10
55.29658793931053
 20
0.1550205461423976
 30
0.0
  0
VERTEX
  5
39F
  8
60MM
 10
55.30054194369085
 20
0.1471826769456811
 30
0.0
  0
VERTEX
  5
3A0
  8
60MM
 10
55.30428006039694
 20
0.1391123678938458
 30
0.0
  0
VERTEX
  5
3A1
  8
60MM
 10
55.30779834033136
 20
0.1308233859983224
 30
0.0
  0
VERTEX
  5
3A2
  8
60MM
 10
55.31109377457839
 20
0.1223303437754077
 30
0.0
  0
VERTEX
  5
3A3
  8
60MM
 10
55.31416335422233
 20
0.1136478537413985
 30
0.0
  0
VERTEX
  5
3A4
  8
60MM
 10
55.31700407034747
 20
0.1047905284125918
 30
0.0
  0
VERTEX
  5
3A5
  8
60MM
 10
55.31961291403807
 20
0.0957729803052845
 30
0.0
  0
VERTEX
  5
3A6
  8
60MM
 10
55.32198687637846
 20
0.0866098219357735
 30
0.0
  0
VERTEX
  5
3A7
  8
60MM
 10
55.32412294845292
 20
0.0773156658203557
 30
0.0
  0
VERTEX
  5
3A8
  8
60MM
 10
55.32601812134573
 20
0.0679051244753281
 30
0.0
  0
VERTEX
  5
3A9
  8
60MM
 10
55.32766938614118
 20
0.0583928104169874
 30
0.0
  0
VERTEX
  5
3AA
  8
60MM
 10
55.32907373392356
 20
0.0487933361616307
 30
0.0
  0
VERTEX
  5
3AB
  8
60MM
 10
55.33022815577719
 20
0.0391213142255548
 30
0.0
  0
VERTEX
  5
3AC
  8
60MM
 10
55.33112964278632
 20
0.0293913571250566
 30
0.0
  0
VERTEX
  5
3AD
  8
60MM
 10
55.33177518603527
 20
0.0196180773764331
 30
0.0
  0
VERTEX
  5
3AE
  8
60MM
 10
55.3321617766083
 20
0.0098160874959811
 30
0.0
  0
VERTEX
  5
3AF
  8
60MM
 10
55.33228640558972
 20
-0.0000000000000024
 30
0.0
  0
VERTEX
  5
3B0
  8
60MM
 10
55.33214715714204
 20
-0.0098155370170734
 30
0.0
  0
VERTEX
  5
3B1
  8
60MM
 10
55.33174648774059
 20
-0.019615733148199
 30
0.0
  0
VERTEX
  5
3B2
  8
60MM
 10
55.33108794693894
 20
-0.029385762408199
 30
0.0
  0
VERTEX
  5
3B3
  8
60MM
 10
55.33017508429063
 20
-0.0391107988118934
 30
0.0
  0
VERTEX
  5
3B4
  8
60MM
 10
55.32901144934925
 20
-0.048776016374102
 30
0.0
  0
VERTEX
  5
3B5
  8
60MM
 10
55.32760059166833
 20
-0.0583665891096449
 30
0.0
  0
VERTEX
  5
3B6
  8
60MM
 10
55.32594606080145
 20
-0.0678676910333419
 30
0.0
  0
VERTEX
  5
3B7
  8
60MM
 10
55.32405140630216
 20
-0.077264496160013
 30
0.0
  0
VERTEX
  5
3B8
  8
60MM
 10
55.32192017772402
 20
-0.0865421785044779
 30
0.0
  0
VERTEX
  5
3B9
  8
60MM
 10
55.31955592462059
 20
-0.0956859120815568
 30
0.0
  0
VERTEX
  5
3BA
  8
60MM
 10
55.31696219654543
 20
-0.1046808709060694
 30
0.0
  0
VERTEX
  5
3BB
  8
60MM
 10
55.3141425430521
 20
-0.1135122289928357
 30
0.0
  0
VERTEX
  5
3BC
  8
60MM
 10
55.31110051369415
 20
-0.1221651603566755
 30
0.0
  0
VERTEX
  5
3BD
  8
60MM
 10
55.30783965802515
 20
-0.1306248390124089
 30
0.0
  0
VERTEX
  5
3BE
  8
60MM
 10
55.30436352559866
 20
-0.1388764389748557
 30
0.0
  0
VERTEX
  5
3BF
  8
60MM
 10
55.30067566596823
 20
-0.1469051342588358
 30
0.0
  0
VERTEX
  5
3C0
  8
60MM
 10
55.2967803081268
 20
-0.1546971884252171
 30
0.0
  0
VERTEX
  5
3C1
  8
60MM
 10
55.29268439882479
 20
-0.162243223219059
 30
0.0
  0
VERTEX
  5
3C2
  8
60MM
 10
55.288395564252
 20
-0.1695349499314691
 30
0.0
  0
VERTEX
  5
3C3
  8
60MM
 10
55.28618118317338
 20
-0.1730828575356081
 30
0.0
  0
VERTEX
  5
3C4
  8
60MM
 10
55.28392143059823
 20
-0.1765640798535545
 30
0.0
  0
VERTEX
  5
3C5
  8
60MM
 10
55.28161725980028
 20
-0.1799775807966966
 30
0.0
  0
VERTEX
  5
3C6
  8
60MM
 10
55.27926962405326
 20
-0.1833223242764229
 30
0.0
  0
VERTEX
  5
3C7
  8
60MM
 10
55.2768794766309
 20
-0.1865972742041217
 30
0.0
  0
VERTEX
  5
3C8
  8
60MM
 10
55.27444777080692
 20
-0.1898013944911816
 30
0.0
  0
VERTEX
  5
3C9
  8
60MM
 10
55.27197545985504
 20
-0.1929336490489908
 30
0.0
  0
VERTEX
  5
3CA
  8
60MM
 10
55.26946349704899
 20
-0.195993001788938
 30
0.0
  0
VERTEX
  5
3CB
  8
60MM
 10
55.26691283566248
 20
-0.1989784166224114
 30
0.0
  0
VERTEX
  5
3CC
  8
60MM
 10
55.26432442896927
 20
-0.2018888574607995
 30
0.0
  0
VERTEX
  5
3CD
  8
60MM
 10
55.26169923024305
 20
-0.2047232882154907
 30
0.0
  0
VERTEX
  5
3CE
  8
60MM
 10
55.25903819275756
 20
-0.2074806727978735
 30
0.0
  0
VERTEX
  5
3CF
  8
60MM
 10
55.25634226978651
 20
-0.2101599751193364
 30
0.0
  0
VERTEX
  5
3D0
  8
60MM
 10
55.25361241460364
 20
-0.2127601590912676
 30
0.0
  0
VERTEX
  5
3D1
  8
60MM
 10
55.25084958048268
 20
-0.2152801886250557
 30
0.0
  0
VERTEX
  5
3D2
  8
60MM
 10
55.24805472069733
 20
-0.217719027632089
 30
0.0
  0
VERTEX
  5
3D3
  8
60MM
 10
55.24522878852135
 20
-0.220075640023756
 30
0.0
  0
VERTEX
  5
3D4
  8
60MM
 10
55.24237273722843
 20
-0.2223489897114451
 30
0.0
  0
VERTEX
  5
3D5
  8
60MM
 10
55.23948752009231
 20
-0.2245380406065449
 30
0.0
  0
VERTEX
  5
3D6
  8
60MM
 10
55.23657409038672
 20
-0.2266417566204435
 30
0.0
  0
VERTEX
  5
3D7
  8
60MM
 10
55.23363340138539
 20
-0.2286591016645296
 30
0.0
  0
VERTEX
  5
3D8
  8
60MM
 10
55.23066640636202
 20
-0.2305890396501915
 30
0.0
  0
VERTEX
  5
3D9
  8
60MM
 10
55.22767405859035
 20
-0.2324305344888177
 30
0.0
  0
VERTEX
  5
3DA
  8
60MM
 10
55.22465731134411
 20
-0.2341825500917965
 30
0.0
  0
VERTEX
  5
3DB
  8
60MM
 10
55.22161711789701
 20
-0.2358440503705165
 30
0.0
  0
VERTEX
  5
3DC
  8
60MM
 10
55.21855443152279
 20
-0.2374139992363659
 30
0.0
  0
VERTEX
  5
3DD
  8
60MM
 10
55.21547026092139
 20
-0.2388915130124451
 30
0.0
  0
VERTEX
  5
3DE
  8
60MM
 10
55.21236583649759
 20
-0.2402763176687014
 30
0.0
  0
VERTEX
  5
3DF
  8
60MM
 10
55.20924244408242
 20
-0.2415682915867939
 30
0.0
  0
VERTEX
  5
3E0
  8
60MM
 10
55.2061013695069
 20
-0.2427673131483816
 30
0.0
  0
VERTEX
  5
3E1
  8
60MM
 10
55.20294389860203
 20
-0.2438732607351237
 30
0.0
  0
VERTEX
  5
3E2
  8
60MM
 10
55.19977131719884
 20
-0.2448860127286793
 30
0.0
  0
VERTEX
  5
3E3
  8
60MM
 10
55.19658491112833
 20
-0.2458054475107075
 30
0.0
  0
VERTEX
  5
3E4
  8
60MM
 10
55.19338596622153
 20
-0.2466314434628673
 30
0.0
  0
VERTEX
  5
3E5
  8
60MM
 10
55.19017576830944
 20
-0.2473638789668179
 30
0.0
  0
VERTEX
  5
3E6
  8
60MM
 10
55.18695560322308
 20
-0.2480026324042185
 30
0.0
  0
VERTEX
  5
3E7
  8
60MM
 10
55.18372675679348
 20
-0.248547582156728
 30
0.0
  0
VERTEX
  5
3E8
  8
60MM
 10
55.18049051485163
 20
-0.2489986066060056
 30
0.0
  0
VERTEX
  5
3E9
  8
60MM
 10
55.17724816322857
 20
-0.2493555841337104
 30
0.0
  0
VERTEX
  5
3EA
  8
60MM
 10
55.17400098775529
 20
-0.2496183931215016
 30
0.0
  0
VERTEX
  5
3EB
  8
60MM
 10
55.17075027426283
 20
-0.2497869119510381
 30
0.0
  0
VERTEX
  5
3EC
  8
60MM
 10
55.16749730858218
 20
-0.2498610190039791
 30
0.0
  0
VERTEX
  5
3ED
  8
60MM
 10
55.16424337654436
 20
-0.2498405926619838
 30
0.0
  0
VERTEX
  5
3EE
  8
60MM
 10
55.16098976398041
 20
-0.2497255113067112
 30
0.0
  0
VERTEX
  5
3EF
  8
60MM
 10
55.15773775672132
 20
-0.2495156533198204
 30
0.0
  0
VERTEX
  5
3F0
  8
60MM
 10
55.15448864059811
 20
-0.2492108970829706
 30
0.0
  0
VERTEX
  5
3F1
  8
60MM
 10
55.15124370144179
 20
-0.2488111209778207
 30
0.0
  0
VERTEX
  5
3F2
  8
60MM
 10
55.14800422508339
 20
-0.24831620338603
 30
0.0
  0
VERTEX
  5
3F3
  8
60MM
 10
55.14477149735391
 20
-0.2477260226892576
 30
0.0
  0
VERTEX
  5
3F4
  8
60MM
 10
55.14154680408438
 20
-0.2470404572691624
 30
0.0
  0
VERTEX
  5
3F5
  8
60MM
 10
55.13833143110581
 20
-0.2462593855074038
 30
0.0
  0
VERTEX
  5
3F6
  8
60MM
 10
55.1351266642492
 20
-0.2453826857856406
 30
0.0
  0
VERTEX
  5
3F7
  8
60MM
 10
55.13193378934558
 20
-0.2444102364855322
 30
0.0
  0
VERTEX
  5
3F8
  8
60MM
 10
55.12875409222596
 20
-0.2433419159887374
 30
0.0
  0
VERTEX
  5
3F9
  8
60MM
 10
55.12558885872136
 20
-0.2421776026769156
 30
0.0
  0
VERTEX
  5
3FA
  8
60MM
 10
55.12243937466279
 20
-0.2409171749317257
 30
0.0
  0
VERTEX
  5
3FB
  8
60MM
 10
55.11930692588126
 20
-0.2395605111348268
 30
0.0
  0
VERTEX
  5
3FC
  8
60MM
 10
55.1161927982078
 20
-0.2381074896678781
 30
0.0
  0
VERTEX
  5
3FD
  8
60MM
 10
55.1130982433767
 20
-0.2365582079215768
 30
0.0
  0
VERTEX
  5
3FE
  8
60MM
 10
55.11002437673545
 20
-0.234913639322772
 30
0.0
  0
VERTEX
  5
3FF
  8
60MM
 10
55.10697227953484
 20
-0.2331749763073512
 30
0.0
  0
VERTEX
  5
400
  8
60MM
 10
55.10394303302565
 20
-0.2313434113112016
 30
0.0
  0
VERTEX
  5
401
  8
60MM
 10
55.10093771845865
 20
-0.2294201367702105
 30
0.0
  0
VERTEX
  5
402
  8
60MM
 10
55.09795741708461
 20
-0.2274063451202654
 30
0.0
  0
VERTEX
  5
403
  8
60MM
 10
55.09500321015432
 20
-0.2253032287972535
 30
0.0
  0
VERTEX
  5
404
  8
60MM
 10
55.09207617891856
 20
-0.2231119802370622
 30
0.0
  0
VERTEX
  5
405
  8
60MM
 10
55.0891774046281
 20
-0.2208337918755787
 30
0.0
  0
VERTEX
  5
406
  8
60MM
 10
55.08630796853373
 20
-0.2184698561486905
 30
0.0
  0
VERTEX
  5
407
  8
60MM
 10
55.08346895188622
 20
-0.2160213654922848
 30
0.0
  0
VERTEX
  5
408
  8
60MM
 10
55.08066143593634
 20
-0.213489512342249
 30
0.0
  0
VERTEX
  5
409
  8
60MM
 10
55.07788650193488
 20
-0.2108754891344703
 30
0.0
  0
VERTEX
  5
40A
  8
60MM
 10
55.07514523113264
 20
-0.2081804883048362
 30
0.0
  0
VERTEX
  5
40B
  8
60MM
 10
55.07243870478035
 20
-0.2054057022892339
 30
0.0
  0
VERTEX
  5
40C
  8
60MM
 10
55.06976800412883
 20
-0.2025523235235507
 30
0.0
  0
VERTEX
  5
40D
  8
60MM
 10
55.06713421042883
 20
-0.1996215444436741
 30
0.0
  0
VERTEX
  5
40E
  8
60MM
 10
55.06453840493116
 20
-0.1966145574854913
 30
0.0
  0
VERTEX
  5
40F
  8
60MM
 10
55.06198166888657
 20
-0.1935325550848896
 30
0.0
  0
VERTEX
  5
410
  8
60MM
 10
55.05946508354585
 20
-0.1903767296777564
 30
0.0
  0
VERTEX
  5
411
  8
60MM
 10
55.05698973015978
 20
-0.187148273699979
 30
0.0
  0
VERTEX
  5
412
  8
60MM
 10
55.05455668997914
 20
-0.1838483795874448
 30
0.0
  0
VERTEX
  5
413
  8
60MM
 10
55.05216704425471
 20
-0.180478239776041
 30
0.0
  0
VERTEX
  5
414
  8
60MM
 10
55.04982187423726
 20
-0.1770390467016549
 30
0.0
  0
VERTEX
  5
415
  8
60MM
 10
55.04752226117757
 20
-0.173531992800174
 30
0.0
  0
VERTEX
  5
416
  8
60MM
 10
55.04526928632642
 20
-0.1699582705074855
 30
0.0
  0
VERTEX
  5
417
  8
60MM
 10
55.04306403093459
 20
-0.1663190722594768
 30
0.0
  0
VERTEX
  5
418
  8
60MM
 10
55.04090757625286
 20
-0.1626155904920351
 30
0.0
  0
VERTEX
  5
419
  8
60MM
 10
55.03674539402282
 20
-0.1550205461424024
 30
0.0
  0
VERTEX
  5
41A
  8
60MM
 10
55.03279138964251
 20
-0.1471826769456859
 30
0.0
  0
VERTEX
  5
41B
  8
60MM
 10
55.02905327293642
 20
-0.1391123678938507
 30
0.0
  0
VERTEX
  5
41C
  8
60MM
 10
55.025534993002
 20
-0.1308233859983273
 30
0.0
  0
VERTEX
  5
41D
  8
60MM
 10
55.02223955875497
 20
-0.1223303437754125
 30
0.0
  0
VERTEX
  5
41E
  8
60MM
 10
55.01916997911103
 20
-0.1136478537414033
 30
0.0
  0
VERTEX
  5
41F
  8
60MM
 10
55.01632926298589
 20
-0.1047905284125966
 30
0.0
  0
VERTEX
  5
420
  8
60MM
 10
55.01372041929528
 20
-0.0957729803052894
 30
0.0
  0
VERTEX
  5
421
  8
60MM
 10
55.0113464569549
 20
-0.0866098219357784
 30
0.0
  0
VERTEX
  5
422
  8
60MM
 10
55.00921038488044
 20
-0.0773156658203606
 30
0.0
  0
VERTEX
  5
423
  8
60MM
 10
55.00731521198763
 20
-0.0679051244753329
 30
0.0
  0
VERTEX
  5
424
  8
60MM
 10
55.00566394719218
 20
-0.0583928104169922
 30
0.0
  0
VERTEX
  5
425
  8
60MM
 10
55.00425959940979
 20
-0.0487933361616355
 30
0.0
  0
VERTEX
  5
426
  8
60MM
 10
55.00310517755617
 20
-0.0391213142255596
 30
0.0
  0
VERTEX
  5
427
  8
60MM
 10
55.00220369054703
 20
-0.0293913571250615
 30
0.0
  0
VERTEX
  5
428
  8
60MM
 10
55.0015581472981
 20
-0.0196180773764379
 30
0.0
  0
VERTEX
  5
429
  8
60MM
 10
55.00117155672507
 20
-0.0098160874959859
 30
0.0
  0
VERTEX
  5
42A
  8
60MM
 10
55.00104692774364
 20
-0.0000000000000024
 30
0.0
  0
SEQEND
  5
42B
  8
60MM
  0
ENDSEC
  0
EOF
