  0
SECTION
  2
HEADER
  9
$ACADVER
  1
AC1009
  9
$DWGCODEPAGE
  3
ansi_1252
  9
$INSBASE
 10
0.0
 20
0.0
 30
0.0
  9
$EXTMIN
 10
-0.4962559391635796
 20
-0.2501359105991282
 30
0.0
  9
$EXTMAX
 10
16.64188126392833
 20
0.2501359105991339
 30
0.0
  9
$LIMMIN
 10
0.0
 20
0.0
  9
$LIMMAX
 10
12.0
 20
9.0
  9
$ORTHOMODE
 70
     0
  9
$REGENMODE
 70
     1
  9
$FILLMODE
 70
     1
  9
$QTEXTMODE
 70
     0
  9
$MIRRTEXT
 70
     1
  9
$DRAGMODE
 70
     2
  9
$LTSCALE
 40
1.0
  9
$OSMODE
 70
    37
  9
$ATTMODE
 70
     1
  9
$TEXTSIZE
 40
0.2
  9
$TRACEWID
 40
0.05
  9
$TEXTSTYLE
  7
STANDARD
  9
$CLAYER
  8
16MM
  9
$CELTYPE
  6
BYLAYER
  9
$CECOLOR
 62
   256
  9
$DIMSCALE
 40
1.0
  9
$DIMASZ
 40
0.18
  9
$DIMEXO
 40
0.0625
  9
$DIMDLI
 40
0.38
  9
$DIMRND
 40
0.0
  9
$DIMDLE
 40
0.0
  9
$DIMEXE
 40
0.18
  9
$DIMTP
 40
0.0
  9
$DIMTM
 40
0.0
  9
$DIMTXT
 40
0.18
  9
$DIMCEN
 40
0.09
  9
$DIMTSZ
 40
0.0
  9
$DIMTOL
 70
     0
  9
$DIMLIM
 70
     0
  9
$DIMTIH
 70
     1
  9
$DIMTOH
 70
     1
  9
$DIMSE1
 70
     0
  9
$DIMSE2
 70
     0
  9
$DIMTAD
 70
     0
  9
$DIMZIN
 70
     0
  9
$DIMBLK
  1

  9
$DIMASO
 70
     1
  9
$DIMSHO
 70
     1
  9
$DIMPOST
  1

  9
$DIMAPOST
  1

  9
$DIMALT
 70
     0
  9
$DIMALTD
 70
     2
  9
$DIMALTF
 40
25.4
  9
$DIMLFAC
 40
1.0
  9
$DIMTOFL
 70
     0
  9
$DIMTVP
 40
0.0
  9
$DIMTIX
 70
     0
  9
$DIMSOXD
 70
     0
  9
$DIMSAH
 70
     0
  9
$DIMBLK1
  1

  9
$DIMBLK2
  1

  9
$DIMSTYLE
  2
STANDARD
  9
$DIMCLRD
 70
     0
  9
$DIMCLRE
 70
     0
  9
$DIMCLRT
 70
     0
  9
$DIMTFAC
 40
1.0
  9
$DIMGAP
 40
0.09
  9
$LUNITS
 70
     2
  9
$LUPREC
 70
     3
  9
$SKETCHINC
 40
0.1
  9
$FILLETRAD
 40
0.5
  9
$AUNITS
 70
     0
  9
$AUPREC
 70
     0
  9
$MENU
  1
.
  9
$ELEVATION
 40
0.0
  9
$PELEVATION
 40
0.0
  9
$THICKNESS
 40
0.0
  9
$LIMCHECK
 70
     0
  9
$CHAMFERA
 40
0.5
  9
$CHAMFERB
 40
0.5
  9
$SKPOLY
 70
     0
  9
$TDCREATE
 40
2458882.987079537
  9
$TDUPDATE
 40
2458882.987079549
  9
$TDINDWG
 40
0.0000000116
  9
$TDUSRTIMER
 40
0.0000000116
  9
$USRTIMER
 70
     1
  9
$ANGBASE
 50
0.0
  9
$ANGDIR
 70
     0
  9
$PDMODE
 70
     0
  9
$PDSIZE
 40
0.0
  9
$PLINEWID
 40
0.0
  9
$COORDS
 70
     1
  9
$SPLFRAME
 70
     0
  9
$SPLINETYPE
 70
     6
  9
$SPLINESEGS
 70
     8
  9
$ATTDIA
 70
     0
  9
$ATTREQ
 70
     1
  9
$HANDLING
 70
     1
  9
$HANDSEED
  5
2EA
  9
$SURFTAB1
 70
     6
  9
$SURFTAB2
 70
     6
  9
$SURFTYPE
 70
     6
  9
$SURFU
 70
     6
  9
$SURFV
 70
     6
  9
$UCSNAME
  2

  9
$UCSORG
 10
0.0
 20
0.0
 30
0.0
  9
$UCSXDIR
 10
1.0
 20
0.0
 30
0.0
  9
$UCSYDIR
 10
0.0
 20
1.0
 30
0.0
  9
$PUCSNAME
  2

  9
$PUCSORG
 10
0.0
 20
0.0
 30
0.0
  9
$PUCSXDIR
 10
1.0
 20
0.0
 30
0.0
  9
$PUCSYDIR
 10
0.0
 20
1.0
 30
0.0
  9
$USERI1
 70
     0
  9
$USERI2
 70
     0
  9
$USERI3
 70
     0
  9
$USERI4
 70
     0
  9
$USERI5
 70
     0
  9
$USERR1
 40
0.0
  9
$USERR2
 40
0.0
  9
$USERR3
 40
0.0
  9
$USERR4
 40
0.0
  9
$USERR5
 40
0.0
  9
$WORLDVIEW
 70
     1
  9
$SHADEDGE
 70
     3
  9
$SHADEDIF
 70
    70
  9
$TILEMODE
 70
     1
  9
$MAXACTVP
 70
    64
  9
$PLIMCHECK
 70
     0
  9
$PEXTMIN
 10
1.000000000000000E+20
 20
1.000000000000000E+20
 30
1.000000000000000E+20
  9
$PEXTMAX
 10
-1.000000000000000E+20
 20
-1.000000000000000E+20
 30
-1.000000000000000E+20
  9
$PLIMMIN
 10
0.0
 20
0.0
  9
$PLIMMAX
 10
12.0
 20
9.0
  9
$UNITMODE
 70
     0
  9
$VISRETAIN
 70
     1
  9
$PLINEGEN
 70
     0
  9
$PSLTSCALE
 70
     1
  0
ENDSEC
  0
SECTION
  2
TABLES
  0
TABLE
  2
VPORT
 70
     1
  0
VPORT
  2
*ACTIVE
 70
     0
 10
0.0
 20
0.0
 11
1.0
 21
1.0
 12
8.072812662382377
 22
0.0000000000000029
 13
0.0
 23
0.0
 14
0.5
 24
0.5
 15
0.5
 25
0.5
 16
0.0
 26
0.0
 36
1.0
 17
0.0
 27
0.0
 37
0.0
 40
0.5102772576222274
 41
34.25765049496945
 42
50.0
 43
0.0
 44
0.0
 50
0.0
 51
0.0
 71
     0
 72
   100
 73
     1
 74
     3
 75
     0
 76
     0
 77
     0
 78
     0
  0
ENDTAB
  0
TABLE
  2
LTYPE
 70
     1
  0
LTYPE
  2
CONTINUOUS
 70
     0
  3
Solid line
 72
    65
 73
     0
 40
0.0
  0
ENDTAB
  0
TABLE
  2
LAYER
 70
     2
  0
LAYER
  2
0
 70
     0
 62
     7
  6
CONTINUOUS
  0
LAYER
  2
16MM
 70
     0
 62
     5
  6
CONTINUOUS
  0
ENDTAB
  0
TABLE
  2
STYLE
 70
     1
  0
STYLE
  2
STANDARD
 70
     0
 40
0.0
 41
1.0
 50
0.0
 71
     0
 42
0.2
  3
txt
  4

  0
ENDTAB
  0
TABLE
  2
VIEW
 70
     0
  0
ENDTAB
  0
TABLE
  2
UCS
 70
     0
  0
ENDTAB
  0
TABLE
  2
APPID
 70
     1
  0
APPID
  2
ACAD
 70
     0
  0
ENDTAB
  0
TABLE
  2
DIMSTYLE
 70
     1
  0
DIMSTYLE
  2
STANDARD
 70
     0
  3

  4

  5

  6

  7

 40
1.0
 41
0.18
 42
0.0625
 43
0.38
 44
0.18
 45
0.0
 46
0.0
 47
0.0
 48
0.0
140
0.18
141
0.09
142
0.0
143
25.4
144
1.0
145
0.0
146
1.0
147
0.09
 71
     0
 72
     0
 73
     1
 74
     1
 75
     0
 76
     0
 77
     0
 78
     0
170
     0
171
     2
172
     0
173
     0
174
     0
175
     0
176
     0
177
     0
178
     0
  0
ENDTAB
  0
ENDSEC
  0
SECTION
  2
BLOCKS
  0
BLOCK
  8
0
  2
$MODEL_SPACE
 70
     0
 10
0.0
 20
0.0
 30
0.0
  3
$MODEL_SPACE
  1

  0
ENDBLK
  5
21
  8
0
  0
BLOCK
 67
     1
  8
0
  2
$PAPER_SPACE
 70
     0
 10
0.0
 20
0.0
 30
0.0
  3
$PAPER_SPACE
  1

  0
ENDBLK
  5
1D
 67
     1
  8
0
  0
ENDSEC
  0
SECTION
  2
ENTITIES
  0
CIRCLE
  5
3C
  8
16MM
 10
0.0
 20
-0.0001358736758194
 30
0.0
 40
0.2500000369233089
  0
CIRCLE
  5
3D
  8
16MM
 10
16.14
 20
0.000135873675825
 30
0.0
 40
0.2500000369233089
  0
POLYLINE
  5
3E
  8
16MM
 66
     1
 10
0.0
 20
0.0
 30
0.0
  0
VERTEX
  5
3F
  8
16MM
 10
16.39
 20
0.0000000000000049
 30
0.0
  0
VERTEX
  5
40
  8
16MM
 10
16.39014599408509
 20
0.0000000000000049
 30
0.0
  0
VERTEX
  5
41
  8
16MM
 10
16.39013638114487
 20
0.0000000000000049
 30
0.0
  0
VERTEX
  5
42
  8
16MM
 10
16.35712287118038
 20
0.0000000000000048
 30
0.0
  0
VERTEX
  5
43
  8
16MM
 10
16.3571245636267
 20
0.0000000000000048
 30
0.0
  0
VERTEX
  5
44
  8
16MM
 10
16.64188126392833
 20
0.0000000000000057
 30
0.0
  0
VERTEX
  5
45
  8
16MM
 10
16.64184566600302
 20
0.0000000000000057
 30
0.0
  0
VERTEX
  5
46
  8
16MM
 10
-0.4962081680920111
 20
0.0
 30
0.0
  0
VERTEX
  5
47
  8
16MM
 10
-0.4962559391635796
 20
0.0
 30
0.0
  0
VERTEX
  5
48
  8
16MM
 10
-0.2178423694112677
 20
0.0000000000000001
 30
0.0
  0
VERTEX
  5
49
  8
16MM
 10
-0.2178413778184005
 20
0.0000000000000001
 30
0.0
  0
VERTEX
  5
4A
  8
16MM
 10
-0.2501409702315317
 20
0.0000000000000001
 30
0.0
  0
VERTEX
  5
4B
  8
16MM
 10
-0.2501485962637653
 20
0.0000000000000001
 30
0.0
  0
VERTEX
  5
4C
  8
16MM
 10
-0.2499999999999999
 20
0.0000000000000001
 30
0.0
  0
SEQEND
  5
4D
  8
16MM
  0
LINE
  5
4E
  8
16MM
 10
-0.25
 20
0.0
 30
0.0
 11
0.25
 21
0.0
 31
0.0
  0
LINE
  5
4F
  8
16MM
 10
0.0
 20
0.2498647953925641
 30
0.0
 11
0.0
 21
-0.2498647953925641
 31
0.0
  0
LINE
  5
50
  8
16MM
 10
15.89
 20
0.0000000000000048
 30
0.0
 11
16.39
 21
0.0000000000000048
 31
0.0
  0
LINE
  5
51
  8
16MM
 10
16.14
 20
0.249864795392569
 30
0.0
 11
16.14
 21
-0.2498647953925592
 31
0.0
  0
POLYLINE
  5
52
  8
16MM
 66
     1
 10
0.0
 20
0.0
 30
0.0
  0
VERTEX
  5
53
  8
16MM
 10
16.34228416034973
 20
0.1469051342588384
 30
0.0
  0
VERTEX
  5
54
  8
16MM
 10
16.34237592999086
 20
0.1469051342588383
 30
0.0
  0
VERTEX
  5
55
  8
16MM
 10
16.34237789099371
 20
0.1469051342588383
 30
0.0
  0
VERTEX
  5
56
  8
16MM
 10
16.30894521656359
 20
0.1469051342588383
 30
0.0
  0
VERTEX
  5
57
  8
16MM
 10
16.30895315731856
 20
0.1469051342588383
 30
0.0
  0
VERTEX
  5
58
  8
16MM
 10
16.59883462969603
 20
0.1469051342588391
 30
0.0
  0
VERTEX
  5
59
  8
16MM
 10
16.598919963833
 20
0.1469051342588391
 30
0.0
  0
VERTEX
  5
5A
  8
16MM
 10
-0.453178106341603
 20
0.1469051342588333
 30
0.0
  0
VERTEX
  5
5B
  8
16MM
 10
-0.4531051706963308
 20
0.1469051342588333
 30
0.0
  0
VERTEX
  5
5C
  8
16MM
 10
-0.1696842508970441
 20
0.1469051342588333
 30
0.0
  0
VERTEX
  5
5D
  8
16MM
 10
-0.169677023969508
 20
0.1469051342588333
 30
0.0
  0
VERTEX
  5
5E
  8
16MM
 10
-0.2023805413430965
 20
0.1469051342588333
 30
0.0
  0
VERTEX
  5
5F
  8
16MM
 10
-0.2023771173473821
 20
0.1469051342588333
 30
0.0
  0
VERTEX
  5
60
  8
16MM
 10
-0.2022841603497272
 20
0.1469051342588333
 30
0.0
  0
SEQEND
  5
61
  8
16MM
  0
POLYLINE
  5
62
  8
16MM
 66
     1
 10
0.0
 20
0.0
 30
0.0
  0
VERTEX
  5
63
  8
16MM
 10
16.21832364244975
 20
0.2374139992363684
 30
0.0
  0
VERTEX
  5
64
  8
16MM
 10
16.21832408068778
 20
0.2374139992363684
 30
0.0
  0
VERTEX
  5
65
  8
16MM
 10
16.18378992464058
 20
0.2374139992363683
 30
0.0
  0
VERTEX
  5
66
  8
16MM
 10
16.18378495403282
 20
0.2374139992363683
 30
0.0
  0
VERTEX
  5
67
  8
16MM
 10
16.48762184368133
 20
0.2374139992363691
 30
0.0
  0
VERTEX
  5
68
  8
16MM
 10
16.4876547549023
 20
0.2374139992363691
 30
0.0
  0
VERTEX
  5
69
  8
16MM
 10
-0.3416274853561451
 20
0.2374139992363634
 30
0.0
  0
VERTEX
  5
6A
  8
16MM
 10
-0.341599749890779
 20
0.2374139992363634
 30
0.0
  0
VERTEX
  5
6B
  8
16MM
 10
-0.0445513153749107
 20
0.2374139992363635
 30
0.0
  0
VERTEX
  5
6C
  8
16MM
 10
-0.0445563920681363
 20
0.2374139992363635
 30
0.0
  0
VERTEX
  5
6D
  8
16MM
 10
-0.0783253241080177
 20
0.2374139992363635
 30
0.0
  0
VERTEX
  5
6E
  8
16MM
 10
-0.0783386364041587
 20
0.2374139992363635
 30
0.0
  0
VERTEX
  5
6F
  8
16MM
 10
-0.0783236424497482
 20
0.2374139992363634
 30
0.0
  0
SEQEND
  5
70
  8
16MM
  0
POLYLINE
  5
71
  8
16MM
 66
     1
 10
0.0
 20
0.0
 30
0.0
  0
VERTEX
  5
72
  8
16MM
 10
16.06381060858583
 20
0.2381074896678806
 30
0.0
  0
VERTEX
  5
73
  8
16MM
 10
16.02777677845301
 20
0.2381074896678805
 30
0.0
  0
VERTEX
  5
74
  8
16MM
 10
16.02777647479722
 20
0.2381074896678805
 30
0.0
  0
VERTEX
  5
75
  8
16MM
 10
16.34971300412104
 20
0.2381074896678813
 30
0.0
  0
VERTEX
  5
76
  8
16MM
 10
16.3497831758601
 20
0.2381074896678813
 30
0.0
  0
VERTEX
  5
77
  8
16MM
 10
-0.2034190883848526
 20
0.2381074896678756
 30
0.0
  0
VERTEX
  5
78
  8
16MM
 10
-0.2033457837760576
 20
0.2381074896678756
 30
0.0
  0
VERTEX
  5
79
  8
16MM
 10
0.1114140934250452
 20
0.2381074896678757
 30
0.0
  0
VERTEX
  5
7A
  8
16MM
 10
0.1114142275365698
 20
0.2381074896678757
 30
0.0
  0
VERTEX
  5
7B
  8
16MM
 10
0.0761893914141757
 20
0.2381074896678757
 30
0.0
  0
SEQEND
  5
7C
  8
16MM
  0
POLYLINE
  5
7D
  8
16MM
 66
     1
 10
0.0
 20
0.0
 30
0.0
  0
VERTEX
  5
7E
  8
16MM
 10
15.93791769100908
 20
0.1471826769456885
 30
0.0
  0
VERTEX
  5
7F
  8
16MM
 10
15.90063437227226
 20
0.1471826769456884
 30
0.0
  0
VERTEX
  5
80
  8
16MM
 10
15.90063479286777
 20
0.1471826769456884
 30
0.0
  0
VERTEX
  5
81
  8
16MM
 10
16.23808893468177
 20
0.1471826769456892
 30
0.0
  0
VERTEX
  5
82
  8
16MM
 10
16.23812912492912
 20
0.1471826769456892
 30
0.0
  0
VERTEX
  5
83
  8
16MM
 10
-0.091509626608367
 20
0.1471826769456835
 30
0.0
  0
VERTEX
  5
84
  8
16MM
 10
-0.0914568275239043
 20
0.1471826769456835
 30
0.0
  0
VERTEX
  5
85
  8
16MM
 10
0.2385205658574661
 20
0.1471826769456835
 30
0.0
  0
VERTEX
  5
86
  8
16MM
 10
0.2385215601048866
 20
0.1471826769456835
 30
0.0
  0
VERTEX
  5
87
  8
16MM
 10
0.2020823089909222
 20
0.1471826769456835
 30
0.0
  0
SEQEND
  5
88
  8
16MM
  0
POLYLINE
  5
89
  8
16MM
 66
     1
 10
0.0
 20
0.0
 30
0.0
  0
VERTEX
  5
8A
  8
16MM
 10
15.89
 20
0.0000000000000049
 30
0.0
  0
VERTEX
  5
8B
  8
16MM
 10
15.85224109764816
 20
0.0000000000000048
 30
0.0
  0
VERTEX
  5
8C
  8
16MM
 10
15.85224730307942
 20
0.0000000000000048
 30
0.0
  0
VERTEX
  5
8D
  8
16MM
 10
16.19579577547087
 20
0.0000000000000056
 30
0.0
  0
VERTEX
  5
8E
  8
16MM
 10
16.19578124096072
 20
0.0000000000000056
 30
0.0
  0
VERTEX
  5
8F
  8
16MM
 10
-0.0490747406700967
 20
-0.0000000000000001
 30
0.0
  0
VERTEX
  5
90
  8
16MM
 10
-0.0490715828790221
 20
-0.0000000000000001
 30
0.0
  0
VERTEX
  5
91
  8
16MM
 10
0.2868946967629536
 20
0.0
 30
0.0
  0
VERTEX
  5
92
  8
16MM
 10
0.2869014849190344
 20
0.0
 30
0.0
  0
VERTEX
  5
93
  8
16MM
 10
0.25
 20
-0.0000000000000001
 30
0.0
  0
SEQEND
  5
94
  8
16MM
  0
POLYLINE
  5
95
  8
16MM
 66
     1
 10
0.0
 20
0.0
 30
0.0
  0
VERTEX
  5
96
  8
16MM
 10
15.93771583965027
 20
-0.1469051342588285
 30
0.0
  0
VERTEX
  5
97
  8
16MM
 10
15.90043051753648
 20
-0.1469051342588286
 30
0.0
  0
VERTEX
  5
98
  8
16MM
 10
15.90043096250037
 20
-0.1469051342588286
 30
0.0
  0
VERTEX
  5
99
  8
16MM
 10
16.23791004061257
 20
-0.146905134258828
 30
0.0
  0
VERTEX
  5
9A
  8
16MM
 10
16.23795079738597
 20
-0.146905134258828
 30
0.0
  0
VERTEX
  5
9B
  8
16MM
 10
-0.0913308580447864
 20
-0.1469051342588337
 30
0.0
  0
VERTEX
  5
9C
  8
16MM
 10
-0.0912774915942096
 20
-0.1469051342588337
 30
0.0
  0
VERTEX
  5
9D
  8
16MM
 10
0.2387243399510974
 20
-0.1469051342588336
 30
0.0
  0
VERTEX
  5
9E
  8
16MM
 10
0.2387253586051266
 20
-0.1469051342588336
 30
0.0
  0
VERTEX
  5
9F
  8
16MM
 10
0.2022841603497271
 20
-0.1469051342588336
 30
0.0
  0
SEQEND
  5
A0
  8
16MM
  0
POLYLINE
  5
A1
  8
16MM
 66
     1
 10
0.0
 20
0.0
 30
0.0
  0
VERTEX
  5
A2
  8
16MM
 10
16.06167635755025
 20
-0.2374139992363586
 30
0.0
  0
VERTEX
  5
A3
  8
16MM
 10
16.02562134495223
 20
-0.2374139992363587
 30
0.0
  0
VERTEX
  5
A4
  8
16MM
 10
16.02562156753768
 20
-0.2374139992363587
 30
0.0
  0
VERTEX
  5
A5
  8
16MM
 10
16.34780980577497
 20
-0.2374139992363579
 30
0.0
  0
VERTEX
  5
A6
  8
16MM
 10
16.34788577010081
 20
-0.2374139992363579
 30
0.0
  0
VERTEX
  5
A7
  8
16MM
 10
-0.2015170051068225
 20
-0.2374139992363636
 30
0.0
  0
VERTEX
  5
A8
  8
16MM
 10
-0.2014379056086339
 20
-0.2374139992363636
 30
0.0
  0
VERTEX
  5
A9
  8
16MM
 10
0.1135684057631096
 20
-0.2374139992363635
 30
0.0
  0
VERTEX
  5
AA
  8
16MM
 10
0.1135690664376336
 20
-0.2374139992363635
 30
0.0
  0
VERTEX
  5
AB
  8
16MM
 10
0.0783236424497482
 20
-0.2374139992363635
 30
0.0
  0
SEQEND
  5
AC
  8
16MM
  0
POLYLINE
  5
AD
  8
16MM
 66
     1
 10
0.0
 20
0.0
 30
0.0
  0
VERTEX
  5
AE
  8
16MM
 10
16.21618939141418
 20
-0.2381074896678709
 30
0.0
  0
VERTEX
  5
AF
  8
16MM
 10
16.21620327878371
 20
-0.2381074896678709
 30
0.0
  0
VERTEX
  5
B0
  8
16MM
 10
16.18163474879604
 20
-0.238107489667871
 30
0.0
  0
VERTEX
  5
B1
  8
16MM
 10
16.18163004677328
 20
-0.238107489667871
 30
0.0
  0
VERTEX
  5
B2
  8
16MM
 10
16.48570735114318
 20
-0.2381074896678702
 30
0.0
  0
VERTEX
  5
B3
  8
16MM
 10
16.48574586128333
 20
-0.2381074896678701
 30
0.0
  0
VERTEX
  5
B4
  8
16MM
 10
-0.3397139128058586
 20
-0.2381074896678758
 30
0.0
  0
VERTEX
  5
B5
  8
16MM
 10
-0.3396805824392162
 20
-0.2381074896678758
 30
0.0
  0
VERTEX
  5
B6
  8
16MM
 10
-0.0423970030368464
 20
-0.2381074896678757
 30
0.0
  0
VERTEX
  5
B7
  8
16MM
 10
-0.0424018112274109
 20
-0.2381074896678757
 30
0.0
  0
VERTEX
  5
B8
  8
16MM
 10
-0.0761895015681395
 20
-0.2381074896678757
 30
0.0
  0
VERTEX
  5
B9
  8
16MM
 10
-0.0761893914141757
 20
-0.2381074896678757
 30
0.0
  0
SEQEND
  5
BA
  8
16MM
  0
POLYLINE
  5
BB
  8
16MM
 66
     1
 10
0.0
 20
0.0
 30
0.0
  0
VERTEX
  5
BC
  8
16MM
 10
16.34208230899092
 20
-0.1471826769456787
 30
0.0
  0
VERTEX
  5
BD
  8
16MM
 10
16.34217392991237
 20
-0.1471826769456787
 30
0.0
  0
VERTEX
  5
BE
  8
16MM
 10
16.34217581854591
 20
-0.1471826769456787
 30
0.0
  0
VERTEX
  5
BF
  8
16MM
 10
16.30874141159819
 20
-0.1471826769456788
 30
0.0
  0
VERTEX
  5
C0
  8
16MM
 10
16.30874937878526
 20
-0.1471826769456788
 30
0.0
  0
VERTEX
  5
C1
  8
16MM
 10
16.5986525303832
 20
-0.147182676945678
 30
0.0
  0
VERTEX
  5
C2
  8
16MM
 10
16.59873837609664
 20
-0.147182676945678
 30
0.0
  0
VERTEX
  5
C3
  8
16MM
 10
-0.4529960771350038
 20
-0.1471826769456836
 30
0.0
  0
VERTEX
  5
C4
  8
16MM
 10
-0.4529226308665298
 20
-0.1471826769456836
 30
0.0
  0
VERTEX
  5
C5
  8
16MM
 10
-0.1694805285748376
 20
-0.1471826769456835
 30
0.0
  0
VERTEX
  5
C6
  8
16MM
 10
-0.1694732752700904
 20
-0.1471826769456835
 30
0.0
  0
VERTEX
  5
C7
  8
16MM
 10
-0.2021784690990812
 20
-0.1471826769456835
 30
0.0
  0
VERTEX
  5
C8
  8
16MM
 10
-0.2021751173601946
 20
-0.1471826769456835
 30
0.0
  0
VERTEX
  5
C9
  8
16MM
 10
-0.2020823089909222
 20
-0.1471826769456835
 30
0.0
  0
SEQEND
  5
CA
  8
16MM
  0
CIRCLE
  5
CB
  8
16MM
 10
16.14
 20
-0.0001358736758157
 30
0.0
 40
0.2500000369233089
  0
POLYLINE
  5
CC
  8
16MM
 66
     1
 10
0.0
 20
0.0
 30
0.0
  0
VERTEX
  5
CD
  8
16MM
 10
16.31677669529664
 20
0.000000000000005
 30
0.0
  0
VERTEX
  5
CE
  8
16MM
 10
16.31662806639185
 20
0.009815537017076
 30
0.0
  0
VERTEX
  5
CF
  8
16MM
 10
16.31620040593812
 20
0.0196157331482015
 30
0.0
  0
VERTEX
  5
D0
  8
16MM
 10
16.3154975026043
 20
0.0293857624082015
 30
0.0
  0
VERTEX
  5
D1
  8
16MM
 10
16.31452314505927
 20
0.0391107988118959
 30
0.0
  0
VERTEX
  5
D2
  8
16MM
 10
16.31328112197188
 20
0.0487760163741046
 30
0.0
  0
VERTEX
  5
D3
  8
16MM
 10
16.311775222011
 20
0.0583665891096475
 30
0.0
  0
VERTEX
  5
D4
  8
16MM
 10
16.31000923384548
 20
0.0678676910333445
 30
0.0
  0
VERTEX
  5
D5
  8
16MM
 10
16.3079869461442
 20
0.0772644961600155
 30
0.0
  0
VERTEX
  5
D6
  8
16MM
 10
16.30571214757602
 20
0.0865421785044805
 30
0.0
  0
VERTEX
  5
D7
  8
16MM
 10
16.3031886268098
 20
0.0956859120815593
 30
0.0
  0
VERTEX
  5
D8
  8
16MM
 10
16.30042017251439
 20
0.1046808709060719
 30
0.0
  0
VERTEX
  5
D9
  8
16MM
 10
16.29741057335868
 20
0.1135122289928382
 30
0.0
  0
VERTEX
  5
DA
  8
16MM
 10
16.29416361801151
 20
0.122165160356678
 30
0.0
  0
VERTEX
  5
DB
  8
16MM
 10
16.29068309514175
 20
0.1306248390124114
 30
0.0
  0
VERTEX
  5
DC
  8
16MM
 10
16.28697279341826
 20
0.1388764389748582
 30
0.0
  0
VERTEX
  5
DD
  8
16MM
 10
16.28303650150992
 20
0.1469051342588383
 30
0.0
  0
VERTEX
  5
DE
  8
16MM
 10
16.27887873329531
 20
0.1546971884252196
 30
0.0
  0
VERTEX
  5
DF
  8
16MM
 10
16.27671906734678
 20
0.1585014762880138
 30
0.0
  0
VERTEX
  5
E0
  8
16MM
 10
16.27450690349197
 20
0.1622432232190615
 30
0.0
  0
VERTEX
  5
E1
  8
16MM
 10
16.2722432592218
 20
0.1659213931297513
 30
0.0
  0
VERTEX
  5
E2
  8
16MM
 10
16.26992915202719
 20
0.1695349499314715
 30
0.0
  0
VERTEX
  5
E3
  8
16MM
 10
16.26756559939903
 20
0.1730828575356106
 30
0.0
  0
VERTEX
  5
E4
  8
16MM
 10
16.26515361882823
 20
0.176564079853557
 30
0.0
  0
VERTEX
  5
E5
  8
16MM
 10
16.26269422780571
 20
0.1799775807966991
 30
0.0
  0
VERTEX
  5
E6
  8
16MM
 10
16.26018844382238
 20
0.1833223242764254
 30
0.0
  0
VERTEX
  5
E7
  8
16MM
 10
16.25763728436914
 20
0.1865972742041242
 30
0.0
  0
VERTEX
  5
E8
  8
16MM
 10
16.2550417669369
 20
0.189801394491184
 30
0.0
  0
VERTEX
  5
E9
  8
16MM
 10
16.25240290901658
 20
0.1929336490489933
 30
0.0
  0
VERTEX
  5
EA
  8
16MM
 10
16.24972172809908
 20
0.1959930017889404
 30
0.0
  0
VERTEX
  5
EB
  8
16MM
 10
16.2469992416753
 20
0.1989784166224138
 30
0.0
  0
VERTEX
  5
EC
  8
16MM
 10
16.24423646723618
 20
0.2018888574608019
 30
0.0
  0
VERTEX
  5
ED
  8
16MM
 10
16.2414344222726
 20
0.2047232882154932
 30
0.0
  0
VERTEX
  5
EE
  8
16MM
 10
16.23859412427549
 20
0.207480672797876
 30
0.0
  0
VERTEX
  5
EF
  8
16MM
 10
16.23571659073574
 20
0.2101599751193388
 30
0.0
  0
VERTEX
  5
F0
  8
16MM
 10
16.23280283914427
 20
0.21276015909127
 30
0.0
  0
VERTEX
  5
F1
  8
16MM
 10
16.22985388699199
 20
0.2152801886250581
 30
0.0
  0
VERTEX
  5
F2
  8
16MM
 10
16.22687075176981
 20
0.2177190276320914
 30
0.0
  0
VERTEX
  5
F3
  8
16MM
 10
16.22385445096864
 20
0.2200756400237585
 30
0.0
  0
VERTEX
  5
F4
  8
16MM
 10
16.22080600207938
 20
0.2223489897114476
 30
0.0
  0
VERTEX
  5
F5
  8
16MM
 10
16.21772642259295
 20
0.2245380406065473
 30
0.0
  0
VERTEX
  5
F6
  8
16MM
 10
16.21461673000025
 20
0.226641756620446
 30
0.0
  0
VERTEX
  5
F7
  8
16MM
 10
16.2114779417922
 20
0.2286591016645321
 30
0.0
  0
VERTEX
  5
F8
  8
16MM
 10
16.2083110754597
 20
0.2305890396501939
 30
0.0
  0
VERTEX
  5
F9
  8
16MM
 10
16.20511714849367
 20
0.2324305344888201
 30
0.0
  0
VERTEX
  5
FA
  8
16MM
 10
16.20189717838501
 20
0.2341825500917989
 30
0.0
  0
VERTEX
  5
FB
  8
16MM
 10
16.19865218262463
 20
0.2358440503705189
 30
0.0
  0
VERTEX
  5
FC
  8
16MM
 10
16.19538317870345
 20
0.2374139992363684
 30
0.0
  0
VERTEX
  5
FD
  8
16MM
 10
16.19209124327237
 20
0.2388915130124476
 30
0.0
  0
VERTEX
  5
FE
  8
16MM
 10
16.18877768962227
 20
0.2402763176687039
 30
0.0
  0
VERTEX
  5
FF
  8
16MM
 10
16.18544389020404
 20
0.2415682915867963
 30
0.0
  0
VERTEX
  5
100
  8
16MM
 10
16.18209121746858
 20
0.242767313148384
 30
0.0
  0
VERTEX
  5
101
  8
16MM
 10
16.17872104386677
 20
0.2438732607351261
 30
0.0
  0
VERTEX
  5
102
  8
16MM
 10
16.17533474184949
 20
0.2448860127286817
 30
0.0
  0
VERTEX
  5
103
  8
16MM
 10
16.17193368386763
 20
0.2458054475107099
 30
0.0
  0
VERTEX
  5
104
  8
16MM
 10
16.16851924237208
 20
0.2466314434628697
 30
0.0
  0
VERTEX
  5
105
  8
16MM
 10
16.16509278981373
 20
0.2473638789668204
 30
0.0
  0
VERTEX
  5
106
  8
16MM
 10
16.16165569864345
 20
0.2480026324042209
 30
0.0
  0
VERTEX
  5
107
  8
16MM
 10
16.15820934131215
 20
0.2485475821567304
 30
0.0
  0
VERTEX
  5
108
  8
16MM
 10
16.1547550902707
 20
0.248998606606008
 30
0.0
  0
VERTEX
  5
109
  8
16MM
 10
16.15129431796999
 20
0.2493555841337129
 30
0.0
  0
VERTEX
  5
10A
  8
16MM
 10
16.14782839686091
 20
0.249618393121504
 30
0.0
  0
VERTEX
  5
10B
  8
16MM
 10
16.14435869939434
 20
0.2497869119510405
 30
0.0
  0
VERTEX
  5
10C
  8
16MM
 10
16.14088659802118
 20
0.2498610190039816
 30
0.0
  0
VERTEX
  5
10D
  8
16MM
 10
16.1374134651923
 20
0.2498405926619863
 30
0.0
  0
VERTEX
  5
10E
  8
16MM
 10
16.13394067335859
 20
0.2497255113067137
 30
0.0
  0
VERTEX
  5
10F
  8
16MM
 10
16.13046959497095
 20
0.2495156533198228
 30
0.0
  0
VERTEX
  5
110
  8
16MM
 10
16.12700160248026
 20
0.249210897082973
 30
0.0
  0
VERTEX
  5
111
  8
16MM
 10
16.1235380683374
 20
0.2488111209778232
 30
0.0
  0
VERTEX
  5
112
  8
16MM
 10
16.12008036499326
 20
0.2483162033860325
 30
0.0
  0
VERTEX
  5
113
  8
16MM
 10
16.11662986489872
 20
0.24772602268926
 30
0.0
  0
VERTEX
  5
114
  8
16MM
 10
16.11318794050468
 20
0.2470404572691649
 30
0.0
  0
VERTEX
  5
115
  8
16MM
 10
16.10975596426203
 20
0.2462593855074062
 30
0.0
  0
VERTEX
  5
116
  8
16MM
 10
16.10633530862164
 20
0.2453826857856431
 30
0.0
  0
VERTEX
  5
117
  8
16MM
 10
16.1029273460344
 20
0.2444102364855346
 30
0.0
  0
VERTEX
  5
118
  8
16MM
 10
16.09953344895121
 20
0.2433419159887399
 30
0.0
  0
VERTEX
  5
119
  8
16MM
 10
16.09615498982294
 20
0.242177602676918
 30
0.0
  0
VERTEX
  5
11A
  8
16MM
 10
16.09279334110048
 20
0.2409171749317281
 30
0.0
  0
VERTEX
  5
11B
  8
16MM
 10
16.08944987523473
 20
0.2395605111348292
 30
0.0
  0
VERTEX
  5
11C
  8
16MM
 10
16.08612596467657
 20
0.2381074896678806
 30
0.0
  0
VERTEX
  5
11D
  8
16MM
 10
16.08282294548325
 20
0.2365582079215792
 30
0.0
  0
VERTEX
  5
11E
  8
16MM
 10
16.07954200813753
 20
0.2349136393227744
 30
0.0
  0
VERTEX
  5
11F
  8
16MM
 10
16.07628430672852
 20
0.2331749763073536
 30
0.0
  0
VERTEX
  5
120
  8
16MM
 10
16.07305099534537
 20
0.231343411311204
 30
0.0
  0
VERTEX
  5
121
  8
16MM
 10
16.06984322807719
 20
0.229420136770213
 30
0.0
  0
VERTEX
  5
122
  8
16MM
 10
16.06666215901311
 20
0.2274063451202679
 30
0.0
  0
VERTEX
  5
123
  8
16MM
 10
16.06350894224224
 20
0.2253032287972559
 30
0.0
  0
VERTEX
  5
124
  8
16MM
 10
16.06038473185371
 20
0.2231119802370646
 30
0.0
  0
VERTEX
  5
125
  8
16MM
 10
16.05729068193665
 20
0.2208337918755812
 30
0.0
  0
VERTEX
  5
126
  8
16MM
 10
16.05422794658018
 20
0.218469856148693
 30
0.0
  0
VERTEX
  5
127
  8
16MM
 10
16.05119767987343
 20
0.2160213654922873
 30
0.0
  0
VERTEX
  5
128
  8
16MM
 10
16.04820103590552
 20
0.2134895123422514
 30
0.0
  0
VERTEX
  5
129
  8
16MM
 10
16.04523916876557
 20
0.2108754891344728
 30
0.0
  0
VERTEX
  5
12A
  8
16MM
 10
16.04231323254271
 20
0.2081804883048386
 30
0.0
  0
VERTEX
  5
12B
  8
16MM
 10
16.03942438132606
 20
0.2054057022892363
 30
0.0
  0
VERTEX
  5
12C
  8
16MM
 10
16.03657376920474
 20
0.2025523235235532
 30
0.0
  0
VERTEX
  5
12D
  8
16MM
 10
16.03376255026789
 20
0.1996215444436765
 30
0.0
  0
VERTEX
  5
12E
  8
16MM
 10
16.03099187860462
 20
0.1966145574854937
 30
0.0
  0
VERTEX
  5
12F
  8
16MM
 10
16.02826290830406
 20
0.1935325550848921
 30
0.0
  0
VERTEX
  5
130
  8
16MM
 10
16.02557679345533
 20
0.1903767296777589
 30
0.0
  0
VERTEX
  5
131
  8
16MM
 10
16.02293468814755
 20
0.1871482736999815
 30
0.0
  0
VERTEX
  5
132
  8
16MM
 10
16.02033774646986
 20
0.1838483795874472
 30
0.0
  0
VERTEX
  5
133
  8
16MM
 10
16.01778712251138
 20
0.1804782397760434
 30
0.0
  0
VERTEX
  5
134
  8
16MM
 10
16.01528397036122
 20
0.1770390467016574
 30
0.0
  0
VERTEX
  5
135
  8
16MM
 10
16.01282944410851
 20
0.1735319928001764
 30
0.0
  0
VERTEX
  5
136
  8
16MM
 10
16.01042469784238
 20
0.169958270507488
 30
0.0
  0
VERTEX
  5
137
  8
16MM
 10
16.00807088565195
 20
0.1663190722594792
 30
0.0
  0
VERTEX
  5
138
  8
16MM
 10
16.00576916162635
 20
0.1626155904920376
 30
0.0
  0
VERTEX
  5
139
  8
16MM
 10
16.0035206798547
 20
0.1588490176410504
 30
0.0
  0
VERTEX
  5
13A
  8
16MM
 10
16.00132659442612
 20
0.1550205461424048
 30
0.0
  0
VERTEX
  5
13B
  8
16MM
 10
15.99918805942974
 20
0.1511313684319884
 30
0.0
  0
VERTEX
  5
13C
  8
16MM
 10
15.99710622895469
 20
0.1471826769456884
 30
0.0
  0
VERTEX
  5
13D
  8
16MM
 10
15.99311629440803
 20
0.1391123678938531
 30
0.0
  0
VERTEX
  5
13E
  8
16MM
 10
15.98936100591417
 20
0.1308233859983297
 30
0.0
  0
VERTEX
  5
13F
  8
16MM
 10
15.98584357508409
 20
0.1223303437754149
 30
0.0
  0
VERTEX
  5
140
  8
16MM
 10
15.98256721352879
 20
0.1136478537414058
 30
0.0
  0
VERTEX
  5
141
  8
16MM
 10
15.97953513285929
 20
0.1047905284125991
 30
0.0
  0
VERTEX
  5
142
  8
16MM
 10
15.97675054468658
 20
0.0957729803052918
 30
0.0
  0
VERTEX
  5
143
  8
16MM
 10
15.97421666062167
 20
0.0866098219357808
 30
0.0
  0
VERTEX
  5
144
  8
16MM
 10
15.97193669227555
 20
0.077315665820363
 30
0.0
  0
VERTEX
  5
145
  8
16MM
 10
15.96991385125922
 20
0.0679051244753353
 30
0.0
  0
VERTEX
  5
146
  8
16MM
 10
15.96815134918369
 20
0.0583928104169947
 30
0.0
  0
VERTEX
  5
147
  8
16MM
 10
15.96665239765996
 20
0.0487933361616379
 30
0.0
  0
VERTEX
  5
148
  8
16MM
 10
15.96542020829904
 20
0.039121314225562
 30
0.0
  0
VERTEX
  5
149
  8
16MM
 10
15.96445799271191
 20
0.0293913571250639
 30
0.0
  0
VERTEX
  5
14A
  8
16MM
 10
15.96376896250959
 20
0.0196180773764403
 30
0.0
  0
VERTEX
  5
14B
  8
16MM
 10
15.96335632930307
 20
0.0098160874959884
 30
0.0
  0
VERTEX
  5
14C
  8
16MM
 10
15.96322330470336
 20
0.0000000000000048
 30
0.0
  0
VERTEX
  5
14D
  8
16MM
 10
15.96337193360815
 20
-0.0098155370170662
 30
0.0
  0
VERTEX
  5
14E
  8
16MM
 10
15.96379959406188
 20
-0.0196157331481917
 30
0.0
  0
VERTEX
  5
14F
  8
16MM
 10
15.9645024973957
 20
-0.0293857624081917
 30
0.0
  0
VERTEX
  5
150
  8
16MM
 10
15.96547685494073
 20
-0.0391107988118861
 30
0.0
  0
VERTEX
  5
151
  8
16MM
 10
15.96671887802812
 20
-0.0487760163740948
 30
0.0
  0
VERTEX
  5
152
  8
16MM
 10
15.968224777989
 20
-0.0583665891096377
 30
0.0
  0
VERTEX
  5
153
  8
16MM
 10
15.96999076615452
 20
-0.0678676910333348
 30
0.0
  0
VERTEX
  5
154
  8
16MM
 10
15.97201305385579
 20
-0.0772644961600058
 30
0.0
  0
VERTEX
  5
155
  8
16MM
 10
15.97428785242398
 20
-0.0865421785044708
 30
0.0
  0
VERTEX
  5
156
  8
16MM
 10
15.9768113731902
 20
-0.0956859120815496
 30
0.0
  0
VERTEX
  5
157
  8
16MM
 10
15.9795798274856
 20
-0.1046808709060622
 30
0.0
  0
VERTEX
  5
158
  8
16MM
 10
15.98258942664132
 20
-0.1135122289928285
 30
0.0
  0
VERTEX
  5
159
  8
16MM
 10
15.98583638198849
 20
-0.1221651603566684
 30
0.0
  0
VERTEX
  5
15A
  8
16MM
 10
15.98931690485825
 20
-0.1306248390124018
 30
0.0
  0
VERTEX
  5
15B
  8
16MM
 10
15.99302720658173
 20
-0.1388764389748486
 30
0.0
  0
VERTEX
  5
15C
  8
16MM
 10
15.99696349849008
 20
-0.1469051342588287
 30
0.0
  0
VERTEX
  5
15D
  8
16MM
 10
16.00112126670469
 20
-0.15469718842521
 30
0.0
  0
VERTEX
  5
15E
  8
16MM
 10
16.00328093265323
 20
-0.1585014762880042
 30
0.0
  0
VERTEX
  5
15F
  8
16MM
 10
16.00549309650803
 20
-0.1622432232190519
 30
0.0
  0
VERTEX
  5
160
  8
16MM
 10
16.0077567407782
 20
-0.1659213931297417
 30
0.0
  0
VERTEX
  5
161
  8
16MM
 10
16.01007084797281
 20
-0.1695349499314619
 30
0.0
  0
VERTEX
  5
162
  8
16MM
 10
16.01243440060097
 20
-0.173082857535601
 30
0.0
  0
VERTEX
  5
163
  8
16MM
 10
16.01484638117177
 20
-0.1765640798535474
 30
0.0
  0
VERTEX
  5
164
  8
16MM
 10
16.01730577219429
 20
-0.1799775807966895
 30
0.0
  0
VERTEX
  5
165
  8
16MM
 10
16.01981155617762
 20
-0.1833223242764158
 30
0.0
  0
VERTEX
  5
166
  8
16MM
 10
16.02236271563086
 20
-0.1865972742041146
 30
0.0
  0
VERTEX
  5
167
  8
16MM
 10
16.0249582330631
 20
-0.1898013944911744
 30
0.0
  0
VERTEX
  5
168
  8
16MM
 10
16.02759709098342
 20
-0.1929336490489837
 30
0.0
  0
VERTEX
  5
169
  8
16MM
 10
16.03027827190093
 20
-0.1959930017889308
 30
0.0
  0
VERTEX
  5
16A
  8
16MM
 10
16.0330007583247
 20
-0.1989784166224042
 30
0.0
  0
VERTEX
  5
16B
  8
16MM
 10
16.03576353276383
 20
-0.2018888574607923
 30
0.0
  0
VERTEX
  5
16C
  8
16MM
 10
16.03856557772741
 20
-0.2047232882154835
 30
0.0
  0
VERTEX
  5
16D
  8
16MM
 10
16.04140587572452
 20
-0.2074806727978663
 30
0.0
  0
VERTEX
  5
16E
  8
16MM
 10
16.04428340926427
 20
-0.2101599751193291
 30
0.0
  0
VERTEX
  5
16F
  8
16MM
 10
16.04719716085574
 20
-0.2127601590912603
 30
0.0
  0
VERTEX
  5
170
  8
16MM
 10
16.05014611300802
 20
-0.2152801886250484
 30
0.0
  0
VERTEX
  5
171
  8
16MM
 10
16.0531292482302
 20
-0.2177190276320817
 30
0.0
  0
VERTEX
  5
172
  8
16MM
 10
16.05614554903138
 20
-0.2200756400237487
 30
0.0
  0
VERTEX
  5
173
  8
16MM
 10
16.05919399792063
 20
-0.2223489897114378
 30
0.0
  0
VERTEX
  5
174
  8
16MM
 10
16.06227357740707
 20
-0.2245380406065375
 30
0.0
  0
VERTEX
  5
175
  8
16MM
 10
16.06538326999976
 20
-0.2266417566204362
 30
0.0
  0
VERTEX
  5
176
  8
16MM
 10
16.06852205820781
 20
-0.2286591016645223
 30
0.0
  0
VERTEX
  5
177
  8
16MM
 10
16.07168892454031
 20
-0.2305890396501842
 30
0.0
  0
VERTEX
  5
178
  8
16MM
 10
16.07488285150634
 20
-0.2324305344888103
 30
0.0
  0
VERTEX
  5
179
  8
16MM
 10
16.078102821615
 20
-0.2341825500917892
 30
0.0
  0
VERTEX
  5
17A
  8
16MM
 10
16.08134781737537
 20
-0.2358440503705091
 30
0.0
  0
VERTEX
  5
17B
  8
16MM
 10
16.08461682129656
 20
-0.2374139992363586
 30
0.0
  0
VERTEX
  5
17C
  8
16MM
 10
16.08790875672764
 20
-0.2388915130124378
 30
0.0
  0
VERTEX
  5
17D
  8
16MM
 10
16.09122231037774
 20
-0.2402763176686941
 30
0.0
  0
VERTEX
  5
17E
  8
16MM
 10
16.09455610979597
 20
-0.2415682915867865
 30
0.0
  0
VERTEX
  5
17F
  8
16MM
 10
16.09790878253143
 20
-0.2427673131483742
 30
0.0
  0
VERTEX
  5
180
  8
16MM
 10
16.10127895613324
 20
-0.2438732607351164
 30
0.0
  0
VERTEX
  5
181
  8
16MM
 10
16.10466525815052
 20
-0.2448860127286719
 30
0.0
  0
VERTEX
  5
182
  8
16MM
 10
16.10806631613238
 20
-0.2458054475107001
 30
0.0
  0
VERTEX
  5
183
  8
16MM
 10
16.11148075762793
 20
-0.2466314434628599
 30
0.0
  0
VERTEX
  5
184
  8
16MM
 10
16.11490721018628
 20
-0.2473638789668106
 30
0.0
  0
VERTEX
  5
185
  8
16MM
 10
16.11834430135655
 20
-0.2480026324042111
 30
0.0
  0
VERTEX
  5
186
  8
16MM
 10
16.12179065868786
 20
-0.2485475821567206
 30
0.0
  0
VERTEX
  5
187
  8
16MM
 10
16.12524490972931
 20
-0.2489986066059982
 30
0.0
  0
VERTEX
  5
188
  8
16MM
 10
16.12870568203002
 20
-0.249355584133703
 30
0.0
  0
VERTEX
  5
189
  8
16MM
 10
16.1321716031391
 20
-0.2496183931214942
 30
0.0
  0
VERTEX
  5
18A
  8
16MM
 10
16.13564130060567
 20
-0.2497869119510308
 30
0.0
  0
VERTEX
  5
18B
  8
16MM
 10
16.13911340197883
 20
-0.2498610190039718
 30
0.0
  0
VERTEX
  5
18C
  8
16MM
 10
16.14258653480771
 20
-0.2498405926619764
 30
0.0
  0
VERTEX
  5
18D
  8
16MM
 10
16.14605932664141
 20
-0.2497255113067038
 30
0.0
  0
VERTEX
  5
18E
  8
16MM
 10
16.14953040502906
 20
-0.2495156533198131
 30
0.0
  0
VERTEX
  5
18F
  8
16MM
 10
16.15299839751975
 20
-0.2492108970829632
 30
0.0
  0
VERTEX
  5
190
  8
16MM
 10
16.15646193166261
 20
-0.2488111209778134
 30
0.0
  0
VERTEX
  5
191
  8
16MM
 10
16.15991963500675
 20
-0.2483162033860227
 30
0.0
  0
VERTEX
  5
192
  8
16MM
 10
16.16337013510129
 20
-0.2477260226892502
 30
0.0
  0
VERTEX
  5
193
  8
16MM
 10
16.16681205949532
 20
-0.2470404572691551
 30
0.0
  0
VERTEX
  5
194
  8
16MM
 10
16.17024403573798
 20
-0.2462593855073964
 30
0.0
  0
VERTEX
  5
195
  8
16MM
 10
16.17366469137837
 20
-0.2453826857856333
 30
0.0
  0
VERTEX
  5
196
  8
16MM
 10
16.17707265396561
 20
-0.2444102364855248
 30
0.0
  0
VERTEX
  5
197
  8
16MM
 10
16.1804665510488
 20
-0.2433419159887301
 30
0.0
  0
VERTEX
  5
198
  8
16MM
 10
16.18384501017707
 20
-0.2421776026769082
 30
0.0
  0
VERTEX
  5
199
  8
16MM
 10
16.18720665889952
 20
-0.2409171749317183
 30
0.0
  0
VERTEX
  5
19A
  8
16MM
 10
16.19055012476527
 20
-0.2395605111348195
 30
0.0
  0
VERTEX
  5
19B
  8
16MM
 10
16.19387403532344
 20
-0.2381074896678708
 30
0.0
  0
VERTEX
  5
19C
  8
16MM
 10
16.19717705451676
 20
-0.2365582079215695
 30
0.0
  0
VERTEX
  5
19D
  8
16MM
 10
16.20045799186248
 20
-0.2349136393227647
 30
0.0
  0
VERTEX
  5
19E
  8
16MM
 10
16.20371569327148
 20
-0.2331749763073439
 30
0.0
  0
VERTEX
  5
19F
  8
16MM
 10
16.20694900465463
 20
-0.2313434113111943
 30
0.0
  0
VERTEX
  5
1A0
  8
16MM
 10
16.21015677192281
 20
-0.2294201367702032
 30
0.0
  0
VERTEX
  5
1A1
  8
16MM
 10
16.2133378409869
 20
-0.2274063451202581
 30
0.0
  0
VERTEX
  5
1A2
  8
16MM
 10
16.21649105775776
 20
-0.2253032287972462
 30
0.0
  0
VERTEX
  5
1A3
  8
16MM
 10
16.21961526814629
 20
-0.2231119802370549
 30
0.0
  0
VERTEX
  5
1A4
  8
16MM
 10
16.22270931806335
 20
-0.2208337918755715
 30
0.0
  0
VERTEX
  5
1A5
  8
16MM
 10
16.22577205341982
 20
-0.2184698561486833
 30
0.0
  0
VERTEX
  5
1A6
  8
16MM
 10
16.22880232012657
 20
-0.2160213654922775
 30
0.0
  0
VERTEX
  5
1A7
  8
16MM
 10
16.23179896409448
 20
-0.2134895123422417
 30
0.0
  0
VERTEX
  5
1A8
  8
16MM
 10
16.23476083123444
 20
-0.2108754891344631
 30
0.0
  0
VERTEX
  5
1A9
  8
16MM
 10
16.2376867674573
 20
-0.2081804883048289
 30
0.0
  0
VERTEX
  5
1AA
  8
16MM
 10
16.24057561867395
 20
-0.2054057022892266
 30
0.0
  0
VERTEX
  5
1AB
  8
16MM
 10
16.24342623079526
 20
-0.2025523235235435
 30
0.0
  0
VERTEX
  5
1AC
  8
16MM
 10
16.24623744973212
 20
-0.1996215444436669
 30
0.0
  0
VERTEX
  5
1AD
  8
16MM
 10
16.24900812139538
 20
-0.1966145574854841
 30
0.0
  0
VERTEX
  5
1AE
  8
16MM
 10
16.25173709169594
 20
-0.1935325550848824
 30
0.0
  0
VERTEX
  5
1AF
  8
16MM
 10
16.25442320654468
 20
-0.1903767296777492
 30
0.0
  0
VERTEX
  5
1B0
  8
16MM
 10
16.25706531185245
 20
-0.1871482736999718
 30
0.0
  0
VERTEX
  5
1B1
  8
16MM
 10
16.25966225353014
 20
-0.1838483795874375
 30
0.0
  0
VERTEX
  5
1B2
  8
16MM
 10
16.26221287748863
 20
-0.1804782397760337
 30
0.0
  0
VERTEX
  5
1B3
  8
16MM
 10
16.26471602963879
 20
-0.1770390467016477
 30
0.0
  0
VERTEX
  5
1B4
  8
16MM
 10
16.26717055589149
 20
-0.1735319928001668
 30
0.0
  0
VERTEX
  5
1B5
  8
16MM
 10
16.26957530215762
 20
-0.1699582705074782
 30
0.0
  0
VERTEX
  5
1B6
  8
16MM
 10
16.27192911434805
 20
-0.1663190722594695
 30
0.0
  0
VERTEX
  5
1B7
  8
16MM
 10
16.27423083837365
 20
-0.1626155904920279
 30
0.0
  0
VERTEX
  5
1B8
  8
16MM
 10
16.2764793201453
 20
-0.1588490176410406
 30
0.0
  0
VERTEX
  5
1B9
  8
16MM
 10
16.27867340557388
 20
-0.1550205461423951
 30
0.0
  0
VERTEX
  5
1BA
  8
16MM
 10
16.28081194057026
 20
-0.1511313684319787
 30
0.0
  0
VERTEX
  5
1BB
  8
16MM
 10
16.28289377104532
 20
-0.1471826769456787
 30
0.0
  0
VERTEX
  5
1BC
  8
16MM
 10
16.28688370559197
 20
-0.1391123678938434
 30
0.0
  0
VERTEX
  5
1BD
  8
16MM
 10
16.29063899408584
 20
-0.13082338599832
 30
0.0
  0
VERTEX
  5
1BE
  8
16MM
 10
16.29415642491592
 20
-0.1223303437754052
 30
0.0
  0
VERTEX
  5
1BF
  8
16MM
 10
16.29743278647121
 20
-0.113647853741396
 30
0.0
  0
VERTEX
  5
1C0
  8
16MM
 10
16.30046486714071
 20
-0.1047905284125893
 30
0.0
  0
VERTEX
  5
1C1
  8
16MM
 10
16.30324945531342
 20
-0.095772980305282
 30
0.0
  0
VERTEX
  5
1C2
  8
16MM
 10
16.30578333937834
 20
-0.086609821935771
 30
0.0
  0
VERTEX
  5
1C3
  8
16MM
 10
16.30806330772446
 20
-0.0773156658203532
 30
0.0
  0
VERTEX
  5
1C4
  8
16MM
 10
16.31008614874079
 20
-0.0679051244753255
 30
0.0
  0
VERTEX
  5
1C5
  8
16MM
 10
16.31184865081631
 20
-0.0583928104169849
 30
0.0
  0
VERTEX
  5
1C6
  8
16MM
 10
16.31334760234004
 20
-0.0487933361616281
 30
0.0
  0
VERTEX
  5
1C7
  8
16MM
 10
16.31457979170096
 20
-0.0391213142255522
 30
0.0
  0
VERTEX
  5
1C8
  8
16MM
 10
16.31554200728809
 20
-0.0293913571250541
 30
0.0
  0
VERTEX
  5
1C9
  8
16MM
 10
16.31623103749041
 20
-0.0196180773764305
 30
0.0
  0
VERTEX
  5
1CA
  8
16MM
 10
16.31664367069693
 20
-0.0098160874959786
 30
0.0
  0
VERTEX
  5
1CB
  8
16MM
 10
16.31677669529664
 20
0.000000000000005
 30
0.0
  0
SEQEND
  5
1CC
  8
16MM
  0
POLYLINE
  5
1CD
  8
16MM
 66
     1
 10
0.0
 20
0.0
 30
0.0
  0
VERTEX
  5
1CE
  8
16MM
 10
13.0
 20
-0.0000000000000011
 30
0.0
  0
VERTEX
  5
1CF
  8
16MM
 10
12.99999999999999
 20
0.2498647796749684
 30
0.0
  0
VERTEX
  5
1D0
  8
16MM
 10
12.99999999999999
 20
0.2498626301084912
 30
0.0
  0
VERTEX
  5
1D1
  8
16MM
 10
13.0
 20
-0.2498647796749706
 30
0.0
  0
VERTEX
  5
1D2
  8
16MM
 10
13.0
 20
-0.2498626301084934
 30
0.0
  0
VERTEX
  5
1D3
  8
16MM
 10
13.0
 20
-0.0000000000000011
 30
0.0
  0
SEQEND
  5
1D4
  8
16MM
  0
POLYLINE
  5
1D5
  8
16MM
 10
0.0
 20
0.0
 30
0.0
 66
     1
 70
     8
  0
VERTEX
  5
1D6
  8
16MM
 10
8.0
 20
0.0000000000000001
 30
0.0
 70
    32
  0
VERTEX
  5
1D7
  8
16MM
 10
8.0
 20
0.2498647796749696
 30
0.0
 70
    32
  0
VERTEX
  5
1D8
  8
16MM
 10
8.0
 20
0.2498626301084924
 30
0.0
 70
    32
  0
VERTEX
  5
1D9
  8
16MM
 10
8.0
 20
-0.2498647796749696
 30
0.0
 70
    32
  0
VERTEX
  5
1DA
  8
16MM
 10
8.0
 20
-0.2498626301084924
 30
0.0
 70
    32
  0
VERTEX
  5
1DB
  8
16MM
 10
8.0
 20
0.0000000000000001
 30
0.0
 70
    32
  0
SEQEND
  5
1DC
  8
16MM
  0
POLYLINE
  5
1DD
  8
16MM
 10
0.0
 20
0.0
 30
0.0
 66
     1
 70
     8
  0
VERTEX
  5
1DE
  8
16MM
 10
3.0
 20
0.0000000000000007
 30
0.0
 70
    32
  0
VERTEX
  5
1DF
  8
16MM
 10
3.0
 20
0.2498647796749701
 30
0.0
 70
    32
  0
VERTEX
  5
1E0
  8
16MM
 10
3.0
 20
0.2498626301084929
 30
0.0
 70
    32
  0
VERTEX
  5
1E1
  8
16MM
 10
3.0
 20
-0.249864779674969
 30
0.0
 70
    32
  0
VERTEX
  5
1E2
  8
16MM
 10
3.0
 20
-0.2498626301084917
 30
0.0
 70
    32
  0
VERTEX
  5
1E3
  8
16MM
 10
3.0
 20
0.0000000000000007
 30
0.0
 70
    32
  0
SEQEND
  5
1E4
  8
16MM
  0
POLYLINE
  5
1E5
  8
16MM
 66
     1
 10
0.0
 20
0.0
 30
0.0
  0
VERTEX
  5
1E6
  8
16MM
 10
-0.1767766952966373
 20
0.0000000000000001
 30
0.0
  0
VERTEX
  5
1E7
  8
16MM
 10
-0.1766280663918496
 20
0.0098155370170711
 30
0.0
  0
VERTEX
  5
1E8
  8
16MM
 10
-0.176200405938117
 20
0.0196157331481966
 30
0.0
  0
VERTEX
  5
1E9
  8
16MM
 10
-0.1754975026043022
 20
0.0293857624081966
 30
0.0
  0
VERTEX
  5
1EA
  8
16MM
 10
-0.1745231450592684
 20
0.039110798811891
 30
0.0
  0
VERTEX
  5
1EB
  8
16MM
 10
-0.1732811219718786
 20
0.0487760163740997
 30
0.0
  0
VERTEX
  5
1EC
  8
16MM
 10
-0.1717752220109957
 20
0.0583665891096426
 30
0.0
  0
VERTEX
  5
1ED
  8
16MM
 10
-0.1700092338454829
 20
0.0678676910333396
 30
0.0
  0
VERTEX
  5
1EE
  8
16MM
 10
-0.1679869461442032
 20
0.0772644961600106
 30
0.0
  0
VERTEX
  5
1EF
  8
16MM
 10
-0.1657121475760196
 20
0.0865421785044755
 30
0.0
  0
VERTEX
  5
1F0
  8
16MM
 10
-0.1631886268097951
 20
0.0956859120815544
 30
0.0
  0
VERTEX
  5
1F1
  8
16MM
 10
-0.1604201725143928
 20
0.104680870906067
 30
0.0
  0
VERTEX
  5
1F2
  8
16MM
 10
-0.1574105733586756
 20
0.1135122289928332
 30
0.0
  0
VERTEX
  5
1F3
  8
16MM
 10
-0.1541636180115066
 20
0.1221651603566731
 30
0.0
  0
VERTEX
  5
1F4
  8
16MM
 10
-0.1506830951417489
 20
0.1306248390124065
 30
0.0
  0
VERTEX
  5
1F5
  8
16MM
 10
-0.1469727934182655
 20
0.1388764389748532
 30
0.0
  0
VERTEX
  5
1F6
  8
16MM
 10
-0.1430365015099193
 20
0.1469051342588334
 30
0.0
  0
VERTEX
  5
1F7
  8
16MM
 10
-0.1388787332953089
 20
0.1546971884252147
 30
0.0
  0
VERTEX
  5
1F8
  8
16MM
 10
-0.1367190673467774
 20
0.1585014762880088
 30
0.0
  0
VERTEX
  5
1F9
  8
16MM
 10
-0.1345069034919742
 20
0.1622432232190566
 30
0.0
  0
VERTEX
  5
1FA
  8
16MM
 10
-0.1322432592218087
 20
0.1659213931297464
 30
0.0
  0
VERTEX
  5
1FB
  8
16MM
 10
-0.1299291520271905
 20
0.1695349499314666
 30
0.0
  0
VERTEX
  5
1FC
  8
16MM
 10
-0.1275655993990289
 20
0.1730828575356056
 30
0.0
  0
VERTEX
  5
1FD
  8
16MM
 10
-0.1251536188282334
 20
0.176564079853552
 30
0.0
  0
VERTEX
  5
1FE
  8
16MM
 10
-0.1226942278057132
 20
0.1799775807966942
 30
0.0
  0
VERTEX
  5
1FF
  8
16MM
 10
-0.120188443822378
 20
0.1833223242764204
 30
0.0
  0
VERTEX
  5
200
  8
16MM
 10
-0.1176372843691371
 20
0.1865972742041192
 30
0.0
  0
VERTEX
  5
201
  8
16MM
 10
-0.1150417669368999
 20
0.1898013944911791
 30
0.0
  0
VERTEX
  5
202
  8
16MM
 10
-0.1124029090165758
 20
0.1929336490489883
 30
0.0
  0
VERTEX
  5
203
  8
16MM
 10
-0.1097217280990743
 20
0.1959930017889355
 30
0.0
  0
VERTEX
  5
204
  8
16MM
 10
-0.1069992416753048
 20
0.1989784166224089
 30
0.0
  0
VERTEX
  5
205
  8
16MM
 10
-0.1042364672361767
 20
0.201888857460797
 30
0.0
  0
VERTEX
  5
206
  8
16MM
 10
-0.1014344222725994
 20
0.2047232882154882
 30
0.0
  0
VERTEX
  5
207
  8
16MM
 10
-0.0985941242754824
 20
0.2074806727978711
 30
0.0
  0
VERTEX
  5
208
  8
16MM
 10
-0.0957165907357351
 20
0.2101599751193339
 30
0.0
  0
VERTEX
  5
209
  8
16MM
 10
-0.0928028391442669
 20
0.2127601590912651
 30
0.0
  0
VERTEX
  5
20A
  8
16MM
 10
-0.0898538869919872
 20
0.2152801886250532
 30
0.0
  0
VERTEX
  5
20B
  8
16MM
 10
-0.0868707517698055
 20
0.2177190276320865
 30
0.0
  0
VERTEX
  5
20C
  8
16MM
 10
-0.0838544509686311
 20
0.2200756400237535
 30
0.0
  0
VERTEX
  5
20D
  8
16MM
 10
-0.0808060020793735
 20
0.2223489897114427
 30
0.0
  0
VERTEX
  5
20E
  8
16MM
 10
-0.0777264225929421
 20
0.2245380406065424
 30
0.0
  0
VERTEX
  5
20F
  8
16MM
 10
-0.0746167300002464
 20
0.2266417566204411
 30
0.0
  0
VERTEX
  5
210
  8
16MM
 10
-0.0714779417921957
 20
0.2286591016645271
 30
0.0
  0
VERTEX
  5
211
  8
16MM
 10
-0.0683110754596995
 20
0.230589039650189
 30
0.0
  0
VERTEX
  5
212
  8
16MM
 10
-0.0651171484936672
 20
0.2324305344888152
 30
0.0
  0
VERTEX
  5
213
  8
16MM
 10
-0.0618971783850082
 20
0.234182550091794
 30
0.0
  0
VERTEX
  5
214
  8
16MM
 10
-0.058652182624632
 20
0.235844050370514
 30
0.0
  0
VERTEX
  5
215
  8
16MM
 10
-0.0553831787034479
 20
0.2374139992363634
 30
0.0
  0
VERTEX
  5
216
  8
16MM
 10
-0.0520912432723616
 20
0.2388915130124427
 30
0.0
  0
VERTEX
  5
217
  8
16MM
 10
-0.0487776896222636
 20
0.240276317668699
 30
0.0
  0
VERTEX
  5
218
  8
16MM
 10
-0.0454438902040404
 20
0.2415682915867914
 30
0.0
  0
VERTEX
  5
219
  8
16MM
 10
-0.0420912174685787
 20
0.2427673131483792
 30
0.0
  0
VERTEX
  5
21A
  8
16MM
 10
-0.0387210438667651
 20
0.2438732607351213
 30
0.0
  0
VERTEX
  5
21B
  8
16MM
 10
-0.0353347418494863
 20
0.2448860127286769
 30
0.0
  0
VERTEX
  5
21C
  8
16MM
 10
-0.0319336838676289
 20
0.245805447510705
 30
0.0
  0
VERTEX
  5
21D
  8
16MM
 10
-0.0285192423720796
 20
0.2466314434628649
 30
0.0
  0
VERTEX
  5
21E
  8
16MM
 10
-0.0250927898137249
 20
0.2473638789668155
 30
0.0
  0
VERTEX
  5
21F
  8
16MM
 10
-0.0216556986434516
 20
0.248002632404216
 30
0.0
  0
VERTEX
  5
220
  8
16MM
 10
-0.0182093413121462
 20
0.2485475821567255
 30
0.0
  0
VERTEX
  5
221
  8
16MM
 10
-0.0147550902706953
 20
0.2489986066060031
 30
0.0
  0
VERTEX
  5
222
  8
16MM
 10
-0.0112943179699857
 20
0.249355584133708
 30
0.0
  0
VERTEX
  5
223
  8
16MM
 10
-0.007828396860904
 20
0.2496183931214991
 30
0.0
  0
VERTEX
  5
224
  8
16MM
 10
-0.0043586993943367
 20
0.2497869119510356
 30
0.0
  0
VERTEX
  5
225
  8
16MM
 10
-0.0008865980211706
 20
0.2498610190039767
 30
0.0
  0
VERTEX
  5
226
  8
16MM
 10
0.0025865348077078
 20
0.2498405926619814
 30
0.0
  0
VERTEX
  5
227
  8
16MM
 10
0.0060593266414118
 20
0.2497255113067088
 30
0.0
  0
VERTEX
  5
228
  8
16MM
 10
0.0095304050290547
 20
0.249515653319818
 30
0.0
  0
VERTEX
  5
229
  8
16MM
 10
0.0129983975197499
 20
0.2492108970829681
 30
0.0
  0
VERTEX
  5
22A
  8
16MM
 10
0.0164619316626109
 20
0.2488111209778183
 30
0.0
  0
VERTEX
  5
22B
  8
16MM
 10
0.0199196350067509
 20
0.2483162033860276
 30
0.0
  0
VERTEX
  5
22C
  8
16MM
 10
0.0233701351012833
 20
0.2477260226892551
 30
0.0
  0
VERTEX
  5
22D
  8
16MM
 10
0.0268120594953216
 20
0.24704045726916
 30
0.0
  0
VERTEX
  5
22E
  8
16MM
 10
0.0302440357379789
 20
0.2462593855074013
 30
0.0
  0
VERTEX
  5
22F
  8
16MM
 10
0.0336646913783688
 20
0.2453826857856382
 30
0.0
  0
VERTEX
  5
230
  8
16MM
 10
0.0370726539656046
 20
0.2444102364855297
 30
0.0
  0
VERTEX
  5
231
  8
16MM
 10
0.0404665510487996
 20
0.243341915988735
 30
0.0
  0
VERTEX
  5
232
  8
16MM
 10
0.0438450101770672
 20
0.2421776026769131
 30
0.0
  0
VERTEX
  5
233
  8
16MM
 10
0.0472066588995207
 20
0.2409171749317232
 30
0.0
  0
VERTEX
  5
234
  8
16MM
 10
0.0505501247652736
 20
0.2395605111348243
 30
0.0
  0
VERTEX
  5
235
  8
16MM
 10
0.0538740353234392
 20
0.2381074896678757
 30
0.0
  0
VERTEX
  5
236
  8
16MM
 10
0.057177054516758
 20
0.2365582079215743
 30
0.0
  0
VERTEX
  5
237
  8
16MM
 10
0.0604579918624787
 20
0.2349136393227695
 30
0.0
  0
VERTEX
  5
238
  8
16MM
 10
0.0637156932714772
 20
0.2331749763073487
 30
0.0
  0
VERTEX
  5
239
  8
16MM
 10
0.0669490046546293
 20
0.2313434113111991
 30
0.0
  0
VERTEX
  5
23A
  8
16MM
 10
0.070156771922811
 20
0.2294201367702081
 30
0.0
  0
VERTEX
  5
23B
  8
16MM
 10
0.0733378409868981
 20
0.227406345120263
 30
0.0
  0
VERTEX
  5
23C
  8
16MM
 10
0.0764910577577665
 20
0.2253032287972511
 30
0.0
  0
VERTEX
  5
23D
  8
16MM
 10
0.0796152681462921
 20
0.2231119802370598
 30
0.0
  0
VERTEX
  5
23E
  8
16MM
 10
0.0827093180633507
 20
0.2208337918755764
 30
0.0
  0
VERTEX
  5
23F
  8
16MM
 10
0.0857720534198182
 20
0.2184698561486881
 30
0.0
  0
VERTEX
  5
240
  8
16MM
 10
0.0888023201265704
 20
0.2160213654922824
 30
0.0
  0
VERTEX
  5
241
  8
16MM
 10
0.0917989640944833
 20
0.2134895123422466
 30
0.0
  0
VERTEX
  5
242
  8
16MM
 10
0.0947608312344327
 20
0.2108754891344679
 30
0.0
  0
VERTEX
  5
243
  8
16MM
 10
0.0976867674572945
 20
0.2081804883048338
 30
0.0
  0
VERTEX
  5
244
  8
16MM
 10
0.1005756186739445
 20
0.2054057022892314
 30
0.0
  0
VERTEX
  5
245
  8
16MM
 10
0.1034262307952586
 20
0.2025523235235483
 30
0.0
  0
VERTEX
  5
246
  8
16MM
 10
0.1062374497321128
 20
0.1996215444436717
 30
0.0
  0
VERTEX
  5
247
  8
16MM
 10
0.1090081213953828
 20
0.1966145574854889
 30
0.0
  0
VERTEX
  5
248
  8
16MM
 10
0.1117370916959445
 20
0.1935325550848873
 30
0.0
  0
VERTEX
  5
249
  8
16MM
 10
0.1144232065446739
 20
0.190376729677754
 30
0.0
  0
VERTEX
  5
24A
  8
16MM
 10
0.1170653118524467
 20
0.1871482736999766
 30
0.0
  0
VERTEX
  5
24B
  8
16MM
 10
0.1196622535301388
 20
0.1838483795874424
 30
0.0
  0
VERTEX
  5
24C
  8
16MM
 10
0.1222128774886262
 20
0.1804782397760386
 30
0.0
  0
VERTEX
  5
24D
  8
16MM
 10
0.1247160296387846
 20
0.1770390467016525
 30
0.0
  0
VERTEX
  5
24E
  8
16MM
 10
0.1271705558914901
 20
0.1735319928001716
 30
0.0
  0
VERTEX
  5
24F
  8
16MM
 10
0.1295753021576183
 20
0.1699582705074831
 30
0.0
  0
VERTEX
  5
250
  8
16MM
 10
0.1319291143480452
 20
0.1663190722594744
 30
0.0
  0
VERTEX
  5
251
  8
16MM
 10
0.1342308383736467
 20
0.1626155904920327
 30
0.0
  0
VERTEX
  5
252
  8
16MM
 10
0.1364793201452987
 20
0.1588490176410455
 30
0.0
  0
VERTEX
  5
253
  8
16MM
 10
0.1386734055738769
 20
0.1550205461424
 30
0.0
  0
VERTEX
  5
254
  8
16MM
 10
0.1408119405702573
 20
0.1511313684319835
 30
0.0
  0
VERTEX
  5
255
  8
16MM
 10
0.1428937710453158
 20
0.1471826769456835
 30
0.0
  0
VERTEX
  5
256
  8
16MM
 10
0.146883705591969
 20
0.1391123678938483
 30
0.0
  0
VERTEX
  5
257
  8
16MM
 10
0.1506389940858364
 20
0.1308233859983249
 30
0.0
  0
VERTEX
  5
258
  8
16MM
 10
0.1541564249159164
 20
0.1223303437754101
 30
0.0
  0
VERTEX
  5
259
  8
16MM
 10
0.1574327864712077
 20
0.1136478537414009
 30
0.0
  0
VERTEX
  5
25A
  8
16MM
 10
0.1604648671407087
 20
0.1047905284125942
 30
0.0
  0
VERTEX
  5
25B
  8
16MM
 10
0.163249455313418
 20
0.0957729803052869
 30
0.0
  0
VERTEX
  5
25C
  8
16MM
 10
0.165783339378334
 20
0.0866098219357759
 30
0.0
  0
VERTEX
  5
25D
  8
16MM
 10
0.1680633077244553
 20
0.0773156658203581
 30
0.0
  0
VERTEX
  5
25E
  8
16MM
 10
0.1700861487407803
 20
0.0679051244753305
 30
0.0
  0
VERTEX
  5
25F
  8
16MM
 10
0.1718486508163077
 20
0.0583928104169898
 30
0.0
  0
VERTEX
  5
260
  8
16MM
 10
0.1733476023400358
 20
0.0487933361616331
 30
0.0
  0
VERTEX
  5
261
  8
16MM
 10
0.1745797917009632
 20
0.0391213142255572
 30
0.0
  0
VERTEX
  5
262
  8
16MM
 10
0.1755420072880885
 20
0.029391357125059
 30
0.0
  0
VERTEX
  5
263
  8
16MM
 10
0.1762310374904101
 20
0.0196180773764355
 30
0.0
  0
VERTEX
  5
264
  8
16MM
 10
0.1766436706969265
 20
0.0098160874959835
 30
0.0
  0
VERTEX
  5
265
  8
16MM
 10
0.1767766952966363
 20
-0.0000000000000001
 30
0.0
  0
VERTEX
  5
266
  8
16MM
 10
0.1766280663918486
 20
-0.009815537017071
 30
0.0
  0
VERTEX
  5
267
  8
16MM
 10
0.176200405938116
 20
-0.0196157331481966
 30
0.0
  0
VERTEX
  5
268
  8
16MM
 10
0.1754975026043012
 20
-0.0293857624081966
 30
0.0
  0
VERTEX
  5
269
  8
16MM
 10
0.1745231450592674
 20
-0.039110798811891
 30
0.0
  0
VERTEX
  5
26A
  8
16MM
 10
0.1732811219718776
 20
-0.0487760163740997
 30
0.0
  0
VERTEX
  5
26B
  8
16MM
 10
0.1717752220109947
 20
-0.0583665891096426
 30
0.0
  0
VERTEX
  5
26C
  8
16MM
 10
0.1700092338454819
 20
-0.0678676910333396
 30
0.0
  0
VERTEX
  5
26D
  8
16MM
 10
0.1679869461442022
 20
-0.0772644961600107
 30
0.0
  0
VERTEX
  5
26E
  8
16MM
 10
0.1657121475760186
 20
-0.0865421785044757
 30
0.0
  0
VERTEX
  5
26F
  8
16MM
 10
0.1631886268097941
 20
-0.0956859120815545
 30
0.0
  0
VERTEX
  5
270
  8
16MM
 10
0.1604201725143918
 20
-0.1046808709060671
 30
0.0
  0
VERTEX
  5
271
  8
16MM
 10
0.1574105733586746
 20
-0.1135122289928334
 30
0.0
  0
VERTEX
  5
272
  8
16MM
 10
0.1541636180115056
 20
-0.1221651603566733
 30
0.0
  0
VERTEX
  5
273
  8
16MM
 10
0.1506830951417479
 20
-0.1306248390124067
 30
0.0
  0
VERTEX
  5
274
  8
16MM
 10
0.1469727934182645
 20
-0.1388764389748535
 30
0.0
  0
VERTEX
  5
275
  8
16MM
 10
0.1430365015099184
 20
-0.1469051342588336
 30
0.0
  0
VERTEX
  5
276
  8
16MM
 10
0.1388787332953079
 20
-0.1546971884252148
 30
0.0
  0
VERTEX
  5
277
  8
16MM
 10
0.1367190673467764
 20
-0.158501476288009
 30
0.0
  0
VERTEX
  5
278
  8
16MM
 10
0.1345069034919732
 20
-0.1622432232190567
 30
0.0
  0
VERTEX
  5
279
  8
16MM
 10
0.1322432592218078
 20
-0.1659213931297465
 30
0.0
  0
VERTEX
  5
27A
  8
16MM
 10
0.1299291520271896
 20
-0.1695349499314667
 30
0.0
  0
VERTEX
  5
27B
  8
16MM
 10
0.127565599399028
 20
-0.1730828575356058
 30
0.0
  0
VERTEX
  5
27C
  8
16MM
 10
0.1251536188282324
 20
-0.1765640798535522
 30
0.0
  0
VERTEX
  5
27D
  8
16MM
 10
0.1226942278057123
 20
-0.1799775807966943
 30
0.0
  0
VERTEX
  5
27E
  8
16MM
 10
0.120188443822377
 20
-0.1833223242764206
 30
0.0
  0
VERTEX
  5
27F
  8
16MM
 10
0.1176372843691361
 20
-0.1865972742041195
 30
0.0
  0
VERTEX
  5
280
  8
16MM
 10
0.1150417669368989
 20
-0.1898013944911793
 30
0.0
  0
VERTEX
  5
281
  8
16MM
 10
0.1124029090165748
 20
-0.1929336490489885
 30
0.0
  0
VERTEX
  5
282
  8
16MM
 10
0.1097217280990734
 20
-0.1959930017889357
 30
0.0
  0
VERTEX
  5
283
  8
16MM
 10
0.1069992416753039
 20
-0.1989784166224091
 30
0.0
  0
VERTEX
  5
284
  8
16MM
 10
0.1042364672361758
 20
-0.2018888574607972
 30
0.0
  0
VERTEX
  5
285
  8
16MM
 10
0.1014344222725985
 20
-0.2047232882154884
 30
0.0
  0
VERTEX
  5
286
  8
16MM
 10
0.0985941242754815
 20
-0.2074806727978712
 30
0.0
  0
VERTEX
  5
287
  8
16MM
 10
0.0957165907357342
 20
-0.210159975119334
 30
0.0
  0
VERTEX
  5
288
  8
16MM
 10
0.092802839144266
 20
-0.2127601590912652
 30
0.0
  0
VERTEX
  5
289
  8
16MM
 10
0.0898538869919863
 20
-0.2152801886250533
 30
0.0
  0
VERTEX
  5
28A
  8
16MM
 10
0.0868707517698046
 20
-0.2177190276320866
 30
0.0
  0
VERTEX
  5
28B
  8
16MM
 10
0.0838544509686302
 20
-0.2200756400237536
 30
0.0
  0
VERTEX
  5
28C
  8
16MM
 10
0.0808060020793726
 20
-0.2223489897114427
 30
0.0
  0
VERTEX
  5
28D
  8
16MM
 10
0.0777264225929413
 20
-0.2245380406065424
 30
0.0
  0
VERTEX
  5
28E
  8
16MM
 10
0.0746167300002455
 20
-0.2266417566204411
 30
0.0
  0
VERTEX
  5
28F
  8
16MM
 10
0.0714779417921948
 20
-0.2286591016645272
 30
0.0
  0
VERTEX
  5
290
  8
16MM
 10
0.0683110754596986
 20
-0.2305890396501891
 30
0.0
  0
VERTEX
  5
291
  8
16MM
 10
0.0651171484936663
 20
-0.2324305344888152
 30
0.0
  0
VERTEX
  5
292
  8
16MM
 10
0.0618971783850074
 20
-0.2341825500917941
 30
0.0
  0
VERTEX
  5
293
  8
16MM
 10
0.0586521826246311
 20
-0.235844050370514
 30
0.0
  0
VERTEX
  5
294
  8
16MM
 10
0.055383178703447
 20
-0.2374139992363635
 30
0.0
  0
VERTEX
  5
295
  8
16MM
 10
0.0520912432723608
 20
-0.2388915130124427
 30
0.0
  0
VERTEX
  5
296
  8
16MM
 10
0.0487776896222627
 20
-0.240276317668699
 30
0.0
  0
VERTEX
  5
297
  8
16MM
 10
0.0454438902040395
 20
-0.2415682915867915
 30
0.0
  0
VERTEX
  5
298
  8
16MM
 10
0.0420912174685778
 20
-0.2427673131483792
 30
0.0
  0
VERTEX
  5
299
  8
16MM
 10
0.0387210438667643
 20
-0.2438732607351213
 30
0.0
  0
VERTEX
  5
29A
  8
16MM
 10
0.0353347418494855
 20
-0.2448860127286769
 30
0.0
  0
VERTEX
  5
29B
  8
16MM
 10
0.0319336838676281
 20
-0.245805447510705
 30
0.0
  0
VERTEX
  5
29C
  8
16MM
 10
0.0285192423720787
 20
-0.2466314434628649
 30
0.0
  0
VERTEX
  5
29D
  8
16MM
 10
0.0250927898137241
 20
-0.2473638789668155
 30
0.0
  0
VERTEX
  5
29E
  8
16MM
 10
0.0216556986434507
 20
-0.248002632404216
 30
0.0
  0
VERTEX
  5
29F
  8
16MM
 10
0.0182093413121453
 20
-0.2485475821567255
 30
0.0
  0
VERTEX
  5
2A0
  8
16MM
 10
0.0147550902706945
 20
-0.2489986066060031
 30
0.0
  0
VERTEX
  5
2A1
  8
16MM
 10
0.0112943179699849
 20
-0.249355584133708
 30
0.0
  0
VERTEX
  5
2A2
  8
16MM
 10
0.0078283968609031
 20
-0.2496183931214991
 30
0.0
  0
VERTEX
  5
2A3
  8
16MM
 10
0.0043586993943359
 20
-0.2497869119510357
 30
0.0
  0
VERTEX
  5
2A4
  8
16MM
 10
0.0008865980211697
 20
-0.2498610190039767
 30
0.0
  0
VERTEX
  5
2A5
  8
16MM
 10
-0.0025865348077087
 20
-0.2498405926619814
 30
0.0
  0
VERTEX
  5
2A6
  8
16MM
 10
-0.0060593266414126
 20
-0.2497255113067088
 30
0.0
  0
VERTEX
  5
2A7
  8
16MM
 10
-0.0095304050290556
 20
-0.249515653319818
 30
0.0
  0
VERTEX
  5
2A8
  8
16MM
 10
-0.0129983975197508
 20
-0.2492108970829681
 30
0.0
  0
VERTEX
  5
2A9
  8
16MM
 10
-0.0164619316626118
 20
-0.2488111209778183
 30
0.0
  0
VERTEX
  5
2AA
  8
16MM
 10
-0.0199196350067518
 20
-0.2483162033860276
 30
0.0
  0
VERTEX
  5
2AB
  8
16MM
 10
-0.0233701351012842
 20
-0.2477260226892551
 30
0.0
  0
VERTEX
  5
2AC
  8
16MM
 10
-0.0268120594953224
 20
-0.24704045726916
 30
0.0
  0
VERTEX
  5
2AD
  8
16MM
 10
-0.0302440357379798
 20
-0.2462593855074013
 30
0.0
  0
VERTEX
  5
2AE
  8
16MM
 10
-0.0336646913783697
 20
-0.2453826857856382
 30
0.0
  0
VERTEX
  5
2AF
  8
16MM
 10
-0.0370726539656054
 20
-0.2444102364855297
 30
0.0
  0
VERTEX
  5
2B0
  8
16MM
 10
-0.0404665510488004
 20
-0.243341915988735
 30
0.0
  0
VERTEX
  5
2B1
  8
16MM
 10
-0.0438450101770681
 20
-0.2421776026769131
 30
0.0
  0
VERTEX
  5
2B2
  8
16MM
 10
-0.0472066588995216
 20
-0.2409171749317232
 30
0.0
  0
VERTEX
  5
2B3
  8
16MM
 10
-0.0505501247652745
 20
-0.2395605111348243
 30
0.0
  0
VERTEX
  5
2B4
  8
16MM
 10
-0.0538740353234401
 20
-0.2381074896678757
 30
0.0
  0
VERTEX
  5
2B5
  8
16MM
 10
-0.0571770545167589
 20
-0.2365582079215744
 30
0.0
  0
VERTEX
  5
2B6
  8
16MM
 10
-0.0604579918624796
 20
-0.2349136393227696
 30
0.0
  0
VERTEX
  5
2B7
  8
16MM
 10
-0.0637156932714781
 20
-0.2331749763073488
 30
0.0
  0
VERTEX
  5
2B8
  8
16MM
 10
-0.0669490046546302
 20
-0.2313434113111991
 30
0.0
  0
VERTEX
  5
2B9
  8
16MM
 10
-0.0701567719228119
 20
-0.2294201367702081
 30
0.0
  0
VERTEX
  5
2BA
  8
16MM
 10
-0.073337840986899
 20
-0.227406345120263
 30
0.0
  0
VERTEX
  5
2BB
  8
16MM
 10
-0.0764910577577674
 20
-0.2253032287972511
 30
0.0
  0
VERTEX
  5
2BC
  8
16MM
 10
-0.079615268146293
 20
-0.2231119802370598
 30
0.0
  0
VERTEX
  5
2BD
  8
16MM
 10
-0.0827093180633516
 20
-0.2208337918755764
 30
0.0
  0
VERTEX
  5
2BE
  8
16MM
 10
-0.0857720534198191
 20
-0.2184698561486881
 30
0.0
  0
VERTEX
  5
2BF
  8
16MM
 10
-0.0888023201265713
 20
-0.2160213654922824
 30
0.0
  0
VERTEX
  5
2C0
  8
16MM
 10
-0.0917989640944842
 20
-0.2134895123422466
 30
0.0
  0
VERTEX
  5
2C1
  8
16MM
 10
-0.0947608312344336
 20
-0.2108754891344679
 30
0.0
  0
VERTEX
  5
2C2
  8
16MM
 10
-0.0976867674572954
 20
-0.2081804883048338
 30
0.0
  0
VERTEX
  5
2C3
  8
16MM
 10
-0.1005756186739454
 20
-0.2054057022892315
 30
0.0
  0
VERTEX
  5
2C4
  8
16MM
 10
-0.1034262307952596
 20
-0.2025523235235484
 30
0.0
  0
VERTEX
  5
2C5
  8
16MM
 10
-0.1062374497321137
 20
-0.1996215444436718
 30
0.0
  0
VERTEX
  5
2C6
  8
16MM
 10
-0.1090081213953837
 20
-0.1966145574854889
 30
0.0
  0
VERTEX
  5
2C7
  8
16MM
 10
-0.1117370916959454
 20
-0.1935325550848873
 30
0.0
  0
VERTEX
  5
2C8
  8
16MM
 10
-0.1144232065446748
 20
-0.1903767296777541
 30
0.0
  0
VERTEX
  5
2C9
  8
16MM
 10
-0.1170653118524476
 20
-0.1871482736999767
 30
0.0
  0
VERTEX
  5
2CA
  8
16MM
 10
-0.1196622535301397
 20
-0.1838483795874424
 30
0.0
  0
VERTEX
  5
2CB
  8
16MM
 10
-0.1222128774886271
 20
-0.1804782397760386
 30
0.0
  0
VERTEX
  5
2CC
  8
16MM
 10
-0.1247160296387855
 20
-0.1770390467016526
 30
0.0
  0
VERTEX
  5
2CD
  8
16MM
 10
-0.127170555891491
 20
-0.1735319928001716
 30
0.0
  0
VERTEX
  5
2CE
  8
16MM
 10
-0.1295753021576192
 20
-0.1699582705074831
 30
0.0
  0
VERTEX
  5
2CF
  8
16MM
 10
-0.1319291143480461
 20
-0.1663190722594744
 30
0.0
  0
VERTEX
  5
2D0
  8
16MM
 10
-0.1342308383736476
 20
-0.1626155904920328
 30
0.0
  0
VERTEX
  5
2D1
  8
16MM
 10
-0.1364793201452996
 20
-0.1588490176410455
 30
0.0
  0
VERTEX
  5
2D2
  8
16MM
 10
-0.1386734055738778
 20
-0.1550205461424
 30
0.0
  0
VERTEX
  5
2D3
  8
16MM
 10
-0.1408119405702582
 20
-0.1511313684319836
 30
0.0
  0
VERTEX
  5
2D4
  8
16MM
 10
-0.1428937710453167
 20
-0.1471826769456835
 30
0.0
  0
VERTEX
  5
2D5
  8
16MM
 10
-0.1468837055919699
 20
-0.1391123678938483
 30
0.0
  0
VERTEX
  5
2D6
  8
16MM
 10
-0.1506389940858373
 20
-0.1308233859983249
 30
0.0
  0
VERTEX
  5
2D7
  8
16MM
 10
-0.1541564249159173
 20
-0.1223303437754101
 30
0.0
  0
VERTEX
  5
2D8
  8
16MM
 10
-0.1574327864712086
 20
-0.1136478537414009
 30
0.0
  0
VERTEX
  5
2D9
  8
16MM
 10
-0.1604648671407096
 20
-0.1047905284125942
 30
0.0
  0
VERTEX
  5
2DA
  8
16MM
 10
-0.1632494553134189
 20
-0.0957729803052869
 30
0.0
  0
VERTEX
  5
2DB
  8
16MM
 10
-0.1657833393783349
 20
-0.0866098219357759
 30
0.0
  0
VERTEX
  5
2DC
  8
16MM
 10
-0.1680633077244562
 20
-0.0773156658203581
 30
0.0
  0
VERTEX
  5
2DD
  8
16MM
 10
-0.1700861487407813
 20
-0.0679051244753304
 30
0.0
  0
VERTEX
  5
2DE
  8
16MM
 10
-0.1718486508163086
 20
-0.0583928104169898
 30
0.0
  0
VERTEX
  5
2DF
  8
16MM
 10
-0.1733476023400367
 20
-0.048793336161633
 30
0.0
  0
VERTEX
  5
2E0
  8
16MM
 10
-0.1745797917009642
 20
-0.0391213142255571
 30
0.0
  0
VERTEX
  5
2E1
  8
16MM
 10
-0.1755420072880894
 20
-0.0293913571250589
 30
0.0
  0
VERTEX
  5
2E2
  8
16MM
 10
-0.176231037490411
 20
-0.0196180773764354
 30
0.0
  0
VERTEX
  5
2E3
  8
16MM
 10
-0.1766436706969275
 20
-0.0098160874959834
 30
0.0
  0
VERTEX
  5
2E4
  8
16MM
 10
-0.1767766952966373
 20
0.0000000000000001
 30
0.0
  0
SEQEND
  5
2E5
  8
16MM
  0
CIRCLE
  5
2E6
  8
16MM
 10
0.0
 20
-0.0001358736758194
 30
0.0
 40
0.2500000369233089
  0
ENDSEC
  0
EOF
